G04*
G04 #@! TF.GenerationSoftware,Altium Limited,Altium Designer,26.9.1 (10)*
G04*
G04 Layer_Color=16711935*
G04 Board_Origin=74640005|44270005*
%FSLAX25Y25*%
%MOIN*%
G70*
G04*
G04 #@! TF.SameCoordinates,3FED8E9F-E4E8-473A-AAD3-60139D3386C6*
G04*
G04*
G04 #@! TF.FilePolarity,Negative*
G04*
G01*
G75*
%ADD16C,0.02000*%
%ADD17C,0.09087*%
%ADD18R,0.09087X0.09087*%
%ADD19C,0.12039*%
%ADD20C,0.12236*%
%ADD21C,0.13000*%
G04:AMPARAMS|DCode=22|XSize=122.36mil|YSize=122.36mil|CornerRadius=35.59mil|HoleSize=0mil|Usage=FLASHONLY|Rotation=180.000|XOffset=0mil|YOffset=0mil|HoleType=Round|Shape=RoundedRectangle|*
%AMROUNDEDRECTD22*
21,1,0.12236,0.05118,0,0,180.0*
21,1,0.05118,0.12236,0,0,180.0*
1,1,0.07118,-0.02559,0.02559*
1,1,0.07118,0.02559,0.02559*
1,1,0.07118,0.02559,-0.02559*
1,1,0.07118,-0.02559,-0.02559*
%
%ADD22ROUNDEDRECTD22*%
%ADD23C,0.06000*%
G36*
X-74545Y30016D02*
Y34752D01*
X-73118D01*
X-73063Y34749D01*
X-73005D01*
X-72885Y34745D01*
X-72758Y34738D01*
X-72699Y34734D01*
X-72641Y34727D01*
X-72587Y34723D01*
X-72536Y34716D01*
X-72525D01*
X-72510Y34712D01*
X-72492Y34708D01*
X-72470Y34705D01*
X-72441Y34698D01*
X-72379Y34683D01*
X-72303Y34665D01*
X-72223Y34636D01*
X-72135Y34603D01*
X-72048Y34559D01*
X-72044D01*
X-72037Y34552D01*
X-72022Y34545D01*
X-72008Y34534D01*
X-71986Y34519D01*
X-71961Y34505D01*
X-71906Y34461D01*
X-71844Y34410D01*
X-71782Y34348D01*
X-71728Y34279D01*
X-71677Y34199D01*
Y34195D01*
X-71673Y34188D01*
X-71666Y34177D01*
X-71658Y34159D01*
X-71647Y34141D01*
X-71640Y34115D01*
X-71629Y34086D01*
X-71615Y34053D01*
X-71593Y33977D01*
X-71575Y33889D01*
X-71560Y33791D01*
X-71556Y33682D01*
Y33649D01*
X-71560Y33627D01*
Y33595D01*
X-71567Y33562D01*
X-71571Y33522D01*
X-71578Y33482D01*
X-71600Y33387D01*
X-71651Y33234D01*
X-71702Y33132D01*
X-71735Y33081D01*
X-71738Y33078D01*
X-71742Y33070D01*
X-71753Y33056D01*
X-71768Y33038D01*
X-71786Y33016D01*
X-71808Y32990D01*
X-71833Y32961D01*
X-71895Y32899D01*
X-71931Y32867D01*
X-72015Y32798D01*
X-72113Y32732D01*
X-72223Y32670D01*
Y32645D01*
X-72219D01*
X-72204Y32637D01*
X-72183Y32634D01*
X-72153Y32623D01*
X-72117Y32608D01*
X-72077Y32594D01*
X-71982Y32550D01*
X-71931Y32521D01*
X-71877Y32492D01*
X-71768Y32419D01*
X-71713Y32375D01*
X-71662Y32331D01*
X-71615Y32281D01*
X-71567Y32226D01*
X-71564Y32222D01*
X-71556Y32211D01*
X-71545Y32197D01*
X-71531Y32171D01*
X-71513Y32142D01*
X-71495Y32106D01*
X-71473Y32066D01*
X-71451Y32019D01*
X-71429Y31967D01*
X-71407Y31909D01*
X-71389Y31847D01*
X-71371Y31778D01*
X-71356Y31709D01*
X-71345Y31633D01*
X-71338Y31553D01*
X-71334Y31469D01*
Y31436D01*
X-71338Y31411D01*
Y31378D01*
X-71342Y31341D01*
X-71345Y31301D01*
X-71353Y31258D01*
X-71367Y31159D01*
X-71393Y31058D01*
X-71425Y30948D01*
X-71469Y30843D01*
Y30839D01*
X-71476Y30832D01*
X-71484Y30817D01*
X-71495Y30799D01*
X-71505Y30774D01*
X-71524Y30748D01*
X-71564Y30686D01*
X-71615Y30617D01*
X-71677Y30541D01*
X-71749Y30468D01*
X-71829Y30399D01*
X-71833Y30395D01*
X-71840Y30391D01*
X-71855Y30380D01*
X-71877Y30366D01*
X-71899Y30348D01*
X-71928Y30330D01*
X-72000Y30286D01*
X-72084Y30235D01*
X-72183Y30188D01*
X-72288Y30140D01*
X-72401Y30104D01*
X-72405D01*
X-72416Y30100D01*
X-72434Y30097D01*
X-72456Y30089D01*
X-72488Y30082D01*
X-72525Y30075D01*
X-72565Y30068D01*
X-72667Y30053D01*
X-72729Y30046D01*
X-72794Y30038D01*
X-72863Y30031D01*
X-72940Y30024D01*
X-73016Y30020D01*
X-73103Y30016D01*
X-74545D01*
D02*
G37*
%LPC*%
G36*
X-73915Y30555D02*
X-73304D01*
X-73260Y30559D01*
X-73169D01*
X-73063Y30562D01*
X-72954Y30570D01*
X-72849Y30581D01*
X-72801Y30584D01*
X-72754Y30592D01*
X-72750D01*
X-72743Y30595D01*
X-72732D01*
X-72714Y30599D01*
X-72692Y30603D01*
X-72670Y30610D01*
X-72612Y30624D01*
X-72546Y30646D01*
X-72477Y30675D01*
X-72405Y30708D01*
X-72335Y30752D01*
X-72332D01*
X-72328Y30759D01*
X-72306Y30774D01*
X-72273Y30799D01*
X-72237Y30836D01*
X-72193Y30876D01*
X-72150Y30926D01*
X-72110Y30977D01*
X-72073Y31036D01*
Y31039D01*
X-72070Y31043D01*
X-72059Y31065D01*
X-72048Y31098D01*
X-72030Y31145D01*
X-72015Y31203D01*
X-72004Y31272D01*
X-71993Y31352D01*
X-71990Y31443D01*
Y31487D01*
X-71993Y31509D01*
Y31538D01*
X-72000Y31596D01*
X-72008Y31665D01*
X-72022Y31738D01*
X-72041Y31811D01*
X-72066Y31880D01*
Y31884D01*
X-72070Y31888D01*
X-72081Y31909D01*
X-72102Y31942D01*
X-72132Y31982D01*
X-72175Y32029D01*
X-72230Y32077D01*
X-72295Y32128D01*
X-72332Y32153D01*
X-72383Y32179D01*
X-72401Y32190D01*
X-72434Y32201D01*
X-72474Y32219D01*
X-72521Y32237D01*
X-72576Y32252D01*
X-72637Y32266D01*
X-72703Y32277D01*
X-72710D01*
X-72721Y32281D01*
X-72736D01*
X-72754Y32284D01*
X-72776D01*
X-72801Y32288D01*
X-72830Y32291D01*
X-72863D01*
X-72903Y32295D01*
X-72943D01*
X-72987Y32299D01*
X-73034D01*
X-73089Y32302D01*
X-73915D01*
Y30555D01*
D02*
G37*
G36*
Y32827D02*
X-73100D01*
X-73038Y32830D01*
X-72965Y32834D01*
X-72896Y32838D01*
X-72827Y32845D01*
X-72798Y32852D01*
X-72769Y32856D01*
X-72761D01*
X-72743Y32863D01*
X-72714Y32870D01*
X-72678Y32881D01*
X-72634Y32899D01*
X-72587Y32921D01*
X-72532Y32947D01*
X-72477Y32980D01*
X-72470Y32983D01*
X-72456Y32998D01*
X-72430Y33016D01*
X-72397Y33045D01*
X-72364Y33081D01*
X-72332Y33121D01*
X-72299Y33169D01*
X-72273Y33223D01*
X-72270Y33231D01*
X-72263Y33249D01*
X-72255Y33282D01*
X-72241Y33325D01*
X-72230Y33380D01*
X-72223Y33442D01*
X-72215Y33511D01*
X-72212Y33591D01*
Y33620D01*
X-72215Y33653D01*
X-72219Y33693D01*
X-72226Y33737D01*
X-72237Y33788D01*
X-72252Y33838D01*
X-72270Y33886D01*
X-72281Y33908D01*
X-72295Y33929D01*
X-72314Y33959D01*
X-72339Y33991D01*
X-72372Y34024D01*
X-72412Y34057D01*
X-72456Y34086D01*
X-72463Y34090D01*
X-72481Y34101D01*
X-72514Y34115D01*
X-72554Y34133D01*
X-72605Y34152D01*
X-72663Y34166D01*
X-72729Y34181D01*
X-72798Y34192D01*
X-72805D01*
X-72816Y34195D01*
X-72852D01*
X-72874Y34199D01*
X-72900D01*
X-72965Y34206D01*
X-73005D01*
X-73049Y34210D01*
X-73144D01*
X-73198Y34213D01*
X-73915D01*
Y32827D01*
D02*
G37*
%LPD*%
G36*
X-71003Y31633D02*
X-71007Y31789D01*
Y31851D01*
X-71003Y31877D01*
Y31902D01*
X-70999Y31935D01*
X-70992Y32011D01*
X-70985Y32099D01*
X-70970Y32193D01*
X-70952Y32295D01*
X-70930Y32404D01*
X-70901Y32517D01*
X-70865Y32634D01*
X-70821Y32750D01*
X-70774Y32863D01*
X-70716Y32972D01*
X-70646Y33078D01*
X-70570Y33172D01*
X-70566Y33180D01*
X-70548Y33194D01*
X-70526Y33220D01*
X-70490Y33249D01*
X-70446Y33289D01*
X-70395Y33329D01*
X-70333Y33373D01*
X-70261Y33420D01*
X-70184Y33467D01*
X-70097Y33511D01*
X-70002Y33551D01*
X-69900Y33591D01*
X-69791Y33620D01*
X-69675Y33646D01*
X-69551Y33664D01*
X-69420Y33667D01*
X-69387D01*
X-69351Y33664D01*
X-69300Y33660D01*
X-69241Y33653D01*
X-69169Y33642D01*
X-69092Y33627D01*
X-69008Y33606D01*
X-68917Y33580D01*
X-68823Y33547D01*
X-68728Y33507D01*
X-68634Y33460D01*
X-68535Y33405D01*
X-68444Y33340D01*
X-68353Y33263D01*
X-68269Y33176D01*
X-68266Y33169D01*
X-68251Y33154D01*
X-68230Y33125D01*
X-68200Y33085D01*
X-68168Y33034D01*
X-68131Y32972D01*
X-68095Y32903D01*
X-68051Y32819D01*
X-68011Y32725D01*
X-67975Y32623D01*
X-67938Y32506D01*
X-67905Y32383D01*
X-67876Y32252D01*
X-67855Y32106D01*
X-67840Y31953D01*
X-67836Y31789D01*
Y31727D01*
X-67840Y31702D01*
Y31673D01*
X-67844Y31644D01*
X-67851Y31567D01*
X-67858Y31480D01*
X-67873Y31385D01*
X-67891Y31280D01*
X-67913Y31170D01*
X-67942Y31058D01*
X-67978Y30945D01*
X-68018Y30828D01*
X-68069Y30715D01*
X-68128Y30606D01*
X-68193Y30501D01*
X-68269Y30406D01*
X-68273Y30402D01*
X-68288Y30384D01*
X-68313Y30362D01*
X-68350Y30330D01*
X-68393Y30293D01*
X-68444Y30253D01*
X-68506Y30209D01*
X-68575Y30162D01*
X-68655Y30118D01*
X-68739Y30071D01*
X-68834Y30031D01*
X-68936Y29995D01*
X-69049Y29962D01*
X-69165Y29940D01*
X-69289Y29926D01*
X-69420Y29918D01*
X-69453D01*
X-69489Y29922D01*
X-69543Y29926D01*
X-69605Y29933D01*
X-69675Y29944D01*
X-69755Y29962D01*
X-69842Y29980D01*
X-69933Y30009D01*
X-70028Y30042D01*
X-70126Y30082D01*
X-70224Y30129D01*
X-70319Y30188D01*
X-70414Y30253D01*
X-70501Y30333D01*
X-70585Y30421D01*
X-70588Y30428D01*
X-70603Y30442D01*
X-70625Y30472D01*
X-70650Y30512D01*
X-70683Y30562D01*
X-70719Y30624D01*
X-70756Y30697D01*
X-70796Y30781D01*
X-70836Y30872D01*
X-70872Y30974D01*
X-70908Y31087D01*
X-70941Y31210D01*
X-70967Y31341D01*
X-70989Y31483D01*
X-71003Y31633D01*
D02*
G37*
%LPC*%
G36*
X-70392Y31727D02*
X-70388Y31680D01*
X-70384Y31625D01*
X-70377Y31560D01*
X-70370Y31491D01*
X-70359Y31414D01*
X-70348Y31334D01*
X-70312Y31167D01*
X-70286Y31083D01*
X-70257Y30999D01*
X-70224Y30919D01*
X-70184Y30846D01*
X-70140Y30777D01*
X-70137Y30774D01*
X-70130Y30763D01*
X-70115Y30744D01*
X-70068Y30697D01*
X-70035Y30668D01*
X-69999Y30639D01*
X-69955Y30606D01*
X-69907Y30573D01*
X-69853Y30544D01*
X-69795Y30515D01*
X-69729Y30490D01*
X-69660Y30468D01*
X-69587Y30450D01*
X-69503Y30439D01*
X-69420Y30435D01*
X-69398D01*
X-69376Y30439D01*
X-69343D01*
X-69303Y30446D01*
X-69260Y30453D01*
X-69212Y30464D01*
X-69158Y30479D01*
X-69099Y30493D01*
X-69041Y30515D01*
X-68983Y30544D01*
X-68925Y30577D01*
X-68866Y30613D01*
X-68808Y30661D01*
X-68757Y30712D01*
X-68706Y30770D01*
X-68703Y30774D01*
X-68695Y30785D01*
X-68685Y30806D01*
X-68666Y30832D01*
X-68626Y30912D01*
X-68601Y30967D01*
X-68579Y31025D01*
X-68553Y31090D01*
X-68532Y31167D01*
X-68510Y31251D01*
X-68492Y31341D01*
X-68473Y31443D01*
X-68462Y31549D01*
X-68455Y31665D01*
X-68451Y31789D01*
Y31855D01*
X-68455Y31902D01*
X-68459Y31960D01*
X-68466Y32026D01*
X-68473Y32099D01*
X-68484Y32175D01*
X-68495Y32259D01*
X-68513Y32342D01*
X-68557Y32510D01*
X-68590Y32594D01*
X-68623Y32674D01*
X-68663Y32746D01*
X-68706Y32812D01*
X-68710Y32816D01*
X-68717Y32827D01*
X-68732Y32845D01*
X-68779Y32892D01*
X-68808Y32918D01*
X-68888Y32983D01*
X-68939Y33012D01*
X-68990Y33045D01*
X-69049Y33070D01*
X-69114Y33100D01*
X-69183Y33118D01*
X-69256Y33136D01*
X-69336Y33147D01*
X-69420Y33151D01*
X-69442D01*
X-69463Y33147D01*
X-69496D01*
X-69536Y33140D01*
X-69580Y33132D01*
X-69631Y33121D01*
X-69686Y33107D01*
X-69744Y33089D01*
X-69802Y33067D01*
X-69860Y33041D01*
X-69922Y33009D01*
X-69980Y32969D01*
X-70039Y32925D01*
X-70090Y32870D01*
X-70140Y32812D01*
X-70144Y32808D01*
X-70151Y32798D01*
X-70162Y32776D01*
X-70180Y32750D01*
X-70221Y32670D01*
X-70242Y32619D01*
X-70264Y32557D01*
X-70290Y32492D01*
X-70312Y32415D01*
X-70333Y32331D01*
X-70352Y32241D01*
X-70370Y32139D01*
X-70381Y32029D01*
X-70388Y31913D01*
X-70392Y31789D01*
Y31727D01*
D02*
G37*
%LPD*%
G36*
X-67589Y33074D02*
Y33569D01*
X-67185D01*
Y34588D01*
X-66588D01*
Y33569D01*
X-65489D01*
Y33074D01*
X-66588D01*
Y31229D01*
X-66584Y31159D01*
Y31021D01*
X-66581Y30963D01*
Y30956D01*
X-66577Y30937D01*
X-66573Y30912D01*
X-66566Y30876D01*
X-66559Y30832D01*
X-66544Y30788D01*
X-66530Y30737D01*
X-66508Y30690D01*
X-66504Y30686D01*
X-66497Y30672D01*
X-66482Y30650D01*
X-66464Y30628D01*
X-66442Y30599D01*
X-66409Y30573D01*
X-66377Y30544D01*
X-66326Y30519D01*
X-66311Y30515D01*
X-66286Y30504D01*
X-66246Y30497D01*
X-66198Y30486D01*
X-66144Y30475D01*
X-66078Y30472D01*
X-66005Y30468D01*
X-65980D01*
X-65951Y30472D01*
X-65914D01*
X-65874Y30479D01*
X-65827Y30486D01*
X-65776Y30493D01*
X-65725Y30508D01*
X-65718Y30512D01*
X-65703Y30515D01*
X-65678Y30523D01*
X-65649Y30533D01*
X-65583Y30559D01*
X-65550Y30570D01*
X-65525Y30581D01*
X-65489D01*
Y30046D01*
X-65496D01*
X-65518Y30038D01*
X-65550Y30031D01*
X-65594Y30020D01*
X-65649Y30009D01*
X-65707Y29998D01*
X-65769Y29987D01*
X-65834Y29976D01*
X-65842D01*
X-65864Y29973D01*
X-65896Y29969D01*
X-65936Y29962D01*
X-65987Y29958D01*
X-66038Y29951D01*
X-66151Y29947D01*
X-66173D01*
X-66198Y29951D01*
X-66231D01*
X-66271Y29955D01*
X-66319Y29962D01*
X-66373Y29969D01*
X-66428Y29984D01*
X-66490Y29998D01*
X-66551Y30016D01*
X-66613Y30038D01*
X-66679Y30064D01*
X-66741Y30097D01*
X-66799Y30133D01*
X-66857Y30177D01*
X-66912Y30224D01*
X-66915Y30228D01*
X-66923Y30239D01*
X-66937Y30253D01*
X-66956Y30279D01*
X-66974Y30308D01*
X-66999Y30344D01*
X-67046Y30439D01*
X-67072Y30497D01*
X-67097Y30562D01*
X-67123Y30632D01*
X-67141Y30712D01*
X-67159Y30799D01*
X-67174Y30894D01*
X-67181Y30996D01*
X-67185Y31105D01*
Y33074D01*
X-67589D01*
D02*
G37*
G36*
X-65412D02*
Y33569D01*
X-65008D01*
Y34588D01*
X-64411D01*
Y33569D01*
X-63312D01*
Y33074D01*
X-64411D01*
Y31229D01*
X-64407Y31159D01*
Y31021D01*
X-64404Y30963D01*
Y30956D01*
X-64400Y30937D01*
X-64397Y30912D01*
X-64389Y30876D01*
X-64382Y30832D01*
X-64367Y30788D01*
X-64353Y30737D01*
X-64331Y30690D01*
X-64327Y30686D01*
X-64320Y30672D01*
X-64306Y30650D01*
X-64287Y30628D01*
X-64266Y30599D01*
X-64233Y30573D01*
X-64200Y30544D01*
X-64149Y30519D01*
X-64135Y30515D01*
X-64109Y30504D01*
X-64069Y30497D01*
X-64022Y30486D01*
X-63967Y30475D01*
X-63902Y30472D01*
X-63829Y30468D01*
X-63803D01*
X-63774Y30472D01*
X-63738D01*
X-63698Y30479D01*
X-63650Y30486D01*
X-63599Y30493D01*
X-63548Y30508D01*
X-63541Y30512D01*
X-63527Y30515D01*
X-63501Y30523D01*
X-63472Y30533D01*
X-63406Y30559D01*
X-63374Y30570D01*
X-63348Y30581D01*
X-63312D01*
Y30046D01*
X-63319D01*
X-63341Y30038D01*
X-63374Y30031D01*
X-63417Y30020D01*
X-63472Y30009D01*
X-63530Y29998D01*
X-63592Y29987D01*
X-63658Y29976D01*
X-63665D01*
X-63687Y29973D01*
X-63719Y29969D01*
X-63760Y29962D01*
X-63810Y29958D01*
X-63862Y29951D01*
X-63974Y29947D01*
X-63996D01*
X-64022Y29951D01*
X-64054D01*
X-64094Y29955D01*
X-64142Y29962D01*
X-64196Y29969D01*
X-64251Y29984D01*
X-64313Y29998D01*
X-64375Y30016D01*
X-64437Y30038D01*
X-64502Y30064D01*
X-64564Y30097D01*
X-64622Y30133D01*
X-64680Y30177D01*
X-64735Y30224D01*
X-64739Y30228D01*
X-64746Y30239D01*
X-64761Y30253D01*
X-64779Y30279D01*
X-64797Y30308D01*
X-64822Y30344D01*
X-64870Y30439D01*
X-64895Y30497D01*
X-64921Y30562D01*
X-64946Y30632D01*
X-64964Y30712D01*
X-64983Y30799D01*
X-64997Y30894D01*
X-65004Y30996D01*
X-65008Y31105D01*
Y33074D01*
X-65412D01*
D02*
G37*
G36*
X-63115Y31633D02*
X-63119Y31789D01*
Y31851D01*
X-63115Y31877D01*
Y31902D01*
X-63112Y31935D01*
X-63104Y32011D01*
X-63097Y32099D01*
X-63082Y32193D01*
X-63064Y32295D01*
X-63042Y32404D01*
X-63013Y32517D01*
X-62977Y32634D01*
X-62933Y32750D01*
X-62886Y32863D01*
X-62828Y32972D01*
X-62759Y33078D01*
X-62682Y33172D01*
X-62678Y33180D01*
X-62660Y33194D01*
X-62638Y33220D01*
X-62602Y33249D01*
X-62558Y33289D01*
X-62507Y33329D01*
X-62445Y33373D01*
X-62373Y33420D01*
X-62296Y33467D01*
X-62209Y33511D01*
X-62114Y33551D01*
X-62012Y33591D01*
X-61903Y33620D01*
X-61787Y33646D01*
X-61663Y33664D01*
X-61532Y33667D01*
X-61499D01*
X-61463Y33664D01*
X-61412Y33660D01*
X-61353Y33653D01*
X-61281Y33642D01*
X-61204Y33627D01*
X-61121Y33606D01*
X-61030Y33580D01*
X-60935Y33547D01*
X-60840Y33507D01*
X-60746Y33460D01*
X-60647Y33405D01*
X-60556Y33340D01*
X-60465Y33263D01*
X-60382Y33176D01*
X-60378Y33169D01*
X-60363Y33154D01*
X-60342Y33125D01*
X-60312Y33085D01*
X-60280Y33034D01*
X-60243Y32972D01*
X-60207Y32903D01*
X-60163Y32819D01*
X-60123Y32725D01*
X-60087Y32623D01*
X-60050Y32506D01*
X-60018Y32383D01*
X-59988Y32252D01*
X-59967Y32106D01*
X-59952Y31953D01*
X-59948Y31789D01*
Y31727D01*
X-59952Y31702D01*
Y31673D01*
X-59956Y31644D01*
X-59963Y31567D01*
X-59970Y31480D01*
X-59985Y31385D01*
X-60003Y31280D01*
X-60025Y31170D01*
X-60054Y31058D01*
X-60090Y30945D01*
X-60131Y30828D01*
X-60181Y30715D01*
X-60240Y30606D01*
X-60305Y30501D01*
X-60382Y30406D01*
X-60385Y30402D01*
X-60400Y30384D01*
X-60425Y30362D01*
X-60462Y30330D01*
X-60505Y30293D01*
X-60556Y30253D01*
X-60618Y30209D01*
X-60687Y30162D01*
X-60768Y30118D01*
X-60851Y30071D01*
X-60946Y30031D01*
X-61048Y29995D01*
X-61161Y29962D01*
X-61277Y29940D01*
X-61401Y29926D01*
X-61532Y29918D01*
X-61565D01*
X-61601Y29922D01*
X-61656Y29926D01*
X-61717Y29933D01*
X-61787Y29944D01*
X-61867Y29962D01*
X-61954Y29980D01*
X-62045Y30009D01*
X-62140Y30042D01*
X-62238Y30082D01*
X-62336Y30129D01*
X-62431Y30188D01*
X-62526Y30253D01*
X-62613Y30333D01*
X-62697Y30421D01*
X-62700Y30428D01*
X-62715Y30442D01*
X-62737Y30472D01*
X-62762Y30512D01*
X-62795Y30562D01*
X-62831Y30624D01*
X-62868Y30697D01*
X-62908Y30781D01*
X-62948Y30872D01*
X-62984Y30974D01*
X-63021Y31087D01*
X-63053Y31210D01*
X-63079Y31341D01*
X-63101Y31483D01*
X-63115Y31633D01*
D02*
G37*
%LPC*%
G36*
X-62504Y31727D02*
X-62500Y31680D01*
X-62497Y31625D01*
X-62489Y31560D01*
X-62482Y31491D01*
X-62471Y31414D01*
X-62460Y31334D01*
X-62424Y31167D01*
X-62398Y31083D01*
X-62369Y30999D01*
X-62336Y30919D01*
X-62296Y30846D01*
X-62253Y30777D01*
X-62249Y30774D01*
X-62242Y30763D01*
X-62227Y30744D01*
X-62180Y30697D01*
X-62147Y30668D01*
X-62111Y30639D01*
X-62067Y30606D01*
X-62020Y30573D01*
X-61965Y30544D01*
X-61907Y30515D01*
X-61841Y30490D01*
X-61772Y30468D01*
X-61699Y30450D01*
X-61616Y30439D01*
X-61532Y30435D01*
X-61510D01*
X-61488Y30439D01*
X-61455D01*
X-61415Y30446D01*
X-61372Y30453D01*
X-61324Y30464D01*
X-61270Y30479D01*
X-61212Y30493D01*
X-61153Y30515D01*
X-61095Y30544D01*
X-61037Y30577D01*
X-60979Y30613D01*
X-60920Y30661D01*
X-60869Y30712D01*
X-60818Y30770D01*
X-60815Y30774D01*
X-60808Y30785D01*
X-60797Y30806D01*
X-60778Y30832D01*
X-60738Y30912D01*
X-60713Y30967D01*
X-60691Y31025D01*
X-60666Y31090D01*
X-60644Y31167D01*
X-60622Y31251D01*
X-60604Y31341D01*
X-60585Y31443D01*
X-60575Y31549D01*
X-60567Y31665D01*
X-60564Y31789D01*
Y31855D01*
X-60567Y31902D01*
X-60571Y31960D01*
X-60578Y32026D01*
X-60585Y32099D01*
X-60596Y32175D01*
X-60607Y32259D01*
X-60625Y32342D01*
X-60669Y32510D01*
X-60702Y32594D01*
X-60735Y32674D01*
X-60775Y32746D01*
X-60818Y32812D01*
X-60822Y32816D01*
X-60829Y32827D01*
X-60844Y32845D01*
X-60891Y32892D01*
X-60920Y32918D01*
X-61000Y32983D01*
X-61051Y33012D01*
X-61102Y33045D01*
X-61161Y33070D01*
X-61226Y33100D01*
X-61295Y33118D01*
X-61368Y33136D01*
X-61448Y33147D01*
X-61532Y33151D01*
X-61554D01*
X-61576Y33147D01*
X-61608D01*
X-61648Y33140D01*
X-61692Y33132D01*
X-61743Y33121D01*
X-61798Y33107D01*
X-61856Y33089D01*
X-61914Y33067D01*
X-61972Y33041D01*
X-62034Y33009D01*
X-62092Y32969D01*
X-62151Y32925D01*
X-62202Y32870D01*
X-62253Y32812D01*
X-62256Y32808D01*
X-62264Y32798D01*
X-62274Y32776D01*
X-62293Y32750D01*
X-62333Y32670D01*
X-62354Y32619D01*
X-62376Y32557D01*
X-62402Y32492D01*
X-62424Y32415D01*
X-62445Y32331D01*
X-62464Y32241D01*
X-62482Y32139D01*
X-62493Y32029D01*
X-62500Y31913D01*
X-62504Y31789D01*
Y31727D01*
D02*
G37*
%LPD*%
G36*
X-59337Y30016D02*
Y33569D01*
X-58740D01*
Y33172D01*
X-58700Y33212D01*
X-58678Y33231D01*
X-58653Y33253D01*
X-58594Y33307D01*
X-58525Y33365D01*
X-58445Y33427D01*
X-58365Y33485D01*
X-58278Y33536D01*
X-58274D01*
X-58267Y33544D01*
X-58256Y33547D01*
X-58238Y33558D01*
X-58216Y33566D01*
X-58190Y33576D01*
X-58161Y33591D01*
X-58125Y33602D01*
X-58052Y33627D01*
X-57965Y33646D01*
X-57870Y33660D01*
X-57768Y33667D01*
X-57739D01*
X-57714Y33664D01*
X-57688D01*
X-57655Y33660D01*
X-57619Y33656D01*
X-57582Y33649D01*
X-57495Y33631D01*
X-57401Y33606D01*
X-57306Y33569D01*
X-57211Y33522D01*
X-57208D01*
X-57200Y33515D01*
X-57189Y33507D01*
X-57171Y33496D01*
X-57127Y33460D01*
X-57102Y33438D01*
X-57044Y33380D01*
X-57015Y33343D01*
X-56982Y33307D01*
X-56953Y33263D01*
X-56920Y33216D01*
X-56891Y33165D01*
X-56865Y33110D01*
X-56840Y33052D01*
X-56836Y33056D01*
X-56829Y33067D01*
X-56793Y33103D01*
X-56771Y33129D01*
X-56742Y33158D01*
X-56709Y33187D01*
X-56673Y33223D01*
X-56592Y33296D01*
X-56505Y33373D01*
X-56410Y33445D01*
X-56312Y33511D01*
X-56309Y33515D01*
X-56287Y33525D01*
X-56268Y33536D01*
X-56243Y33547D01*
X-56214Y33562D01*
X-56181Y33576D01*
X-56145Y33591D01*
X-56061Y33617D01*
X-55966Y33642D01*
X-55861Y33660D01*
X-55806Y33667D01*
X-55712D01*
X-55693Y33664D01*
X-55668D01*
X-55613Y33660D01*
X-55548Y33649D01*
X-55479Y33638D01*
X-55409Y33620D01*
X-55337Y33595D01*
X-55333D01*
X-55329Y33591D01*
X-55318Y33587D01*
X-55304Y33580D01*
X-55271Y33562D01*
X-55224Y33540D01*
X-55173Y33507D01*
X-55118Y33467D01*
X-55064Y33420D01*
X-55002Y33358D01*
X-54984Y33336D01*
X-54958Y33300D01*
X-54925Y33253D01*
X-54889Y33194D01*
X-54852Y33125D01*
X-54820Y33045D01*
X-54787Y32958D01*
Y32954D01*
X-54783Y32947D01*
X-54780Y32932D01*
X-54776Y32914D01*
X-54769Y32892D01*
X-54761Y32863D01*
X-54754Y32830D01*
X-54747Y32794D01*
X-54732Y32706D01*
X-54725Y32656D01*
X-54718Y32601D01*
X-54711Y32484D01*
X-54707Y32353D01*
Y30016D01*
X-55304D01*
Y32157D01*
X-55308Y32219D01*
Y32288D01*
X-55311Y32364D01*
X-55326Y32521D01*
Y32532D01*
X-55329Y32543D01*
Y32557D01*
X-55333Y32594D01*
X-55344Y32641D01*
X-55355Y32692D01*
X-55366Y32746D01*
X-55384Y32801D01*
X-55406Y32848D01*
X-55417Y32870D01*
X-55431Y32892D01*
X-55453Y32921D01*
X-55479Y32950D01*
X-55508Y32983D01*
X-55544Y33012D01*
X-55588Y33038D01*
X-55591Y33041D01*
X-55610Y33049D01*
X-55635Y33056D01*
X-55672Y33070D01*
X-55715Y33081D01*
X-55770Y33089D01*
X-55832Y33096D01*
X-55904Y33100D01*
X-55937D01*
X-55974Y33092D01*
X-56025Y33085D01*
X-56083Y33070D01*
X-56148Y33052D01*
X-56225Y33023D01*
X-56301Y32983D01*
X-56305D01*
X-56312Y32980D01*
X-56323Y32972D01*
X-56338Y32961D01*
X-56356Y32950D01*
X-56381Y32936D01*
X-56501Y32856D01*
X-56574Y32798D01*
X-56654Y32736D01*
X-56738Y32659D01*
Y32637D01*
X-56734Y32623D01*
Y32583D01*
X-56731Y32528D01*
Y32513D01*
X-56727Y32499D01*
Y32455D01*
X-56723Y32423D01*
Y30016D01*
X-57320D01*
Y32157D01*
X-57324Y32219D01*
Y32288D01*
X-57328Y32364D01*
X-57342Y32521D01*
Y32532D01*
X-57346Y32543D01*
Y32557D01*
X-57349Y32594D01*
X-57360Y32641D01*
X-57371Y32692D01*
X-57382Y32746D01*
X-57401Y32801D01*
X-57422Y32848D01*
X-57433Y32870D01*
X-57448Y32892D01*
X-57470Y32921D01*
X-57495Y32950D01*
X-57524Y32983D01*
X-57561Y33012D01*
X-57604Y33038D01*
X-57608Y33041D01*
X-57626Y33049D01*
X-57652Y33056D01*
X-57688Y33070D01*
X-57732Y33081D01*
X-57786Y33089D01*
X-57848Y33096D01*
X-57921Y33100D01*
X-57954D01*
X-57994Y33092D01*
X-58045Y33085D01*
X-58107Y33070D01*
X-58176Y33049D01*
X-58249Y33016D01*
X-58329Y32976D01*
X-58332D01*
X-58340Y32972D01*
X-58350Y32965D01*
X-58365Y32954D01*
X-58383Y32943D01*
X-58460Y32892D01*
X-58522Y32848D01*
X-58591Y32794D01*
X-58664Y32736D01*
X-58740Y32666D01*
Y30016D01*
X-59337D01*
D02*
G37*
G36*
X-51900Y30242D02*
X-52021Y30297D01*
Y31087D01*
X-51977D01*
X-51962Y31072D01*
X-51944Y31058D01*
X-51922Y31039D01*
X-51893Y31014D01*
X-51857Y30985D01*
X-51817Y30952D01*
X-51773Y30919D01*
X-51722Y30883D01*
X-51613Y30810D01*
X-51551Y30770D01*
X-51416Y30697D01*
X-51274Y30632D01*
X-51271D01*
X-51256Y30624D01*
X-51234Y30617D01*
X-51205Y30606D01*
X-51129Y30581D01*
X-51081Y30566D01*
X-51030Y30552D01*
X-50976Y30537D01*
X-50914Y30523D01*
X-50787Y30497D01*
X-50652Y30479D01*
X-50514Y30472D01*
X-50463D01*
X-50426Y30475D01*
X-50383Y30479D01*
X-50335Y30482D01*
X-50219Y30497D01*
X-50091Y30523D01*
X-50026Y30541D01*
X-49960Y30562D01*
X-49895Y30588D01*
X-49833Y30617D01*
X-49775Y30650D01*
X-49724Y30686D01*
X-49713Y30697D01*
X-49698Y30708D01*
X-49680Y30726D01*
X-49662Y30748D01*
X-49640Y30774D01*
X-49589Y30839D01*
X-49564Y30879D01*
X-49538Y30923D01*
X-49516Y30970D01*
X-49498Y31021D01*
X-49480Y31076D01*
X-49465Y31134D01*
X-49458Y31196D01*
X-49454Y31261D01*
Y31291D01*
X-49458Y31309D01*
Y31334D01*
X-49462Y31360D01*
X-49473Y31425D01*
X-49487Y31498D01*
X-49513Y31578D01*
X-49549Y31655D01*
X-49596Y31724D01*
Y31727D01*
X-49604Y31731D01*
X-49622Y31753D01*
X-49655Y31786D01*
X-49702Y31826D01*
X-49731Y31844D01*
X-49764Y31866D01*
X-49800Y31888D01*
X-49840Y31913D01*
X-49887Y31931D01*
X-49935Y31953D01*
X-49986Y31971D01*
X-50040Y31989D01*
X-50044D01*
X-50051Y31993D01*
X-50062Y31997D01*
X-50121Y32011D01*
X-50171Y32026D01*
X-50233Y32040D01*
X-50302Y32059D01*
X-50441Y32091D01*
X-50444D01*
X-50448Y32095D01*
X-50459D01*
X-50474Y32099D01*
X-50492Y32102D01*
X-50514Y32109D01*
X-50565Y32120D01*
X-50630Y32139D01*
X-50710Y32157D01*
X-50797Y32179D01*
X-50896Y32204D01*
X-50899D01*
X-50907Y32208D01*
X-50936Y32215D01*
X-50958Y32222D01*
X-50983Y32230D01*
X-51041Y32248D01*
X-51111Y32270D01*
X-51183Y32299D01*
X-51260Y32328D01*
X-51336Y32364D01*
X-51340D01*
X-51344Y32368D01*
X-51354Y32375D01*
X-51369Y32383D01*
X-51405Y32404D01*
X-51453Y32434D01*
X-51504Y32473D01*
X-51562Y32517D01*
X-51620Y32568D01*
X-51678Y32623D01*
Y32626D01*
X-51686Y32630D01*
X-51704Y32652D01*
X-51729Y32685D01*
X-51762Y32728D01*
X-51798Y32783D01*
X-51835Y32845D01*
X-51871Y32914D01*
X-51904Y32990D01*
Y32994D01*
X-51908Y33001D01*
X-51911Y33012D01*
X-51915Y33027D01*
X-51930Y33070D01*
X-51937Y33100D01*
X-51944Y33132D01*
X-51959Y33202D01*
X-51973Y33285D01*
X-51981Y33376D01*
X-51984Y33478D01*
Y33504D01*
X-51981Y33533D01*
X-51977Y33573D01*
X-51970Y33624D01*
X-51959Y33682D01*
X-51948Y33744D01*
X-51930Y33813D01*
X-51904Y33889D01*
X-51875Y33966D01*
X-51839Y34046D01*
X-51795Y34126D01*
X-51744Y34210D01*
X-51686Y34290D01*
X-51617Y34366D01*
X-51536Y34443D01*
X-51533Y34446D01*
X-51515Y34461D01*
X-51489Y34479D01*
X-51456Y34505D01*
X-51413Y34534D01*
X-51358Y34567D01*
X-51296Y34603D01*
X-51227Y34639D01*
X-51147Y34676D01*
X-51060Y34712D01*
X-50965Y34745D01*
X-50867Y34774D01*
X-50757Y34800D01*
X-50641Y34818D01*
X-50521Y34832D01*
X-50393Y34836D01*
X-50324D01*
X-50292Y34832D01*
X-50248D01*
X-50204Y34829D01*
X-50095Y34821D01*
X-50037Y34818D01*
X-49909Y34803D01*
X-49778Y34781D01*
X-49644Y34756D01*
X-49640D01*
X-49629Y34752D01*
X-49607Y34749D01*
X-49582Y34741D01*
X-49553Y34734D01*
X-49516Y34723D01*
X-49473Y34712D01*
X-49429Y34698D01*
X-49327Y34665D01*
X-49214Y34628D01*
X-49101Y34581D01*
X-48985Y34530D01*
Y33777D01*
X-49036D01*
X-49047Y33788D01*
X-49058Y33795D01*
X-49076Y33809D01*
X-49098Y33828D01*
X-49156Y33871D01*
X-49192Y33897D01*
X-49232Y33926D01*
X-49276Y33955D01*
X-49323Y33984D01*
X-49374Y34013D01*
X-49487Y34075D01*
X-49615Y34137D01*
X-49618Y34141D01*
X-49651Y34152D01*
X-49676Y34163D01*
X-49705Y34173D01*
X-49746Y34188D01*
X-49789Y34203D01*
X-49837Y34217D01*
X-49891Y34232D01*
X-49949Y34242D01*
X-50008Y34257D01*
X-50073Y34268D01*
X-50212Y34286D01*
X-50281Y34293D01*
X-50397D01*
X-50426Y34290D01*
X-50463Y34286D01*
X-50506Y34283D01*
X-50554Y34275D01*
X-50605Y34268D01*
X-50717Y34242D01*
X-50776Y34228D01*
X-50834Y34206D01*
X-50896Y34181D01*
X-50950Y34155D01*
X-51009Y34122D01*
X-51060Y34086D01*
X-51070Y34075D01*
X-51085Y34064D01*
X-51103Y34050D01*
X-51121Y34028D01*
X-51143Y34002D01*
X-51169Y33977D01*
X-51194Y33944D01*
X-51245Y33864D01*
X-51267Y33820D01*
X-51285Y33773D01*
X-51303Y33722D01*
X-51318Y33667D01*
X-51325Y33609D01*
X-51329Y33547D01*
Y33518D01*
X-51325Y33496D01*
Y33471D01*
X-51322Y33442D01*
X-51311Y33373D01*
X-51289Y33296D01*
X-51263Y33216D01*
X-51223Y33140D01*
X-51202Y33103D01*
X-51172Y33067D01*
X-51143Y33038D01*
X-51125Y33023D01*
X-51107Y33005D01*
X-51056Y32969D01*
X-50990Y32925D01*
X-50910Y32881D01*
X-50816Y32841D01*
X-50710Y32805D01*
X-50706D01*
X-50699Y32801D01*
X-50688D01*
X-50674Y32794D01*
X-50656Y32790D01*
X-50605Y32776D01*
X-50503Y32750D01*
X-50419Y32728D01*
X-50324Y32706D01*
X-50222Y32681D01*
X-50219D01*
X-50208Y32677D01*
X-50193Y32674D01*
X-50175Y32670D01*
X-50150Y32663D01*
X-50121Y32656D01*
X-50051Y32641D01*
X-49979Y32623D01*
X-49818Y32579D01*
X-49742Y32557D01*
X-49735D01*
X-49720Y32550D01*
X-49695Y32543D01*
X-49662Y32528D01*
X-49622Y32513D01*
X-49575Y32495D01*
X-49523Y32470D01*
X-49469Y32444D01*
X-49352Y32383D01*
X-49232Y32302D01*
X-49174Y32259D01*
X-49119Y32211D01*
X-49068Y32160D01*
X-49025Y32106D01*
X-49021Y32102D01*
X-49014Y32091D01*
X-49003Y32077D01*
X-48988Y32051D01*
X-48974Y32022D01*
X-48952Y31986D01*
X-48934Y31946D01*
X-48912Y31898D01*
X-48890Y31847D01*
X-48872Y31793D01*
X-48850Y31731D01*
X-48836Y31665D01*
X-48821Y31596D01*
X-48810Y31523D01*
X-48803Y31443D01*
X-48799Y31363D01*
Y31316D01*
X-48803Y31291D01*
X-48806Y31261D01*
X-48810Y31229D01*
X-48814Y31192D01*
X-48828Y31108D01*
X-48847Y31014D01*
X-48876Y30916D01*
X-48916Y30814D01*
Y30810D01*
X-48927Y30788D01*
X-48937Y30770D01*
X-48948Y30744D01*
X-48963Y30719D01*
X-48996Y30657D01*
X-49043Y30584D01*
X-49094Y30508D01*
X-49156Y30428D01*
X-49232Y30351D01*
X-49240Y30348D01*
X-49251Y30337D01*
X-49269Y30322D01*
X-49291Y30304D01*
X-49316Y30286D01*
X-49345Y30264D01*
X-49378Y30239D01*
X-49454Y30188D01*
X-49542Y30137D01*
X-49640Y30086D01*
X-49746Y30038D01*
X-49749D01*
X-49760Y30035D01*
X-49775Y30027D01*
X-49797Y30020D01*
X-49826Y30013D01*
X-49858Y30006D01*
X-49898Y29995D01*
X-49942Y29984D01*
X-49993Y29973D01*
X-50048Y29966D01*
X-50106Y29955D01*
X-50171Y29947D01*
X-50310Y29933D01*
X-50386Y29929D01*
X-50554D01*
X-50597Y29933D01*
X-50648Y29936D01*
X-50706D01*
X-50768Y29944D01*
X-50838Y29947D01*
X-50907Y29955D01*
X-51056Y29973D01*
X-51202Y29998D01*
X-51274Y30016D01*
X-51344Y30035D01*
X-51347D01*
X-51380Y30046D01*
X-51405Y30053D01*
X-51438Y30064D01*
X-51475Y30075D01*
X-51518Y30089D01*
X-51562Y30108D01*
X-51613Y30126D01*
X-51667Y30144D01*
X-51780Y30191D01*
X-51900Y30242D01*
D02*
G37*
G36*
X-48450Y31633D02*
X-48453Y31789D01*
Y31851D01*
X-48450Y31877D01*
Y31902D01*
X-48446Y31935D01*
X-48439Y32011D01*
X-48432Y32099D01*
X-48417Y32193D01*
X-48399Y32295D01*
X-48377Y32404D01*
X-48348Y32517D01*
X-48311Y32634D01*
X-48268Y32750D01*
X-48220Y32863D01*
X-48162Y32972D01*
X-48093Y33078D01*
X-48017Y33172D01*
X-48013Y33180D01*
X-47995Y33194D01*
X-47973Y33220D01*
X-47936Y33249D01*
X-47893Y33289D01*
X-47842Y33329D01*
X-47780Y33373D01*
X-47707Y33420D01*
X-47631Y33467D01*
X-47543Y33511D01*
X-47449Y33551D01*
X-47347Y33591D01*
X-47238Y33620D01*
X-47121Y33646D01*
X-46997Y33664D01*
X-46866Y33667D01*
X-46834D01*
X-46797Y33664D01*
X-46746Y33660D01*
X-46688Y33653D01*
X-46615Y33642D01*
X-46539Y33627D01*
X-46455Y33606D01*
X-46364Y33580D01*
X-46269Y33547D01*
X-46175Y33507D01*
X-46080Y33460D01*
X-45982Y33405D01*
X-45891Y33340D01*
X-45800Y33263D01*
X-45716Y33176D01*
X-45712Y33169D01*
X-45698Y33154D01*
X-45676Y33125D01*
X-45647Y33085D01*
X-45614Y33034D01*
X-45578Y32972D01*
X-45541Y32903D01*
X-45498Y32819D01*
X-45458Y32725D01*
X-45421Y32623D01*
X-45385Y32506D01*
X-45352Y32383D01*
X-45323Y32252D01*
X-45301Y32106D01*
X-45287Y31953D01*
X-45283Y31789D01*
Y31727D01*
X-45287Y31702D01*
Y31673D01*
X-45290Y31644D01*
X-45298Y31567D01*
X-45305Y31480D01*
X-45319Y31385D01*
X-45338Y31280D01*
X-45359Y31170D01*
X-45388Y31058D01*
X-45425Y30945D01*
X-45465Y30828D01*
X-45516Y30715D01*
X-45574Y30606D01*
X-45640Y30501D01*
X-45716Y30406D01*
X-45720Y30402D01*
X-45734Y30384D01*
X-45760Y30362D01*
X-45796Y30330D01*
X-45840Y30293D01*
X-45891Y30253D01*
X-45953Y30209D01*
X-46022Y30162D01*
X-46102Y30118D01*
X-46186Y30071D01*
X-46280Y30031D01*
X-46382Y29995D01*
X-46495Y29962D01*
X-46611Y29940D01*
X-46735Y29926D01*
X-46866Y29918D01*
X-46899D01*
X-46935Y29922D01*
X-46990Y29926D01*
X-47052Y29933D01*
X-47121Y29944D01*
X-47201Y29962D01*
X-47289Y29980D01*
X-47380Y30009D01*
X-47474Y30042D01*
X-47572Y30082D01*
X-47671Y30129D01*
X-47765Y30188D01*
X-47860Y30253D01*
X-47947Y30333D01*
X-48031Y30421D01*
X-48035Y30428D01*
X-48049Y30442D01*
X-48071Y30472D01*
X-48097Y30512D01*
X-48129Y30562D01*
X-48166Y30624D01*
X-48202Y30697D01*
X-48242Y30781D01*
X-48282Y30872D01*
X-48319Y30974D01*
X-48355Y31087D01*
X-48388Y31210D01*
X-48413Y31341D01*
X-48435Y31483D01*
X-48450Y31633D01*
D02*
G37*
%LPC*%
G36*
X-47838Y31727D02*
X-47835Y31680D01*
X-47831Y31625D01*
X-47824Y31560D01*
X-47816Y31491D01*
X-47805Y31414D01*
X-47794Y31334D01*
X-47758Y31167D01*
X-47733Y31083D01*
X-47703Y30999D01*
X-47671Y30919D01*
X-47631Y30846D01*
X-47587Y30777D01*
X-47583Y30774D01*
X-47576Y30763D01*
X-47562Y30744D01*
X-47514Y30697D01*
X-47482Y30668D01*
X-47445Y30639D01*
X-47401Y30606D01*
X-47354Y30573D01*
X-47300Y30544D01*
X-47241Y30515D01*
X-47176Y30490D01*
X-47107Y30468D01*
X-47034Y30450D01*
X-46950Y30439D01*
X-46866Y30435D01*
X-46845D01*
X-46823Y30439D01*
X-46790D01*
X-46750Y30446D01*
X-46706Y30453D01*
X-46659Y30464D01*
X-46604Y30479D01*
X-46546Y30493D01*
X-46488Y30515D01*
X-46429Y30544D01*
X-46371Y30577D01*
X-46313Y30613D01*
X-46255Y30661D01*
X-46204Y30712D01*
X-46153Y30770D01*
X-46149Y30774D01*
X-46142Y30785D01*
X-46131Y30806D01*
X-46113Y30832D01*
X-46073Y30912D01*
X-46047Y30967D01*
X-46025Y31025D01*
X-46000Y31090D01*
X-45978Y31167D01*
X-45956Y31251D01*
X-45938Y31341D01*
X-45920Y31443D01*
X-45909Y31549D01*
X-45902Y31665D01*
X-45898Y31789D01*
Y31855D01*
X-45902Y31902D01*
X-45905Y31960D01*
X-45913Y32026D01*
X-45920Y32099D01*
X-45931Y32175D01*
X-45942Y32259D01*
X-45960Y32342D01*
X-46004Y32510D01*
X-46036Y32594D01*
X-46069Y32674D01*
X-46109Y32746D01*
X-46153Y32812D01*
X-46156Y32816D01*
X-46164Y32827D01*
X-46178Y32845D01*
X-46226Y32892D01*
X-46255Y32918D01*
X-46335Y32983D01*
X-46386Y33012D01*
X-46437Y33045D01*
X-46495Y33070D01*
X-46561Y33100D01*
X-46630Y33118D01*
X-46703Y33136D01*
X-46783Y33147D01*
X-46866Y33151D01*
X-46888D01*
X-46910Y33147D01*
X-46943D01*
X-46983Y33140D01*
X-47027Y33132D01*
X-47077Y33121D01*
X-47132Y33107D01*
X-47190Y33089D01*
X-47249Y33067D01*
X-47307Y33041D01*
X-47369Y33009D01*
X-47427Y32969D01*
X-47485Y32925D01*
X-47536Y32870D01*
X-47587Y32812D01*
X-47591Y32808D01*
X-47598Y32798D01*
X-47609Y32776D01*
X-47627Y32750D01*
X-47667Y32670D01*
X-47689Y32619D01*
X-47711Y32557D01*
X-47736Y32492D01*
X-47758Y32415D01*
X-47780Y32331D01*
X-47798Y32241D01*
X-47816Y32139D01*
X-47827Y32029D01*
X-47835Y31913D01*
X-47838Y31789D01*
Y31727D01*
D02*
G37*
%LPD*%
G36*
X-44657Y30016D02*
Y34963D01*
X-44060D01*
Y30016D01*
X-44657D01*
D02*
G37*
G36*
X-43419Y31600D02*
X-43423Y31764D01*
Y31811D01*
X-43419Y31844D01*
Y31884D01*
X-43416Y31931D01*
X-43412Y31982D01*
X-43408Y32040D01*
X-43401Y32102D01*
X-43394Y32168D01*
X-43372Y32302D01*
X-43343Y32441D01*
X-43303Y32572D01*
Y32575D01*
X-43295Y32586D01*
X-43292Y32605D01*
X-43281Y32630D01*
X-43270Y32659D01*
X-43252Y32692D01*
X-43237Y32732D01*
X-43215Y32776D01*
X-43168Y32867D01*
X-43113Y32969D01*
X-43048Y33070D01*
X-42972Y33169D01*
X-42968Y33172D01*
X-42964Y33180D01*
X-42950Y33191D01*
X-42935Y33209D01*
X-42840Y33303D01*
X-42771Y33362D01*
X-42691Y33420D01*
X-42600Y33478D01*
X-42502Y33533D01*
X-42498D01*
X-42491Y33540D01*
X-42473Y33544D01*
X-42455Y33555D01*
X-42429Y33566D01*
X-42400Y33576D01*
X-42364Y33587D01*
X-42327Y33602D01*
X-42240Y33624D01*
X-42142Y33646D01*
X-42036Y33660D01*
X-41923Y33667D01*
X-41854D01*
X-41829Y33664D01*
X-41767Y33660D01*
X-41694Y33653D01*
X-41617Y33642D01*
X-41537Y33627D01*
X-41461Y33606D01*
X-41457D01*
X-41454Y33602D01*
X-41443Y33598D01*
X-41428Y33595D01*
X-41388Y33580D01*
X-41333Y33562D01*
X-41272Y33536D01*
X-41203Y33504D01*
X-41122Y33467D01*
X-41042Y33424D01*
Y34963D01*
X-40445D01*
Y30016D01*
X-41042D01*
Y30377D01*
X-41050Y30373D01*
X-41064Y30359D01*
X-41093Y30337D01*
X-41126Y30308D01*
X-41162Y30279D01*
X-41206Y30246D01*
X-41246Y30213D01*
X-41286Y30184D01*
X-41290Y30180D01*
X-41304Y30169D01*
X-41326Y30155D01*
X-41355Y30137D01*
X-41388Y30115D01*
X-41428Y30093D01*
X-41523Y30042D01*
X-41530Y30038D01*
X-41545Y30035D01*
X-41570Y30024D01*
X-41603Y30009D01*
X-41643Y29998D01*
X-41738Y29969D01*
X-41789Y29955D01*
X-41796D01*
X-41814Y29947D01*
X-41840Y29944D01*
X-41879Y29936D01*
X-41923Y29929D01*
X-41978Y29926D01*
X-42040Y29918D01*
X-42134D01*
X-42156Y29922D01*
X-42182D01*
X-42211Y29926D01*
X-42243Y29929D01*
X-42280Y29933D01*
X-42364Y29947D01*
X-42455Y29969D01*
X-42549Y29998D01*
X-42644Y30038D01*
X-42648D01*
X-42655Y30046D01*
X-42666Y30049D01*
X-42684Y30060D01*
X-42706Y30075D01*
X-42731Y30089D01*
X-42786Y30129D01*
X-42851Y30177D01*
X-42921Y30239D01*
X-42993Y30308D01*
X-43059Y30391D01*
X-43062Y30395D01*
X-43066Y30402D01*
X-43077Y30417D01*
X-43088Y30435D01*
X-43103Y30457D01*
X-43121Y30482D01*
X-43139Y30515D01*
X-43157Y30552D01*
X-43179Y30592D01*
X-43201Y30635D01*
X-43223Y30683D01*
X-43244Y30734D01*
X-43288Y30846D01*
X-43328Y30970D01*
Y30974D01*
X-43332Y30985D01*
X-43336Y31007D01*
X-43343Y31032D01*
X-43350Y31065D01*
X-43357Y31105D01*
X-43368Y31149D01*
X-43376Y31199D01*
X-43383Y31254D01*
X-43394Y31316D01*
X-43401Y31381D01*
X-43408Y31451D01*
X-43416Y31523D01*
X-43419Y31600D01*
D02*
G37*
%LPC*%
G36*
X-42808Y31716D02*
X-42804Y31676D01*
X-42800Y31622D01*
X-42797Y31560D01*
X-42790Y31494D01*
X-42782Y31422D01*
X-42760Y31269D01*
X-42724Y31108D01*
X-42698Y31028D01*
X-42673Y30956D01*
X-42644Y30883D01*
X-42608Y30817D01*
X-42604Y30814D01*
X-42597Y30803D01*
X-42586Y30788D01*
X-42568Y30766D01*
X-42549Y30741D01*
X-42520Y30712D01*
X-42487Y30683D01*
X-42451Y30654D01*
X-42411Y30621D01*
X-42364Y30592D01*
X-42309Y30562D01*
X-42254Y30537D01*
X-42189Y30515D01*
X-42120Y30501D01*
X-42047Y30490D01*
X-41967Y30486D01*
X-41927D01*
X-41905Y30490D01*
X-41879Y30493D01*
X-41818Y30501D01*
X-41748Y30512D01*
X-41668Y30530D01*
X-41581Y30555D01*
X-41494Y30592D01*
X-41490D01*
X-41432Y30621D01*
X-41406Y30635D01*
X-41348Y30668D01*
X-41279Y30708D01*
X-41203Y30759D01*
X-41122Y30814D01*
X-41042Y30879D01*
Y32928D01*
X-41046D01*
X-41053Y32932D01*
X-41064Y32939D01*
X-41079Y32947D01*
X-41101Y32954D01*
X-41122Y32965D01*
X-41177Y32987D01*
X-41239Y33012D01*
X-41308Y33038D01*
X-41377Y33060D01*
X-41446Y33078D01*
X-41450D01*
X-41454Y33081D01*
X-41465D01*
X-41475Y33085D01*
X-41512Y33092D01*
X-41559Y33100D01*
X-41614Y33107D01*
X-41679Y33114D01*
X-41748Y33121D01*
X-41847D01*
X-41869Y33118D01*
X-41901D01*
X-41941Y33110D01*
X-41985Y33103D01*
X-42036Y33092D01*
X-42087Y33078D01*
X-42145Y33060D01*
X-42204Y33038D01*
X-42265Y33009D01*
X-42324Y32976D01*
X-42386Y32936D01*
X-42444Y32888D01*
X-42498Y32838D01*
X-42549Y32776D01*
X-42553Y32772D01*
X-42575Y32739D01*
X-42589Y32710D01*
X-42608Y32677D01*
X-42629Y32634D01*
X-42655Y32579D01*
X-42677Y32521D01*
X-42702Y32455D01*
X-42728Y32379D01*
X-42750Y32299D01*
X-42768Y32208D01*
X-42782Y32113D01*
X-42797Y32008D01*
X-42804Y31898D01*
X-42808Y31778D01*
Y31716D01*
D02*
G37*
%LPD*%
G36*
X-39819Y31611D02*
X-39823Y31771D01*
Y31811D01*
X-39819Y31829D01*
Y31884D01*
X-39816Y31917D01*
X-39808Y31989D01*
X-39797Y32073D01*
X-39786Y32168D01*
X-39765Y32270D01*
X-39743Y32379D01*
X-39714Y32492D01*
X-39677Y32605D01*
X-39634Y32721D01*
X-39579Y32838D01*
X-39521Y32947D01*
X-39452Y33056D01*
X-39372Y33154D01*
X-39368Y33162D01*
X-39350Y33176D01*
X-39324Y33202D01*
X-39288Y33234D01*
X-39244Y33274D01*
X-39190Y33318D01*
X-39124Y33362D01*
X-39051Y33413D01*
X-38971Y33460D01*
X-38880Y33504D01*
X-38782Y33547D01*
X-38676Y33587D01*
X-38563Y33620D01*
X-38443Y33646D01*
X-38316Y33660D01*
X-38181Y33667D01*
X-38127D01*
X-38098Y33664D01*
X-38061D01*
X-38025Y33660D01*
X-37985Y33656D01*
X-37894Y33642D01*
X-37795Y33627D01*
X-37694Y33602D01*
X-37595Y33569D01*
X-37592D01*
X-37570Y33558D01*
X-37552Y33551D01*
X-37530Y33540D01*
X-37504Y33529D01*
X-37442Y33496D01*
X-37373Y33456D01*
X-37300Y33402D01*
X-37224Y33343D01*
X-37148Y33267D01*
X-37144Y33260D01*
X-37118Y33234D01*
X-37104Y33216D01*
X-37086Y33191D01*
X-37042Y33132D01*
X-36995Y33060D01*
X-36944Y32976D01*
X-36896Y32878D01*
X-36856Y32772D01*
Y32768D01*
X-36853Y32757D01*
X-36845Y32743D01*
X-36842Y32721D01*
X-36831Y32692D01*
X-36824Y32659D01*
X-36816Y32619D01*
X-36794Y32524D01*
X-36787Y32470D01*
X-36776Y32412D01*
X-36769Y32346D01*
X-36765Y32281D01*
X-36758Y32208D01*
X-36754Y32055D01*
Y31731D01*
X-39215D01*
Y31705D01*
X-39211Y31673D01*
Y31629D01*
X-39204Y31578D01*
X-39197Y31516D01*
X-39190Y31451D01*
X-39160Y31305D01*
X-39139Y31225D01*
X-39113Y31145D01*
X-39084Y31069D01*
X-39048Y30992D01*
X-39008Y30916D01*
X-38960Y30846D01*
X-38906Y30781D01*
X-38891Y30766D01*
X-38873Y30752D01*
X-38847Y30730D01*
X-38815Y30705D01*
X-38778Y30679D01*
X-38731Y30650D01*
X-38680Y30621D01*
X-38622Y30588D01*
X-38556Y30559D01*
X-38487Y30533D01*
X-38411Y30508D01*
X-38327Y30486D01*
X-38239Y30472D01*
X-38145Y30461D01*
X-38043Y30457D01*
X-38010D01*
X-37970Y30461D01*
X-37919Y30464D01*
X-37861Y30468D01*
X-37795Y30475D01*
X-37726Y30486D01*
X-37657Y30501D01*
X-37653D01*
X-37650Y30504D01*
X-37639D01*
X-37624Y30508D01*
X-37588Y30519D01*
X-37544Y30530D01*
X-37490Y30548D01*
X-37431Y30566D01*
X-37315Y30613D01*
X-37311D01*
X-37308Y30617D01*
X-37286Y30624D01*
X-37177Y30679D01*
X-37129Y30705D01*
X-37042Y30755D01*
X-37038Y30759D01*
X-37024Y30766D01*
X-37002Y30781D01*
X-36976Y30799D01*
X-36915Y30839D01*
X-36885Y30865D01*
X-36856Y30887D01*
X-36820D01*
Y30235D01*
X-36824Y30231D01*
X-36838Y30228D01*
X-36860Y30217D01*
X-36893Y30206D01*
X-36929Y30191D01*
X-36976Y30173D01*
X-37027Y30151D01*
X-37082Y30129D01*
X-37089Y30126D01*
X-37108Y30118D01*
X-37137Y30108D01*
X-37177Y30093D01*
X-37220Y30078D01*
X-37362Y30035D01*
X-37366D01*
X-37370Y30031D01*
X-37391Y30027D01*
X-37424Y30020D01*
X-37468Y30009D01*
X-37515Y29995D01*
X-37679Y29962D01*
X-37686D01*
X-37704Y29958D01*
X-37734Y29955D01*
X-37777Y29951D01*
X-37828Y29944D01*
X-37890Y29940D01*
X-37959Y29936D01*
X-38072D01*
X-38094Y29940D01*
X-38116D01*
X-38178Y29944D01*
X-38247Y29951D01*
X-38331Y29962D01*
X-38421Y29976D01*
X-38520Y29995D01*
X-38625Y30020D01*
X-38731Y30053D01*
X-38844Y30093D01*
X-38953Y30137D01*
X-39062Y30191D01*
X-39164Y30257D01*
X-39266Y30330D01*
X-39357Y30413D01*
X-39361Y30421D01*
X-39375Y30435D01*
X-39401Y30464D01*
X-39430Y30501D01*
X-39466Y30552D01*
X-39503Y30610D01*
X-39546Y30683D01*
X-39590Y30763D01*
X-39634Y30854D01*
X-39674Y30956D01*
X-39714Y31065D01*
X-39750Y31189D01*
X-39779Y31320D01*
X-39801Y31462D01*
X-39819Y31611D01*
D02*
G37*
%LPC*%
G36*
X-39215Y32190D02*
X-37337D01*
Y32230D01*
X-37340Y32252D01*
Y32273D01*
X-37348Y32332D01*
X-37355Y32397D01*
X-37377Y32535D01*
X-37395Y32605D01*
Y32608D01*
X-37399Y32612D01*
X-37417Y32666D01*
X-37431Y32706D01*
X-37453Y32754D01*
X-37479Y32801D01*
X-37508Y32852D01*
X-37541Y32899D01*
X-37544Y32907D01*
X-37613Y32976D01*
X-37653Y33009D01*
X-37697Y33041D01*
X-37752Y33074D01*
X-37817Y33107D01*
X-37839Y33114D01*
X-37876Y33125D01*
X-37923Y33140D01*
X-37981Y33154D01*
X-38050Y33165D01*
X-38127Y33172D01*
X-38214Y33176D01*
X-38254D01*
X-38276Y33172D01*
X-38298D01*
X-38356Y33169D01*
X-38418Y33158D01*
X-38487Y33147D01*
X-38556Y33129D01*
X-38622Y33103D01*
X-38680Y33074D01*
X-38724Y33049D01*
X-38767Y33020D01*
X-38818Y32987D01*
X-38873Y32943D01*
X-38924Y32896D01*
X-38931Y32888D01*
X-38946Y32870D01*
X-38971Y32841D01*
X-39000Y32805D01*
X-39033Y32757D01*
X-39066Y32703D01*
X-39099Y32645D01*
X-39128Y32583D01*
Y32579D01*
X-39131Y32575D01*
X-39139Y32554D01*
X-39149Y32517D01*
X-39164Y32470D01*
X-39179Y32412D01*
X-39193Y32346D01*
X-39208Y32270D01*
X-39215Y32190D01*
D02*
G37*
%LPD*%
G36*
X-36150Y30016D02*
Y33569D01*
X-35553D01*
Y33038D01*
X-35539Y33052D01*
X-35520Y33067D01*
X-35499Y33085D01*
X-35469Y33110D01*
X-35437Y33136D01*
X-35400Y33165D01*
X-35360Y33198D01*
X-35269Y33267D01*
X-35080Y33398D01*
X-34985Y33449D01*
X-34982D01*
X-34923Y33478D01*
X-34894Y33485D01*
X-34836Y33511D01*
X-34763Y33533D01*
X-34683Y33551D01*
X-34600Y33566D01*
X-34512Y33569D01*
X-34461D01*
X-34414Y33566D01*
X-34392D01*
X-34374Y33562D01*
X-34367D01*
X-34341Y33558D01*
X-34308Y33555D01*
X-34268Y33547D01*
Y32925D01*
X-34305D01*
X-34312Y32928D01*
X-34326Y32932D01*
X-34345Y32936D01*
X-34392Y32943D01*
X-34447Y32947D01*
X-34461D01*
X-34476Y32950D01*
X-34519D01*
X-34552Y32954D01*
X-34661D01*
X-34687Y32950D01*
X-34712D01*
X-34774Y32939D01*
X-34847Y32928D01*
X-34927Y32910D01*
X-35015Y32885D01*
X-35105Y32848D01*
X-35109D01*
X-35116Y32845D01*
X-35127Y32838D01*
X-35146Y32830D01*
X-35167Y32819D01*
X-35193Y32805D01*
X-35251Y32768D01*
X-35320Y32725D01*
X-35393Y32674D01*
X-35473Y32608D01*
X-35553Y32535D01*
Y30016D01*
X-36150D01*
D02*
G37*
D16*
X318898Y232283D02*
D03*
X15748Y212598D02*
D03*
X318898Y15748D02*
D03*
X15748D02*
D03*
D17*
X70866Y198819D02*
D03*
X67913Y236221D02*
D03*
X141732Y198819D02*
D03*
X138779Y235236D02*
D03*
X212598Y198819D02*
D03*
X209646Y236221D02*
D03*
X283465Y198819D02*
D03*
X279528Y235236D02*
D03*
D18*
X90551Y198819D02*
D03*
X48228Y236221D02*
D03*
X161417Y198819D02*
D03*
X119095Y235236D02*
D03*
X232283Y198819D02*
D03*
X189961Y236221D02*
D03*
X303150Y198819D02*
D03*
X259842Y235236D02*
D03*
D19*
X85433Y146752D02*
D03*
Y161161D02*
D03*
X227165Y146752D02*
D03*
Y161161D02*
D03*
X85433Y129154D02*
D03*
Y114744D02*
D03*
X50000Y146752D02*
D03*
Y129154D02*
D03*
Y161161D02*
D03*
Y114744D02*
D03*
X156299Y146752D02*
D03*
Y129154D02*
D03*
Y161161D02*
D03*
Y114744D02*
D03*
X120866Y146752D02*
D03*
Y129154D02*
D03*
Y161161D02*
D03*
Y114744D02*
D03*
X227165Y129154D02*
D03*
Y114744D02*
D03*
X191732Y146752D02*
D03*
Y129154D02*
D03*
Y161161D02*
D03*
Y114744D02*
D03*
X298031Y146752D02*
D03*
Y129154D02*
D03*
Y161161D02*
D03*
Y114744D02*
D03*
X262598Y146752D02*
D03*
Y129154D02*
D03*
Y161161D02*
D03*
Y114744D02*
D03*
D20*
X81024Y275590D02*
D03*
X222756D02*
D03*
X151890D02*
D03*
X293622D02*
D03*
X61024D02*
D03*
X51024Y315591D02*
D03*
X131890Y275590D02*
D03*
X121890Y315591D02*
D03*
X202756Y275590D02*
D03*
X192756Y315591D02*
D03*
X273622Y275590D02*
D03*
X263622Y315591D02*
D03*
D21*
X116142Y41339D02*
D03*
X78740D02*
D03*
X255906D02*
D03*
X218504D02*
D03*
D22*
X212756Y315591D02*
D03*
X141890D02*
D03*
X283622D02*
D03*
X71024D02*
D03*
D23*
X181102Y92520D02*
D03*
M02*
