G04*
G04 #@! TF.GenerationSoftware,Altium Limited,Altium Designer,26.9.1 (10)*
G04*
G04 Layer_Physical_Order=2*
G04 Layer_Color=36540*
G04 Board_Origin=74640005|44270005*
%FSLAX25Y25*%
%MOIN*%
G70*
G04*
G04 #@! TF.SameCoordinates,585EC1B0-1F81-44B1-8C19-25A49A0C304D*
G04*
G04*
G04 #@! TF.FilePolarity,Positive*
G04*
G01*
G75*
%ADD18C,0.13000*%
%ADD29R,0.07087X0.07087*%
%ADD30C,0.07087*%
%ADD31C,0.10236*%
G04:AMPARAMS|DCode=32|XSize=102.36mil|YSize=102.36mil|CornerRadius=25.59mil|HoleSize=0mil|Usage=FLASHONLY|Rotation=180.000|XOffset=0mil|YOffset=0mil|HoleType=Round|Shape=RoundedRectangle|*
%AMROUNDEDRECTD32*
21,1,0.10236,0.05118,0,0,180.0*
21,1,0.05118,0.10236,0,0,180.0*
1,1,0.05118,-0.02559,0.02559*
1,1,0.05118,0.02559,0.02559*
1,1,0.05118,0.02559,-0.02559*
1,1,0.05118,-0.02559,-0.02559*
%
%ADD32ROUNDEDRECTD32*%
%ADD33C,0.10039*%
%ADD34C,0.04000*%
G36*
G01X9987Y49068D02*
G02X9843Y49420I355J352D01*
G01Y135327D01*
G02X10343Y135827I500J0D01*
G01X47903D01*
G02X48064Y134853I-0J-500D01*
G03X47323Y134545I1936J-5698D01*
G03X46938Y134336I2674J-5385D01*
G01X47323Y133952D01*
G01X50000Y131275D01*
G01X53062Y134336D01*
G03X51935Y134854I-3062J-5183D01*
G02X52097Y135827I162J473D01*
G01X83336D01*
G02X83497Y134853I-0J-500D01*
G03X82371Y134336I1936J-5699D01*
G01X85433Y131275D01*
G01X88495Y134336D01*
G03X87368Y134854I-3062J-5183D01*
G02X87323Y134872I161J472D01*
G02X87323Y135782I207J455D01*
G02X87530Y135827I207J-455D01*
G01X118769Y135827D01*
G02X118930Y134853I-0J-500D01*
G03X117805Y134336I1936J-5699D01*
G01X120866Y131275D01*
G01X123928Y134336D01*
G03X122801Y134854I-3062J-5183D01*
G02X122963Y135827I162J473D01*
G01X154202D01*
G02X154363Y134853I-0J-500D01*
G03X153238Y134336I1936J-5699D01*
G01X156299Y131275D01*
G01X159361Y134336D01*
G03X158235Y134854I-3062J-5183D01*
G02X158396Y135827I162J473D01*
G01X189635D01*
G02X189796Y134853I-0J-500D01*
G03X188671Y134336I1936J-5699D01*
G01X191732Y131275D01*
G01X194794Y134336D01*
G03X193668Y134854I-3062J-5183D01*
G02X193829Y135827I162J473D01*
G01X225068D01*
G02X225229Y134853I-0J-500D01*
G03X224104Y134336I1936J-5699D01*
G01X227165Y131275D01*
G01X230227Y134336D01*
G03X229101Y134854I-3062J-5183D01*
G02X229262Y135827I162J473D01*
G01X260501D01*
G02X260662Y134853I-0J-500D01*
G03X259537Y134336I1936J-5699D01*
G01X262598Y131275D01*
G01X265660Y134336D01*
G03X264534Y134854I-3062J-5183D01*
G02X264696Y135827I162J473D01*
G01X295935D01*
G02X296095Y134853I-0J-500D01*
G03X294970Y134336I1936J-5699D01*
G01X298031Y131275D01*
G01X301093Y134336D01*
G03X299967Y134854I-3062J-5183D01*
G02X300129Y135827I162J473D01*
G01X323803D01*
G02X324303Y135327I0J-500D01*
G01Y59055D01*
G02X323803Y58555I-500J0D01*
G01X194382D01*
G01X176734Y40907D01*
G02X176204Y40795I-352J355D01*
G03X175123Y40996I-1081J-2798D01*
G01X159523Y40996D01*
G03X156523Y37996I0J-3000D01*
G01Y24996D01*
G03X157672Y22635I3000J0D01*
G02X157719Y21892I-310J-392D01*
G01X155657Y19830D01*
G02X155305Y19685I-352J355D01*
G01X39577D01*
G02X39225Y19830I0J500D01*
G01X9987Y49068D01*
D02*
G37*
%LPC*%
G36*
G01X44817Y117806D02*
G03Y111682I5183J-3062D01*
G01X47879Y114744D01*
G01X47323Y115300D01*
G01X44817Y117806D01*
D02*
G37*
G36*
G01Y132215D02*
G03Y126092I5183J-3062D01*
G01X47879Y129154D01*
G01X47323Y129709D01*
G01X44817Y132215D01*
D02*
G37*
G36*
G01X46938Y109561D02*
G03X47323Y109353I3063J5186D01*
G03X53062Y109561I2677J5392D01*
G01X50000Y112623D01*
G01X46938Y109561D01*
D02*
G37*
G36*
G01Y119927D02*
G01X47323Y119543D01*
G01X50000Y116865D01*
G01X53062Y119927D01*
G03X47323Y120136I-3062J-5183D01*
G03X46938Y119927I2673J-5384D01*
D02*
G37*
G36*
G01Y123971D02*
G03X47323Y123762I3063J5186D01*
G03X53062Y123971I2677J5392D01*
G01X50000Y127032D01*
G01X46938Y123971D01*
D02*
G37*
G36*
G01X52121Y114744D02*
G01X55183Y111682D01*
G03Y117806I-5183J3062D01*
G01X52121Y114744D01*
D02*
G37*
G36*
G01Y129154D02*
G01X55183Y126092D01*
G03Y132215I-5183J3062D01*
G01X52121Y129154D01*
D02*
G37*
G36*
G01X71972Y44571D02*
G03Y38106I6768J-3232D01*
G01X75205Y41339D01*
G01X71972Y44571D01*
D02*
G37*
G36*
G01X75508Y34571D02*
G03X81972I3232J6768D01*
G01X78740Y37803D01*
G01X75508Y34571D01*
D02*
G37*
G36*
G01Y48106D02*
G01X78740Y44874D01*
G01X81972Y48106D01*
G03X75508I-3232J-6768D01*
D02*
G37*
G36*
G01X80250Y117806D02*
G03Y111682I5183J-3062D01*
G01X83312Y114744D01*
G01X80250Y117806D01*
D02*
G37*
G36*
G01Y132215D02*
G03Y126092I5183J-3062D01*
G01X83312Y129154D01*
G01X80250Y132215D01*
D02*
G37*
G36*
G01X82276Y41339D02*
G01X85508Y38106D01*
G03Y44571I-6768J3232D01*
G01X82276Y41339D01*
D02*
G37*
G36*
G01X82371Y109561D02*
G03X87323Y109029I3062J5183D01*
G03X88495Y109561I-1890J5716D01*
G01X87323Y110733D01*
G01X85433Y112623D01*
G01X82371Y109561D01*
D02*
G37*
G36*
G01X82371Y119927D02*
G01X85433Y116865D01*
G01X88495Y119927D01*
G03X87323Y120459I-3061J-5182D01*
G03X82371Y119927I-1890J-5715D01*
D02*
G37*
G36*
G01X82371Y123971D02*
G03X87323Y123438I3062J5183D01*
G03X88495Y123971I-1890J5716D01*
G01X87323Y125143D01*
G01X85433Y127032D01*
G01X82371Y123971D01*
D02*
G37*
G36*
G01X87554Y114744D02*
G01X90616Y111682D01*
G03Y117806I-5183J3062D01*
G01X87554Y114744D01*
D02*
G37*
G36*
G01Y129154D02*
G01X90616Y126092D01*
G03Y132215I-5183J3062D01*
G01X87554Y129154D01*
D02*
G37*
G36*
G01X109374Y44571D02*
G03Y38106I6768J-3232D01*
G01X112606Y41339D01*
G01X109374Y44571D01*
D02*
G37*
G36*
G01X112909Y34571D02*
G03X119374I3232J6768D01*
G01X116142Y37803D01*
G01X112909Y34571D01*
D02*
G37*
G36*
G01Y48106D02*
G01X116142Y44874D01*
G01X119374Y48106D01*
G03X112909I-3232J-6768D01*
D02*
G37*
G36*
G01X115683Y117806D02*
G03Y111682I5183J-3062D01*
G01X118745Y114744D01*
G01X115683Y117806D01*
D02*
G37*
G36*
G01Y132215D02*
G03Y126092I5183J-3062D01*
G01X118745Y129154D01*
G01X115683Y132215D01*
D02*
G37*
G36*
G01X117805Y109561D02*
G03X123928I3062J5183D01*
G01X120866Y112623D01*
G01X117805Y109561D01*
D02*
G37*
G36*
G01Y119927D02*
G01X120866Y116865D01*
G01X123928Y119927D01*
G03X117805I-3062J-5183D01*
D02*
G37*
G36*
G01Y123971D02*
G03X123928I3062J5183D01*
G01X120866Y127032D01*
G01X117805Y123971D01*
D02*
G37*
G36*
G01X119677Y41339D02*
G01X122909Y38106D01*
G03Y44571I-6768J3232D01*
G01X119677Y41339D01*
D02*
G37*
G36*
G01X122987Y114744D02*
G01X126049Y111682D01*
G03Y117806I-5183J3062D01*
G01X122987Y114744D01*
D02*
G37*
G36*
G01Y129154D02*
G01X126049Y126092D01*
G03Y132215I-5183J3062D01*
G01X122987Y129154D01*
D02*
G37*
G36*
G01X151116Y117806D02*
G03Y111682I5183J-3062D01*
G01X154178Y114744D01*
G01X151116Y117806D01*
D02*
G37*
G36*
G01Y132215D02*
G03Y126092I5183J-3062D01*
G01X154178Y129154D01*
G01X151116Y132215D01*
D02*
G37*
G36*
G01X153238Y109561D02*
G03X159361I3062J5183D01*
G01X156299Y112623D01*
G01X153238Y109561D01*
D02*
G37*
G36*
G01Y119927D02*
G01X156299Y116865D01*
G01X159361Y119927D01*
G03X153238I-3062J-5183D01*
D02*
G37*
G36*
G01Y123971D02*
G03X159361I3062J5183D01*
G01X156299Y127032D01*
G01X153238Y123971D01*
D02*
G37*
G36*
G01X158421Y114744D02*
G01X161482Y111682D01*
G03Y117806I-5183J3062D01*
G01X158421Y114744D01*
D02*
G37*
G36*
G01Y129154D02*
G01X161482Y126092D01*
G03Y132215I-5183J3062D01*
G01X158421Y129154D01*
D02*
G37*
G36*
G01X174135Y57165D02*
G03X184133I4999J-79D01*
G03X174135I-4999J-79D01*
D02*
G37*
G36*
G01X186549Y117806D02*
G03Y111682I5183J-3062D01*
G01X189611Y114744D01*
G01X186549Y117806D01*
D02*
G37*
G36*
G01Y132215D02*
G03Y126092I5183J-3062D01*
G01X189611Y129154D01*
G01X186549Y132215D01*
D02*
G37*
G36*
G01X188671Y109561D02*
G03X194794I3062J5183D01*
G01X191732Y112623D01*
G01X188671Y109561D01*
D02*
G37*
G36*
G01Y119927D02*
G01X191732Y116865D01*
G01X194794Y119927D01*
G03X188671I-3062J-5183D01*
D02*
G37*
G36*
G01Y123971D02*
G03X194794I3062J5183D01*
G01X191732Y127032D01*
G01X188671Y123971D01*
D02*
G37*
G36*
G01X193854Y114744D02*
G01X196915Y111682D01*
G03Y117806I-5183J3062D01*
G01X193854Y114744D01*
D02*
G37*
G36*
G01Y129154D02*
G01X196915Y126092D01*
G03Y132215I-5183J3062D01*
G01X193854Y129154D01*
D02*
G37*
G36*
G01X221982Y117806D02*
G03Y111682I5183J-3062D01*
G01X225044Y114744D01*
G01X221982Y117806D01*
D02*
G37*
G36*
G01Y132215D02*
G03Y126092I5183J-3062D01*
G01X225044Y129154D01*
G01X221982Y132215D01*
D02*
G37*
G36*
G01X224104Y109561D02*
G03X230227I3062J5183D01*
G01X227165Y112623D01*
G01X224104Y109561D01*
D02*
G37*
G36*
G01Y119927D02*
G01X227165Y116865D01*
G01X230227Y119927D01*
G03X224104I-3062J-5183D01*
D02*
G37*
G36*
G01Y123971D02*
G03X230227I3062J5183D01*
G01X227165Y127032D01*
G01X224104Y123971D01*
D02*
G37*
G36*
G01X229287Y114744D02*
G01X232348Y111682D01*
G03Y117806I-5183J3062D01*
G01X229287Y114744D01*
D02*
G37*
G36*
G01Y129154D02*
G01X232348Y126092D01*
G03Y132215I-5183J3062D01*
G01X229287Y129154D01*
D02*
G37*
G36*
G01X257416Y117806D02*
G03Y111682I5183J-3062D01*
G01X260477Y114744D01*
G01X257416Y117806D01*
D02*
G37*
G36*
G01Y132215D02*
G03Y126092I5183J-3062D01*
G01X260477Y129154D01*
G01X257416Y132215D01*
D02*
G37*
G36*
G01X259537Y109561D02*
G03X265660I3062J5183D01*
G01X262598Y112623D01*
G01X259537Y109561D01*
D02*
G37*
G36*
G01Y119927D02*
G01X262598Y116865D01*
G01X265660Y119927D01*
G03X259537I-3062J-5183D01*
D02*
G37*
G36*
G01Y123971D02*
G03X265660I3062J5183D01*
G01X262598Y127032D01*
G01X259537Y123971D01*
D02*
G37*
G36*
G01X264720Y114744D02*
G01X267781Y111682D01*
G03Y117806I-5183J3062D01*
G01X264720Y114744D01*
D02*
G37*
G36*
G01Y129154D02*
G01X267781Y126092D01*
G03Y132215I-5183J3062D01*
G01X264720Y129154D01*
D02*
G37*
G36*
G01X292848Y117806D02*
G03Y111682I5183J-3062D01*
G01X295910Y114744D01*
G01X292848Y117806D01*
D02*
G37*
G36*
G01Y132215D02*
G03Y126092I5183J-3062D01*
G01X295910Y129154D01*
G01X292848Y132215D01*
D02*
G37*
G36*
G01X294970Y109561D02*
G03X301093I3062J5183D01*
G01X298031Y112623D01*
G01X294970Y109561D01*
D02*
G37*
G36*
G01Y119927D02*
G01X298031Y116865D01*
G01X301093Y119927D01*
G03X294970I-3062J-5183D01*
D02*
G37*
G36*
G01Y123971D02*
G03X301093I3062J5183D01*
G01X298031Y127032D01*
G01X294970Y123971D01*
D02*
G37*
G36*
G01X300153Y114744D02*
G01X303215Y111682D01*
G03Y117806I-5183J3062D01*
G01X300153Y114744D01*
D02*
G37*
G36*
G01Y129154D02*
G01X303215Y126092D01*
G03Y132215I-5183J3062D01*
G01X300153Y129154D01*
D02*
G37*
%LPD*%
G36*
G01X33965Y139764D02*
G02X33465Y140264I0J500D01*
G01Y306980D01*
G02X33965Y307480I500J0D01*
G01X50655D01*
G02X50677Y307480I-0J-492D01*
G03X59060Y316739I347J8111D01*
G02X59055Y316809I495J71D01*
G01Y328240D01*
G02X59555Y328740I500J0D01*
G01X100878D01*
G02X101378Y328240I0J-500D01*
G01Y291051D01*
G02X100878Y290551I-500J0D01*
G01X77559D01*
G01X65945Y285574D01*
G01Y282988D01*
G02X65190Y282558I-500J0D01*
G03X65191Y268623I-4167J-6967D01*
G02X65945Y268196I254J-430D01*
G01Y242817D01*
G02X65622Y242350I-500J-0D01*
G03X65622Y230091I2291J-6129D01*
G02X65945Y229627I-177J-467D01*
G01Y203315D01*
G02X65830Y202996I-500J-0D01*
G03X65830Y194642I5036J-4178D01*
G02X65945Y194322I-385J-319D01*
G01Y140264D01*
G02X65445Y139764I-500J0D01*
G01X51000D01*
G02X50500Y140264I0J500D01*
G01Y140309D01*
G02X50923Y140804I500J0D01*
G03X53062Y141569I-923J5948D01*
G01X50000Y144631D01*
G01X46938Y141569D01*
G03X47323Y141360I3063J5186D01*
G03X49078Y140803I2677J5392D01*
G02X49500Y140313I-78J-494D01*
G01Y140264D01*
G02X49000Y139764I-500J0D01*
G01X33965D01*
D02*
G37*
%LPC*%
G36*
X43685Y233799D02*
X46107Y236221D01*
X43685Y238643D01*
Y233799D01*
D02*
G37*
G36*
G01X44817Y149814D02*
G03Y143690I5183J-3062D01*
G01X47879Y146752D01*
G01X47323Y147308D01*
G01X44817Y149814D01*
D02*
G37*
G36*
G01Y164223D02*
G03Y158100I5183J-3062D01*
G01X47879Y161161D01*
G01X47323Y161717D01*
G01X44817Y164223D01*
D02*
G37*
G36*
X45806Y231677D02*
X50650D01*
X48228Y234099D01*
X45806Y231677D01*
D02*
G37*
G36*
Y240764D02*
X48228Y238342D01*
X50650Y240764D01*
X45806D01*
D02*
G37*
G36*
G01X46938Y151935D02*
G01X47323Y151550D01*
G01X50000Y148873D01*
G01X53062Y151935D01*
G03X47323Y152144I-3062J-5183D01*
G03X46938Y151935I2673J-5384D01*
D02*
G37*
G36*
G01Y155978D02*
G03X47323Y155770I3063J5186D01*
G03X53062Y155978I2677J5392D01*
G01X50000Y159040D01*
G01X46938Y155978D01*
D02*
G37*
G36*
G01Y166344D02*
G01X47323Y165960D01*
G01X50000Y163283D01*
G01X53062Y166344D01*
G03X47323Y166553I-3062J-5183D01*
G03X46938Y166344I2673J-5384D01*
D02*
G37*
G36*
X50350Y236221D02*
X52772Y233799D01*
Y238643D01*
X50350Y236221D01*
D02*
G37*
G36*
G01X52121Y146752D02*
G01X55183Y143690D01*
G03Y149814I-5183J3062D01*
G01X52121Y146752D01*
D02*
G37*
G36*
G01Y161161D02*
G01X55183Y158100D01*
G03Y164223I-5183J3062D01*
G01X52121Y161161D01*
D02*
G37*
G36*
G01X64906Y313032D02*
G03X64969Y312364I3559J0D01*
G01X68195Y315591D01*
G01X64969Y318817D01*
G03X64906Y318150I3496J-667D01*
G01Y313032D01*
D02*
G37*
G36*
G01X67797Y309536D02*
G03X68465Y309472I667J3496D01*
G01X73583D01*
G03X74250Y309536I-0J3559D01*
G01X71024Y312762D01*
G01X67797Y309536D01*
D02*
G37*
G36*
G01X67797Y321645D02*
G01X71024Y318419D01*
G01X74250Y321645D01*
G03X73583Y321709I-667J-3495D01*
G01X68465Y321709D01*
G03X67797Y321645I0J-3559D01*
D02*
G37*
G36*
G01X73852Y315591D02*
G01X77079Y312364D01*
G03X77142Y313032I-3495J667D01*
G01X77142Y318150D01*
G03X77079Y318817I-3559J-0D01*
G01X73852Y315591D01*
D02*
G37*
%LPD*%
G36*
G01X69882Y283670D02*
G02X70185Y284127I500J-3D01*
G01X77733Y287362D01*
G02X77928Y287402I196J-460D01*
G01X100878Y287402D01*
G02X101378Y286902I0J-500D01*
G01Y140264D01*
G02X100878Y139764I-500J0D01*
G01X86433D01*
G02X85933Y140264I0J500D01*
G01Y140309D01*
G02X86356Y140804I500J0D01*
G03X87323Y141037I-924J5949D01*
G03X88495Y141569I-1890J5716D01*
G01X87323Y142741D01*
G01X85433Y144631D01*
G01X82371Y141569D01*
G03X84511Y140803I3062J5183D01*
G02X84933Y140313I-78J-494D01*
G01Y140264D01*
G02X84433Y139764I-500J0D01*
G01X70382D01*
G02X69882Y140264I0J500D01*
G01Y191795D01*
G02X70415Y192291I500J-3D01*
G03X70415Y205347I452J6528D01*
G02X69882Y205845I-33J499D01*
G01Y229626D01*
G02X70207Y230092I500J-2D01*
G03X70204Y242350I-2293J6128D01*
G02X69882Y242815I178J467D01*
G01Y283670D01*
D02*
G37*
%LPC*%
G36*
G01X75521Y278265D02*
G03Y272916I5503J-2674D01*
G01X78195Y275590D01*
G01X75521Y278265D01*
D02*
G37*
G36*
G01X78349Y270088D02*
G03X83698I2674J5503D01*
G01X81024Y272762D01*
G01X78349Y270088D01*
D02*
G37*
G36*
G01Y281093D02*
G01X81024Y278419D01*
G01X83698Y281093D01*
G03X78349I-2674J-5503D01*
D02*
G37*
G36*
G01X80250Y149814D02*
G03Y143690I5183J-3062D01*
G01X83312Y146752D01*
G01X80250Y149814D01*
D02*
G37*
G36*
G01Y164223D02*
G03Y158100I5183J-3062D01*
G01X83312Y161161D01*
G01X80250Y164223D01*
D02*
G37*
G36*
G01X82371Y151935D02*
G01X85433Y148873D01*
G01X88495Y151935D01*
G03X87323Y152467I-3061J-5182D01*
G03X82371Y151935I-1890J-5715D01*
D02*
G37*
G36*
G01X82371Y155978D02*
G03X87323Y155446I3062J5183D01*
G03X88495Y155978I-1890J5716D01*
G01X87323Y157150D01*
G01X85433Y159040D01*
G01X82371Y155978D01*
D02*
G37*
G36*
G01X82371Y166344D02*
G01X85433Y163283D01*
G01X88495Y166344D01*
G03X87323Y166877I-3061J-5182D01*
G03X82371Y166344I-1890J-5715D01*
D02*
G37*
G36*
G01X83852Y275590D02*
G01X86526Y272916D01*
G03Y278265I-5503J2674D01*
G01X83852Y275590D01*
D02*
G37*
G36*
X86008Y196397D02*
X88430Y198819D01*
X86008Y201241D01*
Y196397D01*
D02*
G37*
G36*
G01X87554Y146752D02*
G01X90616Y143690D01*
G03Y149814I-5183J3062D01*
G01X87554Y146752D01*
D02*
G37*
G36*
G01Y161161D02*
G01X90616Y158100D01*
G03Y164223I-5183J3062D01*
G01X87554Y161161D01*
D02*
G37*
G36*
X88129Y194276D02*
X92973D01*
X90551Y196698D01*
X88129Y194276D01*
D02*
G37*
G36*
Y203362D02*
X90551Y200940D01*
X92973Y203362D01*
X88129D01*
D02*
G37*
G36*
X92672Y198819D02*
X95095Y196397D01*
Y201241D01*
X92672Y198819D01*
D02*
G37*
%LPD*%
G36*
G01X104337Y287438D02*
G02X104331Y287514I493J76D01*
G01Y290438D01*
G02X104337Y290515I500J-0D01*
G03X104378Y291051I-3459J536D01*
G01X104378Y306980D01*
G02X104878Y307480I500J0D01*
G01X121521D01*
G02X121543Y307480I-0J-492D01*
G03X127323Y309559I347J8111D01*
G03X129926Y316739I-5433J6032D01*
G02X129921Y316809I495J71D01*
G01Y328240D01*
G02X130421Y328740I500J0D01*
G01X171744D01*
G02X172244Y328240I0J-500D01*
G01Y291051D01*
G02X171744Y290551I-500J0D01*
G01X148425D01*
G01X136811Y285574D01*
G01Y282988D01*
G02X136055Y282559I-500J0D01*
G03X127323Y282302I-4165J-6968D01*
G03Y268879I4567J-6712D01*
G03X136056Y268623I4567J6712D01*
G02X136811Y268196I255J-430D01*
G01Y241833D01*
G02X136489Y241366I-500J-0D01*
G03X136486Y229108I2291J-6129D01*
G02X136811Y228640I-175J-468D01*
G01X136811Y203315D01*
G02X136696Y202996I-500J-0D01*
G03X136696Y194642I5036J-4178D01*
G02X136811Y194322I-385J-319D01*
G01Y140264D01*
G02X136311Y139764I-500J0D01*
G01X121866D01*
G02X121366Y140264I0J500D01*
G01Y140309D01*
G02X121789Y140804I500J0D01*
G03X123928Y141569I-923J5948D01*
G01X120866Y144631D01*
G01X117805Y141569D01*
G03X119944Y140803I3062J5183D01*
G02X120366Y140313I-78J-494D01*
G01Y140264D01*
G02X119866Y139764I-500J0D01*
G01X104878D01*
G02X104378Y140267I0J500D01*
G01Y286901D01*
G03X104337Y287438I-3500J-0D01*
D02*
G37*
%LPC*%
G36*
X114551Y232814D02*
X116973Y235236D01*
X114551Y237658D01*
Y232814D01*
D02*
G37*
G36*
G01X115683Y149814D02*
G03Y143690I5183J-3062D01*
G01X118745Y146752D01*
G01X115683Y149814D01*
D02*
G37*
G36*
G01Y164223D02*
G03Y158100I5183J-3062D01*
G01X118745Y161161D01*
G01X115683Y164223D01*
D02*
G37*
G36*
X116673Y230693D02*
X121517D01*
X119095Y233115D01*
X116673Y230693D01*
D02*
G37*
G36*
Y239779D02*
X119095Y237357D01*
X121517Y239779D01*
X116673D01*
D02*
G37*
G36*
G01X117805Y151935D02*
G01X120866Y148873D01*
G01X123928Y151935D01*
G03X117805I-3062J-5183D01*
D02*
G37*
G36*
G01Y155978D02*
G03X123928I3062J5183D01*
G01X120866Y159040D01*
G01X117805Y155978D01*
D02*
G37*
G36*
G01Y166344D02*
G01X120866Y163283D01*
G01X123928Y166344D01*
G03X117805I-3062J-5183D01*
D02*
G37*
G36*
X121216Y235236D02*
X123638Y232814D01*
Y237658D01*
X121216Y235236D01*
D02*
G37*
G36*
G01X122987Y146752D02*
G01X126049Y143690D01*
G03Y149814I-5183J3062D01*
G01X122987Y146752D01*
D02*
G37*
G36*
G01Y161161D02*
G01X126049Y158100D01*
G03Y164223I-5183J3062D01*
G01X122987Y161161D01*
D02*
G37*
G36*
G01X135772Y313032D02*
G03X135835Y312364I3559J0D01*
G01X139061Y315591D01*
G01X135835Y318817D01*
G03X135772Y318150I3496J-667D01*
G01Y313032D01*
D02*
G37*
G36*
G01X138663Y309536D02*
G03X139331Y309472I667J3496D01*
G01X144449D01*
G03X145116Y309536I-0J3559D01*
G01X141890Y312762D01*
G01X138663Y309536D01*
D02*
G37*
G36*
G01X138663Y321645D02*
G01X141890Y318419D01*
G01X145116Y321645D01*
G03X144449Y321709I-667J-3495D01*
G01X139331Y321709D01*
G03X138663Y321645I0J-3559D01*
D02*
G37*
G36*
G01X144718Y315591D02*
G01X147945Y312364D01*
G03X148008Y313032I-3495J667D01*
G01X148008Y318150D01*
G03X147945Y318817I-3559J-0D01*
G01X144718Y315591D01*
D02*
G37*
%LPD*%
G36*
G01X141071Y241365D02*
G02X140748Y241831I177J467D01*
G01X140748Y283670D01*
G02X141051Y284127I500J-3D01*
G01X148599Y287362D01*
G02X148794Y287402I196J-460D01*
G01X171744Y287402D01*
G02X172244Y286902I0J-500D01*
G01Y140264D01*
G02X171744Y139764I-500J0D01*
G01X157299D01*
G02X156799Y140264I0J500D01*
G01Y140309D01*
G02X157222Y140804I500J0D01*
G03X159361Y141569I-923J5948D01*
G01X156299Y144631D01*
G01X153238Y141569D01*
G03X155377Y140803I3062J5183D01*
G02X155799Y140313I-78J-494D01*
G01Y140264D01*
G02X155299Y139764I-500J0D01*
G01X141248D01*
G02X140748Y140264I0J500D01*
G01Y191795D01*
G02X141281Y192291I500J-3D01*
G03X141281Y205347I452J6528D01*
G02X140748Y205845I-33J499D01*
G01Y228643D01*
G02X141071Y229107I500J-4D01*
G03X141071Y241365I-2291J6129D01*
D02*
G37*
%LPC*%
G36*
G01X146387Y278265D02*
G03Y272916I5503J-2674D01*
G01X149061Y275590D01*
G01X146387Y278265D01*
D02*
G37*
G36*
G01X149215Y270088D02*
G03X154564I2674J5503D01*
G01X151890Y272762D01*
G01X149215Y270088D01*
D02*
G37*
G36*
G01Y281093D02*
G01X151890Y278419D01*
G01X154564Y281093D01*
G03X149215I-2674J-5503D01*
D02*
G37*
G36*
G01X151116Y149814D02*
G03Y143690I5183J-3062D01*
G01X154178Y146752D01*
G01X151116Y149814D01*
D02*
G37*
G36*
G01Y164223D02*
G03Y158100I5183J-3062D01*
G01X154178Y161161D01*
G01X151116Y164223D01*
D02*
G37*
G36*
G01X153238Y151935D02*
G01X156299Y148873D01*
G01X159361Y151935D01*
G03X153238I-3062J-5183D01*
D02*
G37*
G36*
G01Y155978D02*
G03X159361I3062J5183D01*
G01X156299Y159040D01*
G01X153238Y155978D01*
D02*
G37*
G36*
G01Y166344D02*
G01X156299Y163283D01*
G01X159361Y166344D01*
G03X153238I-3062J-5183D01*
D02*
G37*
G36*
G01X154718Y275590D02*
G01X157392Y272916D01*
G03Y278265I-5503J2674D01*
G01X154718Y275590D01*
D02*
G37*
G36*
X156874Y196397D02*
X159296Y198819D01*
X156874Y201241D01*
Y196397D01*
D02*
G37*
G36*
G01X158421Y146752D02*
G01X161482Y143690D01*
G03Y149814I-5183J3062D01*
G01X158421Y146752D01*
D02*
G37*
G36*
G01Y161161D02*
G01X161482Y158100D01*
G03Y164223I-5183J3062D01*
G01X158421Y161161D01*
D02*
G37*
G36*
X158995Y194276D02*
X163839D01*
X161417Y196698D01*
X158995Y194276D01*
D02*
G37*
G36*
Y203362D02*
X161417Y200940D01*
X163839Y203362D01*
X158995D01*
D02*
G37*
G36*
X163539Y198819D02*
X165961Y196397D01*
Y201241D01*
X163539Y198819D01*
D02*
G37*
%LPD*%
G36*
G01X175203Y287439D02*
G02X175197Y287514I495J76D01*
G01Y290438D01*
G02X175203Y290515I501J-0D01*
G03X175244Y291051I-3458J536D01*
G01X175244Y306980D01*
G02X175744Y307480I500J0D01*
G01X192388D01*
G02X192409Y307480I-0J-492D01*
G03X200792Y316739I347J8111D01*
G02X200787Y316809I495J71D01*
G01Y328240D01*
G02X201287Y328740I500J0D01*
G01X242610D01*
G02X243110Y328240I0J-500D01*
G01Y291051D01*
G02X242610Y290551I-500J0D01*
G01X219291D01*
G01X207677Y285574D01*
G01Y282988D01*
G02X207323Y282510I-500J0D01*
G02X206923Y282558I-146J478D01*
G03X206923Y268623I-4167J-6967D01*
G02X207323Y268671I254J-430D01*
G02X207677Y268196I-146J-478D01*
G01Y242817D01*
G02X207355Y242350I-500J-0D01*
G03X207323Y242338I1759J-4719D01*
G03Y230103I2323J-6117D01*
G03X207352Y230092I3536J9335D01*
G02X207677Y229624I-175J-468D01*
G01X207677Y203315D01*
G02X207563Y202997I-500J-0D01*
G03X207323Y202690I5031J-4175D01*
G03Y194948I5276J-3871D01*
G03X207562Y194642I5278J3873D01*
G02X207677Y194322I-385J-319D01*
G01Y140264D01*
G02X207323Y139786I-500J0D01*
G02X207177Y139764I-146J479D01*
G01X192732D01*
G02X192232Y140264I0J500D01*
G01Y140309D01*
G02X192656Y140804I500J0D01*
G03X194794Y141569I-923J5948D01*
G01X191732Y144631D01*
G01X188671Y141569D01*
G03X190810Y140803I3062J5183D01*
G02X191232Y140313I-78J-494D01*
G01Y140264D01*
G02X190732Y139764I-500J0D01*
G01X175744D01*
G02X175244Y140267I0J500D01*
G01Y286901D01*
G03X175203Y287439I-3501J-0D01*
D02*
G37*
%LPC*%
G36*
X185417Y233799D02*
X187839Y236221D01*
X185417Y238643D01*
Y233799D01*
D02*
G37*
G36*
G01X186549Y149814D02*
G03Y143690I5183J-3062D01*
G01X189611Y146752D01*
G01X186549Y149814D01*
D02*
G37*
G36*
G01Y164223D02*
G03Y158100I5183J-3062D01*
G01X189611Y161161D01*
G01X186549Y164223D01*
D02*
G37*
G36*
X187539Y231677D02*
X192383D01*
X189961Y234099D01*
X187539Y231677D01*
D02*
G37*
G36*
Y240764D02*
X189961Y238342D01*
X192383Y240764D01*
X187539D01*
D02*
G37*
G36*
G01X188671Y151935D02*
G01X191732Y148873D01*
G01X194794Y151935D01*
G03X188671I-3062J-5183D01*
D02*
G37*
G36*
G01Y155978D02*
G03X194794I3062J5183D01*
G01X191732Y159040D01*
G01X188671Y155978D01*
D02*
G37*
G36*
G01Y166344D02*
G01X191732Y163283D01*
G01X194794Y166344D01*
G03X188671I-3062J-5183D01*
D02*
G37*
G36*
X192082Y236221D02*
X194504Y233799D01*
Y238643D01*
X192082Y236221D01*
D02*
G37*
G36*
G01X193854Y146752D02*
G01X196915Y143690D01*
G03Y149814I-5183J3062D01*
G01X193854Y146752D01*
D02*
G37*
G36*
G01Y161161D02*
G01X196915Y158100D01*
G03Y164223I-5183J3062D01*
G01X193854Y161161D01*
D02*
G37*
G36*
G01X206638Y313032D02*
G03X206701Y312364I3559J0D01*
G01X209928Y315591D01*
G01X207323Y318195D01*
G01X206701Y318817D01*
G03X206638Y318150I3496J-667D01*
G01Y313032D01*
D02*
G37*
G36*
G01X209529Y309536D02*
G03X210197Y309472I667J3496D01*
G01X215315D01*
G03X215982Y309536I-0J3559D01*
G01X212756Y312762D01*
G01X209529Y309536D01*
D02*
G37*
G36*
G01X209529Y321645D02*
G01X212756Y318419D01*
G01X215982Y321645D01*
G03X215315Y321709I-667J-3495D01*
G01X210197Y321709D01*
G03X209529Y321645I0J-3559D01*
D02*
G37*
G36*
G01X215584Y315591D02*
G01X218811Y312364D01*
G03X218874Y313032I-3495J667D01*
G01X218874Y318150D01*
G03X218811Y318817I-3559J-0D01*
G01X215584Y315591D01*
D02*
G37*
%LPD*%
G36*
G01X211614Y191795D02*
G02X212147Y192291I500J-3D01*
G03Y205347I452J6528D01*
G02X211614Y205845I-32J499D01*
G01Y229627D01*
G02X211937Y230091I500J-4D01*
G03X211937Y242350I-2291J6129D01*
G02X211614Y242815I177J467D01*
G01X211614Y283670D01*
G02X211917Y284127I500J-3D01*
G01X219465Y287362D01*
G02X219661Y287402I196J-460D01*
G01X242610Y287402D01*
G02X243110Y286902I0J-500D01*
G01Y140264D01*
G02X242610Y139764I-500J0D01*
G01X228165D01*
G02X227665Y140264I0J500D01*
G01Y140309D01*
G02X228089Y140804I500J0D01*
G03X230227Y141569I-923J5948D01*
G01X227165Y144631D01*
G01X224104Y141569D01*
G03X226243Y140803I3062J5183D01*
G02X226665Y140313I-78J-494D01*
G01Y140264D01*
G02X226165Y139764I-500J0D01*
G01X212114D01*
G02X211614Y140264I0J500D01*
G01Y191795D01*
D02*
G37*
%LPC*%
G36*
G01X217253Y278265D02*
G03Y272916I5503J-2674D01*
G01X219928Y275590D01*
G01X217253Y278265D01*
D02*
G37*
G36*
G01X220082Y270088D02*
G03X225430I2674J5503D01*
G01X222756Y272762D01*
G01X220082Y270088D01*
D02*
G37*
G36*
G01Y281093D02*
G01X222756Y278419D01*
G01X225430Y281093D01*
G03X220082I-2674J-5503D01*
D02*
G37*
G36*
G01X221982Y149814D02*
G03Y143690I5183J-3062D01*
G01X225044Y146752D01*
G01X221982Y149814D01*
D02*
G37*
G36*
G01Y164223D02*
G03Y158100I5183J-3062D01*
G01X225044Y161161D01*
G01X221982Y164223D01*
D02*
G37*
G36*
G01X224104Y151935D02*
G01X227165Y148873D01*
G01X230227Y151935D01*
G03X224104I-3062J-5183D01*
D02*
G37*
G36*
G01Y155978D02*
G03X230227I3062J5183D01*
G01X227165Y159040D01*
G01X224104Y155978D01*
D02*
G37*
G36*
G01Y166344D02*
G01X227165Y163283D01*
G01X230227Y166344D01*
G03X224104I-3062J-5183D01*
D02*
G37*
G36*
G01X225584Y275590D02*
G01X228259Y272916D01*
G03Y278265I-5503J2674D01*
G01X225584Y275590D01*
D02*
G37*
G36*
X227740Y196397D02*
X230162Y198819D01*
X227740Y201241D01*
Y196397D01*
D02*
G37*
G36*
G01X229287Y146752D02*
G01X232348Y143690D01*
G03Y149814I-5183J3062D01*
G01X229287Y146752D01*
D02*
G37*
G36*
G01Y161161D02*
G01X232348Y158100D01*
G03Y164223I-5183J3062D01*
G01X229287Y161161D01*
D02*
G37*
G36*
X229861Y194276D02*
X234705D01*
X232283Y196698D01*
X229861Y194276D01*
D02*
G37*
G36*
Y203362D02*
X232283Y200940D01*
X234705Y203362D01*
X229861D01*
D02*
G37*
G36*
X234405Y198819D02*
X236827Y196397D01*
Y201241D01*
X234405Y198819D01*
D02*
G37*
%LPD*%
G36*
G01X246069Y287438D02*
G02X246063Y287514I493J76D01*
G01Y290438D01*
G02X246069Y290515I500J-0D01*
G03X246110Y291051I-3459J536D01*
G01X246110Y306980D01*
G02X246610Y307480I500J0D01*
G01X263254D01*
G02X263275Y307480I-0J-492D01*
G03X271659Y316739I347J8111D01*
G02X271654Y316809I495J71D01*
G01Y328240D01*
G02X272154Y328740I500J0D01*
G01X313476D01*
G02X313976Y328240I0J-500D01*
G01Y291051D01*
G02X313476Y290551I-500J0D01*
G01X290158D01*
G01X287323Y289336D01*
G01X278543Y285574D01*
G01Y282988D01*
G02X277787Y282559I-500J0D01*
G03X277788Y268623I-4165J-6968D01*
G02X278543Y268196I255J-430D01*
G01Y242121D01*
G02X278151Y241633I-500J-0D01*
G03X278149Y228840I1376J-6397D01*
G02X278543Y228351I-105J-489D01*
G01Y203315D01*
G02X278429Y202997I-500J-0D01*
G03X278428Y194642I5036J-4178D01*
G02X278543Y194322I-385J-319D01*
G01Y140264D01*
G02X278043Y139764I-500J0D01*
G01X263598D01*
G02X263098Y140264I0J500D01*
G01Y140309D01*
G02X263522Y140804I500J0D01*
G03X265660Y141569I-923J5948D01*
G01X262598Y144631D01*
G01X259537Y141569D01*
G03X261676Y140803I3062J5183D01*
G02X262098Y140313I-78J-494D01*
G01Y140264D01*
G02X261598Y139764I-500J0D01*
G01X246610D01*
G02X246110Y140267I0J500D01*
G01Y286901D01*
G03X246069Y287438I-3500J-0D01*
D02*
G37*
%LPC*%
G36*
X255299Y232814D02*
X257721Y235236D01*
X255299Y237658D01*
Y232814D01*
D02*
G37*
G36*
G01X257416Y149814D02*
G03Y143690I5183J-3062D01*
G01X260477Y146752D01*
G01X257416Y149814D01*
D02*
G37*
G36*
G01Y164223D02*
G03Y158100I5183J-3062D01*
G01X260477Y161161D01*
G01X257416Y164223D01*
D02*
G37*
G36*
X257420Y230693D02*
X262264D01*
X259842Y233115D01*
X257420Y230693D01*
D02*
G37*
G36*
Y239779D02*
X259842Y237357D01*
X262264Y239779D01*
X257420D01*
D02*
G37*
G36*
G01X259537Y151935D02*
G01X262598Y148873D01*
G01X265660Y151935D01*
G03X259537I-3062J-5183D01*
D02*
G37*
G36*
G01Y155978D02*
G03X265660I3062J5183D01*
G01X262598Y159040D01*
G01X259537Y155978D01*
D02*
G37*
G36*
G01Y166344D02*
G01X262598Y163283D01*
G01X265660Y166344D01*
G03X259537I-3062J-5183D01*
D02*
G37*
G36*
X261964Y235236D02*
X264386Y232814D01*
Y237658D01*
X261964Y235236D01*
D02*
G37*
G36*
G01X264720Y146752D02*
G01X267781Y143690D01*
G03Y149814I-5183J3062D01*
G01X264720Y146752D01*
D02*
G37*
G36*
G01Y161161D02*
G01X267781Y158100D01*
G03Y164223I-5183J3062D01*
G01X264720Y161161D01*
D02*
G37*
G36*
G01X277504Y313032D02*
G03X277567Y312364I3559J0D01*
G01X280794Y315591D01*
G01X277567Y318817D01*
G03X277504Y318150I3496J-667D01*
G01Y313032D01*
D02*
G37*
G36*
G01X280396Y309536D02*
G03X281063Y309472I667J3496D01*
G01X286181D01*
G03X286849Y309536I-0J3559D01*
G01X283622Y312762D01*
G01X280396Y309536D01*
D02*
G37*
G36*
G01X280396Y321645D02*
G01X283622Y318419D01*
G01X286849Y321645D01*
G03X286181Y321709I-667J-3495D01*
G01X281063Y321709D01*
G03X280396Y321645I0J-3559D01*
D02*
G37*
G36*
G01X286451Y315591D02*
G01X287323Y314718D01*
G01X289677Y312364D01*
G03X289740Y313032I-3495J667D01*
G01X289740Y318150D01*
G03X289677Y318817I-3559J-0D01*
G01X286451Y315591D01*
D02*
G37*
%LPD*%
G36*
G01X282480Y191795D02*
G02X283013Y192291I500J-3D01*
G03X287323Y193534I452J6528D01*
G03Y204104I-3858J5285D01*
G03X283013Y205347I-3858J-5285D01*
G02X282480Y205845I-32J499D01*
G01Y229099D01*
G02X282734Y229533I500J-2D01*
G03X282733Y240941I-3207J5704D01*
G02X282480Y241373I248J434D01*
G01Y283670D01*
G02X282783Y284127I500J-3D01*
G01X287323Y286072D01*
G01X288505Y286579D01*
G01X290330Y287361D01*
G02X290527Y287402I197J-459D01*
G01X313476Y287402D01*
G02X313976Y286902I0J-500D01*
G01Y243134D01*
G02X313702Y242688I-500J0D01*
G03X313700Y221880I5196J-10405D01*
G02X313976Y221432I-223J-447D01*
G01X313976Y140264D01*
G02X313476Y139764I-500J0D01*
G01X299031D01*
G02X298532Y140264I0J500D01*
G01Y140309D01*
G02X298955Y140804I500J0D01*
G03X301093Y141569I-923J5948D01*
G01X298031Y144631D01*
G01X294970Y141569D01*
G03X297109Y140803I3062J5183D01*
G02X297532Y140313I-78J-494D01*
G01Y140264D01*
G02X297031Y139764I-500J0D01*
G01X282980D01*
G02X282480Y140264I0J500D01*
G01Y191795D01*
D02*
G37*
%LPC*%
G36*
G01X288119Y278265D02*
G03Y272916I5503J-2674D01*
G01X290794Y275590D01*
G01X288119Y278265D01*
D02*
G37*
G36*
G01X290948Y270088D02*
G03X296296I2674J5503D01*
G01X293622Y272762D01*
G01X290948Y270088D01*
D02*
G37*
G36*
G01Y281093D02*
G01X293622Y278419D01*
G01X296296Y281093D01*
G03X290948I-2674J-5503D01*
D02*
G37*
G36*
G01X292848Y149814D02*
G03Y143690I5183J-3062D01*
G01X295910Y146752D01*
G01X292848Y149814D01*
D02*
G37*
G36*
G01Y164223D02*
G03Y158100I5183J-3062D01*
G01X295910Y161161D01*
G01X292848Y164223D01*
D02*
G37*
G36*
G01X294970Y151935D02*
G01X298031Y148873D01*
G01X301093Y151935D01*
G03X294970I-3062J-5183D01*
D02*
G37*
G36*
G01Y155978D02*
G03X301093I3062J5183D01*
G01X298031Y159040D01*
G01X294970Y155978D01*
D02*
G37*
G36*
G01Y166344D02*
G01X298031Y163283D01*
G01X301093Y166344D01*
G03X294970I-3062J-5183D01*
D02*
G37*
G36*
G01X296450Y275590D02*
G01X299125Y272916D01*
G03Y278265I-5503J2674D01*
G01X296450Y275590D01*
D02*
G37*
G36*
X298606Y196397D02*
X301028Y198819D01*
X298606Y201241D01*
Y196397D01*
D02*
G37*
G36*
G01X300153Y146752D02*
G01X303215Y143690D01*
G03Y149814I-5183J3062D01*
G01X300153Y146752D01*
D02*
G37*
G36*
G01Y161161D02*
G01X303215Y158100D01*
G03Y164223I-5183J3062D01*
G01X300153Y161161D01*
D02*
G37*
G36*
X300728Y194276D02*
X305572D01*
X303150Y196698D01*
X300728Y194276D01*
D02*
G37*
G36*
Y203362D02*
X303150Y200940D01*
X305572Y203362D01*
X300728D01*
D02*
G37*
G36*
X305271Y198819D02*
X307693Y196397D01*
Y201241D01*
X305271Y198819D01*
D02*
G37*
%LPD*%
D18*
X218504Y41339D02*
D03*
X255906D02*
D03*
X78740D02*
D03*
X116142D02*
D03*
D29*
X90551Y198819D02*
D03*
X259842Y235236D02*
D03*
X303150Y198819D02*
D03*
X189961Y236221D02*
D03*
X232283Y198819D02*
D03*
X119095Y235236D02*
D03*
X161417Y198819D02*
D03*
X48228Y236221D02*
D03*
D30*
X70866Y198819D02*
D03*
X279528Y235236D02*
D03*
X283465Y198819D02*
D03*
X209646Y236221D02*
D03*
X212598Y198819D02*
D03*
X138779Y235236D02*
D03*
X141732Y198819D02*
D03*
X67913Y236221D02*
D03*
D31*
X51024Y315591D02*
D03*
X61024Y275590D02*
D03*
X81024D02*
D03*
X263622Y315591D02*
D03*
X273622Y275590D02*
D03*
X293622D02*
D03*
X192756Y315591D02*
D03*
X202756Y275590D02*
D03*
X222756D02*
D03*
X121890Y315591D02*
D03*
X131890Y275590D02*
D03*
X151890D02*
D03*
D32*
X71024Y315591D02*
D03*
X283622D02*
D03*
X212756D02*
D03*
X141890D02*
D03*
D33*
X85433Y114744D02*
D03*
Y129154D02*
D03*
Y161161D02*
D03*
Y146752D02*
D03*
X262598Y114744D02*
D03*
Y161161D02*
D03*
Y129154D02*
D03*
Y146752D02*
D03*
X298031Y114744D02*
D03*
Y161161D02*
D03*
Y129154D02*
D03*
Y146752D02*
D03*
X191732Y114744D02*
D03*
Y161161D02*
D03*
Y129154D02*
D03*
Y146752D02*
D03*
X227165Y114744D02*
D03*
Y129154D02*
D03*
Y161161D02*
D03*
Y146752D02*
D03*
X120866Y114744D02*
D03*
Y161161D02*
D03*
Y129154D02*
D03*
Y146752D02*
D03*
X156299Y114744D02*
D03*
Y161161D02*
D03*
Y129154D02*
D03*
Y146752D02*
D03*
X50000Y114744D02*
D03*
Y161161D02*
D03*
Y129154D02*
D03*
Y146752D02*
D03*
D34*
X179134Y57087D02*
D03*
M02*
