G04*
G04 #@! TF.GenerationSoftware,Altium Limited,Altium Designer,26.9.1 (10)*
G04*
G04 Layer_Physical_Order=3*
G04 Layer_Color=16440176*
G04 Board_Origin=74640005|44270005*
%FSLAX25Y25*%
%MOIN*%
G70*
G04*
G04 #@! TF.SameCoordinates,585EC1B0-1F81-44B1-8C19-25A49A0C304D*
G04*
G04*
G04 #@! TF.FilePolarity,Positive*
G04*
G01*
G75*
%ADD18C,0.13000*%
%ADD29R,0.07087X0.07087*%
%ADD30C,0.07087*%
%ADD31C,0.10236*%
G04:AMPARAMS|DCode=32|XSize=102.36mil|YSize=102.36mil|CornerRadius=25.59mil|HoleSize=0mil|Usage=FLASHONLY|Rotation=180.000|XOffset=0mil|YOffset=0mil|HoleType=Round|Shape=RoundedRectangle|*
%AMROUNDEDRECTD32*
21,1,0.10236,0.05118,0,0,180.0*
21,1,0.05118,0.10236,0,0,180.0*
1,1,0.05118,-0.02559,0.02559*
1,1,0.05118,0.02559,0.02559*
1,1,0.05118,0.02559,-0.02559*
1,1,0.05118,-0.02559,-0.02559*
%
%ADD32ROUNDEDRECTD32*%
%ADD33C,0.10039*%
%ADD34C,0.04000*%
G36*
G01X9843Y257165D02*
G01X9843Y297165D01*
G01Y343988D01*
G02X10343Y344488I500J-0D01*
G01X324306D01*
G02X324803Y343988I-3J-500D01*
G01X324803Y243141D01*
G02X324084Y242693I-500J2D01*
G03X324083Y221874I-5187J-10409D01*
G02X324803Y221427I220J-449D01*
G01X324803Y26604D01*
G02X324083Y26158I-500J3D01*
G03X308074Y20002I-5186J-10410D01*
G02X307608Y19685I-465J183D01*
G01X140264D01*
G02X139764Y20185I0J500D01*
G01Y59055D01*
G01X10343D01*
G02X9843Y59552I0J500D01*
G01Y97165D01*
G01X9843Y177165D01*
G01Y201743D01*
G02X10564Y202188I500J-4D01*
G03X10564Y223009I5184J10411D01*
G02X9843Y223456I-222J448D01*
G01X9843Y257165D01*
D02*
G37*
%LPC*%
G36*
G01X41685Y232677D02*
G03X44685Y229677I3000J0D01*
G01X51772D01*
G03X54772Y232677I0J3000D01*
G01Y239764D01*
G03X51772Y242764I-3000J0D01*
G01X44685D01*
G03X41685Y239764I0J-3000D01*
G01Y232677D01*
D02*
G37*
G36*
G01X45521Y318265D02*
G03Y312916I5503J-2674D01*
G01X48195Y315591D01*
G01X47323Y316463D01*
G01X45521Y318265D01*
D02*
G37*
G36*
G01X45720Y121526D02*
G03X47323Y107184I4280J-6782D01*
G03X54278Y121527I2677J7560D01*
G02X54280Y122372I269J422D01*
G03X50355Y137165I-4280J6782D01*
G03X49645I-355J-8007D01*
G03X47323Y136713I355J-8011D01*
G03X45720Y122372I2677J-7560D01*
G02X45720Y121526I-267J-423D01*
D02*
G37*
G36*
G01Y153534D02*
G03X47323Y139192I4280J-6782D01*
G03X54278Y153535I2677J7560D01*
G02X54280Y154379I269J422D01*
G03X47323Y168721I-4280J6782D01*
G03X45720Y154379I2677J-7560D01*
G02X45720Y153534I-267J-423D01*
D02*
G37*
G36*
G01X48349Y310088D02*
G03X53698I2674J5503D01*
G01X51024Y312762D01*
G01X48349Y310088D01*
D02*
G37*
G36*
G01Y321093D02*
G01X51024Y318419D01*
G01X53698Y321093D01*
G03X48349I-2674J-5503D01*
D02*
G37*
G36*
G01X53852Y315591D02*
G01X56526Y312916D01*
G03Y318265I-5503J2674D01*
G01X53852Y315591D01*
D02*
G37*
G36*
G01X55521Y278265D02*
G03Y272916I5503J-2674D01*
G01X58195Y275590D01*
G01X55521Y278265D01*
D02*
G37*
G36*
G01X58349Y270088D02*
G03X63698I2674J5503D01*
G01X61024Y272762D01*
G01X58349Y270088D01*
D02*
G37*
G36*
G01Y281093D02*
G01X61024Y278419D01*
G01X63698Y281093D01*
G03X58349I-2674J-5503D01*
D02*
G37*
G36*
G01X62906Y313032D02*
G03X68465Y307472I5559J0D01*
G01X73583D01*
G03X79142Y313032I0J5559D01*
G01Y318150D01*
G03X73583Y323709I-5559J0D01*
G01X68465D01*
G03X62906Y318150I0J-5559D01*
G01Y313032D01*
D02*
G37*
G36*
G01X63820Y238192D02*
G03Y234249I4093J-1972D01*
G01X65792Y236221D01*
G01X63820Y238192D01*
D02*
G37*
G36*
G01X63852Y275590D02*
G01X66526Y272916D01*
G03Y278265I-5503J2674D01*
G01X63852Y275590D01*
D02*
G37*
G36*
G01X65942Y232127D02*
G03X69885I1972J4093D01*
G01X67913Y234099D01*
G01X65942Y232127D01*
D02*
G37*
G36*
G01Y240314D02*
G01X67913Y238342D01*
G01X69885Y240314D01*
G03X65942I-1972J-4093D01*
D02*
G37*
G36*
G01X66773Y200791D02*
G03Y196847I4093J-1972D01*
G01X68745Y198819D01*
G01X66773Y200791D01*
D02*
G37*
G36*
G01X68894Y194726D02*
G03X72838I1972J4093D01*
G01X70866Y196698D01*
G01X68894Y194726D01*
D02*
G37*
G36*
G01Y202912D02*
G01X70866Y200940D01*
G01X72838Y202912D01*
G03X68894I-1972J-4093D01*
D02*
G37*
G36*
G01X70035Y236221D02*
G01X72006Y234249D01*
G03Y238192I-4093J1972D01*
G01X70035Y236221D01*
D02*
G37*
G36*
G01X72988Y198819D02*
G01X74959Y196847D01*
G03Y200791I-4093J1972D01*
G01X72988Y198819D01*
D02*
G37*
G36*
G01X81153Y153534D02*
G03X87323Y138958I4280J-6782D01*
G03X89711Y153535I-1890J7794D01*
G02X89713Y154379I269J422D01*
G03X87323Y168955I-4280J6782D01*
G03X81153Y154379I-1890J-7794D01*
G02X81153Y153534I-267J-423D01*
D02*
G37*
G36*
G01X84008Y195276D02*
G03X87008Y192276I3000J0D01*
G01X94095D01*
G03X97095Y195276I0J3000D01*
G01Y202362D01*
G03X94095Y205362I-3000J0D01*
G01X87008D01*
G03X84008Y202362I0J-3000D01*
G01Y195276D01*
D02*
G37*
G36*
G01X85078Y137165D02*
G03X81153Y122372I355J-8012D01*
G02X81153Y121526I-267J-423D01*
G03X87323Y106950I4280J-6782D01*
G03X89711Y121527I-1890J7794D01*
G02X89713Y122372I269J422D01*
G03X87323Y136947I-4280J6782D01*
G03X85789Y137165I-1890J-7794D01*
G03X85078Y137165I-355J-8012D01*
D02*
G37*
G36*
G01X87323Y280712D02*
G03X74724Y270470I-6299J-5121D01*
G03X87323Y280712I6299J5121D01*
D02*
G37*
G36*
G01X112551Y231693D02*
G03X115551Y228693I3000J0D01*
G01X122638D01*
G03X125638Y231693I0J3000D01*
G01Y238779D01*
G03X122638Y241779I-3000J0D01*
G01X115551D01*
G03X112551Y238779I0J-3000D01*
G01Y231693D01*
D02*
G37*
G36*
G01X116387Y318265D02*
G03Y312916I5503J-2674D01*
G01X119061Y315591D01*
G01X116387Y318265D01*
D02*
G37*
G36*
G01X116586Y153534D02*
G03X127323Y151509I4280J-6782D01*
G03X125145Y153535I-6456J-4756D01*
G02X125146Y154379I269J422D01*
G03X127323Y156405I-4280J6782D01*
G03Y165918I-6457J4757D01*
G03X116586Y154379I-6457J-4757D01*
G02X116586Y153534I-267J-423D01*
D02*
G37*
G36*
G01X119216Y310088D02*
G03X124564I2674J5503D01*
G01X121890Y312762D01*
G01X119216Y310088D01*
D02*
G37*
G36*
G01Y321093D02*
G01X121890Y318419D01*
G01X124564Y321093D01*
G03X119216I-2674J-5503D01*
D02*
G37*
G36*
G01X120511Y137165D02*
G03X116586Y122372I355J-8012D01*
G02X116586Y121526I-267J-423D01*
G03X127323Y119501I4280J-6782D01*
G03X125145Y121527I-6456J-4756D01*
G02X125146Y122372I269J422D01*
G03X127323Y124397I-4280J6782D01*
G03Y133910I-6457J4757D01*
G03X121222Y137165I-6457J-4757D01*
G03X120511Y137165I-355J-8012D01*
D02*
G37*
G36*
G01X124718Y315591D02*
G01X127323Y312986D01*
G01X127392Y312916D01*
G03Y318265I-5503J2674D01*
G01X124718Y315591D01*
D02*
G37*
G36*
G01X126387Y278265D02*
G03Y272916I5503J-2674D01*
G01X129061Y275590D01*
G01X127323Y277329D01*
G01X126387Y278265D01*
D02*
G37*
G36*
G01X129216Y270088D02*
G03X134564I2674J5503D01*
G01X131890Y272762D01*
G01X129216Y270088D01*
D02*
G37*
G36*
G01Y281093D02*
G01X131890Y278419D01*
G01X134564Y281093D01*
G03X129216I-2674J-5503D01*
D02*
G37*
G36*
G01X133772Y313032D02*
G03X139331Y307472I5559J0D01*
G01X144449D01*
G03X150008Y313032I0J5559D01*
G01Y318150D01*
G03X144449Y323709I-5559J0D01*
G01X139331D01*
G03X133772Y318150I0J-5559D01*
G01Y313032D01*
D02*
G37*
G36*
G01X134686Y237208D02*
G03Y233264I4093J-1972D01*
G01X136658Y235236D01*
G01X134686Y237208D01*
D02*
G37*
G36*
G01X134718Y275590D02*
G01X137392Y272916D01*
G03Y278265I-5503J2674D01*
G01X134718Y275590D01*
D02*
G37*
G36*
G01X136808Y231143D02*
G03X140751I1972J4093D01*
G01X138779Y233115D01*
G01X136808Y231143D01*
D02*
G37*
G36*
G01Y239329D02*
G01X138779Y237357D01*
G01X140751Y239329D01*
G03X136808I-1972J-4093D01*
D02*
G37*
G36*
G01X137639Y200791D02*
G03Y196847I4093J-1972D01*
G01X139611Y198819D01*
G01X137639Y200791D01*
D02*
G37*
G36*
G01X139760Y194726D02*
G03X143704I1972J4093D01*
G01X141732Y196698D01*
G01X139760Y194726D01*
D02*
G37*
G36*
G01Y202912D02*
G01X141732Y200940D01*
G01X143704Y202912D01*
G03X139760I-1972J-4093D01*
D02*
G37*
G36*
G01X140901Y235236D02*
G01X142873Y233264D01*
G03Y237208I-4093J1972D01*
G01X140901Y235236D01*
D02*
G37*
G36*
G01X143772Y275590D02*
G03X160008I8118J0D01*
G03X143772I-8118J0D01*
D02*
G37*
G36*
G01X143854Y198819D02*
G01X145825Y196847D01*
G03Y200791I-4093J1972D01*
G01X143854Y198819D01*
D02*
G37*
G36*
G01X152020Y121526D02*
G03X160578Y121527I4280J-6782D01*
G02X160580Y122372I269J422D01*
G03X156655Y137165I-4280J6782D01*
G03X155944I-355J-8012D01*
G03X152019Y122372I355J-8012D01*
G02X152020Y121526I-267J-423D01*
D02*
G37*
G36*
G01Y153534D02*
G03X160578Y153535I4280J-6782D01*
G02X160580Y154379I269J422D01*
G03X152019I-4280J6782D01*
G02X152020Y153534I-267J-423D01*
D02*
G37*
G36*
G01X154874Y195276D02*
G03X157874Y192276I3000J0D01*
G01X164961D01*
G03X167961Y195276I0J3000D01*
G01Y202362D01*
G03X167323Y204211I-3000J-0D01*
G03X164961Y205362I-2362J-1849D01*
G01X157874Y205362D01*
G03X154874Y202362I0J-3000D01*
G01Y195276D01*
D02*
G37*
G36*
G01X156523Y24996D02*
G03X159523Y21996I3000J0D01*
G01X175123D01*
G03X178123Y24996I0J3000D01*
G01Y37996D01*
G03X175123Y40996I-3000J0D01*
G01X159523D01*
G03X156523Y37996I0J-3000D01*
G01Y24996D01*
D02*
G37*
G36*
G01X183417Y232677D02*
G03X186417Y229677I3000J0D01*
G01X193504D01*
G03X196504Y232677I0J3000D01*
G01Y239764D01*
G03X193504Y242764I-3000J0D01*
G01X186417D01*
G03X183417Y239764I0J-3000D01*
G01Y232677D01*
D02*
G37*
G36*
G01X187253Y318265D02*
G03Y312916I5503J-2674D01*
G01X189927Y315591D01*
G01X187253Y318265D01*
D02*
G37*
G36*
G01X187452Y121526D02*
G03X196011Y121527I4280J-6782D01*
G02X196013Y122372I269J422D01*
G03X192088Y137165I-4280J6782D01*
G03X191377I-355J-8012D01*
G03X187452Y122372I355J-8012D01*
G02X187452Y121526I-267J-423D01*
D02*
G37*
G36*
G01Y153534D02*
G03X196011Y153535I4280J-6782D01*
G02X196013Y154379I269J422D01*
G03X187452I-4280J6782D01*
G02X187452Y153534I-267J-423D01*
D02*
G37*
G36*
G01X190082Y310088D02*
G03X195430I2674J5503D01*
G01X192756Y312762D01*
G01X190082Y310088D01*
D02*
G37*
G36*
G01Y321093D02*
G01X192756Y318419D01*
G01X195430Y321093D01*
G03X190082I-2674J-5503D01*
D02*
G37*
G36*
G01X195584Y315591D02*
G01X198259Y312916D01*
G03Y318265I-5503J2674D01*
G01X195584Y315591D01*
D02*
G37*
G36*
G01X197253Y278265D02*
G03Y272916I5503J-2674D01*
G01X199927Y275590D01*
G01X197253Y278265D01*
D02*
G37*
G36*
G01X200082Y270088D02*
G03X205430I2674J5503D01*
G01X202756Y272762D01*
G01X200082Y270088D01*
D02*
G37*
G36*
G01Y281093D02*
G01X202756Y278419D01*
G01X205430Y281093D01*
G03X200082I-2674J-5503D01*
D02*
G37*
G36*
G01X204638Y313032D02*
G03X207323Y308273I5559J0D01*
G03X210197Y307472I2874J4758D01*
G01X215315D01*
G03X220874Y313032I0J5559D01*
G01Y318150D01*
G03X215315Y323709I-5559J0D01*
G01X210197D01*
G03X207323Y322908I-0J-5559D01*
G03X204638Y318150I2874J-4758D01*
G01Y313032D01*
D02*
G37*
G36*
G01X205553Y238192D02*
G03Y234249I4093J-1972D01*
G01X207524Y236221D01*
G01X207323Y236422D01*
G01X205553Y238192D01*
D02*
G37*
G36*
G01X205584Y275590D02*
G01X207323Y273852D01*
G01X208259Y272916D01*
G03Y278265I-5503J2674D01*
G01X205584Y275590D01*
D02*
G37*
G36*
G01X207674Y232127D02*
G03X211617I1972J4093D01*
G01X209646Y234099D01*
G01X207674Y232127D01*
D02*
G37*
G36*
G01Y240314D02*
G01X209646Y238342D01*
G01X211617Y240314D01*
G03X207674I-1972J-4093D01*
D02*
G37*
G36*
G01X208505Y200791D02*
G03Y196847I4093J-1972D01*
G01X210477Y198819D01*
G01X208505Y200791D01*
D02*
G37*
G36*
G01X210627Y194726D02*
G03X214570I1972J4093D01*
G01X212598Y196698D01*
G01X210627Y194726D01*
D02*
G37*
G36*
G01Y202912D02*
G01X212598Y200940D01*
G01X214570Y202912D01*
G03X210627I-1972J-4093D01*
D02*
G37*
G36*
G01X211736Y44571D02*
G03Y38106I6768J-3232D01*
G01X214968Y41339D01*
G01X211736Y44571D01*
D02*
G37*
G36*
G01X211767Y236221D02*
G01X213739Y234249D01*
G03Y238192I-4093J1972D01*
G01X211767Y236221D01*
D02*
G37*
G36*
G01X214638Y275590D02*
G03X230874I8118J0D01*
G03X214638I-8118J0D01*
D02*
G37*
G36*
G01X214720Y198819D02*
G01X216691Y196847D01*
G03Y200791I-4093J1972D01*
G01X214720Y198819D01*
D02*
G37*
G36*
G01X215272Y34571D02*
G03X221736I3232J6768D01*
G01X218504Y37803D01*
G01X215272Y34571D01*
D02*
G37*
G36*
G01Y48106D02*
G01X218504Y44874D01*
G01X221736Y48106D01*
G03X215272I-3232J-6768D01*
D02*
G37*
G36*
G01X222040Y41339D02*
G01X225272Y38106D01*
G03Y44571I-6768J3232D01*
G01X222040Y41339D01*
D02*
G37*
G36*
G01X222886Y121526D02*
G03X231444Y121527I4280J-6782D01*
G02X231446Y122372I269J422D01*
G03X227521Y137165I-4280J6782D01*
G03X226810I-355J-8012D01*
G03X222885Y122372I355J-8012D01*
G02X222886Y121526I-267J-423D01*
D02*
G37*
G36*
G01Y153534D02*
G03X231444Y153535I4280J-6782D01*
G02X231446Y154379I269J422D01*
G03X222885I-4280J6782D01*
G02X222886Y153534I-267J-423D01*
D02*
G37*
G36*
G01X225740Y195276D02*
G03X228740Y192276I3000J0D01*
G01X235827D01*
G03X238827Y195276I0J3000D01*
G01Y202362D01*
G03X235827Y205362I-3000J0D01*
G01X228740D01*
G03X225740Y202362I0J-3000D01*
G01Y195276D01*
D02*
G37*
G36*
G01X249138Y44571D02*
G03Y38106I6768J-3232D01*
G01X252370Y41339D01*
G01X249138Y44571D01*
D02*
G37*
G36*
G01X252673Y34571D02*
G03X259138I3232J6768D01*
G01X255906Y37803D01*
G01X252673Y34571D01*
D02*
G37*
G36*
G01Y48106D02*
G01X255906Y44874D01*
G01X259138Y48106D01*
G03X252673I-3232J-6768D01*
D02*
G37*
G36*
G01X253299Y231693D02*
G03X256299Y228693I3000J0D01*
G01X263386D01*
G03X266386Y231693I0J3000D01*
G01Y238779D01*
G03X263386Y241779I-3000J0D01*
G01X256299D01*
G03X253299Y238779I0J-3000D01*
G01Y231693D01*
D02*
G37*
G36*
G01X258119Y318265D02*
G03Y312916I5503J-2674D01*
G01X260794Y315591D01*
G01X258119Y318265D01*
D02*
G37*
G36*
G01X258319Y121526D02*
G03X266877Y121527I4280J-6782D01*
G02X266879Y122372I269J422D01*
G03X262954Y137165I-4280J6782D01*
G03X262243I-355J-8012D01*
G03X258318Y122372I355J-8012D01*
G02X258319Y121526I-267J-423D01*
D02*
G37*
G36*
G01Y153534D02*
G03X266877Y153535I4280J-6782D01*
G02X266879Y154379I269J422D01*
G03X258318I-4280J6782D01*
G02X258319Y153534I-267J-423D01*
D02*
G37*
G36*
G01X259441Y41339D02*
G01X262673Y38106D01*
G03Y44571I-6768J3232D01*
G01X259441Y41339D01*
D02*
G37*
G36*
G01X260948Y310088D02*
G03X266296I2674J5503D01*
G01X263622Y312762D01*
G01X260948Y310088D01*
D02*
G37*
G36*
G01Y321093D02*
G01X263622Y318419D01*
G01X266296Y321093D01*
G03X260948I-2674J-5503D01*
D02*
G37*
G36*
G01X266451Y315591D02*
G01X269125Y312916D01*
G03Y318265I-5503J2674D01*
G01X266451Y315591D01*
D02*
G37*
G36*
G01X268119Y278265D02*
G03Y272916I5503J-2674D01*
G01X270794Y275590D01*
G01X268119Y278265D01*
D02*
G37*
G36*
G01X270948Y270088D02*
G03X276296I2674J5503D01*
G01X273622Y272762D01*
G01X270948Y270088D01*
D02*
G37*
G36*
G01Y281093D02*
G01X273622Y278419D01*
G01X276296Y281093D01*
G03X270948I-2674J-5503D01*
D02*
G37*
G36*
G01X275434Y237208D02*
G03Y233264I4093J-1972D01*
G01X277406Y235236D01*
G01X275434Y237208D01*
D02*
G37*
G36*
G01X275504Y313032D02*
G03X281063Y307472I5559J0D01*
G01X286181D01*
G03X287323Y307591I-0J5560D01*
G03X291740Y313032I-1142J5441D01*
G01X291740Y318150D01*
G03X287323Y323590I-5559J0D01*
G03X286181Y323709I-1142J-5440D01*
G01X281063Y323709D01*
G03X275504Y318150I0J-5559D01*
G01Y313032D01*
D02*
G37*
G36*
G01X276450Y275590D02*
G01X279125Y272916D01*
G03Y278265I-5503J2674D01*
G01X276450Y275590D01*
D02*
G37*
G36*
G01X277556Y231143D02*
G03X281499I1972J4093D01*
G01X279528Y233115D01*
G01X277556Y231143D01*
D02*
G37*
G36*
G01Y239329D02*
G01X279528Y237357D01*
G01X281499Y239329D01*
G03X277556I-1972J-4093D01*
D02*
G37*
G36*
G01X279371Y200791D02*
G03Y196847I4093J-1972D01*
G01X281343Y198819D01*
G01X279371Y200791D01*
D02*
G37*
G36*
G01X281493Y194726D02*
G03X285436I1972J4093D01*
G01X283465Y196698D01*
G01X281493Y194726D01*
D02*
G37*
G36*
G01Y202912D02*
G01X283465Y200940D01*
G01X285436Y202912D01*
G03X281493I-1972J-4093D01*
D02*
G37*
G36*
G01X281649Y235236D02*
G01X283621Y233264D01*
G03Y237208I-4093J1972D01*
G01X281649Y235236D01*
D02*
G37*
G36*
G01X285586Y198819D02*
G01X287323Y197082D01*
G01X287558Y196847D01*
G03Y200791I-4093J1972D01*
G01X285586Y198819D01*
D02*
G37*
G36*
G01X287323Y280711D02*
G03Y270470I6299J-5121D01*
G03Y280711I6299J5121D01*
D02*
G37*
G36*
G01X293752Y121526D02*
G03X302310Y121527I4280J-6782D01*
G02X302312Y122372I269J422D01*
G03X298387Y137165I-4280J6782D01*
G03X297676I-355J-8012D01*
G03X293751Y122372I355J-8012D01*
G02X293752Y121526I-267J-423D01*
D02*
G37*
G36*
G01Y153534D02*
G03X302310Y153535I4280J-6782D01*
G02X302312Y154379I269J422D01*
G03X293751I-4280J6782D01*
G02X293752Y153534I-267J-423D01*
D02*
G37*
G36*
G01X296606Y195276D02*
G03X299606Y192276I3000J0D01*
G01X306693D01*
G03X309693Y195276I0J3000D01*
G01Y202362D01*
G03X306693Y205362I-3000J0D01*
G01X299606D01*
G03X296606Y202362I0J-3000D01*
G01Y195276D01*
D02*
G37*
%LPD*%
D18*
X218504Y41339D02*
D03*
X255906D02*
D03*
X78740D02*
D03*
X116142D02*
D03*
D29*
X90551Y198819D02*
D03*
X259842Y235236D02*
D03*
X303150Y198819D02*
D03*
X189961Y236221D02*
D03*
X232283Y198819D02*
D03*
X119095Y235236D02*
D03*
X161417Y198819D02*
D03*
X48228Y236221D02*
D03*
D30*
X70866Y198819D02*
D03*
X279528Y235236D02*
D03*
X283465Y198819D02*
D03*
X209646Y236221D02*
D03*
X212598Y198819D02*
D03*
X138779Y235236D02*
D03*
X141732Y198819D02*
D03*
X67913Y236221D02*
D03*
D31*
X51024Y315591D02*
D03*
X61024Y275590D02*
D03*
X81024D02*
D03*
X263622Y315591D02*
D03*
X273622Y275590D02*
D03*
X293622D02*
D03*
X192756Y315591D02*
D03*
X202756Y275590D02*
D03*
X222756D02*
D03*
X121890Y315591D02*
D03*
X131890Y275590D02*
D03*
X151890D02*
D03*
D32*
X71024Y315591D02*
D03*
X283622D02*
D03*
X212756D02*
D03*
X141890D02*
D03*
D33*
X85433Y114744D02*
D03*
Y129154D02*
D03*
Y161161D02*
D03*
Y146752D02*
D03*
X262598Y114744D02*
D03*
Y161161D02*
D03*
Y129154D02*
D03*
Y146752D02*
D03*
X298031Y114744D02*
D03*
Y161161D02*
D03*
Y129154D02*
D03*
Y146752D02*
D03*
X191732Y114744D02*
D03*
Y161161D02*
D03*
Y129154D02*
D03*
Y146752D02*
D03*
X227165Y114744D02*
D03*
Y129154D02*
D03*
Y161161D02*
D03*
Y146752D02*
D03*
X120866Y114744D02*
D03*
Y161161D02*
D03*
Y129154D02*
D03*
Y146752D02*
D03*
X156299Y114744D02*
D03*
Y161161D02*
D03*
Y129154D02*
D03*
Y146752D02*
D03*
X50000Y114744D02*
D03*
Y161161D02*
D03*
Y129154D02*
D03*
Y146752D02*
D03*
D34*
X179134Y57087D02*
D03*
M02*
