G04*
G04 #@! TF.GenerationSoftware,Altium Limited,Altium Designer,26.9.1 (10)*
G04*
G04 Layer_Color=32896*
G04 Board_Origin=74640005|44270005*
%FSLAX25Y25*%
%MOIN*%
G70*
G04*
G04 #@! TF.SameCoordinates,3E8CC08A-A5ED-43A6-9E81-9DF4D0A12131*
G04*
G04*
G04 #@! TF.FilePolarity,Positive*
G04*
G01*
G75*
%ADD12C,0.02000*%
%ADD32C,0.00591*%
G36*
X-74545Y22142D02*
Y26878D01*
X-73118D01*
X-73063Y26875D01*
X-73005D01*
X-72885Y26871D01*
X-72758Y26864D01*
X-72699Y26860D01*
X-72641Y26853D01*
X-72587Y26849D01*
X-72536Y26842D01*
X-72525D01*
X-72510Y26838D01*
X-72492Y26834D01*
X-72470Y26831D01*
X-72441Y26823D01*
X-72379Y26809D01*
X-72303Y26791D01*
X-72223Y26762D01*
X-72135Y26729D01*
X-72048Y26685D01*
X-72044D01*
X-72037Y26678D01*
X-72022Y26671D01*
X-72008Y26660D01*
X-71986Y26645D01*
X-71961Y26631D01*
X-71906Y26587D01*
X-71844Y26536D01*
X-71782Y26474D01*
X-71728Y26405D01*
X-71677Y26325D01*
Y26321D01*
X-71673Y26314D01*
X-71666Y26303D01*
X-71658Y26285D01*
X-71647Y26267D01*
X-71640Y26241D01*
X-71629Y26212D01*
X-71615Y26179D01*
X-71593Y26103D01*
X-71575Y26015D01*
X-71560Y25917D01*
X-71556Y25808D01*
Y25775D01*
X-71560Y25753D01*
Y25721D01*
X-71567Y25688D01*
X-71571Y25648D01*
X-71578Y25608D01*
X-71600Y25513D01*
X-71651Y25360D01*
X-71702Y25258D01*
X-71735Y25207D01*
X-71738Y25204D01*
X-71742Y25196D01*
X-71753Y25182D01*
X-71768Y25164D01*
X-71786Y25142D01*
X-71808Y25116D01*
X-71833Y25087D01*
X-71895Y25025D01*
X-71931Y24993D01*
X-72015Y24923D01*
X-72113Y24858D01*
X-72223Y24796D01*
Y24771D01*
X-72219D01*
X-72204Y24763D01*
X-72183Y24760D01*
X-72153Y24749D01*
X-72117Y24734D01*
X-72077Y24720D01*
X-71982Y24676D01*
X-71931Y24647D01*
X-71877Y24618D01*
X-71768Y24545D01*
X-71713Y24501D01*
X-71662Y24457D01*
X-71615Y24407D01*
X-71567Y24352D01*
X-71564Y24348D01*
X-71556Y24337D01*
X-71545Y24323D01*
X-71531Y24297D01*
X-71513Y24268D01*
X-71495Y24232D01*
X-71473Y24192D01*
X-71451Y24145D01*
X-71429Y24093D01*
X-71407Y24035D01*
X-71389Y23973D01*
X-71371Y23904D01*
X-71356Y23835D01*
X-71345Y23759D01*
X-71338Y23679D01*
X-71334Y23595D01*
Y23562D01*
X-71338Y23537D01*
Y23504D01*
X-71342Y23467D01*
X-71345Y23427D01*
X-71353Y23384D01*
X-71367Y23286D01*
X-71393Y23183D01*
X-71425Y23074D01*
X-71469Y22969D01*
Y22965D01*
X-71476Y22958D01*
X-71484Y22943D01*
X-71495Y22925D01*
X-71505Y22900D01*
X-71524Y22874D01*
X-71564Y22812D01*
X-71615Y22743D01*
X-71677Y22667D01*
X-71749Y22594D01*
X-71829Y22525D01*
X-71833Y22521D01*
X-71840Y22517D01*
X-71855Y22506D01*
X-71877Y22492D01*
X-71899Y22474D01*
X-71928Y22456D01*
X-72000Y22412D01*
X-72084Y22361D01*
X-72183Y22314D01*
X-72288Y22266D01*
X-72401Y22230D01*
X-72405D01*
X-72416Y22226D01*
X-72434Y22223D01*
X-72456Y22215D01*
X-72488Y22208D01*
X-72525Y22201D01*
X-72565Y22194D01*
X-72667Y22179D01*
X-72729Y22172D01*
X-72794Y22164D01*
X-72863Y22157D01*
X-72940Y22150D01*
X-73016Y22146D01*
X-73103Y22142D01*
X-74545D01*
D02*
G37*
%LPC*%
G36*
X-73915Y22681D02*
X-73304D01*
X-73260Y22685D01*
X-73169D01*
X-73063Y22689D01*
X-72954Y22696D01*
X-72849Y22707D01*
X-72801Y22710D01*
X-72754Y22718D01*
X-72750D01*
X-72743Y22721D01*
X-72732D01*
X-72714Y22725D01*
X-72692Y22728D01*
X-72670Y22736D01*
X-72612Y22750D01*
X-72546Y22772D01*
X-72477Y22801D01*
X-72405Y22834D01*
X-72335Y22878D01*
X-72332D01*
X-72328Y22885D01*
X-72306Y22900D01*
X-72273Y22925D01*
X-72237Y22962D01*
X-72193Y23001D01*
X-72150Y23053D01*
X-72110Y23103D01*
X-72073Y23162D01*
Y23165D01*
X-72070Y23169D01*
X-72059Y23191D01*
X-72048Y23224D01*
X-72030Y23271D01*
X-72015Y23329D01*
X-72004Y23398D01*
X-71993Y23478D01*
X-71990Y23569D01*
Y23613D01*
X-71993Y23635D01*
Y23664D01*
X-72000Y23722D01*
X-72008Y23791D01*
X-72022Y23864D01*
X-72041Y23937D01*
X-72066Y24006D01*
Y24010D01*
X-72070Y24013D01*
X-72081Y24035D01*
X-72102Y24068D01*
X-72132Y24108D01*
X-72175Y24155D01*
X-72230Y24203D01*
X-72295Y24254D01*
X-72332Y24279D01*
X-72383Y24305D01*
X-72401Y24316D01*
X-72434Y24327D01*
X-72474Y24345D01*
X-72521Y24363D01*
X-72576Y24377D01*
X-72637Y24392D01*
X-72703Y24403D01*
X-72710D01*
X-72721Y24407D01*
X-72736D01*
X-72754Y24410D01*
X-72776D01*
X-72801Y24414D01*
X-72830Y24418D01*
X-72863D01*
X-72903Y24421D01*
X-72943D01*
X-72987Y24425D01*
X-73034D01*
X-73089Y24428D01*
X-73915D01*
Y22681D01*
D02*
G37*
G36*
Y24953D02*
X-73100D01*
X-73038Y24956D01*
X-72965Y24960D01*
X-72896Y24963D01*
X-72827Y24971D01*
X-72798Y24978D01*
X-72769Y24982D01*
X-72761D01*
X-72743Y24989D01*
X-72714Y24996D01*
X-72678Y25007D01*
X-72634Y25025D01*
X-72587Y25047D01*
X-72532Y25073D01*
X-72477Y25105D01*
X-72470Y25109D01*
X-72456Y25124D01*
X-72430Y25142D01*
X-72397Y25171D01*
X-72364Y25207D01*
X-72332Y25247D01*
X-72299Y25295D01*
X-72273Y25349D01*
X-72270Y25357D01*
X-72263Y25375D01*
X-72255Y25408D01*
X-72241Y25451D01*
X-72230Y25506D01*
X-72223Y25568D01*
X-72215Y25637D01*
X-72212Y25717D01*
Y25746D01*
X-72215Y25779D01*
X-72219Y25819D01*
X-72226Y25863D01*
X-72237Y25914D01*
X-72252Y25964D01*
X-72270Y26012D01*
X-72281Y26034D01*
X-72295Y26055D01*
X-72314Y26085D01*
X-72339Y26117D01*
X-72372Y26150D01*
X-72412Y26183D01*
X-72456Y26212D01*
X-72463Y26216D01*
X-72481Y26227D01*
X-72514Y26241D01*
X-72554Y26259D01*
X-72605Y26278D01*
X-72663Y26292D01*
X-72729Y26307D01*
X-72798Y26318D01*
X-72805D01*
X-72816Y26321D01*
X-72852D01*
X-72874Y26325D01*
X-72900D01*
X-72965Y26332D01*
X-73005D01*
X-73049Y26336D01*
X-73144D01*
X-73198Y26339D01*
X-73915D01*
Y24953D01*
D02*
G37*
%LPD*%
G36*
X-71003Y23759D02*
X-71007Y23915D01*
Y23977D01*
X-71003Y24002D01*
Y24028D01*
X-70999Y24061D01*
X-70992Y24137D01*
X-70985Y24225D01*
X-70970Y24319D01*
X-70952Y24421D01*
X-70930Y24530D01*
X-70901Y24643D01*
X-70865Y24760D01*
X-70821Y24876D01*
X-70774Y24989D01*
X-70716Y25098D01*
X-70646Y25204D01*
X-70570Y25298D01*
X-70566Y25306D01*
X-70548Y25320D01*
X-70526Y25346D01*
X-70490Y25375D01*
X-70446Y25415D01*
X-70395Y25455D01*
X-70333Y25499D01*
X-70261Y25546D01*
X-70184Y25593D01*
X-70097Y25637D01*
X-70002Y25677D01*
X-69900Y25717D01*
X-69791Y25746D01*
X-69675Y25772D01*
X-69551Y25790D01*
X-69420Y25793D01*
X-69387D01*
X-69351Y25790D01*
X-69300Y25786D01*
X-69241Y25779D01*
X-69169Y25768D01*
X-69092Y25753D01*
X-69008Y25732D01*
X-68917Y25706D01*
X-68823Y25673D01*
X-68728Y25633D01*
X-68634Y25586D01*
X-68535Y25531D01*
X-68444Y25466D01*
X-68353Y25389D01*
X-68269Y25302D01*
X-68266Y25295D01*
X-68251Y25280D01*
X-68230Y25251D01*
X-68200Y25211D01*
X-68168Y25160D01*
X-68131Y25098D01*
X-68095Y25029D01*
X-68051Y24945D01*
X-68011Y24851D01*
X-67975Y24749D01*
X-67938Y24632D01*
X-67905Y24509D01*
X-67876Y24377D01*
X-67855Y24232D01*
X-67840Y24079D01*
X-67836Y23915D01*
Y23853D01*
X-67840Y23828D01*
Y23799D01*
X-67844Y23770D01*
X-67851Y23693D01*
X-67858Y23606D01*
X-67873Y23511D01*
X-67891Y23406D01*
X-67913Y23296D01*
X-67942Y23183D01*
X-67978Y23071D01*
X-68018Y22954D01*
X-68069Y22841D01*
X-68128Y22732D01*
X-68193Y22627D01*
X-68269Y22532D01*
X-68273Y22528D01*
X-68288Y22510D01*
X-68313Y22488D01*
X-68350Y22456D01*
X-68393Y22419D01*
X-68444Y22379D01*
X-68506Y22335D01*
X-68575Y22288D01*
X-68655Y22244D01*
X-68739Y22197D01*
X-68834Y22157D01*
X-68936Y22121D01*
X-69049Y22088D01*
X-69165Y22066D01*
X-69289Y22051D01*
X-69420Y22044D01*
X-69453D01*
X-69489Y22048D01*
X-69543Y22051D01*
X-69605Y22059D01*
X-69675Y22070D01*
X-69755Y22088D01*
X-69842Y22106D01*
X-69933Y22135D01*
X-70028Y22168D01*
X-70126Y22208D01*
X-70224Y22255D01*
X-70319Y22314D01*
X-70414Y22379D01*
X-70501Y22459D01*
X-70585Y22546D01*
X-70588Y22554D01*
X-70603Y22568D01*
X-70625Y22598D01*
X-70650Y22637D01*
X-70683Y22689D01*
X-70719Y22750D01*
X-70756Y22823D01*
X-70796Y22907D01*
X-70836Y22998D01*
X-70872Y23100D01*
X-70908Y23213D01*
X-70941Y23336D01*
X-70967Y23467D01*
X-70989Y23609D01*
X-71003Y23759D01*
D02*
G37*
%LPC*%
G36*
X-70392Y23853D02*
X-70388Y23806D01*
X-70384Y23751D01*
X-70377Y23686D01*
X-70370Y23617D01*
X-70359Y23540D01*
X-70348Y23460D01*
X-70312Y23293D01*
X-70286Y23209D01*
X-70257Y23125D01*
X-70224Y23045D01*
X-70184Y22972D01*
X-70140Y22903D01*
X-70137Y22900D01*
X-70130Y22889D01*
X-70115Y22871D01*
X-70068Y22823D01*
X-70035Y22794D01*
X-69999Y22765D01*
X-69955Y22732D01*
X-69907Y22699D01*
X-69853Y22670D01*
X-69795Y22641D01*
X-69729Y22616D01*
X-69660Y22594D01*
X-69587Y22576D01*
X-69503Y22565D01*
X-69420Y22561D01*
X-69398D01*
X-69376Y22565D01*
X-69343D01*
X-69303Y22572D01*
X-69260Y22579D01*
X-69212Y22590D01*
X-69158Y22605D01*
X-69099Y22619D01*
X-69041Y22641D01*
X-68983Y22670D01*
X-68925Y22703D01*
X-68866Y22739D01*
X-68808Y22787D01*
X-68757Y22838D01*
X-68706Y22896D01*
X-68703Y22900D01*
X-68695Y22910D01*
X-68685Y22932D01*
X-68666Y22958D01*
X-68626Y23038D01*
X-68601Y23092D01*
X-68579Y23151D01*
X-68553Y23216D01*
X-68532Y23293D01*
X-68510Y23376D01*
X-68492Y23467D01*
X-68473Y23569D01*
X-68462Y23675D01*
X-68455Y23791D01*
X-68451Y23915D01*
Y23981D01*
X-68455Y24028D01*
X-68459Y24086D01*
X-68466Y24152D01*
X-68473Y24225D01*
X-68484Y24301D01*
X-68495Y24385D01*
X-68513Y24468D01*
X-68557Y24636D01*
X-68590Y24720D01*
X-68623Y24800D01*
X-68663Y24872D01*
X-68706Y24938D01*
X-68710Y24942D01*
X-68717Y24953D01*
X-68732Y24971D01*
X-68779Y25018D01*
X-68808Y25044D01*
X-68888Y25109D01*
X-68939Y25138D01*
X-68990Y25171D01*
X-69049Y25196D01*
X-69114Y25226D01*
X-69183Y25244D01*
X-69256Y25262D01*
X-69336Y25273D01*
X-69420Y25276D01*
X-69442D01*
X-69463Y25273D01*
X-69496D01*
X-69536Y25266D01*
X-69580Y25258D01*
X-69631Y25247D01*
X-69686Y25233D01*
X-69744Y25215D01*
X-69802Y25193D01*
X-69860Y25167D01*
X-69922Y25135D01*
X-69980Y25095D01*
X-70039Y25051D01*
X-70090Y24996D01*
X-70140Y24938D01*
X-70144Y24934D01*
X-70151Y24923D01*
X-70162Y24902D01*
X-70180Y24876D01*
X-70221Y24796D01*
X-70242Y24745D01*
X-70264Y24683D01*
X-70290Y24618D01*
X-70312Y24541D01*
X-70333Y24457D01*
X-70352Y24366D01*
X-70370Y24265D01*
X-70381Y24155D01*
X-70388Y24039D01*
X-70392Y23915D01*
Y23853D01*
D02*
G37*
%LPD*%
G36*
X-67589Y25200D02*
Y25695D01*
X-67185D01*
Y26714D01*
X-66588D01*
Y25695D01*
X-65489D01*
Y25200D01*
X-66588D01*
Y23355D01*
X-66584Y23286D01*
Y23147D01*
X-66581Y23089D01*
Y23082D01*
X-66577Y23063D01*
X-66573Y23038D01*
X-66566Y23001D01*
X-66559Y22958D01*
X-66544Y22914D01*
X-66530Y22863D01*
X-66508Y22816D01*
X-66504Y22812D01*
X-66497Y22798D01*
X-66482Y22776D01*
X-66464Y22754D01*
X-66442Y22725D01*
X-66409Y22699D01*
X-66377Y22670D01*
X-66326Y22645D01*
X-66311Y22641D01*
X-66286Y22630D01*
X-66246Y22623D01*
X-66198Y22612D01*
X-66144Y22601D01*
X-66078Y22598D01*
X-66005Y22594D01*
X-65980D01*
X-65951Y22598D01*
X-65914D01*
X-65874Y22605D01*
X-65827Y22612D01*
X-65776Y22619D01*
X-65725Y22634D01*
X-65718Y22637D01*
X-65703Y22641D01*
X-65678Y22648D01*
X-65649Y22659D01*
X-65583Y22685D01*
X-65550Y22696D01*
X-65525Y22707D01*
X-65489D01*
Y22172D01*
X-65496D01*
X-65518Y22164D01*
X-65550Y22157D01*
X-65594Y22146D01*
X-65649Y22135D01*
X-65707Y22124D01*
X-65769Y22113D01*
X-65834Y22102D01*
X-65842D01*
X-65864Y22099D01*
X-65896Y22095D01*
X-65936Y22088D01*
X-65987Y22084D01*
X-66038Y22077D01*
X-66151Y22073D01*
X-66173D01*
X-66198Y22077D01*
X-66231D01*
X-66271Y22081D01*
X-66319Y22088D01*
X-66373Y22095D01*
X-66428Y22110D01*
X-66490Y22124D01*
X-66551Y22142D01*
X-66613Y22164D01*
X-66679Y22190D01*
X-66741Y22223D01*
X-66799Y22259D01*
X-66857Y22303D01*
X-66912Y22350D01*
X-66915Y22354D01*
X-66923Y22365D01*
X-66937Y22379D01*
X-66956Y22405D01*
X-66974Y22434D01*
X-66999Y22470D01*
X-67046Y22565D01*
X-67072Y22623D01*
X-67097Y22689D01*
X-67123Y22758D01*
X-67141Y22838D01*
X-67159Y22925D01*
X-67174Y23020D01*
X-67181Y23122D01*
X-67185Y23231D01*
Y25200D01*
X-67589D01*
D02*
G37*
G36*
X-65412D02*
Y25695D01*
X-65008D01*
Y26714D01*
X-64411D01*
Y25695D01*
X-63312D01*
Y25200D01*
X-64411D01*
Y23355D01*
X-64407Y23286D01*
Y23147D01*
X-64404Y23089D01*
Y23082D01*
X-64400Y23063D01*
X-64397Y23038D01*
X-64389Y23001D01*
X-64382Y22958D01*
X-64367Y22914D01*
X-64353Y22863D01*
X-64331Y22816D01*
X-64327Y22812D01*
X-64320Y22798D01*
X-64306Y22776D01*
X-64287Y22754D01*
X-64266Y22725D01*
X-64233Y22699D01*
X-64200Y22670D01*
X-64149Y22645D01*
X-64135Y22641D01*
X-64109Y22630D01*
X-64069Y22623D01*
X-64022Y22612D01*
X-63967Y22601D01*
X-63902Y22598D01*
X-63829Y22594D01*
X-63803D01*
X-63774Y22598D01*
X-63738D01*
X-63698Y22605D01*
X-63650Y22612D01*
X-63599Y22619D01*
X-63548Y22634D01*
X-63541Y22637D01*
X-63527Y22641D01*
X-63501Y22648D01*
X-63472Y22659D01*
X-63406Y22685D01*
X-63374Y22696D01*
X-63348Y22707D01*
X-63312D01*
Y22172D01*
X-63319D01*
X-63341Y22164D01*
X-63374Y22157D01*
X-63417Y22146D01*
X-63472Y22135D01*
X-63530Y22124D01*
X-63592Y22113D01*
X-63658Y22102D01*
X-63665D01*
X-63687Y22099D01*
X-63719Y22095D01*
X-63760Y22088D01*
X-63810Y22084D01*
X-63862Y22077D01*
X-63974Y22073D01*
X-63996D01*
X-64022Y22077D01*
X-64054D01*
X-64094Y22081D01*
X-64142Y22088D01*
X-64196Y22095D01*
X-64251Y22110D01*
X-64313Y22124D01*
X-64375Y22142D01*
X-64437Y22164D01*
X-64502Y22190D01*
X-64564Y22223D01*
X-64622Y22259D01*
X-64680Y22303D01*
X-64735Y22350D01*
X-64739Y22354D01*
X-64746Y22365D01*
X-64761Y22379D01*
X-64779Y22405D01*
X-64797Y22434D01*
X-64822Y22470D01*
X-64870Y22565D01*
X-64895Y22623D01*
X-64921Y22689D01*
X-64946Y22758D01*
X-64964Y22838D01*
X-64983Y22925D01*
X-64997Y23020D01*
X-65004Y23122D01*
X-65008Y23231D01*
Y25200D01*
X-65412D01*
D02*
G37*
G36*
X-63115Y23759D02*
X-63119Y23915D01*
Y23977D01*
X-63115Y24002D01*
Y24028D01*
X-63112Y24061D01*
X-63104Y24137D01*
X-63097Y24225D01*
X-63082Y24319D01*
X-63064Y24421D01*
X-63042Y24530D01*
X-63013Y24643D01*
X-62977Y24760D01*
X-62933Y24876D01*
X-62886Y24989D01*
X-62828Y25098D01*
X-62759Y25204D01*
X-62682Y25298D01*
X-62678Y25306D01*
X-62660Y25320D01*
X-62638Y25346D01*
X-62602Y25375D01*
X-62558Y25415D01*
X-62507Y25455D01*
X-62445Y25499D01*
X-62373Y25546D01*
X-62296Y25593D01*
X-62209Y25637D01*
X-62114Y25677D01*
X-62012Y25717D01*
X-61903Y25746D01*
X-61787Y25772D01*
X-61663Y25790D01*
X-61532Y25793D01*
X-61499D01*
X-61463Y25790D01*
X-61412Y25786D01*
X-61353Y25779D01*
X-61281Y25768D01*
X-61204Y25753D01*
X-61121Y25732D01*
X-61030Y25706D01*
X-60935Y25673D01*
X-60840Y25633D01*
X-60746Y25586D01*
X-60647Y25531D01*
X-60556Y25466D01*
X-60465Y25389D01*
X-60382Y25302D01*
X-60378Y25295D01*
X-60363Y25280D01*
X-60342Y25251D01*
X-60312Y25211D01*
X-60280Y25160D01*
X-60243Y25098D01*
X-60207Y25029D01*
X-60163Y24945D01*
X-60123Y24851D01*
X-60087Y24749D01*
X-60050Y24632D01*
X-60018Y24509D01*
X-59988Y24377D01*
X-59967Y24232D01*
X-59952Y24079D01*
X-59948Y23915D01*
Y23853D01*
X-59952Y23828D01*
Y23799D01*
X-59956Y23770D01*
X-59963Y23693D01*
X-59970Y23606D01*
X-59985Y23511D01*
X-60003Y23406D01*
X-60025Y23296D01*
X-60054Y23183D01*
X-60090Y23071D01*
X-60131Y22954D01*
X-60181Y22841D01*
X-60240Y22732D01*
X-60305Y22627D01*
X-60382Y22532D01*
X-60385Y22528D01*
X-60400Y22510D01*
X-60425Y22488D01*
X-60462Y22456D01*
X-60505Y22419D01*
X-60556Y22379D01*
X-60618Y22335D01*
X-60687Y22288D01*
X-60768Y22244D01*
X-60851Y22197D01*
X-60946Y22157D01*
X-61048Y22121D01*
X-61161Y22088D01*
X-61277Y22066D01*
X-61401Y22051D01*
X-61532Y22044D01*
X-61565D01*
X-61601Y22048D01*
X-61656Y22051D01*
X-61717Y22059D01*
X-61787Y22070D01*
X-61867Y22088D01*
X-61954Y22106D01*
X-62045Y22135D01*
X-62140Y22168D01*
X-62238Y22208D01*
X-62336Y22255D01*
X-62431Y22314D01*
X-62526Y22379D01*
X-62613Y22459D01*
X-62697Y22546D01*
X-62700Y22554D01*
X-62715Y22568D01*
X-62737Y22598D01*
X-62762Y22637D01*
X-62795Y22689D01*
X-62831Y22750D01*
X-62868Y22823D01*
X-62908Y22907D01*
X-62948Y22998D01*
X-62984Y23100D01*
X-63021Y23213D01*
X-63053Y23336D01*
X-63079Y23467D01*
X-63101Y23609D01*
X-63115Y23759D01*
D02*
G37*
%LPC*%
G36*
X-62504Y23853D02*
X-62500Y23806D01*
X-62497Y23751D01*
X-62489Y23686D01*
X-62482Y23617D01*
X-62471Y23540D01*
X-62460Y23460D01*
X-62424Y23293D01*
X-62398Y23209D01*
X-62369Y23125D01*
X-62336Y23045D01*
X-62296Y22972D01*
X-62253Y22903D01*
X-62249Y22900D01*
X-62242Y22889D01*
X-62227Y22871D01*
X-62180Y22823D01*
X-62147Y22794D01*
X-62111Y22765D01*
X-62067Y22732D01*
X-62020Y22699D01*
X-61965Y22670D01*
X-61907Y22641D01*
X-61841Y22616D01*
X-61772Y22594D01*
X-61699Y22576D01*
X-61616Y22565D01*
X-61532Y22561D01*
X-61510D01*
X-61488Y22565D01*
X-61455D01*
X-61415Y22572D01*
X-61372Y22579D01*
X-61324Y22590D01*
X-61270Y22605D01*
X-61212Y22619D01*
X-61153Y22641D01*
X-61095Y22670D01*
X-61037Y22703D01*
X-60979Y22739D01*
X-60920Y22787D01*
X-60869Y22838D01*
X-60818Y22896D01*
X-60815Y22900D01*
X-60808Y22910D01*
X-60797Y22932D01*
X-60778Y22958D01*
X-60738Y23038D01*
X-60713Y23092D01*
X-60691Y23151D01*
X-60666Y23216D01*
X-60644Y23293D01*
X-60622Y23376D01*
X-60604Y23467D01*
X-60585Y23569D01*
X-60575Y23675D01*
X-60567Y23791D01*
X-60564Y23915D01*
Y23981D01*
X-60567Y24028D01*
X-60571Y24086D01*
X-60578Y24152D01*
X-60585Y24225D01*
X-60596Y24301D01*
X-60607Y24385D01*
X-60625Y24468D01*
X-60669Y24636D01*
X-60702Y24720D01*
X-60735Y24800D01*
X-60775Y24872D01*
X-60818Y24938D01*
X-60822Y24942D01*
X-60829Y24953D01*
X-60844Y24971D01*
X-60891Y25018D01*
X-60920Y25044D01*
X-61000Y25109D01*
X-61051Y25138D01*
X-61102Y25171D01*
X-61161Y25196D01*
X-61226Y25226D01*
X-61295Y25244D01*
X-61368Y25262D01*
X-61448Y25273D01*
X-61532Y25276D01*
X-61554D01*
X-61576Y25273D01*
X-61608D01*
X-61648Y25266D01*
X-61692Y25258D01*
X-61743Y25247D01*
X-61798Y25233D01*
X-61856Y25215D01*
X-61914Y25193D01*
X-61972Y25167D01*
X-62034Y25135D01*
X-62092Y25095D01*
X-62151Y25051D01*
X-62202Y24996D01*
X-62253Y24938D01*
X-62256Y24934D01*
X-62264Y24923D01*
X-62274Y24902D01*
X-62293Y24876D01*
X-62333Y24796D01*
X-62354Y24745D01*
X-62376Y24683D01*
X-62402Y24618D01*
X-62424Y24541D01*
X-62445Y24457D01*
X-62464Y24366D01*
X-62482Y24265D01*
X-62493Y24155D01*
X-62500Y24039D01*
X-62504Y23915D01*
Y23853D01*
D02*
G37*
%LPD*%
G36*
X-59337Y22142D02*
Y25695D01*
X-58740D01*
Y25298D01*
X-58700Y25338D01*
X-58678Y25357D01*
X-58653Y25379D01*
X-58594Y25433D01*
X-58525Y25491D01*
X-58445Y25553D01*
X-58365Y25611D01*
X-58278Y25662D01*
X-58274D01*
X-58267Y25670D01*
X-58256Y25673D01*
X-58238Y25684D01*
X-58216Y25692D01*
X-58190Y25702D01*
X-58161Y25717D01*
X-58125Y25728D01*
X-58052Y25753D01*
X-57965Y25772D01*
X-57870Y25786D01*
X-57768Y25793D01*
X-57739D01*
X-57714Y25790D01*
X-57688D01*
X-57655Y25786D01*
X-57619Y25782D01*
X-57582Y25775D01*
X-57495Y25757D01*
X-57401Y25732D01*
X-57306Y25695D01*
X-57211Y25648D01*
X-57208D01*
X-57200Y25640D01*
X-57189Y25633D01*
X-57171Y25622D01*
X-57127Y25586D01*
X-57102Y25564D01*
X-57044Y25506D01*
X-57015Y25469D01*
X-56982Y25433D01*
X-56953Y25389D01*
X-56920Y25342D01*
X-56891Y25291D01*
X-56865Y25236D01*
X-56840Y25178D01*
X-56836Y25182D01*
X-56829Y25193D01*
X-56793Y25229D01*
X-56771Y25255D01*
X-56742Y25284D01*
X-56709Y25313D01*
X-56673Y25349D01*
X-56592Y25422D01*
X-56505Y25499D01*
X-56410Y25571D01*
X-56312Y25637D01*
X-56309Y25640D01*
X-56287Y25651D01*
X-56268Y25662D01*
X-56243Y25673D01*
X-56214Y25688D01*
X-56181Y25702D01*
X-56145Y25717D01*
X-56061Y25743D01*
X-55966Y25768D01*
X-55861Y25786D01*
X-55806Y25793D01*
X-55712D01*
X-55693Y25790D01*
X-55668D01*
X-55613Y25786D01*
X-55548Y25775D01*
X-55479Y25764D01*
X-55409Y25746D01*
X-55337Y25721D01*
X-55333D01*
X-55329Y25717D01*
X-55318Y25713D01*
X-55304Y25706D01*
X-55271Y25688D01*
X-55224Y25666D01*
X-55173Y25633D01*
X-55118Y25593D01*
X-55064Y25546D01*
X-55002Y25484D01*
X-54984Y25462D01*
X-54958Y25426D01*
X-54925Y25379D01*
X-54889Y25320D01*
X-54852Y25251D01*
X-54820Y25171D01*
X-54787Y25084D01*
Y25080D01*
X-54783Y25073D01*
X-54780Y25058D01*
X-54776Y25040D01*
X-54769Y25018D01*
X-54761Y24989D01*
X-54754Y24956D01*
X-54747Y24920D01*
X-54732Y24833D01*
X-54725Y24781D01*
X-54718Y24727D01*
X-54711Y24610D01*
X-54707Y24479D01*
Y22142D01*
X-55304D01*
Y24283D01*
X-55308Y24345D01*
Y24414D01*
X-55311Y24490D01*
X-55326Y24647D01*
Y24658D01*
X-55329Y24669D01*
Y24683D01*
X-55333Y24720D01*
X-55344Y24767D01*
X-55355Y24818D01*
X-55366Y24872D01*
X-55384Y24927D01*
X-55406Y24974D01*
X-55417Y24996D01*
X-55431Y25018D01*
X-55453Y25047D01*
X-55479Y25076D01*
X-55508Y25109D01*
X-55544Y25138D01*
X-55588Y25164D01*
X-55591Y25167D01*
X-55610Y25175D01*
X-55635Y25182D01*
X-55672Y25196D01*
X-55715Y25207D01*
X-55770Y25215D01*
X-55832Y25222D01*
X-55904Y25226D01*
X-55937D01*
X-55974Y25218D01*
X-56025Y25211D01*
X-56083Y25196D01*
X-56148Y25178D01*
X-56225Y25149D01*
X-56301Y25109D01*
X-56305D01*
X-56312Y25105D01*
X-56323Y25098D01*
X-56338Y25087D01*
X-56356Y25076D01*
X-56381Y25062D01*
X-56501Y24982D01*
X-56574Y24923D01*
X-56654Y24862D01*
X-56738Y24785D01*
Y24763D01*
X-56734Y24749D01*
Y24709D01*
X-56731Y24654D01*
Y24640D01*
X-56727Y24625D01*
Y24581D01*
X-56723Y24548D01*
Y22142D01*
X-57320D01*
Y24283D01*
X-57324Y24345D01*
Y24414D01*
X-57328Y24490D01*
X-57342Y24647D01*
Y24658D01*
X-57346Y24669D01*
Y24683D01*
X-57349Y24720D01*
X-57360Y24767D01*
X-57371Y24818D01*
X-57382Y24872D01*
X-57401Y24927D01*
X-57422Y24974D01*
X-57433Y24996D01*
X-57448Y25018D01*
X-57470Y25047D01*
X-57495Y25076D01*
X-57524Y25109D01*
X-57561Y25138D01*
X-57604Y25164D01*
X-57608Y25167D01*
X-57626Y25175D01*
X-57652Y25182D01*
X-57688Y25196D01*
X-57732Y25207D01*
X-57786Y25215D01*
X-57848Y25222D01*
X-57921Y25226D01*
X-57954D01*
X-57994Y25218D01*
X-58045Y25211D01*
X-58107Y25196D01*
X-58176Y25175D01*
X-58249Y25142D01*
X-58329Y25102D01*
X-58332D01*
X-58340Y25098D01*
X-58350Y25091D01*
X-58365Y25080D01*
X-58383Y25069D01*
X-58460Y25018D01*
X-58522Y24974D01*
X-58591Y24920D01*
X-58664Y24862D01*
X-58740Y24792D01*
Y22142D01*
X-59337D01*
D02*
G37*
G36*
X-52039Y24195D02*
X-52053Y24399D01*
Y24567D01*
X-52050Y24610D01*
Y24661D01*
X-52046Y24720D01*
X-52042Y24789D01*
X-52028Y24942D01*
X-52017Y25025D01*
X-51991Y25204D01*
X-51955Y25382D01*
X-51908Y25557D01*
X-51904Y25561D01*
X-51900Y25579D01*
X-51893Y25600D01*
X-51879Y25633D01*
X-51864Y25673D01*
X-51846Y25717D01*
X-51824Y25768D01*
X-51798Y25822D01*
X-51769Y25881D01*
X-51740Y25946D01*
X-51667Y26074D01*
X-51580Y26205D01*
X-51486Y26332D01*
X-51482Y26336D01*
X-51475Y26347D01*
X-51456Y26361D01*
X-51438Y26383D01*
X-51380Y26441D01*
X-51344Y26474D01*
X-51300Y26511D01*
X-51256Y26550D01*
X-51205Y26587D01*
X-51151Y26627D01*
X-51092Y26667D01*
X-50965Y26744D01*
X-50827Y26813D01*
X-50823Y26816D01*
X-50808Y26820D01*
X-50787Y26827D01*
X-50757Y26838D01*
X-50721Y26849D01*
X-50681Y26864D01*
X-50630Y26878D01*
X-50576Y26896D01*
X-50514Y26911D01*
X-50448Y26926D01*
X-50375Y26940D01*
X-50299Y26951D01*
X-50219Y26962D01*
X-50139Y26969D01*
X-50051Y26976D01*
X-49917D01*
X-49884Y26973D01*
X-49840D01*
X-49789Y26969D01*
X-49735Y26962D01*
X-49673Y26955D01*
X-49607Y26947D01*
X-49538Y26936D01*
X-49393Y26904D01*
X-49243Y26864D01*
X-49167Y26834D01*
X-49094Y26805D01*
X-49090Y26802D01*
X-49076Y26798D01*
X-49058Y26787D01*
X-49029Y26776D01*
X-48996Y26758D01*
X-48956Y26736D01*
X-48912Y26711D01*
X-48865Y26685D01*
X-48763Y26616D01*
X-48654Y26536D01*
X-48544Y26441D01*
X-48439Y26332D01*
X-48435Y26329D01*
X-48428Y26318D01*
X-48413Y26299D01*
X-48395Y26278D01*
X-48373Y26245D01*
X-48344Y26208D01*
X-48315Y26165D01*
X-48286Y26117D01*
X-48253Y26063D01*
X-48217Y26004D01*
X-48184Y25943D01*
X-48148Y25874D01*
X-48115Y25801D01*
X-48082Y25724D01*
X-48049Y25640D01*
X-48020Y25557D01*
X-48017Y25553D01*
X-48013Y25535D01*
X-48006Y25510D01*
X-47995Y25477D01*
X-47984Y25433D01*
X-47973Y25382D01*
X-47958Y25320D01*
X-47944Y25255D01*
X-47929Y25178D01*
X-47915Y25098D01*
X-47904Y25014D01*
X-47882Y24825D01*
X-47875Y24723D01*
X-47867Y24618D01*
Y24454D01*
X-47871Y24410D01*
Y24359D01*
X-47875Y24301D01*
X-47878Y24236D01*
X-47886Y24163D01*
X-47893Y24083D01*
X-47904Y23999D01*
X-47929Y23824D01*
X-47966Y23642D01*
X-48017Y23464D01*
Y23460D01*
X-48024Y23442D01*
X-48042Y23387D01*
X-48060Y23347D01*
X-48078Y23300D01*
X-48100Y23249D01*
X-48122Y23194D01*
X-48151Y23133D01*
X-48184Y23071D01*
X-48257Y22943D01*
X-48340Y22812D01*
X-48439Y22689D01*
X-48453Y22674D01*
X-48468Y22656D01*
X-48490Y22634D01*
X-48519Y22608D01*
X-48588Y22539D01*
X-48632Y22503D01*
X-48679Y22463D01*
X-48730Y22423D01*
X-48785Y22383D01*
X-48843Y22343D01*
X-48974Y22266D01*
X-49039Y22233D01*
X-49112Y22201D01*
X-49116D01*
X-49130Y22194D01*
X-49152Y22186D01*
X-49181Y22175D01*
X-49258Y22150D01*
X-49309Y22139D01*
X-49363Y22124D01*
X-49425Y22110D01*
X-49491Y22095D01*
X-49560Y22081D01*
X-49633Y22070D01*
X-49713Y22059D01*
X-49793Y22051D01*
X-49877Y22048D01*
X-49964Y22044D01*
X-50011D01*
X-50044Y22048D01*
X-50088D01*
X-50135Y22051D01*
X-50252Y22066D01*
X-50317Y22073D01*
X-50386Y22084D01*
X-50532Y22113D01*
X-50681Y22153D01*
X-50757Y22175D01*
X-50830Y22204D01*
X-50834Y22208D01*
X-50849Y22212D01*
X-50867Y22223D01*
X-50896Y22233D01*
X-50929Y22252D01*
X-50965Y22274D01*
X-51009Y22299D01*
X-51056Y22328D01*
X-51107Y22357D01*
X-51158Y22394D01*
X-51213Y22434D01*
X-51271Y22477D01*
X-51325Y22525D01*
X-51380Y22576D01*
X-51434Y22630D01*
X-51489Y22689D01*
X-51493Y22692D01*
X-51500Y22703D01*
X-51515Y22721D01*
X-51533Y22743D01*
X-51558Y22776D01*
X-51584Y22812D01*
X-51613Y22856D01*
X-51642Y22903D01*
X-51678Y22958D01*
X-51711Y23016D01*
X-51748Y23078D01*
X-51780Y23147D01*
X-51817Y23220D01*
X-51850Y23296D01*
X-51908Y23464D01*
Y23467D01*
X-51915Y23486D01*
X-51922Y23511D01*
X-51930Y23544D01*
X-51941Y23588D01*
X-51955Y23642D01*
X-51966Y23700D01*
X-51981Y23770D01*
X-51995Y23842D01*
X-52006Y23923D01*
X-52021Y24010D01*
X-52031Y24101D01*
X-52039Y24195D01*
D02*
G37*
%LPC*%
G36*
X-51398Y24447D02*
X-51394Y24418D01*
Y24388D01*
X-51391Y24356D01*
X-51387Y24275D01*
X-51376Y24188D01*
X-51365Y24086D01*
X-51351Y23981D01*
X-51329Y23864D01*
X-51303Y23748D01*
X-51271Y23628D01*
X-51234Y23511D01*
X-51191Y23395D01*
X-51136Y23282D01*
X-51078Y23176D01*
X-51009Y23078D01*
X-51005Y23074D01*
X-50990Y23056D01*
X-50899Y22965D01*
X-50852Y22921D01*
X-50794Y22878D01*
X-50732Y22834D01*
X-50659Y22787D01*
X-50583Y22743D01*
X-50495Y22699D01*
X-50401Y22663D01*
X-50302Y22630D01*
X-50193Y22608D01*
X-50080Y22594D01*
X-49960Y22587D01*
X-49931D01*
X-49898Y22590D01*
X-49851Y22594D01*
X-49797Y22601D01*
X-49731Y22612D01*
X-49658Y22627D01*
X-49582Y22648D01*
X-49502Y22674D01*
X-49414Y22707D01*
X-49327Y22747D01*
X-49240Y22794D01*
X-49152Y22849D01*
X-49068Y22914D01*
X-48988Y22991D01*
X-48912Y23078D01*
X-48908Y23085D01*
X-48894Y23100D01*
X-48876Y23129D01*
X-48850Y23169D01*
X-48821Y23220D01*
X-48752Y23358D01*
X-48715Y23442D01*
X-48679Y23537D01*
X-48646Y23646D01*
X-48614Y23762D01*
X-48584Y23890D01*
X-48559Y24028D01*
X-48541Y24177D01*
X-48526Y24337D01*
X-48522Y24509D01*
Y24589D01*
X-48526Y24629D01*
Y24676D01*
X-48530Y24731D01*
X-48533Y24789D01*
X-48541Y24851D01*
X-48548Y24916D01*
X-48566Y25058D01*
X-48592Y25200D01*
X-48624Y25338D01*
Y25342D01*
X-48635Y25375D01*
X-48643Y25400D01*
X-48654Y25429D01*
X-48668Y25466D01*
X-48683Y25506D01*
X-48697Y25550D01*
X-48741Y25648D01*
X-48788Y25746D01*
X-48847Y25848D01*
X-48912Y25943D01*
X-48916Y25946D01*
X-48919Y25954D01*
X-48930Y25964D01*
X-48945Y25983D01*
X-48963Y26004D01*
X-49039Y26081D01*
X-49105Y26139D01*
X-49181Y26201D01*
X-49269Y26259D01*
X-49363Y26310D01*
X-49367D01*
X-49389Y26321D01*
X-49411Y26329D01*
X-49436Y26339D01*
X-49465Y26350D01*
X-49498Y26361D01*
X-49578Y26383D01*
X-49625Y26394D01*
X-49727Y26416D01*
X-49840Y26430D01*
X-49960Y26434D01*
X-50019D01*
X-50048Y26430D01*
X-50080Y26427D01*
X-50121Y26423D01*
X-50164Y26419D01*
X-50259Y26405D01*
X-50357Y26383D01*
X-50459Y26354D01*
X-50561Y26314D01*
X-50565D01*
X-50572Y26307D01*
X-50586Y26303D01*
X-50605Y26292D01*
X-50626Y26278D01*
X-50652Y26263D01*
X-50714Y26223D01*
X-50783Y26172D01*
X-50859Y26107D01*
X-50936Y26030D01*
X-51012Y25943D01*
X-51016Y25939D01*
X-51020Y25932D01*
X-51030Y25917D01*
X-51041Y25899D01*
X-51078Y25848D01*
X-51096Y25812D01*
X-51118Y25775D01*
X-51140Y25732D01*
X-51165Y25688D01*
X-51187Y25637D01*
X-51213Y25582D01*
X-51260Y25462D01*
X-51300Y25331D01*
Y25328D01*
X-51303Y25313D01*
X-51307Y25295D01*
X-51314Y25266D01*
X-51322Y25233D01*
X-51333Y25193D01*
X-51340Y25146D01*
X-51347Y25091D01*
X-51358Y25033D01*
X-51365Y24971D01*
X-51376Y24902D01*
X-51384Y24833D01*
X-51387Y24756D01*
X-51394Y24676D01*
X-51398Y24509D01*
Y24447D01*
D02*
G37*
%LPD*%
G36*
X-46309Y22142D02*
X-47638Y25695D01*
X-46994D01*
X-46022Y22954D01*
X-45054Y25695D01*
X-44431D01*
X-45771Y22142D01*
X-46309Y22142D01*
D02*
G37*
G36*
X-44220Y23737D02*
X-44224Y23897D01*
Y23937D01*
X-44220Y23955D01*
Y24010D01*
X-44216Y24043D01*
X-44209Y24115D01*
X-44198Y24199D01*
X-44187Y24294D01*
X-44165Y24396D01*
X-44144Y24505D01*
X-44115Y24618D01*
X-44078Y24731D01*
X-44034Y24847D01*
X-43980Y24963D01*
X-43922Y25073D01*
X-43852Y25182D01*
X-43772Y25280D01*
X-43769Y25288D01*
X-43751Y25302D01*
X-43725Y25328D01*
X-43689Y25360D01*
X-43645Y25400D01*
X-43590Y25444D01*
X-43525Y25488D01*
X-43452Y25539D01*
X-43372Y25586D01*
X-43281Y25630D01*
X-43183Y25673D01*
X-43077Y25713D01*
X-42964Y25746D01*
X-42844Y25772D01*
X-42717Y25786D01*
X-42582Y25793D01*
X-42527D01*
X-42498Y25790D01*
X-42462D01*
X-42426Y25786D01*
X-42386Y25782D01*
X-42294Y25768D01*
X-42196Y25753D01*
X-42094Y25728D01*
X-41996Y25695D01*
X-41992D01*
X-41971Y25684D01*
X-41952Y25677D01*
X-41930Y25666D01*
X-41905Y25655D01*
X-41843Y25622D01*
X-41774Y25582D01*
X-41701Y25528D01*
X-41625Y25469D01*
X-41548Y25393D01*
X-41545Y25386D01*
X-41519Y25360D01*
X-41505Y25342D01*
X-41486Y25317D01*
X-41443Y25258D01*
X-41395Y25185D01*
X-41344Y25102D01*
X-41297Y25003D01*
X-41257Y24898D01*
Y24894D01*
X-41253Y24883D01*
X-41246Y24869D01*
X-41243Y24847D01*
X-41232Y24818D01*
X-41224Y24785D01*
X-41217Y24745D01*
X-41195Y24651D01*
X-41188Y24596D01*
X-41177Y24538D01*
X-41170Y24472D01*
X-41166Y24407D01*
X-41159Y24334D01*
X-41155Y24181D01*
Y23857D01*
X-43616D01*
Y23832D01*
X-43612Y23799D01*
Y23755D01*
X-43605Y23704D01*
X-43598Y23642D01*
X-43590Y23577D01*
X-43561Y23431D01*
X-43539Y23351D01*
X-43514Y23271D01*
X-43485Y23194D01*
X-43448Y23118D01*
X-43408Y23042D01*
X-43361Y22972D01*
X-43306Y22907D01*
X-43292Y22892D01*
X-43274Y22878D01*
X-43248Y22856D01*
X-43215Y22830D01*
X-43179Y22805D01*
X-43132Y22776D01*
X-43081Y22747D01*
X-43023Y22714D01*
X-42957Y22685D01*
X-42888Y22659D01*
X-42811Y22634D01*
X-42728Y22612D01*
X-42640Y22598D01*
X-42546Y22587D01*
X-42444Y22583D01*
X-42411D01*
X-42371Y22587D01*
X-42320Y22590D01*
X-42262Y22594D01*
X-42196Y22601D01*
X-42127Y22612D01*
X-42058Y22627D01*
X-42054D01*
X-42051Y22630D01*
X-42040D01*
X-42025Y22634D01*
X-41989Y22645D01*
X-41945Y22656D01*
X-41890Y22674D01*
X-41832Y22692D01*
X-41716Y22739D01*
X-41712D01*
X-41708Y22743D01*
X-41687Y22750D01*
X-41577Y22805D01*
X-41530Y22830D01*
X-41443Y22881D01*
X-41439Y22885D01*
X-41425Y22892D01*
X-41403Y22907D01*
X-41377Y22925D01*
X-41315Y22965D01*
X-41286Y22991D01*
X-41257Y23012D01*
X-41221D01*
Y22361D01*
X-41224Y22357D01*
X-41239Y22354D01*
X-41261Y22343D01*
X-41293Y22332D01*
X-41330Y22317D01*
X-41377Y22299D01*
X-41428Y22277D01*
X-41483Y22255D01*
X-41490Y22252D01*
X-41508Y22244D01*
X-41537Y22233D01*
X-41577Y22219D01*
X-41621Y22204D01*
X-41763Y22161D01*
X-41767D01*
X-41770Y22157D01*
X-41792Y22153D01*
X-41825Y22146D01*
X-41869Y22135D01*
X-41916Y22121D01*
X-42080Y22088D01*
X-42087D01*
X-42105Y22084D01*
X-42134Y22081D01*
X-42178Y22077D01*
X-42229Y22070D01*
X-42291Y22066D01*
X-42360Y22062D01*
X-42473D01*
X-42495Y22066D01*
X-42516D01*
X-42578Y22070D01*
X-42648Y22077D01*
X-42731Y22088D01*
X-42822Y22103D01*
X-42921Y22121D01*
X-43026Y22146D01*
X-43132Y22179D01*
X-43244Y22219D01*
X-43354Y22263D01*
X-43463Y22317D01*
X-43565Y22383D01*
X-43667Y22456D01*
X-43758Y22539D01*
X-43761Y22546D01*
X-43776Y22561D01*
X-43801Y22590D01*
X-43831Y22627D01*
X-43867Y22678D01*
X-43903Y22736D01*
X-43947Y22809D01*
X-43991Y22889D01*
X-44034Y22980D01*
X-44074Y23082D01*
X-44115Y23191D01*
X-44151Y23315D01*
X-44180Y23446D01*
X-44202Y23588D01*
X-44220Y23737D01*
D02*
G37*
%LPC*%
G36*
X-43616Y24316D02*
X-41738D01*
Y24356D01*
X-41741Y24377D01*
Y24399D01*
X-41748Y24457D01*
X-41756Y24523D01*
X-41778Y24661D01*
X-41796Y24731D01*
Y24734D01*
X-41799Y24738D01*
X-41818Y24792D01*
X-41832Y24833D01*
X-41854Y24880D01*
X-41879Y24927D01*
X-41909Y24978D01*
X-41941Y25025D01*
X-41945Y25033D01*
X-42014Y25102D01*
X-42054Y25135D01*
X-42098Y25167D01*
X-42153Y25200D01*
X-42218Y25233D01*
X-42240Y25240D01*
X-42276Y25251D01*
X-42324Y25266D01*
X-42382Y25280D01*
X-42451Y25291D01*
X-42527Y25298D01*
X-42615Y25302D01*
X-42655D01*
X-42677Y25298D01*
X-42698D01*
X-42757Y25295D01*
X-42819Y25284D01*
X-42888Y25273D01*
X-42957Y25255D01*
X-43023Y25229D01*
X-43081Y25200D01*
X-43124Y25175D01*
X-43168Y25146D01*
X-43219Y25113D01*
X-43274Y25069D01*
X-43325Y25022D01*
X-43332Y25014D01*
X-43346Y24996D01*
X-43372Y24967D01*
X-43401Y24931D01*
X-43434Y24883D01*
X-43467Y24829D01*
X-43499Y24771D01*
X-43528Y24709D01*
Y24705D01*
X-43532Y24701D01*
X-43539Y24680D01*
X-43550Y24643D01*
X-43565Y24596D01*
X-43579Y24538D01*
X-43594Y24472D01*
X-43608Y24396D01*
X-43616Y24316D01*
D02*
G37*
%LPD*%
G36*
X-40551Y22142D02*
Y25695D01*
X-39954D01*
Y25164D01*
X-39939Y25178D01*
X-39921Y25193D01*
X-39899Y25211D01*
X-39870Y25236D01*
X-39838Y25262D01*
X-39801Y25291D01*
X-39761Y25324D01*
X-39670Y25393D01*
X-39481Y25524D01*
X-39386Y25575D01*
X-39382D01*
X-39324Y25604D01*
X-39295Y25611D01*
X-39237Y25637D01*
X-39164Y25659D01*
X-39084Y25677D01*
X-39000Y25692D01*
X-38913Y25695D01*
X-38862D01*
X-38815Y25692D01*
X-38793D01*
X-38775Y25688D01*
X-38767D01*
X-38742Y25684D01*
X-38709Y25681D01*
X-38669Y25673D01*
Y25051D01*
X-38705D01*
X-38713Y25054D01*
X-38727Y25058D01*
X-38745Y25062D01*
X-38793Y25069D01*
X-38847Y25073D01*
X-38862D01*
X-38877Y25076D01*
X-38920D01*
X-38953Y25080D01*
X-39062D01*
X-39088Y25076D01*
X-39113D01*
X-39175Y25065D01*
X-39248Y25054D01*
X-39328Y25036D01*
X-39415Y25011D01*
X-39506Y24974D01*
X-39510D01*
X-39517Y24971D01*
X-39528Y24963D01*
X-39546Y24956D01*
X-39568Y24945D01*
X-39594Y24931D01*
X-39652Y24894D01*
X-39721Y24851D01*
X-39794Y24800D01*
X-39874Y24734D01*
X-39954Y24661D01*
Y22142D01*
X-40551D01*
D02*
G37*
G36*
X-38192D02*
Y27089D01*
X-37595D01*
Y22142D01*
X-38192D01*
D02*
G37*
G36*
X-36962Y23085D02*
X-36966Y23173D01*
Y23209D01*
X-36962Y23234D01*
Y23267D01*
X-36958Y23304D01*
X-36951Y23344D01*
X-36947Y23387D01*
X-36929Y23486D01*
X-36900Y23591D01*
X-36864Y23697D01*
X-36813Y23799D01*
X-36809Y23802D01*
X-36805Y23810D01*
X-36794Y23824D01*
X-36783Y23842D01*
X-36765Y23864D01*
X-36722Y23915D01*
X-36693Y23948D01*
X-36660Y23981D01*
X-36623Y24013D01*
X-36583Y24046D01*
X-36536Y24083D01*
X-36489Y24115D01*
X-36438Y24148D01*
X-36380Y24181D01*
X-36318Y24210D01*
X-36314D01*
X-36303Y24217D01*
X-36288Y24225D01*
X-36263Y24232D01*
X-36237Y24243D01*
X-36201Y24257D01*
X-36161Y24272D01*
X-36117Y24286D01*
X-36070Y24301D01*
X-36015Y24316D01*
X-35957Y24334D01*
X-35895Y24348D01*
X-35761Y24377D01*
X-35615Y24399D01*
X-35611D01*
X-35597Y24403D01*
X-35575D01*
X-35542Y24407D01*
X-35506Y24414D01*
X-35462Y24418D01*
X-35411Y24425D01*
X-35353Y24428D01*
X-35222Y24443D01*
X-35149Y24450D01*
X-35073Y24457D01*
X-34909Y24468D01*
X-34734Y24479D01*
Y24625D01*
X-34738Y24665D01*
X-34742Y24712D01*
X-34749Y24767D01*
X-34778Y24876D01*
X-34800Y24927D01*
X-34811Y24949D01*
X-34825Y24971D01*
X-34843Y25000D01*
X-34869Y25033D01*
X-34902Y25065D01*
X-34938Y25098D01*
X-34978Y25127D01*
X-34982Y25131D01*
X-35000Y25138D01*
X-35022Y25153D01*
X-35054Y25167D01*
X-35095Y25182D01*
X-35146Y25200D01*
X-35197Y25215D01*
X-35258Y25226D01*
X-35266D01*
X-35287Y25229D01*
X-35320Y25233D01*
X-35360Y25240D01*
X-35411Y25244D01*
X-35469Y25247D01*
X-35531Y25251D01*
X-35655D01*
X-35677Y25247D01*
X-35706D01*
X-35735Y25244D01*
X-35808Y25236D01*
X-35892Y25226D01*
X-35983Y25211D01*
X-36085Y25189D01*
X-36088D01*
X-36096Y25185D01*
X-36132Y25178D01*
X-36157Y25171D01*
X-36187Y25164D01*
X-36223Y25153D01*
X-36259Y25146D01*
X-36343Y25120D01*
X-36438Y25087D01*
X-36540Y25051D01*
X-36645Y25011D01*
X-36678D01*
Y25615D01*
X-36674D01*
X-36671Y25619D01*
X-36660D01*
X-36649Y25622D01*
X-36631Y25630D01*
X-36609Y25633D01*
X-36587Y25640D01*
X-36558Y25648D01*
X-36489Y25662D01*
X-36409Y25681D01*
X-36314Y25699D01*
X-36205Y25721D01*
X-36201D01*
X-36190Y25724D01*
X-36176Y25728D01*
X-36125Y25735D01*
X-36092Y25739D01*
X-36052Y25746D01*
X-36012Y25750D01*
X-35921Y25761D01*
X-35815Y25772D01*
X-35706Y25775D01*
X-35593Y25779D01*
X-35502D01*
X-35466Y25775D01*
X-35426D01*
X-35284Y25764D01*
X-35178Y25753D01*
X-35076Y25739D01*
X-34978Y25721D01*
X-34974D01*
X-34967Y25717D01*
X-34953Y25713D01*
X-34934Y25710D01*
X-34913Y25702D01*
X-34887Y25695D01*
X-34825Y25673D01*
X-34756Y25644D01*
X-34680Y25608D01*
X-34600Y25564D01*
X-34523Y25513D01*
X-34519D01*
X-34516Y25506D01*
X-34505Y25499D01*
X-34490Y25488D01*
X-34414Y25411D01*
X-34367Y25357D01*
X-34319Y25291D01*
X-34276Y25218D01*
X-34236Y25135D01*
Y25131D01*
X-34232Y25124D01*
X-34225Y25113D01*
X-34221Y25095D01*
X-34214Y25069D01*
X-34203Y25044D01*
X-34196Y25011D01*
X-34185Y24978D01*
X-34177Y24938D01*
X-34170Y24894D01*
X-34152Y24800D01*
X-34141Y24690D01*
X-34137Y24570D01*
Y22142D01*
X-34734D01*
Y22521D01*
X-34738Y22517D01*
X-34749Y22510D01*
X-34763Y22499D01*
X-34789Y22481D01*
X-34818Y22459D01*
X-34851Y22434D01*
X-34891Y22405D01*
X-34934Y22368D01*
X-34938Y22365D01*
X-34956Y22354D01*
X-34978Y22335D01*
X-35007Y22314D01*
X-35044Y22288D01*
X-35124Y22237D01*
X-35175Y22212D01*
X-35193Y22201D01*
X-35226Y22186D01*
X-35266Y22172D01*
X-35313Y22150D01*
X-35364Y22128D01*
X-35477Y22092D01*
X-35484Y22088D01*
X-35502Y22084D01*
X-35535Y22077D01*
X-35582Y22070D01*
X-35641Y22059D01*
X-35713Y22051D01*
X-35793Y22048D01*
X-35888Y22044D01*
X-35925D01*
X-35946Y22048D01*
X-35968D01*
X-36023Y22055D01*
X-36088Y22066D01*
X-36157Y22081D01*
X-36234Y22099D01*
X-36307Y22128D01*
X-36310D01*
X-36314Y22132D01*
X-36325Y22135D01*
X-36376Y22161D01*
X-36423Y22186D01*
X-36478Y22219D01*
X-36536Y22259D01*
X-36594Y22306D01*
X-36652Y22357D01*
X-36660Y22365D01*
X-36674Y22383D01*
X-36703Y22415D01*
X-36733Y22456D01*
X-36769Y22510D01*
X-36809Y22572D01*
X-36845Y22641D01*
X-36882Y22718D01*
Y22721D01*
X-36885Y22728D01*
X-36889Y22739D01*
X-36896Y22754D01*
X-36900Y22776D01*
X-36907Y22798D01*
X-36922Y22856D01*
X-36940Y22921D01*
X-36951Y23001D01*
X-36962Y23085D01*
D02*
G37*
%LPC*%
G36*
X-36350Y23183D02*
X-36347Y23162D01*
Y23136D01*
X-36339Y23107D01*
X-36329Y23042D01*
X-36307Y22965D01*
X-36278Y22889D01*
X-36234Y22816D01*
X-36208Y22783D01*
X-36179Y22750D01*
X-36176D01*
X-36172Y22743D01*
X-36161Y22736D01*
X-36147Y22725D01*
X-36128Y22714D01*
X-36107Y22703D01*
X-36081Y22689D01*
X-36052Y22674D01*
X-36019Y22659D01*
X-35983Y22645D01*
X-35895Y22623D01*
X-35844Y22612D01*
X-35793Y22605D01*
X-35739Y22601D01*
X-35677Y22598D01*
X-35648D01*
X-35630Y22601D01*
X-35604D01*
X-35575Y22605D01*
X-35542Y22608D01*
X-35506Y22612D01*
X-35429Y22627D01*
X-35342Y22648D01*
X-35255Y22678D01*
X-35167Y22718D01*
X-35164D01*
X-35156Y22725D01*
X-35146Y22728D01*
X-35109Y22750D01*
X-35084Y22765D01*
X-35025Y22801D01*
X-34960Y22845D01*
X-34887Y22896D01*
X-34811Y22951D01*
X-34734Y23016D01*
Y24002D01*
X-34745D01*
X-34756Y23999D01*
X-34774D01*
X-34792Y23995D01*
X-34818D01*
X-34883Y23988D01*
X-34920Y23984D01*
X-34960Y23981D01*
X-35054Y23970D01*
X-35160Y23959D01*
X-35277Y23948D01*
X-35291D01*
X-35309Y23944D01*
X-35331Y23941D01*
X-35357Y23937D01*
X-35389Y23933D01*
X-35426Y23930D01*
X-35462Y23923D01*
X-35546Y23911D01*
X-35721Y23875D01*
X-35801Y23853D01*
X-35804D01*
X-35812Y23850D01*
X-35823Y23846D01*
X-35841Y23839D01*
X-35884Y23824D01*
X-35939Y23799D01*
X-36005Y23766D01*
X-36070Y23730D01*
X-36136Y23682D01*
X-36198Y23631D01*
X-36205Y23624D01*
X-36223Y23602D01*
X-36245Y23569D01*
X-36274Y23522D01*
X-36303Y23464D01*
X-36325Y23391D01*
X-36343Y23307D01*
X-36350Y23213D01*
Y23183D01*
D02*
G37*
%LPD*%
G36*
X-32419Y22310D02*
X-33711Y25695D01*
X-33067D01*
X-32095Y23060D01*
X-31127Y25695D01*
X-30505D01*
X-32419Y20832D01*
X-33056D01*
X-32419Y22310D01*
D02*
G37*
G36*
X43313Y341192D02*
X43307Y341258D01*
Y341352D01*
X43318Y341708D01*
X43329Y341869D01*
X43346Y342030D01*
X43363Y342174D01*
X43385Y342313D01*
X43407Y342440D01*
X43429Y342557D01*
X43451Y342668D01*
X43474Y342762D01*
X43496Y342840D01*
X43512Y342906D01*
X43529Y342962D01*
X43540Y343001D01*
X43551Y343023D01*
Y343034D01*
X43601Y343162D01*
X43712Y343395D01*
X43834Y343595D01*
X43895Y343683D01*
X43956Y343761D01*
X44012Y343833D01*
X44067Y343900D01*
X44167Y344000D01*
X44212Y344039D01*
X44267Y344094D01*
X44284Y344105D01*
X44289Y344111D01*
X44384Y344177D01*
X44478Y344233D01*
X44578Y344283D01*
X44678Y344327D01*
X44778Y344366D01*
X44878Y344394D01*
X44972Y344422D01*
X45066Y344438D01*
X45150Y344455D01*
X45227Y344466D01*
X45294Y344477D01*
X45355Y344483D01*
X45405Y344488D01*
X45472D01*
X45621Y344483D01*
X45760Y344466D01*
X45882Y344444D01*
X46082Y344394D01*
X46149Y344372D01*
X46171Y344360D01*
X46187Y344355D01*
X46199Y344349D01*
X46204D01*
X46315Y344288D01*
X46409Y344222D01*
X46482Y344155D01*
X46537Y344089D01*
X46582Y344033D01*
X46609Y343983D01*
X46626Y343950D01*
X46632Y343944D01*
Y343939D01*
X46676D01*
Y344394D01*
X47642D01*
Y341103D01*
X45544D01*
Y342074D01*
X46620D01*
X46615Y342224D01*
X46604Y342368D01*
X46582Y342490D01*
X46559Y342596D01*
X46537Y342684D01*
X46526Y342723D01*
X46515Y342751D01*
X46509Y342773D01*
X46504Y342790D01*
X46498Y342801D01*
Y342807D01*
X46448Y342912D01*
X46393Y343006D01*
X46337Y343090D01*
X46282Y343156D01*
X46193Y343245D01*
X46165Y343267D01*
X46154Y343273D01*
X46065Y343328D01*
X45977Y343367D01*
X45888Y343395D01*
X45810Y343411D01*
X45738Y343423D01*
X45677Y343434D01*
X45627D01*
X45522Y343428D01*
X45427Y343411D01*
X45338Y343384D01*
X45261Y343345D01*
X45189Y343306D01*
X45122Y343256D01*
X45061Y343206D01*
X45011Y343151D01*
X44967Y343101D01*
X44928Y343051D01*
X44894Y343001D01*
X44867Y342962D01*
X44850Y342923D01*
X44833Y342895D01*
X44828Y342879D01*
X44822Y342873D01*
X44783Y342762D01*
X44745Y342646D01*
X44689Y342396D01*
X44650Y342135D01*
X44633Y342013D01*
X44622Y341891D01*
X44611Y341780D01*
X44606Y341674D01*
X44600Y341580D01*
Y341497D01*
X44595Y341430D01*
Y341336D01*
X44600Y341169D01*
X44606Y341014D01*
X44617Y340864D01*
X44650Y340598D01*
X44672Y340481D01*
X44695Y340376D01*
X44717Y340276D01*
X44739Y340187D01*
X44756Y340109D01*
X44794Y339993D01*
X44811Y339948D01*
X44822Y339915D01*
X44833Y339898D01*
Y339893D01*
X44883Y339798D01*
X44939Y339715D01*
X45005Y339643D01*
X45072Y339582D01*
X45144Y339527D01*
X45216Y339488D01*
X45294Y339449D01*
X45366Y339421D01*
X45433Y339399D01*
X45499Y339382D01*
X45560Y339371D01*
X45610Y339360D01*
X45655D01*
X45688Y339354D01*
X45716D01*
X45832Y339360D01*
X45943Y339377D01*
X46049Y339404D01*
X46237Y339482D01*
X46321Y339532D01*
X46398Y339582D01*
X46465Y339632D01*
X46526Y339682D01*
X46582Y339732D01*
X46632Y339782D01*
X46698Y339860D01*
X46720Y339887D01*
X46731Y339904D01*
X46737Y339909D01*
X47542Y339282D01*
X47431Y339110D01*
X47303Y338960D01*
X47175Y338827D01*
X47109Y338766D01*
X47048Y338716D01*
X46992Y338666D01*
X46937Y338627D01*
X46887Y338589D01*
X46848Y338561D01*
X46815Y338539D01*
X46787Y338516D01*
X46770Y338511D01*
X46765Y338505D01*
X46670Y338450D01*
X46576Y338405D01*
X46476Y338367D01*
X46376Y338333D01*
X46182Y338278D01*
X46088Y338261D01*
X45921Y338228D01*
X45843Y338222D01*
X45777Y338217D01*
X45721Y338211D01*
X45677Y338206D01*
X45610D01*
X45472Y338211D01*
X45344Y338222D01*
X45216Y338239D01*
X45100Y338267D01*
X44989Y338294D01*
X44883Y338328D01*
X44789Y338361D01*
X44700Y338400D01*
X44622Y338433D01*
X44556Y338472D01*
X44495Y338505D01*
X44445Y338533D01*
X44400Y338561D01*
X44373Y338577D01*
X44356Y338589D01*
X44350Y338594D01*
X44256Y338672D01*
X44167Y338755D01*
X44084Y338838D01*
X44012Y338927D01*
X43940Y339021D01*
X43879Y339110D01*
X43818Y339205D01*
X43718Y339371D01*
X43646Y339515D01*
X43618Y339576D01*
X43596Y339626D01*
X43579Y339660D01*
X43573Y339687D01*
X43568Y339693D01*
X43523Y339826D01*
X43485Y339965D01*
X43418Y340248D01*
X43374Y340526D01*
X43352Y340659D01*
X43340Y340786D01*
X43329Y340903D01*
X43324Y341014D01*
X43313Y341108D01*
Y341192D01*
D02*
G37*
G36*
X48480Y338294D02*
Y344394D01*
X49745D01*
Y340714D01*
X51060Y344394D01*
X52531D01*
Y338294D01*
X51266D01*
Y342107D01*
X51088Y341486D01*
X50023Y338294D01*
X48480D01*
D02*
G37*
G36*
X53155Y291979D02*
X53150Y292045D01*
Y292140D01*
X53161Y292495D01*
X53172Y292656D01*
X53189Y292817D01*
X53205Y292961D01*
X53227Y293100D01*
X53250Y293228D01*
X53272Y293344D01*
X53294Y293455D01*
X53316Y293549D01*
X53338Y293627D01*
X53355Y293694D01*
X53372Y293749D01*
X53383Y293788D01*
X53394Y293810D01*
Y293822D01*
X53444Y293949D01*
X53555Y294182D01*
X53677Y294382D01*
X53738Y294471D01*
X53799Y294549D01*
X53855Y294621D01*
X53910Y294687D01*
X54010Y294787D01*
X54054Y294826D01*
X54110Y294882D01*
X54126Y294893D01*
X54132Y294898D01*
X54226Y294965D01*
X54321Y295020D01*
X54421Y295070D01*
X54520Y295115D01*
X54620Y295153D01*
X54720Y295181D01*
X54815Y295209D01*
X54909Y295226D01*
X54992Y295242D01*
X55070Y295253D01*
X55137Y295265D01*
X55198Y295270D01*
X55247Y295276D01*
X55314D01*
X55464Y295270D01*
X55603Y295253D01*
X55725Y295231D01*
X55925Y295181D01*
X55991Y295159D01*
X56013Y295148D01*
X56030Y295142D01*
X56041Y295137D01*
X56047D01*
X56158Y295076D01*
X56252Y295009D01*
X56324Y294943D01*
X56380Y294876D01*
X56424Y294820D01*
X56452Y294771D01*
X56468Y294737D01*
X56474Y294732D01*
Y294726D01*
X56519D01*
Y295181D01*
X57484D01*
Y291890D01*
X55386D01*
Y292861D01*
X56463D01*
X56457Y293011D01*
X56446Y293156D01*
X56424Y293278D01*
X56402Y293383D01*
X56380Y293472D01*
X56369Y293511D01*
X56358Y293538D01*
X56352Y293561D01*
X56346Y293577D01*
X56341Y293588D01*
Y293594D01*
X56291Y293699D01*
X56235Y293794D01*
X56180Y293877D01*
X56124Y293944D01*
X56036Y294032D01*
X56008Y294055D01*
X55997Y294060D01*
X55908Y294116D01*
X55819Y294155D01*
X55730Y294182D01*
X55653Y294199D01*
X55581Y294210D01*
X55519Y294221D01*
X55470D01*
X55364Y294215D01*
X55270Y294199D01*
X55181Y294171D01*
X55103Y294132D01*
X55031Y294093D01*
X54965Y294043D01*
X54903Y293993D01*
X54853Y293938D01*
X54809Y293888D01*
X54770Y293838D01*
X54737Y293788D01*
X54709Y293749D01*
X54693Y293710D01*
X54676Y293683D01*
X54670Y293666D01*
X54665Y293660D01*
X54626Y293549D01*
X54587Y293433D01*
X54532Y293183D01*
X54493Y292922D01*
X54476Y292800D01*
X54465Y292678D01*
X54454Y292567D01*
X54448Y292462D01*
X54443Y292367D01*
Y292284D01*
X54437Y292217D01*
Y292123D01*
X54443Y291957D01*
X54448Y291801D01*
X54459Y291651D01*
X54493Y291385D01*
X54515Y291268D01*
X54537Y291163D01*
X54559Y291063D01*
X54581Y290974D01*
X54598Y290897D01*
X54637Y290780D01*
X54654Y290736D01*
X54665Y290702D01*
X54676Y290686D01*
Y290680D01*
X54726Y290586D01*
X54781Y290503D01*
X54848Y290430D01*
X54914Y290369D01*
X54987Y290314D01*
X55059Y290275D01*
X55137Y290236D01*
X55209Y290208D01*
X55275Y290186D01*
X55342Y290170D01*
X55403Y290159D01*
X55453Y290147D01*
X55497D01*
X55531Y290142D01*
X55558D01*
X55675Y290147D01*
X55786Y290164D01*
X55891Y290192D01*
X56080Y290269D01*
X56163Y290319D01*
X56241Y290369D01*
X56308Y290419D01*
X56369Y290469D01*
X56424Y290519D01*
X56474Y290569D01*
X56541Y290647D01*
X56563Y290675D01*
X56574Y290691D01*
X56580Y290697D01*
X57384Y290070D01*
X57273Y289898D01*
X57146Y289748D01*
X57018Y289615D01*
X56951Y289553D01*
X56890Y289504D01*
X56835Y289454D01*
X56779Y289415D01*
X56729Y289376D01*
X56691Y289348D01*
X56657Y289326D01*
X56630Y289304D01*
X56613Y289298D01*
X56607Y289293D01*
X56513Y289237D01*
X56419Y289193D01*
X56319Y289154D01*
X56219Y289121D01*
X56024Y289065D01*
X55930Y289049D01*
X55764Y289015D01*
X55686Y289010D01*
X55619Y289004D01*
X55564Y288999D01*
X55519Y288993D01*
X55453D01*
X55314Y288999D01*
X55186Y289010D01*
X55059Y289026D01*
X54942Y289054D01*
X54831Y289082D01*
X54726Y289115D01*
X54632Y289148D01*
X54543Y289187D01*
X54465Y289220D01*
X54398Y289259D01*
X54337Y289293D01*
X54287Y289320D01*
X54243Y289348D01*
X54215Y289365D01*
X54199Y289376D01*
X54193Y289382D01*
X54099Y289459D01*
X54010Y289542D01*
X53927Y289626D01*
X53855Y289715D01*
X53782Y289809D01*
X53721Y289898D01*
X53660Y289992D01*
X53560Y290159D01*
X53488Y290303D01*
X53460Y290364D01*
X53438Y290414D01*
X53422Y290447D01*
X53416Y290475D01*
X53411Y290480D01*
X53366Y290614D01*
X53327Y290752D01*
X53261Y291035D01*
X53216Y291313D01*
X53194Y291446D01*
X53183Y291574D01*
X53172Y291690D01*
X53166Y291801D01*
X53155Y291896D01*
Y291979D01*
D02*
G37*
G36*
X53491Y338294D02*
Y344394D01*
X54851D01*
X55040Y344388D01*
X55217Y344383D01*
X55389Y344366D01*
X55545Y344344D01*
X55689Y344322D01*
X55828Y344294D01*
X55950Y344266D01*
X56061Y344238D01*
X56161Y344211D01*
X56250Y344183D01*
X56327Y344155D01*
X56388Y344133D01*
X56438Y344111D01*
X56472Y344094D01*
X56494Y344089D01*
X56499Y344083D01*
X56610Y344022D01*
X56716Y343950D01*
X56816Y343878D01*
X56905Y343800D01*
X57060Y343634D01*
X57127Y343556D01*
X57188Y343473D01*
X57238Y343400D01*
X57282Y343328D01*
X57321Y343267D01*
X57349Y343212D01*
X57376Y343167D01*
X57393Y343128D01*
X57398Y343106D01*
X57404Y343101D01*
X57454Y342968D01*
X57498Y342829D01*
X57537Y342684D01*
X57571Y342535D01*
X57621Y342235D01*
X57637Y342091D01*
X57654Y341952D01*
X57665Y341819D01*
X57670Y341697D01*
X57676Y341585D01*
X57682Y341491D01*
X57687Y341413D01*
Y341308D01*
X57682Y341103D01*
X57676Y340914D01*
X57659Y340731D01*
X57637Y340564D01*
X57615Y340403D01*
X57593Y340259D01*
X57565Y340126D01*
X57537Y340004D01*
X57504Y339898D01*
X57476Y339804D01*
X57454Y339726D01*
X57432Y339660D01*
X57410Y339604D01*
X57393Y339565D01*
X57387Y339543D01*
X57382Y339538D01*
X57321Y339416D01*
X57254Y339304D01*
X57182Y339205D01*
X57110Y339110D01*
X57038Y339027D01*
X56960Y338949D01*
X56882Y338877D01*
X56810Y338816D01*
X56744Y338761D01*
X56677Y338716D01*
X56621Y338677D01*
X56572Y338644D01*
X56527Y338622D01*
X56499Y338600D01*
X56477Y338594D01*
X56472Y338589D01*
X56355Y338539D01*
X56233Y338489D01*
X56105Y338450D01*
X55972Y338417D01*
X55717Y338367D01*
X55589Y338344D01*
X55467Y338333D01*
X55356Y338317D01*
X55251Y338311D01*
X55156Y338305D01*
X55073Y338300D01*
X55012Y338294D01*
X53491D01*
D02*
G37*
%LPC*%
G36*
X54773Y339388D02*
X55073D01*
X55184Y339393D01*
X55290Y339410D01*
X55389Y339438D01*
X55478Y339471D01*
X55567Y339515D01*
X55645Y339565D01*
X55717Y339626D01*
X55783Y339687D01*
X55850Y339760D01*
X55906Y339832D01*
X56006Y339998D01*
X56089Y340170D01*
X56150Y340348D01*
X56200Y340531D01*
X56239Y340703D01*
X56266Y340864D01*
X56277Y340942D01*
X56288Y341014D01*
X56300Y341136D01*
Y341186D01*
X56305Y341230D01*
Y341314D01*
X56300Y341480D01*
X56294Y341641D01*
X56277Y341791D01*
X56255Y341930D01*
X56233Y342057D01*
X56211Y342179D01*
X56183Y342285D01*
X56155Y342385D01*
X56122Y342474D01*
X56094Y342551D01*
X56072Y342618D01*
X56050Y342673D01*
X56028Y342718D01*
X56011Y342745D01*
X56006Y342768D01*
X56000Y342773D01*
X55939Y342868D01*
X55872Y342951D01*
X55795Y343023D01*
X55717Y343084D01*
X55634Y343134D01*
X55550Y343178D01*
X55467Y343217D01*
X55389Y343245D01*
X55312Y343267D01*
X55240Y343284D01*
X55173Y343295D01*
X55117Y343301D01*
X55073Y343306D01*
X55034Y343312D01*
X54773D01*
Y339388D01*
D02*
G37*
%LPD*%
G36*
X58322Y289082D02*
Y295181D01*
X59588D01*
Y291502D01*
X60903Y295181D01*
X62374D01*
Y289082D01*
X61108D01*
Y292895D01*
X60931Y292273D01*
X59865Y289082D01*
X58322D01*
D02*
G37*
G36*
X62992Y338389D02*
X64524Y344488D01*
X65800D01*
X67338Y338389D01*
X66017D01*
X65173Y342579D01*
X64330Y338389D01*
X62992D01*
D02*
G37*
G36*
X63334Y289082D02*
Y295181D01*
X64694D01*
X64882Y295176D01*
X65060Y295170D01*
X65232Y295153D01*
X65387Y295131D01*
X65532Y295109D01*
X65670Y295081D01*
X65793Y295054D01*
X65904Y295026D01*
X66003Y294998D01*
X66092Y294970D01*
X66170Y294943D01*
X66231Y294920D01*
X66281Y294898D01*
X66314Y294882D01*
X66336Y294876D01*
X66342Y294870D01*
X66453Y294809D01*
X66558Y294737D01*
X66658Y294665D01*
X66747Y294587D01*
X66903Y294421D01*
X66969Y294343D01*
X67030Y294260D01*
X67080Y294188D01*
X67124Y294116D01*
X67163Y294055D01*
X67191Y293999D01*
X67219Y293955D01*
X67235Y293916D01*
X67241Y293894D01*
X67247Y293888D01*
X67297Y293755D01*
X67341Y293616D01*
X67380Y293472D01*
X67413Y293322D01*
X67463Y293022D01*
X67480Y292878D01*
X67496Y292739D01*
X67507Y292606D01*
X67513Y292484D01*
X67519Y292373D01*
X67524Y292279D01*
X67530Y292201D01*
Y292095D01*
X67524Y291890D01*
X67519Y291701D01*
X67502Y291518D01*
X67480Y291352D01*
X67457Y291191D01*
X67435Y291047D01*
X67408Y290913D01*
X67380Y290791D01*
X67347Y290686D01*
X67319Y290591D01*
X67297Y290514D01*
X67274Y290447D01*
X67252Y290392D01*
X67235Y290353D01*
X67230Y290331D01*
X67224Y290325D01*
X67163Y290203D01*
X67097Y290092D01*
X67025Y289992D01*
X66953Y289898D01*
X66880Y289814D01*
X66803Y289737D01*
X66725Y289665D01*
X66653Y289603D01*
X66586Y289548D01*
X66520Y289504D01*
X66464Y289465D01*
X66414Y289431D01*
X66370Y289409D01*
X66342Y289387D01*
X66320Y289382D01*
X66314Y289376D01*
X66198Y289326D01*
X66076Y289276D01*
X65948Y289237D01*
X65815Y289204D01*
X65559Y289154D01*
X65432Y289132D01*
X65310Y289121D01*
X65199Y289104D01*
X65093Y289098D01*
X64999Y289093D01*
X64916Y289087D01*
X64855Y289082D01*
X63334D01*
D02*
G37*
%LPC*%
G36*
X64616Y290175D02*
X64916D01*
X65027Y290181D01*
X65132Y290197D01*
X65232Y290225D01*
X65321Y290258D01*
X65410Y290303D01*
X65487Y290353D01*
X65559Y290414D01*
X65626Y290475D01*
X65693Y290547D01*
X65748Y290619D01*
X65848Y290786D01*
X65931Y290958D01*
X65992Y291135D01*
X66042Y291318D01*
X66081Y291491D01*
X66109Y291651D01*
X66120Y291729D01*
X66131Y291801D01*
X66142Y291923D01*
Y291973D01*
X66148Y292018D01*
Y292101D01*
X66142Y292267D01*
X66137Y292428D01*
X66120Y292578D01*
X66098Y292717D01*
X66076Y292845D01*
X66053Y292967D01*
X66026Y293072D01*
X65998Y293172D01*
X65965Y293261D01*
X65937Y293339D01*
X65915Y293405D01*
X65892Y293461D01*
X65870Y293505D01*
X65854Y293533D01*
X65848Y293555D01*
X65842Y293561D01*
X65781Y293655D01*
X65715Y293738D01*
X65637Y293810D01*
X65559Y293871D01*
X65476Y293921D01*
X65393Y293966D01*
X65310Y294005D01*
X65232Y294032D01*
X65154Y294055D01*
X65082Y294071D01*
X65016Y294082D01*
X64960Y294088D01*
X64916Y294093D01*
X64877Y294099D01*
X64616D01*
Y290175D01*
D02*
G37*
%LPD*%
G36*
X68287Y338389D02*
Y344488D01*
X72322D01*
Y343328D01*
X69574D01*
Y338389D01*
X68287D01*
D02*
G37*
G36*
X72835Y289176D02*
X74366Y295276D01*
X75643D01*
X77180Y289176D01*
X75859D01*
X75016Y293366D01*
X74172Y289176D01*
X72835D01*
D02*
G37*
G36*
X73237Y338389D02*
Y344488D01*
X77322D01*
Y343406D01*
X74519D01*
Y341907D01*
X77056D01*
Y340809D01*
X74519D01*
Y339482D01*
X77200D01*
Y338389D01*
X73237D01*
D02*
G37*
G36*
X78129Y289176D02*
Y295276D01*
X82164D01*
Y294116D01*
X79417D01*
Y289176D01*
X78129D01*
D02*
G37*
G36*
X78255Y338389D02*
Y344488D01*
X79614D01*
X79803Y344483D01*
X79981Y344477D01*
X80153Y344460D01*
X80308Y344438D01*
X80452Y344416D01*
X80591Y344388D01*
X80713Y344360D01*
X80824Y344333D01*
X80924Y344305D01*
X81013Y344277D01*
X81091Y344250D01*
X81152Y344227D01*
X81202Y344205D01*
X81235Y344188D01*
X81257Y344183D01*
X81263Y344177D01*
X81374Y344116D01*
X81479Y344044D01*
X81579Y343972D01*
X81668Y343894D01*
X81823Y343728D01*
X81890Y343650D01*
X81951Y343567D01*
X82001Y343495D01*
X82045Y343423D01*
X82084Y343361D01*
X82112Y343306D01*
X82140Y343262D01*
X82156Y343223D01*
X82162Y343201D01*
X82167Y343195D01*
X82217Y343062D01*
X82262Y342923D01*
X82301Y342779D01*
X82334Y342629D01*
X82384Y342329D01*
X82401Y342185D01*
X82417Y342046D01*
X82428Y341913D01*
X82434Y341791D01*
X82439Y341680D01*
X82445Y341585D01*
X82450Y341508D01*
Y341402D01*
X82445Y341197D01*
X82439Y341008D01*
X82423Y340825D01*
X82401Y340659D01*
X82378Y340498D01*
X82356Y340353D01*
X82328Y340220D01*
X82301Y340098D01*
X82267Y339993D01*
X82240Y339898D01*
X82217Y339821D01*
X82195Y339754D01*
X82173Y339699D01*
X82156Y339660D01*
X82151Y339637D01*
X82145Y339632D01*
X82084Y339510D01*
X82017Y339399D01*
X81945Y339299D01*
X81873Y339205D01*
X81801Y339121D01*
X81723Y339044D01*
X81646Y338971D01*
X81573Y338910D01*
X81507Y338855D01*
X81440Y338810D01*
X81385Y338772D01*
X81335Y338738D01*
X81291Y338716D01*
X81263Y338694D01*
X81240Y338688D01*
X81235Y338683D01*
X81118Y338633D01*
X80996Y338583D01*
X80869Y338544D01*
X80735Y338511D01*
X80480Y338461D01*
X80352Y338439D01*
X80230Y338428D01*
X80119Y338411D01*
X80014Y338405D01*
X79920Y338400D01*
X79836Y338394D01*
X79775Y338389D01*
X78255D01*
D02*
G37*
%LPC*%
G36*
X79537Y339482D02*
X79836D01*
X79947Y339488D01*
X80053Y339504D01*
X80153Y339532D01*
X80242Y339565D01*
X80330Y339610D01*
X80408Y339660D01*
X80480Y339721D01*
X80547Y339782D01*
X80613Y339854D01*
X80669Y339926D01*
X80769Y340093D01*
X80852Y340265D01*
X80913Y340442D01*
X80963Y340625D01*
X81002Y340797D01*
X81030Y340958D01*
X81041Y341036D01*
X81052Y341108D01*
X81063Y341230D01*
Y341280D01*
X81068Y341325D01*
Y341408D01*
X81063Y341574D01*
X81057Y341735D01*
X81041Y341885D01*
X81019Y342024D01*
X80996Y342152D01*
X80974Y342274D01*
X80946Y342379D01*
X80919Y342479D01*
X80885Y342568D01*
X80858Y342646D01*
X80835Y342712D01*
X80813Y342768D01*
X80791Y342812D01*
X80774Y342840D01*
X80769Y342862D01*
X80763Y342868D01*
X80702Y342962D01*
X80636Y343045D01*
X80558Y343117D01*
X80480Y343178D01*
X80397Y343228D01*
X80314Y343273D01*
X80230Y343312D01*
X80153Y343339D01*
X80075Y343361D01*
X80003Y343378D01*
X79936Y343389D01*
X79881Y343395D01*
X79836Y343400D01*
X79798Y343406D01*
X79537D01*
Y339482D01*
D02*
G37*
%LPD*%
G36*
X83080Y289176D02*
Y295276D01*
X87165D01*
Y294193D01*
X84362D01*
Y292695D01*
X86898D01*
Y291596D01*
X84362D01*
Y290269D01*
X87043D01*
Y289176D01*
X83080D01*
D02*
G37*
G36*
X88097D02*
Y295276D01*
X89457D01*
X89646Y295270D01*
X89823Y295265D01*
X89995Y295248D01*
X90151Y295226D01*
X90295Y295203D01*
X90434Y295176D01*
X90556Y295148D01*
X90667Y295120D01*
X90767Y295092D01*
X90855Y295065D01*
X90933Y295037D01*
X90994Y295015D01*
X91044Y294992D01*
X91078Y294976D01*
X91100Y294970D01*
X91105Y294965D01*
X91216Y294904D01*
X91322Y294832D01*
X91422Y294759D01*
X91510Y294682D01*
X91666Y294515D01*
X91732Y294438D01*
X91793Y294354D01*
X91843Y294282D01*
X91888Y294210D01*
X91927Y294149D01*
X91954Y294093D01*
X91982Y294049D01*
X91999Y294010D01*
X92004Y293988D01*
X92010Y293982D01*
X92060Y293849D01*
X92104Y293710D01*
X92143Y293566D01*
X92176Y293416D01*
X92226Y293117D01*
X92243Y292972D01*
X92260Y292834D01*
X92271Y292700D01*
X92276Y292578D01*
X92282Y292467D01*
X92287Y292373D01*
X92293Y292295D01*
Y292190D01*
X92287Y291984D01*
X92282Y291796D01*
X92265Y291613D01*
X92243Y291446D01*
X92221Y291285D01*
X92199Y291141D01*
X92171Y291008D01*
X92143Y290885D01*
X92110Y290780D01*
X92082Y290686D01*
X92060Y290608D01*
X92038Y290541D01*
X92015Y290486D01*
X91999Y290447D01*
X91993Y290425D01*
X91988Y290419D01*
X91927Y290297D01*
X91860Y290186D01*
X91788Y290086D01*
X91716Y289992D01*
X91644Y289909D01*
X91566Y289831D01*
X91488Y289759D01*
X91416Y289698D01*
X91350Y289642D01*
X91283Y289598D01*
X91227Y289559D01*
X91177Y289526D01*
X91133Y289504D01*
X91105Y289481D01*
X91083Y289476D01*
X91078Y289470D01*
X90961Y289420D01*
X90839Y289370D01*
X90711Y289332D01*
X90578Y289298D01*
X90323Y289248D01*
X90195Y289226D01*
X90073Y289215D01*
X89962Y289198D01*
X89856Y289193D01*
X89762Y289187D01*
X89679Y289182D01*
X89618Y289176D01*
X88097D01*
D02*
G37*
%LPC*%
G36*
X89379Y290269D02*
X89679D01*
X89790Y290275D01*
X89895Y290292D01*
X89995Y290319D01*
X90084Y290353D01*
X90173Y290397D01*
X90250Y290447D01*
X90323Y290508D01*
X90389Y290569D01*
X90456Y290641D01*
X90511Y290714D01*
X90611Y290880D01*
X90695Y291052D01*
X90756Y291230D01*
X90806Y291413D01*
X90844Y291585D01*
X90872Y291746D01*
X90883Y291824D01*
X90894Y291896D01*
X90905Y292018D01*
Y292068D01*
X90911Y292112D01*
Y292195D01*
X90905Y292362D01*
X90900Y292523D01*
X90883Y292673D01*
X90861Y292811D01*
X90839Y292939D01*
X90817Y293061D01*
X90789Y293167D01*
X90761Y293267D01*
X90728Y293355D01*
X90700Y293433D01*
X90678Y293500D01*
X90656Y293555D01*
X90633Y293600D01*
X90617Y293627D01*
X90611Y293649D01*
X90606Y293655D01*
X90545Y293749D01*
X90478Y293833D01*
X90400Y293905D01*
X90323Y293966D01*
X90239Y294016D01*
X90156Y294060D01*
X90073Y294099D01*
X89995Y294127D01*
X89918Y294149D01*
X89845Y294166D01*
X89779Y294177D01*
X89723Y294182D01*
X89679Y294188D01*
X89640Y294193D01*
X89379D01*
Y290269D01*
D02*
G37*
%LPD*%
G36*
X114179Y341192D02*
X114173Y341258D01*
Y341352D01*
X114184Y341708D01*
X114195Y341869D01*
X114212Y342030D01*
X114229Y342174D01*
X114251Y342313D01*
X114273Y342440D01*
X114295Y342557D01*
X114318Y342668D01*
X114340Y342762D01*
X114362Y342840D01*
X114379Y342906D01*
X114395Y342962D01*
X114406Y343001D01*
X114417Y343023D01*
Y343034D01*
X114467Y343162D01*
X114578Y343395D01*
X114700Y343595D01*
X114761Y343683D01*
X114823Y343761D01*
X114878Y343833D01*
X114934Y343900D01*
X115033Y344000D01*
X115078Y344039D01*
X115133Y344094D01*
X115150Y344105D01*
X115156Y344111D01*
X115250Y344177D01*
X115344Y344233D01*
X115444Y344283D01*
X115544Y344327D01*
X115644Y344366D01*
X115744Y344394D01*
X115838Y344422D01*
X115933Y344438D01*
X116016Y344455D01*
X116094Y344466D01*
X116160Y344477D01*
X116221Y344483D01*
X116271Y344488D01*
X116338D01*
X116488Y344483D01*
X116626Y344466D01*
X116748Y344444D01*
X116948Y344394D01*
X117015Y344372D01*
X117037Y344360D01*
X117054Y344355D01*
X117065Y344349D01*
X117070D01*
X117181Y344288D01*
X117276Y344222D01*
X117348Y344155D01*
X117403Y344089D01*
X117448Y344033D01*
X117475Y343983D01*
X117492Y343950D01*
X117498Y343944D01*
Y343939D01*
X117542D01*
Y344394D01*
X118508D01*
Y341103D01*
X116410D01*
Y342074D01*
X117487D01*
X117481Y342224D01*
X117470Y342368D01*
X117448Y342490D01*
X117426Y342596D01*
X117403Y342684D01*
X117392Y342723D01*
X117381Y342751D01*
X117376Y342773D01*
X117370Y342790D01*
X117365Y342801D01*
Y342807D01*
X117315Y342912D01*
X117259Y343006D01*
X117203Y343090D01*
X117148Y343156D01*
X117059Y343245D01*
X117032Y343267D01*
X117020Y343273D01*
X116932Y343328D01*
X116843Y343367D01*
X116754Y343395D01*
X116676Y343411D01*
X116604Y343423D01*
X116543Y343434D01*
X116493D01*
X116388Y343428D01*
X116293Y343411D01*
X116205Y343384D01*
X116127Y343345D01*
X116055Y343306D01*
X115988Y343256D01*
X115927Y343206D01*
X115877Y343151D01*
X115833Y343101D01*
X115794Y343051D01*
X115761Y343001D01*
X115733Y342962D01*
X115716Y342923D01*
X115700Y342895D01*
X115694Y342879D01*
X115688Y342873D01*
X115649Y342762D01*
X115611Y342646D01*
X115555Y342396D01*
X115516Y342135D01*
X115500Y342013D01*
X115489Y341891D01*
X115478Y341780D01*
X115472Y341674D01*
X115466Y341580D01*
Y341497D01*
X115461Y341430D01*
Y341336D01*
X115466Y341169D01*
X115472Y341014D01*
X115483Y340864D01*
X115516Y340598D01*
X115539Y340481D01*
X115561Y340376D01*
X115583Y340276D01*
X115605Y340187D01*
X115622Y340109D01*
X115661Y339993D01*
X115677Y339948D01*
X115688Y339915D01*
X115700Y339898D01*
Y339893D01*
X115749Y339798D01*
X115805Y339715D01*
X115872Y339643D01*
X115938Y339582D01*
X116010Y339527D01*
X116082Y339488D01*
X116160Y339449D01*
X116232Y339421D01*
X116299Y339399D01*
X116366Y339382D01*
X116427Y339371D01*
X116477Y339360D01*
X116521D01*
X116554Y339354D01*
X116582D01*
X116699Y339360D01*
X116809Y339377D01*
X116915Y339404D01*
X117104Y339482D01*
X117187Y339532D01*
X117265Y339582D01*
X117331Y339632D01*
X117392Y339682D01*
X117448Y339732D01*
X117498Y339782D01*
X117564Y339860D01*
X117587Y339887D01*
X117598Y339904D01*
X117603Y339909D01*
X118408Y339282D01*
X118297Y339110D01*
X118169Y338960D01*
X118042Y338827D01*
X117975Y338766D01*
X117914Y338716D01*
X117858Y338666D01*
X117803Y338627D01*
X117753Y338589D01*
X117714Y338561D01*
X117681Y338539D01*
X117653Y338516D01*
X117636Y338511D01*
X117631Y338505D01*
X117536Y338450D01*
X117442Y338405D01*
X117342Y338367D01*
X117242Y338333D01*
X117048Y338278D01*
X116954Y338261D01*
X116787Y338228D01*
X116710Y338222D01*
X116643Y338217D01*
X116587Y338211D01*
X116543Y338206D01*
X116477D01*
X116338Y338211D01*
X116210Y338222D01*
X116082Y338239D01*
X115966Y338267D01*
X115855Y338294D01*
X115749Y338328D01*
X115655Y338361D01*
X115566Y338400D01*
X115489Y338433D01*
X115422Y338472D01*
X115361Y338505D01*
X115311Y338533D01*
X115267Y338561D01*
X115239Y338577D01*
X115222Y338589D01*
X115217Y338594D01*
X115122Y338672D01*
X115033Y338755D01*
X114950Y338838D01*
X114878Y338927D01*
X114806Y339021D01*
X114745Y339110D01*
X114684Y339205D01*
X114584Y339371D01*
X114512Y339515D01*
X114484Y339576D01*
X114462Y339626D01*
X114445Y339660D01*
X114440Y339687D01*
X114434Y339693D01*
X114390Y339826D01*
X114351Y339965D01*
X114284Y340248D01*
X114240Y340526D01*
X114218Y340659D01*
X114207Y340786D01*
X114195Y340903D01*
X114190Y341014D01*
X114179Y341108D01*
Y341192D01*
D02*
G37*
G36*
X119346Y338294D02*
Y344394D01*
X120611D01*
Y340714D01*
X121927Y344394D01*
X123397D01*
Y338294D01*
X122132D01*
Y342107D01*
X121954Y341486D01*
X120889Y338294D01*
X119346D01*
D02*
G37*
G36*
X124021Y291979D02*
X124016Y292045D01*
Y292140D01*
X124027Y292495D01*
X124038Y292656D01*
X124055Y292817D01*
X124071Y292961D01*
X124093Y293100D01*
X124116Y293228D01*
X124138Y293344D01*
X124160Y293455D01*
X124182Y293549D01*
X124204Y293627D01*
X124221Y293694D01*
X124238Y293749D01*
X124249Y293788D01*
X124260Y293810D01*
Y293822D01*
X124310Y293949D01*
X124421Y294182D01*
X124543Y294382D01*
X124604Y294471D01*
X124665Y294549D01*
X124721Y294621D01*
X124776Y294687D01*
X124876Y294787D01*
X124920Y294826D01*
X124976Y294882D01*
X124993Y294893D01*
X124998Y294898D01*
X125092Y294965D01*
X125187Y295020D01*
X125287Y295070D01*
X125387Y295115D01*
X125487Y295153D01*
X125586Y295181D01*
X125681Y295209D01*
X125775Y295226D01*
X125858Y295242D01*
X125936Y295253D01*
X126003Y295265D01*
X126064Y295270D01*
X126114Y295276D01*
X126180D01*
X126330Y295270D01*
X126469Y295253D01*
X126591Y295231D01*
X126791Y295181D01*
X126857Y295159D01*
X126880Y295148D01*
X126896Y295142D01*
X126907Y295137D01*
X126913D01*
X127024Y295076D01*
X127118Y295009D01*
X127190Y294943D01*
X127246Y294876D01*
X127290Y294820D01*
X127318Y294771D01*
X127335Y294737D01*
X127340Y294732D01*
Y294726D01*
X127385D01*
Y295181D01*
X128350D01*
Y291890D01*
X126252D01*
Y292861D01*
X127329D01*
X127324Y293011D01*
X127312Y293156D01*
X127290Y293278D01*
X127268Y293383D01*
X127246Y293472D01*
X127235Y293511D01*
X127224Y293538D01*
X127218Y293561D01*
X127213Y293577D01*
X127207Y293588D01*
Y293594D01*
X127157Y293699D01*
X127102Y293794D01*
X127046Y293877D01*
X126991Y293944D01*
X126902Y294032D01*
X126874Y294055D01*
X126863Y294060D01*
X126774Y294116D01*
X126685Y294155D01*
X126596Y294182D01*
X126519Y294199D01*
X126447Y294210D01*
X126386Y294221D01*
X126336D01*
X126230Y294215D01*
X126136Y294199D01*
X126047Y294171D01*
X125969Y294132D01*
X125897Y294093D01*
X125831Y294043D01*
X125770Y293993D01*
X125720Y293938D01*
X125675Y293888D01*
X125636Y293838D01*
X125603Y293788D01*
X125575Y293749D01*
X125559Y293710D01*
X125542Y293683D01*
X125536Y293666D01*
X125531Y293660D01*
X125492Y293549D01*
X125453Y293433D01*
X125398Y293183D01*
X125359Y292922D01*
X125342Y292800D01*
X125331Y292678D01*
X125320Y292567D01*
X125314Y292462D01*
X125309Y292367D01*
Y292284D01*
X125303Y292217D01*
Y292123D01*
X125309Y291957D01*
X125314Y291801D01*
X125326Y291651D01*
X125359Y291385D01*
X125381Y291268D01*
X125403Y291163D01*
X125426Y291063D01*
X125448Y290974D01*
X125464Y290897D01*
X125503Y290780D01*
X125520Y290736D01*
X125531Y290702D01*
X125542Y290686D01*
Y290680D01*
X125592Y290586D01*
X125647Y290503D01*
X125714Y290430D01*
X125781Y290369D01*
X125853Y290314D01*
X125925Y290275D01*
X126003Y290236D01*
X126075Y290208D01*
X126141Y290186D01*
X126208Y290170D01*
X126269Y290159D01*
X126319Y290147D01*
X126363D01*
X126397Y290142D01*
X126425D01*
X126541Y290147D01*
X126652Y290164D01*
X126757Y290192D01*
X126946Y290269D01*
X127029Y290319D01*
X127107Y290369D01*
X127174Y290419D01*
X127235Y290469D01*
X127290Y290519D01*
X127340Y290569D01*
X127407Y290647D01*
X127429Y290675D01*
X127440Y290691D01*
X127446Y290697D01*
X128250Y290070D01*
X128139Y289898D01*
X128012Y289748D01*
X127884Y289615D01*
X127817Y289553D01*
X127756Y289504D01*
X127701Y289454D01*
X127646Y289415D01*
X127595Y289376D01*
X127557Y289348D01*
X127523Y289326D01*
X127496Y289304D01*
X127479Y289298D01*
X127473Y289293D01*
X127379Y289237D01*
X127285Y289193D01*
X127185Y289154D01*
X127085Y289121D01*
X126891Y289065D01*
X126796Y289049D01*
X126630Y289015D01*
X126552Y289010D01*
X126486Y289004D01*
X126430Y288999D01*
X126386Y288993D01*
X126319D01*
X126180Y288999D01*
X126053Y289010D01*
X125925Y289026D01*
X125808Y289054D01*
X125697Y289082D01*
X125592Y289115D01*
X125498Y289148D01*
X125409Y289187D01*
X125331Y289220D01*
X125265Y289259D01*
X125203Y289293D01*
X125154Y289320D01*
X125109Y289348D01*
X125081Y289365D01*
X125065Y289376D01*
X125059Y289382D01*
X124965Y289459D01*
X124876Y289542D01*
X124793Y289626D01*
X124721Y289715D01*
X124648Y289809D01*
X124587Y289898D01*
X124526Y289992D01*
X124426Y290159D01*
X124354Y290303D01*
X124327Y290364D01*
X124304Y290414D01*
X124288Y290447D01*
X124282Y290475D01*
X124277Y290480D01*
X124232Y290614D01*
X124193Y290752D01*
X124127Y291035D01*
X124082Y291313D01*
X124060Y291446D01*
X124049Y291574D01*
X124038Y291690D01*
X124032Y291801D01*
X124021Y291896D01*
Y291979D01*
D02*
G37*
G36*
X124357Y338294D02*
Y344394D01*
X125717D01*
X125906Y344388D01*
X126084Y344383D01*
X126256Y344366D01*
X126411Y344344D01*
X126555Y344322D01*
X126694Y344294D01*
X126816Y344266D01*
X126927Y344238D01*
X127027Y344211D01*
X127116Y344183D01*
X127193Y344155D01*
X127255Y344133D01*
X127304Y344111D01*
X127338Y344094D01*
X127360Y344089D01*
X127366Y344083D01*
X127477Y344022D01*
X127582Y343950D01*
X127682Y343878D01*
X127771Y343800D01*
X127926Y343634D01*
X127993Y343556D01*
X128054Y343473D01*
X128104Y343400D01*
X128148Y343328D01*
X128187Y343267D01*
X128215Y343212D01*
X128243Y343167D01*
X128259Y343128D01*
X128265Y343106D01*
X128270Y343101D01*
X128320Y342968D01*
X128365Y342829D01*
X128403Y342684D01*
X128437Y342535D01*
X128487Y342235D01*
X128503Y342091D01*
X128520Y341952D01*
X128531Y341819D01*
X128537Y341697D01*
X128542Y341585D01*
X128548Y341491D01*
X128553Y341413D01*
Y341308D01*
X128548Y341103D01*
X128542Y340914D01*
X128525Y340731D01*
X128503Y340564D01*
X128481Y340403D01*
X128459Y340259D01*
X128431Y340126D01*
X128403Y340004D01*
X128370Y339898D01*
X128342Y339804D01*
X128320Y339726D01*
X128298Y339660D01*
X128276Y339604D01*
X128259Y339565D01*
X128254Y339543D01*
X128248Y339538D01*
X128187Y339416D01*
X128120Y339304D01*
X128048Y339205D01*
X127976Y339110D01*
X127904Y339027D01*
X127826Y338949D01*
X127749Y338877D01*
X127676Y338816D01*
X127610Y338761D01*
X127543Y338716D01*
X127488Y338677D01*
X127438Y338644D01*
X127393Y338622D01*
X127366Y338600D01*
X127343Y338594D01*
X127338Y338589D01*
X127221Y338539D01*
X127099Y338489D01*
X126971Y338450D01*
X126838Y338417D01*
X126583Y338367D01*
X126455Y338344D01*
X126333Y338333D01*
X126222Y338317D01*
X126117Y338311D01*
X126023Y338305D01*
X125939Y338300D01*
X125878Y338294D01*
X124357D01*
D02*
G37*
%LPC*%
G36*
X125639Y339388D02*
X125939D01*
X126050Y339393D01*
X126156Y339410D01*
X126256Y339438D01*
X126344Y339471D01*
X126433Y339515D01*
X126511Y339565D01*
X126583Y339626D01*
X126650Y339687D01*
X126716Y339760D01*
X126772Y339832D01*
X126872Y339998D01*
X126955Y340170D01*
X127016Y340348D01*
X127066Y340531D01*
X127105Y340703D01*
X127132Y340864D01*
X127144Y340942D01*
X127155Y341014D01*
X127166Y341136D01*
Y341186D01*
X127171Y341230D01*
Y341314D01*
X127166Y341480D01*
X127160Y341641D01*
X127144Y341791D01*
X127121Y341930D01*
X127099Y342057D01*
X127077Y342179D01*
X127049Y342285D01*
X127022Y342385D01*
X126988Y342474D01*
X126960Y342551D01*
X126938Y342618D01*
X126916Y342673D01*
X126894Y342718D01*
X126877Y342745D01*
X126872Y342768D01*
X126866Y342773D01*
X126805Y342868D01*
X126738Y342951D01*
X126661Y343023D01*
X126583Y343084D01*
X126500Y343134D01*
X126417Y343178D01*
X126333Y343217D01*
X126256Y343245D01*
X126178Y343267D01*
X126106Y343284D01*
X126039Y343295D01*
X125984Y343301D01*
X125939Y343306D01*
X125900Y343312D01*
X125639D01*
Y339388D01*
D02*
G37*
%LPD*%
G36*
X129188Y289082D02*
Y295181D01*
X130454D01*
Y291502D01*
X131769Y295181D01*
X133240D01*
Y289082D01*
X131974D01*
Y292895D01*
X131797Y292273D01*
X130731Y289082D01*
X129188D01*
D02*
G37*
G36*
X133858Y338389D02*
X135390Y344488D01*
X136667D01*
X138204Y338389D01*
X136883D01*
X136039Y342579D01*
X135196Y338389D01*
X133858D01*
D02*
G37*
G36*
X134200Y289082D02*
Y295181D01*
X135560D01*
X135749Y295176D01*
X135926Y295170D01*
X136098Y295153D01*
X136253Y295131D01*
X136398Y295109D01*
X136537Y295081D01*
X136659Y295054D01*
X136770Y295026D01*
X136870Y294998D01*
X136958Y294970D01*
X137036Y294943D01*
X137097Y294920D01*
X137147Y294898D01*
X137180Y294882D01*
X137203Y294876D01*
X137208Y294870D01*
X137319Y294809D01*
X137425Y294737D01*
X137524Y294665D01*
X137613Y294587D01*
X137769Y294421D01*
X137835Y294343D01*
X137896Y294260D01*
X137946Y294188D01*
X137991Y294116D01*
X138030Y294055D01*
X138057Y293999D01*
X138085Y293955D01*
X138102Y293916D01*
X138107Y293894D01*
X138113Y293888D01*
X138163Y293755D01*
X138207Y293616D01*
X138246Y293472D01*
X138279Y293322D01*
X138329Y293022D01*
X138346Y292878D01*
X138363Y292739D01*
X138374Y292606D01*
X138379Y292484D01*
X138385Y292373D01*
X138390Y292279D01*
X138396Y292201D01*
Y292095D01*
X138390Y291890D01*
X138385Y291701D01*
X138368Y291518D01*
X138346Y291352D01*
X138324Y291191D01*
X138301Y291047D01*
X138274Y290913D01*
X138246Y290791D01*
X138213Y290686D01*
X138185Y290591D01*
X138163Y290514D01*
X138140Y290447D01*
X138118Y290392D01*
X138102Y290353D01*
X138096Y290331D01*
X138091Y290325D01*
X138030Y290203D01*
X137963Y290092D01*
X137891Y289992D01*
X137819Y289898D01*
X137747Y289814D01*
X137669Y289737D01*
X137591Y289665D01*
X137519Y289603D01*
X137452Y289548D01*
X137386Y289504D01*
X137330Y289465D01*
X137280Y289431D01*
X137236Y289409D01*
X137208Y289387D01*
X137186Y289382D01*
X137180Y289376D01*
X137064Y289326D01*
X136942Y289276D01*
X136814Y289237D01*
X136681Y289204D01*
X136425Y289154D01*
X136298Y289132D01*
X136176Y289121D01*
X136065Y289104D01*
X135959Y289098D01*
X135865Y289093D01*
X135782Y289087D01*
X135721Y289082D01*
X134200D01*
D02*
G37*
%LPC*%
G36*
X135482Y290175D02*
X135782D01*
X135893Y290181D01*
X135998Y290197D01*
X136098Y290225D01*
X136187Y290258D01*
X136276Y290303D01*
X136353Y290353D01*
X136425Y290414D01*
X136492Y290475D01*
X136559Y290547D01*
X136614Y290619D01*
X136714Y290786D01*
X136797Y290958D01*
X136858Y291135D01*
X136908Y291318D01*
X136947Y291491D01*
X136975Y291651D01*
X136986Y291729D01*
X136997Y291801D01*
X137008Y291923D01*
Y291973D01*
X137014Y292018D01*
Y292101D01*
X137008Y292267D01*
X137003Y292428D01*
X136986Y292578D01*
X136964Y292717D01*
X136942Y292845D01*
X136919Y292967D01*
X136892Y293072D01*
X136864Y293172D01*
X136831Y293261D01*
X136803Y293339D01*
X136781Y293405D01*
X136758Y293461D01*
X136736Y293505D01*
X136720Y293533D01*
X136714Y293555D01*
X136709Y293561D01*
X136648Y293655D01*
X136581Y293738D01*
X136503Y293810D01*
X136425Y293871D01*
X136342Y293921D01*
X136259Y293966D01*
X136176Y294005D01*
X136098Y294032D01*
X136020Y294055D01*
X135948Y294071D01*
X135882Y294082D01*
X135826Y294088D01*
X135782Y294093D01*
X135743Y294099D01*
X135482D01*
Y290175D01*
D02*
G37*
%LPD*%
G36*
X139153Y338389D02*
Y344488D01*
X143188D01*
Y343328D01*
X140441D01*
Y338389D01*
X139153D01*
D02*
G37*
G36*
X143701Y289176D02*
X145233Y295276D01*
X146509D01*
X148046Y289176D01*
X146725D01*
X145882Y293366D01*
X145038Y289176D01*
X143701D01*
D02*
G37*
G36*
X144104Y338389D02*
Y344488D01*
X148188D01*
Y343406D01*
X145386D01*
Y341907D01*
X147922D01*
Y340809D01*
X145386D01*
Y339482D01*
X148066D01*
Y338389D01*
X144104D01*
D02*
G37*
G36*
X148995Y289176D02*
Y295276D01*
X153030D01*
Y294116D01*
X150283D01*
Y289176D01*
X148995D01*
D02*
G37*
G36*
X149121Y338389D02*
Y344488D01*
X150480D01*
X150669Y344483D01*
X150847Y344477D01*
X151019Y344460D01*
X151174Y344438D01*
X151319Y344416D01*
X151457Y344388D01*
X151579Y344360D01*
X151690Y344333D01*
X151790Y344305D01*
X151879Y344277D01*
X151957Y344250D01*
X152018Y344227D01*
X152068Y344205D01*
X152101Y344188D01*
X152123Y344183D01*
X152129Y344177D01*
X152240Y344116D01*
X152345Y344044D01*
X152445Y343972D01*
X152534Y343894D01*
X152689Y343728D01*
X152756Y343650D01*
X152817Y343567D01*
X152867Y343495D01*
X152911Y343423D01*
X152950Y343361D01*
X152978Y343306D01*
X153006Y343262D01*
X153022Y343223D01*
X153028Y343201D01*
X153033Y343195D01*
X153084Y343062D01*
X153128Y342923D01*
X153167Y342779D01*
X153200Y342629D01*
X153250Y342329D01*
X153267Y342185D01*
X153283Y342046D01*
X153294Y341913D01*
X153300Y341791D01*
X153305Y341680D01*
X153311Y341585D01*
X153317Y341508D01*
Y341402D01*
X153311Y341197D01*
X153305Y341008D01*
X153289Y340825D01*
X153267Y340659D01*
X153244Y340498D01*
X153222Y340353D01*
X153194Y340220D01*
X153167Y340098D01*
X153133Y339993D01*
X153106Y339898D01*
X153084Y339821D01*
X153061Y339754D01*
X153039Y339699D01*
X153022Y339660D01*
X153017Y339637D01*
X153011Y339632D01*
X152950Y339510D01*
X152884Y339399D01*
X152812Y339299D01*
X152739Y339205D01*
X152667Y339121D01*
X152589Y339044D01*
X152512Y338971D01*
X152440Y338910D01*
X152373Y338855D01*
X152306Y338810D01*
X152251Y338772D01*
X152201Y338738D01*
X152157Y338716D01*
X152129Y338694D01*
X152107Y338688D01*
X152101Y338683D01*
X151985Y338633D01*
X151863Y338583D01*
X151735Y338544D01*
X151602Y338511D01*
X151346Y338461D01*
X151219Y338439D01*
X151097Y338428D01*
X150986Y338411D01*
X150880Y338405D01*
X150786Y338400D01*
X150703Y338394D01*
X150642Y338389D01*
X149121D01*
D02*
G37*
%LPC*%
G36*
X150403Y339482D02*
X150703D01*
X150813Y339488D01*
X150919Y339504D01*
X151019Y339532D01*
X151108Y339565D01*
X151197Y339610D01*
X151274Y339660D01*
X151346Y339721D01*
X151413Y339782D01*
X151479Y339854D01*
X151535Y339926D01*
X151635Y340093D01*
X151718Y340265D01*
X151779Y340442D01*
X151829Y340625D01*
X151868Y340797D01*
X151896Y340958D01*
X151907Y341036D01*
X151918Y341108D01*
X151929Y341230D01*
Y341280D01*
X151935Y341325D01*
Y341408D01*
X151929Y341574D01*
X151924Y341735D01*
X151907Y341885D01*
X151885Y342024D01*
X151863Y342152D01*
X151840Y342274D01*
X151813Y342379D01*
X151785Y342479D01*
X151751Y342568D01*
X151724Y342646D01*
X151701Y342712D01*
X151679Y342768D01*
X151657Y342812D01*
X151640Y342840D01*
X151635Y342862D01*
X151629Y342868D01*
X151568Y342962D01*
X151502Y343045D01*
X151424Y343117D01*
X151346Y343178D01*
X151263Y343228D01*
X151180Y343273D01*
X151097Y343312D01*
X151019Y343339D01*
X150941Y343361D01*
X150869Y343378D01*
X150802Y343389D01*
X150747Y343395D01*
X150703Y343400D01*
X150664Y343406D01*
X150403D01*
Y339482D01*
D02*
G37*
%LPD*%
G36*
X153946Y289176D02*
Y295276D01*
X158031D01*
Y294193D01*
X155228D01*
Y292695D01*
X157764D01*
Y291596D01*
X155228D01*
Y290269D01*
X157909D01*
Y289176D01*
X153946D01*
D02*
G37*
G36*
X158963D02*
Y295276D01*
X160323D01*
X160512Y295270D01*
X160689Y295265D01*
X160861Y295248D01*
X161017Y295226D01*
X161161Y295203D01*
X161300Y295176D01*
X161422Y295148D01*
X161533Y295120D01*
X161633Y295092D01*
X161722Y295065D01*
X161799Y295037D01*
X161860Y295015D01*
X161910Y294992D01*
X161944Y294976D01*
X161966Y294970D01*
X161971Y294965D01*
X162082Y294904D01*
X162188Y294832D01*
X162288Y294759D01*
X162376Y294682D01*
X162532Y294515D01*
X162599Y294438D01*
X162660Y294354D01*
X162709Y294282D01*
X162754Y294210D01*
X162793Y294149D01*
X162820Y294093D01*
X162848Y294049D01*
X162865Y294010D01*
X162871Y293988D01*
X162876Y293982D01*
X162926Y293849D01*
X162970Y293710D01*
X163009Y293566D01*
X163042Y293416D01*
X163093Y293117D01*
X163109Y292972D01*
X163126Y292834D01*
X163137Y292700D01*
X163142Y292578D01*
X163148Y292467D01*
X163154Y292373D01*
X163159Y292295D01*
Y292190D01*
X163154Y291984D01*
X163148Y291796D01*
X163131Y291613D01*
X163109Y291446D01*
X163087Y291285D01*
X163065Y291141D01*
X163037Y291008D01*
X163009Y290885D01*
X162976Y290780D01*
X162948Y290686D01*
X162926Y290608D01*
X162904Y290541D01*
X162882Y290486D01*
X162865Y290447D01*
X162859Y290425D01*
X162854Y290419D01*
X162793Y290297D01*
X162726Y290186D01*
X162654Y290086D01*
X162582Y289992D01*
X162510Y289909D01*
X162432Y289831D01*
X162354Y289759D01*
X162282Y289698D01*
X162216Y289642D01*
X162149Y289598D01*
X162093Y289559D01*
X162043Y289526D01*
X161999Y289504D01*
X161971Y289481D01*
X161949Y289476D01*
X161944Y289470D01*
X161827Y289420D01*
X161705Y289370D01*
X161577Y289332D01*
X161444Y289298D01*
X161189Y289248D01*
X161061Y289226D01*
X160939Y289215D01*
X160828Y289198D01*
X160723Y289193D01*
X160628Y289187D01*
X160545Y289182D01*
X160484Y289176D01*
X158963D01*
D02*
G37*
%LPC*%
G36*
X160245Y290269D02*
X160545D01*
X160656Y290275D01*
X160761Y290292D01*
X160861Y290319D01*
X160950Y290353D01*
X161039Y290397D01*
X161117Y290447D01*
X161189Y290508D01*
X161255Y290569D01*
X161322Y290641D01*
X161378Y290714D01*
X161477Y290880D01*
X161561Y291052D01*
X161622Y291230D01*
X161672Y291413D01*
X161711Y291585D01*
X161738Y291746D01*
X161749Y291824D01*
X161760Y291896D01*
X161772Y292018D01*
Y292068D01*
X161777Y292112D01*
Y292195D01*
X161772Y292362D01*
X161766Y292523D01*
X161749Y292673D01*
X161727Y292811D01*
X161705Y292939D01*
X161683Y293061D01*
X161655Y293167D01*
X161627Y293267D01*
X161594Y293355D01*
X161566Y293433D01*
X161544Y293500D01*
X161522Y293555D01*
X161500Y293600D01*
X161483Y293627D01*
X161477Y293649D01*
X161472Y293655D01*
X161411Y293749D01*
X161344Y293833D01*
X161267Y293905D01*
X161189Y293966D01*
X161106Y294016D01*
X161022Y294060D01*
X160939Y294099D01*
X160861Y294127D01*
X160784Y294149D01*
X160712Y294166D01*
X160645Y294177D01*
X160589Y294182D01*
X160545Y294188D01*
X160506Y294193D01*
X160245D01*
Y290269D01*
D02*
G37*
%LPD*%
G36*
X185045Y341192D02*
X185039Y341258D01*
Y341352D01*
X185050Y341708D01*
X185062Y341869D01*
X185078Y342030D01*
X185095Y342174D01*
X185117Y342313D01*
X185139Y342440D01*
X185161Y342557D01*
X185184Y342668D01*
X185206Y342762D01*
X185228Y342840D01*
X185245Y342906D01*
X185261Y342962D01*
X185273Y343001D01*
X185284Y343023D01*
Y343034D01*
X185334Y343162D01*
X185444Y343395D01*
X185567Y343595D01*
X185628Y343683D01*
X185689Y343761D01*
X185744Y343833D01*
X185800Y343900D01*
X185900Y344000D01*
X185944Y344039D01*
X186000Y344094D01*
X186016Y344105D01*
X186022Y344111D01*
X186116Y344177D01*
X186210Y344233D01*
X186310Y344283D01*
X186410Y344327D01*
X186510Y344366D01*
X186610Y344394D01*
X186704Y344422D01*
X186799Y344438D01*
X186882Y344455D01*
X186960Y344466D01*
X187026Y344477D01*
X187087Y344483D01*
X187137Y344488D01*
X187204D01*
X187354Y344483D01*
X187493Y344466D01*
X187615Y344444D01*
X187814Y344394D01*
X187881Y344372D01*
X187903Y344360D01*
X187920Y344355D01*
X187931Y344349D01*
X187936D01*
X188048Y344288D01*
X188142Y344222D01*
X188214Y344155D01*
X188269Y344089D01*
X188314Y344033D01*
X188342Y343983D01*
X188358Y343950D01*
X188364Y343944D01*
Y343939D01*
X188408D01*
Y344394D01*
X189374D01*
Y341103D01*
X187276D01*
Y342074D01*
X188353D01*
X188347Y342224D01*
X188336Y342368D01*
X188314Y342490D01*
X188292Y342596D01*
X188269Y342684D01*
X188258Y342723D01*
X188247Y342751D01*
X188242Y342773D01*
X188236Y342790D01*
X188231Y342801D01*
Y342807D01*
X188181Y342912D01*
X188125Y343006D01*
X188070Y343090D01*
X188014Y343156D01*
X187925Y343245D01*
X187898Y343267D01*
X187887Y343273D01*
X187798Y343328D01*
X187709Y343367D01*
X187620Y343395D01*
X187542Y343411D01*
X187470Y343423D01*
X187409Y343434D01*
X187359D01*
X187254Y343428D01*
X187160Y343411D01*
X187071Y343384D01*
X186993Y343345D01*
X186921Y343306D01*
X186854Y343256D01*
X186793Y343206D01*
X186743Y343151D01*
X186699Y343101D01*
X186660Y343051D01*
X186627Y343001D01*
X186599Y342962D01*
X186582Y342923D01*
X186566Y342895D01*
X186560Y342879D01*
X186555Y342873D01*
X186516Y342762D01*
X186477Y342646D01*
X186421Y342396D01*
X186382Y342135D01*
X186366Y342013D01*
X186355Y341891D01*
X186344Y341780D01*
X186338Y341674D01*
X186332Y341580D01*
Y341497D01*
X186327Y341430D01*
Y341336D01*
X186332Y341169D01*
X186338Y341014D01*
X186349Y340864D01*
X186382Y340598D01*
X186405Y340481D01*
X186427Y340376D01*
X186449Y340276D01*
X186471Y340187D01*
X186488Y340109D01*
X186527Y339993D01*
X186543Y339948D01*
X186555Y339915D01*
X186566Y339898D01*
Y339893D01*
X186616Y339798D01*
X186671Y339715D01*
X186738Y339643D01*
X186804Y339582D01*
X186876Y339527D01*
X186949Y339488D01*
X187026Y339449D01*
X187098Y339421D01*
X187165Y339399D01*
X187232Y339382D01*
X187293Y339371D01*
X187343Y339360D01*
X187387D01*
X187420Y339354D01*
X187448D01*
X187565Y339360D01*
X187676Y339377D01*
X187781Y339404D01*
X187970Y339482D01*
X188053Y339532D01*
X188131Y339582D01*
X188197Y339632D01*
X188258Y339682D01*
X188314Y339732D01*
X188364Y339782D01*
X188430Y339860D01*
X188453Y339887D01*
X188464Y339904D01*
X188469Y339909D01*
X189274Y339282D01*
X189163Y339110D01*
X189035Y338960D01*
X188908Y338827D01*
X188841Y338766D01*
X188780Y338716D01*
X188725Y338666D01*
X188669Y338627D01*
X188619Y338589D01*
X188580Y338561D01*
X188547Y338539D01*
X188519Y338516D01*
X188503Y338511D01*
X188497Y338505D01*
X188403Y338450D01*
X188308Y338405D01*
X188208Y338367D01*
X188109Y338333D01*
X187914Y338278D01*
X187820Y338261D01*
X187653Y338228D01*
X187576Y338222D01*
X187509Y338217D01*
X187454Y338211D01*
X187409Y338206D01*
X187343D01*
X187204Y338211D01*
X187076Y338222D01*
X186949Y338239D01*
X186832Y338267D01*
X186721Y338294D01*
X186616Y338328D01*
X186521Y338361D01*
X186432Y338400D01*
X186355Y338433D01*
X186288Y338472D01*
X186227Y338505D01*
X186177Y338533D01*
X186133Y338561D01*
X186105Y338577D01*
X186088Y338589D01*
X186083Y338594D01*
X185988Y338672D01*
X185900Y338755D01*
X185816Y338838D01*
X185744Y338927D01*
X185672Y339021D01*
X185611Y339110D01*
X185550Y339205D01*
X185450Y339371D01*
X185378Y339515D01*
X185350Y339576D01*
X185328Y339626D01*
X185311Y339660D01*
X185306Y339687D01*
X185300Y339693D01*
X185256Y339826D01*
X185217Y339965D01*
X185150Y340248D01*
X185106Y340526D01*
X185084Y340659D01*
X185073Y340786D01*
X185062Y340903D01*
X185056Y341014D01*
X185045Y341108D01*
Y341192D01*
D02*
G37*
G36*
X190212Y338294D02*
Y344394D01*
X191477D01*
Y340714D01*
X192793Y344394D01*
X194264D01*
Y338294D01*
X192998D01*
Y342107D01*
X192821Y341486D01*
X191755Y338294D01*
X190212D01*
D02*
G37*
G36*
X194887Y291979D02*
X194882Y292045D01*
Y292140D01*
X194893Y292495D01*
X194904Y292656D01*
X194921Y292817D01*
X194937Y292961D01*
X194960Y293100D01*
X194982Y293228D01*
X195004Y293344D01*
X195026Y293455D01*
X195048Y293549D01*
X195071Y293627D01*
X195087Y293694D01*
X195104Y293749D01*
X195115Y293788D01*
X195126Y293810D01*
Y293822D01*
X195176Y293949D01*
X195287Y294182D01*
X195409Y294382D01*
X195470Y294471D01*
X195531Y294549D01*
X195587Y294621D01*
X195642Y294687D01*
X195742Y294787D01*
X195787Y294826D01*
X195842Y294882D01*
X195859Y294893D01*
X195864Y294898D01*
X195959Y294965D01*
X196053Y295020D01*
X196153Y295070D01*
X196253Y295115D01*
X196353Y295153D01*
X196452Y295181D01*
X196547Y295209D01*
X196641Y295226D01*
X196724Y295242D01*
X196802Y295253D01*
X196869Y295265D01*
X196930Y295270D01*
X196980Y295276D01*
X197046D01*
X197196Y295270D01*
X197335Y295253D01*
X197457Y295231D01*
X197657Y295181D01*
X197723Y295159D01*
X197746Y295148D01*
X197762Y295142D01*
X197774Y295137D01*
X197779D01*
X197890Y295076D01*
X197984Y295009D01*
X198056Y294943D01*
X198112Y294876D01*
X198156Y294820D01*
X198184Y294771D01*
X198201Y294737D01*
X198206Y294732D01*
Y294726D01*
X198251D01*
Y295181D01*
X199216D01*
Y291890D01*
X197119D01*
Y292861D01*
X198195D01*
X198190Y293011D01*
X198179Y293156D01*
X198156Y293278D01*
X198134Y293383D01*
X198112Y293472D01*
X198101Y293511D01*
X198090Y293538D01*
X198084Y293561D01*
X198079Y293577D01*
X198073Y293588D01*
Y293594D01*
X198023Y293699D01*
X197968Y293794D01*
X197912Y293877D01*
X197857Y293944D01*
X197768Y294032D01*
X197740Y294055D01*
X197729Y294060D01*
X197640Y294116D01*
X197551Y294155D01*
X197463Y294182D01*
X197385Y294199D01*
X197313Y294210D01*
X197252Y294221D01*
X197202D01*
X197096Y294215D01*
X197002Y294199D01*
X196913Y294171D01*
X196835Y294132D01*
X196763Y294093D01*
X196697Y294043D01*
X196636Y293993D01*
X196586Y293938D01*
X196541Y293888D01*
X196502Y293838D01*
X196469Y293788D01*
X196441Y293749D01*
X196425Y293710D01*
X196408Y293683D01*
X196403Y293666D01*
X196397Y293660D01*
X196358Y293549D01*
X196319Y293433D01*
X196264Y293183D01*
X196225Y292922D01*
X196208Y292800D01*
X196197Y292678D01*
X196186Y292567D01*
X196181Y292462D01*
X196175Y292367D01*
Y292284D01*
X196169Y292217D01*
Y292123D01*
X196175Y291957D01*
X196181Y291801D01*
X196192Y291651D01*
X196225Y291385D01*
X196247Y291268D01*
X196269Y291163D01*
X196292Y291063D01*
X196314Y290974D01*
X196330Y290897D01*
X196369Y290780D01*
X196386Y290736D01*
X196397Y290702D01*
X196408Y290686D01*
Y290680D01*
X196458Y290586D01*
X196514Y290503D01*
X196580Y290430D01*
X196647Y290369D01*
X196719Y290314D01*
X196791Y290275D01*
X196869Y290236D01*
X196941Y290208D01*
X197008Y290186D01*
X197074Y290170D01*
X197135Y290159D01*
X197185Y290147D01*
X197230D01*
X197263Y290142D01*
X197291D01*
X197407Y290147D01*
X197518Y290164D01*
X197624Y290192D01*
X197812Y290269D01*
X197896Y290319D01*
X197973Y290369D01*
X198040Y290419D01*
X198101Y290469D01*
X198156Y290519D01*
X198206Y290569D01*
X198273Y290647D01*
X198295Y290675D01*
X198306Y290691D01*
X198312Y290697D01*
X199117Y290070D01*
X199005Y289898D01*
X198878Y289748D01*
X198750Y289615D01*
X198684Y289553D01*
X198623Y289504D01*
X198567Y289454D01*
X198512Y289415D01*
X198462Y289376D01*
X198423Y289348D01*
X198389Y289326D01*
X198362Y289304D01*
X198345Y289298D01*
X198340Y289293D01*
X198245Y289237D01*
X198151Y289193D01*
X198051Y289154D01*
X197951Y289121D01*
X197757Y289065D01*
X197662Y289049D01*
X197496Y289015D01*
X197418Y289010D01*
X197352Y289004D01*
X197296Y288999D01*
X197252Y288993D01*
X197185D01*
X197046Y288999D01*
X196919Y289010D01*
X196791Y289026D01*
X196675Y289054D01*
X196564Y289082D01*
X196458Y289115D01*
X196364Y289148D01*
X196275Y289187D01*
X196197Y289220D01*
X196131Y289259D01*
X196070Y289293D01*
X196020Y289320D01*
X195975Y289348D01*
X195948Y289365D01*
X195931Y289376D01*
X195925Y289382D01*
X195831Y289459D01*
X195742Y289542D01*
X195659Y289626D01*
X195587Y289715D01*
X195515Y289809D01*
X195454Y289898D01*
X195393Y289992D01*
X195293Y290159D01*
X195220Y290303D01*
X195193Y290364D01*
X195170Y290414D01*
X195154Y290447D01*
X195148Y290475D01*
X195143Y290480D01*
X195098Y290614D01*
X195060Y290752D01*
X194993Y291035D01*
X194948Y291313D01*
X194926Y291446D01*
X194915Y291574D01*
X194904Y291690D01*
X194899Y291801D01*
X194887Y291896D01*
Y291979D01*
D02*
G37*
G36*
X195224Y338294D02*
Y344394D01*
X196583D01*
X196772Y344388D01*
X196950Y344383D01*
X197122Y344366D01*
X197277Y344344D01*
X197421Y344322D01*
X197560Y344294D01*
X197682Y344266D01*
X197793Y344238D01*
X197893Y344211D01*
X197982Y344183D01*
X198060Y344155D01*
X198121Y344133D01*
X198171Y344111D01*
X198204Y344094D01*
X198226Y344089D01*
X198232Y344083D01*
X198343Y344022D01*
X198448Y343950D01*
X198548Y343878D01*
X198637Y343800D01*
X198792Y343634D01*
X198859Y343556D01*
X198920Y343473D01*
X198970Y343400D01*
X199014Y343328D01*
X199053Y343267D01*
X199081Y343212D01*
X199109Y343167D01*
X199125Y343128D01*
X199131Y343106D01*
X199136Y343101D01*
X199186Y342968D01*
X199231Y342829D01*
X199270Y342684D01*
X199303Y342535D01*
X199353Y342235D01*
X199370Y342091D01*
X199386Y341952D01*
X199397Y341819D01*
X199403Y341697D01*
X199408Y341585D01*
X199414Y341491D01*
X199419Y341413D01*
Y341308D01*
X199414Y341103D01*
X199408Y340914D01*
X199392Y340731D01*
X199370Y340564D01*
X199347Y340403D01*
X199325Y340259D01*
X199297Y340126D01*
X199270Y340004D01*
X199236Y339898D01*
X199208Y339804D01*
X199186Y339726D01*
X199164Y339660D01*
X199142Y339604D01*
X199125Y339565D01*
X199120Y339543D01*
X199114Y339538D01*
X199053Y339416D01*
X198986Y339304D01*
X198914Y339205D01*
X198842Y339110D01*
X198770Y339027D01*
X198692Y338949D01*
X198615Y338877D01*
X198542Y338816D01*
X198476Y338761D01*
X198409Y338716D01*
X198354Y338677D01*
X198304Y338644D01*
X198259Y338622D01*
X198232Y338600D01*
X198210Y338594D01*
X198204Y338589D01*
X198087Y338539D01*
X197965Y338489D01*
X197838Y338450D01*
X197705Y338417D01*
X197449Y338367D01*
X197321Y338344D01*
X197199Y338333D01*
X197088Y338317D01*
X196983Y338311D01*
X196889Y338305D01*
X196805Y338300D01*
X196744Y338294D01*
X195224D01*
D02*
G37*
%LPC*%
G36*
X196506Y339388D02*
X196805D01*
X196916Y339393D01*
X197022Y339410D01*
X197122Y339438D01*
X197211Y339471D01*
X197299Y339515D01*
X197377Y339565D01*
X197449Y339626D01*
X197516Y339687D01*
X197582Y339760D01*
X197638Y339832D01*
X197738Y339998D01*
X197821Y340170D01*
X197882Y340348D01*
X197932Y340531D01*
X197971Y340703D01*
X197999Y340864D01*
X198010Y340942D01*
X198021Y341014D01*
X198032Y341136D01*
Y341186D01*
X198038Y341230D01*
Y341314D01*
X198032Y341480D01*
X198026Y341641D01*
X198010Y341791D01*
X197987Y341930D01*
X197965Y342057D01*
X197943Y342179D01*
X197915Y342285D01*
X197888Y342385D01*
X197854Y342474D01*
X197827Y342551D01*
X197804Y342618D01*
X197782Y342673D01*
X197760Y342718D01*
X197743Y342745D01*
X197738Y342768D01*
X197732Y342773D01*
X197671Y342868D01*
X197605Y342951D01*
X197527Y343023D01*
X197449Y343084D01*
X197366Y343134D01*
X197283Y343178D01*
X197199Y343217D01*
X197122Y343245D01*
X197044Y343267D01*
X196972Y343284D01*
X196905Y343295D01*
X196850Y343301D01*
X196805Y343306D01*
X196766Y343312D01*
X196506D01*
Y339388D01*
D02*
G37*
%LPD*%
G36*
X200055Y289082D02*
Y295181D01*
X201320D01*
Y291502D01*
X202635Y295181D01*
X204106D01*
Y289082D01*
X202841D01*
Y292895D01*
X202663Y292273D01*
X201597Y289082D01*
X200055D01*
D02*
G37*
G36*
X204724Y338389D02*
X206256Y344488D01*
X207533D01*
X209070Y338389D01*
X207749D01*
X206906Y342579D01*
X206062Y338389D01*
X204724D01*
D02*
G37*
G36*
X205066Y289082D02*
Y295181D01*
X206426D01*
X206615Y295176D01*
X206792Y295170D01*
X206964Y295153D01*
X207120Y295131D01*
X207264Y295109D01*
X207403Y295081D01*
X207525Y295054D01*
X207636Y295026D01*
X207736Y294998D01*
X207824Y294970D01*
X207902Y294943D01*
X207963Y294920D01*
X208013Y294898D01*
X208047Y294882D01*
X208069Y294876D01*
X208074Y294870D01*
X208185Y294809D01*
X208291Y294737D01*
X208391Y294665D01*
X208479Y294587D01*
X208635Y294421D01*
X208701Y294343D01*
X208762Y294260D01*
X208812Y294188D01*
X208857Y294116D01*
X208896Y294055D01*
X208923Y293999D01*
X208951Y293955D01*
X208968Y293916D01*
X208973Y293894D01*
X208979Y293888D01*
X209029Y293755D01*
X209073Y293616D01*
X209112Y293472D01*
X209145Y293322D01*
X209195Y293022D01*
X209212Y292878D01*
X209229Y292739D01*
X209240Y292606D01*
X209245Y292484D01*
X209251Y292373D01*
X209256Y292279D01*
X209262Y292201D01*
Y292095D01*
X209256Y291890D01*
X209251Y291701D01*
X209234Y291518D01*
X209212Y291352D01*
X209190Y291191D01*
X209168Y291047D01*
X209140Y290913D01*
X209112Y290791D01*
X209079Y290686D01*
X209051Y290591D01*
X209029Y290514D01*
X209007Y290447D01*
X208984Y290392D01*
X208968Y290353D01*
X208962Y290331D01*
X208957Y290325D01*
X208896Y290203D01*
X208829Y290092D01*
X208757Y289992D01*
X208685Y289898D01*
X208613Y289814D01*
X208535Y289737D01*
X208457Y289665D01*
X208385Y289603D01*
X208318Y289548D01*
X208252Y289504D01*
X208196Y289465D01*
X208146Y289431D01*
X208102Y289409D01*
X208074Y289387D01*
X208052Y289382D01*
X208047Y289376D01*
X207930Y289326D01*
X207808Y289276D01*
X207680Y289237D01*
X207547Y289204D01*
X207292Y289154D01*
X207164Y289132D01*
X207042Y289121D01*
X206931Y289104D01*
X206825Y289098D01*
X206731Y289093D01*
X206648Y289087D01*
X206587Y289082D01*
X205066D01*
D02*
G37*
%LPC*%
G36*
X206348Y290175D02*
X206648D01*
X206759Y290181D01*
X206864Y290197D01*
X206964Y290225D01*
X207053Y290258D01*
X207142Y290303D01*
X207220Y290353D01*
X207292Y290414D01*
X207358Y290475D01*
X207425Y290547D01*
X207480Y290619D01*
X207580Y290786D01*
X207663Y290958D01*
X207725Y291135D01*
X207774Y291318D01*
X207813Y291491D01*
X207841Y291651D01*
X207852Y291729D01*
X207863Y291801D01*
X207874Y291923D01*
Y291973D01*
X207880Y292018D01*
Y292101D01*
X207874Y292267D01*
X207869Y292428D01*
X207852Y292578D01*
X207830Y292717D01*
X207808Y292845D01*
X207786Y292967D01*
X207758Y293072D01*
X207730Y293172D01*
X207697Y293261D01*
X207669Y293339D01*
X207647Y293405D01*
X207625Y293461D01*
X207603Y293505D01*
X207586Y293533D01*
X207580Y293555D01*
X207575Y293561D01*
X207514Y293655D01*
X207447Y293738D01*
X207369Y293810D01*
X207292Y293871D01*
X207208Y293921D01*
X207125Y293966D01*
X207042Y294005D01*
X206964Y294032D01*
X206887Y294055D01*
X206814Y294071D01*
X206748Y294082D01*
X206692Y294088D01*
X206648Y294093D01*
X206609Y294099D01*
X206348D01*
Y290175D01*
D02*
G37*
%LPD*%
G36*
X210019Y338389D02*
Y344488D01*
X214054D01*
Y343328D01*
X211307D01*
Y338389D01*
X210019D01*
D02*
G37*
G36*
X214567Y289176D02*
X216099Y295276D01*
X217375D01*
X218913Y289176D01*
X217592D01*
X216748Y293366D01*
X215904Y289176D01*
X214567D01*
D02*
G37*
G36*
X214970Y338389D02*
Y344488D01*
X219055D01*
Y343406D01*
X216252D01*
Y341907D01*
X218788D01*
Y340809D01*
X216252D01*
Y339482D01*
X218932D01*
Y338389D01*
X214970D01*
D02*
G37*
G36*
X219862Y289176D02*
Y295276D01*
X223897D01*
Y294116D01*
X221149D01*
Y289176D01*
X219862D01*
D02*
G37*
G36*
X219987Y338389D02*
Y344488D01*
X221347D01*
X221535Y344483D01*
X221713Y344477D01*
X221885Y344460D01*
X222040Y344438D01*
X222185Y344416D01*
X222323Y344388D01*
X222446Y344360D01*
X222557Y344333D01*
X222656Y344305D01*
X222745Y344277D01*
X222823Y344250D01*
X222884Y344227D01*
X222934Y344205D01*
X222967Y344188D01*
X222989Y344183D01*
X222995Y344177D01*
X223106Y344116D01*
X223212Y344044D01*
X223311Y343972D01*
X223400Y343894D01*
X223555Y343728D01*
X223622Y343650D01*
X223683Y343567D01*
X223733Y343495D01*
X223778Y343423D01*
X223816Y343361D01*
X223844Y343306D01*
X223872Y343262D01*
X223888Y343223D01*
X223894Y343201D01*
X223900Y343195D01*
X223950Y343062D01*
X223994Y342923D01*
X224033Y342779D01*
X224066Y342629D01*
X224116Y342329D01*
X224133Y342185D01*
X224149Y342046D01*
X224161Y341913D01*
X224166Y341791D01*
X224172Y341680D01*
X224177Y341585D01*
X224183Y341508D01*
Y341402D01*
X224177Y341197D01*
X224172Y341008D01*
X224155Y340825D01*
X224133Y340659D01*
X224111Y340498D01*
X224088Y340353D01*
X224061Y340220D01*
X224033Y340098D01*
X224000Y339993D01*
X223972Y339898D01*
X223950Y339821D01*
X223927Y339754D01*
X223905Y339699D01*
X223888Y339660D01*
X223883Y339637D01*
X223877Y339632D01*
X223816Y339510D01*
X223750Y339399D01*
X223678Y339299D01*
X223605Y339205D01*
X223533Y339121D01*
X223456Y339044D01*
X223378Y338971D01*
X223306Y338910D01*
X223239Y338855D01*
X223173Y338810D01*
X223117Y338772D01*
X223067Y338738D01*
X223023Y338716D01*
X222995Y338694D01*
X222973Y338688D01*
X222967Y338683D01*
X222851Y338633D01*
X222729Y338583D01*
X222601Y338544D01*
X222468Y338511D01*
X222212Y338461D01*
X222085Y338439D01*
X221963Y338428D01*
X221852Y338411D01*
X221746Y338405D01*
X221652Y338400D01*
X221569Y338394D01*
X221508Y338389D01*
X219987D01*
D02*
G37*
%LPC*%
G36*
X221269Y339482D02*
X221569D01*
X221680Y339488D01*
X221785Y339504D01*
X221885Y339532D01*
X221974Y339565D01*
X222063Y339610D01*
X222140Y339660D01*
X222212Y339721D01*
X222279Y339782D01*
X222346Y339854D01*
X222401Y339926D01*
X222501Y340093D01*
X222584Y340265D01*
X222645Y340442D01*
X222695Y340625D01*
X222734Y340797D01*
X222762Y340958D01*
X222773Y341036D01*
X222784Y341108D01*
X222795Y341230D01*
Y341280D01*
X222801Y341325D01*
Y341408D01*
X222795Y341574D01*
X222790Y341735D01*
X222773Y341885D01*
X222751Y342024D01*
X222729Y342152D01*
X222706Y342274D01*
X222679Y342379D01*
X222651Y342479D01*
X222618Y342568D01*
X222590Y342646D01*
X222568Y342712D01*
X222545Y342768D01*
X222523Y342812D01*
X222507Y342840D01*
X222501Y342862D01*
X222496Y342868D01*
X222434Y342962D01*
X222368Y343045D01*
X222290Y343117D01*
X222212Y343178D01*
X222129Y343228D01*
X222046Y343273D01*
X221963Y343312D01*
X221885Y343339D01*
X221807Y343361D01*
X221735Y343378D01*
X221669Y343389D01*
X221613Y343395D01*
X221569Y343400D01*
X221530Y343406D01*
X221269D01*
Y339482D01*
D02*
G37*
%LPD*%
G36*
X224812Y289176D02*
Y295276D01*
X228897D01*
Y294193D01*
X226094D01*
Y292695D01*
X228631D01*
Y291596D01*
X226094D01*
Y290269D01*
X228775D01*
Y289176D01*
X224812D01*
D02*
G37*
G36*
X229829D02*
Y295276D01*
X231189D01*
X231378Y295270D01*
X231556Y295265D01*
X231728Y295248D01*
X231883Y295226D01*
X232027Y295203D01*
X232166Y295176D01*
X232288Y295148D01*
X232399Y295120D01*
X232499Y295092D01*
X232588Y295065D01*
X232665Y295037D01*
X232727Y295015D01*
X232776Y294992D01*
X232810Y294976D01*
X232832Y294970D01*
X232838Y294965D01*
X232948Y294904D01*
X233054Y294832D01*
X233154Y294759D01*
X233243Y294682D01*
X233398Y294515D01*
X233465Y294438D01*
X233526Y294354D01*
X233576Y294282D01*
X233620Y294210D01*
X233659Y294149D01*
X233687Y294093D01*
X233714Y294049D01*
X233731Y294010D01*
X233737Y293988D01*
X233742Y293982D01*
X233792Y293849D01*
X233837Y293710D01*
X233875Y293566D01*
X233909Y293416D01*
X233959Y293117D01*
X233975Y292972D01*
X233992Y292834D01*
X234003Y292700D01*
X234009Y292578D01*
X234014Y292467D01*
X234020Y292373D01*
X234025Y292295D01*
Y292190D01*
X234020Y291984D01*
X234014Y291796D01*
X233998Y291613D01*
X233975Y291446D01*
X233953Y291285D01*
X233931Y291141D01*
X233903Y291008D01*
X233875Y290885D01*
X233842Y290780D01*
X233814Y290686D01*
X233792Y290608D01*
X233770Y290541D01*
X233748Y290486D01*
X233731Y290447D01*
X233726Y290425D01*
X233720Y290419D01*
X233659Y290297D01*
X233592Y290186D01*
X233520Y290086D01*
X233448Y289992D01*
X233376Y289909D01*
X233298Y289831D01*
X233221Y289759D01*
X233148Y289698D01*
X233082Y289642D01*
X233015Y289598D01*
X232960Y289559D01*
X232910Y289526D01*
X232865Y289504D01*
X232838Y289481D01*
X232815Y289476D01*
X232810Y289470D01*
X232693Y289420D01*
X232571Y289370D01*
X232443Y289332D01*
X232310Y289298D01*
X232055Y289248D01*
X231927Y289226D01*
X231805Y289215D01*
X231694Y289198D01*
X231589Y289193D01*
X231494Y289187D01*
X231411Y289182D01*
X231350Y289176D01*
X229829D01*
D02*
G37*
%LPC*%
G36*
X231112Y290269D02*
X231411D01*
X231522Y290275D01*
X231628Y290292D01*
X231728Y290319D01*
X231816Y290353D01*
X231905Y290397D01*
X231983Y290447D01*
X232055Y290508D01*
X232122Y290569D01*
X232188Y290641D01*
X232244Y290714D01*
X232344Y290880D01*
X232427Y291052D01*
X232488Y291230D01*
X232538Y291413D01*
X232577Y291585D01*
X232604Y291746D01*
X232615Y291824D01*
X232627Y291896D01*
X232638Y292018D01*
Y292068D01*
X232643Y292112D01*
Y292195D01*
X232638Y292362D01*
X232632Y292523D01*
X232615Y292673D01*
X232593Y292811D01*
X232571Y292939D01*
X232549Y293061D01*
X232521Y293167D01*
X232493Y293267D01*
X232460Y293355D01*
X232432Y293433D01*
X232410Y293500D01*
X232388Y293555D01*
X232366Y293600D01*
X232349Y293627D01*
X232344Y293649D01*
X232338Y293655D01*
X232277Y293749D01*
X232210Y293833D01*
X232133Y293905D01*
X232055Y293966D01*
X231972Y294016D01*
X231889Y294060D01*
X231805Y294099D01*
X231728Y294127D01*
X231650Y294149D01*
X231578Y294166D01*
X231511Y294177D01*
X231456Y294182D01*
X231411Y294188D01*
X231372Y294193D01*
X231112D01*
Y290269D01*
D02*
G37*
%LPD*%
G36*
X255911Y341192D02*
X255906Y341258D01*
Y341352D01*
X255917Y341708D01*
X255928Y341869D01*
X255944Y342030D01*
X255961Y342174D01*
X255983Y342313D01*
X256005Y342440D01*
X256028Y342557D01*
X256050Y342668D01*
X256072Y342762D01*
X256094Y342840D01*
X256111Y342906D01*
X256128Y342962D01*
X256139Y343001D01*
X256150Y343023D01*
Y343034D01*
X256200Y343162D01*
X256311Y343395D01*
X256433Y343595D01*
X256494Y343683D01*
X256555Y343761D01*
X256610Y343833D01*
X256666Y343900D01*
X256766Y344000D01*
X256810Y344039D01*
X256866Y344094D01*
X256882Y344105D01*
X256888Y344111D01*
X256982Y344177D01*
X257077Y344233D01*
X257176Y344283D01*
X257276Y344327D01*
X257376Y344366D01*
X257476Y344394D01*
X257571Y344422D01*
X257665Y344438D01*
X257748Y344455D01*
X257826Y344466D01*
X257892Y344477D01*
X257954Y344483D01*
X258003Y344488D01*
X258070D01*
X258220Y344483D01*
X258359Y344466D01*
X258481Y344444D01*
X258681Y344394D01*
X258747Y344372D01*
X258769Y344360D01*
X258786Y344355D01*
X258797Y344349D01*
X258803D01*
X258914Y344288D01*
X259008Y344222D01*
X259080Y344155D01*
X259136Y344089D01*
X259180Y344033D01*
X259208Y343983D01*
X259224Y343950D01*
X259230Y343944D01*
Y343939D01*
X259274D01*
Y344394D01*
X260240D01*
Y341103D01*
X258142D01*
Y342074D01*
X259219D01*
X259213Y342224D01*
X259202Y342368D01*
X259180Y342490D01*
X259158Y342596D01*
X259136Y342684D01*
X259124Y342723D01*
X259113Y342751D01*
X259108Y342773D01*
X259102Y342790D01*
X259097Y342801D01*
Y342807D01*
X259047Y342912D01*
X258991Y343006D01*
X258936Y343090D01*
X258880Y343156D01*
X258791Y343245D01*
X258764Y343267D01*
X258753Y343273D01*
X258664Y343328D01*
X258575Y343367D01*
X258486Y343395D01*
X258409Y343411D01*
X258336Y343423D01*
X258275Y343434D01*
X258225D01*
X258120Y343428D01*
X258026Y343411D01*
X257937Y343384D01*
X257859Y343345D01*
X257787Y343306D01*
X257720Y343256D01*
X257659Y343206D01*
X257609Y343151D01*
X257565Y343101D01*
X257526Y343051D01*
X257493Y343001D01*
X257465Y342962D01*
X257448Y342923D01*
X257432Y342895D01*
X257426Y342879D01*
X257421Y342873D01*
X257382Y342762D01*
X257343Y342646D01*
X257288Y342396D01*
X257249Y342135D01*
X257232Y342013D01*
X257221Y341891D01*
X257210Y341780D01*
X257204Y341674D01*
X257199Y341580D01*
Y341497D01*
X257193Y341430D01*
Y341336D01*
X257199Y341169D01*
X257204Y341014D01*
X257215Y340864D01*
X257249Y340598D01*
X257271Y340481D01*
X257293Y340376D01*
X257315Y340276D01*
X257337Y340187D01*
X257354Y340109D01*
X257393Y339993D01*
X257410Y339948D01*
X257421Y339915D01*
X257432Y339898D01*
Y339893D01*
X257482Y339798D01*
X257537Y339715D01*
X257604Y339643D01*
X257670Y339582D01*
X257743Y339527D01*
X257815Y339488D01*
X257892Y339449D01*
X257965Y339421D01*
X258031Y339399D01*
X258098Y339382D01*
X258159Y339371D01*
X258209Y339360D01*
X258253D01*
X258286Y339354D01*
X258314D01*
X258431Y339360D01*
X258542Y339377D01*
X258647Y339404D01*
X258836Y339482D01*
X258919Y339532D01*
X258997Y339582D01*
X259064Y339632D01*
X259124Y339682D01*
X259180Y339732D01*
X259230Y339782D01*
X259297Y339860D01*
X259319Y339887D01*
X259330Y339904D01*
X259335Y339909D01*
X260140Y339282D01*
X260029Y339110D01*
X259901Y338960D01*
X259774Y338827D01*
X259707Y338766D01*
X259646Y338716D01*
X259591Y338666D01*
X259535Y338627D01*
X259485Y338589D01*
X259446Y338561D01*
X259413Y338539D01*
X259385Y338516D01*
X259369Y338511D01*
X259363Y338505D01*
X259269Y338450D01*
X259174Y338405D01*
X259075Y338367D01*
X258975Y338333D01*
X258780Y338278D01*
X258686Y338261D01*
X258520Y338228D01*
X258442Y338222D01*
X258375Y338217D01*
X258320Y338211D01*
X258275Y338206D01*
X258209D01*
X258070Y338211D01*
X257942Y338222D01*
X257815Y338239D01*
X257698Y338267D01*
X257587Y338294D01*
X257482Y338328D01*
X257387Y338361D01*
X257299Y338400D01*
X257221Y338433D01*
X257154Y338472D01*
X257093Y338505D01*
X257043Y338533D01*
X256999Y338561D01*
X256971Y338577D01*
X256955Y338589D01*
X256949Y338594D01*
X256855Y338672D01*
X256766Y338755D01*
X256682Y338838D01*
X256610Y338927D01*
X256538Y339021D01*
X256477Y339110D01*
X256416Y339205D01*
X256316Y339371D01*
X256244Y339515D01*
X256216Y339576D01*
X256194Y339626D01*
X256177Y339660D01*
X256172Y339687D01*
X256166Y339693D01*
X256122Y339826D01*
X256083Y339965D01*
X256016Y340248D01*
X255972Y340526D01*
X255950Y340659D01*
X255939Y340786D01*
X255928Y340903D01*
X255922Y341014D01*
X255911Y341108D01*
Y341192D01*
D02*
G37*
G36*
X261078Y338294D02*
Y344394D01*
X262344D01*
Y340714D01*
X263659Y344394D01*
X265130D01*
Y338294D01*
X263864D01*
Y342107D01*
X263687Y341486D01*
X262621Y338294D01*
X261078D01*
D02*
G37*
G36*
X265754Y291979D02*
X265748Y292045D01*
Y292140D01*
X265759Y292495D01*
X265770Y292656D01*
X265787Y292817D01*
X265804Y292961D01*
X265826Y293100D01*
X265848Y293228D01*
X265870Y293344D01*
X265892Y293455D01*
X265915Y293549D01*
X265937Y293627D01*
X265953Y293694D01*
X265970Y293749D01*
X265981Y293788D01*
X265992Y293810D01*
Y293822D01*
X266042Y293949D01*
X266153Y294182D01*
X266275Y294382D01*
X266336Y294471D01*
X266397Y294549D01*
X266453Y294621D01*
X266508Y294687D01*
X266608Y294787D01*
X266653Y294826D01*
X266708Y294882D01*
X266725Y294893D01*
X266730Y294898D01*
X266825Y294965D01*
X266919Y295020D01*
X267019Y295070D01*
X267119Y295115D01*
X267219Y295153D01*
X267319Y295181D01*
X267413Y295209D01*
X267507Y295226D01*
X267591Y295242D01*
X267668Y295253D01*
X267735Y295265D01*
X267796Y295270D01*
X267846Y295276D01*
X267913D01*
X268062Y295270D01*
X268201Y295253D01*
X268323Y295231D01*
X268523Y295181D01*
X268590Y295159D01*
X268612Y295148D01*
X268629Y295142D01*
X268640Y295137D01*
X268645D01*
X268756Y295076D01*
X268850Y295009D01*
X268923Y294943D01*
X268978Y294876D01*
X269022Y294820D01*
X269050Y294771D01*
X269067Y294737D01*
X269073Y294732D01*
Y294726D01*
X269117D01*
Y295181D01*
X270083D01*
Y291890D01*
X267985D01*
Y292861D01*
X269061D01*
X269056Y293011D01*
X269045Y293156D01*
X269022Y293278D01*
X269000Y293383D01*
X268978Y293472D01*
X268967Y293511D01*
X268956Y293538D01*
X268950Y293561D01*
X268945Y293577D01*
X268939Y293588D01*
Y293594D01*
X268889Y293699D01*
X268834Y293794D01*
X268778Y293877D01*
X268723Y293944D01*
X268634Y294032D01*
X268606Y294055D01*
X268595Y294060D01*
X268506Y294116D01*
X268418Y294155D01*
X268329Y294182D01*
X268251Y294199D01*
X268179Y294210D01*
X268118Y294221D01*
X268068D01*
X267963Y294215D01*
X267868Y294199D01*
X267779Y294171D01*
X267702Y294132D01*
X267630Y294093D01*
X267563Y294043D01*
X267502Y293993D01*
X267452Y293938D01*
X267407Y293888D01*
X267369Y293838D01*
X267335Y293788D01*
X267308Y293749D01*
X267291Y293710D01*
X267274Y293683D01*
X267269Y293666D01*
X267263Y293660D01*
X267224Y293549D01*
X267185Y293433D01*
X267130Y293183D01*
X267091Y292922D01*
X267074Y292800D01*
X267063Y292678D01*
X267052Y292567D01*
X267047Y292462D01*
X267041Y292367D01*
Y292284D01*
X267036Y292217D01*
Y292123D01*
X267041Y291957D01*
X267047Y291801D01*
X267058Y291651D01*
X267091Y291385D01*
X267113Y291268D01*
X267136Y291163D01*
X267158Y291063D01*
X267180Y290974D01*
X267197Y290897D01*
X267235Y290780D01*
X267252Y290736D01*
X267263Y290702D01*
X267274Y290686D01*
Y290680D01*
X267324Y290586D01*
X267380Y290503D01*
X267446Y290430D01*
X267513Y290369D01*
X267585Y290314D01*
X267657Y290275D01*
X267735Y290236D01*
X267807Y290208D01*
X267874Y290186D01*
X267940Y290170D01*
X268001Y290159D01*
X268051Y290147D01*
X268096D01*
X268129Y290142D01*
X268157D01*
X268273Y290147D01*
X268384Y290164D01*
X268490Y290192D01*
X268678Y290269D01*
X268762Y290319D01*
X268839Y290369D01*
X268906Y290419D01*
X268967Y290469D01*
X269022Y290519D01*
X269073Y290569D01*
X269139Y290647D01*
X269161Y290675D01*
X269172Y290691D01*
X269178Y290697D01*
X269983Y290070D01*
X269872Y289898D01*
X269744Y289748D01*
X269616Y289615D01*
X269550Y289553D01*
X269489Y289504D01*
X269433Y289454D01*
X269378Y289415D01*
X269328Y289376D01*
X269289Y289348D01*
X269256Y289326D01*
X269228Y289304D01*
X269211Y289298D01*
X269206Y289293D01*
X269111Y289237D01*
X269017Y289193D01*
X268917Y289154D01*
X268817Y289121D01*
X268623Y289065D01*
X268529Y289049D01*
X268362Y289015D01*
X268284Y289010D01*
X268218Y289004D01*
X268162Y288999D01*
X268118Y288993D01*
X268051D01*
X267913Y288999D01*
X267785Y289010D01*
X267657Y289026D01*
X267541Y289054D01*
X267430Y289082D01*
X267324Y289115D01*
X267230Y289148D01*
X267141Y289187D01*
X267063Y289220D01*
X266997Y289259D01*
X266936Y289293D01*
X266886Y289320D01*
X266841Y289348D01*
X266814Y289365D01*
X266797Y289376D01*
X266791Y289382D01*
X266697Y289459D01*
X266608Y289542D01*
X266525Y289626D01*
X266453Y289715D01*
X266381Y289809D01*
X266320Y289898D01*
X266259Y289992D01*
X266159Y290159D01*
X266087Y290303D01*
X266059Y290364D01*
X266037Y290414D01*
X266020Y290447D01*
X266014Y290475D01*
X266009Y290480D01*
X265965Y290614D01*
X265926Y290752D01*
X265859Y291035D01*
X265815Y291313D01*
X265792Y291446D01*
X265781Y291574D01*
X265770Y291690D01*
X265765Y291801D01*
X265754Y291896D01*
Y291979D01*
D02*
G37*
G36*
X266090Y338294D02*
Y344394D01*
X267449D01*
X267638Y344388D01*
X267816Y344383D01*
X267988Y344366D01*
X268143Y344344D01*
X268288Y344322D01*
X268426Y344294D01*
X268548Y344266D01*
X268659Y344238D01*
X268759Y344211D01*
X268848Y344183D01*
X268926Y344155D01*
X268987Y344133D01*
X269037Y344111D01*
X269070Y344094D01*
X269092Y344089D01*
X269098Y344083D01*
X269209Y344022D01*
X269314Y343950D01*
X269414Y343878D01*
X269503Y343800D01*
X269658Y343634D01*
X269725Y343556D01*
X269786Y343473D01*
X269836Y343400D01*
X269880Y343328D01*
X269919Y343267D01*
X269947Y343212D01*
X269975Y343167D01*
X269991Y343128D01*
X269997Y343106D01*
X270003Y343101D01*
X270053Y342968D01*
X270097Y342829D01*
X270136Y342684D01*
X270169Y342535D01*
X270219Y342235D01*
X270236Y342091D01*
X270252Y341952D01*
X270263Y341819D01*
X270269Y341697D01*
X270274Y341585D01*
X270280Y341491D01*
X270286Y341413D01*
Y341308D01*
X270280Y341103D01*
X270274Y340914D01*
X270258Y340731D01*
X270236Y340564D01*
X270213Y340403D01*
X270191Y340259D01*
X270163Y340126D01*
X270136Y340004D01*
X270102Y339898D01*
X270075Y339804D01*
X270053Y339726D01*
X270030Y339660D01*
X270008Y339604D01*
X269991Y339565D01*
X269986Y339543D01*
X269980Y339538D01*
X269919Y339416D01*
X269853Y339304D01*
X269780Y339205D01*
X269708Y339110D01*
X269636Y339027D01*
X269559Y338949D01*
X269481Y338877D01*
X269409Y338816D01*
X269342Y338761D01*
X269275Y338716D01*
X269220Y338677D01*
X269170Y338644D01*
X269126Y338622D01*
X269098Y338600D01*
X269076Y338594D01*
X269070Y338589D01*
X268954Y338539D01*
X268831Y338489D01*
X268704Y338450D01*
X268571Y338417D01*
X268315Y338367D01*
X268188Y338344D01*
X268066Y338333D01*
X267955Y338317D01*
X267849Y338311D01*
X267755Y338305D01*
X267671Y338300D01*
X267611Y338294D01*
X266090D01*
D02*
G37*
%LPC*%
G36*
X267372Y339388D02*
X267671D01*
X267782Y339393D01*
X267888Y339410D01*
X267988Y339438D01*
X268077Y339471D01*
X268165Y339515D01*
X268243Y339565D01*
X268315Y339626D01*
X268382Y339687D01*
X268448Y339760D01*
X268504Y339832D01*
X268604Y339998D01*
X268687Y340170D01*
X268748Y340348D01*
X268798Y340531D01*
X268837Y340703D01*
X268865Y340864D01*
X268876Y340942D01*
X268887Y341014D01*
X268898Y341136D01*
Y341186D01*
X268904Y341230D01*
Y341314D01*
X268898Y341480D01*
X268893Y341641D01*
X268876Y341791D01*
X268854Y341930D01*
X268831Y342057D01*
X268809Y342179D01*
X268781Y342285D01*
X268754Y342385D01*
X268721Y342474D01*
X268693Y342551D01*
X268671Y342618D01*
X268648Y342673D01*
X268626Y342718D01*
X268609Y342745D01*
X268604Y342768D01*
X268598Y342773D01*
X268537Y342868D01*
X268471Y342951D01*
X268393Y343023D01*
X268315Y343084D01*
X268232Y343134D01*
X268149Y343178D01*
X268066Y343217D01*
X267988Y343245D01*
X267910Y343267D01*
X267838Y343284D01*
X267771Y343295D01*
X267716Y343301D01*
X267671Y343306D01*
X267633Y343312D01*
X267372D01*
Y339388D01*
D02*
G37*
%LPD*%
G36*
X270921Y289082D02*
Y295181D01*
X272186D01*
Y291502D01*
X273501Y295181D01*
X274972D01*
Y289082D01*
X273707D01*
Y292895D01*
X273529Y292273D01*
X272463Y289082D01*
X270921D01*
D02*
G37*
G36*
X275590Y338389D02*
X277122Y344488D01*
X278399D01*
X279936Y338389D01*
X278615D01*
X277772Y342579D01*
X276928Y338389D01*
X275590D01*
D02*
G37*
G36*
X275932Y289082D02*
Y295181D01*
X277292D01*
X277481Y295176D01*
X277658Y295170D01*
X277830Y295153D01*
X277986Y295131D01*
X278130Y295109D01*
X278269Y295081D01*
X278391Y295054D01*
X278502Y295026D01*
X278602Y294998D01*
X278691Y294970D01*
X278768Y294943D01*
X278829Y294920D01*
X278879Y294898D01*
X278913Y294882D01*
X278935Y294876D01*
X278940Y294870D01*
X279051Y294809D01*
X279157Y294737D01*
X279257Y294665D01*
X279345Y294587D01*
X279501Y294421D01*
X279568Y294343D01*
X279629Y294260D01*
X279679Y294188D01*
X279723Y294116D01*
X279762Y294055D01*
X279789Y293999D01*
X279817Y293955D01*
X279834Y293916D01*
X279839Y293894D01*
X279845Y293888D01*
X279895Y293755D01*
X279939Y293616D01*
X279978Y293472D01*
X280012Y293322D01*
X280062Y293022D01*
X280078Y292878D01*
X280095Y292739D01*
X280106Y292606D01*
X280111Y292484D01*
X280117Y292373D01*
X280122Y292279D01*
X280128Y292201D01*
Y292095D01*
X280122Y291890D01*
X280117Y291701D01*
X280100Y291518D01*
X280078Y291352D01*
X280056Y291191D01*
X280034Y291047D01*
X280006Y290913D01*
X279978Y290791D01*
X279945Y290686D01*
X279917Y290591D01*
X279895Y290514D01*
X279873Y290447D01*
X279851Y290392D01*
X279834Y290353D01*
X279828Y290331D01*
X279823Y290325D01*
X279762Y290203D01*
X279695Y290092D01*
X279623Y289992D01*
X279551Y289898D01*
X279479Y289814D01*
X279401Y289737D01*
X279323Y289665D01*
X279251Y289603D01*
X279185Y289548D01*
X279118Y289504D01*
X279063Y289465D01*
X279012Y289431D01*
X278968Y289409D01*
X278940Y289387D01*
X278918Y289382D01*
X278913Y289376D01*
X278796Y289326D01*
X278674Y289276D01*
X278546Y289237D01*
X278413Y289204D01*
X278158Y289154D01*
X278030Y289132D01*
X277908Y289121D01*
X277797Y289104D01*
X277692Y289098D01*
X277597Y289093D01*
X277514Y289087D01*
X277453Y289082D01*
X275932D01*
D02*
G37*
%LPC*%
G36*
X277214Y290175D02*
X277514D01*
X277625Y290181D01*
X277730Y290197D01*
X277830Y290225D01*
X277919Y290258D01*
X278008Y290303D01*
X278086Y290353D01*
X278158Y290414D01*
X278224Y290475D01*
X278291Y290547D01*
X278346Y290619D01*
X278446Y290786D01*
X278530Y290958D01*
X278591Y291135D01*
X278641Y291318D01*
X278679Y291491D01*
X278707Y291651D01*
X278718Y291729D01*
X278730Y291801D01*
X278741Y291923D01*
Y291973D01*
X278746Y292018D01*
Y292101D01*
X278741Y292267D01*
X278735Y292428D01*
X278718Y292578D01*
X278696Y292717D01*
X278674Y292845D01*
X278652Y292967D01*
X278624Y293072D01*
X278596Y293172D01*
X278563Y293261D01*
X278535Y293339D01*
X278513Y293405D01*
X278491Y293461D01*
X278469Y293505D01*
X278452Y293533D01*
X278446Y293555D01*
X278441Y293561D01*
X278380Y293655D01*
X278313Y293738D01*
X278236Y293810D01*
X278158Y293871D01*
X278075Y293921D01*
X277991Y293966D01*
X277908Y294005D01*
X277830Y294032D01*
X277753Y294055D01*
X277680Y294071D01*
X277614Y294082D01*
X277558Y294088D01*
X277514Y294093D01*
X277475Y294099D01*
X277214D01*
Y290175D01*
D02*
G37*
%LPD*%
G36*
X280885Y338389D02*
Y344488D01*
X284920D01*
Y343328D01*
X282173D01*
Y338389D01*
X280885D01*
D02*
G37*
G36*
X285433Y289176D02*
X286965Y295276D01*
X288241D01*
X289779Y289176D01*
X288458D01*
X287614Y293366D01*
X286771Y289176D01*
X285433D01*
D02*
G37*
G36*
X285836Y338389D02*
Y344488D01*
X289921D01*
Y343406D01*
X287118D01*
Y341907D01*
X289654D01*
Y340809D01*
X287118D01*
Y339482D01*
X289798D01*
Y338389D01*
X285836D01*
D02*
G37*
G36*
X290728Y289176D02*
Y295276D01*
X294763D01*
Y294116D01*
X292015D01*
Y289176D01*
X290728D01*
D02*
G37*
G36*
X290853Y338389D02*
Y344488D01*
X292213D01*
X292402Y344483D01*
X292579Y344477D01*
X292751Y344460D01*
X292906Y344438D01*
X293051Y344416D01*
X293190Y344388D01*
X293312Y344360D01*
X293423Y344333D01*
X293523Y344305D01*
X293611Y344277D01*
X293689Y344250D01*
X293750Y344227D01*
X293800Y344205D01*
X293833Y344188D01*
X293856Y344183D01*
X293861Y344177D01*
X293972Y344116D01*
X294078Y344044D01*
X294178Y343972D01*
X294266Y343894D01*
X294422Y343728D01*
X294488Y343650D01*
X294549Y343567D01*
X294599Y343495D01*
X294644Y343423D01*
X294683Y343361D01*
X294710Y343306D01*
X294738Y343262D01*
X294755Y343223D01*
X294760Y343201D01*
X294766Y343195D01*
X294816Y343062D01*
X294860Y342923D01*
X294899Y342779D01*
X294932Y342629D01*
X294982Y342329D01*
X294999Y342185D01*
X295016Y342046D01*
X295027Y341913D01*
X295032Y341791D01*
X295038Y341680D01*
X295043Y341585D01*
X295049Y341508D01*
Y341402D01*
X295043Y341197D01*
X295038Y341008D01*
X295021Y340825D01*
X294999Y340659D01*
X294977Y340498D01*
X294954Y340353D01*
X294927Y340220D01*
X294899Y340098D01*
X294866Y339993D01*
X294838Y339898D01*
X294816Y339821D01*
X294794Y339754D01*
X294771Y339699D01*
X294755Y339660D01*
X294749Y339637D01*
X294744Y339632D01*
X294683Y339510D01*
X294616Y339399D01*
X294544Y339299D01*
X294472Y339205D01*
X294399Y339121D01*
X294322Y339044D01*
X294244Y338971D01*
X294172Y338910D01*
X294105Y338855D01*
X294039Y338810D01*
X293983Y338772D01*
X293933Y338738D01*
X293889Y338716D01*
X293861Y338694D01*
X293839Y338688D01*
X293833Y338683D01*
X293717Y338633D01*
X293595Y338583D01*
X293467Y338544D01*
X293334Y338511D01*
X293079Y338461D01*
X292951Y338439D01*
X292829Y338428D01*
X292718Y338411D01*
X292612Y338405D01*
X292518Y338400D01*
X292435Y338394D01*
X292374Y338389D01*
X290853D01*
D02*
G37*
%LPC*%
G36*
X292135Y339482D02*
X292435D01*
X292546Y339488D01*
X292651Y339504D01*
X292751Y339532D01*
X292840Y339565D01*
X292929Y339610D01*
X293006Y339660D01*
X293079Y339721D01*
X293145Y339782D01*
X293212Y339854D01*
X293267Y339926D01*
X293367Y340093D01*
X293450Y340265D01*
X293512Y340442D01*
X293561Y340625D01*
X293600Y340797D01*
X293628Y340958D01*
X293639Y341036D01*
X293650Y341108D01*
X293661Y341230D01*
Y341280D01*
X293667Y341325D01*
Y341408D01*
X293661Y341574D01*
X293656Y341735D01*
X293639Y341885D01*
X293617Y342024D01*
X293595Y342152D01*
X293572Y342274D01*
X293545Y342379D01*
X293517Y342479D01*
X293484Y342568D01*
X293456Y342646D01*
X293434Y342712D01*
X293412Y342768D01*
X293389Y342812D01*
X293373Y342840D01*
X293367Y342862D01*
X293362Y342868D01*
X293301Y342962D01*
X293234Y343045D01*
X293156Y343117D01*
X293079Y343178D01*
X292995Y343228D01*
X292912Y343273D01*
X292829Y343312D01*
X292751Y343339D01*
X292673Y343361D01*
X292601Y343378D01*
X292535Y343389D01*
X292479Y343395D01*
X292435Y343400D01*
X292396Y343406D01*
X292135D01*
Y339482D01*
D02*
G37*
%LPD*%
G36*
X295678Y289176D02*
Y295276D01*
X299763D01*
Y294193D01*
X296960D01*
Y292695D01*
X299497D01*
Y291596D01*
X296960D01*
Y290269D01*
X299641D01*
Y289176D01*
X295678D01*
D02*
G37*
G36*
X300696D02*
Y295276D01*
X302055D01*
X302244Y295270D01*
X302422Y295265D01*
X302594Y295248D01*
X302749Y295226D01*
X302893Y295203D01*
X303032Y295176D01*
X303154Y295148D01*
X303265Y295120D01*
X303365Y295092D01*
X303454Y295065D01*
X303532Y295037D01*
X303593Y295015D01*
X303643Y294992D01*
X303676Y294976D01*
X303698Y294970D01*
X303704Y294965D01*
X303815Y294904D01*
X303920Y294832D01*
X304020Y294759D01*
X304109Y294682D01*
X304264Y294515D01*
X304331Y294438D01*
X304392Y294354D01*
X304442Y294282D01*
X304486Y294210D01*
X304525Y294149D01*
X304553Y294093D01*
X304581Y294049D01*
X304597Y294010D01*
X304603Y293988D01*
X304608Y293982D01*
X304658Y293849D01*
X304703Y293710D01*
X304742Y293566D01*
X304775Y293416D01*
X304825Y293117D01*
X304841Y292972D01*
X304858Y292834D01*
X304869Y292700D01*
X304875Y292578D01*
X304880Y292467D01*
X304886Y292373D01*
X304891Y292295D01*
Y292190D01*
X304886Y291984D01*
X304880Y291796D01*
X304864Y291613D01*
X304841Y291446D01*
X304819Y291285D01*
X304797Y291141D01*
X304769Y291008D01*
X304742Y290885D01*
X304708Y290780D01*
X304680Y290686D01*
X304658Y290608D01*
X304636Y290541D01*
X304614Y290486D01*
X304597Y290447D01*
X304592Y290425D01*
X304586Y290419D01*
X304525Y290297D01*
X304458Y290186D01*
X304386Y290086D01*
X304314Y289992D01*
X304242Y289909D01*
X304164Y289831D01*
X304087Y289759D01*
X304014Y289698D01*
X303948Y289642D01*
X303881Y289598D01*
X303826Y289559D01*
X303776Y289526D01*
X303731Y289504D01*
X303704Y289481D01*
X303681Y289476D01*
X303676Y289470D01*
X303559Y289420D01*
X303437Y289370D01*
X303310Y289332D01*
X303176Y289298D01*
X302921Y289248D01*
X302794Y289226D01*
X302671Y289215D01*
X302560Y289198D01*
X302455Y289193D01*
X302361Y289187D01*
X302277Y289182D01*
X302216Y289176D01*
X300696D01*
D02*
G37*
%LPC*%
G36*
X301978Y290269D02*
X302277D01*
X302388Y290275D01*
X302494Y290292D01*
X302594Y290319D01*
X302682Y290353D01*
X302771Y290397D01*
X302849Y290447D01*
X302921Y290508D01*
X302988Y290569D01*
X303054Y290641D01*
X303110Y290714D01*
X303210Y290880D01*
X303293Y291052D01*
X303354Y291230D01*
X303404Y291413D01*
X303443Y291585D01*
X303471Y291746D01*
X303482Y291824D01*
X303493Y291896D01*
X303504Y292018D01*
Y292068D01*
X303509Y292112D01*
Y292195D01*
X303504Y292362D01*
X303498Y292523D01*
X303482Y292673D01*
X303460Y292811D01*
X303437Y292939D01*
X303415Y293061D01*
X303387Y293167D01*
X303360Y293267D01*
X303326Y293355D01*
X303298Y293433D01*
X303276Y293500D01*
X303254Y293555D01*
X303232Y293600D01*
X303215Y293627D01*
X303210Y293649D01*
X303204Y293655D01*
X303143Y293749D01*
X303077Y293833D01*
X302999Y293905D01*
X302921Y293966D01*
X302838Y294016D01*
X302755Y294060D01*
X302671Y294099D01*
X302594Y294127D01*
X302516Y294149D01*
X302444Y294166D01*
X302377Y294177D01*
X302322Y294182D01*
X302277Y294188D01*
X302238Y294193D01*
X301978D01*
Y290269D01*
D02*
G37*
%LPD*%
D12*
X147791Y41339D02*
G03*
X147791Y41339I-1500J0D01*
G01*
X287555D02*
G03*
X287555Y41339I-1500J0D01*
G01*
D32*
X303150Y204724D02*
Y208661D01*
X301258Y206668D02*
X305195D01*
X259842Y241142D02*
Y245079D01*
X257951Y243086D02*
X261888D01*
X232283Y204724D02*
Y208661D01*
X230392Y206668D02*
X234329D01*
X189961Y242126D02*
Y246063D01*
X188069Y244070D02*
X192006D01*
X161417Y204724D02*
Y208661D01*
X159526Y206668D02*
X163463D01*
X119095Y241142D02*
Y245079D01*
X117203Y243086D02*
X121140D01*
X90551Y204724D02*
Y208661D01*
X88660Y206668D02*
X92597D01*
X46337Y244070D02*
X50274D01*
X48228Y242126D02*
Y246063D01*
M02*
