G04*
G04 #@! TF.GenerationSoftware,Altium Limited,Altium Designer,26.9.1 (10)*
G04*
G04 Layer_Color=32768*
G04 Board_Origin=74640005|44270005*
%FSLAX25Y25*%
%MOIN*%
G70*
G04*
G04 #@! TF.SameCoordinates,585EC1B0-1F81-44B1-8C19-25A49A0C304D*
G04*
G04*
G04 #@! TF.FilePolarity,Positive*
G04*
G01*
G75*
%ADD14C,0.00600*%
%ADD36C,0.00394*%
%ADD38C,0.00197*%
D14*
X150323Y18246D02*
X184323D01*
Y24196D01*
Y38796D02*
Y44746D01*
X150323D02*
X184323D01*
X150323Y38796D02*
Y44746D01*
Y18246D02*
Y24196D01*
X148823D02*
X150323D01*
X184323D02*
X185823D01*
Y38796D01*
X184323D02*
X185823D01*
X148823D02*
X150323D01*
X148823Y24196D02*
Y38796D01*
X279555Y8639D02*
Y74039D01*
X194855D02*
X279555D01*
X194855Y8639D02*
Y74039D01*
Y8639D02*
X279555D01*
X139791D02*
Y74039D01*
X55091D02*
X139791D01*
X55091Y8639D02*
Y74039D01*
Y8639D02*
X139791D01*
D36*
X165354Y55118D02*
Y59055D01*
X163386Y57087D02*
X167323D01*
D38*
X101378Y198819D02*
G03*
X101378Y198819I-20669J0D01*
G01*
X290354Y235236D02*
G03*
X290354Y235236I-20669J0D01*
G01*
X313976Y198819D02*
G03*
X313976Y198819I-20669J0D01*
G01*
X220472Y236221D02*
G03*
X220472Y236221I-20669J0D01*
G01*
X243110Y198819D02*
G03*
X243110Y198819I-20669J0D01*
G01*
X149606Y235236D02*
G03*
X149606Y235236I-20669J0D01*
G01*
X172244Y198819D02*
G03*
X172244Y198819I-20669J0D01*
G01*
X78740Y236221D02*
G03*
X78740Y236221I-20669J0D01*
G01*
X156693Y52756D02*
X174016D01*
X156693Y61417D02*
X174016D01*
Y52756D02*
Y61417D01*
X156693Y52756D02*
Y61417D01*
X36299Y266929D02*
X95748D01*
X36299D02*
Y355118D01*
X95748D01*
Y266929D02*
Y355118D01*
X73933Y167835D02*
X94933D01*
X73933Y108071D02*
Y167835D01*
Y108071D02*
X94933D01*
Y167835D01*
X251098D02*
X272098D01*
X251098Y108071D02*
Y167835D01*
Y108071D02*
X272098D01*
Y167835D01*
X286531D02*
X307531D01*
X286531Y108071D02*
Y167835D01*
Y108071D02*
X307531D01*
Y167835D01*
X180232D02*
X201232D01*
X180232Y108071D02*
Y167835D01*
Y108071D02*
X201232D01*
Y167835D01*
X215665D02*
X236665D01*
X215665Y108071D02*
Y167835D01*
Y108071D02*
X236665D01*
Y167835D01*
X109366D02*
X130366D01*
X109366Y108071D02*
Y167835D01*
Y108071D02*
X130366D01*
Y167835D01*
X144799D02*
X165799D01*
X144799Y108071D02*
Y167835D01*
Y108071D02*
X165799D01*
Y167835D01*
X38500D02*
X59500D01*
X38500Y108071D02*
Y167835D01*
Y108071D02*
X59500D01*
Y167835D01*
X248898Y266929D02*
X308347D01*
X248898D02*
Y355118D01*
X308347D01*
Y266929D02*
Y355118D01*
X178032Y266929D02*
X237480D01*
X178032D02*
Y355118D01*
X237480D01*
Y266929D02*
Y355118D01*
X107165Y266929D02*
X166614D01*
X107165D02*
Y355118D01*
X166614D01*
Y266929D02*
Y355118D01*
M02*
