G04*
G04 #@! TF.GenerationSoftware,Altium Limited,Altium Designer,26.9.1 (10)*
G04*
G04 Layer_Color=8421504*
G04 Board_Origin=74640005|44270005*
%FSLAX25Y25*%
%MOIN*%
G70*
G04*
G04 #@! TF.SameCoordinates,3FED8E9F-E4E8-473A-AAD3-60139D3386C6*
G04*
G04*
G04 #@! TF.FilePolarity,Positive*
G04*
G01*
G75*
%ADD15R,0.06331X0.08693*%
G36*
X-74545Y57814D02*
Y58374D01*
X-70734D01*
Y57814D01*
X-72325D01*
Y53639D01*
X-72954D01*
Y57814D01*
X-74545D01*
D02*
G37*
G36*
X-70552Y55255D02*
X-70555Y55411D01*
Y55473D01*
X-70552Y55499D01*
Y55524D01*
X-70548Y55557D01*
X-70541Y55633D01*
X-70534Y55721D01*
X-70519Y55815D01*
X-70501Y55917D01*
X-70479Y56026D01*
X-70450Y56139D01*
X-70414Y56256D01*
X-70370Y56372D01*
X-70323Y56485D01*
X-70264Y56594D01*
X-70195Y56700D01*
X-70119Y56794D01*
X-70115Y56802D01*
X-70097Y56816D01*
X-70075Y56842D01*
X-70039Y56871D01*
X-69995Y56911D01*
X-69944Y56951D01*
X-69882Y56995D01*
X-69809Y57042D01*
X-69733Y57089D01*
X-69645Y57133D01*
X-69551Y57173D01*
X-69449Y57213D01*
X-69340Y57242D01*
X-69223Y57268D01*
X-69099Y57286D01*
X-68968Y57289D01*
X-68936D01*
X-68899Y57286D01*
X-68848Y57282D01*
X-68790Y57275D01*
X-68717Y57264D01*
X-68641Y57249D01*
X-68557Y57228D01*
X-68466Y57202D01*
X-68371Y57169D01*
X-68277Y57129D01*
X-68182Y57082D01*
X-68084Y57027D01*
X-67993Y56962D01*
X-67902Y56885D01*
X-67818Y56798D01*
X-67814Y56791D01*
X-67800Y56776D01*
X-67778Y56747D01*
X-67749Y56707D01*
X-67716Y56656D01*
X-67680Y56594D01*
X-67643Y56525D01*
X-67600Y56441D01*
X-67560Y56347D01*
X-67523Y56245D01*
X-67487Y56128D01*
X-67454Y56005D01*
X-67425Y55874D01*
X-67403Y55728D01*
X-67389Y55575D01*
X-67385Y55411D01*
Y55349D01*
X-67389Y55324D01*
Y55295D01*
X-67392Y55266D01*
X-67400Y55189D01*
X-67407Y55102D01*
X-67421Y55007D01*
X-67440Y54902D01*
X-67461Y54792D01*
X-67491Y54680D01*
X-67527Y54567D01*
X-67567Y54450D01*
X-67618Y54337D01*
X-67676Y54228D01*
X-67742Y54123D01*
X-67818Y54028D01*
X-67822Y54024D01*
X-67836Y54006D01*
X-67862Y53984D01*
X-67898Y53952D01*
X-67942Y53915D01*
X-67993Y53875D01*
X-68055Y53831D01*
X-68124Y53784D01*
X-68204Y53741D01*
X-68288Y53693D01*
X-68382Y53653D01*
X-68484Y53617D01*
X-68597Y53584D01*
X-68714Y53562D01*
X-68837Y53548D01*
X-68968Y53540D01*
X-69001D01*
X-69038Y53544D01*
X-69092Y53548D01*
X-69154Y53555D01*
X-69223Y53566D01*
X-69303Y53584D01*
X-69391Y53602D01*
X-69482Y53631D01*
X-69576Y53664D01*
X-69675Y53704D01*
X-69773Y53751D01*
X-69867Y53810D01*
X-69962Y53875D01*
X-70050Y53955D01*
X-70133Y54043D01*
X-70137Y54050D01*
X-70151Y54064D01*
X-70173Y54094D01*
X-70199Y54134D01*
X-70231Y54185D01*
X-70268Y54246D01*
X-70304Y54319D01*
X-70344Y54403D01*
X-70384Y54494D01*
X-70421Y54596D01*
X-70457Y54709D01*
X-70490Y54833D01*
X-70515Y54963D01*
X-70537Y55106D01*
X-70552Y55255D01*
D02*
G37*
%LPC*%
G36*
X-69940Y55349D02*
X-69937Y55302D01*
X-69933Y55247D01*
X-69926Y55182D01*
X-69918Y55113D01*
X-69907Y55036D01*
X-69897Y54956D01*
X-69860Y54789D01*
X-69835Y54705D01*
X-69806Y54621D01*
X-69773Y54541D01*
X-69733Y54469D01*
X-69689Y54399D01*
X-69686Y54396D01*
X-69678Y54385D01*
X-69664Y54367D01*
X-69616Y54319D01*
X-69584Y54290D01*
X-69547Y54261D01*
X-69503Y54228D01*
X-69456Y54195D01*
X-69402Y54166D01*
X-69343Y54137D01*
X-69278Y54112D01*
X-69209Y54090D01*
X-69136Y54072D01*
X-69052Y54061D01*
X-68968Y54057D01*
X-68947D01*
X-68925Y54061D01*
X-68892D01*
X-68852Y54068D01*
X-68808Y54075D01*
X-68761Y54086D01*
X-68706Y54101D01*
X-68648Y54115D01*
X-68590Y54137D01*
X-68532Y54166D01*
X-68473Y54199D01*
X-68415Y54236D01*
X-68357Y54283D01*
X-68306Y54334D01*
X-68255Y54392D01*
X-68251Y54396D01*
X-68244Y54407D01*
X-68233Y54428D01*
X-68215Y54454D01*
X-68175Y54534D01*
X-68149Y54589D01*
X-68128Y54647D01*
X-68102Y54712D01*
X-68080Y54789D01*
X-68058Y54873D01*
X-68040Y54963D01*
X-68022Y55065D01*
X-68011Y55171D01*
X-68004Y55287D01*
X-68000Y55411D01*
Y55477D01*
X-68004Y55524D01*
X-68007Y55582D01*
X-68015Y55648D01*
X-68022Y55721D01*
X-68033Y55797D01*
X-68044Y55881D01*
X-68062Y55964D01*
X-68106Y56132D01*
X-68138Y56216D01*
X-68171Y56296D01*
X-68211Y56369D01*
X-68255Y56434D01*
X-68259Y56438D01*
X-68266Y56449D01*
X-68280Y56467D01*
X-68328Y56514D01*
X-68357Y56540D01*
X-68437Y56605D01*
X-68488Y56634D01*
X-68539Y56667D01*
X-68597Y56692D01*
X-68663Y56722D01*
X-68732Y56740D01*
X-68805Y56758D01*
X-68885Y56769D01*
X-68968Y56773D01*
X-68990D01*
X-69012Y56769D01*
X-69045D01*
X-69085Y56762D01*
X-69129Y56754D01*
X-69179Y56744D01*
X-69234Y56729D01*
X-69292Y56711D01*
X-69351Y56689D01*
X-69409Y56663D01*
X-69471Y56631D01*
X-69529Y56591D01*
X-69587Y56547D01*
X-69638Y56492D01*
X-69689Y56434D01*
X-69693Y56430D01*
X-69700Y56419D01*
X-69711Y56398D01*
X-69729Y56372D01*
X-69769Y56292D01*
X-69791Y56241D01*
X-69813Y56179D01*
X-69838Y56114D01*
X-69860Y56037D01*
X-69882Y55954D01*
X-69900Y55863D01*
X-69918Y55761D01*
X-69929Y55651D01*
X-69937Y55535D01*
X-69940Y55411D01*
Y55349D01*
D02*
G37*
%LPD*%
G36*
X-66770Y52328D02*
Y57191D01*
X-66173D01*
Y56816D01*
X-66169Y56820D01*
X-66162Y56824D01*
X-66151Y56835D01*
X-66133Y56849D01*
X-66115Y56867D01*
X-66089Y56885D01*
X-66060Y56911D01*
X-66027Y56933D01*
X-65955Y56987D01*
X-65871Y57042D01*
X-65780Y57097D01*
X-65681Y57151D01*
X-65678D01*
X-65671Y57158D01*
X-65634Y57173D01*
X-65609Y57184D01*
X-65580Y57195D01*
X-65543Y57206D01*
X-65463Y57235D01*
X-65416Y57246D01*
X-65317Y57268D01*
X-65205Y57282D01*
X-65088Y57289D01*
X-65063D01*
X-65030Y57286D01*
X-64986Y57282D01*
X-64935Y57275D01*
X-64877Y57264D01*
X-64811Y57249D01*
X-64739Y57228D01*
X-64666Y57202D01*
X-64586Y57173D01*
X-64506Y57133D01*
X-64429Y57086D01*
X-64349Y57031D01*
X-64273Y56966D01*
X-64200Y56889D01*
X-64135Y56805D01*
X-64131Y56798D01*
X-64120Y56783D01*
X-64102Y56754D01*
X-64080Y56718D01*
X-64025Y56609D01*
X-63996Y56540D01*
X-63963Y56463D01*
X-63931Y56372D01*
X-63902Y56274D01*
X-63872Y56168D01*
X-63847Y56052D01*
X-63825Y55928D01*
X-63807Y55797D01*
X-63796Y55655D01*
X-63792Y55506D01*
Y55448D01*
X-63796Y55422D01*
Y55393D01*
X-63800Y55360D01*
X-63807Y55284D01*
X-63814Y55196D01*
X-63829Y55102D01*
X-63847Y54996D01*
X-63869Y54887D01*
X-63898Y54774D01*
X-63931Y54654D01*
X-63971Y54538D01*
X-64022Y54421D01*
X-64076Y54305D01*
X-64142Y54195D01*
X-64218Y54094D01*
X-64222Y54086D01*
X-64295Y54014D01*
X-64338Y53973D01*
X-64386Y53926D01*
X-64444Y53879D01*
X-64513Y53831D01*
X-64586Y53784D01*
X-64666Y53737D01*
X-64757Y53689D01*
X-64852Y53653D01*
X-64954Y53617D01*
X-65059Y53591D01*
X-65172Y53577D01*
X-65292Y53569D01*
X-65336D01*
X-65358Y53573D01*
X-65387D01*
X-65448Y53577D01*
X-65521Y53584D01*
X-65598Y53595D01*
X-65678Y53609D01*
X-65758Y53631D01*
X-65762D01*
X-65765Y53635D01*
X-65794Y53642D01*
X-65834Y53657D01*
X-65885Y53675D01*
X-65947Y53704D01*
X-66020Y53733D01*
X-66093Y53773D01*
X-66173Y53817D01*
Y52328D01*
X-66770D01*
D02*
G37*
%LPC*%
G36*
X-66173Y54305D02*
X-66169D01*
X-66162Y54301D01*
X-66151Y54294D01*
X-66133Y54286D01*
X-66115Y54276D01*
X-66089Y54265D01*
X-66035Y54243D01*
X-65973Y54214D01*
X-65907Y54188D01*
X-65838Y54166D01*
X-65772Y54148D01*
X-65765D01*
X-65743Y54141D01*
X-65707Y54137D01*
X-65663Y54130D01*
X-65605Y54123D01*
X-65539Y54115D01*
X-65467Y54112D01*
X-65390Y54108D01*
X-65368D01*
X-65347Y54112D01*
X-65314D01*
X-65274Y54119D01*
X-65230Y54126D01*
X-65179Y54137D01*
X-65125Y54152D01*
X-65066Y54170D01*
X-65008Y54192D01*
X-64950Y54217D01*
X-64888Y54250D01*
X-64830Y54290D01*
X-64771Y54334D01*
X-64717Y54388D01*
X-64666Y54447D01*
X-64662Y54450D01*
X-64640Y54483D01*
X-64626Y54509D01*
X-64560Y54640D01*
X-64535Y54698D01*
X-64488Y54840D01*
X-64466Y54920D01*
X-64447Y55007D01*
X-64433Y55106D01*
X-64418Y55211D01*
X-64411Y55320D01*
X-64407Y55440D01*
Y55499D01*
X-64411Y55542D01*
X-64415Y55593D01*
X-64418Y55651D01*
X-64422Y55717D01*
X-64433Y55786D01*
X-64444Y55859D01*
X-64455Y55939D01*
X-64491Y56096D01*
X-64513Y56172D01*
X-64539Y56245D01*
X-64568Y56318D01*
X-64604Y56383D01*
X-64608Y56387D01*
X-64611Y56398D01*
X-64626Y56416D01*
X-64640Y56438D01*
X-64662Y56463D01*
X-64753Y56554D01*
X-64797Y56583D01*
X-64841Y56616D01*
X-64895Y56642D01*
X-64950Y56671D01*
X-65012Y56689D01*
X-65081Y56707D01*
X-65154Y56718D01*
X-65234Y56722D01*
X-65277D01*
X-65299Y56718D01*
X-65328Y56714D01*
X-65390Y56707D01*
X-65467Y56692D01*
X-65547Y56674D01*
X-65638Y56645D01*
X-65725Y56605D01*
X-65729D01*
X-65736Y56602D01*
X-65747Y56594D01*
X-65765Y56583D01*
X-65787Y56572D01*
X-65812Y56561D01*
X-65871Y56529D01*
X-65940Y56485D01*
X-66013Y56438D01*
X-66093Y56379D01*
X-66173Y56318D01*
Y54305D01*
D02*
G37*
%LPD*%
G36*
X-61088Y53639D02*
Y58374D01*
X-59832D01*
X-59796Y58371D01*
X-59752D01*
X-59705Y58367D01*
X-59654D01*
X-59544Y58356D01*
X-59424Y58345D01*
X-59304Y58327D01*
X-59188Y58301D01*
X-59184D01*
X-59173Y58298D01*
X-59159Y58294D01*
X-59137Y58287D01*
X-59111Y58280D01*
X-59082Y58272D01*
X-59046Y58261D01*
X-59009Y58247D01*
X-58929Y58218D01*
X-58842Y58178D01*
X-58751Y58130D01*
X-58664Y58076D01*
X-58660Y58072D01*
X-58653Y58068D01*
X-58638Y58057D01*
X-58620Y58043D01*
X-58598Y58025D01*
X-58573Y58003D01*
X-58514Y57952D01*
X-58449Y57883D01*
X-58380Y57806D01*
X-58314Y57715D01*
X-58252Y57617D01*
X-58249Y57613D01*
X-58245Y57606D01*
X-58238Y57588D01*
X-58227Y57566D01*
X-58216Y57541D01*
X-58205Y57508D01*
X-58190Y57472D01*
X-58161Y57384D01*
X-58147Y57329D01*
X-58136Y57275D01*
X-58125Y57217D01*
X-58114Y57155D01*
X-58107Y57086D01*
X-58099Y56944D01*
Y56893D01*
X-58103Y56864D01*
X-58107Y56831D01*
X-58110Y56794D01*
X-58114Y56754D01*
X-58128Y56663D01*
X-58147Y56565D01*
X-58176Y56463D01*
X-58212Y56358D01*
Y56354D01*
X-58223Y56332D01*
X-58230Y56310D01*
X-58245Y56288D01*
X-58256Y56263D01*
X-58292Y56198D01*
X-58332Y56125D01*
X-58387Y56045D01*
X-58445Y55968D01*
X-58514Y55892D01*
X-58525Y55881D01*
X-58540Y55870D01*
X-58558Y55852D01*
X-58580Y55834D01*
X-58609Y55808D01*
X-58642Y55783D01*
X-58678Y55757D01*
X-58718Y55728D01*
X-58762Y55699D01*
X-58860Y55637D01*
X-58969Y55579D01*
X-59089Y55528D01*
X-59093D01*
X-59104Y55524D01*
X-59122Y55517D01*
X-59148Y55510D01*
X-59180Y55499D01*
X-59220Y55488D01*
X-59268Y55477D01*
X-59319Y55466D01*
X-59377Y55455D01*
X-59439Y55444D01*
X-59508Y55433D01*
X-59581Y55422D01*
X-59661Y55415D01*
X-59745Y55408D01*
X-59832Y55404D01*
X-60458D01*
Y53639D01*
X-61088D01*
D02*
G37*
%LPC*%
G36*
X-60458Y55943D02*
X-59970D01*
X-59938Y55946D01*
X-59857D01*
X-59715Y55957D01*
X-59610Y55968D01*
X-59512Y55983D01*
X-59417Y56005D01*
X-59413D01*
X-59406Y56008D01*
X-59395Y56012D01*
X-59377Y56015D01*
X-59359Y56023D01*
X-59333Y56034D01*
X-59279Y56055D01*
X-59217Y56085D01*
X-59151Y56125D01*
X-59086Y56168D01*
X-59024Y56223D01*
X-59017Y56230D01*
X-59002Y56248D01*
X-58977Y56278D01*
X-58944Y56314D01*
X-58911Y56361D01*
X-58878Y56412D01*
X-58846Y56471D01*
X-58820Y56532D01*
Y56536D01*
X-58816Y56540D01*
X-58809Y56561D01*
X-58798Y56598D01*
X-58787Y56645D01*
X-58776Y56703D01*
X-58766Y56773D01*
X-58758Y56849D01*
X-58755Y56929D01*
Y56969D01*
X-58758Y56991D01*
Y57016D01*
X-58766Y57075D01*
X-58776Y57140D01*
X-58791Y57209D01*
X-58813Y57282D01*
X-58842Y57351D01*
Y57355D01*
X-58846Y57359D01*
X-58856Y57380D01*
X-58878Y57417D01*
X-58904Y57457D01*
X-58940Y57504D01*
X-58984Y57555D01*
X-59035Y57603D01*
X-59097Y57650D01*
X-59104Y57653D01*
X-59122Y57664D01*
X-59155Y57683D01*
X-59195Y57704D01*
X-59246Y57726D01*
X-59308Y57748D01*
X-59373Y57770D01*
X-59446Y57788D01*
X-59450D01*
X-59453Y57792D01*
X-59464D01*
X-59501Y57799D01*
X-59523Y57803D01*
X-59581Y57810D01*
X-59654Y57817D01*
X-59737Y57825D01*
X-59832Y57832D01*
X-60458D01*
Y55943D01*
D02*
G37*
%LPD*%
G36*
X-57794Y54581D02*
X-57797Y54669D01*
Y54705D01*
X-57794Y54731D01*
Y54763D01*
X-57790Y54800D01*
X-57783Y54840D01*
X-57779Y54883D01*
X-57761Y54982D01*
X-57732Y55087D01*
X-57695Y55193D01*
X-57644Y55295D01*
X-57641Y55298D01*
X-57637Y55306D01*
X-57626Y55320D01*
X-57615Y55338D01*
X-57597Y55360D01*
X-57553Y55411D01*
X-57524Y55444D01*
X-57491Y55477D01*
X-57455Y55510D01*
X-57415Y55542D01*
X-57368Y55579D01*
X-57320Y55611D01*
X-57269Y55644D01*
X-57211Y55677D01*
X-57149Y55706D01*
X-57146D01*
X-57135Y55713D01*
X-57120Y55721D01*
X-57095Y55728D01*
X-57069Y55739D01*
X-57033Y55753D01*
X-56993Y55768D01*
X-56949Y55783D01*
X-56902Y55797D01*
X-56847Y55812D01*
X-56789Y55830D01*
X-56727Y55844D01*
X-56592Y55874D01*
X-56447Y55895D01*
X-56443D01*
X-56429Y55899D01*
X-56407D01*
X-56374Y55903D01*
X-56338Y55910D01*
X-56294Y55914D01*
X-56243Y55921D01*
X-56185Y55924D01*
X-56054Y55939D01*
X-55981Y55946D01*
X-55904Y55954D01*
X-55741Y55964D01*
X-55566Y55975D01*
Y56121D01*
X-55570Y56161D01*
X-55573Y56208D01*
X-55581Y56263D01*
X-55610Y56372D01*
X-55631Y56423D01*
X-55642Y56445D01*
X-55657Y56467D01*
X-55675Y56496D01*
X-55701Y56529D01*
X-55733Y56561D01*
X-55770Y56594D01*
X-55810Y56623D01*
X-55813Y56627D01*
X-55832Y56634D01*
X-55853Y56649D01*
X-55886Y56663D01*
X-55926Y56678D01*
X-55977Y56696D01*
X-56028Y56711D01*
X-56090Y56722D01*
X-56097D01*
X-56119Y56725D01*
X-56152Y56729D01*
X-56192Y56736D01*
X-56243Y56740D01*
X-56301Y56744D01*
X-56363Y56747D01*
X-56487D01*
X-56509Y56744D01*
X-56538D01*
X-56567Y56740D01*
X-56640Y56733D01*
X-56723Y56722D01*
X-56814Y56707D01*
X-56916Y56685D01*
X-56920D01*
X-56927Y56682D01*
X-56964Y56674D01*
X-56989Y56667D01*
X-57018Y56660D01*
X-57055Y56649D01*
X-57091Y56642D01*
X-57175Y56616D01*
X-57269Y56583D01*
X-57371Y56547D01*
X-57477Y56507D01*
X-57510D01*
Y57111D01*
X-57506D01*
X-57502Y57115D01*
X-57491D01*
X-57481Y57118D01*
X-57462Y57126D01*
X-57441Y57129D01*
X-57419Y57137D01*
X-57390Y57144D01*
X-57320Y57158D01*
X-57240Y57177D01*
X-57146Y57195D01*
X-57037Y57217D01*
X-57033D01*
X-57022Y57220D01*
X-57007Y57224D01*
X-56956Y57231D01*
X-56924Y57235D01*
X-56884Y57242D01*
X-56844Y57246D01*
X-56753Y57257D01*
X-56647Y57268D01*
X-56538Y57271D01*
X-56425Y57275D01*
X-56334D01*
X-56298Y57271D01*
X-56257D01*
X-56116Y57260D01*
X-56010Y57249D01*
X-55908Y57235D01*
X-55810Y57217D01*
X-55806D01*
X-55799Y57213D01*
X-55784Y57209D01*
X-55766Y57206D01*
X-55744Y57199D01*
X-55719Y57191D01*
X-55657Y57169D01*
X-55588Y57140D01*
X-55511Y57104D01*
X-55431Y57060D01*
X-55355Y57009D01*
X-55351D01*
X-55348Y57002D01*
X-55337Y56995D01*
X-55322Y56984D01*
X-55246Y56907D01*
X-55198Y56853D01*
X-55151Y56787D01*
X-55107Y56714D01*
X-55067Y56631D01*
Y56627D01*
X-55064Y56620D01*
X-55056Y56609D01*
X-55053Y56591D01*
X-55045Y56565D01*
X-55035Y56540D01*
X-55027Y56507D01*
X-55016Y56474D01*
X-55009Y56434D01*
X-55002Y56390D01*
X-54984Y56296D01*
X-54973Y56187D01*
X-54969Y56066D01*
Y53639D01*
X-55566D01*
Y54017D01*
X-55570Y54014D01*
X-55581Y54006D01*
X-55595Y53995D01*
X-55620Y53977D01*
X-55650Y53955D01*
X-55682Y53930D01*
X-55722Y53901D01*
X-55766Y53864D01*
X-55770Y53861D01*
X-55788Y53850D01*
X-55810Y53831D01*
X-55839Y53810D01*
X-55875Y53784D01*
X-55955Y53733D01*
X-56006Y53708D01*
X-56025Y53697D01*
X-56057Y53682D01*
X-56097Y53668D01*
X-56145Y53646D01*
X-56196Y53624D01*
X-56309Y53588D01*
X-56316Y53584D01*
X-56334Y53580D01*
X-56367Y53573D01*
X-56414Y53566D01*
X-56472Y53555D01*
X-56545Y53548D01*
X-56625Y53544D01*
X-56720Y53540D01*
X-56756D01*
X-56778Y53544D01*
X-56800D01*
X-56854Y53551D01*
X-56920Y53562D01*
X-56989Y53577D01*
X-57066Y53595D01*
X-57138Y53624D01*
X-57142D01*
X-57146Y53628D01*
X-57157Y53631D01*
X-57208Y53657D01*
X-57255Y53682D01*
X-57310Y53715D01*
X-57368Y53755D01*
X-57426Y53802D01*
X-57484Y53853D01*
X-57491Y53861D01*
X-57506Y53879D01*
X-57535Y53912D01*
X-57564Y53952D01*
X-57601Y54006D01*
X-57641Y54068D01*
X-57677Y54137D01*
X-57714Y54214D01*
Y54217D01*
X-57717Y54225D01*
X-57721Y54236D01*
X-57728Y54250D01*
X-57732Y54272D01*
X-57739Y54294D01*
X-57754Y54352D01*
X-57772Y54418D01*
X-57783Y54498D01*
X-57794Y54581D01*
D02*
G37*
%LPC*%
G36*
X-57182Y54680D02*
X-57178Y54658D01*
Y54632D01*
X-57171Y54603D01*
X-57160Y54538D01*
X-57138Y54461D01*
X-57109Y54385D01*
X-57066Y54312D01*
X-57040Y54279D01*
X-57011Y54246D01*
X-57007D01*
X-57004Y54239D01*
X-56993Y54232D01*
X-56978Y54221D01*
X-56960Y54210D01*
X-56938Y54199D01*
X-56913Y54185D01*
X-56884Y54170D01*
X-56851Y54155D01*
X-56814Y54141D01*
X-56727Y54119D01*
X-56676Y54108D01*
X-56625Y54101D01*
X-56571Y54097D01*
X-56509Y54094D01*
X-56480D01*
X-56461Y54097D01*
X-56436D01*
X-56407Y54101D01*
X-56374Y54105D01*
X-56338Y54108D01*
X-56261Y54123D01*
X-56174Y54145D01*
X-56086Y54174D01*
X-55999Y54214D01*
X-55995D01*
X-55988Y54221D01*
X-55977Y54225D01*
X-55941Y54246D01*
X-55915Y54261D01*
X-55857Y54297D01*
X-55792Y54341D01*
X-55719Y54392D01*
X-55642Y54447D01*
X-55566Y54512D01*
Y55499D01*
X-55577D01*
X-55588Y55495D01*
X-55606D01*
X-55624Y55491D01*
X-55650D01*
X-55715Y55484D01*
X-55752Y55480D01*
X-55792Y55477D01*
X-55886Y55466D01*
X-55992Y55455D01*
X-56108Y55444D01*
X-56123D01*
X-56141Y55440D01*
X-56163Y55437D01*
X-56188Y55433D01*
X-56221Y55429D01*
X-56257Y55426D01*
X-56294Y55418D01*
X-56378Y55408D01*
X-56552Y55371D01*
X-56632Y55349D01*
X-56636D01*
X-56643Y55346D01*
X-56654Y55342D01*
X-56673Y55335D01*
X-56716Y55320D01*
X-56771Y55295D01*
X-56836Y55262D01*
X-56902Y55226D01*
X-56967Y55178D01*
X-57029Y55127D01*
X-57037Y55120D01*
X-57055Y55098D01*
X-57077Y55065D01*
X-57106Y55018D01*
X-57135Y54960D01*
X-57157Y54887D01*
X-57175Y54803D01*
X-57182Y54709D01*
Y54680D01*
D02*
G37*
%LPD*%
G36*
X-54266Y53806D02*
X-54347Y53846D01*
Y54519D01*
X-54317D01*
X-54314Y54516D01*
X-54303Y54509D01*
X-54288Y54498D01*
X-54266Y54479D01*
X-54241Y54461D01*
X-54208Y54436D01*
X-54139Y54385D01*
X-54135Y54381D01*
X-54121Y54374D01*
X-54095Y54359D01*
X-54066Y54337D01*
X-54026Y54316D01*
X-53979Y54290D01*
X-53924Y54261D01*
X-53862Y54232D01*
X-53855Y54228D01*
X-53837Y54221D01*
X-53804Y54206D01*
X-53764Y54188D01*
X-53713Y54170D01*
X-53655Y54148D01*
X-53593Y54126D01*
X-53527Y54105D01*
X-53524D01*
X-53520Y54101D01*
X-53509D01*
X-53495Y54097D01*
X-53458Y54090D01*
X-53411Y54079D01*
X-53356Y54068D01*
X-53291Y54061D01*
X-53222Y54057D01*
X-53149Y54053D01*
X-53123D01*
X-53094Y54057D01*
X-53058D01*
X-53014Y54061D01*
X-52905Y54075D01*
X-52847Y54086D01*
X-52840D01*
X-52821Y54094D01*
X-52792Y54101D01*
X-52756Y54108D01*
X-52636Y54152D01*
X-52603Y54170D01*
X-52599Y54174D01*
X-52585Y54185D01*
X-52567Y54199D01*
X-52541Y54217D01*
X-52516Y54239D01*
X-52465Y54297D01*
X-52443Y54326D01*
X-52439Y54330D01*
X-52428Y54363D01*
X-52417Y54388D01*
X-52406Y54425D01*
X-52399Y54469D01*
X-52395Y54519D01*
X-52392Y54578D01*
Y54614D01*
X-52399Y54650D01*
X-52406Y54698D01*
X-52421Y54749D01*
X-52439Y54803D01*
X-52468Y54854D01*
X-52508Y54898D01*
X-52516Y54902D01*
X-52530Y54916D01*
X-52559Y54938D01*
X-52603Y54963D01*
X-52661Y54993D01*
X-52694Y55007D01*
X-52730Y55022D01*
X-52770Y55040D01*
X-52865Y55069D01*
X-52920Y55084D01*
X-52923D01*
X-52942Y55087D01*
X-52963Y55095D01*
X-53000Y55102D01*
X-53043Y55109D01*
X-53094Y55120D01*
X-53153Y55131D01*
X-53218Y55146D01*
X-53222D01*
X-53225Y55149D01*
X-53236D01*
X-53251Y55153D01*
X-53284Y55160D01*
X-53331Y55171D01*
X-53382Y55182D01*
X-53440Y55196D01*
X-53560Y55229D01*
X-53564D01*
X-53579Y55237D01*
X-53600Y55240D01*
X-53626Y55251D01*
X-53659Y55262D01*
X-53739Y55298D01*
X-53786Y55317D01*
X-53881Y55368D01*
X-53979Y55429D01*
X-54070Y55506D01*
X-54114Y55546D01*
X-54150Y55590D01*
X-54154Y55593D01*
X-54157Y55601D01*
X-54168Y55615D01*
X-54179Y55633D01*
X-54194Y55659D01*
X-54208Y55688D01*
X-54223Y55721D01*
X-54241Y55757D01*
X-54259Y55801D01*
X-54274Y55844D01*
X-54303Y55946D01*
X-54325Y56063D01*
X-54328Y56125D01*
X-54332Y56190D01*
Y56212D01*
X-54328Y56238D01*
X-54325Y56270D01*
X-54321Y56310D01*
X-54314Y56358D01*
X-54303Y56409D01*
X-54288Y56467D01*
X-54245Y56591D01*
X-54216Y56656D01*
X-54179Y56722D01*
X-54139Y56783D01*
X-54092Y56849D01*
X-54033Y56911D01*
X-53972Y56969D01*
X-53968Y56973D01*
X-53953Y56984D01*
X-53935Y56998D01*
X-53906Y57016D01*
X-53870Y57042D01*
X-53826Y57067D01*
X-53717Y57122D01*
X-53651Y57151D01*
X-53579Y57177D01*
X-53498Y57206D01*
X-53415Y57228D01*
X-53324Y57246D01*
X-53225Y57260D01*
X-53120Y57271D01*
X-53011Y57275D01*
X-52960D01*
X-52931Y57271D01*
X-52901D01*
X-52865Y57268D01*
X-52825Y57264D01*
X-52734Y57257D01*
X-52632Y57242D01*
X-52526Y57224D01*
X-52414Y57199D01*
X-52410D01*
X-52399Y57195D01*
X-52385Y57191D01*
X-52363Y57184D01*
X-52337Y57177D01*
X-52308Y57169D01*
X-52239Y57148D01*
X-52159Y57122D01*
X-52075Y57093D01*
X-51991Y57056D01*
X-51911Y57016D01*
Y56379D01*
X-51944D01*
X-51948Y56383D01*
X-51955Y56387D01*
X-51966Y56398D01*
X-51984Y56409D01*
X-52006Y56427D01*
X-52031Y56441D01*
X-52061Y56463D01*
X-52093Y56485D01*
X-52170Y56529D01*
X-52257Y56576D01*
X-52352Y56623D01*
X-52454Y56667D01*
X-52457D01*
X-52465Y56671D01*
X-52501Y56685D01*
X-52526Y56692D01*
X-52556Y56700D01*
X-52628Y56722D01*
X-52716Y56740D01*
X-52810Y56758D01*
X-52916Y56769D01*
X-53022Y56773D01*
X-53051D01*
X-53069Y56769D01*
X-53094D01*
X-53193Y56758D01*
X-53273Y56740D01*
X-53356Y56718D01*
X-53440Y56689D01*
X-53520Y56645D01*
X-53524D01*
X-53527Y56638D01*
X-53553Y56623D01*
X-53582Y56594D01*
X-53619Y56551D01*
X-53659Y56500D01*
X-53688Y56434D01*
X-53713Y56358D01*
X-53717Y56318D01*
X-53720Y56270D01*
Y56248D01*
X-53717Y56234D01*
X-53713Y56194D01*
X-53706Y56147D01*
X-53691Y56092D01*
X-53670Y56034D01*
X-53640Y55983D01*
X-53600Y55935D01*
X-53593Y55932D01*
X-53579Y55917D01*
X-53549Y55899D01*
X-53506Y55874D01*
X-53455Y55844D01*
X-53386Y55815D01*
X-53306Y55786D01*
X-53215Y55757D01*
X-53207D01*
X-53193Y55750D01*
X-53163Y55743D01*
X-53127Y55735D01*
X-53083Y55724D01*
X-53036Y55713D01*
X-52978Y55699D01*
X-52920Y55688D01*
X-52912D01*
X-52890Y55681D01*
X-52858Y55677D01*
X-52814Y55666D01*
X-52763Y55655D01*
X-52705Y55641D01*
X-52574Y55611D01*
X-52570D01*
X-52556Y55608D01*
X-52537Y55601D01*
X-52508Y55593D01*
X-52476Y55582D01*
X-52439Y55568D01*
X-52395Y55553D01*
X-52352Y55535D01*
X-52257Y55488D01*
X-52159Y55433D01*
X-52064Y55364D01*
X-52021Y55324D01*
X-51977Y55280D01*
X-51973Y55273D01*
X-51962Y55258D01*
X-51948Y55240D01*
X-51933Y55218D01*
X-51919Y55189D01*
X-51900Y55156D01*
X-51879Y55120D01*
X-51860Y55076D01*
X-51842Y55029D01*
X-51828Y54978D01*
X-51813Y54923D01*
X-51798Y54862D01*
X-51788Y54800D01*
X-51784Y54731D01*
X-51780Y54658D01*
Y54618D01*
X-51784Y54599D01*
Y54574D01*
X-51791Y54519D01*
X-51802Y54450D01*
X-51820Y54378D01*
X-51842Y54301D01*
X-51871Y54225D01*
Y54221D01*
X-51875Y54217D01*
X-51882Y54206D01*
X-51889Y54192D01*
X-51908Y54152D01*
X-51937Y54105D01*
X-51977Y54050D01*
X-52021Y53992D01*
X-52075Y53933D01*
X-52137Y53875D01*
X-52141D01*
X-52144Y53868D01*
X-52155Y53861D01*
X-52170Y53850D01*
X-52188Y53835D01*
X-52264Y53784D01*
X-52326Y53748D01*
X-52403Y53708D01*
X-52483Y53668D01*
X-52570Y53635D01*
X-52574D01*
X-52581Y53631D01*
X-52596Y53628D01*
X-52614Y53620D01*
X-52636Y53617D01*
X-52665Y53609D01*
X-52698Y53602D01*
X-52734Y53595D01*
X-52774Y53584D01*
X-52869Y53569D01*
X-52923Y53566D01*
X-53040Y53555D01*
X-53171Y53551D01*
X-53233D01*
X-53262Y53555D01*
X-53298D01*
X-53342Y53558D01*
X-53389Y53562D01*
X-53491Y53573D01*
X-53604Y53591D01*
X-53720Y53613D01*
X-53837Y53646D01*
X-53841D01*
X-53851Y53649D01*
X-53866Y53657D01*
X-53888Y53664D01*
X-53913Y53671D01*
X-53946Y53682D01*
X-54015Y53708D01*
X-54099Y53737D01*
X-54183Y53770D01*
X-54266Y53806D01*
D02*
G37*
G36*
X-51591Y56696D02*
Y57191D01*
X-51187D01*
Y58210D01*
X-50590D01*
Y57191D01*
X-49491D01*
Y56696D01*
X-50590D01*
Y54851D01*
X-50586Y54782D01*
Y54643D01*
X-50583Y54585D01*
Y54578D01*
X-50579Y54559D01*
X-50576Y54534D01*
X-50568Y54498D01*
X-50561Y54454D01*
X-50546Y54410D01*
X-50532Y54359D01*
X-50510Y54312D01*
X-50506Y54308D01*
X-50499Y54294D01*
X-50485Y54272D01*
X-50466Y54250D01*
X-50444Y54221D01*
X-50412Y54195D01*
X-50379Y54166D01*
X-50328Y54141D01*
X-50313Y54137D01*
X-50288Y54126D01*
X-50248Y54119D01*
X-50201Y54108D01*
X-50146Y54097D01*
X-50080Y54094D01*
X-50008Y54090D01*
X-49982D01*
X-49953Y54094D01*
X-49917D01*
X-49877Y54101D01*
X-49829Y54108D01*
X-49778Y54115D01*
X-49727Y54130D01*
X-49720Y54134D01*
X-49705Y54137D01*
X-49680Y54145D01*
X-49651Y54155D01*
X-49585Y54181D01*
X-49553Y54192D01*
X-49527Y54203D01*
X-49491D01*
Y53668D01*
X-49498D01*
X-49520Y53660D01*
X-49553Y53653D01*
X-49596Y53642D01*
X-49651Y53631D01*
X-49709Y53620D01*
X-49771Y53609D01*
X-49837Y53598D01*
X-49844D01*
X-49866Y53595D01*
X-49898Y53591D01*
X-49938Y53584D01*
X-49989Y53580D01*
X-50040Y53573D01*
X-50153Y53569D01*
X-50175D01*
X-50201Y53573D01*
X-50233D01*
X-50273Y53577D01*
X-50321Y53584D01*
X-50375Y53591D01*
X-50430Y53606D01*
X-50492Y53620D01*
X-50554Y53639D01*
X-50616Y53660D01*
X-50681Y53686D01*
X-50743Y53719D01*
X-50801Y53755D01*
X-50859Y53799D01*
X-50914Y53846D01*
X-50918Y53850D01*
X-50925Y53861D01*
X-50940Y53875D01*
X-50958Y53901D01*
X-50976Y53930D01*
X-51001Y53966D01*
X-51049Y54061D01*
X-51074Y54119D01*
X-51100Y54185D01*
X-51125Y54254D01*
X-51143Y54334D01*
X-51161Y54421D01*
X-51176Y54516D01*
X-51183Y54618D01*
X-51187Y54727D01*
Y56696D01*
X-51591D01*
D02*
G37*
G36*
X-49287Y55233D02*
X-49291Y55393D01*
Y55433D01*
X-49287Y55451D01*
Y55506D01*
X-49283Y55539D01*
X-49276Y55611D01*
X-49265Y55695D01*
X-49254Y55790D01*
X-49232Y55892D01*
X-49211Y56001D01*
X-49181Y56114D01*
X-49145Y56227D01*
X-49101Y56343D01*
X-49047Y56460D01*
X-48988Y56569D01*
X-48919Y56678D01*
X-48839Y56776D01*
X-48836Y56783D01*
X-48817Y56798D01*
X-48792Y56824D01*
X-48755Y56856D01*
X-48712Y56896D01*
X-48657Y56940D01*
X-48592Y56984D01*
X-48519Y57035D01*
X-48439Y57082D01*
X-48348Y57126D01*
X-48250Y57169D01*
X-48144Y57209D01*
X-48031Y57242D01*
X-47911Y57268D01*
X-47784Y57282D01*
X-47649Y57289D01*
X-47594D01*
X-47565Y57286D01*
X-47529D01*
X-47492Y57282D01*
X-47452Y57279D01*
X-47361Y57264D01*
X-47263Y57249D01*
X-47161Y57224D01*
X-47063Y57191D01*
X-47059D01*
X-47037Y57180D01*
X-47019Y57173D01*
X-46997Y57162D01*
X-46972Y57151D01*
X-46910Y57118D01*
X-46841Y57078D01*
X-46768Y57024D01*
X-46692Y56966D01*
X-46615Y56889D01*
X-46611Y56882D01*
X-46586Y56856D01*
X-46571Y56838D01*
X-46553Y56813D01*
X-46510Y56754D01*
X-46462Y56682D01*
X-46411Y56598D01*
X-46364Y56500D01*
X-46324Y56394D01*
Y56390D01*
X-46320Y56379D01*
X-46313Y56365D01*
X-46309Y56343D01*
X-46299Y56314D01*
X-46291Y56281D01*
X-46284Y56241D01*
X-46262Y56147D01*
X-46255Y56092D01*
X-46244Y56034D01*
X-46237Y55968D01*
X-46233Y55903D01*
X-46226Y55830D01*
X-46222Y55677D01*
Y55353D01*
X-48683D01*
Y55327D01*
X-48679Y55295D01*
Y55251D01*
X-48672Y55200D01*
X-48665Y55138D01*
X-48657Y55073D01*
X-48628Y54927D01*
X-48606Y54847D01*
X-48581Y54767D01*
X-48552Y54690D01*
X-48515Y54614D01*
X-48475Y54538D01*
X-48428Y54469D01*
X-48373Y54403D01*
X-48359Y54388D01*
X-48340Y54374D01*
X-48315Y54352D01*
X-48282Y54326D01*
X-48246Y54301D01*
X-48199Y54272D01*
X-48148Y54243D01*
X-48089Y54210D01*
X-48024Y54181D01*
X-47955Y54155D01*
X-47878Y54130D01*
X-47794Y54108D01*
X-47707Y54094D01*
X-47613Y54083D01*
X-47511Y54079D01*
X-47478D01*
X-47438Y54083D01*
X-47387Y54086D01*
X-47329Y54090D01*
X-47263Y54097D01*
X-47194Y54108D01*
X-47125Y54123D01*
X-47121D01*
X-47117Y54126D01*
X-47107D01*
X-47092Y54130D01*
X-47056Y54141D01*
X-47012Y54152D01*
X-46957Y54170D01*
X-46899Y54188D01*
X-46783Y54236D01*
X-46779D01*
X-46775Y54239D01*
X-46753Y54246D01*
X-46644Y54301D01*
X-46597Y54326D01*
X-46510Y54378D01*
X-46506Y54381D01*
X-46491Y54388D01*
X-46470Y54403D01*
X-46444Y54421D01*
X-46382Y54461D01*
X-46353Y54487D01*
X-46324Y54509D01*
X-46288D01*
Y53857D01*
X-46291Y53853D01*
X-46306Y53850D01*
X-46328Y53839D01*
X-46360Y53828D01*
X-46397Y53813D01*
X-46444Y53795D01*
X-46495Y53773D01*
X-46550Y53751D01*
X-46557Y53748D01*
X-46575Y53741D01*
X-46604Y53730D01*
X-46644Y53715D01*
X-46688Y53700D01*
X-46830Y53657D01*
X-46834D01*
X-46837Y53653D01*
X-46859Y53649D01*
X-46892Y53642D01*
X-46935Y53631D01*
X-46983Y53617D01*
X-47147Y53584D01*
X-47154D01*
X-47172Y53580D01*
X-47201Y53577D01*
X-47245Y53573D01*
X-47296Y53566D01*
X-47358Y53562D01*
X-47427Y53558D01*
X-47540D01*
X-47562Y53562D01*
X-47583D01*
X-47645Y53566D01*
X-47714Y53573D01*
X-47798Y53584D01*
X-47889Y53598D01*
X-47987Y53617D01*
X-48093Y53642D01*
X-48199Y53675D01*
X-48311Y53715D01*
X-48421Y53759D01*
X-48530Y53813D01*
X-48632Y53879D01*
X-48734Y53952D01*
X-48825Y54035D01*
X-48828Y54043D01*
X-48843Y54057D01*
X-48868Y54086D01*
X-48897Y54123D01*
X-48934Y54174D01*
X-48970Y54232D01*
X-49014Y54305D01*
X-49058Y54385D01*
X-49101Y54476D01*
X-49141Y54578D01*
X-49181Y54687D01*
X-49218Y54811D01*
X-49247Y54942D01*
X-49269Y55084D01*
X-49287Y55233D01*
D02*
G37*
%LPC*%
G36*
X-48683Y55812D02*
X-46804D01*
Y55852D01*
X-46808Y55874D01*
Y55895D01*
X-46815Y55954D01*
X-46823Y56019D01*
X-46845Y56157D01*
X-46863Y56227D01*
Y56230D01*
X-46866Y56234D01*
X-46885Y56288D01*
X-46899Y56328D01*
X-46921Y56376D01*
X-46946Y56423D01*
X-46975Y56474D01*
X-47008Y56521D01*
X-47012Y56529D01*
X-47081Y56598D01*
X-47121Y56631D01*
X-47165Y56663D01*
X-47219Y56696D01*
X-47285Y56729D01*
X-47307Y56736D01*
X-47343Y56747D01*
X-47390Y56762D01*
X-47449Y56776D01*
X-47518Y56787D01*
X-47594Y56794D01*
X-47682Y56798D01*
X-47722D01*
X-47744Y56794D01*
X-47765D01*
X-47824Y56791D01*
X-47886Y56780D01*
X-47955Y56769D01*
X-48024Y56751D01*
X-48089Y56725D01*
X-48148Y56696D01*
X-48191Y56671D01*
X-48235Y56642D01*
X-48286Y56609D01*
X-48340Y56565D01*
X-48392Y56518D01*
X-48399Y56511D01*
X-48413Y56492D01*
X-48439Y56463D01*
X-48468Y56427D01*
X-48501Y56379D01*
X-48533Y56325D01*
X-48566Y56267D01*
X-48595Y56205D01*
Y56201D01*
X-48599Y56198D01*
X-48606Y56176D01*
X-48617Y56139D01*
X-48632Y56092D01*
X-48646Y56034D01*
X-48661Y55968D01*
X-48675Y55892D01*
X-48683Y55812D01*
D02*
G37*
%LPD*%
D15*
X161811Y92520D02*
D03*
X172835D02*
D03*
M02*
