G04*
G04 #@! TF.GenerationSoftware,Altium Limited,Altium Designer,26.9.1 (10)*
G04*
G04 Layer_Color=32768*
G04 Board_Origin=74640005|44270005*
%FSLAX25Y25*%
%MOIN*%
G70*
G04*
G04 #@! TF.SameCoordinates,3E8CC08A-A5ED-43A6-9E81-9DF4D0A12131*
G04*
G04*
G04 #@! TF.FilePolarity,Positive*
G04*
G01*
G75*
%ADD13C,0.00600*%
%ADD33C,0.00394*%
%ADD35C,0.00197*%
D13*
X55091Y8639D02*
X139791D01*
X55091D02*
Y74039D01*
X139791D01*
Y8639D02*
Y74039D01*
X194855Y8639D02*
X279555D01*
X194855D02*
Y74039D01*
X279555D01*
Y8639D02*
Y74039D01*
D33*
X165354Y92520D02*
X169291D01*
X167323Y90551D02*
Y94488D01*
D35*
X101378Y198819D02*
G03*
X101378Y198819I-20669J0D01*
G01*
X78740Y236221D02*
G03*
X78740Y236221I-20669J0D01*
G01*
X172244Y198819D02*
G03*
X172244Y198819I-20669J0D01*
G01*
X149606Y235236D02*
G03*
X149606Y235236I-20669J0D01*
G01*
X243110Y198819D02*
G03*
X243110Y198819I-20669J0D01*
G01*
X220472Y236221D02*
G03*
X220472Y236221I-20669J0D01*
G01*
X313976Y198819D02*
G03*
X313976Y198819I-20669J0D01*
G01*
X290354Y235236D02*
G03*
X290354Y235236I-20669J0D01*
G01*
X158661Y88189D02*
Y96850D01*
X175984Y88189D02*
Y96850D01*
X158661D02*
X175984D01*
X158661Y88189D02*
X175984D01*
X94933Y108071D02*
Y167835D01*
X73933Y108071D02*
X94933D01*
X73933D02*
Y167835D01*
X94933D01*
X59500Y108071D02*
Y167835D01*
X38500Y108071D02*
X59500D01*
X38500D02*
Y167835D01*
X59500D01*
X165799Y108071D02*
Y167835D01*
X144799Y108071D02*
X165799D01*
X144799D02*
Y167835D01*
X165799D01*
X130366Y108071D02*
Y167835D01*
X109366Y108071D02*
X130366D01*
X109366D02*
Y167835D01*
X130366D01*
X236665Y108071D02*
Y167835D01*
X215665Y108071D02*
X236665D01*
X215665D02*
Y167835D01*
X236665D01*
X201232Y108071D02*
Y167835D01*
X180232Y108071D02*
X201232D01*
X180232D02*
Y167835D01*
X201232D01*
X307531Y108071D02*
Y167835D01*
X286531Y108071D02*
X307531D01*
X286531D02*
Y167835D01*
X307531D01*
X272098Y108071D02*
Y167835D01*
X251098Y108071D02*
X272098D01*
X251098D02*
Y167835D01*
X272098D01*
X308347Y266929D02*
Y355118D01*
X248898D02*
X308347D01*
X248898Y266929D02*
Y355118D01*
Y266929D02*
X308347D01*
X237480D02*
Y355118D01*
X178032D02*
X237480D01*
X178032Y266929D02*
Y355118D01*
Y266929D02*
X237480D01*
X166614D02*
Y355118D01*
X107165D02*
X166614D01*
X107165Y266929D02*
Y355118D01*
Y266929D02*
X166614D01*
X95748D02*
Y355118D01*
X36299D02*
X95748D01*
X36299Y266929D02*
Y355118D01*
Y266929D02*
X95748D01*
M02*
