G04*
G04 #@! TF.GenerationSoftware,Altium Limited,Altium Designer,26.9.1 (10)*
G04*
G04 Layer_Physical_Order=4*
G04 Layer_Color=15238730*
G04 Board_Origin=74640005|44270005*
%FSLAX25Y25*%
%MOIN*%
G70*
G04*
G04 #@! TF.SameCoordinates,3FED8E9F-E4E8-473A-AAD3-60139D3386C6*
G04*
G04*
G04 #@! TF.FilePolarity,Positive*
G04*
G01*
G75*
%ADD21C,0.13000*%
%ADD26C,0.07087*%
%ADD27R,0.07087X0.07087*%
%ADD28C,0.10039*%
%ADD29C,0.10236*%
G04:AMPARAMS|DCode=30|XSize=102.36mil|YSize=102.36mil|CornerRadius=25.59mil|HoleSize=0mil|Usage=FLASHONLY|Rotation=180.000|XOffset=0mil|YOffset=0mil|HoleType=Round|Shape=RoundedRectangle|*
%AMROUNDEDRECTD30*
21,1,0.10236,0.05118,0,0,180.0*
21,1,0.05118,0.10236,0,0,180.0*
1,1,0.05118,-0.02559,0.02559*
1,1,0.05118,0.02559,0.02559*
1,1,0.05118,0.02559,-0.02559*
1,1,0.05118,-0.02559,-0.02559*
%
%ADD30ROUNDEDRECTD30*%
%ADD31C,0.04000*%
G36*
X-121789Y22142D02*
Y26878D01*
X-120362D01*
X-120308Y26875D01*
X-120249D01*
X-120129Y26871D01*
X-120002Y26864D01*
X-119943Y26860D01*
X-119885Y26853D01*
X-119831Y26849D01*
X-119780Y26842D01*
X-119769D01*
X-119754Y26838D01*
X-119736Y26834D01*
X-119714Y26831D01*
X-119685Y26823D01*
X-119623Y26809D01*
X-119547Y26791D01*
X-119467Y26762D01*
X-119379Y26729D01*
X-119292Y26685D01*
X-119288D01*
X-119281Y26678D01*
X-119266Y26671D01*
X-119252Y26660D01*
X-119230Y26645D01*
X-119205Y26631D01*
X-119150Y26587D01*
X-119088Y26536D01*
X-119026Y26474D01*
X-118972Y26405D01*
X-118921Y26325D01*
Y26321D01*
X-118917Y26314D01*
X-118910Y26303D01*
X-118902Y26285D01*
X-118892Y26267D01*
X-118884Y26241D01*
X-118873Y26212D01*
X-118859Y26179D01*
X-118837Y26103D01*
X-118819Y26015D01*
X-118804Y25917D01*
X-118800Y25808D01*
Y25775D01*
X-118804Y25753D01*
Y25721D01*
X-118811Y25688D01*
X-118815Y25648D01*
X-118822Y25608D01*
X-118844Y25513D01*
X-118895Y25360D01*
X-118946Y25258D01*
X-118979Y25207D01*
X-118983Y25204D01*
X-118986Y25196D01*
X-118997Y25182D01*
X-119012Y25164D01*
X-119030Y25142D01*
X-119052Y25116D01*
X-119077Y25087D01*
X-119139Y25025D01*
X-119176Y24993D01*
X-119259Y24923D01*
X-119357Y24858D01*
X-119467Y24796D01*
Y24771D01*
X-119463D01*
X-119448Y24763D01*
X-119427Y24760D01*
X-119397Y24749D01*
X-119361Y24734D01*
X-119321Y24720D01*
X-119226Y24676D01*
X-119176Y24647D01*
X-119121Y24618D01*
X-119012Y24545D01*
X-118957Y24501D01*
X-118906Y24457D01*
X-118859Y24407D01*
X-118811Y24352D01*
X-118808Y24348D01*
X-118800Y24337D01*
X-118790Y24323D01*
X-118775Y24297D01*
X-118757Y24268D01*
X-118739Y24232D01*
X-118717Y24192D01*
X-118695Y24145D01*
X-118673Y24093D01*
X-118651Y24035D01*
X-118633Y23973D01*
X-118615Y23904D01*
X-118600Y23835D01*
X-118589Y23759D01*
X-118582Y23679D01*
X-118579Y23595D01*
Y23562D01*
X-118582Y23537D01*
Y23504D01*
X-118586Y23467D01*
X-118589Y23427D01*
X-118597Y23384D01*
X-118611Y23286D01*
X-118637Y23183D01*
X-118669Y23074D01*
X-118713Y22969D01*
Y22965D01*
X-118720Y22958D01*
X-118728Y22943D01*
X-118739Y22925D01*
X-118750Y22900D01*
X-118768Y22874D01*
X-118808Y22812D01*
X-118859Y22743D01*
X-118921Y22667D01*
X-118993Y22594D01*
X-119073Y22525D01*
X-119077Y22521D01*
X-119084Y22517D01*
X-119099Y22506D01*
X-119121Y22492D01*
X-119143Y22474D01*
X-119172Y22456D01*
X-119245Y22412D01*
X-119328Y22361D01*
X-119427Y22314D01*
X-119532Y22266D01*
X-119645Y22230D01*
X-119649D01*
X-119660Y22226D01*
X-119678Y22223D01*
X-119700Y22215D01*
X-119732Y22208D01*
X-119769Y22201D01*
X-119809Y22194D01*
X-119911Y22179D01*
X-119973Y22172D01*
X-120038Y22164D01*
X-120107Y22157D01*
X-120184Y22150D01*
X-120260Y22146D01*
X-120347Y22142D01*
X-121789D01*
D02*
G37*
%LPC*%
G36*
X-121159Y22681D02*
X-120548D01*
X-120504Y22685D01*
X-120413D01*
X-120308Y22689D01*
X-120198Y22696D01*
X-120093Y22707D01*
X-120045Y22710D01*
X-119998Y22718D01*
X-119994D01*
X-119987Y22721D01*
X-119976D01*
X-119958Y22725D01*
X-119936Y22728D01*
X-119914Y22736D01*
X-119856Y22750D01*
X-119791Y22772D01*
X-119721Y22801D01*
X-119649Y22834D01*
X-119580Y22878D01*
X-119576D01*
X-119572Y22885D01*
X-119550Y22900D01*
X-119518Y22925D01*
X-119481Y22962D01*
X-119438Y23001D01*
X-119394Y23053D01*
X-119354Y23103D01*
X-119317Y23162D01*
Y23165D01*
X-119314Y23169D01*
X-119303Y23191D01*
X-119292Y23224D01*
X-119274Y23271D01*
X-119259Y23329D01*
X-119248Y23398D01*
X-119237Y23478D01*
X-119234Y23569D01*
Y23613D01*
X-119237Y23635D01*
Y23664D01*
X-119245Y23722D01*
X-119252Y23791D01*
X-119266Y23864D01*
X-119285Y23937D01*
X-119310Y24006D01*
Y24010D01*
X-119314Y24013D01*
X-119325Y24035D01*
X-119346Y24068D01*
X-119376Y24108D01*
X-119419Y24155D01*
X-119474Y24203D01*
X-119539Y24254D01*
X-119576Y24279D01*
X-119627Y24305D01*
X-119645Y24316D01*
X-119678Y24327D01*
X-119718Y24345D01*
X-119765Y24363D01*
X-119820Y24377D01*
X-119882Y24392D01*
X-119947Y24403D01*
X-119954D01*
X-119965Y24407D01*
X-119980D01*
X-119998Y24410D01*
X-120020D01*
X-120045Y24414D01*
X-120074Y24418D01*
X-120107D01*
X-120147Y24421D01*
X-120187D01*
X-120231Y24425D01*
X-120278D01*
X-120333Y24428D01*
X-121159D01*
Y22681D01*
D02*
G37*
G36*
Y24953D02*
X-120344D01*
X-120282Y24956D01*
X-120209Y24960D01*
X-120140Y24963D01*
X-120071Y24971D01*
X-120042Y24978D01*
X-120013Y24982D01*
X-120005D01*
X-119987Y24989D01*
X-119958Y24996D01*
X-119922Y25007D01*
X-119878Y25025D01*
X-119831Y25047D01*
X-119776Y25073D01*
X-119721Y25105D01*
X-119714Y25109D01*
X-119700Y25124D01*
X-119674Y25142D01*
X-119641Y25171D01*
X-119609Y25207D01*
X-119576Y25247D01*
X-119543Y25295D01*
X-119518Y25349D01*
X-119514Y25357D01*
X-119507Y25375D01*
X-119499Y25408D01*
X-119485Y25451D01*
X-119474Y25506D01*
X-119467Y25568D01*
X-119459Y25637D01*
X-119456Y25717D01*
Y25746D01*
X-119459Y25779D01*
X-119463Y25819D01*
X-119470Y25863D01*
X-119481Y25914D01*
X-119496Y25964D01*
X-119514Y26012D01*
X-119525Y26034D01*
X-119539Y26055D01*
X-119558Y26085D01*
X-119583Y26117D01*
X-119616Y26150D01*
X-119656Y26183D01*
X-119700Y26212D01*
X-119707Y26216D01*
X-119725Y26227D01*
X-119758Y26241D01*
X-119798Y26259D01*
X-119849Y26278D01*
X-119907Y26292D01*
X-119973Y26307D01*
X-120042Y26318D01*
X-120049D01*
X-120060Y26321D01*
X-120096D01*
X-120118Y26325D01*
X-120144D01*
X-120209Y26332D01*
X-120249D01*
X-120293Y26336D01*
X-120388D01*
X-120442Y26339D01*
X-121159D01*
Y24953D01*
D02*
G37*
%LPD*%
G36*
X-118247Y23759D02*
X-118251Y23915D01*
Y23977D01*
X-118247Y24002D01*
Y24028D01*
X-118244Y24061D01*
X-118236Y24137D01*
X-118229Y24225D01*
X-118214Y24319D01*
X-118196Y24421D01*
X-118175Y24530D01*
X-118145Y24643D01*
X-118109Y24760D01*
X-118065Y24876D01*
X-118018Y24989D01*
X-117960Y25098D01*
X-117891Y25204D01*
X-117814Y25298D01*
X-117810Y25306D01*
X-117792Y25320D01*
X-117770Y25346D01*
X-117734Y25375D01*
X-117690Y25415D01*
X-117639Y25455D01*
X-117578Y25499D01*
X-117505Y25546D01*
X-117428Y25593D01*
X-117341Y25637D01*
X-117246Y25677D01*
X-117144Y25717D01*
X-117035Y25746D01*
X-116919Y25772D01*
X-116795Y25790D01*
X-116664Y25793D01*
X-116631D01*
X-116595Y25790D01*
X-116544Y25786D01*
X-116486Y25779D01*
X-116413Y25768D01*
X-116336Y25753D01*
X-116253Y25732D01*
X-116162Y25706D01*
X-116067Y25673D01*
X-115972Y25633D01*
X-115878Y25586D01*
X-115779Y25531D01*
X-115688Y25466D01*
X-115597Y25389D01*
X-115514Y25302D01*
X-115510Y25295D01*
X-115495Y25280D01*
X-115474Y25251D01*
X-115445Y25211D01*
X-115412Y25160D01*
X-115375Y25098D01*
X-115339Y25029D01*
X-115295Y24945D01*
X-115255Y24851D01*
X-115219Y24749D01*
X-115182Y24632D01*
X-115150Y24509D01*
X-115120Y24377D01*
X-115099Y24232D01*
X-115084Y24079D01*
X-115080Y23915D01*
Y23853D01*
X-115084Y23828D01*
Y23799D01*
X-115088Y23770D01*
X-115095Y23693D01*
X-115102Y23606D01*
X-115117Y23511D01*
X-115135Y23406D01*
X-115157Y23296D01*
X-115186Y23183D01*
X-115222Y23071D01*
X-115262Y22954D01*
X-115313Y22841D01*
X-115372Y22732D01*
X-115437Y22627D01*
X-115514Y22532D01*
X-115517Y22528D01*
X-115532Y22510D01*
X-115557Y22488D01*
X-115594Y22456D01*
X-115637Y22419D01*
X-115688Y22379D01*
X-115750Y22335D01*
X-115819Y22288D01*
X-115900Y22244D01*
X-115983Y22197D01*
X-116078Y22157D01*
X-116180Y22121D01*
X-116293Y22088D01*
X-116409Y22066D01*
X-116533Y22051D01*
X-116664Y22044D01*
X-116697D01*
X-116733Y22048D01*
X-116788Y22051D01*
X-116850Y22059D01*
X-116919Y22070D01*
X-116999Y22088D01*
X-117086Y22106D01*
X-117177Y22135D01*
X-117272Y22168D01*
X-117370Y22208D01*
X-117468Y22255D01*
X-117563Y22314D01*
X-117658Y22379D01*
X-117745Y22459D01*
X-117829Y22546D01*
X-117832Y22554D01*
X-117847Y22568D01*
X-117869Y22598D01*
X-117894Y22637D01*
X-117927Y22689D01*
X-117963Y22750D01*
X-118000Y22823D01*
X-118040Y22907D01*
X-118080Y22998D01*
X-118116Y23100D01*
X-118153Y23213D01*
X-118185Y23336D01*
X-118211Y23467D01*
X-118233Y23609D01*
X-118247Y23759D01*
D02*
G37*
%LPC*%
G36*
X-117636Y23853D02*
X-117632Y23806D01*
X-117628Y23751D01*
X-117621Y23686D01*
X-117614Y23617D01*
X-117603Y23540D01*
X-117592Y23460D01*
X-117556Y23293D01*
X-117530Y23209D01*
X-117501Y23125D01*
X-117468Y23045D01*
X-117428Y22972D01*
X-117385Y22903D01*
X-117381Y22900D01*
X-117374Y22889D01*
X-117359Y22871D01*
X-117312Y22823D01*
X-117279Y22794D01*
X-117243Y22765D01*
X-117199Y22732D01*
X-117152Y22699D01*
X-117097Y22670D01*
X-117039Y22641D01*
X-116973Y22616D01*
X-116904Y22594D01*
X-116831Y22576D01*
X-116748Y22565D01*
X-116664Y22561D01*
X-116642D01*
X-116620Y22565D01*
X-116587D01*
X-116547Y22572D01*
X-116504Y22579D01*
X-116456Y22590D01*
X-116402Y22605D01*
X-116343Y22619D01*
X-116285Y22641D01*
X-116227Y22670D01*
X-116169Y22703D01*
X-116111Y22739D01*
X-116052Y22787D01*
X-116001Y22838D01*
X-115950Y22896D01*
X-115947Y22900D01*
X-115939Y22910D01*
X-115929Y22932D01*
X-115910Y22958D01*
X-115870Y23038D01*
X-115845Y23092D01*
X-115823Y23151D01*
X-115797Y23216D01*
X-115776Y23293D01*
X-115754Y23376D01*
X-115736Y23467D01*
X-115717Y23569D01*
X-115707Y23675D01*
X-115699Y23791D01*
X-115696Y23915D01*
Y23981D01*
X-115699Y24028D01*
X-115703Y24086D01*
X-115710Y24152D01*
X-115717Y24225D01*
X-115728Y24301D01*
X-115739Y24385D01*
X-115758Y24468D01*
X-115801Y24636D01*
X-115834Y24720D01*
X-115867Y24800D01*
X-115907Y24872D01*
X-115950Y24938D01*
X-115954Y24942D01*
X-115961Y24953D01*
X-115976Y24971D01*
X-116023Y25018D01*
X-116052Y25044D01*
X-116132Y25109D01*
X-116183Y25138D01*
X-116234Y25171D01*
X-116293Y25196D01*
X-116358Y25226D01*
X-116427Y25244D01*
X-116500Y25262D01*
X-116580Y25273D01*
X-116664Y25276D01*
X-116686D01*
X-116708Y25273D01*
X-116740D01*
X-116780Y25266D01*
X-116824Y25258D01*
X-116875Y25247D01*
X-116930Y25233D01*
X-116988Y25215D01*
X-117046Y25193D01*
X-117104Y25167D01*
X-117166Y25135D01*
X-117224Y25095D01*
X-117283Y25051D01*
X-117334Y24996D01*
X-117385Y24938D01*
X-117388Y24934D01*
X-117395Y24923D01*
X-117406Y24902D01*
X-117425Y24876D01*
X-117465Y24796D01*
X-117487Y24745D01*
X-117508Y24683D01*
X-117534Y24618D01*
X-117556Y24541D01*
X-117578Y24457D01*
X-117596Y24366D01*
X-117614Y24265D01*
X-117625Y24155D01*
X-117632Y24039D01*
X-117636Y23915D01*
Y23853D01*
D02*
G37*
%LPD*%
G36*
X-114833Y25200D02*
Y25695D01*
X-114429D01*
Y26714D01*
X-113832D01*
Y25695D01*
X-112733D01*
Y25200D01*
X-113832D01*
Y23355D01*
X-113828Y23286D01*
Y23147D01*
X-113825Y23089D01*
Y23082D01*
X-113821Y23063D01*
X-113817Y23038D01*
X-113810Y23001D01*
X-113803Y22958D01*
X-113788Y22914D01*
X-113774Y22863D01*
X-113752Y22816D01*
X-113748Y22812D01*
X-113741Y22798D01*
X-113726Y22776D01*
X-113708Y22754D01*
X-113686Y22725D01*
X-113654Y22699D01*
X-113621Y22670D01*
X-113570Y22645D01*
X-113555Y22641D01*
X-113530Y22630D01*
X-113490Y22623D01*
X-113443Y22612D01*
X-113388Y22601D01*
X-113322Y22598D01*
X-113250Y22594D01*
X-113224D01*
X-113195Y22598D01*
X-113159D01*
X-113119Y22605D01*
X-113071Y22612D01*
X-113020Y22619D01*
X-112969Y22634D01*
X-112962Y22637D01*
X-112947Y22641D01*
X-112922Y22648D01*
X-112893Y22659D01*
X-112827Y22685D01*
X-112794Y22696D01*
X-112769Y22707D01*
X-112733D01*
Y22172D01*
X-112740D01*
X-112762Y22164D01*
X-112794Y22157D01*
X-112838Y22146D01*
X-112893Y22135D01*
X-112951Y22124D01*
X-113013Y22113D01*
X-113078Y22102D01*
X-113086D01*
X-113108Y22099D01*
X-113140Y22095D01*
X-113180Y22088D01*
X-113231Y22084D01*
X-113282Y22077D01*
X-113395Y22073D01*
X-113417D01*
X-113443Y22077D01*
X-113475D01*
X-113515Y22081D01*
X-113563Y22088D01*
X-113617Y22095D01*
X-113672Y22110D01*
X-113734Y22124D01*
X-113795Y22142D01*
X-113857Y22164D01*
X-113923Y22190D01*
X-113985Y22223D01*
X-114043Y22259D01*
X-114101Y22303D01*
X-114156Y22350D01*
X-114160Y22354D01*
X-114167Y22365D01*
X-114181Y22379D01*
X-114200Y22405D01*
X-114218Y22434D01*
X-114243Y22470D01*
X-114291Y22565D01*
X-114316Y22623D01*
X-114341Y22689D01*
X-114367Y22758D01*
X-114385Y22838D01*
X-114403Y22925D01*
X-114418Y23020D01*
X-114425Y23122D01*
X-114429Y23231D01*
Y25200D01*
X-114833D01*
D02*
G37*
G36*
X-112656D02*
Y25695D01*
X-112252D01*
Y26714D01*
X-111655D01*
Y25695D01*
X-110556D01*
Y25200D01*
X-111655D01*
Y23355D01*
X-111652Y23286D01*
Y23147D01*
X-111648Y23089D01*
Y23082D01*
X-111644Y23063D01*
X-111641Y23038D01*
X-111633Y23001D01*
X-111626Y22958D01*
X-111611Y22914D01*
X-111597Y22863D01*
X-111575Y22816D01*
X-111572Y22812D01*
X-111564Y22798D01*
X-111550Y22776D01*
X-111531Y22754D01*
X-111510Y22725D01*
X-111477Y22699D01*
X-111444Y22670D01*
X-111393Y22645D01*
X-111379Y22641D01*
X-111353Y22630D01*
X-111313Y22623D01*
X-111266Y22612D01*
X-111211Y22601D01*
X-111146Y22598D01*
X-111073Y22594D01*
X-111047D01*
X-111018Y22598D01*
X-110982D01*
X-110942Y22605D01*
X-110895Y22612D01*
X-110844Y22619D01*
X-110793Y22634D01*
X-110785Y22637D01*
X-110771Y22641D01*
X-110745Y22648D01*
X-110716Y22659D01*
X-110651Y22685D01*
X-110618Y22696D01*
X-110592Y22707D01*
X-110556D01*
Y22172D01*
X-110563D01*
X-110585Y22164D01*
X-110618Y22157D01*
X-110661Y22146D01*
X-110716Y22135D01*
X-110774Y22124D01*
X-110836Y22113D01*
X-110902Y22102D01*
X-110909D01*
X-110931Y22099D01*
X-110964Y22095D01*
X-111004Y22088D01*
X-111055Y22084D01*
X-111106Y22077D01*
X-111218Y22073D01*
X-111240D01*
X-111266Y22077D01*
X-111299D01*
X-111338Y22081D01*
X-111386Y22088D01*
X-111441Y22095D01*
X-111495Y22110D01*
X-111557Y22124D01*
X-111619Y22142D01*
X-111681Y22164D01*
X-111746Y22190D01*
X-111808Y22223D01*
X-111866Y22259D01*
X-111925Y22303D01*
X-111979Y22350D01*
X-111983Y22354D01*
X-111990Y22365D01*
X-112005Y22379D01*
X-112023Y22405D01*
X-112041Y22434D01*
X-112066Y22470D01*
X-112114Y22565D01*
X-112139Y22623D01*
X-112165Y22689D01*
X-112190Y22758D01*
X-112208Y22838D01*
X-112227Y22925D01*
X-112241Y23020D01*
X-112249Y23122D01*
X-112252Y23231D01*
Y25200D01*
X-112656D01*
D02*
G37*
G36*
X-110359Y23759D02*
X-110363Y23915D01*
Y23977D01*
X-110359Y24002D01*
Y24028D01*
X-110356Y24061D01*
X-110348Y24137D01*
X-110341Y24225D01*
X-110327Y24319D01*
X-110308Y24421D01*
X-110287Y24530D01*
X-110257Y24643D01*
X-110221Y24760D01*
X-110177Y24876D01*
X-110130Y24989D01*
X-110072Y25098D01*
X-110003Y25204D01*
X-109926Y25298D01*
X-109923Y25306D01*
X-109904Y25320D01*
X-109882Y25346D01*
X-109846Y25375D01*
X-109802Y25415D01*
X-109751Y25455D01*
X-109690Y25499D01*
X-109617Y25546D01*
X-109540Y25593D01*
X-109453Y25637D01*
X-109358Y25677D01*
X-109256Y25717D01*
X-109147Y25746D01*
X-109031Y25772D01*
X-108907Y25790D01*
X-108776Y25793D01*
X-108743D01*
X-108707Y25790D01*
X-108656Y25786D01*
X-108598Y25779D01*
X-108525Y25768D01*
X-108448Y25753D01*
X-108365Y25732D01*
X-108274Y25706D01*
X-108179Y25673D01*
X-108084Y25633D01*
X-107990Y25586D01*
X-107891Y25531D01*
X-107800Y25466D01*
X-107709Y25389D01*
X-107626Y25302D01*
X-107622Y25295D01*
X-107607Y25280D01*
X-107586Y25251D01*
X-107557Y25211D01*
X-107524Y25160D01*
X-107487Y25098D01*
X-107451Y25029D01*
X-107407Y24945D01*
X-107367Y24851D01*
X-107331Y24749D01*
X-107294Y24632D01*
X-107262Y24509D01*
X-107233Y24377D01*
X-107211Y24232D01*
X-107196Y24079D01*
X-107193Y23915D01*
Y23853D01*
X-107196Y23828D01*
Y23799D01*
X-107200Y23770D01*
X-107207Y23693D01*
X-107214Y23606D01*
X-107229Y23511D01*
X-107247Y23406D01*
X-107269Y23296D01*
X-107298Y23183D01*
X-107334Y23071D01*
X-107375Y22954D01*
X-107425Y22841D01*
X-107484Y22732D01*
X-107549Y22627D01*
X-107626Y22532D01*
X-107629Y22528D01*
X-107644Y22510D01*
X-107669Y22488D01*
X-107706Y22456D01*
X-107749Y22419D01*
X-107800Y22379D01*
X-107862Y22335D01*
X-107931Y22288D01*
X-108012Y22244D01*
X-108095Y22197D01*
X-108190Y22157D01*
X-108292Y22121D01*
X-108405Y22088D01*
X-108521Y22066D01*
X-108645Y22051D01*
X-108776Y22044D01*
X-108809D01*
X-108845Y22048D01*
X-108900Y22051D01*
X-108962Y22059D01*
X-109031Y22070D01*
X-109111Y22088D01*
X-109198Y22106D01*
X-109289Y22135D01*
X-109384Y22168D01*
X-109482Y22208D01*
X-109580Y22255D01*
X-109675Y22314D01*
X-109770Y22379D01*
X-109857Y22459D01*
X-109941Y22546D01*
X-109944Y22554D01*
X-109959Y22568D01*
X-109981Y22598D01*
X-110006Y22637D01*
X-110039Y22689D01*
X-110075Y22750D01*
X-110112Y22823D01*
X-110152Y22907D01*
X-110192Y22998D01*
X-110228Y23100D01*
X-110265Y23213D01*
X-110298Y23336D01*
X-110323Y23467D01*
X-110345Y23609D01*
X-110359Y23759D01*
D02*
G37*
%LPC*%
G36*
X-109748Y23853D02*
X-109744Y23806D01*
X-109741Y23751D01*
X-109733Y23686D01*
X-109726Y23617D01*
X-109715Y23540D01*
X-109704Y23460D01*
X-109668Y23293D01*
X-109642Y23209D01*
X-109613Y23125D01*
X-109580Y23045D01*
X-109540Y22972D01*
X-109497Y22903D01*
X-109493Y22900D01*
X-109486Y22889D01*
X-109471Y22871D01*
X-109424Y22823D01*
X-109391Y22794D01*
X-109355Y22765D01*
X-109311Y22732D01*
X-109264Y22699D01*
X-109209Y22670D01*
X-109151Y22641D01*
X-109085Y22616D01*
X-109016Y22594D01*
X-108943Y22576D01*
X-108860Y22565D01*
X-108776Y22561D01*
X-108754D01*
X-108732Y22565D01*
X-108700D01*
X-108660Y22572D01*
X-108616Y22579D01*
X-108569Y22590D01*
X-108514Y22605D01*
X-108456Y22619D01*
X-108397Y22641D01*
X-108339Y22670D01*
X-108281Y22703D01*
X-108223Y22739D01*
X-108165Y22787D01*
X-108114Y22838D01*
X-108063Y22896D01*
X-108059Y22900D01*
X-108052Y22910D01*
X-108041Y22932D01*
X-108022Y22958D01*
X-107982Y23038D01*
X-107957Y23092D01*
X-107935Y23151D01*
X-107910Y23216D01*
X-107888Y23293D01*
X-107866Y23376D01*
X-107848Y23467D01*
X-107830Y23569D01*
X-107819Y23675D01*
X-107811Y23791D01*
X-107808Y23915D01*
Y23981D01*
X-107811Y24028D01*
X-107815Y24086D01*
X-107822Y24152D01*
X-107830Y24225D01*
X-107841Y24301D01*
X-107851Y24385D01*
X-107870Y24468D01*
X-107913Y24636D01*
X-107946Y24720D01*
X-107979Y24800D01*
X-108019Y24872D01*
X-108063Y24938D01*
X-108066Y24942D01*
X-108073Y24953D01*
X-108088Y24971D01*
X-108135Y25018D01*
X-108165Y25044D01*
X-108245Y25109D01*
X-108296Y25138D01*
X-108346Y25171D01*
X-108405Y25196D01*
X-108470Y25226D01*
X-108539Y25244D01*
X-108612Y25262D01*
X-108692Y25273D01*
X-108776Y25276D01*
X-108798D01*
X-108820Y25273D01*
X-108852D01*
X-108893Y25266D01*
X-108936Y25258D01*
X-108987Y25247D01*
X-109042Y25233D01*
X-109100Y25215D01*
X-109158Y25193D01*
X-109216Y25167D01*
X-109278Y25135D01*
X-109336Y25095D01*
X-109395Y25051D01*
X-109446Y24996D01*
X-109497Y24938D01*
X-109500Y24934D01*
X-109508Y24923D01*
X-109519Y24902D01*
X-109537Y24876D01*
X-109577Y24796D01*
X-109599Y24745D01*
X-109620Y24683D01*
X-109646Y24618D01*
X-109668Y24541D01*
X-109690Y24457D01*
X-109708Y24366D01*
X-109726Y24265D01*
X-109737Y24155D01*
X-109744Y24039D01*
X-109748Y23915D01*
Y23853D01*
D02*
G37*
%LPD*%
G36*
X-106581Y22142D02*
Y25695D01*
X-105984D01*
Y25298D01*
X-105944Y25338D01*
X-105922Y25357D01*
X-105897Y25379D01*
X-105839Y25433D01*
X-105769Y25491D01*
X-105689Y25553D01*
X-105609Y25611D01*
X-105522Y25662D01*
X-105518D01*
X-105511Y25670D01*
X-105500Y25673D01*
X-105482Y25684D01*
X-105460Y25692D01*
X-105434Y25702D01*
X-105405Y25717D01*
X-105369Y25728D01*
X-105296Y25753D01*
X-105209Y25772D01*
X-105114Y25786D01*
X-105012Y25793D01*
X-104983D01*
X-104958Y25790D01*
X-104932D01*
X-104899Y25786D01*
X-104863Y25782D01*
X-104827Y25775D01*
X-104739Y25757D01*
X-104645Y25732D01*
X-104550Y25695D01*
X-104455Y25648D01*
X-104452D01*
X-104444Y25640D01*
X-104433Y25633D01*
X-104415Y25622D01*
X-104372Y25586D01*
X-104346Y25564D01*
X-104288Y25506D01*
X-104259Y25469D01*
X-104226Y25433D01*
X-104197Y25389D01*
X-104164Y25342D01*
X-104135Y25291D01*
X-104110Y25236D01*
X-104084Y25178D01*
X-104080Y25182D01*
X-104073Y25193D01*
X-104037Y25229D01*
X-104015Y25255D01*
X-103986Y25284D01*
X-103953Y25313D01*
X-103917Y25349D01*
X-103837Y25422D01*
X-103749Y25499D01*
X-103655Y25571D01*
X-103556Y25637D01*
X-103553Y25640D01*
X-103531Y25651D01*
X-103513Y25662D01*
X-103487Y25673D01*
X-103458Y25688D01*
X-103425Y25702D01*
X-103389Y25717D01*
X-103305Y25743D01*
X-103210Y25768D01*
X-103105Y25786D01*
X-103050Y25793D01*
X-102956D01*
X-102937Y25790D01*
X-102912D01*
X-102857Y25786D01*
X-102792Y25775D01*
X-102723Y25764D01*
X-102654Y25746D01*
X-102581Y25721D01*
X-102577D01*
X-102573Y25717D01*
X-102562Y25713D01*
X-102548Y25706D01*
X-102515Y25688D01*
X-102468Y25666D01*
X-102417Y25633D01*
X-102362Y25593D01*
X-102308Y25546D01*
X-102246Y25484D01*
X-102228Y25462D01*
X-102202Y25426D01*
X-102169Y25379D01*
X-102133Y25320D01*
X-102097Y25251D01*
X-102064Y25171D01*
X-102031Y25084D01*
Y25080D01*
X-102027Y25073D01*
X-102024Y25058D01*
X-102020Y25040D01*
X-102013Y25018D01*
X-102006Y24989D01*
X-101998Y24956D01*
X-101991Y24920D01*
X-101976Y24833D01*
X-101969Y24781D01*
X-101962Y24727D01*
X-101955Y24610D01*
X-101951Y24479D01*
Y22142D01*
X-102548D01*
Y24283D01*
X-102552Y24345D01*
Y24414D01*
X-102555Y24490D01*
X-102570Y24647D01*
Y24658D01*
X-102573Y24669D01*
Y24683D01*
X-102577Y24720D01*
X-102588Y24767D01*
X-102599Y24818D01*
X-102610Y24872D01*
X-102628Y24927D01*
X-102650Y24974D01*
X-102661Y24996D01*
X-102675Y25018D01*
X-102697Y25047D01*
X-102723Y25076D01*
X-102752Y25109D01*
X-102788Y25138D01*
X-102832Y25164D01*
X-102836Y25167D01*
X-102854Y25175D01*
X-102879Y25182D01*
X-102916Y25196D01*
X-102959Y25207D01*
X-103014Y25215D01*
X-103076Y25222D01*
X-103148Y25226D01*
X-103181D01*
X-103218Y25218D01*
X-103269Y25211D01*
X-103327Y25196D01*
X-103392Y25178D01*
X-103469Y25149D01*
X-103545Y25109D01*
X-103549D01*
X-103556Y25105D01*
X-103567Y25098D01*
X-103582Y25087D01*
X-103600Y25076D01*
X-103625Y25062D01*
X-103745Y24982D01*
X-103818Y24923D01*
X-103898Y24862D01*
X-103982Y24785D01*
Y24763D01*
X-103978Y24749D01*
Y24709D01*
X-103975Y24654D01*
Y24640D01*
X-103971Y24625D01*
Y24581D01*
X-103967Y24548D01*
Y22142D01*
X-104564D01*
Y24283D01*
X-104568Y24345D01*
Y24414D01*
X-104572Y24490D01*
X-104586Y24647D01*
Y24658D01*
X-104590Y24669D01*
Y24683D01*
X-104594Y24720D01*
X-104604Y24767D01*
X-104615Y24818D01*
X-104626Y24872D01*
X-104645Y24927D01*
X-104666Y24974D01*
X-104677Y24996D01*
X-104692Y25018D01*
X-104714Y25047D01*
X-104739Y25076D01*
X-104768Y25109D01*
X-104805Y25138D01*
X-104848Y25164D01*
X-104852Y25167D01*
X-104870Y25175D01*
X-104896Y25182D01*
X-104932Y25196D01*
X-104976Y25207D01*
X-105030Y25215D01*
X-105092Y25222D01*
X-105165Y25226D01*
X-105198D01*
X-105238Y25218D01*
X-105289Y25211D01*
X-105351Y25196D01*
X-105420Y25175D01*
X-105493Y25142D01*
X-105573Y25102D01*
X-105576D01*
X-105584Y25098D01*
X-105595Y25091D01*
X-105609Y25080D01*
X-105627Y25069D01*
X-105704Y25018D01*
X-105766Y24974D01*
X-105835Y24920D01*
X-105908Y24862D01*
X-105984Y24792D01*
Y22142D01*
X-106581D01*
D02*
G37*
G36*
X-99028D02*
Y26878D01*
X-98398D01*
Y22703D01*
X-96284D01*
Y22142D01*
X-99028D01*
D02*
G37*
G36*
X-96083Y23085D02*
X-96087Y23173D01*
Y23209D01*
X-96083Y23234D01*
Y23267D01*
X-96080Y23304D01*
X-96072Y23344D01*
X-96069Y23387D01*
X-96051Y23486D01*
X-96021Y23591D01*
X-95985Y23697D01*
X-95934Y23799D01*
X-95930Y23802D01*
X-95927Y23810D01*
X-95916Y23824D01*
X-95905Y23842D01*
X-95887Y23864D01*
X-95843Y23915D01*
X-95814Y23948D01*
X-95781Y23981D01*
X-95745Y24013D01*
X-95705Y24046D01*
X-95657Y24083D01*
X-95610Y24115D01*
X-95559Y24148D01*
X-95501Y24181D01*
X-95439Y24210D01*
X-95435D01*
X-95424Y24217D01*
X-95410Y24225D01*
X-95384Y24232D01*
X-95359Y24243D01*
X-95323Y24257D01*
X-95283Y24272D01*
X-95239Y24286D01*
X-95192Y24301D01*
X-95137Y24316D01*
X-95079Y24334D01*
X-95017Y24348D01*
X-94882Y24377D01*
X-94736Y24399D01*
X-94733D01*
X-94718Y24403D01*
X-94696D01*
X-94664Y24407D01*
X-94627Y24414D01*
X-94584Y24418D01*
X-94533Y24425D01*
X-94474Y24428D01*
X-94343Y24443D01*
X-94271Y24450D01*
X-94194Y24457D01*
X-94030Y24468D01*
X-93856Y24479D01*
Y24625D01*
X-93859Y24665D01*
X-93863Y24712D01*
X-93870Y24767D01*
X-93899Y24876D01*
X-93921Y24927D01*
X-93932Y24949D01*
X-93947Y24971D01*
X-93965Y25000D01*
X-93990Y25033D01*
X-94023Y25065D01*
X-94059Y25098D01*
X-94099Y25127D01*
X-94103Y25131D01*
X-94121Y25138D01*
X-94143Y25153D01*
X-94176Y25167D01*
X-94216Y25182D01*
X-94267Y25200D01*
X-94318Y25215D01*
X-94380Y25226D01*
X-94387D01*
X-94409Y25229D01*
X-94442Y25233D01*
X-94482Y25240D01*
X-94533Y25244D01*
X-94591Y25247D01*
X-94653Y25251D01*
X-94776D01*
X-94798Y25247D01*
X-94828D01*
X-94857Y25244D01*
X-94929Y25236D01*
X-95013Y25226D01*
X-95104Y25211D01*
X-95206Y25189D01*
X-95210D01*
X-95217Y25185D01*
X-95253Y25178D01*
X-95279Y25171D01*
X-95308Y25164D01*
X-95344Y25153D01*
X-95381Y25146D01*
X-95464Y25120D01*
X-95559Y25087D01*
X-95661Y25051D01*
X-95767Y25011D01*
X-95799D01*
Y25615D01*
X-95796D01*
X-95792Y25619D01*
X-95781D01*
X-95770Y25622D01*
X-95752Y25630D01*
X-95730Y25633D01*
X-95708Y25640D01*
X-95679Y25648D01*
X-95610Y25662D01*
X-95530Y25681D01*
X-95435Y25699D01*
X-95326Y25721D01*
X-95323D01*
X-95312Y25724D01*
X-95297Y25728D01*
X-95246Y25735D01*
X-95213Y25739D01*
X-95173Y25746D01*
X-95133Y25750D01*
X-95042Y25761D01*
X-94937Y25772D01*
X-94828Y25775D01*
X-94715Y25779D01*
X-94624D01*
X-94587Y25775D01*
X-94547D01*
X-94405Y25764D01*
X-94300Y25753D01*
X-94198Y25739D01*
X-94099Y25721D01*
X-94096D01*
X-94089Y25717D01*
X-94074Y25713D01*
X-94056Y25710D01*
X-94034Y25702D01*
X-94008Y25695D01*
X-93947Y25673D01*
X-93877Y25644D01*
X-93801Y25608D01*
X-93721Y25564D01*
X-93644Y25513D01*
X-93641D01*
X-93637Y25506D01*
X-93626Y25499D01*
X-93612Y25488D01*
X-93535Y25411D01*
X-93488Y25357D01*
X-93441Y25291D01*
X-93397Y25218D01*
X-93357Y25135D01*
Y25131D01*
X-93353Y25124D01*
X-93346Y25113D01*
X-93342Y25095D01*
X-93335Y25069D01*
X-93324Y25044D01*
X-93317Y25011D01*
X-93306Y24978D01*
X-93299Y24938D01*
X-93291Y24894D01*
X-93273Y24800D01*
X-93262Y24690D01*
X-93259Y24570D01*
Y22142D01*
X-93856D01*
Y22521D01*
X-93859Y22517D01*
X-93870Y22510D01*
X-93885Y22499D01*
X-93910Y22481D01*
X-93939Y22459D01*
X-93972Y22434D01*
X-94012Y22405D01*
X-94056Y22368D01*
X-94059Y22365D01*
X-94078Y22354D01*
X-94099Y22335D01*
X-94129Y22314D01*
X-94165Y22288D01*
X-94245Y22237D01*
X-94296Y22212D01*
X-94314Y22201D01*
X-94347Y22186D01*
X-94387Y22172D01*
X-94434Y22150D01*
X-94485Y22128D01*
X-94598Y22092D01*
X-94605Y22088D01*
X-94624Y22084D01*
X-94656Y22077D01*
X-94704Y22070D01*
X-94762Y22059D01*
X-94835Y22051D01*
X-94915Y22048D01*
X-95009Y22044D01*
X-95046D01*
X-95068Y22048D01*
X-95090D01*
X-95144Y22055D01*
X-95210Y22066D01*
X-95279Y22081D01*
X-95355Y22099D01*
X-95428Y22128D01*
X-95432D01*
X-95435Y22132D01*
X-95446Y22135D01*
X-95497Y22161D01*
X-95545Y22186D01*
X-95599Y22219D01*
X-95657Y22259D01*
X-95716Y22306D01*
X-95774Y22357D01*
X-95781Y22365D01*
X-95796Y22383D01*
X-95825Y22415D01*
X-95854Y22456D01*
X-95890Y22510D01*
X-95930Y22572D01*
X-95967Y22641D01*
X-96003Y22718D01*
Y22721D01*
X-96007Y22728D01*
X-96011Y22739D01*
X-96018Y22754D01*
X-96021Y22776D01*
X-96029Y22798D01*
X-96043Y22856D01*
X-96061Y22921D01*
X-96072Y23001D01*
X-96083Y23085D01*
D02*
G37*
%LPC*%
G36*
X-95472Y23183D02*
X-95468Y23162D01*
Y23136D01*
X-95461Y23107D01*
X-95450Y23042D01*
X-95428Y22965D01*
X-95399Y22889D01*
X-95355Y22816D01*
X-95330Y22783D01*
X-95301Y22750D01*
X-95297D01*
X-95293Y22743D01*
X-95283Y22736D01*
X-95268Y22725D01*
X-95250Y22714D01*
X-95228Y22703D01*
X-95202Y22689D01*
X-95173Y22674D01*
X-95140Y22659D01*
X-95104Y22645D01*
X-95017Y22623D01*
X-94966Y22612D01*
X-94915Y22605D01*
X-94860Y22601D01*
X-94798Y22598D01*
X-94769D01*
X-94751Y22601D01*
X-94726D01*
X-94696Y22605D01*
X-94664Y22608D01*
X-94627Y22612D01*
X-94551Y22627D01*
X-94463Y22648D01*
X-94376Y22678D01*
X-94289Y22718D01*
X-94285D01*
X-94278Y22725D01*
X-94267Y22728D01*
X-94231Y22750D01*
X-94205Y22765D01*
X-94147Y22801D01*
X-94081Y22845D01*
X-94008Y22896D01*
X-93932Y22951D01*
X-93856Y23016D01*
Y24002D01*
X-93866D01*
X-93877Y23999D01*
X-93896D01*
X-93914Y23995D01*
X-93939D01*
X-94005Y23988D01*
X-94041Y23984D01*
X-94081Y23981D01*
X-94176Y23970D01*
X-94282Y23959D01*
X-94398Y23948D01*
X-94412D01*
X-94431Y23944D01*
X-94453Y23941D01*
X-94478Y23937D01*
X-94511Y23933D01*
X-94547Y23930D01*
X-94584Y23923D01*
X-94667Y23911D01*
X-94842Y23875D01*
X-94922Y23853D01*
X-94926D01*
X-94933Y23850D01*
X-94944Y23846D01*
X-94962Y23839D01*
X-95006Y23824D01*
X-95060Y23799D01*
X-95126Y23766D01*
X-95192Y23730D01*
X-95257Y23682D01*
X-95319Y23631D01*
X-95326Y23624D01*
X-95344Y23602D01*
X-95366Y23569D01*
X-95395Y23522D01*
X-95424Y23464D01*
X-95446Y23391D01*
X-95464Y23307D01*
X-95472Y23213D01*
Y23183D01*
D02*
G37*
%LPD*%
G36*
X-91541Y22310D02*
X-92833Y25695D01*
X-92189D01*
X-91217Y23060D01*
X-90248Y25695D01*
X-89626D01*
X-91541Y20832D01*
X-92178D01*
X-91541Y22310D01*
D02*
G37*
G36*
X-89415Y23737D02*
X-89418Y23897D01*
Y23937D01*
X-89415Y23955D01*
Y24010D01*
X-89411Y24043D01*
X-89404Y24115D01*
X-89393Y24199D01*
X-89382Y24294D01*
X-89360Y24396D01*
X-89338Y24505D01*
X-89309Y24618D01*
X-89273Y24731D01*
X-89229Y24847D01*
X-89175Y24963D01*
X-89116Y25073D01*
X-89047Y25182D01*
X-88967Y25280D01*
X-88964Y25288D01*
X-88945Y25302D01*
X-88920Y25328D01*
X-88883Y25360D01*
X-88840Y25400D01*
X-88785Y25444D01*
X-88720Y25488D01*
X-88647Y25539D01*
X-88567Y25586D01*
X-88476Y25630D01*
X-88377Y25673D01*
X-88272Y25713D01*
X-88159Y25746D01*
X-88039Y25772D01*
X-87911Y25786D01*
X-87777Y25793D01*
X-87722D01*
X-87693Y25790D01*
X-87657D01*
X-87620Y25786D01*
X-87580Y25782D01*
X-87489Y25768D01*
X-87391Y25753D01*
X-87289Y25728D01*
X-87191Y25695D01*
X-87187D01*
X-87165Y25684D01*
X-87147Y25677D01*
X-87125Y25666D01*
X-87100Y25655D01*
X-87038Y25622D01*
X-86969Y25582D01*
X-86896Y25528D01*
X-86819Y25469D01*
X-86743Y25393D01*
X-86739Y25386D01*
X-86714Y25360D01*
X-86699Y25342D01*
X-86681Y25317D01*
X-86638Y25258D01*
X-86590Y25185D01*
X-86539Y25102D01*
X-86492Y25003D01*
X-86452Y24898D01*
Y24894D01*
X-86448Y24883D01*
X-86441Y24869D01*
X-86437Y24847D01*
X-86426Y24818D01*
X-86419Y24785D01*
X-86412Y24745D01*
X-86390Y24651D01*
X-86383Y24596D01*
X-86372Y24538D01*
X-86365Y24472D01*
X-86361Y24407D01*
X-86354Y24334D01*
X-86350Y24181D01*
Y23857D01*
X-88811D01*
Y23832D01*
X-88807Y23799D01*
Y23755D01*
X-88800Y23704D01*
X-88792Y23642D01*
X-88785Y23577D01*
X-88756Y23431D01*
X-88734Y23351D01*
X-88709Y23271D01*
X-88679Y23194D01*
X-88643Y23118D01*
X-88603Y23042D01*
X-88556Y22972D01*
X-88501Y22907D01*
X-88487Y22892D01*
X-88468Y22878D01*
X-88443Y22856D01*
X-88410Y22830D01*
X-88374Y22805D01*
X-88326Y22776D01*
X-88275Y22747D01*
X-88217Y22714D01*
X-88152Y22685D01*
X-88083Y22659D01*
X-88006Y22634D01*
X-87922Y22612D01*
X-87835Y22598D01*
X-87740Y22587D01*
X-87638Y22583D01*
X-87606D01*
X-87566Y22587D01*
X-87515Y22590D01*
X-87457Y22594D01*
X-87391Y22601D01*
X-87322Y22612D01*
X-87253Y22627D01*
X-87249D01*
X-87245Y22630D01*
X-87234D01*
X-87220Y22634D01*
X-87183Y22645D01*
X-87140Y22656D01*
X-87085Y22674D01*
X-87027Y22692D01*
X-86910Y22739D01*
X-86907D01*
X-86903Y22743D01*
X-86881Y22750D01*
X-86772Y22805D01*
X-86725Y22830D01*
X-86638Y22881D01*
X-86634Y22885D01*
X-86619Y22892D01*
X-86598Y22907D01*
X-86572Y22925D01*
X-86510Y22965D01*
X-86481Y22991D01*
X-86452Y23012D01*
X-86415D01*
Y22361D01*
X-86419Y22357D01*
X-86434Y22354D01*
X-86456Y22343D01*
X-86488Y22332D01*
X-86525Y22317D01*
X-86572Y22299D01*
X-86623Y22277D01*
X-86677Y22255D01*
X-86685Y22252D01*
X-86703Y22244D01*
X-86732Y22233D01*
X-86772Y22219D01*
X-86816Y22204D01*
X-86958Y22161D01*
X-86962D01*
X-86965Y22157D01*
X-86987Y22153D01*
X-87020Y22146D01*
X-87063Y22135D01*
X-87111Y22121D01*
X-87274Y22088D01*
X-87282D01*
X-87300Y22084D01*
X-87329Y22081D01*
X-87373Y22077D01*
X-87424Y22070D01*
X-87486Y22066D01*
X-87555Y22062D01*
X-87668D01*
X-87689Y22066D01*
X-87711D01*
X-87773Y22070D01*
X-87842Y22077D01*
X-87926Y22088D01*
X-88017Y22103D01*
X-88115Y22121D01*
X-88221Y22146D01*
X-88326Y22179D01*
X-88439Y22219D01*
X-88548Y22263D01*
X-88658Y22317D01*
X-88760Y22383D01*
X-88862Y22456D01*
X-88952Y22539D01*
X-88956Y22546D01*
X-88971Y22561D01*
X-88996Y22590D01*
X-89025Y22627D01*
X-89062Y22678D01*
X-89098Y22736D01*
X-89142Y22809D01*
X-89186Y22889D01*
X-89229Y22980D01*
X-89269Y23082D01*
X-89309Y23191D01*
X-89346Y23315D01*
X-89375Y23446D01*
X-89397Y23588D01*
X-89415Y23737D01*
D02*
G37*
%LPC*%
G36*
X-88811Y24316D02*
X-86932D01*
Y24356D01*
X-86936Y24377D01*
Y24399D01*
X-86943Y24457D01*
X-86950Y24523D01*
X-86972Y24661D01*
X-86991Y24731D01*
Y24734D01*
X-86994Y24738D01*
X-87012Y24792D01*
X-87027Y24833D01*
X-87049Y24880D01*
X-87074Y24927D01*
X-87103Y24978D01*
X-87136Y25025D01*
X-87140Y25033D01*
X-87209Y25102D01*
X-87249Y25135D01*
X-87293Y25167D01*
X-87347Y25200D01*
X-87413Y25233D01*
X-87435Y25240D01*
X-87471Y25251D01*
X-87518Y25266D01*
X-87577Y25280D01*
X-87646Y25291D01*
X-87722Y25298D01*
X-87810Y25302D01*
X-87850D01*
X-87871Y25298D01*
X-87893D01*
X-87951Y25295D01*
X-88013Y25284D01*
X-88083Y25273D01*
X-88152Y25255D01*
X-88217Y25229D01*
X-88275Y25200D01*
X-88319Y25175D01*
X-88363Y25146D01*
X-88414Y25113D01*
X-88468Y25069D01*
X-88519Y25022D01*
X-88527Y25014D01*
X-88541Y24996D01*
X-88567Y24967D01*
X-88596Y24931D01*
X-88629Y24883D01*
X-88661Y24829D01*
X-88694Y24771D01*
X-88723Y24709D01*
Y24705D01*
X-88727Y24701D01*
X-88734Y24680D01*
X-88745Y24643D01*
X-88760Y24596D01*
X-88774Y24538D01*
X-88789Y24472D01*
X-88803Y24396D01*
X-88811Y24316D01*
D02*
G37*
%LPD*%
G36*
X-85746Y22142D02*
Y25695D01*
X-85149D01*
Y25164D01*
X-85134Y25178D01*
X-85116Y25193D01*
X-85094Y25211D01*
X-85065Y25236D01*
X-85032Y25262D01*
X-84996Y25291D01*
X-84956Y25324D01*
X-84865Y25393D01*
X-84676Y25524D01*
X-84581Y25575D01*
X-84577D01*
X-84519Y25604D01*
X-84490Y25611D01*
X-84432Y25637D01*
X-84359Y25659D01*
X-84279Y25677D01*
X-84195Y25692D01*
X-84108Y25695D01*
X-84057D01*
X-84009Y25692D01*
X-83988D01*
X-83969Y25688D01*
X-83962D01*
X-83937Y25684D01*
X-83904Y25681D01*
X-83864Y25673D01*
Y25051D01*
X-83900D01*
X-83908Y25054D01*
X-83922Y25058D01*
X-83940Y25062D01*
X-83988Y25069D01*
X-84042Y25073D01*
X-84057D01*
X-84071Y25076D01*
X-84115D01*
X-84148Y25080D01*
X-84257D01*
X-84282Y25076D01*
X-84308D01*
X-84370Y25065D01*
X-84443Y25054D01*
X-84523Y25036D01*
X-84610Y25011D01*
X-84701Y24974D01*
X-84705D01*
X-84712Y24971D01*
X-84723Y24963D01*
X-84741Y24956D01*
X-84763Y24945D01*
X-84788Y24931D01*
X-84847Y24894D01*
X-84916Y24851D01*
X-84989Y24800D01*
X-85069Y24734D01*
X-85149Y24661D01*
Y22142D01*
X-85746D01*
D02*
G37*
G36*
G01X9843Y257165D02*
G01X9843Y297165D01*
G01Y343988D01*
G02X10343Y344488I500J-0D01*
G01X324303D01*
G02X324803Y343988I0J-500D01*
G01Y245522D01*
G02X324116Y245059I-500J0D01*
G03X324114Y219507I-5218J-12775D01*
G02X324803Y219044I189J-463D01*
G01Y49420D01*
G02X324658Y49068I-500J-0D01*
G01X295421Y19830D01*
G02X295069Y19685I-352J355D01*
G01X140264D01*
G02X139764Y20185I0J500D01*
G01Y59055D01*
G01X10343D01*
G02X9843Y59552I0J500D01*
G01Y97165D01*
G01X9843Y177165D01*
G01Y199362D01*
G02X10531Y199822I500J-2D01*
G03X28770Y217165I5217J12776D01*
G03X10530Y225374I-13022J-4567D01*
G02X9843Y225836I-187J464D01*
G01X9843Y257165D01*
D02*
G37*
%LPC*%
G36*
G01X41685Y232677D02*
G03X44685Y229677I3000J0D01*
G01X51772D01*
G03X54772Y232677I0J3000D01*
G01Y239764D01*
G03X51772Y242764I-3000J0D01*
G01X44685D01*
G03X41685Y239764I0J-3000D01*
G01Y232677D01*
D02*
G37*
G36*
G01X45720Y121526D02*
G03X47323Y107184I4280J-6782D01*
G03X54278Y121527I2677J7560D01*
G02X54280Y122372I269J422D01*
G03X50355Y137165I-4280J6782D01*
G03X49645I-355J-8007D01*
G03X47323Y136713I355J-8011D01*
G03X45720Y122372I2677J-7560D01*
G02X45720Y121526I-267J-423D01*
D02*
G37*
G36*
G01Y153534D02*
G03X47323Y139192I4280J-6782D01*
G03X54278Y153535I2677J7560D01*
G02X54280Y154379I269J422D01*
G03X47323Y168721I-4280J6782D01*
G03X45720Y154379I2677J-7560D01*
G02X45720Y153534I-267J-423D01*
D02*
G37*
G36*
G01X45769Y318724D02*
G03Y312457I5255J-3133D01*
G01X48902Y315591D01*
G01X47323Y317170D01*
G01X45769Y318724D01*
D02*
G37*
G36*
G01X47890Y310336D02*
G03X54157I3133J5255D01*
G01X51024Y313469D01*
G01X47890Y310336D01*
D02*
G37*
G36*
G01Y320845D02*
G01X51024Y317712D01*
G01X54157Y320845D01*
G03X47890I-3133J-5255D01*
D02*
G37*
G36*
G01X53145Y315591D02*
G01X56278Y312457D01*
G03Y318724I-5255J3133D01*
G01X53145Y315591D01*
D02*
G37*
G36*
G01X55769Y278724D02*
G03Y272457I5255J-3133D01*
G01X58902Y275590D01*
G01X55769Y278724D01*
D02*
G37*
G36*
G01X57890Y270336D02*
G03X64157I3133J5255D01*
G01X61024Y273469D01*
G01X57890Y270336D01*
D02*
G37*
G36*
G01Y280845D02*
G01X61024Y277712D01*
G01X64157Y280845D01*
G03X57890I-3133J-5255D01*
D02*
G37*
G36*
G01X62906Y313032D02*
G03X68465Y307472I5559J0D01*
G01X73583D01*
G03X79142Y313032I0J5559D01*
G01Y318150D01*
G03X73583Y323709I-5559J0D01*
G01X68465D01*
G03X62906Y318150I0J-5559D01*
G01Y313032D01*
D02*
G37*
G36*
G01X63145Y275590D02*
G01X66278Y272457D01*
G03Y278724I-5255J3133D01*
G01X63145Y275590D01*
D02*
G37*
G36*
G01X63820Y238192D02*
G03Y234249I4093J-1972D01*
G01X65792Y236221D01*
G01X63820Y238192D01*
D02*
G37*
G36*
G01X65942Y232127D02*
G03X69885I1972J4093D01*
G01X67913Y234099D01*
G01X65942Y232127D01*
D02*
G37*
G36*
G01Y240314D02*
G01X67913Y238342D01*
G01X69885Y240314D01*
G03X65942I-1972J-4093D01*
D02*
G37*
G36*
G01X66773Y200791D02*
G03Y196847I4093J-1972D01*
G01X68745Y198819D01*
G01X66773Y200791D01*
D02*
G37*
G36*
G01X68894Y194726D02*
G03X72838I1972J4093D01*
G01X70866Y196698D01*
G01X68894Y194726D01*
D02*
G37*
G36*
G01Y202912D02*
G01X70866Y200940D01*
G01X72838Y202912D01*
G03X68894I-1972J-4093D01*
D02*
G37*
G36*
G01X70035Y236221D02*
G01X72006Y234249D01*
G03Y238192I-4093J1972D01*
G01X70035Y236221D01*
D02*
G37*
G36*
G01X72988Y198819D02*
G01X74959Y196847D01*
G03Y200791I-4093J1972D01*
G01X72988Y198819D01*
D02*
G37*
G36*
G01X81153Y153534D02*
G03X87323Y138958I4280J-6782D01*
G03X89711Y153535I-1890J7794D01*
G02X89713Y154379I269J422D01*
G03X87323Y168955I-4280J6782D01*
G03X81153Y154379I-1890J-7794D01*
G02X81153Y153534I-267J-423D01*
D02*
G37*
G36*
G01X84008Y195276D02*
G03X87008Y192276I3000J0D01*
G01X94095D01*
G03X97095Y195276I0J3000D01*
G01Y202362D01*
G03X94095Y205362I-3000J0D01*
G01X87008D01*
G03X84008Y202362I0J-3000D01*
G01Y195276D01*
D02*
G37*
G36*
G01X85078Y137165D02*
G03X81153Y122372I355J-8012D01*
G02X81153Y121526I-267J-423D01*
G03X87323Y106950I4280J-6782D01*
G03X89711Y121527I-1890J7794D01*
G02X89713Y122372I269J422D01*
G03X87323Y136947I-4280J6782D01*
G03X85789Y137165I-1890J-7794D01*
G03X85078Y137165I-355J-8012D01*
D02*
G37*
G36*
G01X87323Y280712D02*
G03X74724Y270470I-6299J-5121D01*
G03X87323Y280712I6299J5121D01*
D02*
G37*
G36*
G01X112551Y231693D02*
G03X115551Y228693I3000J0D01*
G01X122638D01*
G03X125638Y231693I0J3000D01*
G01Y238779D01*
G03X122638Y241779I-3000J0D01*
G01X115551D01*
G03X112551Y238779I0J-3000D01*
G01Y231693D01*
D02*
G37*
G36*
G01X116586Y153534D02*
G03X127323Y151509I4280J-6782D01*
G03X125145Y153535I-6456J-4756D01*
G02X125146Y154379I269J422D01*
G03X127323Y156405I-4280J6782D01*
G03Y165918I-6457J4757D01*
G03X116586Y154379I-6457J-4757D01*
G02X116586Y153534I-267J-423D01*
D02*
G37*
G36*
G01X116635Y318724D02*
G03Y312457I5255J-3133D01*
G01X119768Y315591D01*
G01X116635Y318724D01*
D02*
G37*
G36*
G01X118756Y310336D02*
G03X125023I3133J5255D01*
G01X121890Y313469D01*
G01X118756Y310336D01*
D02*
G37*
G36*
G01Y320845D02*
G01X121890Y317712D01*
G01X125023Y320845D01*
G03X118756I-3133J-5255D01*
D02*
G37*
G36*
G01X120511Y137165D02*
G03X116586Y122372I355J-8012D01*
G02X116586Y121526I-267J-423D01*
G03X127323Y119501I4280J-6782D01*
G03X125145Y121527I-6456J-4756D01*
G02X125146Y122372I269J422D01*
G03X127323Y124397I-4280J6782D01*
G03Y133910I-6457J4757D01*
G03X121222Y137165I-6457J-4757D01*
G03X120511Y137165I-355J-8012D01*
D02*
G37*
G36*
G01X124011Y315591D02*
G01X127145Y312457D01*
G03X127323Y312777I-5248J3130D01*
G03Y318404I-5433J2813D01*
G03X127145Y318724I-5417J-2804D01*
G01X124011Y315591D01*
D02*
G37*
G36*
G01X126635Y278724D02*
G03Y272457I5255J-3133D01*
G01X129768Y275590D01*
G01X127323Y278036D01*
G01X126635Y278724D01*
D02*
G37*
G36*
G01X128756Y270336D02*
G03X135023I3133J5255D01*
G01X131890Y273469D01*
G01X128756Y270336D01*
D02*
G37*
G36*
G01Y280845D02*
G01X131890Y277712D01*
G01X135023Y280845D01*
G03X128756I-3133J-5255D01*
D02*
G37*
G36*
G01X133772Y313032D02*
G03X139331Y307472I5559J0D01*
G01X144449D01*
G03X150008Y313032I0J5559D01*
G01Y318150D01*
G03X144449Y323709I-5559J0D01*
G01X139331D01*
G03X133772Y318150I0J-5559D01*
G01Y313032D01*
D02*
G37*
G36*
G01X134011Y275590D02*
G01X137144Y272457D01*
G03Y278724I-5255J3133D01*
G01X134011Y275590D01*
D02*
G37*
G36*
G01X134686Y237208D02*
G03Y233264I4093J-1972D01*
G01X136658Y235236D01*
G01X134686Y237208D01*
D02*
G37*
G36*
G01X136808Y231143D02*
G03X140751I1972J4093D01*
G01X138779Y233115D01*
G01X136808Y231143D01*
D02*
G37*
G36*
G01Y239329D02*
G01X138779Y237357D01*
G01X140751Y239329D01*
G03X136808I-1972J-4093D01*
D02*
G37*
G36*
G01X137639Y200791D02*
G03Y196847I4093J-1972D01*
G01X139611Y198819D01*
G01X137639Y200791D01*
D02*
G37*
G36*
G01X139760Y194726D02*
G03X143704I1972J4093D01*
G01X141732Y196698D01*
G01X139760Y194726D01*
D02*
G37*
G36*
G01Y202912D02*
G01X141732Y200940D01*
G01X143704Y202912D01*
G03X139760I-1972J-4093D01*
D02*
G37*
G36*
G01X140901Y235236D02*
G01X142873Y233264D01*
G03Y237208I-4093J1972D01*
G01X140901Y235236D01*
D02*
G37*
G36*
G01X143772Y275590D02*
G03X160008I8118J0D01*
G03X143772I-8118J0D01*
D02*
G37*
G36*
G01X143854Y198819D02*
G01X145825Y196847D01*
G03Y200791I-4093J1972D01*
G01X143854Y198819D01*
D02*
G37*
G36*
G01X152020Y121526D02*
G03X160578Y121527I4280J-6782D01*
G02X160580Y122372I269J422D01*
G03X156655Y137165I-4280J6782D01*
G03X155944I-355J-8012D01*
G03X152019Y122372I355J-8012D01*
G02X152020Y121526I-267J-423D01*
D02*
G37*
G36*
G01Y153534D02*
G03X160578Y153535I4280J-6782D01*
G02X160580Y154379I269J422D01*
G03X152019I-4280J6782D01*
G02X152020Y153534I-267J-423D01*
D02*
G37*
G36*
G01X154874Y195276D02*
G03X157874Y192276I3000J0D01*
G01X164961D01*
G03X167961Y195276I0J3000D01*
G01Y202362D01*
G03X167323Y204211I-3000J-0D01*
G03X164961Y205362I-2362J-1849D01*
G01X157874Y205362D01*
G03X154874Y202362I0J-3000D01*
G01Y195276D01*
D02*
G37*
G36*
G01X183417Y232677D02*
G03X186417Y229677I3000J0D01*
G01X193504D01*
G03X196504Y232677I0J3000D01*
G01Y239764D01*
G03X193504Y242764I-3000J0D01*
G01X186417D01*
G03X183417Y239764I0J-3000D01*
G01Y232677D01*
D02*
G37*
G36*
G01X187452Y121526D02*
G03X196011Y121527I4280J-6782D01*
G02X196013Y122372I269J422D01*
G03X192088Y137165I-4280J6782D01*
G03X191377I-355J-8012D01*
G03X187452Y122372I355J-8012D01*
G02X187452Y121526I-267J-423D01*
D02*
G37*
G36*
G01Y153534D02*
G03X196011Y153535I4280J-6782D01*
G02X196013Y154379I269J422D01*
G03X187452I-4280J6782D01*
G02X187452Y153534I-267J-423D01*
D02*
G37*
G36*
G01X187501Y318724D02*
G03Y312457I5255J-3133D01*
G01X190635Y315591D01*
G01X187501Y318724D01*
D02*
G37*
G36*
G01X189622Y310336D02*
G03X195889I3133J5255D01*
G01X192756Y313469D01*
G01X189622Y310336D01*
D02*
G37*
G36*
G01Y320845D02*
G01X192756Y317712D01*
G01X195889Y320845D01*
G03X189622I-3133J-5255D01*
D02*
G37*
G36*
G01X194877Y315591D02*
G01X198011Y312457D01*
G03Y318724I-5255J3133D01*
G01X194877Y315591D01*
D02*
G37*
G36*
G01X197501Y278724D02*
G03Y272457I5255J-3133D01*
G01X200635Y275590D01*
G01X197501Y278724D01*
D02*
G37*
G36*
G01X199622Y270336D02*
G03X205889I3133J5255D01*
G01X202756Y273469D01*
G01X199622Y270336D01*
D02*
G37*
G36*
G01Y280845D02*
G01X202756Y277712D01*
G01X205889Y280845D01*
G03X199622I-3133J-5255D01*
D02*
G37*
G36*
G01X204638Y313032D02*
G03X207323Y308273I5559J0D01*
G03X210197Y307472I2874J4758D01*
G01X215315D01*
G03X220874Y313032I0J5559D01*
G01Y318150D01*
G03X215315Y323709I-5559J0D01*
G01X210197D01*
G03X207323Y322908I-0J-5559D01*
G03X204638Y318150I2874J-4758D01*
G01Y313032D01*
D02*
G37*
G36*
G01X204877Y275590D02*
G01X207323Y273145D01*
G01X208011Y272457D01*
G03Y278724I-5255J3133D01*
G01X204877Y275590D01*
D02*
G37*
G36*
G01X205553Y238192D02*
G03Y234249I4093J-1972D01*
G01X207524Y236221D01*
G01X207323Y236422D01*
G01X205553Y238192D01*
D02*
G37*
G36*
G01X207674Y232127D02*
G03X211617I1972J4093D01*
G01X209646Y234099D01*
G01X207674Y232127D01*
D02*
G37*
G36*
G01Y240314D02*
G01X209646Y238342D01*
G01X211617Y240314D01*
G03X207674I-1972J-4093D01*
D02*
G37*
G36*
G01X208505Y200791D02*
G03Y196847I4093J-1972D01*
G01X210477Y198819D01*
G01X208505Y200791D01*
D02*
G37*
G36*
G01X210627Y194726D02*
G03X214570I1972J4093D01*
G01X212598Y196698D01*
G01X210627Y194726D01*
D02*
G37*
G36*
G01Y202912D02*
G01X212598Y200940D01*
G01X214570Y202912D01*
G03X210627I-1972J-4093D01*
D02*
G37*
G36*
G01X211767Y236221D02*
G01X213739Y234249D01*
G03Y238192I-4093J1972D01*
G01X211767Y236221D01*
D02*
G37*
G36*
G01X212247Y45474D02*
G03Y37203I6257J-4135D01*
G01X216383Y41339D01*
G01X212247Y45474D01*
D02*
G37*
G36*
G01X214368Y35082D02*
G03X222639I4135J6257D01*
G01X218504Y39217D01*
G01X214368Y35082D01*
D02*
G37*
G36*
G01Y47595D02*
G01X218504Y43460D01*
G01X222639Y47595D01*
G03X214368I-4135J-6257D01*
D02*
G37*
G36*
G01X214638Y275590D02*
G03X230874I8118J0D01*
G03X214638I-8118J0D01*
D02*
G37*
G36*
G01X214720Y198819D02*
G01X216691Y196847D01*
G03Y200791I-4093J1972D01*
G01X214720Y198819D01*
D02*
G37*
G36*
G01X220625Y41339D02*
G01X224761Y37203D01*
G03Y45474I-6257J4135D01*
G01X220625Y41339D01*
D02*
G37*
G36*
G01X222886Y121526D02*
G03X231444Y121527I4280J-6782D01*
G02X231446Y122372I269J422D01*
G03X227521Y137165I-4280J6782D01*
G03X226810I-355J-8012D01*
G03X222885Y122372I355J-8012D01*
G02X222886Y121526I-267J-423D01*
D02*
G37*
G36*
G01Y153534D02*
G03X231444Y153535I4280J-6782D01*
G02X231446Y154379I269J422D01*
G03X222885I-4280J6782D01*
G02X222886Y153534I-267J-423D01*
D02*
G37*
G36*
G01X225740Y195276D02*
G03X228740Y192276I3000J0D01*
G01X235827D01*
G03X238827Y195276I0J3000D01*
G01Y202362D01*
G03X235827Y205362I-3000J0D01*
G01X228740D01*
G03X225740Y202362I0J-3000D01*
G01Y195276D01*
D02*
G37*
G36*
G01X249649Y45474D02*
G03Y37203I6257J-4135D01*
G01X253784Y41339D01*
G01X249649Y45474D01*
D02*
G37*
G36*
G01X251770Y35082D02*
G03X260041I4135J6257D01*
G01X255906Y39217D01*
G01X251770Y35082D01*
D02*
G37*
G36*
G01Y47595D02*
G01X255906Y43460D01*
G01X260041Y47595D01*
G03X251770I-4135J-6257D01*
D02*
G37*
G36*
G01X253299Y231693D02*
G03X256299Y228693I3000J0D01*
G01X263386D01*
G03X266386Y231693I0J3000D01*
G01Y238779D01*
G03X263386Y241779I-3000J0D01*
G01X256299D01*
G03X253299Y238779I0J-3000D01*
G01Y231693D01*
D02*
G37*
G36*
G01X258027Y41339D02*
G01X262162Y37203D01*
G03Y45474I-6257J4135D01*
G01X258027Y41339D01*
D02*
G37*
G36*
G01X258319Y121526D02*
G03X266877Y121527I4280J-6782D01*
G02X266879Y122372I269J422D01*
G03X262954Y137165I-4280J6782D01*
G03X262243I-355J-8012D01*
G03X258318Y122372I355J-8012D01*
G02X258319Y121526I-267J-423D01*
D02*
G37*
G36*
G01Y153534D02*
G03X266877Y153535I4280J-6782D01*
G02X266879Y154379I269J422D01*
G03X258318I-4280J6782D01*
G02X258319Y153534I-267J-423D01*
D02*
G37*
G36*
G01X258367Y318724D02*
G03Y312457I5255J-3133D01*
G01X261501Y315591D01*
G01X258367Y318724D01*
D02*
G37*
G36*
G01X260489Y310336D02*
G03X266756I3133J5255D01*
G01X263622Y313469D01*
G01X260489Y310336D01*
D02*
G37*
G36*
G01Y320845D02*
G01X263622Y317712D01*
G01X266756Y320845D01*
G03X260489I-3133J-5255D01*
D02*
G37*
G36*
G01X265743Y315591D02*
G01X268877Y312457D01*
G03Y318724I-5255J3133D01*
G01X265743Y315591D01*
D02*
G37*
G36*
G01X268367Y278724D02*
G03Y272457I5255J-3133D01*
G01X271501Y275590D01*
G01X268367Y278724D01*
D02*
G37*
G36*
G01X270489Y270336D02*
G03X276755I3133J5255D01*
G01X273622Y273469D01*
G01X270489Y270336D01*
D02*
G37*
G36*
G01Y280845D02*
G01X273622Y277712D01*
G01X276755Y280845D01*
G03X270489I-3133J-5255D01*
D02*
G37*
G36*
G01X275434Y237208D02*
G03Y233264I4093J-1972D01*
G01X277406Y235236D01*
G01X275434Y237208D01*
D02*
G37*
G36*
G01X275504Y313032D02*
G03X281063Y307472I5559J0D01*
G01X286181D01*
G03X287323Y307591I-0J5560D01*
G03X291740Y313032I-1142J5441D01*
G01X291740Y318150D01*
G03X287323Y323590I-5559J0D01*
G03X286181Y323709I-1142J-5440D01*
G01X281063Y323709D01*
G03X275504Y318150I0J-5559D01*
G01Y313032D01*
D02*
G37*
G36*
G01X275743Y275590D02*
G01X278877Y272457D01*
G03Y278724I-5255J3133D01*
G01X275743Y275590D01*
D02*
G37*
G36*
G01X277556Y231143D02*
G03X281499I1972J4093D01*
G01X279528Y233115D01*
G01X277556Y231143D01*
D02*
G37*
G36*
G01Y239329D02*
G01X279528Y237357D01*
G01X281499Y239329D01*
G03X277556I-1972J-4093D01*
D02*
G37*
G36*
G01X279371Y200791D02*
G03Y196847I4093J-1972D01*
G01X281343Y198819D01*
G01X279371Y200791D01*
D02*
G37*
G36*
G01X281493Y194726D02*
G03X285436I1972J4093D01*
G01X283465Y196698D01*
G01X281493Y194726D01*
D02*
G37*
G36*
G01Y202912D02*
G01X283465Y200940D01*
G01X285436Y202912D01*
G03X281493I-1972J-4093D01*
D02*
G37*
G36*
G01X281649Y235236D02*
G01X283621Y233264D01*
G03Y237208I-4093J1972D01*
G01X281649Y235236D01*
D02*
G37*
G36*
G01X285586Y198819D02*
G01X287323Y197082D01*
G01X287558Y196847D01*
G03Y200791I-4093J1972D01*
G01X285586Y198819D01*
D02*
G37*
G36*
G01X287323Y280711D02*
G03Y270470I6299J-5121D01*
G03Y280711I6299J5121D01*
D02*
G37*
G36*
G01X293752Y121526D02*
G03X302310Y121527I4280J-6782D01*
G02X302312Y122372I269J422D01*
G03X298387Y137165I-4280J6782D01*
G03X297676I-355J-8012D01*
G03X293751Y122372I355J-8012D01*
G02X293752Y121526I-267J-423D01*
D02*
G37*
G36*
G01Y153534D02*
G03X302310Y153535I4280J-6782D01*
G02X302312Y154379I269J422D01*
G03X293751I-4280J6782D01*
G02X293752Y153534I-267J-423D01*
D02*
G37*
G36*
G01X296606Y195276D02*
G03X299606Y192276I3000J0D01*
G01X306693D01*
G03X309693Y195276I0J3000D01*
G01Y202362D01*
G03X306693Y205362I-3000J0D01*
G01X299606D01*
G03X296606Y202362I0J-3000D01*
G01Y195276D01*
D02*
G37*
%LPD*%
D21*
X116142Y41339D02*
D03*
X78740D02*
D03*
X255906D02*
D03*
X218504D02*
D03*
D26*
X70866Y198819D02*
D03*
X67913Y236221D02*
D03*
X141732Y198819D02*
D03*
X138779Y235236D02*
D03*
X212598Y198819D02*
D03*
X209646Y236221D02*
D03*
X283465Y198819D02*
D03*
X279528Y235236D02*
D03*
D27*
X90551Y198819D02*
D03*
X48228Y236221D02*
D03*
X161417Y198819D02*
D03*
X119095Y235236D02*
D03*
X232283Y198819D02*
D03*
X189961Y236221D02*
D03*
X303150Y198819D02*
D03*
X259842Y235236D02*
D03*
D28*
X85433Y146752D02*
D03*
Y161161D02*
D03*
X227165Y146752D02*
D03*
Y161161D02*
D03*
X85433Y129154D02*
D03*
Y114744D02*
D03*
X50000Y146752D02*
D03*
Y129154D02*
D03*
Y161161D02*
D03*
Y114744D02*
D03*
X156299Y146752D02*
D03*
Y129154D02*
D03*
Y161161D02*
D03*
Y114744D02*
D03*
X120866Y146752D02*
D03*
Y129154D02*
D03*
Y161161D02*
D03*
Y114744D02*
D03*
X227165Y129154D02*
D03*
Y114744D02*
D03*
X191732Y146752D02*
D03*
Y129154D02*
D03*
Y161161D02*
D03*
Y114744D02*
D03*
X298031Y146752D02*
D03*
Y129154D02*
D03*
Y161161D02*
D03*
Y114744D02*
D03*
X262598Y146752D02*
D03*
Y129154D02*
D03*
Y161161D02*
D03*
Y114744D02*
D03*
D29*
X81024Y275590D02*
D03*
X222756D02*
D03*
X151890D02*
D03*
X293622D02*
D03*
X61024D02*
D03*
X51024Y315591D02*
D03*
X131890Y275590D02*
D03*
X121890Y315591D02*
D03*
X202756Y275590D02*
D03*
X192756Y315591D02*
D03*
X273622Y275590D02*
D03*
X263622Y315591D02*
D03*
D30*
X212756D02*
D03*
X141890D02*
D03*
X283622D02*
D03*
X71024D02*
D03*
D31*
X181102Y92520D02*
D03*
M02*
