G04*
G04 #@! TF.GenerationSoftware,Altium Limited,Altium Designer,26.9.1 (10)*
G04*
G04 Layer_Color=2752767*
G04 Board_Origin=74640005|44270005*
%FSLAX25Y25*%
%MOIN*%
G70*
G04*
G04 #@! TF.SameCoordinates,585EC1B0-1F81-44B1-8C19-25A49A0C304D*
G04*
G04*
G04 #@! TF.FilePolarity,Positive*
G04*
G01*
G75*
%ADD11C,0.00500*%
%ADD40C,0.00667*%
G36*
X-121789Y14268D02*
Y19004D01*
X-120606D01*
X-120548Y19001D01*
X-120482D01*
X-120409Y18997D01*
X-120333Y18993D01*
X-120166Y18979D01*
X-119991Y18960D01*
X-119903Y18949D01*
X-119820Y18935D01*
X-119740Y18920D01*
X-119667Y18902D01*
X-119663D01*
X-119649Y18899D01*
X-119630Y18891D01*
X-119605Y18884D01*
X-119572Y18873D01*
X-119532Y18862D01*
X-119489Y18848D01*
X-119445Y18829D01*
X-119343Y18789D01*
X-119234Y18742D01*
X-119124Y18687D01*
X-119019Y18626D01*
X-119015Y18622D01*
X-118997Y18611D01*
X-118975Y18593D01*
X-118942Y18571D01*
X-118906Y18542D01*
X-118811Y18462D01*
X-118757Y18411D01*
X-118644Y18298D01*
X-118527Y18160D01*
X-118469Y18083D01*
X-118411Y18000D01*
X-118360Y17912D01*
X-118309Y17821D01*
X-118298Y17799D01*
X-118287Y17770D01*
X-118269Y17734D01*
X-118251Y17683D01*
X-118229Y17628D01*
X-118207Y17559D01*
X-118182Y17486D01*
X-118160Y17402D01*
X-118138Y17312D01*
X-118116Y17213D01*
X-118098Y17108D01*
X-118080Y16998D01*
X-118069Y16882D01*
X-118062Y16758D01*
X-118058Y16631D01*
Y16569D01*
X-118062Y16522D01*
X-118065Y16463D01*
X-118072Y16398D01*
X-118080Y16321D01*
X-118091Y16241D01*
X-118105Y16150D01*
X-118123Y16059D01*
X-118145Y15961D01*
X-118171Y15863D01*
X-118200Y15761D01*
X-118236Y15659D01*
X-118276Y15557D01*
X-118324Y15459D01*
X-118349Y15408D01*
X-118371Y15371D01*
X-118396Y15328D01*
X-118429Y15280D01*
X-118466Y15222D01*
X-118509Y15160D01*
X-118557Y15098D01*
X-118611Y15033D01*
X-118669Y14964D01*
X-118731Y14895D01*
X-118797Y14829D01*
X-118870Y14763D01*
X-118946Y14702D01*
X-119026Y14643D01*
X-119030Y14640D01*
X-119041Y14633D01*
X-119063Y14622D01*
X-119088Y14607D01*
X-119121Y14589D01*
X-119161Y14567D01*
X-119205Y14545D01*
X-119252Y14520D01*
X-119307Y14498D01*
X-119365Y14472D01*
X-119489Y14421D01*
X-119620Y14378D01*
X-119758Y14341D01*
X-119762D01*
X-119776Y14338D01*
X-119794Y14334D01*
X-119823Y14330D01*
X-119860Y14323D01*
X-119903Y14319D01*
X-119954Y14312D01*
X-120013Y14305D01*
X-120078Y14298D01*
X-120151Y14290D01*
X-120227Y14287D01*
X-120311Y14279D01*
X-120398Y14276D01*
X-120493Y14272D01*
X-120595Y14268D01*
X-121789D01*
D02*
G37*
%LPC*%
G36*
X-121159Y14811D02*
X-120613D01*
X-120577Y14815D01*
X-120533D01*
X-120486Y14818D01*
X-120435D01*
X-120318Y14825D01*
X-120198Y14840D01*
X-120071Y14854D01*
X-119951Y14876D01*
X-119947D01*
X-119936Y14880D01*
X-119918Y14884D01*
X-119896Y14891D01*
X-119871Y14898D01*
X-119838Y14906D01*
X-119801Y14920D01*
X-119758Y14931D01*
X-119670Y14967D01*
X-119572Y15007D01*
X-119470Y15062D01*
X-119372Y15124D01*
X-119368Y15127D01*
X-119357Y15135D01*
X-119339Y15146D01*
X-119317Y15164D01*
X-119292Y15186D01*
X-119226Y15244D01*
X-119186Y15280D01*
X-119150Y15320D01*
X-119106Y15364D01*
X-119026Y15466D01*
X-118986Y15524D01*
X-118950Y15583D01*
X-118913Y15648D01*
X-118881Y15714D01*
X-118877Y15717D01*
X-118873Y15732D01*
X-118866Y15750D01*
X-118855Y15779D01*
X-118841Y15815D01*
X-118826Y15859D01*
X-118811Y15910D01*
X-118797Y15968D01*
X-118782Y16034D01*
X-118768Y16103D01*
X-118753Y16180D01*
X-118739Y16260D01*
X-118728Y16347D01*
X-118720Y16438D01*
X-118713Y16536D01*
Y16693D01*
X-118717Y16729D01*
Y16776D01*
X-118724Y16831D01*
X-118728Y16893D01*
X-118735Y16958D01*
X-118757Y17104D01*
X-118790Y17261D01*
X-118833Y17421D01*
X-118862Y17497D01*
X-118895Y17570D01*
X-118899Y17574D01*
X-118902Y17588D01*
X-118913Y17606D01*
X-118928Y17636D01*
X-118950Y17668D01*
X-118972Y17705D01*
X-119001Y17745D01*
X-119030Y17792D01*
X-119066Y17839D01*
X-119106Y17890D01*
X-119150Y17938D01*
X-119197Y17989D01*
X-119252Y18040D01*
X-119307Y18087D01*
X-119368Y18131D01*
X-119434Y18174D01*
X-119438Y18178D01*
X-119459Y18189D01*
X-119478Y18200D01*
X-119528Y18225D01*
X-119561Y18243D01*
X-119594Y18258D01*
X-119674Y18294D01*
X-119769Y18331D01*
X-119867Y18363D01*
X-119973Y18393D01*
X-119976D01*
X-119987Y18396D01*
X-120002Y18400D01*
X-120024Y18404D01*
X-120053Y18407D01*
X-120085Y18414D01*
X-120122Y18422D01*
X-120169Y18429D01*
X-120217Y18433D01*
X-120271Y18440D01*
X-120329Y18447D01*
X-120391Y18451D01*
X-120529Y18458D01*
X-120602Y18462D01*
X-121159D01*
Y14811D01*
D02*
G37*
%LPD*%
G36*
X-117421Y14268D02*
Y17821D01*
X-116824D01*
Y17290D01*
X-116809Y17304D01*
X-116791Y17319D01*
X-116769Y17337D01*
X-116740Y17363D01*
X-116708Y17388D01*
X-116671Y17417D01*
X-116631Y17450D01*
X-116540Y17519D01*
X-116351Y17650D01*
X-116256Y17701D01*
X-116253D01*
X-116194Y17730D01*
X-116165Y17737D01*
X-116107Y17763D01*
X-116034Y17785D01*
X-115954Y17803D01*
X-115870Y17818D01*
X-115783Y17821D01*
X-115732D01*
X-115685Y17818D01*
X-115663D01*
X-115645Y17814D01*
X-115637D01*
X-115612Y17810D01*
X-115579Y17807D01*
X-115539Y17799D01*
Y17177D01*
X-115576D01*
X-115583Y17180D01*
X-115597Y17184D01*
X-115615Y17188D01*
X-115663Y17195D01*
X-115717Y17199D01*
X-115732D01*
X-115747Y17202D01*
X-115790D01*
X-115823Y17206D01*
X-115932D01*
X-115958Y17202D01*
X-115983D01*
X-116045Y17191D01*
X-116118Y17180D01*
X-116198Y17162D01*
X-116285Y17137D01*
X-116376Y17100D01*
X-116380D01*
X-116387Y17097D01*
X-116398Y17089D01*
X-116416Y17082D01*
X-116438Y17071D01*
X-116464Y17057D01*
X-116522Y17020D01*
X-116591Y16977D01*
X-116664Y16926D01*
X-116744Y16860D01*
X-116824Y16787D01*
Y14268D01*
X-117421D01*
D02*
G37*
G36*
X-115099Y18414D02*
Y19033D01*
X-114418D01*
Y18414D01*
X-115099D01*
D02*
G37*
G36*
X-115062Y14268D02*
Y17821D01*
X-114465D01*
Y14268D01*
X-115062D01*
D02*
G37*
G36*
X-113574D02*
Y19215D01*
X-112977D01*
Y14268D01*
X-113574D01*
D02*
G37*
G36*
X-112085D02*
Y19215D01*
X-111488D01*
Y14268D01*
X-112085D01*
D02*
G37*
G36*
X-108525D02*
Y19004D01*
X-107342D01*
X-107284Y19001D01*
X-107218D01*
X-107145Y18997D01*
X-107069Y18993D01*
X-106901Y18979D01*
X-106727Y18960D01*
X-106639Y18949D01*
X-106556Y18935D01*
X-106475Y18920D01*
X-106403Y18902D01*
X-106399D01*
X-106385Y18899D01*
X-106366Y18891D01*
X-106341Y18884D01*
X-106308Y18873D01*
X-106268Y18862D01*
X-106224Y18848D01*
X-106181Y18829D01*
X-106079Y18789D01*
X-105970Y18742D01*
X-105860Y18687D01*
X-105755Y18626D01*
X-105751Y18622D01*
X-105733Y18611D01*
X-105711Y18593D01*
X-105678Y18571D01*
X-105642Y18542D01*
X-105547Y18462D01*
X-105493Y18411D01*
X-105380Y18298D01*
X-105263Y18160D01*
X-105205Y18083D01*
X-105147Y18000D01*
X-105096Y17912D01*
X-105045Y17821D01*
X-105034Y17799D01*
X-105023Y17770D01*
X-105005Y17734D01*
X-104987Y17683D01*
X-104965Y17628D01*
X-104943Y17559D01*
X-104918Y17486D01*
X-104896Y17402D01*
X-104874Y17312D01*
X-104852Y17213D01*
X-104834Y17108D01*
X-104816Y16998D01*
X-104805Y16882D01*
X-104797Y16758D01*
X-104794Y16631D01*
Y16569D01*
X-104797Y16522D01*
X-104801Y16463D01*
X-104808Y16398D01*
X-104816Y16321D01*
X-104827Y16241D01*
X-104841Y16150D01*
X-104859Y16059D01*
X-104881Y15961D01*
X-104907Y15863D01*
X-104936Y15761D01*
X-104972Y15659D01*
X-105012Y15557D01*
X-105060Y15459D01*
X-105085Y15408D01*
X-105107Y15371D01*
X-105132Y15328D01*
X-105165Y15280D01*
X-105201Y15222D01*
X-105245Y15160D01*
X-105292Y15098D01*
X-105347Y15033D01*
X-105405Y14964D01*
X-105467Y14895D01*
X-105533Y14829D01*
X-105605Y14763D01*
X-105682Y14702D01*
X-105762Y14643D01*
X-105766Y14640D01*
X-105777Y14633D01*
X-105798Y14622D01*
X-105824Y14607D01*
X-105857Y14589D01*
X-105897Y14567D01*
X-105940Y14545D01*
X-105988Y14520D01*
X-106042Y14498D01*
X-106101Y14472D01*
X-106224Y14421D01*
X-106355Y14378D01*
X-106494Y14341D01*
X-106497D01*
X-106512Y14338D01*
X-106530Y14334D01*
X-106559Y14330D01*
X-106596Y14323D01*
X-106639Y14319D01*
X-106690Y14312D01*
X-106748Y14305D01*
X-106814Y14298D01*
X-106887Y14290D01*
X-106963Y14287D01*
X-107047Y14279D01*
X-107134Y14276D01*
X-107229Y14272D01*
X-107331Y14268D01*
X-108525D01*
D02*
G37*
%LPC*%
G36*
X-107895Y14811D02*
X-107349D01*
X-107313Y14815D01*
X-107269D01*
X-107222Y14818D01*
X-107171D01*
X-107054Y14825D01*
X-106934Y14840D01*
X-106807Y14854D01*
X-106687Y14876D01*
X-106683D01*
X-106672Y14880D01*
X-106654Y14884D01*
X-106632Y14891D01*
X-106606Y14898D01*
X-106574Y14906D01*
X-106537Y14920D01*
X-106494Y14931D01*
X-106406Y14967D01*
X-106308Y15007D01*
X-106206Y15062D01*
X-106108Y15124D01*
X-106104Y15127D01*
X-106093Y15135D01*
X-106075Y15146D01*
X-106053Y15164D01*
X-106028Y15186D01*
X-105962Y15244D01*
X-105922Y15280D01*
X-105886Y15320D01*
X-105842Y15364D01*
X-105762Y15466D01*
X-105722Y15524D01*
X-105686Y15583D01*
X-105649Y15648D01*
X-105616Y15714D01*
X-105613Y15717D01*
X-105609Y15732D01*
X-105602Y15750D01*
X-105591Y15779D01*
X-105576Y15815D01*
X-105562Y15859D01*
X-105547Y15910D01*
X-105533Y15968D01*
X-105518Y16034D01*
X-105504Y16103D01*
X-105489Y16180D01*
X-105474Y16260D01*
X-105464Y16347D01*
X-105456Y16438D01*
X-105449Y16536D01*
Y16693D01*
X-105453Y16729D01*
Y16776D01*
X-105460Y16831D01*
X-105464Y16893D01*
X-105471Y16958D01*
X-105493Y17104D01*
X-105526Y17261D01*
X-105569Y17421D01*
X-105598Y17497D01*
X-105631Y17570D01*
X-105635Y17574D01*
X-105638Y17588D01*
X-105649Y17606D01*
X-105664Y17636D01*
X-105686Y17668D01*
X-105707Y17705D01*
X-105737Y17745D01*
X-105766Y17792D01*
X-105802Y17839D01*
X-105842Y17890D01*
X-105886Y17938D01*
X-105933Y17989D01*
X-105988Y18040D01*
X-106042Y18087D01*
X-106104Y18131D01*
X-106170Y18174D01*
X-106173Y18178D01*
X-106195Y18189D01*
X-106213Y18200D01*
X-106264Y18225D01*
X-106297Y18243D01*
X-106330Y18258D01*
X-106410Y18294D01*
X-106505Y18331D01*
X-106603Y18363D01*
X-106708Y18393D01*
X-106712D01*
X-106723Y18396D01*
X-106738Y18400D01*
X-106759Y18404D01*
X-106789Y18407D01*
X-106821Y18414D01*
X-106858Y18422D01*
X-106905Y18429D01*
X-106952Y18433D01*
X-107007Y18440D01*
X-107065Y18447D01*
X-107127Y18451D01*
X-107265Y18458D01*
X-107338Y18462D01*
X-107895D01*
Y14811D01*
D02*
G37*
%LPD*%
G36*
X-104157Y14268D02*
Y17821D01*
X-103560D01*
Y17290D01*
X-103545Y17304D01*
X-103527Y17319D01*
X-103505Y17337D01*
X-103476Y17363D01*
X-103443Y17388D01*
X-103407Y17417D01*
X-103367Y17450D01*
X-103276Y17519D01*
X-103087Y17650D01*
X-102992Y17701D01*
X-102988D01*
X-102930Y17730D01*
X-102901Y17737D01*
X-102843Y17763D01*
X-102770Y17785D01*
X-102690Y17803D01*
X-102606Y17818D01*
X-102519Y17821D01*
X-102468D01*
X-102420Y17818D01*
X-102399D01*
X-102381Y17814D01*
X-102373D01*
X-102348Y17810D01*
X-102315Y17807D01*
X-102275Y17799D01*
Y17177D01*
X-102311D01*
X-102319Y17180D01*
X-102333Y17184D01*
X-102351Y17188D01*
X-102399Y17195D01*
X-102453Y17199D01*
X-102468D01*
X-102482Y17202D01*
X-102526D01*
X-102559Y17206D01*
X-102668D01*
X-102693Y17202D01*
X-102719D01*
X-102781Y17191D01*
X-102854Y17180D01*
X-102934Y17162D01*
X-103021Y17137D01*
X-103112Y17100D01*
X-103116D01*
X-103123Y17097D01*
X-103134Y17089D01*
X-103152Y17082D01*
X-103174Y17071D01*
X-103200Y17057D01*
X-103258Y17020D01*
X-103327Y16977D01*
X-103400Y16926D01*
X-103480Y16860D01*
X-103560Y16787D01*
Y14268D01*
X-104157D01*
D02*
G37*
G36*
X-102057Y15211D02*
X-102060Y15299D01*
Y15335D01*
X-102057Y15360D01*
Y15393D01*
X-102053Y15430D01*
X-102046Y15470D01*
X-102042Y15513D01*
X-102024Y15612D01*
X-101995Y15717D01*
X-101958Y15823D01*
X-101907Y15925D01*
X-101904Y15928D01*
X-101900Y15936D01*
X-101889Y15950D01*
X-101878Y15968D01*
X-101860Y15990D01*
X-101816Y16041D01*
X-101787Y16074D01*
X-101754Y16107D01*
X-101718Y16139D01*
X-101678Y16172D01*
X-101631Y16209D01*
X-101583Y16241D01*
X-101532Y16274D01*
X-101474Y16307D01*
X-101412Y16336D01*
X-101409D01*
X-101398Y16343D01*
X-101383Y16351D01*
X-101358Y16358D01*
X-101332Y16369D01*
X-101296Y16383D01*
X-101256Y16398D01*
X-101212Y16412D01*
X-101165Y16427D01*
X-101110Y16442D01*
X-101052Y16460D01*
X-100990Y16474D01*
X-100855Y16503D01*
X-100710Y16525D01*
X-100706D01*
X-100691Y16529D01*
X-100670D01*
X-100637Y16533D01*
X-100601Y16540D01*
X-100557Y16544D01*
X-100506Y16551D01*
X-100448Y16554D01*
X-100317Y16569D01*
X-100244Y16576D01*
X-100167Y16583D01*
X-100004Y16594D01*
X-99829Y16605D01*
Y16751D01*
X-99832Y16791D01*
X-99836Y16838D01*
X-99843Y16893D01*
X-99872Y17002D01*
X-99894Y17053D01*
X-99905Y17075D01*
X-99920Y17097D01*
X-99938Y17126D01*
X-99963Y17159D01*
X-99996Y17191D01*
X-100033Y17224D01*
X-100073Y17253D01*
X-100076Y17257D01*
X-100095Y17264D01*
X-100116Y17279D01*
X-100149Y17293D01*
X-100189Y17308D01*
X-100240Y17326D01*
X-100291Y17341D01*
X-100353Y17352D01*
X-100360D01*
X-100382Y17355D01*
X-100415Y17359D01*
X-100455Y17366D01*
X-100506Y17370D01*
X-100564Y17373D01*
X-100626Y17377D01*
X-100750D01*
X-100772Y17373D01*
X-100801D01*
X-100830Y17370D01*
X-100903Y17363D01*
X-100986Y17352D01*
X-101077Y17337D01*
X-101179Y17315D01*
X-101183D01*
X-101190Y17312D01*
X-101227Y17304D01*
X-101252Y17297D01*
X-101281Y17290D01*
X-101318Y17279D01*
X-101354Y17271D01*
X-101438Y17246D01*
X-101532Y17213D01*
X-101634Y17177D01*
X-101740Y17137D01*
X-101773D01*
Y17741D01*
X-101769D01*
X-101765Y17745D01*
X-101754D01*
X-101743Y17748D01*
X-101725Y17756D01*
X-101703Y17759D01*
X-101682Y17766D01*
X-101653Y17774D01*
X-101583Y17788D01*
X-101503Y17807D01*
X-101409Y17825D01*
X-101299Y17847D01*
X-101296D01*
X-101285Y17850D01*
X-101270Y17854D01*
X-101219Y17861D01*
X-101187Y17865D01*
X-101146Y17872D01*
X-101107Y17876D01*
X-101015Y17887D01*
X-100910Y17898D01*
X-100801Y17901D01*
X-100688Y17905D01*
X-100597D01*
X-100560Y17901D01*
X-100521D01*
X-100379Y17890D01*
X-100273Y17879D01*
X-100171Y17865D01*
X-100073Y17847D01*
X-100069D01*
X-100062Y17843D01*
X-100047Y17839D01*
X-100029Y17836D01*
X-100007Y17828D01*
X-99982Y17821D01*
X-99920Y17799D01*
X-99851Y17770D01*
X-99774Y17734D01*
X-99694Y17690D01*
X-99618Y17639D01*
X-99614D01*
X-99611Y17632D01*
X-99599Y17625D01*
X-99585Y17614D01*
X-99509Y17537D01*
X-99461Y17483D01*
X-99414Y17417D01*
X-99370Y17344D01*
X-99330Y17261D01*
Y17257D01*
X-99326Y17250D01*
X-99319Y17239D01*
X-99316Y17221D01*
X-99308Y17195D01*
X-99297Y17170D01*
X-99290Y17137D01*
X-99279Y17104D01*
X-99272Y17064D01*
X-99265Y17020D01*
X-99247Y16926D01*
X-99235Y16816D01*
X-99232Y16696D01*
Y14268D01*
X-99829D01*
Y14647D01*
X-99832Y14643D01*
X-99843Y14636D01*
X-99858Y14625D01*
X-99884Y14607D01*
X-99913Y14585D01*
X-99945Y14560D01*
X-99985Y14531D01*
X-100029Y14494D01*
X-100033Y14491D01*
X-100051Y14480D01*
X-100073Y14461D01*
X-100102Y14440D01*
X-100138Y14414D01*
X-100218Y14363D01*
X-100269Y14338D01*
X-100287Y14327D01*
X-100320Y14312D01*
X-100360Y14298D01*
X-100408Y14276D01*
X-100459Y14254D01*
X-100571Y14218D01*
X-100579Y14214D01*
X-100597Y14210D01*
X-100630Y14203D01*
X-100677Y14196D01*
X-100735Y14185D01*
X-100808Y14177D01*
X-100888Y14174D01*
X-100983Y14170D01*
X-101019D01*
X-101041Y14174D01*
X-101063D01*
X-101117Y14181D01*
X-101183Y14192D01*
X-101252Y14207D01*
X-101329Y14225D01*
X-101401Y14254D01*
X-101405D01*
X-101409Y14258D01*
X-101419Y14261D01*
X-101470Y14287D01*
X-101518Y14312D01*
X-101572Y14345D01*
X-101631Y14385D01*
X-101689Y14432D01*
X-101747Y14483D01*
X-101754Y14491D01*
X-101769Y14509D01*
X-101798Y14541D01*
X-101827Y14581D01*
X-101864Y14636D01*
X-101904Y14698D01*
X-101940Y14767D01*
X-101976Y14844D01*
Y14847D01*
X-101980Y14854D01*
X-101984Y14865D01*
X-101991Y14880D01*
X-101995Y14902D01*
X-102002Y14924D01*
X-102016Y14982D01*
X-102035Y15047D01*
X-102046Y15127D01*
X-102057Y15211D01*
D02*
G37*
%LPC*%
G36*
X-101445Y15310D02*
X-101441Y15288D01*
Y15262D01*
X-101434Y15233D01*
X-101423Y15168D01*
X-101401Y15091D01*
X-101372Y15015D01*
X-101329Y14942D01*
X-101303Y14909D01*
X-101274Y14876D01*
X-101270D01*
X-101267Y14869D01*
X-101256Y14862D01*
X-101241Y14851D01*
X-101223Y14840D01*
X-101201Y14829D01*
X-101176Y14815D01*
X-101146Y14800D01*
X-101114Y14785D01*
X-101077Y14771D01*
X-100990Y14749D01*
X-100939Y14738D01*
X-100888Y14731D01*
X-100833Y14727D01*
X-100772Y14724D01*
X-100742D01*
X-100724Y14727D01*
X-100699D01*
X-100670Y14731D01*
X-100637Y14734D01*
X-100601Y14738D01*
X-100524Y14753D01*
X-100437Y14774D01*
X-100349Y14804D01*
X-100262Y14844D01*
X-100258D01*
X-100251Y14851D01*
X-100240Y14854D01*
X-100204Y14876D01*
X-100178Y14891D01*
X-100120Y14927D01*
X-100055Y14971D01*
X-99982Y15022D01*
X-99905Y15077D01*
X-99829Y15142D01*
Y16128D01*
X-99840D01*
X-99851Y16125D01*
X-99869D01*
X-99887Y16121D01*
X-99913D01*
X-99978Y16114D01*
X-100014Y16110D01*
X-100055Y16107D01*
X-100149Y16096D01*
X-100255Y16085D01*
X-100371Y16074D01*
X-100386D01*
X-100404Y16070D01*
X-100426Y16067D01*
X-100451Y16063D01*
X-100484Y16059D01*
X-100521Y16056D01*
X-100557Y16048D01*
X-100641Y16037D01*
X-100815Y16001D01*
X-100895Y15979D01*
X-100899D01*
X-100906Y15976D01*
X-100917Y15972D01*
X-100935Y15965D01*
X-100979Y15950D01*
X-101034Y15925D01*
X-101099Y15892D01*
X-101165Y15856D01*
X-101230Y15808D01*
X-101292Y15757D01*
X-101299Y15750D01*
X-101318Y15728D01*
X-101339Y15695D01*
X-101369Y15648D01*
X-101398Y15590D01*
X-101419Y15517D01*
X-101438Y15433D01*
X-101445Y15339D01*
Y15310D01*
D02*
G37*
%LPD*%
G36*
X-97823Y14268D02*
X-98730Y17821D01*
X-98107D01*
X-97481Y15069D01*
X-96637Y17821D01*
X-96145D01*
X-95279Y15069D01*
X-94689Y17821D01*
X-94085D01*
X-94988Y14268D01*
X-95541D01*
X-96407Y17006D01*
X-97270Y14268D01*
X-97823D01*
D02*
G37*
G36*
X-93583Y18414D02*
Y19033D01*
X-92902Y19033D01*
Y18414D01*
X-93583Y18414D01*
D02*
G37*
G36*
X-93546Y14268D02*
Y17821D01*
X-92949Y17821D01*
Y14268D01*
X-93546Y14268D01*
D02*
G37*
G36*
X-92068Y14268D02*
Y17821D01*
X-91471D01*
Y17424D01*
X-91461Y17435D01*
X-91446Y17446D01*
X-91402Y17483D01*
X-91373Y17508D01*
X-91308Y17559D01*
X-91228Y17621D01*
X-91136Y17679D01*
X-91045Y17741D01*
X-90947Y17792D01*
X-90944D01*
X-90936Y17799D01*
X-90922Y17803D01*
X-90900Y17814D01*
X-90878Y17821D01*
X-90849Y17832D01*
X-90816Y17843D01*
X-90780Y17857D01*
X-90696Y17879D01*
X-90601Y17901D01*
X-90500Y17916D01*
X-90394Y17919D01*
X-90372D01*
X-90343Y17916D01*
X-90307D01*
X-90263Y17909D01*
X-90212Y17901D01*
X-90157Y17890D01*
X-90096Y17876D01*
X-90030Y17857D01*
X-89964Y17836D01*
X-89895Y17807D01*
X-89826Y17774D01*
X-89761Y17734D01*
X-89695Y17686D01*
X-89633Y17636D01*
X-89575Y17574D01*
X-89560Y17559D01*
X-89546Y17537D01*
X-89528Y17508D01*
X-89506Y17475D01*
X-89480Y17428D01*
X-89426Y17319D01*
X-89397Y17253D01*
X-89371Y17177D01*
X-89346Y17097D01*
X-89324Y17006D01*
X-89306Y16907D01*
X-89287Y16806D01*
X-89280Y16693D01*
X-89276Y16573D01*
Y14268D01*
X-89873D01*
Y16380D01*
X-89877Y16438D01*
X-89881Y16511D01*
X-89884Y16587D01*
X-89899Y16747D01*
Y16758D01*
X-89903Y16769D01*
Y16784D01*
X-89910Y16820D01*
X-89921Y16867D01*
X-89932Y16922D01*
X-89946Y16980D01*
X-89968Y17035D01*
X-89990Y17086D01*
X-89994Y17093D01*
X-90004Y17108D01*
X-90019Y17133D01*
X-90041Y17162D01*
X-90070Y17195D01*
X-90106Y17228D01*
X-90146Y17261D01*
X-90194Y17286D01*
X-90201Y17290D01*
X-90219Y17297D01*
X-90248Y17308D01*
X-90288Y17319D01*
X-90339Y17330D01*
X-90398Y17341D01*
X-90470Y17348D01*
X-90551Y17352D01*
X-90591D01*
X-90609Y17348D01*
X-90634Y17344D01*
X-90692Y17337D01*
X-90762Y17323D01*
X-90838Y17301D01*
X-90922Y17271D01*
X-91009Y17232D01*
X-91013D01*
X-91020Y17228D01*
X-91031Y17221D01*
X-91049Y17210D01*
X-91071Y17199D01*
X-91097Y17184D01*
X-91155Y17148D01*
X-91228Y17104D01*
X-91304Y17049D01*
X-91388Y16991D01*
X-91471Y16922D01*
Y14268D01*
X-92068D01*
D02*
G37*
G36*
X-88676Y15925D02*
X-88679Y16078D01*
Y16121D01*
X-88676Y16150D01*
Y16190D01*
X-88672Y16234D01*
X-88669Y16285D01*
X-88665Y16340D01*
X-88650Y16463D01*
X-88629Y16594D01*
X-88596Y16729D01*
X-88556Y16860D01*
Y16864D01*
X-88548Y16875D01*
X-88541Y16893D01*
X-88534Y16918D01*
X-88519Y16948D01*
X-88505Y16980D01*
X-88468Y17060D01*
X-88421Y17151D01*
X-88363Y17250D01*
X-88297Y17348D01*
X-88225Y17443D01*
X-88148Y17519D01*
X-88090Y17570D01*
X-88021Y17628D01*
X-87941Y17686D01*
X-87850Y17741D01*
X-87751Y17792D01*
X-87748D01*
X-87740Y17799D01*
X-87726Y17803D01*
X-87704Y17814D01*
X-87678Y17821D01*
X-87649Y17832D01*
X-87617Y17843D01*
X-87577Y17857D01*
X-87493Y17879D01*
X-87398Y17901D01*
X-87293Y17916D01*
X-87183Y17919D01*
X-87136D01*
X-87114Y17916D01*
X-87085D01*
X-87020Y17912D01*
X-86947Y17905D01*
X-86867Y17890D01*
X-86783Y17876D01*
X-86707Y17854D01*
X-86703D01*
X-86696Y17850D01*
X-86685Y17847D01*
X-86670Y17843D01*
X-86630Y17828D01*
X-86579Y17807D01*
X-86517Y17781D01*
X-86448Y17748D01*
X-86375Y17712D01*
X-86299Y17668D01*
X-86266Y17821D01*
X-85702D01*
Y14607D01*
X-85706Y14581D01*
Y14556D01*
X-85709Y14523D01*
X-85713Y14447D01*
X-85724Y14363D01*
X-85735Y14268D01*
X-85753Y14167D01*
X-85771Y14061D01*
X-85829Y13843D01*
X-85869Y13733D01*
X-85913Y13628D01*
X-85968Y13526D01*
X-86030Y13431D01*
X-86099Y13348D01*
X-86139Y13307D01*
X-86172Y13282D01*
X-86215Y13249D01*
X-86266Y13213D01*
X-86328Y13173D01*
X-86397Y13136D01*
X-86477Y13096D01*
X-86565Y13056D01*
X-86663Y13020D01*
X-86772Y12987D01*
X-86892Y12962D01*
X-87020Y12940D01*
X-87158Y12925D01*
X-87304Y12922D01*
X-87373D01*
X-87398Y12925D01*
X-87431D01*
X-87467Y12929D01*
X-87547Y12933D01*
X-87638Y12940D01*
X-87733Y12951D01*
X-87835Y12965D01*
X-87839D01*
X-87846Y12969D01*
X-87861D01*
X-87904Y12976D01*
X-87933Y12984D01*
X-87966Y12987D01*
X-87999Y12994D01*
X-88079Y13009D01*
X-88163Y13027D01*
X-88254Y13049D01*
X-88341Y13075D01*
Y13697D01*
X-88308D01*
X-88301Y13693D01*
X-88286Y13690D01*
X-88265Y13682D01*
X-88243Y13671D01*
X-88210Y13661D01*
X-88174Y13650D01*
X-88134Y13635D01*
X-88126Y13632D01*
X-88112Y13628D01*
X-88086Y13621D01*
X-88053Y13610D01*
X-88013Y13595D01*
X-87970Y13580D01*
X-87919Y13566D01*
X-87864Y13551D01*
X-87857D01*
X-87835Y13544D01*
X-87806Y13537D01*
X-87766Y13530D01*
X-87719Y13519D01*
X-87668Y13508D01*
X-87562Y13486D01*
X-87555D01*
X-87537Y13482D01*
X-87507Y13479D01*
X-87471Y13475D01*
X-87424Y13468D01*
X-87373Y13464D01*
X-87314Y13460D01*
X-87209D01*
X-87187Y13464D01*
X-87158D01*
X-87093Y13471D01*
X-87020Y13479D01*
X-86940Y13493D01*
X-86863Y13511D01*
X-86787Y13537D01*
X-86783D01*
X-86779Y13541D01*
X-86769Y13544D01*
X-86754Y13551D01*
X-86721Y13566D01*
X-86677Y13588D01*
X-86627Y13617D01*
X-86579Y13653D01*
X-86528Y13693D01*
X-86485Y13737D01*
X-86481Y13744D01*
X-86466Y13759D01*
X-86452Y13788D01*
X-86430Y13824D01*
X-86405Y13868D01*
X-86383Y13919D01*
X-86361Y13977D01*
X-86343Y14039D01*
Y14043D01*
X-86339Y14046D01*
Y14057D01*
X-86335Y14068D01*
X-86328Y14105D01*
X-86321Y14152D01*
X-86313Y14210D01*
X-86306Y14276D01*
X-86299Y14349D01*
Y14738D01*
X-86303Y14734D01*
X-86310Y14731D01*
X-86325Y14720D01*
X-86339Y14705D01*
X-86361Y14687D01*
X-86390Y14669D01*
X-86448Y14622D01*
X-86521Y14571D01*
X-86601Y14520D01*
X-86689Y14472D01*
X-86776Y14429D01*
X-86779D01*
X-86787Y14425D01*
X-86798Y14421D01*
X-86816Y14414D01*
X-86841Y14407D01*
X-86867Y14396D01*
X-86932Y14381D01*
X-86972Y14370D01*
X-87016Y14363D01*
X-87067Y14352D01*
X-87118Y14345D01*
X-87231Y14334D01*
X-87355Y14330D01*
X-87380D01*
X-87413Y14334D01*
X-87457Y14338D01*
X-87507Y14345D01*
X-87566Y14356D01*
X-87631Y14367D01*
X-87704Y14389D01*
X-87780Y14411D01*
X-87857Y14440D01*
X-87937Y14476D01*
X-88021Y14520D01*
X-88101Y14574D01*
X-88177Y14633D01*
X-88254Y14702D01*
X-88323Y14782D01*
X-88326Y14785D01*
X-88337Y14804D01*
X-88356Y14829D01*
X-88377Y14865D01*
X-88406Y14913D01*
X-88468Y15036D01*
X-88501Y15113D01*
X-88534Y15200D01*
X-88567Y15295D01*
X-88596Y15404D01*
X-88625Y15521D01*
X-88647Y15644D01*
X-88665Y15779D01*
X-88676Y15925D01*
D02*
G37*
%LPC*%
G36*
X-88064Y16034D02*
X-88061Y15990D01*
X-88057Y15943D01*
X-88053Y15885D01*
X-88046Y15823D01*
X-88039Y15754D01*
X-88017Y15612D01*
X-87981Y15459D01*
X-87959Y15386D01*
X-87933Y15317D01*
X-87901Y15251D01*
X-87868Y15189D01*
X-87864Y15186D01*
X-87857Y15175D01*
X-87846Y15160D01*
X-87806Y15120D01*
X-87780Y15091D01*
X-87748Y15066D01*
X-87711Y15036D01*
X-87671Y15007D01*
X-87624Y14982D01*
X-87569Y14956D01*
X-87511Y14931D01*
X-87449Y14913D01*
X-87380Y14898D01*
X-87304Y14887D01*
X-87224Y14884D01*
X-87183D01*
X-87162Y14887D01*
X-87136D01*
X-87078Y14895D01*
X-87005Y14906D01*
X-86925Y14924D01*
X-86838Y14945D01*
X-86747Y14975D01*
X-86743D01*
X-86721Y14986D01*
X-86685Y15000D01*
X-86659Y15011D01*
X-86598Y15040D01*
X-86528Y15077D01*
X-86452Y15124D01*
X-86375Y15175D01*
X-86299Y15233D01*
Y17180D01*
X-86303D01*
X-86310Y17184D01*
X-86321Y17191D01*
X-86335Y17199D01*
X-86357Y17206D01*
X-86379Y17217D01*
X-86434Y17239D01*
X-86499Y17264D01*
X-86568Y17290D01*
X-86714Y17333D01*
X-86718D01*
X-86721Y17337D01*
X-86732D01*
X-86747Y17341D01*
X-86783Y17348D01*
X-86830Y17359D01*
X-86889Y17366D01*
X-86950Y17373D01*
X-87089Y17381D01*
X-87107D01*
X-87133Y17377D01*
X-87165D01*
X-87202Y17370D01*
X-87245Y17363D01*
X-87347Y17341D01*
X-87406Y17323D01*
X-87464Y17301D01*
X-87522Y17271D01*
X-87584Y17239D01*
X-87642Y17202D01*
X-87700Y17155D01*
X-87755Y17104D01*
X-87806Y17046D01*
X-87810Y17042D01*
X-87831Y17009D01*
X-87846Y16984D01*
X-87864Y16948D01*
X-87886Y16907D01*
X-87911Y16857D01*
X-87933Y16802D01*
X-87959Y16736D01*
X-87984Y16664D01*
X-88006Y16587D01*
X-88024Y16500D01*
X-88039Y16409D01*
X-88053Y16307D01*
X-88061Y16201D01*
X-88064Y16089D01*
Y16034D01*
D02*
G37*
%LPD*%
D11*
X218504Y39339D02*
X216504Y43339D01*
X220504D01*
X218504Y39339D01*
X255906D02*
X253906Y43339D01*
X257906D01*
X255906Y39339D01*
X15748Y210598D02*
X16748Y211598D01*
X17748D01*
X16748Y212598D01*
X17748Y213598D01*
X16748D01*
X15748Y214598D01*
X14748Y213598D01*
X13748D01*
X14748Y212598D01*
X13748Y211598D01*
X14748D01*
X15748Y210598D01*
X89551Y197819D02*
Y196819D01*
X91551D01*
Y197819D01*
X92551D01*
Y199819D01*
X91551D01*
Y200819D01*
X89551D01*
Y199819D01*
X88551D01*
Y197819D01*
X89551D01*
X69866D02*
Y196819D01*
X71866D01*
Y197819D01*
X72866D01*
Y199819D01*
X71866D01*
Y200819D01*
X69866D01*
Y199819D01*
X68866D01*
Y197819D01*
X69866D01*
X49024Y313591D02*
Y317590D01*
X53024D01*
Y313591D01*
X49024D01*
X59024Y273590D02*
Y277590D01*
X63024D01*
Y273590D01*
X59024D01*
X69024Y313591D02*
Y317590D01*
X73024D01*
Y313591D01*
X69024D01*
X79024Y273590D02*
Y277590D01*
X83024D01*
Y273590D01*
X79024D01*
X83433Y112744D02*
X84433Y114744D01*
X83433Y116744D01*
X85433Y115744D01*
X87433Y116744D01*
X86433Y114744D01*
X87433Y112744D01*
X85433Y113744D01*
X83433Y112744D01*
Y127154D02*
X84433Y129154D01*
X83433Y131154D01*
X85433Y130154D01*
X87433Y131154D01*
X86433Y129154D01*
X87433Y127154D01*
X85433Y128154D01*
X83433Y127154D01*
Y159161D02*
X84433Y161161D01*
X83433Y163161D01*
X85433Y162161D01*
X87433Y163161D01*
X86433Y161161D01*
X87433Y159161D01*
X85433Y160161D01*
X83433Y159161D01*
Y144752D02*
X84433Y146752D01*
X83433Y148752D01*
X85433Y147752D01*
X87433Y148752D01*
X86433Y146752D01*
X87433Y144752D01*
X85433Y145752D01*
X83433Y144752D01*
X258842Y234236D02*
Y233236D01*
X260842D01*
Y234236D01*
X261842D01*
Y236236D01*
X260842D01*
Y237236D01*
X258842D01*
Y236236D01*
X257842D01*
Y234236D01*
X258842D01*
X278528D02*
Y233236D01*
X280528D01*
Y234236D01*
X281528D01*
Y236236D01*
X280528D01*
Y237236D01*
X278528D01*
Y236236D01*
X277528D01*
Y234236D01*
X278528D01*
X302150Y197819D02*
Y196819D01*
X304150D01*
Y197819D01*
X305150D01*
Y199819D01*
X304150D01*
Y200819D01*
X302150D01*
Y199819D01*
X301150D01*
Y197819D01*
X302150D01*
X282465D02*
Y196819D01*
X284465D01*
Y197819D01*
X285465D01*
Y199819D01*
X284465D01*
Y200819D01*
X282465D01*
Y199819D01*
X281465D01*
Y197819D01*
X282465D01*
X188961Y235221D02*
Y234221D01*
X190961D01*
Y235221D01*
X191961D01*
Y237221D01*
X190961D01*
Y238221D01*
X188961D01*
Y237221D01*
X187961D01*
Y235221D01*
X188961D01*
X208646D02*
Y234221D01*
X210646D01*
Y235221D01*
X211646D01*
Y237221D01*
X210646D01*
Y238221D01*
X208646D01*
Y237221D01*
X207646D01*
Y235221D01*
X208646D01*
X231283Y197819D02*
Y196819D01*
X233283D01*
Y197819D01*
X234283D01*
Y199819D01*
X233283D01*
Y200819D01*
X231283D01*
Y199819D01*
X230283D01*
Y197819D01*
X231283D01*
X211598D02*
Y196819D01*
X213598D01*
Y197819D01*
X214598D01*
Y199819D01*
X213598D01*
Y200819D01*
X211598D01*
Y199819D01*
X210598D01*
Y197819D01*
X211598D01*
X118095Y234236D02*
Y233236D01*
X120095D01*
Y234236D01*
X121095D01*
Y236236D01*
X120095D01*
Y237236D01*
X118095D01*
Y236236D01*
X117095D01*
Y234236D01*
X118095D01*
X137779D02*
Y233236D01*
X139779D01*
Y234236D01*
X140779D01*
Y236236D01*
X139779D01*
Y237236D01*
X137779D01*
Y236236D01*
X136779D01*
Y234236D01*
X137779D01*
X160417Y197819D02*
Y196819D01*
X162417D01*
Y197819D01*
X163417D01*
Y199819D01*
X162417D01*
Y200819D01*
X160417D01*
Y199819D01*
X159417D01*
Y197819D01*
X160417D01*
X140732D02*
Y196819D01*
X142732D01*
Y197819D01*
X143732D01*
Y199819D01*
X142732D01*
Y200819D01*
X140732D01*
Y199819D01*
X139732D01*
Y197819D01*
X140732D01*
X47228Y235221D02*
Y234221D01*
X49228D01*
Y235221D01*
X50228D01*
Y237221D01*
X49228D01*
Y238221D01*
X47228D01*
Y237221D01*
X46228D01*
Y235221D01*
X47228D01*
X66913D02*
Y234221D01*
X68913D01*
Y235221D01*
X69913D01*
Y237221D01*
X68913D01*
Y238221D01*
X66913D01*
Y237221D01*
X65913D01*
Y235221D01*
X66913D01*
X260598Y112744D02*
X261598Y114744D01*
X260598Y116744D01*
X262598Y115744D01*
X264598Y116744D01*
X263598Y114744D01*
X264598Y112744D01*
X262598Y113744D01*
X260598Y112744D01*
Y159161D02*
X261598Y161161D01*
X260598Y163161D01*
X262598Y162161D01*
X264598Y163161D01*
X263598Y161161D01*
X264598Y159161D01*
X262598Y160161D01*
X260598Y159161D01*
Y127154D02*
X261598Y129154D01*
X260598Y131154D01*
X262598Y130154D01*
X264598Y131154D01*
X263598Y129154D01*
X264598Y127154D01*
X262598Y128154D01*
X260598Y127154D01*
Y144752D02*
X261598Y146752D01*
X260598Y148752D01*
X262598Y147752D01*
X264598Y148752D01*
X263598Y146752D01*
X264598Y144752D01*
X262598Y145752D01*
X260598Y144752D01*
X296031Y112744D02*
X297031Y114744D01*
X296031Y116744D01*
X298031Y115744D01*
X300031Y116744D01*
X299031Y114744D01*
X300031Y112744D01*
X298031Y113744D01*
X296031Y112744D01*
Y159161D02*
X297031Y161161D01*
X296031Y163161D01*
X298031Y162161D01*
X300031Y163161D01*
X299031Y161161D01*
X300031Y159161D01*
X298031Y160161D01*
X296031Y159161D01*
Y127154D02*
X297031Y129154D01*
X296031Y131154D01*
X298031Y130154D01*
X300031Y131154D01*
X299031Y129154D01*
X300031Y127154D01*
X298031Y128154D01*
X296031Y127154D01*
Y144752D02*
X297031Y146752D01*
X296031Y148752D01*
X298031Y147752D01*
X300031Y148752D01*
X299031Y146752D01*
X300031Y144752D01*
X298031Y145752D01*
X296031Y144752D01*
X189732Y112744D02*
X190732Y114744D01*
X189732Y116744D01*
X191732Y115744D01*
X193732Y116744D01*
X192732Y114744D01*
X193732Y112744D01*
X191732Y113744D01*
X189732Y112744D01*
Y159161D02*
X190732Y161161D01*
X189732Y163161D01*
X191732Y162161D01*
X193732Y163161D01*
X192732Y161161D01*
X193732Y159161D01*
X191732Y160161D01*
X189732Y159161D01*
Y127154D02*
X190732Y129154D01*
X189732Y131154D01*
X191732Y130154D01*
X193732Y131154D01*
X192732Y129154D01*
X193732Y127154D01*
X191732Y128154D01*
X189732Y127154D01*
Y144752D02*
X190732Y146752D01*
X189732Y148752D01*
X191732Y147752D01*
X193732Y148752D01*
X192732Y146752D01*
X193732Y144752D01*
X191732Y145752D01*
X189732Y144752D01*
X225165Y112744D02*
X226165Y114744D01*
X225165Y116744D01*
X227165Y115744D01*
X229165Y116744D01*
X228165Y114744D01*
X229165Y112744D01*
X227165Y113744D01*
X225165Y112744D01*
Y127154D02*
X226165Y129154D01*
X225165Y131154D01*
X227165Y130154D01*
X229165Y131154D01*
X228165Y129154D01*
X229165Y127154D01*
X227165Y128154D01*
X225165Y127154D01*
Y159161D02*
X226165Y161161D01*
X225165Y163161D01*
X227165Y162161D01*
X229165Y163161D01*
X228165Y161161D01*
X229165Y159161D01*
X227165Y160161D01*
X225165Y159161D01*
Y144752D02*
X226165Y146752D01*
X225165Y148752D01*
X227165Y147752D01*
X229165Y148752D01*
X228165Y146752D01*
X229165Y144752D01*
X227165Y145752D01*
X225165Y144752D01*
X118866Y112744D02*
X119866Y114744D01*
X118866Y116744D01*
X120866Y115744D01*
X122866Y116744D01*
X121866Y114744D01*
X122866Y112744D01*
X120866Y113744D01*
X118866Y112744D01*
Y159161D02*
X119866Y161161D01*
X118866Y163161D01*
X120866Y162161D01*
X122866Y163161D01*
X121866Y161161D01*
X122866Y159161D01*
X120866Y160161D01*
X118866Y159161D01*
Y127154D02*
X119866Y129154D01*
X118866Y131154D01*
X120866Y130154D01*
X122866Y131154D01*
X121866Y129154D01*
X122866Y127154D01*
X120866Y128154D01*
X118866Y127154D01*
Y144752D02*
X119866Y146752D01*
X118866Y148752D01*
X120866Y147752D01*
X122866Y148752D01*
X121866Y146752D01*
X122866Y144752D01*
X120866Y145752D01*
X118866Y144752D01*
X154299Y112744D02*
X155299Y114744D01*
X154299Y116744D01*
X156299Y115744D01*
X158299Y116744D01*
X157299Y114744D01*
X158299Y112744D01*
X156299Y113744D01*
X154299Y112744D01*
Y159161D02*
X155299Y161161D01*
X154299Y163161D01*
X156299Y162161D01*
X158299Y163161D01*
X157299Y161161D01*
X158299Y159161D01*
X156299Y160161D01*
X154299Y159161D01*
Y127154D02*
X155299Y129154D01*
X154299Y131154D01*
X156299Y130154D01*
X158299Y131154D01*
X157299Y129154D01*
X158299Y127154D01*
X156299Y128154D01*
X154299Y127154D01*
Y144752D02*
X155299Y146752D01*
X154299Y148752D01*
X156299Y147752D01*
X158299Y148752D01*
X157299Y146752D01*
X158299Y144752D01*
X156299Y145752D01*
X154299Y144752D01*
X48000Y112744D02*
X49000Y114744D01*
X48000Y116744D01*
X50000Y115744D01*
X52000Y116744D01*
X51000Y114744D01*
X52000Y112744D01*
X50000Y113744D01*
X48000Y112744D01*
Y159161D02*
X49000Y161161D01*
X48000Y163161D01*
X50000Y162161D01*
X52000Y163161D01*
X51000Y161161D01*
X52000Y159161D01*
X50000Y160161D01*
X48000Y159161D01*
Y127154D02*
X49000Y129154D01*
X48000Y131154D01*
X50000Y130154D01*
X52000Y131154D01*
X51000Y129154D01*
X52000Y127154D01*
X50000Y128154D01*
X48000Y127154D01*
Y144752D02*
X49000Y146752D01*
X48000Y148752D01*
X50000Y147752D01*
X52000Y148752D01*
X51000Y146752D01*
X52000Y144752D01*
X50000Y145752D01*
X48000Y144752D01*
X78740Y39339D02*
X76740Y43339D01*
X80740D01*
X78740Y39339D01*
X116142D02*
X114142Y43339D01*
X118142D01*
X116142Y39339D01*
X261622Y313591D02*
Y317590D01*
X265622D01*
Y313591D01*
X261622D01*
X271622Y273590D02*
Y277590D01*
X275622D01*
Y273590D01*
X271622D01*
X291622D02*
Y277590D01*
X295622D01*
Y273590D01*
X291622D01*
X281622Y313591D02*
Y317590D01*
X285622D01*
Y313591D01*
X281622D01*
X190756D02*
Y317590D01*
X194756D01*
Y313591D01*
X190756D01*
X200756Y273590D02*
Y277590D01*
X204756D01*
Y273590D01*
X200756D01*
X210756Y313591D02*
Y317590D01*
X214756D01*
Y313591D01*
X210756D01*
X220756Y273590D02*
Y277590D01*
X224756D01*
Y273590D01*
X220756D01*
X119890Y313591D02*
Y317590D01*
X123890D01*
Y313591D01*
X119890D01*
X129890Y273590D02*
Y277590D01*
X133890D01*
Y273590D01*
X129890D01*
X149890D02*
Y277590D01*
X153890D01*
Y273590D01*
X149890D01*
X139890Y313591D02*
Y317590D01*
X143890D01*
Y313591D01*
X139890D01*
X15748Y13748D02*
X16748Y14748D01*
X17748D01*
X16748Y15748D01*
X17748Y16748D01*
X16748D01*
X15748Y17748D01*
X14748Y16748D01*
X13748D01*
X14748Y15748D01*
X13748Y14748D01*
X14748D01*
X15748Y13748D01*
X318898D02*
X319898Y14748D01*
X320898D01*
X319898Y15748D01*
X320898Y16748D01*
X319898D01*
X318898Y17748D01*
X317898Y16748D01*
X316898D01*
X317898Y15748D01*
X316898Y14748D01*
X317898D01*
X318898Y13748D01*
Y230283D02*
X319898Y231283D01*
X320898D01*
X319898Y232283D01*
X320898Y233283D01*
X319898D01*
X318898Y234283D01*
X317898Y233283D01*
X316898D01*
X317898Y232283D01*
X316898Y231283D01*
X317898D01*
X318898Y230283D01*
D40*
X181134Y57087D02*
G03*
X181134Y57087I-2000J0D01*
G01*
M02*
