G04*
G04 #@! TF.GenerationSoftware,Altium Limited,Altium Designer,26.9.1 (10)*
G04*
G04 Layer_Color=32768*
G04 Board_Origin=74640005|44270005*
%FSLAX25Y25*%
%MOIN*%
G70*
G04*
G04 #@! TF.SameCoordinates,585EC1B0-1F81-44B1-8C19-25A49A0C304D*
G04*
G04*
G04 #@! TF.FilePolarity,Positive*
G04*
G01*
G75*
%ADD36C,0.00394*%
D36*
X69182Y311117D02*
X67495D01*
X66933Y310930D01*
X66745Y310742D01*
X66558Y310368D01*
Y309805D01*
X66745Y309430D01*
X66933Y309243D01*
X67495Y309055D01*
X69182D01*
Y312992D01*
X63802Y309055D02*
X65677Y311680D01*
X62865D01*
X63802Y309055D02*
Y312992D01*
X280843Y311117D02*
X279156D01*
X278594Y310930D01*
X278407Y310742D01*
X278219Y310368D01*
Y309805D01*
X278407Y309430D01*
X278594Y309243D01*
X279156Y309055D01*
X280843D01*
Y312992D01*
X277338Y309805D02*
X276963Y309618D01*
X276401Y309055D01*
Y312992D01*
X210821Y311117D02*
X209134D01*
X208571Y310930D01*
X208384Y310742D01*
X208196Y310368D01*
Y309805D01*
X208384Y309430D01*
X208571Y309243D01*
X209134Y309055D01*
X210821D01*
Y312992D01*
X207128Y309993D02*
Y309805D01*
X206941Y309430D01*
X206753Y309243D01*
X206378Y309055D01*
X205628D01*
X205254Y309243D01*
X205066Y309430D01*
X204879Y309805D01*
Y310180D01*
X205066Y310555D01*
X205441Y311117D01*
X207315Y312992D01*
X204691D01*
X139954Y311117D02*
X138267D01*
X137705Y310930D01*
X137518Y310742D01*
X137330Y310368D01*
Y309805D01*
X137518Y309430D01*
X137705Y309243D01*
X138267Y309055D01*
X139954D01*
Y312992D01*
X136074Y309055D02*
X134013D01*
X135137Y310555D01*
X134575D01*
X134200Y310742D01*
X134013Y310930D01*
X133825Y311492D01*
Y311867D01*
X134013Y312429D01*
X134388Y312804D01*
X134950Y312992D01*
X135512D01*
X136074Y312804D01*
X136262Y312617D01*
X136449Y312242D01*
M02*
