G04*
G04 #@! TF.GenerationSoftware,Altium Limited,Altium Designer,26.9.1 (10)*
G04*
G04 Layer_Color=32896*
G04 Board_Origin=74640005|44270005*
%FSLAX25Y25*%
%MOIN*%
G70*
G04*
G04 #@! TF.SameCoordinates,585EC1B0-1F81-44B1-8C19-25A49A0C304D*
G04*
G04*
G04 #@! TF.FilePolarity,Positive*
G04*
G01*
G75*
%ADD36C,0.00394*%
D36*
X40630Y267717D02*
X94961D01*
X37087Y354331D02*
X84961D01*
X94961Y267717D02*
Y314961D01*
X84961D02*
Y354331D01*
Y314961D02*
X94961D01*
X37087Y307087D02*
Y354331D01*
X40630Y267717D02*
Y307087D01*
X37087D02*
X40630D01*
X253228Y267717D02*
X307559D01*
X249685Y354331D02*
X297559D01*
X307559Y267717D02*
Y314961D01*
X297559D02*
Y354331D01*
Y314961D02*
X307559D01*
X249685Y307087D02*
Y354331D01*
X253228Y267717D02*
Y307087D01*
X249685D02*
X253228D01*
X182362Y267717D02*
X236693D01*
X178819Y354331D02*
X226693D01*
X236693Y267717D02*
Y314961D01*
X226693D02*
Y354331D01*
Y314961D02*
X236693D01*
X178819Y307087D02*
Y354331D01*
X182362Y267717D02*
Y307087D01*
X178819D02*
X182362D01*
X111496Y267717D02*
X165827D01*
X107953Y354331D02*
X155827D01*
X165827Y267717D02*
Y314961D01*
X155827D02*
Y354331D01*
Y314961D02*
X165827D01*
X107953Y307087D02*
Y354331D01*
X111496Y267717D02*
Y307087D01*
X107953D02*
X111496D01*
M02*
