G04*
G04 #@! TF.GenerationSoftware,Altium Limited,Altium Designer,26.9.1 (10)*
G04*
G04 Layer_Color=128*
G04 Board_Origin=74640005|44270005*
%FSLAX25Y25*%
%MOIN*%
G70*
G04*
G04 #@! TF.SameCoordinates,3E8CC08A-A5ED-43A6-9E81-9DF4D0A12131*
G04*
G04*
G04 #@! TF.FilePolarity,Positive*
G04*
G01*
G75*
G36*
X-74545Y14268D02*
Y19004D01*
X-73118D01*
X-73063Y19001D01*
X-73005D01*
X-72885Y18997D01*
X-72758Y18990D01*
X-72699Y18986D01*
X-72641Y18979D01*
X-72587Y18975D01*
X-72536Y18968D01*
X-72525D01*
X-72510Y18964D01*
X-72492Y18960D01*
X-72470Y18957D01*
X-72441Y18949D01*
X-72379Y18935D01*
X-72303Y18917D01*
X-72223Y18888D01*
X-72135Y18855D01*
X-72048Y18811D01*
X-72044D01*
X-72037Y18804D01*
X-72022Y18797D01*
X-72008Y18786D01*
X-71986Y18771D01*
X-71961Y18757D01*
X-71906Y18713D01*
X-71844Y18662D01*
X-71782Y18600D01*
X-71728Y18531D01*
X-71677Y18451D01*
Y18447D01*
X-71673Y18440D01*
X-71666Y18429D01*
X-71658Y18411D01*
X-71647Y18393D01*
X-71640Y18367D01*
X-71629Y18338D01*
X-71615Y18305D01*
X-71593Y18229D01*
X-71575Y18141D01*
X-71560Y18043D01*
X-71556Y17934D01*
Y17901D01*
X-71560Y17879D01*
Y17847D01*
X-71567Y17814D01*
X-71571Y17774D01*
X-71578Y17734D01*
X-71600Y17639D01*
X-71651Y17486D01*
X-71702Y17384D01*
X-71735Y17333D01*
X-71738Y17330D01*
X-71742Y17322D01*
X-71753Y17308D01*
X-71768Y17290D01*
X-71786Y17268D01*
X-71808Y17242D01*
X-71833Y17213D01*
X-71895Y17151D01*
X-71931Y17119D01*
X-72015Y17049D01*
X-72113Y16984D01*
X-72223Y16922D01*
Y16897D01*
X-72219D01*
X-72204Y16889D01*
X-72183Y16886D01*
X-72153Y16875D01*
X-72117Y16860D01*
X-72077Y16846D01*
X-71982Y16802D01*
X-71931Y16773D01*
X-71877Y16744D01*
X-71768Y16671D01*
X-71713Y16627D01*
X-71662Y16583D01*
X-71615Y16533D01*
X-71567Y16478D01*
X-71564Y16474D01*
X-71556Y16463D01*
X-71545Y16449D01*
X-71531Y16423D01*
X-71513Y16394D01*
X-71495Y16358D01*
X-71473Y16318D01*
X-71451Y16271D01*
X-71429Y16219D01*
X-71407Y16161D01*
X-71389Y16099D01*
X-71371Y16030D01*
X-71356Y15961D01*
X-71345Y15885D01*
X-71338Y15805D01*
X-71334Y15721D01*
Y15688D01*
X-71338Y15663D01*
Y15630D01*
X-71342Y15593D01*
X-71345Y15553D01*
X-71353Y15510D01*
X-71367Y15411D01*
X-71393Y15310D01*
X-71425Y15200D01*
X-71469Y15095D01*
Y15091D01*
X-71476Y15084D01*
X-71484Y15069D01*
X-71495Y15051D01*
X-71505Y15026D01*
X-71524Y15000D01*
X-71564Y14938D01*
X-71615Y14869D01*
X-71677Y14793D01*
X-71749Y14720D01*
X-71829Y14651D01*
X-71833Y14647D01*
X-71840Y14643D01*
X-71855Y14633D01*
X-71877Y14618D01*
X-71899Y14600D01*
X-71928Y14581D01*
X-72000Y14538D01*
X-72084Y14487D01*
X-72183Y14440D01*
X-72288Y14392D01*
X-72401Y14356D01*
X-72405D01*
X-72416Y14352D01*
X-72434Y14349D01*
X-72456Y14341D01*
X-72488Y14334D01*
X-72525Y14327D01*
X-72565Y14319D01*
X-72667Y14305D01*
X-72729Y14298D01*
X-72794Y14290D01*
X-72863Y14283D01*
X-72940Y14276D01*
X-73016Y14272D01*
X-73103Y14268D01*
X-74545D01*
D02*
G37*
%LPC*%
G36*
X-73915Y14807D02*
X-73304D01*
X-73260Y14811D01*
X-73169D01*
X-73063Y14815D01*
X-72954Y14822D01*
X-72849Y14833D01*
X-72801Y14836D01*
X-72754Y14844D01*
X-72750D01*
X-72743Y14847D01*
X-72732D01*
X-72714Y14851D01*
X-72692Y14854D01*
X-72670Y14862D01*
X-72612Y14876D01*
X-72546Y14898D01*
X-72477Y14927D01*
X-72405Y14960D01*
X-72335Y15004D01*
X-72332D01*
X-72328Y15011D01*
X-72306Y15026D01*
X-72273Y15051D01*
X-72237Y15088D01*
X-72193Y15127D01*
X-72150Y15179D01*
X-72110Y15229D01*
X-72073Y15288D01*
Y15291D01*
X-72070Y15295D01*
X-72059Y15317D01*
X-72048Y15350D01*
X-72030Y15397D01*
X-72015Y15455D01*
X-72004Y15524D01*
X-71993Y15604D01*
X-71990Y15695D01*
Y15739D01*
X-71993Y15761D01*
Y15790D01*
X-72000Y15848D01*
X-72008Y15917D01*
X-72022Y15990D01*
X-72041Y16063D01*
X-72066Y16132D01*
Y16136D01*
X-72070Y16139D01*
X-72081Y16161D01*
X-72102Y16194D01*
X-72132Y16234D01*
X-72175Y16281D01*
X-72230Y16329D01*
X-72295Y16380D01*
X-72332Y16405D01*
X-72383Y16431D01*
X-72401Y16442D01*
X-72434Y16453D01*
X-72474Y16471D01*
X-72521Y16489D01*
X-72576Y16503D01*
X-72637Y16518D01*
X-72703Y16529D01*
X-72710D01*
X-72721Y16533D01*
X-72736D01*
X-72754Y16536D01*
X-72776D01*
X-72801Y16540D01*
X-72830Y16544D01*
X-72863D01*
X-72903Y16547D01*
X-72943D01*
X-72987Y16551D01*
X-73034D01*
X-73089Y16554D01*
X-73915D01*
Y14807D01*
D02*
G37*
G36*
Y17079D02*
X-73100D01*
X-73038Y17082D01*
X-72965Y17086D01*
X-72896Y17089D01*
X-72827Y17097D01*
X-72798Y17104D01*
X-72769Y17108D01*
X-72761D01*
X-72743Y17115D01*
X-72714Y17122D01*
X-72678Y17133D01*
X-72634Y17151D01*
X-72587Y17173D01*
X-72532Y17199D01*
X-72477Y17231D01*
X-72470Y17235D01*
X-72456Y17250D01*
X-72430Y17268D01*
X-72397Y17297D01*
X-72364Y17333D01*
X-72332Y17373D01*
X-72299Y17421D01*
X-72273Y17475D01*
X-72270Y17483D01*
X-72263Y17501D01*
X-72255Y17534D01*
X-72241Y17577D01*
X-72230Y17632D01*
X-72223Y17694D01*
X-72215Y17763D01*
X-72212Y17843D01*
Y17872D01*
X-72215Y17905D01*
X-72219Y17945D01*
X-72226Y17989D01*
X-72237Y18040D01*
X-72252Y18090D01*
X-72270Y18138D01*
X-72281Y18160D01*
X-72295Y18181D01*
X-72314Y18211D01*
X-72339Y18243D01*
X-72372Y18276D01*
X-72412Y18309D01*
X-72456Y18338D01*
X-72463Y18342D01*
X-72481Y18353D01*
X-72514Y18367D01*
X-72554Y18385D01*
X-72605Y18404D01*
X-72663Y18418D01*
X-72729Y18433D01*
X-72798Y18444D01*
X-72805D01*
X-72816Y18447D01*
X-72852D01*
X-72874Y18451D01*
X-72900D01*
X-72965Y18458D01*
X-73005D01*
X-73049Y18462D01*
X-73144D01*
X-73198Y18465D01*
X-73915D01*
Y17079D01*
D02*
G37*
%LPD*%
G36*
X-71003Y15885D02*
X-71007Y16041D01*
Y16103D01*
X-71003Y16128D01*
Y16154D01*
X-70999Y16187D01*
X-70992Y16263D01*
X-70985Y16351D01*
X-70970Y16445D01*
X-70952Y16547D01*
X-70930Y16656D01*
X-70901Y16769D01*
X-70865Y16886D01*
X-70821Y17002D01*
X-70774Y17115D01*
X-70716Y17224D01*
X-70646Y17330D01*
X-70570Y17424D01*
X-70566Y17432D01*
X-70548Y17446D01*
X-70526Y17472D01*
X-70490Y17501D01*
X-70446Y17541D01*
X-70395Y17581D01*
X-70333Y17625D01*
X-70261Y17672D01*
X-70184Y17719D01*
X-70097Y17763D01*
X-70002Y17803D01*
X-69900Y17843D01*
X-69791Y17872D01*
X-69675Y17898D01*
X-69551Y17916D01*
X-69420Y17919D01*
X-69387D01*
X-69351Y17916D01*
X-69300Y17912D01*
X-69241Y17905D01*
X-69169Y17894D01*
X-69092Y17879D01*
X-69008Y17857D01*
X-68917Y17832D01*
X-68823Y17799D01*
X-68728Y17759D01*
X-68634Y17712D01*
X-68535Y17657D01*
X-68444Y17592D01*
X-68353Y17515D01*
X-68269Y17428D01*
X-68266Y17421D01*
X-68251Y17406D01*
X-68230Y17377D01*
X-68200Y17337D01*
X-68168Y17286D01*
X-68131Y17224D01*
X-68095Y17155D01*
X-68051Y17071D01*
X-68011Y16977D01*
X-67975Y16875D01*
X-67938Y16758D01*
X-67905Y16635D01*
X-67876Y16503D01*
X-67855Y16358D01*
X-67840Y16205D01*
X-67836Y16041D01*
Y15979D01*
X-67840Y15954D01*
Y15925D01*
X-67844Y15896D01*
X-67851Y15819D01*
X-67858Y15732D01*
X-67873Y15637D01*
X-67891Y15532D01*
X-67913Y15422D01*
X-67942Y15310D01*
X-67978Y15197D01*
X-68018Y15080D01*
X-68069Y14967D01*
X-68128Y14858D01*
X-68193Y14753D01*
X-68269Y14658D01*
X-68273Y14654D01*
X-68288Y14636D01*
X-68313Y14614D01*
X-68350Y14581D01*
X-68393Y14545D01*
X-68444Y14505D01*
X-68506Y14461D01*
X-68575Y14414D01*
X-68655Y14370D01*
X-68739Y14323D01*
X-68834Y14283D01*
X-68936Y14247D01*
X-69049Y14214D01*
X-69165Y14192D01*
X-69289Y14177D01*
X-69420Y14170D01*
X-69453D01*
X-69489Y14174D01*
X-69543Y14177D01*
X-69605Y14185D01*
X-69675Y14196D01*
X-69755Y14214D01*
X-69842Y14232D01*
X-69933Y14261D01*
X-70028Y14294D01*
X-70126Y14334D01*
X-70224Y14381D01*
X-70319Y14440D01*
X-70414Y14505D01*
X-70501Y14585D01*
X-70585Y14672D01*
X-70588Y14680D01*
X-70603Y14694D01*
X-70625Y14724D01*
X-70650Y14763D01*
X-70683Y14815D01*
X-70719Y14876D01*
X-70756Y14949D01*
X-70796Y15033D01*
X-70836Y15124D01*
X-70872Y15226D01*
X-70908Y15339D01*
X-70941Y15462D01*
X-70967Y15593D01*
X-70989Y15735D01*
X-71003Y15885D01*
D02*
G37*
%LPC*%
G36*
X-70392Y15979D02*
X-70388Y15932D01*
X-70384Y15877D01*
X-70377Y15812D01*
X-70370Y15743D01*
X-70359Y15666D01*
X-70348Y15586D01*
X-70312Y15419D01*
X-70286Y15335D01*
X-70257Y15251D01*
X-70224Y15171D01*
X-70184Y15098D01*
X-70140Y15029D01*
X-70137Y15026D01*
X-70130Y15015D01*
X-70115Y14997D01*
X-70068Y14949D01*
X-70035Y14920D01*
X-69999Y14891D01*
X-69955Y14858D01*
X-69907Y14825D01*
X-69853Y14796D01*
X-69795Y14767D01*
X-69729Y14742D01*
X-69660Y14720D01*
X-69587Y14702D01*
X-69503Y14691D01*
X-69420Y14687D01*
X-69398D01*
X-69376Y14691D01*
X-69343D01*
X-69303Y14698D01*
X-69260Y14705D01*
X-69212Y14716D01*
X-69158Y14731D01*
X-69099Y14745D01*
X-69041Y14767D01*
X-68983Y14796D01*
X-68925Y14829D01*
X-68866Y14865D01*
X-68808Y14913D01*
X-68757Y14964D01*
X-68706Y15022D01*
X-68703Y15026D01*
X-68695Y15036D01*
X-68685Y15058D01*
X-68666Y15084D01*
X-68626Y15164D01*
X-68601Y15218D01*
X-68579Y15277D01*
X-68553Y15342D01*
X-68532Y15419D01*
X-68510Y15502D01*
X-68492Y15593D01*
X-68473Y15695D01*
X-68462Y15801D01*
X-68455Y15917D01*
X-68451Y16041D01*
Y16107D01*
X-68455Y16154D01*
X-68459Y16212D01*
X-68466Y16278D01*
X-68473Y16351D01*
X-68484Y16427D01*
X-68495Y16511D01*
X-68513Y16594D01*
X-68557Y16762D01*
X-68590Y16846D01*
X-68623Y16926D01*
X-68663Y16998D01*
X-68706Y17064D01*
X-68710Y17068D01*
X-68717Y17079D01*
X-68732Y17097D01*
X-68779Y17144D01*
X-68808Y17170D01*
X-68888Y17235D01*
X-68939Y17264D01*
X-68990Y17297D01*
X-69049Y17322D01*
X-69114Y17352D01*
X-69183Y17370D01*
X-69256Y17388D01*
X-69336Y17399D01*
X-69420Y17402D01*
X-69442D01*
X-69463Y17399D01*
X-69496D01*
X-69536Y17392D01*
X-69580Y17384D01*
X-69631Y17373D01*
X-69686Y17359D01*
X-69744Y17341D01*
X-69802Y17319D01*
X-69860Y17293D01*
X-69922Y17261D01*
X-69980Y17221D01*
X-70039Y17177D01*
X-70090Y17122D01*
X-70140Y17064D01*
X-70144Y17060D01*
X-70151Y17049D01*
X-70162Y17028D01*
X-70180Y17002D01*
X-70221Y16922D01*
X-70242Y16871D01*
X-70264Y16809D01*
X-70290Y16744D01*
X-70312Y16667D01*
X-70333Y16583D01*
X-70352Y16492D01*
X-70370Y16391D01*
X-70381Y16281D01*
X-70388Y16165D01*
X-70392Y16041D01*
Y15979D01*
D02*
G37*
%LPD*%
G36*
X-67589Y17326D02*
Y17821D01*
X-67185D01*
Y18840D01*
X-66588D01*
Y17821D01*
X-65489D01*
Y17326D01*
X-66588D01*
Y15481D01*
X-66584Y15411D01*
Y15273D01*
X-66581Y15215D01*
Y15208D01*
X-66577Y15189D01*
X-66573Y15164D01*
X-66566Y15127D01*
X-66559Y15084D01*
X-66544Y15040D01*
X-66530Y14989D01*
X-66508Y14942D01*
X-66504Y14938D01*
X-66497Y14924D01*
X-66482Y14902D01*
X-66464Y14880D01*
X-66442Y14851D01*
X-66409Y14825D01*
X-66377Y14796D01*
X-66326Y14771D01*
X-66311Y14767D01*
X-66286Y14756D01*
X-66246Y14749D01*
X-66198Y14738D01*
X-66144Y14727D01*
X-66078Y14724D01*
X-66005Y14720D01*
X-65980D01*
X-65951Y14724D01*
X-65914D01*
X-65874Y14731D01*
X-65827Y14738D01*
X-65776Y14745D01*
X-65725Y14760D01*
X-65718Y14763D01*
X-65703Y14767D01*
X-65678Y14774D01*
X-65649Y14785D01*
X-65583Y14811D01*
X-65550Y14822D01*
X-65525Y14833D01*
X-65489D01*
Y14298D01*
X-65496D01*
X-65518Y14290D01*
X-65550Y14283D01*
X-65594Y14272D01*
X-65649Y14261D01*
X-65707Y14250D01*
X-65769Y14239D01*
X-65834Y14228D01*
X-65842D01*
X-65864Y14225D01*
X-65896Y14221D01*
X-65936Y14214D01*
X-65987Y14210D01*
X-66038Y14203D01*
X-66151Y14199D01*
X-66173D01*
X-66198Y14203D01*
X-66231D01*
X-66271Y14207D01*
X-66319Y14214D01*
X-66373Y14221D01*
X-66428Y14236D01*
X-66490Y14250D01*
X-66551Y14268D01*
X-66613Y14290D01*
X-66679Y14316D01*
X-66741Y14349D01*
X-66799Y14385D01*
X-66857Y14429D01*
X-66912Y14476D01*
X-66915Y14480D01*
X-66923Y14491D01*
X-66937Y14505D01*
X-66956Y14531D01*
X-66974Y14560D01*
X-66999Y14596D01*
X-67046Y14691D01*
X-67072Y14749D01*
X-67097Y14815D01*
X-67123Y14884D01*
X-67141Y14964D01*
X-67159Y15051D01*
X-67174Y15146D01*
X-67181Y15248D01*
X-67185Y15357D01*
Y17326D01*
X-67589D01*
D02*
G37*
G36*
X-65412D02*
Y17821D01*
X-65008D01*
Y18840D01*
X-64411D01*
Y17821D01*
X-63312D01*
Y17326D01*
X-64411D01*
Y15481D01*
X-64407Y15411D01*
Y15273D01*
X-64404Y15215D01*
Y15208D01*
X-64400Y15189D01*
X-64397Y15164D01*
X-64389Y15127D01*
X-64382Y15084D01*
X-64367Y15040D01*
X-64353Y14989D01*
X-64331Y14942D01*
X-64327Y14938D01*
X-64320Y14924D01*
X-64306Y14902D01*
X-64287Y14880D01*
X-64266Y14851D01*
X-64233Y14825D01*
X-64200Y14796D01*
X-64149Y14771D01*
X-64135Y14767D01*
X-64109Y14756D01*
X-64069Y14749D01*
X-64022Y14738D01*
X-63967Y14727D01*
X-63902Y14724D01*
X-63829Y14720D01*
X-63803D01*
X-63774Y14724D01*
X-63738D01*
X-63698Y14731D01*
X-63650Y14738D01*
X-63599Y14745D01*
X-63548Y14760D01*
X-63541Y14763D01*
X-63527Y14767D01*
X-63501Y14774D01*
X-63472Y14785D01*
X-63406Y14811D01*
X-63374Y14822D01*
X-63348Y14833D01*
X-63312D01*
Y14298D01*
X-63319D01*
X-63341Y14290D01*
X-63374Y14283D01*
X-63417Y14272D01*
X-63472Y14261D01*
X-63530Y14250D01*
X-63592Y14239D01*
X-63658Y14228D01*
X-63665D01*
X-63687Y14225D01*
X-63719Y14221D01*
X-63760Y14214D01*
X-63810Y14210D01*
X-63862Y14203D01*
X-63974Y14199D01*
X-63996D01*
X-64022Y14203D01*
X-64054D01*
X-64094Y14207D01*
X-64142Y14214D01*
X-64196Y14221D01*
X-64251Y14236D01*
X-64313Y14250D01*
X-64375Y14268D01*
X-64437Y14290D01*
X-64502Y14316D01*
X-64564Y14349D01*
X-64622Y14385D01*
X-64680Y14429D01*
X-64735Y14476D01*
X-64739Y14480D01*
X-64746Y14491D01*
X-64761Y14505D01*
X-64779Y14531D01*
X-64797Y14560D01*
X-64822Y14596D01*
X-64870Y14691D01*
X-64895Y14749D01*
X-64921Y14815D01*
X-64946Y14884D01*
X-64964Y14964D01*
X-64983Y15051D01*
X-64997Y15146D01*
X-65004Y15248D01*
X-65008Y15357D01*
Y17326D01*
X-65412D01*
D02*
G37*
G36*
X-63115Y15885D02*
X-63119Y16041D01*
Y16103D01*
X-63115Y16128D01*
Y16154D01*
X-63112Y16187D01*
X-63104Y16263D01*
X-63097Y16351D01*
X-63082Y16445D01*
X-63064Y16547D01*
X-63042Y16656D01*
X-63013Y16769D01*
X-62977Y16886D01*
X-62933Y17002D01*
X-62886Y17115D01*
X-62828Y17224D01*
X-62759Y17330D01*
X-62682Y17424D01*
X-62678Y17432D01*
X-62660Y17446D01*
X-62638Y17472D01*
X-62602Y17501D01*
X-62558Y17541D01*
X-62507Y17581D01*
X-62445Y17625D01*
X-62373Y17672D01*
X-62296Y17719D01*
X-62209Y17763D01*
X-62114Y17803D01*
X-62012Y17843D01*
X-61903Y17872D01*
X-61787Y17898D01*
X-61663Y17916D01*
X-61532Y17919D01*
X-61499D01*
X-61463Y17916D01*
X-61412Y17912D01*
X-61353Y17905D01*
X-61281Y17894D01*
X-61204Y17879D01*
X-61121Y17857D01*
X-61030Y17832D01*
X-60935Y17799D01*
X-60840Y17759D01*
X-60746Y17712D01*
X-60647Y17657D01*
X-60556Y17592D01*
X-60465Y17515D01*
X-60382Y17428D01*
X-60378Y17421D01*
X-60363Y17406D01*
X-60342Y17377D01*
X-60312Y17337D01*
X-60280Y17286D01*
X-60243Y17224D01*
X-60207Y17155D01*
X-60163Y17071D01*
X-60123Y16977D01*
X-60087Y16875D01*
X-60050Y16758D01*
X-60018Y16635D01*
X-59988Y16503D01*
X-59967Y16358D01*
X-59952Y16205D01*
X-59948Y16041D01*
Y15979D01*
X-59952Y15954D01*
Y15925D01*
X-59956Y15896D01*
X-59963Y15819D01*
X-59970Y15732D01*
X-59985Y15637D01*
X-60003Y15532D01*
X-60025Y15422D01*
X-60054Y15310D01*
X-60090Y15197D01*
X-60131Y15080D01*
X-60181Y14967D01*
X-60240Y14858D01*
X-60305Y14753D01*
X-60382Y14658D01*
X-60385Y14654D01*
X-60400Y14636D01*
X-60425Y14614D01*
X-60462Y14581D01*
X-60505Y14545D01*
X-60556Y14505D01*
X-60618Y14461D01*
X-60687Y14414D01*
X-60768Y14370D01*
X-60851Y14323D01*
X-60946Y14283D01*
X-61048Y14247D01*
X-61161Y14214D01*
X-61277Y14192D01*
X-61401Y14177D01*
X-61532Y14170D01*
X-61565D01*
X-61601Y14174D01*
X-61656Y14177D01*
X-61717Y14185D01*
X-61787Y14196D01*
X-61867Y14214D01*
X-61954Y14232D01*
X-62045Y14261D01*
X-62140Y14294D01*
X-62238Y14334D01*
X-62336Y14381D01*
X-62431Y14440D01*
X-62526Y14505D01*
X-62613Y14585D01*
X-62697Y14672D01*
X-62700Y14680D01*
X-62715Y14694D01*
X-62737Y14724D01*
X-62762Y14763D01*
X-62795Y14815D01*
X-62831Y14876D01*
X-62868Y14949D01*
X-62908Y15033D01*
X-62948Y15124D01*
X-62984Y15226D01*
X-63021Y15339D01*
X-63053Y15462D01*
X-63079Y15593D01*
X-63101Y15735D01*
X-63115Y15885D01*
D02*
G37*
%LPC*%
G36*
X-62504Y15979D02*
X-62500Y15932D01*
X-62497Y15877D01*
X-62489Y15812D01*
X-62482Y15743D01*
X-62471Y15666D01*
X-62460Y15586D01*
X-62424Y15419D01*
X-62398Y15335D01*
X-62369Y15251D01*
X-62336Y15171D01*
X-62296Y15098D01*
X-62253Y15029D01*
X-62249Y15026D01*
X-62242Y15015D01*
X-62227Y14997D01*
X-62180Y14949D01*
X-62147Y14920D01*
X-62111Y14891D01*
X-62067Y14858D01*
X-62020Y14825D01*
X-61965Y14796D01*
X-61907Y14767D01*
X-61841Y14742D01*
X-61772Y14720D01*
X-61699Y14702D01*
X-61616Y14691D01*
X-61532Y14687D01*
X-61510D01*
X-61488Y14691D01*
X-61455D01*
X-61415Y14698D01*
X-61372Y14705D01*
X-61324Y14716D01*
X-61270Y14731D01*
X-61212Y14745D01*
X-61153Y14767D01*
X-61095Y14796D01*
X-61037Y14829D01*
X-60979Y14865D01*
X-60920Y14913D01*
X-60869Y14964D01*
X-60818Y15022D01*
X-60815Y15026D01*
X-60808Y15036D01*
X-60797Y15058D01*
X-60778Y15084D01*
X-60738Y15164D01*
X-60713Y15218D01*
X-60691Y15277D01*
X-60666Y15342D01*
X-60644Y15419D01*
X-60622Y15502D01*
X-60604Y15593D01*
X-60585Y15695D01*
X-60575Y15801D01*
X-60567Y15917D01*
X-60564Y16041D01*
Y16107D01*
X-60567Y16154D01*
X-60571Y16212D01*
X-60578Y16278D01*
X-60585Y16351D01*
X-60596Y16427D01*
X-60607Y16511D01*
X-60625Y16594D01*
X-60669Y16762D01*
X-60702Y16846D01*
X-60735Y16926D01*
X-60775Y16998D01*
X-60818Y17064D01*
X-60822Y17068D01*
X-60829Y17079D01*
X-60844Y17097D01*
X-60891Y17144D01*
X-60920Y17170D01*
X-61000Y17235D01*
X-61051Y17264D01*
X-61102Y17297D01*
X-61161Y17322D01*
X-61226Y17352D01*
X-61295Y17370D01*
X-61368Y17388D01*
X-61448Y17399D01*
X-61532Y17402D01*
X-61554D01*
X-61576Y17399D01*
X-61608D01*
X-61648Y17392D01*
X-61692Y17384D01*
X-61743Y17373D01*
X-61798Y17359D01*
X-61856Y17341D01*
X-61914Y17319D01*
X-61972Y17293D01*
X-62034Y17261D01*
X-62092Y17221D01*
X-62151Y17177D01*
X-62202Y17122D01*
X-62253Y17064D01*
X-62256Y17060D01*
X-62264Y17049D01*
X-62274Y17028D01*
X-62293Y17002D01*
X-62333Y16922D01*
X-62354Y16871D01*
X-62376Y16809D01*
X-62402Y16744D01*
X-62424Y16667D01*
X-62445Y16583D01*
X-62464Y16492D01*
X-62482Y16391D01*
X-62493Y16281D01*
X-62500Y16165D01*
X-62504Y16041D01*
Y15979D01*
D02*
G37*
%LPD*%
G36*
X-59337Y14268D02*
Y17821D01*
X-58740D01*
Y17424D01*
X-58700Y17464D01*
X-58678Y17483D01*
X-58653Y17504D01*
X-58594Y17559D01*
X-58525Y17617D01*
X-58445Y17679D01*
X-58365Y17737D01*
X-58278Y17788D01*
X-58274D01*
X-58267Y17796D01*
X-58256Y17799D01*
X-58238Y17810D01*
X-58216Y17818D01*
X-58190Y17828D01*
X-58161Y17843D01*
X-58125Y17854D01*
X-58052Y17879D01*
X-57965Y17898D01*
X-57870Y17912D01*
X-57768Y17919D01*
X-57739D01*
X-57714Y17916D01*
X-57688D01*
X-57655Y17912D01*
X-57619Y17909D01*
X-57582Y17901D01*
X-57495Y17883D01*
X-57401Y17857D01*
X-57306Y17821D01*
X-57211Y17774D01*
X-57208D01*
X-57200Y17766D01*
X-57189Y17759D01*
X-57171Y17748D01*
X-57127Y17712D01*
X-57102Y17690D01*
X-57044Y17632D01*
X-57015Y17595D01*
X-56982Y17559D01*
X-56953Y17515D01*
X-56920Y17468D01*
X-56891Y17417D01*
X-56865Y17363D01*
X-56840Y17304D01*
X-56836Y17308D01*
X-56829Y17319D01*
X-56793Y17355D01*
X-56771Y17381D01*
X-56742Y17410D01*
X-56709Y17439D01*
X-56673Y17475D01*
X-56592Y17548D01*
X-56505Y17625D01*
X-56410Y17697D01*
X-56312Y17763D01*
X-56309Y17766D01*
X-56287Y17777D01*
X-56268Y17788D01*
X-56243Y17799D01*
X-56214Y17814D01*
X-56181Y17828D01*
X-56145Y17843D01*
X-56061Y17868D01*
X-55966Y17894D01*
X-55861Y17912D01*
X-55806Y17919D01*
X-55712D01*
X-55693Y17916D01*
X-55668D01*
X-55613Y17912D01*
X-55548Y17901D01*
X-55479Y17890D01*
X-55409Y17872D01*
X-55337Y17847D01*
X-55333D01*
X-55329Y17843D01*
X-55318Y17839D01*
X-55304Y17832D01*
X-55271Y17814D01*
X-55224Y17792D01*
X-55173Y17759D01*
X-55118Y17719D01*
X-55064Y17672D01*
X-55002Y17610D01*
X-54984Y17588D01*
X-54958Y17552D01*
X-54925Y17504D01*
X-54889Y17446D01*
X-54852Y17377D01*
X-54820Y17297D01*
X-54787Y17210D01*
Y17206D01*
X-54783Y17199D01*
X-54780Y17184D01*
X-54776Y17166D01*
X-54769Y17144D01*
X-54761Y17115D01*
X-54754Y17082D01*
X-54747Y17046D01*
X-54732Y16958D01*
X-54725Y16907D01*
X-54718Y16853D01*
X-54711Y16736D01*
X-54707Y16605D01*
Y14268D01*
X-55304D01*
Y16409D01*
X-55308Y16471D01*
Y16540D01*
X-55311Y16616D01*
X-55326Y16773D01*
Y16784D01*
X-55329Y16795D01*
Y16809D01*
X-55333Y16846D01*
X-55344Y16893D01*
X-55355Y16944D01*
X-55366Y16998D01*
X-55384Y17053D01*
X-55406Y17100D01*
X-55417Y17122D01*
X-55431Y17144D01*
X-55453Y17173D01*
X-55479Y17202D01*
X-55508Y17235D01*
X-55544Y17264D01*
X-55588Y17290D01*
X-55591Y17293D01*
X-55610Y17301D01*
X-55635Y17308D01*
X-55672Y17322D01*
X-55715Y17333D01*
X-55770Y17341D01*
X-55832Y17348D01*
X-55904Y17352D01*
X-55937D01*
X-55974Y17344D01*
X-56025Y17337D01*
X-56083Y17322D01*
X-56148Y17304D01*
X-56225Y17275D01*
X-56301Y17235D01*
X-56305D01*
X-56312Y17231D01*
X-56323Y17224D01*
X-56338Y17213D01*
X-56356Y17202D01*
X-56381Y17188D01*
X-56501Y17108D01*
X-56574Y17049D01*
X-56654Y16988D01*
X-56738Y16911D01*
Y16889D01*
X-56734Y16875D01*
Y16835D01*
X-56731Y16780D01*
Y16766D01*
X-56727Y16751D01*
Y16707D01*
X-56723Y16675D01*
Y14268D01*
X-57320D01*
Y16409D01*
X-57324Y16471D01*
Y16540D01*
X-57328Y16616D01*
X-57342Y16773D01*
Y16784D01*
X-57346Y16795D01*
Y16809D01*
X-57349Y16846D01*
X-57360Y16893D01*
X-57371Y16944D01*
X-57382Y16998D01*
X-57401Y17053D01*
X-57422Y17100D01*
X-57433Y17122D01*
X-57448Y17144D01*
X-57470Y17173D01*
X-57495Y17202D01*
X-57524Y17235D01*
X-57561Y17264D01*
X-57604Y17290D01*
X-57608Y17293D01*
X-57626Y17301D01*
X-57652Y17308D01*
X-57688Y17322D01*
X-57732Y17333D01*
X-57786Y17341D01*
X-57848Y17348D01*
X-57921Y17352D01*
X-57954D01*
X-57994Y17344D01*
X-58045Y17337D01*
X-58107Y17322D01*
X-58176Y17301D01*
X-58249Y17268D01*
X-58329Y17228D01*
X-58332D01*
X-58340Y17224D01*
X-58350Y17217D01*
X-58365Y17206D01*
X-58383Y17195D01*
X-58460Y17144D01*
X-58522Y17100D01*
X-58591Y17046D01*
X-58664Y16988D01*
X-58740Y16918D01*
Y14268D01*
X-59337D01*
D02*
G37*
G36*
X-51784D02*
Y19004D01*
X-50528D01*
X-50492Y19001D01*
X-50448D01*
X-50401Y18997D01*
X-50350D01*
X-50241Y18986D01*
X-50121Y18975D01*
X-50000Y18957D01*
X-49884Y18931D01*
X-49880D01*
X-49869Y18928D01*
X-49855Y18924D01*
X-49833Y18917D01*
X-49807Y18910D01*
X-49778Y18902D01*
X-49742Y18891D01*
X-49705Y18877D01*
X-49625Y18848D01*
X-49538Y18808D01*
X-49447Y18760D01*
X-49360Y18706D01*
X-49356Y18702D01*
X-49349Y18698D01*
X-49334Y18687D01*
X-49316Y18673D01*
X-49294Y18655D01*
X-49269Y18633D01*
X-49211Y18582D01*
X-49145Y18513D01*
X-49076Y18436D01*
X-49010Y18345D01*
X-48948Y18247D01*
X-48945Y18243D01*
X-48941Y18236D01*
X-48934Y18218D01*
X-48923Y18196D01*
X-48912Y18171D01*
X-48901Y18138D01*
X-48886Y18101D01*
X-48857Y18014D01*
X-48843Y17959D01*
X-48832Y17905D01*
X-48821Y17847D01*
X-48810Y17785D01*
X-48803Y17716D01*
X-48796Y17574D01*
Y17523D01*
X-48799Y17493D01*
X-48803Y17461D01*
X-48806Y17424D01*
X-48810Y17384D01*
X-48825Y17293D01*
X-48843Y17195D01*
X-48872Y17093D01*
X-48908Y16988D01*
Y16984D01*
X-48919Y16962D01*
X-48927Y16940D01*
X-48941Y16918D01*
X-48952Y16893D01*
X-48988Y16827D01*
X-49029Y16755D01*
X-49083Y16675D01*
X-49141Y16598D01*
X-49211Y16522D01*
X-49221Y16511D01*
X-49236Y16500D01*
X-49254Y16482D01*
X-49276Y16463D01*
X-49305Y16438D01*
X-49338Y16412D01*
X-49374Y16387D01*
X-49414Y16358D01*
X-49458Y16329D01*
X-49556Y16267D01*
X-49665Y16209D01*
X-49786Y16158D01*
X-49789D01*
X-49800Y16154D01*
X-49818Y16147D01*
X-49844Y16139D01*
X-49877Y16128D01*
X-49917Y16118D01*
X-49964Y16107D01*
X-50015Y16096D01*
X-50073Y16085D01*
X-50135Y16074D01*
X-50204Y16063D01*
X-50277Y16052D01*
X-50357Y16045D01*
X-50441Y16037D01*
X-50528Y16034D01*
X-51154D01*
Y14268D01*
X-51784D01*
D02*
G37*
%LPC*%
G36*
X-51154Y16573D02*
X-50666D01*
X-50634Y16576D01*
X-50554D01*
X-50412Y16587D01*
X-50306Y16598D01*
X-50208Y16613D01*
X-50113Y16635D01*
X-50110D01*
X-50102Y16638D01*
X-50091Y16642D01*
X-50073Y16645D01*
X-50055Y16653D01*
X-50029Y16664D01*
X-49975Y16685D01*
X-49913Y16715D01*
X-49847Y16755D01*
X-49782Y16798D01*
X-49720Y16853D01*
X-49713Y16860D01*
X-49698Y16878D01*
X-49673Y16907D01*
X-49640Y16944D01*
X-49607Y16991D01*
X-49575Y17042D01*
X-49542Y17100D01*
X-49516Y17162D01*
Y17166D01*
X-49513Y17170D01*
X-49505Y17191D01*
X-49494Y17228D01*
X-49483Y17275D01*
X-49473Y17333D01*
X-49462Y17402D01*
X-49454Y17479D01*
X-49451Y17559D01*
Y17599D01*
X-49454Y17621D01*
Y17646D01*
X-49462Y17705D01*
X-49473Y17770D01*
X-49487Y17839D01*
X-49509Y17912D01*
X-49538Y17981D01*
Y17985D01*
X-49542Y17989D01*
X-49553Y18010D01*
X-49575Y18047D01*
X-49600Y18087D01*
X-49636Y18134D01*
X-49680Y18185D01*
X-49731Y18232D01*
X-49793Y18280D01*
X-49800Y18283D01*
X-49818Y18294D01*
X-49851Y18313D01*
X-49891Y18334D01*
X-49942Y18356D01*
X-50004Y18378D01*
X-50069Y18400D01*
X-50142Y18418D01*
X-50146D01*
X-50150Y18422D01*
X-50160D01*
X-50197Y18429D01*
X-50219Y18433D01*
X-50277Y18440D01*
X-50350Y18447D01*
X-50433Y18454D01*
X-50528Y18462D01*
X-51154D01*
Y16573D01*
D02*
G37*
%LPD*%
G36*
X-48490Y15211D02*
X-48493Y15299D01*
Y15335D01*
X-48490Y15360D01*
Y15393D01*
X-48486Y15430D01*
X-48479Y15470D01*
X-48475Y15513D01*
X-48457Y15612D01*
X-48428Y15717D01*
X-48392Y15823D01*
X-48340Y15925D01*
X-48337Y15928D01*
X-48333Y15936D01*
X-48322Y15950D01*
X-48311Y15968D01*
X-48293Y15990D01*
X-48250Y16041D01*
X-48220Y16074D01*
X-48188Y16107D01*
X-48151Y16139D01*
X-48111Y16172D01*
X-48064Y16209D01*
X-48017Y16241D01*
X-47966Y16274D01*
X-47907Y16307D01*
X-47846Y16336D01*
X-47842D01*
X-47831Y16343D01*
X-47816Y16351D01*
X-47791Y16358D01*
X-47765Y16369D01*
X-47729Y16383D01*
X-47689Y16398D01*
X-47645Y16412D01*
X-47598Y16427D01*
X-47543Y16442D01*
X-47485Y16460D01*
X-47423Y16474D01*
X-47289Y16503D01*
X-47143Y16525D01*
X-47139D01*
X-47125Y16529D01*
X-47103D01*
X-47070Y16533D01*
X-47034Y16540D01*
X-46990Y16544D01*
X-46939Y16551D01*
X-46881Y16554D01*
X-46750Y16569D01*
X-46677Y16576D01*
X-46601Y16583D01*
X-46437Y16594D01*
X-46262Y16605D01*
Y16751D01*
X-46266Y16791D01*
X-46269Y16838D01*
X-46277Y16893D01*
X-46306Y17002D01*
X-46328Y17053D01*
X-46338Y17075D01*
X-46353Y17097D01*
X-46371Y17126D01*
X-46397Y17159D01*
X-46429Y17191D01*
X-46466Y17224D01*
X-46506Y17253D01*
X-46510Y17257D01*
X-46528Y17264D01*
X-46550Y17279D01*
X-46582Y17293D01*
X-46622Y17308D01*
X-46673Y17326D01*
X-46724Y17341D01*
X-46786Y17352D01*
X-46793D01*
X-46815Y17355D01*
X-46848Y17359D01*
X-46888Y17366D01*
X-46939Y17370D01*
X-46997Y17373D01*
X-47059Y17377D01*
X-47183D01*
X-47205Y17373D01*
X-47234D01*
X-47263Y17370D01*
X-47336Y17363D01*
X-47420Y17352D01*
X-47511Y17337D01*
X-47613Y17315D01*
X-47616D01*
X-47623Y17312D01*
X-47660Y17304D01*
X-47685Y17297D01*
X-47714Y17290D01*
X-47751Y17279D01*
X-47787Y17271D01*
X-47871Y17246D01*
X-47966Y17213D01*
X-48068Y17177D01*
X-48173Y17137D01*
X-48206D01*
Y17741D01*
X-48202D01*
X-48199Y17745D01*
X-48188D01*
X-48177Y17748D01*
X-48158Y17756D01*
X-48137Y17759D01*
X-48115Y17766D01*
X-48086Y17774D01*
X-48017Y17788D01*
X-47936Y17807D01*
X-47842Y17825D01*
X-47733Y17847D01*
X-47729D01*
X-47718Y17850D01*
X-47703Y17854D01*
X-47653Y17861D01*
X-47620Y17865D01*
X-47580Y17872D01*
X-47540Y17876D01*
X-47449Y17887D01*
X-47343Y17898D01*
X-47234Y17901D01*
X-47121Y17905D01*
X-47030D01*
X-46994Y17901D01*
X-46954D01*
X-46812Y17890D01*
X-46706Y17879D01*
X-46604Y17865D01*
X-46506Y17847D01*
X-46502D01*
X-46495Y17843D01*
X-46481Y17839D01*
X-46462Y17836D01*
X-46440Y17828D01*
X-46415Y17821D01*
X-46353Y17799D01*
X-46284Y17770D01*
X-46207Y17734D01*
X-46127Y17690D01*
X-46051Y17639D01*
X-46047D01*
X-46044Y17632D01*
X-46033Y17625D01*
X-46018Y17614D01*
X-45985Y17581D01*
X-45942Y17537D01*
X-45894Y17483D01*
X-45847Y17417D01*
X-45803Y17344D01*
X-45763Y17261D01*
Y17257D01*
X-45760Y17250D01*
X-45753Y17239D01*
X-45749Y17221D01*
X-45742Y17195D01*
X-45731Y17170D01*
X-45723Y17137D01*
X-45712Y17104D01*
X-45705Y17064D01*
X-45698Y17020D01*
X-45680Y16926D01*
X-45669Y16816D01*
X-45665Y16696D01*
Y14268D01*
X-46262Y14268D01*
Y14647D01*
X-46266Y14643D01*
X-46277Y14636D01*
X-46291Y14625D01*
X-46317Y14607D01*
X-46346Y14585D01*
X-46379Y14560D01*
X-46419Y14531D01*
X-46462Y14494D01*
X-46466Y14491D01*
X-46484Y14480D01*
X-46506Y14461D01*
X-46535Y14440D01*
X-46571Y14414D01*
X-46652Y14363D01*
X-46703Y14338D01*
X-46721Y14327D01*
X-46753Y14312D01*
X-46793Y14298D01*
X-46841Y14276D01*
X-46892Y14254D01*
X-47005Y14218D01*
X-47012Y14214D01*
X-47030Y14210D01*
X-47063Y14203D01*
X-47110Y14196D01*
X-47168Y14185D01*
X-47241Y14177D01*
X-47321Y14174D01*
X-47416Y14170D01*
X-47452D01*
X-47474Y14174D01*
X-47496D01*
X-47551Y14181D01*
X-47616Y14192D01*
X-47685Y14207D01*
X-47762Y14225D01*
X-47835Y14254D01*
X-47838D01*
X-47842Y14258D01*
X-47853Y14261D01*
X-47904Y14287D01*
X-47951Y14312D01*
X-48006Y14345D01*
X-48064Y14385D01*
X-48122Y14432D01*
X-48180Y14483D01*
X-48188Y14491D01*
X-48202Y14509D01*
X-48231Y14541D01*
X-48260Y14581D01*
X-48297Y14636D01*
X-48337Y14698D01*
X-48373Y14767D01*
X-48410Y14844D01*
Y14847D01*
X-48413Y14854D01*
X-48417Y14865D01*
X-48424Y14880D01*
X-48428Y14902D01*
X-48435Y14924D01*
X-48450Y14982D01*
X-48468Y15047D01*
X-48479Y15127D01*
X-48490Y15211D01*
D02*
G37*
%LPC*%
G36*
X-47878Y15310D02*
X-47875Y15288D01*
Y15262D01*
X-47867Y15233D01*
X-47856Y15168D01*
X-47835Y15091D01*
X-47805Y15015D01*
X-47762Y14942D01*
X-47736Y14909D01*
X-47707Y14876D01*
X-47703D01*
X-47700Y14869D01*
X-47689Y14862D01*
X-47674Y14851D01*
X-47656Y14840D01*
X-47634Y14829D01*
X-47609Y14815D01*
X-47580Y14800D01*
X-47547Y14785D01*
X-47511Y14771D01*
X-47423Y14749D01*
X-47372Y14738D01*
X-47321Y14731D01*
X-47267Y14727D01*
X-47205Y14724D01*
X-47176D01*
X-47157Y14727D01*
X-47132D01*
X-47103Y14731D01*
X-47070Y14734D01*
X-47034Y14738D01*
X-46957Y14753D01*
X-46870Y14774D01*
X-46783Y14804D01*
X-46695Y14844D01*
X-46692D01*
X-46684Y14851D01*
X-46673Y14854D01*
X-46637Y14876D01*
X-46611Y14891D01*
X-46553Y14927D01*
X-46488Y14971D01*
X-46415Y15022D01*
X-46338Y15077D01*
X-46262Y15142D01*
Y16128D01*
X-46273D01*
X-46284Y16125D01*
X-46302D01*
X-46320Y16121D01*
X-46346D01*
X-46411Y16114D01*
X-46448Y16110D01*
X-46488Y16107D01*
X-46582Y16096D01*
X-46688Y16085D01*
X-46804Y16074D01*
X-46819D01*
X-46837Y16070D01*
X-46859Y16067D01*
X-46885Y16063D01*
X-46917Y16059D01*
X-46954Y16056D01*
X-46990Y16048D01*
X-47074Y16037D01*
X-47249Y16001D01*
X-47329Y15979D01*
X-47332D01*
X-47339Y15976D01*
X-47350Y15972D01*
X-47369Y15965D01*
X-47412Y15950D01*
X-47467Y15925D01*
X-47532Y15892D01*
X-47598Y15856D01*
X-47664Y15808D01*
X-47725Y15757D01*
X-47733Y15750D01*
X-47751Y15728D01*
X-47773Y15695D01*
X-47802Y15648D01*
X-47831Y15590D01*
X-47853Y15517D01*
X-47871Y15433D01*
X-47878Y15339D01*
Y15310D01*
D02*
G37*
%LPD*%
G36*
X-44963Y14436D02*
X-45043Y14476D01*
Y15149D01*
X-45014D01*
X-45010Y15146D01*
X-44999Y15138D01*
X-44984Y15127D01*
X-44963Y15109D01*
X-44937Y15091D01*
X-44904Y15066D01*
X-44835Y15015D01*
X-44832Y15011D01*
X-44817Y15004D01*
X-44791Y14989D01*
X-44762Y14967D01*
X-44722Y14945D01*
X-44675Y14920D01*
X-44620Y14891D01*
X-44559Y14862D01*
X-44551Y14858D01*
X-44533Y14851D01*
X-44500Y14836D01*
X-44460Y14818D01*
X-44409Y14800D01*
X-44351Y14778D01*
X-44289Y14756D01*
X-44224Y14734D01*
X-44220D01*
X-44216Y14731D01*
X-44205D01*
X-44191Y14727D01*
X-44155Y14720D01*
X-44107Y14709D01*
X-44053Y14698D01*
X-43987Y14691D01*
X-43918Y14687D01*
X-43845Y14683D01*
X-43820D01*
X-43791Y14687D01*
X-43754D01*
X-43710Y14691D01*
X-43601Y14705D01*
X-43543Y14716D01*
X-43536D01*
X-43518Y14724D01*
X-43488Y14731D01*
X-43452Y14738D01*
X-43332Y14782D01*
X-43299Y14800D01*
X-43295Y14804D01*
X-43281Y14815D01*
X-43263Y14829D01*
X-43237Y14847D01*
X-43212Y14869D01*
X-43161Y14927D01*
X-43139Y14956D01*
X-43135Y14960D01*
X-43124Y14993D01*
X-43113Y15018D01*
X-43103Y15055D01*
X-43095Y15098D01*
X-43092Y15149D01*
X-43088Y15208D01*
Y15244D01*
X-43095Y15280D01*
X-43103Y15328D01*
X-43117Y15379D01*
X-43135Y15433D01*
X-43164Y15484D01*
X-43205Y15528D01*
X-43212Y15532D01*
X-43226Y15546D01*
X-43255Y15568D01*
X-43299Y15594D01*
X-43357Y15623D01*
X-43390Y15637D01*
X-43426Y15652D01*
X-43467Y15670D01*
X-43561Y15699D01*
X-43616Y15714D01*
X-43619D01*
X-43638Y15717D01*
X-43659Y15724D01*
X-43696Y15732D01*
X-43740Y15739D01*
X-43791Y15750D01*
X-43849Y15761D01*
X-43914Y15776D01*
X-43918D01*
X-43922Y15779D01*
X-43933D01*
X-43947Y15783D01*
X-43980Y15790D01*
X-44027Y15801D01*
X-44078Y15812D01*
X-44136Y15826D01*
X-44256Y15859D01*
X-44260D01*
X-44275Y15867D01*
X-44297Y15870D01*
X-44322Y15881D01*
X-44355Y15892D01*
X-44435Y15928D01*
X-44482Y15947D01*
X-44577Y15998D01*
X-44675Y16059D01*
X-44766Y16136D01*
X-44810Y16176D01*
X-44846Y16219D01*
X-44850Y16223D01*
X-44853Y16230D01*
X-44864Y16245D01*
X-44875Y16263D01*
X-44890Y16289D01*
X-44904Y16318D01*
X-44919Y16351D01*
X-44937Y16387D01*
X-44955Y16431D01*
X-44970Y16474D01*
X-44999Y16576D01*
X-45021Y16693D01*
X-45024Y16755D01*
X-45028Y16820D01*
Y16842D01*
X-45024Y16867D01*
X-45021Y16900D01*
X-45017Y16940D01*
X-45010Y16988D01*
X-44999Y17039D01*
X-44984Y17097D01*
X-44941Y17221D01*
X-44912Y17286D01*
X-44875Y17352D01*
X-44835Y17413D01*
X-44788Y17479D01*
X-44730Y17541D01*
X-44668Y17599D01*
X-44664Y17603D01*
X-44650Y17614D01*
X-44631Y17628D01*
X-44602Y17646D01*
X-44566Y17672D01*
X-44522Y17697D01*
X-44413Y17752D01*
X-44347Y17781D01*
X-44275Y17807D01*
X-44195Y17836D01*
X-44111Y17857D01*
X-44020Y17876D01*
X-43922Y17890D01*
X-43816Y17901D01*
X-43707Y17905D01*
X-43656D01*
X-43627Y17901D01*
X-43598D01*
X-43561Y17898D01*
X-43521Y17894D01*
X-43430Y17887D01*
X-43328Y17872D01*
X-43223Y17854D01*
X-43110Y17828D01*
X-43106D01*
X-43095Y17825D01*
X-43081Y17821D01*
X-43059Y17814D01*
X-43033Y17807D01*
X-43004Y17799D01*
X-42935Y17777D01*
X-42855Y17752D01*
X-42771Y17723D01*
X-42688Y17686D01*
X-42608Y17646D01*
Y17009D01*
X-42640D01*
X-42644Y17013D01*
X-42651Y17017D01*
X-42662Y17028D01*
X-42680Y17039D01*
X-42702Y17057D01*
X-42728Y17071D01*
X-42757Y17093D01*
X-42790Y17115D01*
X-42866Y17159D01*
X-42953Y17206D01*
X-43048Y17253D01*
X-43150Y17297D01*
X-43154D01*
X-43161Y17301D01*
X-43197Y17315D01*
X-43223Y17323D01*
X-43252Y17330D01*
X-43325Y17352D01*
X-43412Y17370D01*
X-43507Y17388D01*
X-43612Y17399D01*
X-43718Y17402D01*
X-43747D01*
X-43765Y17399D01*
X-43791D01*
X-43889Y17388D01*
X-43969Y17370D01*
X-44053Y17348D01*
X-44136Y17319D01*
X-44216Y17275D01*
X-44220D01*
X-44224Y17268D01*
X-44249Y17253D01*
X-44278Y17224D01*
X-44315Y17180D01*
X-44355Y17130D01*
X-44384Y17064D01*
X-44409Y16988D01*
X-44413Y16948D01*
X-44417Y16900D01*
Y16878D01*
X-44413Y16864D01*
X-44409Y16824D01*
X-44402Y16776D01*
X-44388Y16722D01*
X-44366Y16664D01*
X-44337Y16613D01*
X-44297Y16565D01*
X-44289Y16562D01*
X-44275Y16547D01*
X-44245Y16529D01*
X-44202Y16503D01*
X-44151Y16474D01*
X-44082Y16445D01*
X-44002Y16416D01*
X-43911Y16387D01*
X-43903D01*
X-43889Y16380D01*
X-43860Y16372D01*
X-43823Y16365D01*
X-43780Y16354D01*
X-43732Y16343D01*
X-43674Y16329D01*
X-43616Y16318D01*
X-43608D01*
X-43587Y16310D01*
X-43554Y16307D01*
X-43510Y16296D01*
X-43459Y16285D01*
X-43401Y16271D01*
X-43270Y16241D01*
X-43266D01*
X-43252Y16238D01*
X-43234Y16230D01*
X-43205Y16223D01*
X-43172Y16212D01*
X-43135Y16198D01*
X-43092Y16183D01*
X-43048Y16165D01*
X-42953Y16118D01*
X-42855Y16063D01*
X-42760Y15994D01*
X-42717Y15954D01*
X-42673Y15910D01*
X-42669Y15903D01*
X-42658Y15888D01*
X-42644Y15870D01*
X-42629Y15848D01*
X-42615Y15819D01*
X-42597Y15786D01*
X-42575Y15750D01*
X-42557Y15706D01*
X-42538Y15659D01*
X-42524Y15608D01*
X-42509Y15553D01*
X-42495Y15492D01*
X-42484Y15430D01*
X-42480Y15360D01*
X-42476Y15288D01*
Y15248D01*
X-42480Y15229D01*
Y15204D01*
X-42487Y15149D01*
X-42498Y15080D01*
X-42516Y15007D01*
X-42538Y14931D01*
X-42568Y14854D01*
Y14851D01*
X-42571Y14847D01*
X-42578Y14836D01*
X-42586Y14822D01*
X-42604Y14782D01*
X-42633Y14734D01*
X-42673Y14680D01*
X-42717Y14622D01*
X-42771Y14563D01*
X-42833Y14505D01*
X-42837D01*
X-42840Y14498D01*
X-42851Y14491D01*
X-42866Y14480D01*
X-42884Y14465D01*
X-42961Y14414D01*
X-43023Y14378D01*
X-43099Y14338D01*
X-43179Y14298D01*
X-43266Y14265D01*
X-43270D01*
X-43277Y14261D01*
X-43292Y14258D01*
X-43310Y14250D01*
X-43332Y14247D01*
X-43361Y14239D01*
X-43394Y14232D01*
X-43430Y14225D01*
X-43470Y14214D01*
X-43565Y14199D01*
X-43619Y14196D01*
X-43736Y14185D01*
X-43867Y14181D01*
X-43929D01*
X-43958Y14185D01*
X-43994D01*
X-44038Y14188D01*
X-44085Y14192D01*
X-44187Y14203D01*
X-44300Y14221D01*
X-44417Y14243D01*
X-44533Y14276D01*
X-44537D01*
X-44548Y14279D01*
X-44562Y14287D01*
X-44584Y14294D01*
X-44609Y14301D01*
X-44642Y14312D01*
X-44711Y14338D01*
X-44795Y14367D01*
X-44879Y14400D01*
X-44963Y14436D01*
D02*
G37*
G36*
X-42287Y17326D02*
Y17821D01*
X-41883D01*
Y18840D01*
X-41286D01*
Y17821D01*
X-40187D01*
Y17326D01*
X-41286D01*
Y15481D01*
X-41283Y15411D01*
Y15273D01*
X-41279Y15215D01*
Y15208D01*
X-41275Y15189D01*
X-41272Y15164D01*
X-41264Y15127D01*
X-41257Y15084D01*
X-41243Y15040D01*
X-41228Y14989D01*
X-41206Y14942D01*
X-41203Y14938D01*
X-41195Y14924D01*
X-41181Y14902D01*
X-41162Y14880D01*
X-41141Y14851D01*
X-41108Y14825D01*
X-41075Y14796D01*
X-41024Y14771D01*
X-41010Y14767D01*
X-40984Y14756D01*
X-40944Y14749D01*
X-40897Y14738D01*
X-40842Y14727D01*
X-40777Y14724D01*
X-40704Y14720D01*
X-40678D01*
X-40649Y14724D01*
X-40613D01*
X-40573Y14731D01*
X-40525Y14738D01*
X-40475Y14745D01*
X-40424Y14760D01*
X-40416Y14763D01*
X-40402Y14767D01*
X-40376Y14774D01*
X-40347Y14785D01*
X-40282Y14811D01*
X-40249Y14822D01*
X-40223Y14833D01*
X-40187D01*
Y14298D01*
X-40194D01*
X-40216Y14290D01*
X-40249Y14283D01*
X-40293Y14272D01*
X-40347Y14261D01*
X-40405Y14250D01*
X-40467Y14239D01*
X-40533Y14229D01*
X-40540D01*
X-40562Y14225D01*
X-40595Y14221D01*
X-40635Y14214D01*
X-40686Y14210D01*
X-40737Y14203D01*
X-40849Y14199D01*
X-40871D01*
X-40897Y14203D01*
X-40929D01*
X-40969Y14207D01*
X-41017Y14214D01*
X-41071Y14221D01*
X-41126Y14236D01*
X-41188Y14250D01*
X-41250Y14268D01*
X-41312Y14290D01*
X-41377Y14316D01*
X-41439Y14349D01*
X-41497Y14385D01*
X-41556Y14429D01*
X-41610Y14476D01*
X-41614Y14480D01*
X-41621Y14491D01*
X-41636Y14505D01*
X-41654Y14531D01*
X-41672Y14560D01*
X-41697Y14596D01*
X-41745Y14691D01*
X-41770Y14749D01*
X-41796Y14815D01*
X-41821Y14884D01*
X-41840Y14964D01*
X-41858Y15051D01*
X-41872Y15146D01*
X-41879Y15248D01*
X-41883Y15357D01*
Y17326D01*
X-42287D01*
D02*
G37*
G36*
X-39983Y15863D02*
X-39987Y16023D01*
Y16063D01*
X-39983Y16081D01*
Y16136D01*
X-39979Y16169D01*
X-39972Y16241D01*
X-39961Y16325D01*
X-39950Y16420D01*
X-39928Y16522D01*
X-39907Y16631D01*
X-39878Y16744D01*
X-39841Y16857D01*
X-39797Y16973D01*
X-39743Y17089D01*
X-39685Y17199D01*
X-39615Y17308D01*
X-39535Y17406D01*
X-39532Y17413D01*
X-39513Y17428D01*
X-39488Y17454D01*
X-39452Y17486D01*
X-39408Y17526D01*
X-39353Y17570D01*
X-39288Y17614D01*
X-39215Y17665D01*
X-39135Y17712D01*
X-39044Y17756D01*
X-38946Y17799D01*
X-38840Y17839D01*
X-38727Y17872D01*
X-38607Y17898D01*
X-38480Y17912D01*
X-38345Y17919D01*
X-38291D01*
X-38261Y17916D01*
X-38225D01*
X-38189Y17912D01*
X-38148Y17909D01*
X-38058Y17894D01*
X-37959Y17879D01*
X-37857Y17854D01*
X-37759Y17821D01*
X-37755D01*
X-37734Y17810D01*
X-37715Y17803D01*
X-37694Y17792D01*
X-37668Y17781D01*
X-37606Y17748D01*
X-37537Y17708D01*
X-37464Y17654D01*
X-37388Y17595D01*
X-37311Y17519D01*
X-37308Y17512D01*
X-37282Y17486D01*
X-37268Y17468D01*
X-37249Y17443D01*
X-37206Y17384D01*
X-37158Y17312D01*
X-37108Y17228D01*
X-37060Y17130D01*
X-37020Y17024D01*
Y17020D01*
X-37016Y17009D01*
X-37009Y16995D01*
X-37006Y16973D01*
X-36995Y16944D01*
X-36987Y16911D01*
X-36980Y16871D01*
X-36958Y16776D01*
X-36951Y16722D01*
X-36940Y16664D01*
X-36933Y16598D01*
X-36929Y16533D01*
X-36922Y16460D01*
X-36918Y16307D01*
Y15983D01*
X-39379D01*
Y15958D01*
X-39375Y15925D01*
Y15881D01*
X-39368Y15830D01*
X-39361Y15768D01*
X-39353Y15703D01*
X-39324Y15557D01*
X-39302Y15477D01*
X-39277Y15397D01*
X-39248Y15320D01*
X-39211Y15244D01*
X-39171Y15168D01*
X-39124Y15098D01*
X-39069Y15033D01*
X-39055Y15018D01*
X-39037Y15004D01*
X-39011Y14982D01*
X-38978Y14956D01*
X-38942Y14931D01*
X-38895Y14902D01*
X-38844Y14873D01*
X-38785Y14840D01*
X-38720Y14811D01*
X-38651Y14785D01*
X-38574Y14760D01*
X-38491Y14738D01*
X-38403Y14724D01*
X-38309Y14713D01*
X-38207Y14709D01*
X-38174D01*
X-38134Y14713D01*
X-38083Y14716D01*
X-38025Y14720D01*
X-37959Y14727D01*
X-37890Y14738D01*
X-37821Y14753D01*
X-37817D01*
X-37814Y14756D01*
X-37803D01*
X-37788Y14760D01*
X-37752Y14771D01*
X-37708Y14782D01*
X-37653Y14800D01*
X-37595Y14818D01*
X-37479Y14865D01*
X-37475D01*
X-37472Y14869D01*
X-37450Y14876D01*
X-37340Y14931D01*
X-37293Y14956D01*
X-37206Y15007D01*
X-37202Y15011D01*
X-37188Y15018D01*
X-37166Y15033D01*
X-37140Y15051D01*
X-37078Y15091D01*
X-37049Y15117D01*
X-37020Y15138D01*
X-36984D01*
Y14487D01*
X-36987Y14483D01*
X-37002Y14480D01*
X-37024Y14469D01*
X-37056Y14458D01*
X-37093Y14443D01*
X-37140Y14425D01*
X-37191Y14403D01*
X-37246Y14381D01*
X-37253Y14378D01*
X-37271Y14370D01*
X-37300Y14359D01*
X-37340Y14345D01*
X-37384Y14330D01*
X-37526Y14287D01*
X-37530D01*
X-37533Y14283D01*
X-37555Y14279D01*
X-37588Y14272D01*
X-37632Y14261D01*
X-37679Y14247D01*
X-37843Y14214D01*
X-37850D01*
X-37868Y14210D01*
X-37897Y14207D01*
X-37941Y14203D01*
X-37992Y14196D01*
X-38054Y14192D01*
X-38123Y14188D01*
X-38236D01*
X-38258Y14192D01*
X-38280D01*
X-38341Y14196D01*
X-38411Y14203D01*
X-38494Y14214D01*
X-38585Y14229D01*
X-38684Y14247D01*
X-38789Y14272D01*
X-38895Y14305D01*
X-39008Y14345D01*
X-39117Y14389D01*
X-39226Y14443D01*
X-39328Y14509D01*
X-39430Y14581D01*
X-39521Y14665D01*
X-39524Y14672D01*
X-39539Y14687D01*
X-39564Y14716D01*
X-39594Y14753D01*
X-39630Y14804D01*
X-39666Y14862D01*
X-39710Y14935D01*
X-39754Y15015D01*
X-39797Y15106D01*
X-39838Y15208D01*
X-39878Y15317D01*
X-39914Y15441D01*
X-39943Y15572D01*
X-39965Y15714D01*
X-39983Y15863D01*
D02*
G37*
%LPC*%
G36*
X-39379Y16442D02*
X-37501D01*
Y16482D01*
X-37504Y16503D01*
Y16525D01*
X-37512Y16583D01*
X-37519Y16649D01*
X-37541Y16787D01*
X-37559Y16857D01*
Y16860D01*
X-37563Y16864D01*
X-37581Y16918D01*
X-37595Y16958D01*
X-37617Y17006D01*
X-37643Y17053D01*
X-37672Y17104D01*
X-37704Y17151D01*
X-37708Y17159D01*
X-37777Y17228D01*
X-37817Y17261D01*
X-37861Y17293D01*
X-37916Y17326D01*
X-37981Y17359D01*
X-38003Y17366D01*
X-38039Y17377D01*
X-38087Y17392D01*
X-38145Y17406D01*
X-38214Y17417D01*
X-38291Y17424D01*
X-38378Y17428D01*
X-38418D01*
X-38440Y17424D01*
X-38462D01*
X-38520Y17421D01*
X-38582Y17410D01*
X-38651Y17399D01*
X-38720Y17381D01*
X-38785Y17355D01*
X-38844Y17326D01*
X-38887Y17301D01*
X-38931Y17271D01*
X-38982Y17239D01*
X-39037Y17195D01*
X-39088Y17148D01*
X-39095Y17141D01*
X-39110Y17122D01*
X-39135Y17093D01*
X-39164Y17057D01*
X-39197Y17009D01*
X-39230Y16955D01*
X-39262Y16897D01*
X-39292Y16835D01*
Y16831D01*
X-39295Y16827D01*
X-39302Y16806D01*
X-39313Y16769D01*
X-39328Y16722D01*
X-39342Y16664D01*
X-39357Y16598D01*
X-39372Y16522D01*
X-39379Y16442D01*
D02*
G37*
%LPD*%
M02*
