M48
;Layer_Color=9474304
;FILE_FORMAT=2:4
INCH,TZ
;TYPE=PLATED
T01F00S00C0.0200
T02F00S00C0.0394
T03F00S00C0.0630
T04F00S00C0.0669
T05F00S00C0.0750
%
T01
X92553Y49979
T02
X81727Y64152
X83695
X88813
X90782
X88518Y67794
X86549
X81431Y67892
X79463
X93636
X95605
X95900Y64152
X97868
X102986
X104955
X102593Y67794
X100624
T03
X80742Y71829
X82742
X81742Y75829
X79742
X86829
X88829
X87829Y71829
X89829
X94916
X96916
X95916Y75829
X93916
X101002
X103002
X102002Y71829
X104002
T04
X93813Y55744
Y57185
Y58945
Y60386
X97357
Y58945
Y57185
Y55744
X100900
Y57185
Y58945
Y60386
X104443
Y58945
Y57185
Y55744
X90270
Y57185
Y58945
Y60386
X86727
Y58945
Y57185
Y55744
X83183
Y57185
Y58945
Y60386
X79640
Y58945
Y57185
Y55744
T05
X96490Y48404
X100231
X86254
X82514
M30
