G04*
G04 #@! TF.GenerationSoftware,Altium Limited,Altium Designer,26.9.1 (10)*
G04*
G04 Layer_Color=65535*
G04 Board_Origin=74640005|44270005*
%FSLAX25Y25*%
%MOIN*%
G70*
G04*
G04 #@! TF.SameCoordinates,585EC1B0-1F81-44B1-8C19-25A49A0C304D*
G04*
G04*
G04 #@! TF.FilePolarity,Positive*
G04*
G01*
G75*
%ADD10C,0.02000*%
%ADD11C,0.00500*%
%ADD12C,0.00787*%
%ADD13C,0.01500*%
%ADD14C,0.00600*%
%ADD15C,0.01000*%
G36*
X-74545Y49940D02*
Y50500D01*
X-70734D01*
Y49940D01*
X-72325D01*
Y45764D01*
X-72954D01*
Y49940D01*
X-74545D01*
D02*
G37*
G36*
X-70552Y47381D02*
X-70555Y47537D01*
Y47599D01*
X-70552Y47625D01*
Y47650D01*
X-70548Y47683D01*
X-70541Y47759D01*
X-70534Y47847D01*
X-70519Y47941D01*
X-70501Y48043D01*
X-70479Y48152D01*
X-70450Y48265D01*
X-70414Y48382D01*
X-70370Y48498D01*
X-70323Y48611D01*
X-70264Y48720D01*
X-70195Y48826D01*
X-70119Y48920D01*
X-70115Y48928D01*
X-70097Y48942D01*
X-70075Y48968D01*
X-70039Y48997D01*
X-69995Y49037D01*
X-69944Y49077D01*
X-69882Y49121D01*
X-69809Y49168D01*
X-69733Y49215D01*
X-69645Y49259D01*
X-69551Y49299D01*
X-69449Y49339D01*
X-69340Y49368D01*
X-69223Y49394D01*
X-69099Y49412D01*
X-68968Y49415D01*
X-68936D01*
X-68899Y49412D01*
X-68848Y49408D01*
X-68790Y49401D01*
X-68717Y49390D01*
X-68641Y49375D01*
X-68557Y49354D01*
X-68466Y49328D01*
X-68371Y49295D01*
X-68277Y49255D01*
X-68182Y49208D01*
X-68084Y49153D01*
X-67993Y49088D01*
X-67902Y49011D01*
X-67818Y48924D01*
X-67814Y48917D01*
X-67800Y48902D01*
X-67778Y48873D01*
X-67749Y48833D01*
X-67716Y48782D01*
X-67680Y48720D01*
X-67643Y48651D01*
X-67600Y48567D01*
X-67560Y48473D01*
X-67523Y48371D01*
X-67487Y48254D01*
X-67454Y48131D01*
X-67425Y48000D01*
X-67403Y47854D01*
X-67389Y47701D01*
X-67385Y47537D01*
Y47475D01*
X-67389Y47450D01*
Y47421D01*
X-67392Y47392D01*
X-67400Y47315D01*
X-67407Y47228D01*
X-67421Y47133D01*
X-67440Y47028D01*
X-67461Y46918D01*
X-67491Y46806D01*
X-67527Y46693D01*
X-67567Y46576D01*
X-67618Y46463D01*
X-67676Y46354D01*
X-67742Y46249D01*
X-67818Y46154D01*
X-67822Y46150D01*
X-67836Y46132D01*
X-67862Y46110D01*
X-67898Y46078D01*
X-67942Y46041D01*
X-67993Y46001D01*
X-68055Y45957D01*
X-68124Y45910D01*
X-68204Y45867D01*
X-68288Y45819D01*
X-68382Y45779D01*
X-68484Y45743D01*
X-68597Y45710D01*
X-68714Y45688D01*
X-68837Y45673D01*
X-68968Y45666D01*
X-69001D01*
X-69038Y45670D01*
X-69092Y45673D01*
X-69154Y45681D01*
X-69223Y45692D01*
X-69303Y45710D01*
X-69391Y45728D01*
X-69482Y45757D01*
X-69576Y45790D01*
X-69675Y45830D01*
X-69773Y45877D01*
X-69867Y45936D01*
X-69962Y46001D01*
X-70050Y46081D01*
X-70133Y46169D01*
X-70137Y46176D01*
X-70151Y46190D01*
X-70173Y46220D01*
X-70199Y46260D01*
X-70231Y46310D01*
X-70268Y46372D01*
X-70304Y46445D01*
X-70344Y46529D01*
X-70384Y46620D01*
X-70421Y46722D01*
X-70457Y46835D01*
X-70490Y46959D01*
X-70515Y47089D01*
X-70537Y47232D01*
X-70552Y47381D01*
D02*
G37*
%LPC*%
G36*
X-69940Y47475D02*
X-69937Y47428D01*
X-69933Y47373D01*
X-69926Y47308D01*
X-69918Y47239D01*
X-69907Y47162D01*
X-69897Y47082D01*
X-69860Y46915D01*
X-69835Y46831D01*
X-69806Y46747D01*
X-69773Y46667D01*
X-69733Y46595D01*
X-69689Y46525D01*
X-69686Y46522D01*
X-69678Y46511D01*
X-69664Y46492D01*
X-69616Y46445D01*
X-69584Y46416D01*
X-69547Y46387D01*
X-69503Y46354D01*
X-69456Y46321D01*
X-69402Y46292D01*
X-69343Y46263D01*
X-69278Y46238D01*
X-69209Y46216D01*
X-69136Y46198D01*
X-69052Y46187D01*
X-68968Y46183D01*
X-68947D01*
X-68925Y46187D01*
X-68892D01*
X-68852Y46194D01*
X-68808Y46201D01*
X-68761Y46212D01*
X-68706Y46227D01*
X-68648Y46241D01*
X-68590Y46263D01*
X-68532Y46292D01*
X-68473Y46325D01*
X-68415Y46362D01*
X-68357Y46409D01*
X-68306Y46460D01*
X-68255Y46518D01*
X-68251Y46522D01*
X-68244Y46533D01*
X-68233Y46554D01*
X-68215Y46580D01*
X-68175Y46660D01*
X-68149Y46715D01*
X-68128Y46773D01*
X-68102Y46838D01*
X-68080Y46915D01*
X-68058Y46999D01*
X-68040Y47089D01*
X-68022Y47191D01*
X-68011Y47297D01*
X-68004Y47414D01*
X-68000Y47537D01*
Y47603D01*
X-68004Y47650D01*
X-68007Y47708D01*
X-68015Y47774D01*
X-68022Y47847D01*
X-68033Y47923D01*
X-68044Y48007D01*
X-68062Y48090D01*
X-68106Y48258D01*
X-68138Y48342D01*
X-68171Y48422D01*
X-68211Y48494D01*
X-68255Y48560D01*
X-68259Y48564D01*
X-68266Y48575D01*
X-68280Y48593D01*
X-68328Y48640D01*
X-68357Y48666D01*
X-68437Y48731D01*
X-68488Y48760D01*
X-68539Y48793D01*
X-68597Y48818D01*
X-68663Y48848D01*
X-68732Y48866D01*
X-68805Y48884D01*
X-68885Y48895D01*
X-68968Y48899D01*
X-68990D01*
X-69012Y48895D01*
X-69045D01*
X-69085Y48888D01*
X-69129Y48880D01*
X-69179Y48869D01*
X-69234Y48855D01*
X-69292Y48837D01*
X-69351Y48815D01*
X-69409Y48789D01*
X-69471Y48757D01*
X-69529Y48717D01*
X-69587Y48673D01*
X-69638Y48618D01*
X-69689Y48560D01*
X-69693Y48556D01*
X-69700Y48546D01*
X-69711Y48524D01*
X-69729Y48498D01*
X-69769Y48418D01*
X-69791Y48367D01*
X-69813Y48305D01*
X-69838Y48240D01*
X-69860Y48163D01*
X-69882Y48080D01*
X-69900Y47989D01*
X-69918Y47887D01*
X-69929Y47778D01*
X-69937Y47661D01*
X-69940Y47537D01*
Y47475D01*
D02*
G37*
%LPD*%
G36*
X-66770Y44454D02*
Y49317D01*
X-66173D01*
Y48942D01*
X-66169Y48946D01*
X-66162Y48950D01*
X-66151Y48961D01*
X-66133Y48975D01*
X-66115Y48993D01*
X-66089Y49011D01*
X-66060Y49037D01*
X-66027Y49059D01*
X-65955Y49113D01*
X-65871Y49168D01*
X-65780Y49222D01*
X-65681Y49277D01*
X-65678D01*
X-65671Y49284D01*
X-65634Y49299D01*
X-65609Y49310D01*
X-65580Y49321D01*
X-65543Y49332D01*
X-65463Y49361D01*
X-65416Y49372D01*
X-65317Y49394D01*
X-65205Y49408D01*
X-65088Y49415D01*
X-65063D01*
X-65030Y49412D01*
X-64986Y49408D01*
X-64935Y49401D01*
X-64877Y49390D01*
X-64811Y49375D01*
X-64739Y49354D01*
X-64666Y49328D01*
X-64586Y49299D01*
X-64506Y49259D01*
X-64429Y49212D01*
X-64349Y49157D01*
X-64273Y49092D01*
X-64200Y49015D01*
X-64135Y48931D01*
X-64131Y48924D01*
X-64120Y48910D01*
X-64102Y48880D01*
X-64080Y48844D01*
X-64025Y48735D01*
X-63996Y48666D01*
X-63963Y48589D01*
X-63931Y48498D01*
X-63902Y48400D01*
X-63872Y48294D01*
X-63847Y48178D01*
X-63825Y48054D01*
X-63807Y47923D01*
X-63796Y47781D01*
X-63792Y47632D01*
Y47574D01*
X-63796Y47548D01*
Y47519D01*
X-63800Y47486D01*
X-63807Y47410D01*
X-63814Y47322D01*
X-63829Y47228D01*
X-63847Y47122D01*
X-63869Y47013D01*
X-63898Y46900D01*
X-63931Y46780D01*
X-63971Y46664D01*
X-64022Y46547D01*
X-64076Y46431D01*
X-64142Y46321D01*
X-64218Y46220D01*
X-64222Y46212D01*
X-64295Y46139D01*
X-64338Y46099D01*
X-64386Y46052D01*
X-64444Y46005D01*
X-64513Y45957D01*
X-64586Y45910D01*
X-64666Y45863D01*
X-64757Y45816D01*
X-64852Y45779D01*
X-64954Y45743D01*
X-65059Y45717D01*
X-65172Y45703D01*
X-65292Y45695D01*
X-65336D01*
X-65358Y45699D01*
X-65387D01*
X-65448Y45703D01*
X-65521Y45710D01*
X-65598Y45721D01*
X-65678Y45735D01*
X-65758Y45757D01*
X-65762D01*
X-65765Y45761D01*
X-65794Y45768D01*
X-65834Y45783D01*
X-65885Y45801D01*
X-65947Y45830D01*
X-66020Y45859D01*
X-66093Y45899D01*
X-66173Y45943D01*
Y44454D01*
X-66770D01*
D02*
G37*
%LPC*%
G36*
X-66173Y46431D02*
X-66169D01*
X-66162Y46427D01*
X-66151Y46420D01*
X-66133Y46413D01*
X-66115Y46402D01*
X-66089Y46391D01*
X-66035Y46369D01*
X-65973Y46340D01*
X-65907Y46314D01*
X-65838Y46292D01*
X-65772Y46274D01*
X-65765D01*
X-65743Y46267D01*
X-65707Y46263D01*
X-65663Y46256D01*
X-65605Y46249D01*
X-65539Y46241D01*
X-65467Y46238D01*
X-65390Y46234D01*
X-65368D01*
X-65347Y46238D01*
X-65314D01*
X-65274Y46245D01*
X-65230Y46252D01*
X-65179Y46263D01*
X-65125Y46278D01*
X-65066Y46296D01*
X-65008Y46318D01*
X-64950Y46343D01*
X-64888Y46376D01*
X-64830Y46416D01*
X-64771Y46460D01*
X-64717Y46514D01*
X-64666Y46573D01*
X-64662Y46576D01*
X-64640Y46609D01*
X-64626Y46635D01*
X-64560Y46766D01*
X-64535Y46824D01*
X-64488Y46966D01*
X-64466Y47046D01*
X-64447Y47133D01*
X-64433Y47232D01*
X-64418Y47337D01*
X-64411Y47446D01*
X-64407Y47566D01*
Y47625D01*
X-64411Y47668D01*
X-64415Y47719D01*
X-64418Y47778D01*
X-64422Y47843D01*
X-64433Y47912D01*
X-64444Y47985D01*
X-64455Y48065D01*
X-64491Y48221D01*
X-64513Y48298D01*
X-64539Y48371D01*
X-64568Y48444D01*
X-64604Y48509D01*
X-64608Y48513D01*
X-64611Y48524D01*
X-64626Y48542D01*
X-64640Y48564D01*
X-64662Y48589D01*
X-64753Y48680D01*
X-64797Y48709D01*
X-64841Y48742D01*
X-64895Y48768D01*
X-64950Y48797D01*
X-65012Y48815D01*
X-65081Y48833D01*
X-65154Y48844D01*
X-65234Y48848D01*
X-65277D01*
X-65299Y48844D01*
X-65328Y48840D01*
X-65390Y48833D01*
X-65467Y48818D01*
X-65547Y48800D01*
X-65638Y48771D01*
X-65725Y48731D01*
X-65729D01*
X-65736Y48728D01*
X-65747Y48720D01*
X-65765Y48709D01*
X-65787Y48698D01*
X-65812Y48687D01*
X-65871Y48655D01*
X-65940Y48611D01*
X-66013Y48564D01*
X-66093Y48505D01*
X-66173Y48444D01*
Y46431D01*
D02*
G37*
%LPD*%
G36*
X-61343Y47818D02*
X-61357Y48021D01*
Y48189D01*
X-61353Y48232D01*
Y48283D01*
X-61350Y48342D01*
X-61346Y48411D01*
X-61332Y48564D01*
X-61321Y48647D01*
X-61295Y48826D01*
X-61259Y49004D01*
X-61212Y49179D01*
X-61208Y49183D01*
X-61204Y49201D01*
X-61197Y49222D01*
X-61182Y49255D01*
X-61168Y49295D01*
X-61150Y49339D01*
X-61128Y49390D01*
X-61102Y49445D01*
X-61073Y49503D01*
X-61044Y49568D01*
X-60971Y49696D01*
X-60884Y49827D01*
X-60789Y49954D01*
X-60786Y49958D01*
X-60778Y49969D01*
X-60760Y49983D01*
X-60742Y50005D01*
X-60684Y50063D01*
X-60647Y50096D01*
X-60604Y50133D01*
X-60560Y50173D01*
X-60509Y50209D01*
X-60454Y50249D01*
X-60396Y50289D01*
X-60269Y50366D01*
X-60131Y50435D01*
X-60127Y50438D01*
X-60112Y50442D01*
X-60090Y50449D01*
X-60061Y50460D01*
X-60025Y50471D01*
X-59985Y50486D01*
X-59934Y50500D01*
X-59879Y50518D01*
X-59817Y50533D01*
X-59752Y50547D01*
X-59679Y50562D01*
X-59603Y50573D01*
X-59523Y50584D01*
X-59443Y50591D01*
X-59355Y50599D01*
X-59220D01*
X-59188Y50595D01*
X-59144D01*
X-59093Y50591D01*
X-59039Y50584D01*
X-58977Y50577D01*
X-58911Y50569D01*
X-58842Y50558D01*
X-58696Y50526D01*
X-58547Y50486D01*
X-58471Y50457D01*
X-58398Y50427D01*
X-58394Y50424D01*
X-58380Y50420D01*
X-58361Y50409D01*
X-58332Y50398D01*
X-58300Y50380D01*
X-58259Y50358D01*
X-58216Y50333D01*
X-58169Y50307D01*
X-58067Y50238D01*
X-57957Y50158D01*
X-57848Y50063D01*
X-57743Y49954D01*
X-57739Y49951D01*
X-57732Y49940D01*
X-57717Y49921D01*
X-57699Y49900D01*
X-57677Y49867D01*
X-57648Y49830D01*
X-57619Y49787D01*
X-57590Y49739D01*
X-57557Y49685D01*
X-57521Y49627D01*
X-57488Y49565D01*
X-57451Y49496D01*
X-57419Y49423D01*
X-57386Y49346D01*
X-57353Y49263D01*
X-57324Y49179D01*
X-57320Y49175D01*
X-57317Y49157D01*
X-57310Y49132D01*
X-57299Y49099D01*
X-57288Y49055D01*
X-57277Y49004D01*
X-57262Y48942D01*
X-57248Y48877D01*
X-57233Y48800D01*
X-57218Y48720D01*
X-57208Y48636D01*
X-57186Y48447D01*
X-57178Y48345D01*
X-57171Y48240D01*
Y48076D01*
X-57175Y48032D01*
Y47981D01*
X-57178Y47923D01*
X-57182Y47857D01*
X-57189Y47785D01*
X-57197Y47705D01*
X-57208Y47621D01*
X-57233Y47446D01*
X-57269Y47264D01*
X-57320Y47086D01*
Y47082D01*
X-57328Y47064D01*
X-57346Y47009D01*
X-57364Y46969D01*
X-57382Y46922D01*
X-57404Y46871D01*
X-57426Y46817D01*
X-57455Y46755D01*
X-57488Y46693D01*
X-57561Y46565D01*
X-57644Y46434D01*
X-57743Y46310D01*
X-57757Y46296D01*
X-57772Y46278D01*
X-57794Y46256D01*
X-57823Y46231D01*
X-57892Y46161D01*
X-57936Y46125D01*
X-57983Y46085D01*
X-58034Y46045D01*
X-58088Y46005D01*
X-58147Y45965D01*
X-58278Y45888D01*
X-58343Y45856D01*
X-58416Y45823D01*
X-58420D01*
X-58434Y45816D01*
X-58456Y45808D01*
X-58485Y45797D01*
X-58562Y45772D01*
X-58613Y45761D01*
X-58667Y45746D01*
X-58729Y45732D01*
X-58795Y45717D01*
X-58864Y45703D01*
X-58937Y45692D01*
X-59017Y45681D01*
X-59097Y45673D01*
X-59180Y45670D01*
X-59268Y45666D01*
X-59315D01*
X-59348Y45670D01*
X-59392D01*
X-59439Y45673D01*
X-59555Y45688D01*
X-59621Y45695D01*
X-59690Y45706D01*
X-59836Y45735D01*
X-59985Y45775D01*
X-60061Y45797D01*
X-60134Y45826D01*
X-60138Y45830D01*
X-60152Y45834D01*
X-60171Y45845D01*
X-60200Y45856D01*
X-60232Y45874D01*
X-60269Y45896D01*
X-60312Y45921D01*
X-60360Y45950D01*
X-60411Y45979D01*
X-60462Y46016D01*
X-60516Y46056D01*
X-60575Y46099D01*
X-60629Y46147D01*
X-60684Y46198D01*
X-60738Y46252D01*
X-60793Y46310D01*
X-60797Y46314D01*
X-60804Y46325D01*
X-60818Y46343D01*
X-60837Y46365D01*
X-60862Y46398D01*
X-60888Y46434D01*
X-60917Y46478D01*
X-60946Y46525D01*
X-60982Y46580D01*
X-61015Y46638D01*
X-61051Y46700D01*
X-61084Y46769D01*
X-61121Y46842D01*
X-61153Y46918D01*
X-61212Y47086D01*
Y47089D01*
X-61219Y47108D01*
X-61226Y47133D01*
X-61233Y47166D01*
X-61244Y47210D01*
X-61259Y47264D01*
X-61270Y47322D01*
X-61284Y47392D01*
X-61299Y47464D01*
X-61310Y47545D01*
X-61324Y47632D01*
X-61335Y47723D01*
X-61343Y47818D01*
D02*
G37*
%LPC*%
G36*
X-60702Y48069D02*
X-60698Y48039D01*
Y48010D01*
X-60695Y47978D01*
X-60691Y47898D01*
X-60680Y47810D01*
X-60669Y47708D01*
X-60655Y47603D01*
X-60633Y47486D01*
X-60607Y47370D01*
X-60575Y47250D01*
X-60538Y47133D01*
X-60495Y47017D01*
X-60440Y46904D01*
X-60382Y46798D01*
X-60312Y46700D01*
X-60309Y46696D01*
X-60294Y46678D01*
X-60203Y46587D01*
X-60156Y46543D01*
X-60098Y46500D01*
X-60036Y46456D01*
X-59963Y46409D01*
X-59887Y46365D01*
X-59799Y46321D01*
X-59705Y46285D01*
X-59606Y46252D01*
X-59497Y46231D01*
X-59384Y46216D01*
X-59264Y46209D01*
X-59235D01*
X-59202Y46212D01*
X-59155Y46216D01*
X-59100Y46223D01*
X-59035Y46234D01*
X-58962Y46249D01*
X-58886Y46270D01*
X-58806Y46296D01*
X-58718Y46329D01*
X-58631Y46369D01*
X-58543Y46416D01*
X-58456Y46471D01*
X-58372Y46536D01*
X-58292Y46613D01*
X-58216Y46700D01*
X-58212Y46707D01*
X-58198Y46722D01*
X-58179Y46751D01*
X-58154Y46791D01*
X-58125Y46842D01*
X-58056Y46980D01*
X-58019Y47064D01*
X-57983Y47159D01*
X-57950Y47268D01*
X-57917Y47384D01*
X-57888Y47512D01*
X-57863Y47650D01*
X-57845Y47799D01*
X-57830Y47960D01*
X-57826Y48131D01*
Y48211D01*
X-57830Y48251D01*
Y48298D01*
X-57834Y48353D01*
X-57837Y48411D01*
X-57845Y48473D01*
X-57852Y48538D01*
X-57870Y48680D01*
X-57895Y48822D01*
X-57928Y48961D01*
Y48964D01*
X-57939Y48997D01*
X-57946Y49022D01*
X-57957Y49051D01*
X-57972Y49088D01*
X-57986Y49128D01*
X-58001Y49172D01*
X-58045Y49270D01*
X-58092Y49368D01*
X-58150Y49470D01*
X-58216Y49565D01*
X-58219Y49568D01*
X-58223Y49576D01*
X-58234Y49586D01*
X-58249Y49605D01*
X-58267Y49627D01*
X-58343Y49703D01*
X-58409Y49761D01*
X-58485Y49823D01*
X-58573Y49881D01*
X-58667Y49932D01*
X-58671D01*
X-58693Y49943D01*
X-58714Y49951D01*
X-58740Y49962D01*
X-58769Y49972D01*
X-58802Y49983D01*
X-58882Y50005D01*
X-58929Y50016D01*
X-59031Y50038D01*
X-59144Y50052D01*
X-59264Y50056D01*
X-59322D01*
X-59351Y50052D01*
X-59384Y50049D01*
X-59424Y50045D01*
X-59468Y50042D01*
X-59563Y50027D01*
X-59661Y50005D01*
X-59763Y49976D01*
X-59865Y49936D01*
X-59868D01*
X-59876Y49929D01*
X-59890Y49925D01*
X-59908Y49914D01*
X-59930Y49900D01*
X-59956Y49885D01*
X-60018Y49845D01*
X-60087Y49794D01*
X-60163Y49729D01*
X-60240Y49652D01*
X-60316Y49565D01*
X-60320Y49561D01*
X-60323Y49554D01*
X-60334Y49539D01*
X-60345Y49521D01*
X-60382Y49470D01*
X-60400Y49434D01*
X-60422Y49397D01*
X-60444Y49354D01*
X-60469Y49310D01*
X-60491Y49259D01*
X-60516Y49204D01*
X-60564Y49084D01*
X-60604Y48953D01*
Y48950D01*
X-60607Y48935D01*
X-60611Y48917D01*
X-60618Y48888D01*
X-60625Y48855D01*
X-60636Y48815D01*
X-60644Y48768D01*
X-60651Y48713D01*
X-60662Y48655D01*
X-60669Y48593D01*
X-60680Y48524D01*
X-60687Y48454D01*
X-60691Y48378D01*
X-60698Y48298D01*
X-60702Y48131D01*
Y48069D01*
D02*
G37*
%LPD*%
G36*
X-55613Y45764D02*
X-56942Y49317D01*
X-56298D01*
X-55326Y46576D01*
X-54357Y49317D01*
X-53735D01*
X-55075Y45764D01*
X-55613D01*
D02*
G37*
G36*
X-53524Y47359D02*
X-53527Y47519D01*
Y47559D01*
X-53524Y47577D01*
Y47632D01*
X-53520Y47665D01*
X-53513Y47737D01*
X-53502Y47821D01*
X-53491Y47916D01*
X-53469Y48018D01*
X-53447Y48127D01*
X-53418Y48240D01*
X-53382Y48353D01*
X-53338Y48469D01*
X-53284Y48586D01*
X-53225Y48695D01*
X-53156Y48804D01*
X-53076Y48902D01*
X-53073Y48910D01*
X-53054Y48924D01*
X-53029Y48950D01*
X-52992Y48982D01*
X-52949Y49022D01*
X-52894Y49066D01*
X-52829Y49110D01*
X-52756Y49161D01*
X-52676Y49208D01*
X-52585Y49252D01*
X-52486Y49295D01*
X-52381Y49335D01*
X-52268Y49368D01*
X-52148Y49394D01*
X-52021Y49408D01*
X-51886Y49415D01*
X-51831D01*
X-51802Y49412D01*
X-51766D01*
X-51729Y49408D01*
X-51689Y49404D01*
X-51598Y49390D01*
X-51500Y49375D01*
X-51398Y49350D01*
X-51300Y49317D01*
X-51296D01*
X-51274Y49306D01*
X-51256Y49299D01*
X-51234Y49288D01*
X-51209Y49277D01*
X-51147Y49244D01*
X-51078Y49204D01*
X-51005Y49150D01*
X-50929Y49092D01*
X-50852Y49015D01*
X-50849Y49008D01*
X-50823Y48982D01*
X-50808Y48964D01*
X-50790Y48939D01*
X-50747Y48880D01*
X-50699Y48808D01*
X-50648Y48724D01*
X-50601Y48626D01*
X-50561Y48520D01*
Y48516D01*
X-50557Y48505D01*
X-50550Y48491D01*
X-50546Y48469D01*
X-50535Y48440D01*
X-50528Y48407D01*
X-50521Y48367D01*
X-50499Y48272D01*
X-50492Y48218D01*
X-50481Y48160D01*
X-50474Y48094D01*
X-50470Y48029D01*
X-50463Y47956D01*
X-50459Y47803D01*
Y47479D01*
X-52920D01*
Y47453D01*
X-52916Y47421D01*
Y47377D01*
X-52909Y47326D01*
X-52901Y47264D01*
X-52894Y47199D01*
X-52865Y47053D01*
X-52843Y46973D01*
X-52818Y46893D01*
X-52789Y46817D01*
X-52752Y46740D01*
X-52712Y46664D01*
X-52665Y46595D01*
X-52610Y46529D01*
X-52596Y46514D01*
X-52578Y46500D01*
X-52552Y46478D01*
X-52519Y46453D01*
X-52483Y46427D01*
X-52435Y46398D01*
X-52385Y46369D01*
X-52326Y46336D01*
X-52261Y46307D01*
X-52192Y46281D01*
X-52115Y46256D01*
X-52031Y46234D01*
X-51944Y46220D01*
X-51850Y46209D01*
X-51748Y46205D01*
X-51715D01*
X-51675Y46209D01*
X-51624Y46212D01*
X-51566Y46216D01*
X-51500Y46223D01*
X-51431Y46234D01*
X-51362Y46249D01*
X-51358D01*
X-51354Y46252D01*
X-51344D01*
X-51329Y46256D01*
X-51293Y46267D01*
X-51249Y46278D01*
X-51194Y46296D01*
X-51136Y46314D01*
X-51020Y46362D01*
X-51016D01*
X-51012Y46365D01*
X-50990Y46372D01*
X-50881Y46427D01*
X-50834Y46453D01*
X-50747Y46503D01*
X-50743Y46507D01*
X-50728Y46514D01*
X-50706Y46529D01*
X-50681Y46547D01*
X-50619Y46587D01*
X-50590Y46613D01*
X-50561Y46635D01*
X-50524D01*
Y45983D01*
X-50528Y45979D01*
X-50543Y45976D01*
X-50565Y45965D01*
X-50597Y45954D01*
X-50634Y45939D01*
X-50681Y45921D01*
X-50732Y45899D01*
X-50787Y45877D01*
X-50794Y45874D01*
X-50812Y45867D01*
X-50841Y45856D01*
X-50881Y45841D01*
X-50925Y45826D01*
X-51067Y45783D01*
X-51070D01*
X-51074Y45779D01*
X-51096Y45775D01*
X-51129Y45768D01*
X-51172Y45757D01*
X-51220Y45743D01*
X-51384Y45710D01*
X-51391D01*
X-51409Y45706D01*
X-51438Y45703D01*
X-51482Y45699D01*
X-51533Y45692D01*
X-51595Y45688D01*
X-51664Y45684D01*
X-51777D01*
X-51798Y45688D01*
X-51820D01*
X-51882Y45692D01*
X-51951Y45699D01*
X-52035Y45710D01*
X-52126Y45724D01*
X-52224Y45743D01*
X-52330Y45768D01*
X-52435Y45801D01*
X-52548Y45841D01*
X-52658Y45885D01*
X-52767Y45939D01*
X-52869Y46005D01*
X-52971Y46078D01*
X-53062Y46161D01*
X-53065Y46169D01*
X-53080Y46183D01*
X-53105Y46212D01*
X-53134Y46249D01*
X-53171Y46300D01*
X-53207Y46358D01*
X-53251Y46431D01*
X-53295Y46511D01*
X-53338Y46602D01*
X-53378Y46704D01*
X-53418Y46813D01*
X-53455Y46937D01*
X-53484Y47068D01*
X-53506Y47210D01*
X-53524Y47359D01*
D02*
G37*
%LPC*%
G36*
X-52920Y47938D02*
X-51041D01*
Y47978D01*
X-51045Y48000D01*
Y48021D01*
X-51052Y48080D01*
X-51060Y48145D01*
X-51081Y48283D01*
X-51100Y48353D01*
Y48356D01*
X-51103Y48360D01*
X-51121Y48414D01*
X-51136Y48454D01*
X-51158Y48502D01*
X-51183Y48549D01*
X-51213Y48600D01*
X-51245Y48647D01*
X-51249Y48655D01*
X-51318Y48724D01*
X-51358Y48757D01*
X-51402Y48789D01*
X-51456Y48822D01*
X-51522Y48855D01*
X-51544Y48862D01*
X-51580Y48873D01*
X-51627Y48888D01*
X-51686Y48902D01*
X-51755Y48913D01*
X-51831Y48920D01*
X-51919Y48924D01*
X-51959D01*
X-51981Y48920D01*
X-52002D01*
X-52061Y48917D01*
X-52122Y48906D01*
X-52192Y48895D01*
X-52261Y48877D01*
X-52326Y48851D01*
X-52385Y48822D01*
X-52428Y48797D01*
X-52472Y48768D01*
X-52523Y48735D01*
X-52578Y48691D01*
X-52628Y48644D01*
X-52636Y48636D01*
X-52650Y48618D01*
X-52676Y48589D01*
X-52705Y48553D01*
X-52738Y48505D01*
X-52770Y48451D01*
X-52803Y48393D01*
X-52832Y48331D01*
Y48327D01*
X-52836Y48324D01*
X-52843Y48302D01*
X-52854Y48265D01*
X-52869Y48218D01*
X-52883Y48160D01*
X-52898Y48094D01*
X-52912Y48018D01*
X-52920Y47938D01*
D02*
G37*
%LPD*%
G36*
X-49855Y45764D02*
Y49317D01*
X-49258D01*
Y48786D01*
X-49243Y48800D01*
X-49225Y48815D01*
X-49203Y48833D01*
X-49174Y48858D01*
X-49141Y48884D01*
X-49105Y48913D01*
X-49065Y48946D01*
X-48974Y49015D01*
X-48785Y49146D01*
X-48690Y49197D01*
X-48686D01*
X-48628Y49226D01*
X-48599Y49233D01*
X-48541Y49259D01*
X-48468Y49281D01*
X-48388Y49299D01*
X-48304Y49314D01*
X-48217Y49317D01*
X-48166D01*
X-48118Y49314D01*
X-48097D01*
X-48078Y49310D01*
X-48071D01*
X-48046Y49306D01*
X-48013Y49303D01*
X-47973Y49295D01*
Y48673D01*
X-48009D01*
X-48017Y48676D01*
X-48031Y48680D01*
X-48049Y48684D01*
X-48097Y48691D01*
X-48151Y48695D01*
X-48166D01*
X-48180Y48698D01*
X-48224D01*
X-48257Y48702D01*
X-48366D01*
X-48392Y48698D01*
X-48417D01*
X-48479Y48687D01*
X-48552Y48676D01*
X-48632Y48658D01*
X-48719Y48633D01*
X-48810Y48597D01*
X-48814D01*
X-48821Y48593D01*
X-48832Y48586D01*
X-48850Y48578D01*
X-48872Y48567D01*
X-48897Y48553D01*
X-48956Y48516D01*
X-49025Y48473D01*
X-49098Y48422D01*
X-49178Y48356D01*
X-49258Y48283D01*
Y45764D01*
X-49855D01*
D02*
G37*
G36*
X-47496D02*
Y50711D01*
X-46899D01*
Y45764D01*
X-47496D01*
D02*
G37*
G36*
X-46266Y46707D02*
X-46269Y46795D01*
Y46831D01*
X-46266Y46856D01*
Y46889D01*
X-46262Y46926D01*
X-46255Y46966D01*
X-46251Y47009D01*
X-46233Y47108D01*
X-46204Y47213D01*
X-46167Y47319D01*
X-46117Y47421D01*
X-46113Y47424D01*
X-46109Y47432D01*
X-46098Y47446D01*
X-46087Y47464D01*
X-46069Y47486D01*
X-46025Y47537D01*
X-45996Y47570D01*
X-45964Y47603D01*
X-45927Y47635D01*
X-45887Y47668D01*
X-45840Y47705D01*
X-45792Y47737D01*
X-45742Y47770D01*
X-45683Y47803D01*
X-45621Y47832D01*
X-45618D01*
X-45607Y47839D01*
X-45592Y47847D01*
X-45567Y47854D01*
X-45541Y47865D01*
X-45505Y47879D01*
X-45465Y47894D01*
X-45421Y47908D01*
X-45374Y47923D01*
X-45319Y47938D01*
X-45261Y47956D01*
X-45199Y47970D01*
X-45064Y48000D01*
X-44919Y48021D01*
X-44915D01*
X-44901Y48025D01*
X-44879D01*
X-44846Y48029D01*
X-44810Y48036D01*
X-44766Y48040D01*
X-44715Y48047D01*
X-44657Y48050D01*
X-44526Y48065D01*
X-44453Y48072D01*
X-44377Y48080D01*
X-44213Y48090D01*
X-44038Y48101D01*
Y48247D01*
X-44042Y48287D01*
X-44045Y48334D01*
X-44053Y48389D01*
X-44082Y48498D01*
X-44104Y48549D01*
X-44115Y48571D01*
X-44129Y48593D01*
X-44147Y48622D01*
X-44173Y48655D01*
X-44205Y48687D01*
X-44242Y48720D01*
X-44282Y48749D01*
X-44286Y48753D01*
X-44304Y48760D01*
X-44326Y48775D01*
X-44358Y48789D01*
X-44398Y48804D01*
X-44449Y48822D01*
X-44500Y48837D01*
X-44562Y48848D01*
X-44570D01*
X-44591Y48851D01*
X-44624Y48855D01*
X-44664Y48862D01*
X-44715Y48866D01*
X-44773Y48869D01*
X-44835Y48873D01*
X-44959D01*
X-44981Y48869D01*
X-45010D01*
X-45039Y48866D01*
X-45112Y48859D01*
X-45196Y48848D01*
X-45287Y48833D01*
X-45388Y48811D01*
X-45392D01*
X-45399Y48808D01*
X-45436Y48800D01*
X-45461Y48793D01*
X-45490Y48786D01*
X-45527Y48775D01*
X-45563Y48768D01*
X-45647Y48742D01*
X-45742Y48709D01*
X-45843Y48673D01*
X-45949Y48633D01*
X-45982D01*
Y49237D01*
X-45978D01*
X-45974Y49241D01*
X-45964D01*
X-45953Y49244D01*
X-45935Y49252D01*
X-45913Y49255D01*
X-45891Y49263D01*
X-45862Y49270D01*
X-45792Y49284D01*
X-45712Y49303D01*
X-45618Y49321D01*
X-45509Y49343D01*
X-45505D01*
X-45494Y49346D01*
X-45480Y49350D01*
X-45428Y49357D01*
X-45396Y49361D01*
X-45356Y49368D01*
X-45316Y49372D01*
X-45225Y49383D01*
X-45119Y49394D01*
X-45010Y49397D01*
X-44897Y49401D01*
X-44806D01*
X-44770Y49397D01*
X-44730D01*
X-44588Y49386D01*
X-44482Y49375D01*
X-44380Y49361D01*
X-44282Y49343D01*
X-44278D01*
X-44271Y49339D01*
X-44256Y49335D01*
X-44238Y49332D01*
X-44216Y49325D01*
X-44191Y49317D01*
X-44129Y49295D01*
X-44060Y49266D01*
X-43983Y49230D01*
X-43903Y49186D01*
X-43827Y49135D01*
X-43823D01*
X-43820Y49128D01*
X-43809Y49121D01*
X-43794Y49110D01*
X-43718Y49033D01*
X-43670Y48979D01*
X-43623Y48913D01*
X-43579Y48840D01*
X-43539Y48757D01*
Y48753D01*
X-43536Y48746D01*
X-43528Y48735D01*
X-43525Y48717D01*
X-43518Y48691D01*
X-43507Y48666D01*
X-43499Y48633D01*
X-43488Y48600D01*
X-43481Y48560D01*
X-43474Y48516D01*
X-43456Y48422D01*
X-43445Y48313D01*
X-43441Y48192D01*
Y45765D01*
X-44038D01*
Y46143D01*
X-44042Y46139D01*
X-44053Y46132D01*
X-44067Y46121D01*
X-44093Y46103D01*
X-44122Y46081D01*
X-44155Y46056D01*
X-44195Y46027D01*
X-44238Y45990D01*
X-44242Y45987D01*
X-44260Y45976D01*
X-44282Y45957D01*
X-44311Y45936D01*
X-44347Y45910D01*
X-44427Y45859D01*
X-44478Y45834D01*
X-44497Y45823D01*
X-44529Y45808D01*
X-44570Y45794D01*
X-44617Y45772D01*
X-44668Y45750D01*
X-44781Y45714D01*
X-44788Y45710D01*
X-44806Y45706D01*
X-44839Y45699D01*
X-44886Y45692D01*
X-44944Y45681D01*
X-45017Y45674D01*
X-45097Y45670D01*
X-45192Y45666D01*
X-45228D01*
X-45250Y45670D01*
X-45272D01*
X-45327Y45677D01*
X-45392Y45688D01*
X-45461Y45703D01*
X-45538Y45721D01*
X-45610Y45750D01*
X-45614D01*
X-45618Y45754D01*
X-45629Y45757D01*
X-45680Y45783D01*
X-45727Y45808D01*
X-45782Y45841D01*
X-45840Y45881D01*
X-45898Y45928D01*
X-45956Y45979D01*
X-45964Y45987D01*
X-45978Y46005D01*
X-46007Y46038D01*
X-46036Y46078D01*
X-46073Y46132D01*
X-46113Y46194D01*
X-46149Y46263D01*
X-46186Y46340D01*
Y46343D01*
X-46189Y46351D01*
X-46193Y46362D01*
X-46200Y46376D01*
X-46204Y46398D01*
X-46211Y46420D01*
X-46226Y46478D01*
X-46244Y46543D01*
X-46255Y46624D01*
X-46266Y46707D01*
D02*
G37*
%LPC*%
G36*
X-45654Y46806D02*
X-45651Y46784D01*
Y46758D01*
X-45643Y46729D01*
X-45632Y46664D01*
X-45610Y46587D01*
X-45581Y46511D01*
X-45538Y46438D01*
X-45512Y46405D01*
X-45483Y46372D01*
X-45480D01*
X-45476Y46365D01*
X-45465Y46358D01*
X-45450Y46347D01*
X-45432Y46336D01*
X-45410Y46325D01*
X-45385Y46311D01*
X-45356Y46296D01*
X-45323Y46281D01*
X-45287Y46267D01*
X-45199Y46245D01*
X-45148Y46234D01*
X-45097Y46227D01*
X-45043Y46223D01*
X-44981Y46220D01*
X-44952D01*
X-44934Y46223D01*
X-44908D01*
X-44879Y46227D01*
X-44846Y46231D01*
X-44810Y46234D01*
X-44733Y46249D01*
X-44646Y46270D01*
X-44559Y46300D01*
X-44471Y46340D01*
X-44468D01*
X-44460Y46347D01*
X-44449Y46351D01*
X-44413Y46372D01*
X-44388Y46387D01*
X-44329Y46423D01*
X-44264Y46467D01*
X-44191Y46518D01*
X-44115Y46573D01*
X-44038Y46638D01*
Y47625D01*
X-44049D01*
X-44060Y47621D01*
X-44078D01*
X-44096Y47617D01*
X-44122D01*
X-44187Y47610D01*
X-44224Y47606D01*
X-44264Y47603D01*
X-44358Y47592D01*
X-44464Y47581D01*
X-44580Y47570D01*
X-44595D01*
X-44613Y47566D01*
X-44635Y47563D01*
X-44660Y47559D01*
X-44693Y47555D01*
X-44730Y47552D01*
X-44766Y47545D01*
X-44850Y47534D01*
X-45024Y47497D01*
X-45105Y47475D01*
X-45108D01*
X-45116Y47472D01*
X-45126Y47468D01*
X-45145Y47461D01*
X-45188Y47446D01*
X-45243Y47421D01*
X-45308Y47388D01*
X-45374Y47352D01*
X-45439Y47304D01*
X-45501Y47253D01*
X-45509Y47246D01*
X-45527Y47224D01*
X-45549Y47191D01*
X-45578Y47144D01*
X-45607Y47086D01*
X-45629Y47013D01*
X-45647Y46929D01*
X-45654Y46835D01*
Y46806D01*
D02*
G37*
%LPD*%
G36*
X-41723Y45932D02*
X-43015Y49317D01*
X-42371D01*
X-41399Y46682D01*
X-40431Y49317D01*
X-39808D01*
X-41723Y44454D01*
X-42360D01*
X-41723Y45932D01*
D02*
G37*
G36*
X15877Y102362D02*
Y103972D01*
X22054D01*
Y107408D01*
X23504D01*
Y102362D01*
X15877D01*
D02*
G37*
G36*
Y108553D02*
Y113508D01*
X17244D01*
Y110156D01*
X18903D01*
Y113327D01*
X20277D01*
Y110156D01*
X22151D01*
Y113661D01*
X23504D01*
Y108553D01*
X15877D01*
D02*
G37*
G36*
Y114826D02*
Y116728D01*
X15884Y116804D01*
X15891Y116908D01*
X15898Y117026D01*
X15905Y117158D01*
X15926Y117297D01*
X15939Y117450D01*
X15967Y117609D01*
X16030Y117929D01*
X16071Y118095D01*
X16120Y118255D01*
X16182Y118407D01*
X16245Y118553D01*
X16252Y118560D01*
X16259Y118588D01*
X16286Y118623D01*
X16314Y118678D01*
X16356Y118741D01*
X16404Y118810D01*
X16460Y118893D01*
X16529Y118977D01*
X16606Y119067D01*
X16696Y119164D01*
X16793Y119261D01*
X16897Y119351D01*
X17015Y119442D01*
X17140Y119532D01*
X17279Y119615D01*
X17432Y119691D01*
X17438Y119698D01*
X17466Y119705D01*
X17515Y119726D01*
X17584Y119754D01*
X17668Y119782D01*
X17765Y119809D01*
X17883Y119844D01*
X18014Y119886D01*
X18167Y119920D01*
X18334Y119955D01*
X18514Y119983D01*
X18715Y120011D01*
X18924Y120038D01*
X19153Y120059D01*
X19389Y120066D01*
X19645Y120073D01*
X19777D01*
X19874Y120066D01*
X19992Y120059D01*
X20131Y120052D01*
X20284Y120045D01*
X20450Y120031D01*
X20624Y120011D01*
X20804Y119990D01*
X21179Y119927D01*
X21366Y119886D01*
X21547Y119837D01*
X21721Y119782D01*
X21887Y119719D01*
X21894Y119712D01*
X21922Y119705D01*
X21970Y119684D01*
X22026Y119650D01*
X22095Y119615D01*
X22172Y119567D01*
X22262Y119511D01*
X22352Y119448D01*
X22456Y119372D01*
X22553Y119289D01*
X22761Y119095D01*
X22859Y118983D01*
X22949Y118859D01*
X23039Y118727D01*
X23115Y118588D01*
X23122Y118581D01*
X23129Y118553D01*
X23150Y118512D01*
X23178Y118449D01*
X23206Y118373D01*
X23240Y118276D01*
X23275Y118165D01*
X23310Y118040D01*
X23344Y117901D01*
X23379Y117748D01*
X23414Y117575D01*
X23442Y117394D01*
X23469Y117200D01*
X23490Y116985D01*
X23497Y116763D01*
X23504Y116527D01*
Y114826D01*
X15877D01*
D02*
G37*
%LPC*%
G36*
X17244Y116430D02*
X22151D01*
Y116756D01*
X22144Y116804D01*
X22137Y116860D01*
X22130Y116929D01*
X22116Y117013D01*
X22095Y117103D01*
X22068Y117200D01*
X22033Y117297D01*
X21984Y117401D01*
X21929Y117505D01*
X21866Y117609D01*
X21790Y117707D01*
X21700Y117804D01*
X21596Y117887D01*
X21478Y117963D01*
X21471Y117970D01*
X21443Y117977D01*
X21408Y117998D01*
X21353Y118026D01*
X21283Y118053D01*
X21200Y118081D01*
X21103Y118116D01*
X20992Y118158D01*
X20867Y118192D01*
X20735Y118227D01*
X20582Y118255D01*
X20423Y118283D01*
X20249Y118310D01*
X20062Y118331D01*
X19861Y118338D01*
X19652Y118345D01*
X19548D01*
X19493Y118338D01*
X19430D01*
X19278Y118324D01*
X19187Y118310D01*
X19090Y118297D01*
X18889Y118262D01*
X18674Y118213D01*
X18445Y118151D01*
X18223Y118074D01*
X18008Y117970D01*
X17799Y117845D01*
X17709Y117776D01*
X17619Y117693D01*
X17543Y117609D01*
X17466Y117519D01*
X17404Y117422D01*
X17348Y117311D01*
X17307Y117200D01*
X17272Y117075D01*
X17251Y116943D01*
X17244Y116804D01*
Y116430D01*
D02*
G37*
%LPD*%
G36*
X15877Y127471D02*
Y130219D01*
X15884Y130303D01*
X15891Y130407D01*
X15905Y130518D01*
X15919Y130650D01*
X15939Y130788D01*
X15967Y130934D01*
X16002Y131094D01*
X16037Y131246D01*
X16085Y131406D01*
X16210Y131711D01*
X16286Y131857D01*
X16377Y131996D01*
X16384Y132003D01*
X16398Y132024D01*
X16432Y132059D01*
X16474Y132107D01*
X16529Y132163D01*
X16599Y132218D01*
X16682Y132288D01*
X16779Y132350D01*
X16890Y132419D01*
X17015Y132482D01*
X17154Y132537D01*
X17314Y132593D01*
X17480Y132641D01*
X17668Y132676D01*
X17869Y132697D01*
X18091Y132704D01*
X18167D01*
X18223Y132697D01*
X18292Y132690D01*
X18375Y132683D01*
X18466Y132676D01*
X18563Y132662D01*
X18778Y132621D01*
X19000Y132558D01*
X19111Y132517D01*
X19222Y132468D01*
X19326Y132412D01*
X19430Y132350D01*
X19437Y132343D01*
X19451Y132336D01*
X19479Y132315D01*
X19514Y132288D01*
X19562Y132253D01*
X19611Y132211D01*
X19666Y132163D01*
X19722Y132107D01*
X19847Y131975D01*
X19978Y131816D01*
X20097Y131635D01*
X20201Y131427D01*
Y131420D01*
X20208Y131399D01*
X20221Y131371D01*
X20235Y131323D01*
X20256Y131274D01*
X20298Y131135D01*
X20319Y131052D01*
X20339Y130962D01*
X20360Y130865D01*
X20402Y130643D01*
X20430Y130407D01*
X20437Y130150D01*
Y129081D01*
X23504D01*
Y127471D01*
X15877D01*
D02*
G37*
%LPC*%
G36*
X17126Y129081D02*
X19118D01*
Y129886D01*
X19111Y129983D01*
X19104Y130095D01*
X19097Y130212D01*
X19083Y130330D01*
X19062Y130435D01*
Y130448D01*
X19049Y130476D01*
X19035Y130525D01*
X19007Y130587D01*
X18972Y130657D01*
X18924Y130726D01*
X18861Y130795D01*
X18785Y130865D01*
X18771Y130872D01*
X18743Y130893D01*
X18688Y130920D01*
X18611Y130948D01*
X18514Y130976D01*
X18396Y131004D01*
X18250Y131024D01*
X18084Y131031D01*
X18028D01*
X17994Y131024D01*
X17952D01*
X17897Y131017D01*
X17779Y130997D01*
X17654Y130962D01*
X17529Y130906D01*
X17418Y130837D01*
X17369Y130788D01*
X17327Y130740D01*
X17321Y130726D01*
X17293Y130684D01*
X17265Y130622D01*
X17223Y130532D01*
X17189Y130421D01*
X17154Y130289D01*
X17133Y130143D01*
X17126Y129970D01*
Y129081D01*
D02*
G37*
%LPD*%
G36*
X16092Y173698D02*
X15877Y173865D01*
Y175066D01*
X22303D01*
Y176683D01*
X23504D01*
Y171957D01*
X22303D01*
Y173719D01*
X17744D01*
X17792Y173671D01*
X17820Y173629D01*
X17862Y173587D01*
X17910Y173532D01*
X18014Y173407D01*
X18139Y173261D01*
X18389Y172942D01*
X18500Y172782D01*
Y172775D01*
X18514Y172762D01*
X18528Y172741D01*
X18542Y172713D01*
X18570Y172671D01*
X18598Y172623D01*
X18625Y172567D01*
X18660Y172512D01*
X18729Y172366D01*
X18799Y172206D01*
X18875Y172019D01*
X18945Y171818D01*
X17626D01*
Y171825D01*
X17612Y171845D01*
X17598Y171880D01*
X17577Y171922D01*
X17557Y171970D01*
X17522Y172033D01*
X17487Y172109D01*
X17445Y172186D01*
X17348Y172352D01*
X17230Y172539D01*
X17085Y172734D01*
X16925Y172928D01*
X16842Y173011D01*
X16800Y173060D01*
X16689Y173171D01*
X16620Y173233D01*
X16467Y173379D01*
X16286Y173539D01*
X16092Y173698D01*
D02*
G37*
G36*
X17619Y156425D02*
X17612Y156612D01*
Y156682D01*
X17619Y156716D01*
Y156758D01*
X17640Y156862D01*
X17661Y156987D01*
X17695Y157126D01*
X17744Y157272D01*
X17813Y157424D01*
Y157431D01*
X17820Y157445D01*
X17834Y157466D01*
X17848Y157494D01*
X17890Y157570D01*
X17945Y157667D01*
X18014Y157785D01*
X18098Y157903D01*
X18188Y158021D01*
X18292Y158139D01*
X19298Y157272D01*
X19285Y157258D01*
X19271Y157230D01*
X19243Y157202D01*
X19222Y157167D01*
X19194Y157119D01*
X19160Y157070D01*
X19132Y157008D01*
X19097Y156945D01*
X19069Y156869D01*
X19014Y156702D01*
X18979Y156508D01*
X18972Y156404D01*
X18965Y156293D01*
Y156237D01*
X18972Y156175D01*
X18986Y156099D01*
X19014Y156008D01*
X19049Y155904D01*
X19097Y155800D01*
X19160Y155696D01*
X19167Y155682D01*
X19194Y155655D01*
X19236Y155599D01*
X19298Y155536D01*
X19382Y155467D01*
X19479Y155398D01*
X19597Y155321D01*
X19729Y155252D01*
X19736D01*
X19743Y155245D01*
X19770Y155238D01*
X19798Y155224D01*
X19833Y155210D01*
X19874Y155196D01*
X19985Y155169D01*
X20117Y155141D01*
X20277Y155113D01*
X20450Y155092D01*
X20645Y155085D01*
X23504D01*
Y153545D01*
X20013Y153559D01*
X19881D01*
X19798Y153552D01*
X19708D01*
X19604Y153545D01*
X19507Y153538D01*
X19416Y153524D01*
X19402D01*
X19375Y153517D01*
X19326Y153510D01*
X19250Y153503D01*
X19160Y153489D01*
X19056Y153468D01*
X18931Y153454D01*
X18792Y153427D01*
Y152524D01*
X17723D01*
Y154711D01*
X18695Y154912D01*
X18688D01*
X18667Y154926D01*
X18632Y154940D01*
X18590Y154961D01*
X18535Y154981D01*
X18473Y155016D01*
X18341Y155092D01*
X18195Y155196D01*
X18049Y155321D01*
X17924Y155460D01*
X17869Y155543D01*
X17827Y155627D01*
Y155634D01*
X17806Y155675D01*
X17792Y155710D01*
X17779Y155752D01*
X17758Y155800D01*
X17716Y155925D01*
X17681Y156078D01*
X17647Y156244D01*
X17619Y156425D01*
D02*
G37*
G36*
X17633Y136063D02*
X17619Y136354D01*
Y136431D01*
X17626Y136486D01*
X17633Y136556D01*
X17640Y136639D01*
X17647Y136729D01*
X17661Y136833D01*
X17702Y137048D01*
X17765Y137277D01*
X17806Y137395D01*
X17855Y137513D01*
X17910Y137631D01*
X17973Y137742D01*
X17980Y137749D01*
X17987Y137770D01*
X18008Y137798D01*
X18035Y137839D01*
X18077Y137888D01*
X18119Y137944D01*
X18174Y138006D01*
X18237Y138075D01*
X18306Y138145D01*
X18382Y138214D01*
X18466Y138291D01*
X18556Y138367D01*
X18660Y138436D01*
X18764Y138513D01*
X18882Y138575D01*
X19007Y138638D01*
X19014Y138645D01*
X19076Y138665D01*
X19125Y138686D01*
X19194Y138714D01*
X19271Y138742D01*
X19361Y138769D01*
X19465Y138797D01*
X19576Y138825D01*
X19701Y138853D01*
X19833Y138881D01*
X19978Y138908D01*
X20131Y138929D01*
X20291Y138943D01*
X20457Y138957D01*
X20721D01*
X20784Y138950D01*
X20867D01*
X20957Y138943D01*
X21061Y138929D01*
X21297Y138901D01*
X21429Y138881D01*
X21693Y138825D01*
X21963Y138749D01*
X22095Y138700D01*
X22227Y138645D01*
X22234D01*
X22255Y138631D01*
X22290Y138610D01*
X22338Y138589D01*
X22394Y138554D01*
X22456Y138520D01*
X22609Y138423D01*
X22775Y138291D01*
X22949Y138138D01*
X23115Y137964D01*
X23192Y137860D01*
X23261Y137756D01*
X23268Y137749D01*
X23275Y137728D01*
X23296Y137701D01*
X23317Y137652D01*
X23344Y137597D01*
X23372Y137527D01*
X23407Y137451D01*
X23442Y137361D01*
X23476Y137264D01*
X23511Y137159D01*
X23539Y137041D01*
X23566Y136916D01*
X23608Y136653D01*
X23615Y136507D01*
X23622Y136354D01*
Y136278D01*
X23615Y136215D01*
X23608Y136146D01*
X23601Y136070D01*
X23594Y135973D01*
X23573Y135875D01*
X23532Y135653D01*
X23469Y135417D01*
X23428Y135300D01*
X23379Y135181D01*
X23324Y135064D01*
X23261Y134952D01*
X23254Y134945D01*
X23247Y134925D01*
X23226Y134897D01*
X23192Y134855D01*
X23157Y134807D01*
X23109Y134751D01*
X23060Y134689D01*
X22997Y134626D01*
X22928Y134550D01*
X22852Y134481D01*
X22768Y134404D01*
X22671Y134335D01*
X22574Y134258D01*
X22463Y134189D01*
X22352Y134127D01*
X22227Y134064D01*
X22220D01*
X22199Y134050D01*
X22158Y134036D01*
X22109Y134016D01*
X22040Y133995D01*
X21963Y133967D01*
X21873Y133939D01*
X21776Y133911D01*
X21665Y133884D01*
X21540Y133856D01*
X21408Y133828D01*
X21269Y133807D01*
X21124Y133786D01*
X20964Y133773D01*
X20631Y133759D01*
X20541D01*
X20471Y133766D01*
X20388D01*
X20298Y133773D01*
X20187Y133786D01*
X20069Y133800D01*
X19944Y133814D01*
X19819Y133835D01*
X19541Y133891D01*
X19271Y133967D01*
X19139Y134016D01*
X19007Y134071D01*
X19000Y134078D01*
X18979Y134085D01*
X18945Y134106D01*
X18896Y134134D01*
X18840Y134161D01*
X18778Y134203D01*
X18702Y134251D01*
X18625Y134307D01*
X18459Y134432D01*
X18292Y134585D01*
X18126Y134765D01*
X18049Y134869D01*
X17980Y134973D01*
X17973Y134980D01*
X17966Y135001D01*
X17945Y135036D01*
X17897Y135133D01*
X17869Y135202D01*
X17834Y135279D01*
X17799Y135362D01*
X17765Y135459D01*
X17730Y135570D01*
X17702Y135681D01*
X17674Y135799D01*
X17633Y136063D01*
D02*
G37*
%LPC*%
G36*
X18889Y136306D02*
X18896Y136271D01*
X18903Y136229D01*
X18917Y136181D01*
X18945Y136063D01*
X19000Y135938D01*
X19042Y135869D01*
X19083Y135806D01*
X19139Y135737D01*
X19201Y135674D01*
X19271Y135612D01*
X19354Y135556D01*
X19361D01*
X19375Y135542D01*
X19402Y135529D01*
X19437Y135515D01*
X19486Y135494D01*
X19541Y135466D01*
X19611Y135438D01*
X19687Y135417D01*
X19770Y135390D01*
X19868Y135362D01*
X19972Y135341D01*
X20083Y135313D01*
X20208Y135300D01*
X20339Y135286D01*
X20478Y135272D01*
X20707D01*
X20763Y135279D01*
X20832D01*
X20909Y135286D01*
X20999Y135292D01*
X21096Y135306D01*
X21297Y135341D01*
X21512Y135390D01*
X21713Y135459D01*
X21811Y135501D01*
X21901Y135549D01*
X21908D01*
X21922Y135563D01*
X21943Y135577D01*
X21970Y135598D01*
X22047Y135667D01*
X22130Y135758D01*
X22213Y135869D01*
X22290Y136007D01*
X22317Y136084D01*
X22338Y136167D01*
X22352Y136257D01*
X22359Y136354D01*
Y136403D01*
X22352Y136438D01*
X22345Y136486D01*
X22331Y136535D01*
X22303Y136653D01*
X22248Y136778D01*
X22213Y136847D01*
X22165Y136909D01*
X22116Y136979D01*
X22054Y137041D01*
X21984Y137097D01*
X21901Y137152D01*
X21894D01*
X21880Y137166D01*
X21852Y137180D01*
X21818Y137194D01*
X21769Y137222D01*
X21713Y137243D01*
X21644Y137270D01*
X21568Y137298D01*
X21485Y137319D01*
X21387Y137347D01*
X21283Y137374D01*
X21165Y137395D01*
X21047Y137409D01*
X20915Y137423D01*
X20777Y137437D01*
X20541D01*
X20492Y137430D01*
X20444D01*
X20312Y137423D01*
X20173Y137402D01*
X20013Y137381D01*
X19861Y137347D01*
X19708Y137305D01*
X19701D01*
X19673Y137291D01*
X19645Y137284D01*
X19569Y137250D01*
X19486Y137215D01*
X19389Y137159D01*
X19285Y137097D01*
X19187Y137021D01*
X19104Y136930D01*
X19097Y136916D01*
X19069Y136889D01*
X19035Y136833D01*
X18993Y136771D01*
X18958Y136680D01*
X18924Y136583D01*
X18896Y136472D01*
X18889Y136354D01*
Y136306D01*
D02*
G37*
%LPD*%
G36*
X17647Y148978D02*
X17640Y149138D01*
Y149228D01*
X17647Y149297D01*
X17654Y149374D01*
X17661Y149471D01*
X17674Y149575D01*
X17695Y149686D01*
X17744Y149922D01*
X17779Y150047D01*
X17820Y150172D01*
X17869Y150297D01*
X17924Y150415D01*
X17987Y150533D01*
X18063Y150637D01*
X18084Y150658D01*
X18105Y150685D01*
X18139Y150727D01*
X18181Y150769D01*
X18237Y150817D01*
X18299Y150873D01*
X18369Y150935D01*
X18445Y150998D01*
X18625Y151123D01*
X18729Y151185D01*
X18840Y151241D01*
X18958Y151296D01*
X19090Y151345D01*
X19222Y151386D01*
X19229D01*
X19257Y151393D01*
X19298Y151407D01*
X19354Y151421D01*
X19423Y151435D01*
X19507Y151456D01*
X19604Y151470D01*
X19840Y151511D01*
X19978Y151532D01*
X20124Y151546D01*
X20284Y151560D01*
X20450Y151574D01*
X20631Y151588D01*
X20818Y151595D01*
X21013D01*
Y147903D01*
X21040D01*
X21124Y147916D01*
X21186Y147923D01*
X21249Y147937D01*
X21325Y147951D01*
X21401Y147972D01*
X21575Y148027D01*
X21741Y148104D01*
X21832Y148152D01*
X21984Y148263D01*
X22061Y148340D01*
X22068Y148354D01*
X22088Y148374D01*
X22109Y148402D01*
X22137Y148437D01*
X22165Y148485D01*
X22192Y148541D01*
X22262Y148666D01*
X22290Y148742D01*
X22345Y148916D01*
X22387Y149110D01*
X22394Y149214D01*
X22401Y149325D01*
Y149381D01*
X22394Y149436D01*
Y149520D01*
X22387Y149610D01*
X22373Y149721D01*
X22352Y149832D01*
X22331Y149957D01*
Y149971D01*
X22317Y150012D01*
X22303Y150075D01*
X22283Y150158D01*
X22255Y150248D01*
X22227Y150352D01*
X22158Y150560D01*
X22137Y150602D01*
X22116Y150651D01*
X22088Y150713D01*
X22019Y150845D01*
X21984Y150908D01*
X21943Y150963D01*
X22963Y151463D01*
X22970Y151456D01*
X22990Y151428D01*
X23025Y151379D01*
X23067Y151317D01*
X23115Y151234D01*
X23164Y151137D01*
X23226Y151019D01*
X23282Y150887D01*
Y150880D01*
X23289Y150873D01*
X23296Y150852D01*
X23303Y150824D01*
X23317Y150789D01*
X23365Y150644D01*
X23400Y150526D01*
X23442Y150387D01*
X23483Y150234D01*
X23518Y150068D01*
Y150061D01*
X23525Y150047D01*
Y150026D01*
X23532Y149991D01*
X23539Y149950D01*
X23546Y149901D01*
X23560Y149790D01*
X23580Y149651D01*
X23594Y149506D01*
X23601Y149346D01*
X23608Y149179D01*
Y149117D01*
X23601Y149068D01*
Y149006D01*
X23594Y148937D01*
X23580Y148860D01*
X23566Y148777D01*
X23553Y148680D01*
X23532Y148583D01*
X23476Y148361D01*
X23400Y148132D01*
X23351Y148013D01*
X23296Y147896D01*
X23289Y147889D01*
X23282Y147868D01*
X23261Y147833D01*
X23233Y147792D01*
X23199Y147736D01*
X23157Y147673D01*
X23109Y147604D01*
X23053Y147528D01*
X22914Y147361D01*
X22741Y147188D01*
X22644Y147098D01*
X22539Y147014D01*
X22428Y146931D01*
X22303Y146848D01*
X22297Y146841D01*
X22276Y146827D01*
X22234Y146813D01*
X22185Y146785D01*
X22116Y146750D01*
X22040Y146716D01*
X21943Y146681D01*
X21838Y146646D01*
X21727Y146605D01*
X21602Y146570D01*
X21464Y146535D01*
X21311Y146501D01*
X21158Y146473D01*
X20992Y146459D01*
X20811Y146445D01*
X20631Y146438D01*
X20541D01*
X20478Y146445D01*
X20402D01*
X20305Y146452D01*
X20208Y146466D01*
X19972Y146494D01*
X19847Y146514D01*
X19583Y146570D01*
X19312Y146646D01*
X19180Y146695D01*
X19049Y146750D01*
X19042Y146757D01*
X19021Y146764D01*
X18986Y146785D01*
X18937Y146813D01*
X18882Y146841D01*
X18813Y146882D01*
X18743Y146931D01*
X18667Y146986D01*
X18584Y147049D01*
X18500Y147118D01*
X18410Y147195D01*
X18327Y147278D01*
X18160Y147458D01*
X18077Y147562D01*
X18008Y147673D01*
X18001Y147680D01*
X17994Y147701D01*
X17973Y147736D01*
X17952Y147784D01*
X17890Y147909D01*
X17855Y147993D01*
X17820Y148083D01*
X17792Y148187D01*
X17758Y148298D01*
X17723Y148423D01*
X17695Y148548D01*
X17674Y148687D01*
X17654Y148832D01*
X17647Y148978D01*
D02*
G37*
%LPC*%
G36*
X18757Y149096D02*
X18764Y149034D01*
X18778Y148957D01*
X18792Y148867D01*
X18820Y148763D01*
X18854Y148659D01*
X18903Y148555D01*
X18910Y148541D01*
X18931Y148513D01*
X18965Y148458D01*
X19007Y148402D01*
X19069Y148333D01*
X19146Y148256D01*
X19229Y148187D01*
X19326Y148125D01*
X19340Y148118D01*
X19375Y148104D01*
X19430Y148076D01*
X19507Y148048D01*
X19597Y148021D01*
X19708Y147993D01*
X19826Y147979D01*
X19958Y147972D01*
Y150234D01*
X19902D01*
X19833Y150227D01*
X19749Y150221D01*
X19652Y150200D01*
X19548Y150179D01*
X19444Y150144D01*
X19340Y150095D01*
X19326Y150089D01*
X19291Y150075D01*
X19243Y150040D01*
X19180Y149998D01*
X19111Y149943D01*
X19042Y149880D01*
X18972Y149804D01*
X18910Y149714D01*
X18861Y149617D01*
X18833Y149547D01*
X18806Y149464D01*
X18778Y149374D01*
X18764Y149263D01*
X18757Y149152D01*
Y149096D01*
D02*
G37*
%LPD*%
G36*
X17681Y165364D02*
Y166974D01*
X21596Y167959D01*
X17681Y168972D01*
Y170506D01*
X23504Y168820D01*
Y167064D01*
X17681Y165364D01*
D02*
G37*
G36*
X17723Y139838D02*
Y141337D01*
X21901Y141754D01*
X21721Y141837D01*
X18500Y142233D01*
Y143169D01*
X21721Y143565D01*
X21901Y143641D01*
X17723Y144148D01*
Y145508D01*
X23504Y144516D01*
Y143149D01*
X21214Y142663D01*
X23504Y142149D01*
Y140789D01*
X17723Y139838D01*
D02*
G37*
G36*
X29676Y332694D02*
X29671Y332821D01*
Y332882D01*
X29676Y332923D01*
X29681Y332974D01*
X29686Y333035D01*
X29691Y333106D01*
X29722Y333259D01*
X29737Y333345D01*
X29788Y333523D01*
X29819Y333615D01*
X29854Y333707D01*
X29895Y333793D01*
X29946Y333880D01*
X29951Y333885D01*
X29956Y333900D01*
X29977Y333926D01*
X29997Y333956D01*
X30022Y333992D01*
X30058Y334037D01*
X30094Y334088D01*
X30139Y334139D01*
X30185Y334195D01*
X30241Y334256D01*
X30363Y334373D01*
X30501Y334490D01*
X30659Y334592D01*
X31234Y333854D01*
X31229Y333849D01*
X31214Y333839D01*
X31188Y333819D01*
X31117Y333758D01*
X31071Y333712D01*
X31025Y333661D01*
X30979Y333605D01*
X30933Y333544D01*
X30888Y333472D01*
X30842Y333396D01*
X30771Y333223D01*
X30745Y333126D01*
X30730Y333025D01*
X30725Y332918D01*
Y332892D01*
X30730Y332862D01*
Y332821D01*
X30740Y332775D01*
X30750Y332719D01*
X30766Y332658D01*
X30786Y332597D01*
X30811Y332531D01*
X30847Y332460D01*
X30883Y332393D01*
X30933Y332327D01*
X30990Y332266D01*
X31056Y332205D01*
X31132Y332154D01*
X31218Y332108D01*
X31224D01*
X31239Y332098D01*
X31269Y332088D01*
X31310Y332073D01*
X31417Y332037D01*
X31488Y332022D01*
X31570Y332001D01*
X31661Y331981D01*
X31758Y331961D01*
X31865Y331940D01*
X32109Y331910D01*
X32247Y331900D01*
X32389Y331895D01*
X32542Y331890D01*
X32629D01*
X32690Y331895D01*
X32766D01*
X32852Y331900D01*
X32949Y331905D01*
X33051Y331915D01*
X33163Y331925D01*
X33275Y331940D01*
X33514Y331976D01*
X33743Y332027D01*
X33850Y332063D01*
X33952Y332098D01*
X33957Y332103D01*
X33972Y332108D01*
X33998Y332124D01*
X34033Y332139D01*
X34069Y332164D01*
X34115Y332195D01*
X34161Y332231D01*
X34206Y332271D01*
X34257Y332317D01*
X34303Y332373D01*
X34349Y332434D01*
X34385Y332500D01*
X34420Y332572D01*
X34446Y332653D01*
X34461Y332740D01*
X34466Y332836D01*
Y332882D01*
X34456Y332938D01*
X34446Y333004D01*
X34430Y333075D01*
X34405Y333157D01*
X34369Y333238D01*
X34318Y333320D01*
X34313Y333330D01*
X34293Y333355D01*
X34212Y333437D01*
X34150Y333488D01*
X34074Y333539D01*
X33988Y333590D01*
X33891Y333635D01*
X33886D01*
X33876Y333641D01*
X33860Y333646D01*
X33840Y333651D01*
X33814Y333661D01*
X33779Y333671D01*
X33697Y333691D01*
X33601Y333712D01*
X33489Y333732D01*
X33356Y333742D01*
X33219Y333747D01*
Y332760D01*
X32328D01*
Y334684D01*
X35346D01*
Y333798D01*
X34929D01*
Y333758D01*
X34934D01*
X34939Y333752D01*
X34970Y333737D01*
X35016Y333712D01*
X35067Y333671D01*
X35128Y333620D01*
X35189Y333554D01*
X35250Y333467D01*
X35306Y333366D01*
Y333361D01*
X35311Y333350D01*
X35316Y333335D01*
X35326Y333315D01*
X35346Y333254D01*
X35392Y333070D01*
X35413Y332958D01*
X35428Y332831D01*
X35433Y332694D01*
Y332633D01*
X35428Y332587D01*
X35423Y332531D01*
X35413Y332470D01*
X35403Y332399D01*
X35387Y332322D01*
X35372Y332236D01*
X35346Y332149D01*
X35321Y332057D01*
X35285Y331966D01*
X35245Y331874D01*
X35199Y331783D01*
X35148Y331696D01*
X35087Y331610D01*
X35082Y331605D01*
X35072Y331589D01*
X35021Y331538D01*
X34985Y331498D01*
X34894Y331406D01*
X34832Y331355D01*
X34766Y331304D01*
X34695Y331248D01*
X34614Y331192D01*
X34430Y331080D01*
X34217Y330978D01*
X34100Y330933D01*
X34089D01*
X34069Y330922D01*
X34033Y330912D01*
X33982Y330897D01*
X33921Y330882D01*
X33850Y330861D01*
X33764Y330841D01*
X33662Y330821D01*
X33555Y330800D01*
X33438Y330780D01*
X33310Y330760D01*
X33178Y330744D01*
X33031Y330729D01*
X32883Y330719D01*
X32557Y330709D01*
X32471D01*
X32410Y330714D01*
X32333D01*
X32247Y330724D01*
X32145Y330729D01*
X32038Y330739D01*
X31921Y330749D01*
X31799Y330770D01*
X31544Y330810D01*
X31285Y330872D01*
X31157Y330907D01*
X31035Y330948D01*
X31030Y330953D01*
X31005Y330958D01*
X30974Y330973D01*
X30928Y330994D01*
X30872Y331019D01*
X30740Y331085D01*
X30587Y331177D01*
X30501Y331233D01*
X30419Y331289D01*
X30333Y331355D01*
X30251Y331421D01*
X30175Y331498D01*
X30099Y331579D01*
X30027Y331666D01*
X30022Y331671D01*
X30012Y331686D01*
X29997Y331711D01*
X29972Y331752D01*
X29946Y331798D01*
X29915Y331854D01*
X29880Y331915D01*
X29849Y331986D01*
X29814Y332068D01*
X29783Y332154D01*
X29753Y332251D01*
X29727Y332353D01*
X29702Y332460D01*
X29686Y332577D01*
X29676Y332694D01*
D02*
G37*
G36*
X29753Y335453D02*
Y336867D01*
X32679Y337845D01*
X33250Y338008D01*
X29753D01*
Y339168D01*
X35346D01*
Y337819D01*
X31972Y336613D01*
X35346D01*
Y335453D01*
X29753D01*
D02*
G37*
G36*
Y340049D02*
Y341443D01*
X29758Y341499D01*
X29763Y341576D01*
X29768Y341662D01*
X29773Y341759D01*
X29788Y341861D01*
X29798Y341973D01*
X29819Y342090D01*
X29865Y342324D01*
X29895Y342446D01*
X29931Y342563D01*
X29977Y342675D01*
X30022Y342782D01*
X30027Y342787D01*
X30033Y342808D01*
X30053Y342833D01*
X30073Y342874D01*
X30104Y342920D01*
X30139Y342970D01*
X30180Y343032D01*
X30231Y343093D01*
X30287Y343159D01*
X30353Y343230D01*
X30424Y343301D01*
X30501Y343368D01*
X30587Y343434D01*
X30679Y343500D01*
X30781Y343561D01*
X30893Y343617D01*
X30898Y343622D01*
X30918Y343627D01*
X30954Y343642D01*
X31005Y343663D01*
X31066Y343683D01*
X31137Y343703D01*
X31224Y343729D01*
X31320Y343759D01*
X31432Y343785D01*
X31554Y343810D01*
X31687Y343831D01*
X31834Y343851D01*
X31987Y343871D01*
X32155Y343887D01*
X32328Y343892D01*
X32517Y343897D01*
X32613D01*
X32684Y343892D01*
X32771Y343887D01*
X32873Y343882D01*
X32985Y343877D01*
X33107Y343866D01*
X33234Y343851D01*
X33367Y343836D01*
X33641Y343790D01*
X33779Y343759D01*
X33911Y343724D01*
X34038Y343683D01*
X34161Y343637D01*
X34166Y343632D01*
X34186Y343627D01*
X34222Y343612D01*
X34262Y343586D01*
X34313Y343561D01*
X34369Y343525D01*
X34435Y343484D01*
X34502Y343439D01*
X34578Y343383D01*
X34649Y343322D01*
X34802Y343179D01*
X34873Y343098D01*
X34939Y343006D01*
X35006Y342909D01*
X35061Y342808D01*
X35067Y342803D01*
X35072Y342782D01*
X35087Y342752D01*
X35107Y342706D01*
X35128Y342650D01*
X35153Y342579D01*
X35179Y342497D01*
X35204Y342406D01*
X35230Y342304D01*
X35255Y342192D01*
X35280Y342064D01*
X35301Y341932D01*
X35321Y341790D01*
X35336Y341632D01*
X35341Y341469D01*
X35346Y341296D01*
Y340049D01*
X29753D01*
D02*
G37*
%LPC*%
G36*
X30755Y341225D02*
X34354D01*
Y341464D01*
X34349Y341499D01*
X34344Y341540D01*
X34339Y341591D01*
X34328Y341652D01*
X34313Y341718D01*
X34293Y341790D01*
X34268Y341861D01*
X34232Y341937D01*
X34191Y342014D01*
X34145Y342090D01*
X34089Y342161D01*
X34023Y342232D01*
X33947Y342294D01*
X33860Y342350D01*
X33855Y342355D01*
X33835Y342360D01*
X33809Y342375D01*
X33769Y342395D01*
X33718Y342416D01*
X33657Y342436D01*
X33585Y342461D01*
X33504Y342492D01*
X33412Y342517D01*
X33316Y342543D01*
X33204Y342563D01*
X33087Y342584D01*
X32959Y342604D01*
X32822Y342619D01*
X32674Y342624D01*
X32522Y342629D01*
X32445D01*
X32405Y342624D01*
X32359D01*
X32247Y342614D01*
X32181Y342604D01*
X32109Y342594D01*
X31962Y342568D01*
X31804Y342533D01*
X31636Y342487D01*
X31473Y342431D01*
X31315Y342355D01*
X31163Y342263D01*
X31096Y342212D01*
X31030Y342151D01*
X30974Y342090D01*
X30918Y342024D01*
X30872Y341952D01*
X30832Y341871D01*
X30801Y341790D01*
X30776Y341698D01*
X30760Y341601D01*
X30755Y341499D01*
Y341225D01*
D02*
G37*
%LPD*%
G36*
X57087Y76579D02*
Y82679D01*
X58491D01*
X59173Y80431D01*
X59862Y82679D01*
X61260D01*
Y76579D01*
X60006D01*
Y79671D01*
X60084Y80559D01*
X59834Y79948D01*
X59490Y78222D01*
X58863D01*
X58546Y79948D01*
X58274Y80559D01*
X58335Y79671D01*
Y76579D01*
X57087D01*
D02*
G37*
G36*
X62165Y77784D02*
X62159Y77933D01*
Y77967D01*
X62165Y78011D01*
X62170Y78066D01*
X62176Y78133D01*
X62193Y78211D01*
X62209Y78294D01*
X62237Y78389D01*
X62270Y78483D01*
X62309Y78577D01*
X62359Y78677D01*
X62415Y78771D01*
X62487Y78866D01*
X62570Y78954D01*
X62664Y79032D01*
X62770Y79104D01*
X62775Y79110D01*
X62831Y79138D01*
X62881Y79160D01*
X62942Y79188D01*
X63014Y79215D01*
X63103Y79249D01*
X63197Y79282D01*
X63308Y79315D01*
X63425Y79349D01*
X63558Y79376D01*
X63697Y79404D01*
X63846Y79426D01*
X64002Y79443D01*
X64168Y79454D01*
X64346Y79460D01*
X64873D01*
Y79648D01*
X64868Y79687D01*
X64862Y79732D01*
X64851Y79782D01*
X64840Y79837D01*
X64818Y79898D01*
X64790Y79959D01*
X64784Y79965D01*
X64773Y79987D01*
X64757Y80015D01*
X64729Y80053D01*
X64646Y80137D01*
X64590Y80176D01*
X64529Y80214D01*
X64524Y80220D01*
X64496Y80231D01*
X64457Y80248D01*
X64407Y80264D01*
X64346Y80281D01*
X64268Y80298D01*
X64185Y80309D01*
X64091Y80314D01*
X64046D01*
X63991Y80309D01*
X63919Y80298D01*
X63835Y80287D01*
X63747Y80264D01*
X63647Y80237D01*
X63541Y80198D01*
X63536D01*
X63530Y80192D01*
X63513Y80187D01*
X63497Y80176D01*
X63441Y80153D01*
X63375Y80115D01*
X63292Y80070D01*
X63208Y80009D01*
X63114Y79942D01*
X63025Y79865D01*
X62415Y80592D01*
X62431Y80608D01*
X62454Y80625D01*
X62487Y80647D01*
X62526Y80675D01*
X62570Y80708D01*
X62620Y80747D01*
X62675Y80786D01*
X62803Y80864D01*
X62947Y80953D01*
X63103Y81030D01*
X63269Y81097D01*
X63275D01*
X63292Y81102D01*
X63314Y81113D01*
X63347Y81125D01*
X63391Y81136D01*
X63441Y81152D01*
X63497Y81164D01*
X63564Y81180D01*
X63708Y81213D01*
X63880Y81236D01*
X64063Y81258D01*
X64263Y81263D01*
X64352D01*
X64413Y81258D01*
X64485Y81252D01*
X64574Y81241D01*
X64668Y81225D01*
X64773Y81208D01*
X64879Y81186D01*
X64995Y81158D01*
X65106Y81119D01*
X65223Y81080D01*
X65334Y81030D01*
X65439Y80969D01*
X65539Y80903D01*
X65634Y80825D01*
X65678Y80781D01*
X65706Y80742D01*
X65745Y80697D01*
X65784Y80642D01*
X65828Y80581D01*
X65872Y80503D01*
X65917Y80420D01*
X65961Y80325D01*
X66000Y80220D01*
X66039Y80103D01*
X66066Y79981D01*
X66089Y79848D01*
X66105Y79704D01*
X66111Y79548D01*
Y77723D01*
X66116Y77623D01*
Y77517D01*
X66122Y77406D01*
X66128Y77289D01*
Y77256D01*
X66133Y77234D01*
Y77206D01*
X66139Y77173D01*
X66144Y77084D01*
X66155Y76984D01*
X66166Y76862D01*
X66177Y76723D01*
X66194Y76579D01*
X64923D01*
Y76590D01*
X64918Y76607D01*
Y76629D01*
X64912Y76679D01*
X64901Y76751D01*
X64895Y76834D01*
X64890Y76929D01*
X64879Y77140D01*
Y77134D01*
X64873Y77123D01*
X64862Y77106D01*
X64846Y77090D01*
X64807Y77029D01*
X64757Y76957D01*
X64690Y76879D01*
X64612Y76801D01*
X64524Y76723D01*
X64418Y76657D01*
X64413D01*
X64407Y76651D01*
X64390Y76640D01*
X64368Y76635D01*
X64335Y76618D01*
X64302Y76607D01*
X64263Y76590D01*
X64218Y76579D01*
X64107Y76546D01*
X63980Y76524D01*
X63830Y76501D01*
X63663Y76496D01*
X63613D01*
X63580Y76501D01*
X63536D01*
X63486Y76507D01*
X63430Y76512D01*
X63369Y76518D01*
X63242Y76540D01*
X63097Y76574D01*
X62959Y76624D01*
X62825Y76685D01*
X62820D01*
X62809Y76696D01*
X62792Y76707D01*
X62770Y76718D01*
X62709Y76762D01*
X62637Y76818D01*
X62553Y76895D01*
X62470Y76984D01*
X62392Y77084D01*
X62320Y77201D01*
Y77206D01*
X62315Y77217D01*
X62304Y77234D01*
X62298Y77256D01*
X62281Y77289D01*
X62270Y77328D01*
X62243Y77417D01*
X62209Y77523D01*
X62187Y77650D01*
X62165Y77784D01*
D02*
G37*
%LPC*%
G36*
X63264Y77939D02*
X63269Y77917D01*
X63275Y77861D01*
X63286Y77795D01*
X63314Y77717D01*
X63347Y77639D01*
X63391Y77567D01*
X63458Y77506D01*
X63469Y77500D01*
X63497Y77484D01*
X63536Y77456D01*
X63597Y77434D01*
X63669Y77406D01*
X63752Y77378D01*
X63852Y77362D01*
X63958Y77356D01*
X64002D01*
X64030Y77362D01*
X64069Y77367D01*
X64113Y77373D01*
X64207Y77395D01*
X64318Y77434D01*
X64374Y77462D01*
X64485Y77528D01*
X64540Y77573D01*
X64590Y77623D01*
X64635Y77678D01*
X64640Y77684D01*
X64646Y77695D01*
X64657Y77711D01*
X64674Y77739D01*
X64690Y77772D01*
X64707Y77811D01*
X64729Y77861D01*
X64751Y77917D01*
X64796Y78050D01*
X64812Y78128D01*
X64846Y78305D01*
X64857Y78405D01*
X64868Y78511D01*
Y78627D01*
X64840D01*
X64807Y78633D01*
X64712D01*
X64651Y78638D01*
X64413D01*
X64357Y78633D01*
X64296Y78627D01*
X64230D01*
X64163Y78616D01*
X64008Y78599D01*
X63852Y78566D01*
X63702Y78527D01*
X63636Y78500D01*
X63575Y78472D01*
X63569D01*
X63564Y78466D01*
X63525Y78444D01*
X63475Y78405D01*
X63419Y78350D01*
X63364Y78277D01*
X63314Y78189D01*
X63275Y78089D01*
X63264Y77967D01*
Y77939D01*
D02*
G37*
%LPD*%
G36*
X67171Y80209D02*
Y81202D01*
X68486D01*
Y82745D01*
X69718D01*
Y81202D01*
X71061D01*
Y80209D01*
X69718D01*
Y78466D01*
X69724Y78399D01*
Y78322D01*
X69735Y78233D01*
X69746Y78139D01*
X69757Y78050D01*
X69779Y77967D01*
X69785Y77956D01*
X69791Y77933D01*
X69829Y77856D01*
X69857Y77811D01*
X69896Y77761D01*
X69935Y77717D01*
X69985Y77678D01*
X69990Y77672D01*
X70013Y77667D01*
X70040Y77650D01*
X70085Y77639D01*
X70135Y77623D01*
X70196Y77606D01*
X70268Y77600D01*
X70346Y77595D01*
X70418D01*
X70473Y77600D01*
X70540D01*
X70618Y77606D01*
X70701Y77612D01*
X70790Y77623D01*
X70801D01*
X70834Y77628D01*
X70878Y77634D01*
X70939Y77645D01*
X71012Y77661D01*
X71089Y77672D01*
X71167Y77689D01*
X71239Y77711D01*
Y76662D01*
X71234D01*
X71217Y76657D01*
X71195Y76651D01*
X71161Y76646D01*
X71117Y76635D01*
X71061Y76629D01*
X70995Y76618D01*
X70923Y76607D01*
X70840Y76596D01*
X70745Y76585D01*
X70640Y76579D01*
X70523Y76568D01*
X70401Y76562D01*
X70268Y76557D01*
X70124Y76551D01*
X69896D01*
X69841Y76557D01*
X69779Y76562D01*
X69624Y76585D01*
X69535Y76601D01*
X69446Y76624D01*
X69352Y76646D01*
X69258Y76679D01*
X69163Y76718D01*
X69075Y76762D01*
X68986Y76818D01*
X68908Y76879D01*
X68836Y76946D01*
X68819Y76962D01*
X68803Y76984D01*
X68780Y77018D01*
X68753Y77056D01*
X68725Y77106D01*
X68692Y77162D01*
X68664Y77228D01*
X68631Y77301D01*
X68597Y77378D01*
X68570Y77462D01*
X68542Y77556D01*
X68520Y77656D01*
X68503Y77761D01*
X68492Y77878D01*
X68486Y77994D01*
Y80209D01*
X67171D01*
D02*
G37*
G36*
X72233Y78749D02*
X72227Y78888D01*
Y78954D01*
X72233Y79010D01*
X72238Y79071D01*
X72244Y79143D01*
X72249Y79221D01*
X72266Y79310D01*
X72277Y79404D01*
X72299Y79504D01*
X72349Y79715D01*
X72382Y79820D01*
X72421Y79931D01*
X72466Y80037D01*
X72516Y80137D01*
X72521Y80142D01*
X72527Y80159D01*
X72549Y80187D01*
X72571Y80225D01*
X72599Y80270D01*
X72638Y80325D01*
X72682Y80381D01*
X72732Y80448D01*
X72788Y80514D01*
X72849Y80581D01*
X72915Y80653D01*
X72987Y80719D01*
X73154Y80853D01*
X73248Y80919D01*
X73343Y80975D01*
X73348Y80980D01*
X73365Y80986D01*
X73398Y81002D01*
X73437Y81019D01*
X73487Y81047D01*
X73548Y81069D01*
X73620Y81097D01*
X73698Y81125D01*
X73787Y81152D01*
X73881Y81180D01*
X73981Y81208D01*
X74092Y81230D01*
X74203Y81247D01*
X74325Y81263D01*
X74580Y81274D01*
X74641D01*
X74686Y81269D01*
X74741D01*
X74808Y81263D01*
X74874Y81252D01*
X74952Y81247D01*
X75119Y81219D01*
X75296Y81174D01*
X75474Y81113D01*
X75557Y81080D01*
X75635Y81036D01*
X75640D01*
X75651Y81025D01*
X75674Y81014D01*
X75701Y80991D01*
X75740Y80969D01*
X75779Y80941D01*
X75879Y80869D01*
X75990Y80781D01*
X76112Y80669D01*
X76234Y80547D01*
X76356Y80403D01*
X75651Y79743D01*
Y79748D01*
X75640Y79754D01*
X75607Y79787D01*
X75563Y79837D01*
X75496Y79892D01*
X75424Y79959D01*
X75346Y80026D01*
X75257Y80087D01*
X75174Y80142D01*
X75163Y80148D01*
X75135Y80164D01*
X75085Y80187D01*
X75019Y80209D01*
X74941Y80231D01*
X74847Y80253D01*
X74736Y80270D01*
X74619Y80275D01*
X74558D01*
X74530Y80270D01*
X74491Y80264D01*
X74408Y80253D01*
X74308Y80237D01*
X74203Y80203D01*
X74092Y80164D01*
X73986Y80109D01*
X73981D01*
X73975Y80103D01*
X73942Y80081D01*
X73892Y80042D01*
X73831Y79992D01*
X73764Y79926D01*
X73692Y79843D01*
X73620Y79748D01*
X73559Y79643D01*
Y79637D01*
X73554Y79632D01*
X73542Y79610D01*
X73537Y79587D01*
X73526Y79559D01*
X73509Y79526D01*
X73481Y79437D01*
X73454Y79332D01*
X73426Y79204D01*
X73409Y79066D01*
X73404Y78910D01*
Y78866D01*
X73409Y78832D01*
Y78794D01*
X73415Y78749D01*
X73426Y78644D01*
X73448Y78522D01*
X73476Y78394D01*
X73520Y78261D01*
X73576Y78139D01*
Y78133D01*
X73581Y78128D01*
X73592Y78111D01*
X73609Y78089D01*
X73642Y78033D01*
X73698Y77961D01*
X73759Y77883D01*
X73836Y77806D01*
X73925Y77734D01*
X74020Y77667D01*
X74025D01*
X74031Y77661D01*
X74047Y77656D01*
X74125Y77617D01*
X74197Y77595D01*
X74286Y77567D01*
X74380Y77539D01*
X74491Y77523D01*
X74602Y77517D01*
X74652D01*
X74708Y77528D01*
X74786Y77539D01*
X74874Y77556D01*
X74969Y77584D01*
X75074Y77623D01*
X75180Y77672D01*
X75185D01*
X75191Y77678D01*
X75207Y77689D01*
X75230Y77700D01*
X75279Y77734D01*
X75352Y77784D01*
X75429Y77839D01*
X75513Y77911D01*
X75596Y77989D01*
X75679Y78078D01*
X76389Y77428D01*
X76373Y77412D01*
X76356Y77389D01*
X76334Y77362D01*
X76301Y77323D01*
X76056Y77079D01*
X75923Y76968D01*
X75774Y76857D01*
X75612Y76751D01*
X75607D01*
X75590Y76740D01*
X75490Y76690D01*
X75441Y76668D01*
X75379Y76646D01*
X75313Y76624D01*
X75157Y76579D01*
X75069Y76557D01*
X74969Y76535D01*
X74869Y76518D01*
X74763Y76507D01*
X74652Y76501D01*
X74536Y76496D01*
X74475D01*
X74425Y76501D01*
X74369Y76507D01*
X74303Y76512D01*
X74225Y76518D01*
X74142Y76529D01*
X74053Y76546D01*
X73959Y76562D01*
X73659Y76646D01*
X73554Y76685D01*
X73454Y76729D01*
X73354Y76779D01*
X73348Y76784D01*
X73331Y76790D01*
X73304Y76807D01*
X73226Y76862D01*
X73171Y76895D01*
X73115Y76940D01*
X73054Y76990D01*
X72987Y77045D01*
X72921Y77106D01*
X72854Y77173D01*
X72788Y77245D01*
X72715Y77323D01*
X72649Y77412D01*
X72588Y77500D01*
X72527Y77600D01*
X72521Y77606D01*
X72516Y77623D01*
X72499Y77656D01*
X72482Y77695D01*
X72460Y77750D01*
X72432Y77811D01*
X72405Y77883D01*
X72377Y77961D01*
X72321Y78150D01*
X72299Y78255D01*
X72271Y78372D01*
X72255Y78488D01*
X72238Y78616D01*
X72233Y78749D01*
D02*
G37*
G36*
X75644Y93080D02*
X72835Y104267D01*
X75288D01*
X76835Y96582D01*
X78383Y104267D01*
X80806D01*
X77986Y93080D01*
X75644D01*
D02*
G37*
G36*
X77394Y76579D02*
Y83223D01*
X78615D01*
Y80559D01*
X78621Y80564D01*
X78626Y80575D01*
X78637Y80592D01*
X78659Y80620D01*
X78709Y80686D01*
X78776Y80764D01*
X78854Y80853D01*
X78948Y80941D01*
X79053Y81025D01*
X79164Y81091D01*
X79170D01*
X79181Y81097D01*
X79198Y81108D01*
X79220Y81119D01*
X79248Y81130D01*
X79287Y81141D01*
X79375Y81174D01*
X79481Y81202D01*
X79603Y81230D01*
X79747Y81247D01*
X79897Y81252D01*
X79930D01*
X79975Y81247D01*
X80030D01*
X80097Y81236D01*
X80169Y81225D01*
X80258Y81213D01*
X80347Y81191D01*
X80441Y81169D01*
X80535Y81136D01*
X80630Y81097D01*
X80724Y81052D01*
X80813Y80997D01*
X80902Y80930D01*
X80979Y80858D01*
X81046Y80775D01*
X81051Y80769D01*
X81063Y80753D01*
X81079Y80725D01*
X81102Y80686D01*
X81124Y80636D01*
X81157Y80575D01*
X81185Y80503D01*
X81218Y80420D01*
X81251Y80325D01*
X81279Y80225D01*
X81312Y80109D01*
X81335Y79981D01*
X81357Y79848D01*
X81373Y79704D01*
X81384Y79543D01*
X81390Y79376D01*
Y76579D01*
X80147D01*
Y78938D01*
X80141Y78982D01*
Y79088D01*
X80130Y79199D01*
X80119Y79321D01*
X80102Y79443D01*
X80080Y79548D01*
Y79559D01*
X80053Y79643D01*
X80030Y79698D01*
X80003Y79765D01*
X79969Y79831D01*
X79925Y79892D01*
X79869Y79948D01*
X79847Y79959D01*
X79819Y79981D01*
X79775Y80003D01*
X79720Y80026D01*
X79659Y80048D01*
X79581Y80059D01*
X79497Y80064D01*
X79459D01*
X79431Y80059D01*
X79392Y80053D01*
X79353Y80042D01*
X79259Y80020D01*
X79153Y79976D01*
X79098Y79942D01*
X79048Y79909D01*
X78992Y79865D01*
X78943Y79815D01*
X78893Y79759D01*
X78848Y79693D01*
Y79687D01*
X78837Y79676D01*
X78826Y79654D01*
X78815Y79626D01*
X78798Y79587D01*
X78776Y79543D01*
X78759Y79487D01*
X78737Y79426D01*
X78715Y79360D01*
X78698Y79282D01*
X78676Y79199D01*
X78659Y79110D01*
X78648Y79016D01*
X78637Y78910D01*
X78626Y78799D01*
Y76579D01*
X77394D01*
D02*
G37*
G36*
X82322Y92520D02*
Y94067D01*
X89866D01*
Y92520D01*
X82322D01*
D02*
G37*
G36*
X82683Y86294D02*
X82677Y86400D01*
X83793D01*
Y86383D01*
X83798Y86366D01*
X83804Y86338D01*
X83820Y86272D01*
X83843Y86194D01*
X83881Y86100D01*
X83931Y86011D01*
X83992Y85922D01*
X84076Y85850D01*
X84081D01*
X84087Y85844D01*
X84120Y85822D01*
X84170Y85795D01*
X84237Y85761D01*
X84314Y85728D01*
X84409Y85700D01*
X84509Y85678D01*
X84620Y85672D01*
X84658D01*
X84703Y85678D01*
X84758Y85689D01*
X84820Y85700D01*
X84892Y85722D01*
X84969Y85750D01*
X85058Y85795D01*
X85080Y85811D01*
X85119Y85839D01*
X85169Y85878D01*
X85219Y85928D01*
X85275Y85989D01*
X85336Y86067D01*
X85386Y86150D01*
Y86155D01*
X85391Y86161D01*
X85408Y86194D01*
X85430Y86250D01*
X85452Y86322D01*
X85474Y86411D01*
X85497Y86522D01*
X85513Y86644D01*
X85519Y86777D01*
Y86827D01*
X85513Y86860D01*
Y86905D01*
X85508Y86949D01*
X85491Y87060D01*
X85463Y87182D01*
X85419Y87310D01*
X85358Y87432D01*
X85325Y87487D01*
X85280Y87537D01*
Y87543D01*
X85269Y87548D01*
X85236Y87576D01*
X85186Y87621D01*
X85114Y87670D01*
X85025Y87715D01*
X84919Y87759D01*
X84803Y87787D01*
X84736Y87798D01*
X84620D01*
X84559Y87792D01*
X84487Y87776D01*
X84403Y87759D01*
X84314Y87731D01*
X84226Y87693D01*
X84137Y87637D01*
X84126Y87632D01*
X84065Y87571D01*
X84015Y87526D01*
X83965Y87459D01*
X83915Y87387D01*
X83865Y87304D01*
X83826Y87210D01*
X82710D01*
X83149Y90828D01*
X86468D01*
Y89841D01*
X84098D01*
X83848Y88187D01*
X83854Y88192D01*
X83870Y88214D01*
X83893Y88242D01*
X83926Y88281D01*
X83970Y88331D01*
X84020Y88381D01*
X84081Y88436D01*
X84148Y88497D01*
X84314Y88608D01*
X84514Y88708D01*
X84631Y88747D01*
X84747Y88775D01*
X84875Y88797D01*
X85014Y88803D01*
X85064D01*
X85102Y88797D01*
X85147D01*
X85197Y88792D01*
X85258Y88780D01*
X85325Y88769D01*
X85463Y88736D01*
X85619Y88692D01*
X85774Y88625D01*
X85852Y88581D01*
X85924Y88536D01*
X85930Y88531D01*
X85941Y88525D01*
X85963Y88508D01*
X85991Y88486D01*
X86018Y88459D01*
X86057Y88425D01*
X86146Y88348D01*
X86240Y88242D01*
X86340Y88114D01*
X86435Y87970D01*
X86518Y87804D01*
Y87798D01*
X86529Y87781D01*
X86540Y87759D01*
X86551Y87720D01*
X86568Y87676D01*
X86584Y87626D01*
X86601Y87565D01*
X86623Y87498D01*
X86645Y87426D01*
X86679Y87260D01*
X86695Y87165D01*
X86718Y86971D01*
X86729Y86760D01*
Y86699D01*
X86723Y86655D01*
Y86599D01*
X86718Y86538D01*
X86707Y86466D01*
X86695Y86388D01*
X86684Y86305D01*
X86668Y86216D01*
X86623Y86033D01*
X86562Y85844D01*
X86523Y85750D01*
X86479Y85656D01*
Y85650D01*
X86468Y85634D01*
X86451Y85611D01*
X86435Y85578D01*
X86407Y85539D01*
X86379Y85489D01*
X86301Y85384D01*
X86201Y85267D01*
X86079Y85140D01*
X85941Y85023D01*
X85780Y84912D01*
X85774Y84907D01*
X85757Y84901D01*
X85658Y84851D01*
X85546Y84807D01*
X85480Y84779D01*
X85402Y84757D01*
X85325Y84729D01*
X85236Y84707D01*
X85147Y84690D01*
X84947Y84657D01*
X84842Y84651D01*
X84731Y84646D01*
X84675D01*
X84636Y84651D01*
X84592D01*
X84536Y84657D01*
X84403Y84668D01*
X84248Y84690D01*
X84076Y84723D01*
X83898Y84773D01*
X83721Y84834D01*
X83715D01*
X83698Y84846D01*
X83643Y84873D01*
X83604Y84890D01*
X83560Y84918D01*
X83454Y84979D01*
X83332Y85062D01*
X83204Y85167D01*
X83082Y85284D01*
X82966Y85423D01*
X82960Y85428D01*
X82955Y85439D01*
X82938Y85461D01*
X82921Y85495D01*
X82899Y85534D01*
X82849Y85634D01*
X82822Y85695D01*
X82794Y85761D01*
X82766Y85839D01*
X82744Y85917D01*
X82722Y86005D01*
X82688Y86194D01*
X82683Y86294D01*
D02*
G37*
G36*
X86926Y326772D02*
Y327998D01*
X90769Y328772D01*
X86926Y329546D01*
Y330757D01*
X92520Y329347D01*
Y328176D01*
X86926Y326772D01*
D02*
G37*
G36*
Y331627D02*
Y332808D01*
X91456D01*
Y335328D01*
X92520D01*
Y331627D01*
X86926D01*
D02*
G37*
G36*
Y336168D02*
Y339802D01*
X87928D01*
Y337344D01*
X89145D01*
Y339670D01*
X90153D01*
Y337344D01*
X91527D01*
Y339914D01*
X92520D01*
Y336168D01*
X86926D01*
D02*
G37*
G36*
Y340769D02*
Y342164D01*
X86931Y342220D01*
X86936Y342296D01*
X86941Y342383D01*
X86946Y342479D01*
X86961Y342581D01*
X86972Y342693D01*
X86992Y342810D01*
X87038Y343044D01*
X87068Y343167D01*
X87104Y343284D01*
X87150Y343396D01*
X87195Y343502D01*
X87201Y343508D01*
X87206Y343528D01*
X87226Y343553D01*
X87246Y343594D01*
X87277Y343640D01*
X87313Y343691D01*
X87353Y343752D01*
X87404Y343813D01*
X87460Y343879D01*
X87526Y343950D01*
X87598Y344022D01*
X87674Y344088D01*
X87761Y344154D01*
X87852Y344220D01*
X87954Y344281D01*
X88066Y344337D01*
X88071Y344342D01*
X88091Y344347D01*
X88127Y344363D01*
X88178Y344383D01*
X88239Y344403D01*
X88310Y344424D01*
X88397Y344449D01*
X88494Y344480D01*
X88605Y344505D01*
X88728Y344531D01*
X88860Y344551D01*
X89008Y344571D01*
X89160Y344592D01*
X89328Y344607D01*
X89501Y344612D01*
X89690Y344617D01*
X89786D01*
X89858Y344612D01*
X89944Y344607D01*
X90046Y344602D01*
X90158Y344597D01*
X90280Y344587D01*
X90407Y344571D01*
X90540Y344556D01*
X90815Y344510D01*
X90952Y344480D01*
X91084Y344444D01*
X91211Y344403D01*
X91334Y344358D01*
X91339Y344353D01*
X91359Y344347D01*
X91395Y344332D01*
X91435Y344307D01*
X91486Y344281D01*
X91542Y344246D01*
X91609Y344205D01*
X91675Y344159D01*
X91751Y344103D01*
X91822Y344042D01*
X91975Y343899D01*
X92046Y343818D01*
X92112Y343726D01*
X92179Y343630D01*
X92235Y343528D01*
X92240Y343523D01*
X92245Y343502D01*
X92260Y343472D01*
X92280Y343426D01*
X92301Y343370D01*
X92326Y343299D01*
X92352Y343217D01*
X92377Y343126D01*
X92403Y343024D01*
X92428Y342912D01*
X92453Y342785D01*
X92474Y342653D01*
X92494Y342510D01*
X92510Y342352D01*
X92515Y342189D01*
X92520Y342016D01*
Y340769D01*
X86926D01*
D02*
G37*
%LPC*%
G36*
X87928Y341945D02*
X91527D01*
Y342184D01*
X91522Y342220D01*
X91517Y342261D01*
X91512Y342311D01*
X91502Y342372D01*
X91486Y342439D01*
X91466Y342510D01*
X91441Y342581D01*
X91405Y342657D01*
X91364Y342734D01*
X91318Y342810D01*
X91262Y342881D01*
X91196Y342953D01*
X91120Y343014D01*
X91033Y343070D01*
X91028Y343075D01*
X91008Y343080D01*
X90983Y343095D01*
X90942Y343116D01*
X90891Y343136D01*
X90830Y343156D01*
X90759Y343182D01*
X90677Y343212D01*
X90586Y343238D01*
X90489Y343263D01*
X90377Y343284D01*
X90260Y343304D01*
X90132Y343324D01*
X89995Y343340D01*
X89847Y343345D01*
X89695Y343350D01*
X89618D01*
X89578Y343345D01*
X89532D01*
X89420Y343335D01*
X89354Y343324D01*
X89282Y343314D01*
X89135Y343289D01*
X88977Y343253D01*
X88809Y343207D01*
X88646Y343151D01*
X88488Y343075D01*
X88336Y342983D01*
X88270Y342932D01*
X88203Y342871D01*
X88147Y342810D01*
X88091Y342744D01*
X88046Y342673D01*
X88005Y342591D01*
X87974Y342510D01*
X87949Y342418D01*
X87934Y342322D01*
X87928Y342220D01*
Y341945D01*
D02*
G37*
%LPD*%
G36*
X87545Y76579D02*
Y82679D01*
X88833D01*
Y77739D01*
X91580D01*
Y76579D01*
X87545D01*
D02*
G37*
G36*
X88066Y86821D02*
X88027Y87038D01*
X88066Y87254D01*
Y87526D01*
X91435D01*
Y87254D01*
X91479Y87038D01*
X91435Y86821D01*
Y86549D01*
X88066D01*
Y86821D01*
D02*
G37*
G36*
X91810Y93080D02*
Y104267D01*
X94172D01*
Y95207D01*
X99211D01*
Y93080D01*
X91810D01*
D02*
G37*
G36*
X92496Y76579D02*
Y82679D01*
X96458D01*
Y81585D01*
X93778D01*
Y80259D01*
X96314D01*
Y79160D01*
X93778D01*
Y77661D01*
X96580D01*
Y76579D01*
X92496D01*
D02*
G37*
G36*
X92823Y84718D02*
Y85994D01*
X92978Y86116D01*
X92989Y86122D01*
X93017Y86150D01*
X93061Y86183D01*
X93122Y86233D01*
X93194Y86294D01*
X93278Y86361D01*
X93372Y86438D01*
X93477Y86522D01*
X93583Y86610D01*
X93694Y86705D01*
X93922Y86893D01*
X94149Y87088D01*
X94254Y87177D01*
X94354Y87265D01*
X94377Y87287D01*
X94404Y87310D01*
X94443Y87343D01*
X94726Y87626D01*
X94793Y87698D01*
X94943Y87865D01*
X95092Y88037D01*
X95231Y88220D01*
X95237Y88225D01*
X95248Y88242D01*
X95265Y88270D01*
X95287Y88303D01*
X95315Y88348D01*
X95348Y88403D01*
X95376Y88459D01*
X95414Y88525D01*
X95476Y88669D01*
X95537Y88830D01*
X95559Y88914D01*
X95575Y88997D01*
X95587Y89080D01*
X95592Y89163D01*
Y89197D01*
X95587Y89241D01*
X95581Y89291D01*
X95548Y89413D01*
X95520Y89480D01*
X95487Y89546D01*
X95481Y89552D01*
X95470Y89574D01*
X95448Y89607D01*
X95414Y89646D01*
X95376Y89691D01*
X95326Y89735D01*
X95270Y89779D01*
X95209Y89818D01*
X95204Y89824D01*
X95181Y89835D01*
X95143Y89852D01*
X95098Y89868D01*
X95037Y89885D01*
X94970Y89902D01*
X94898Y89913D01*
X94815Y89918D01*
X94771D01*
X94726Y89913D01*
X94665Y89902D01*
X94593Y89885D01*
X94515Y89863D01*
X94443Y89835D01*
X94366Y89790D01*
X94354Y89785D01*
X94332Y89768D01*
X94299Y89741D01*
X94254Y89702D01*
X94204Y89652D01*
X94155Y89596D01*
X94105Y89530D01*
X94060Y89452D01*
X94044Y89419D01*
X94027Y89374D01*
X94010Y89319D01*
X93988Y89252D01*
X93971Y89180D01*
X93960Y89097D01*
X93955Y89008D01*
X92878D01*
Y89069D01*
X92884Y89113D01*
Y89169D01*
X92889Y89230D01*
X92900Y89302D01*
X92911Y89380D01*
X92939Y89546D01*
X92984Y89724D01*
X93045Y89902D01*
X93083Y89985D01*
X93128Y90068D01*
X93133Y90074D01*
X93139Y90085D01*
X93156Y90107D01*
X93172Y90140D01*
X93200Y90174D01*
X93228Y90212D01*
X93305Y90307D01*
X93405Y90407D01*
X93522Y90512D01*
X93661Y90612D01*
X93816Y90695D01*
X93822D01*
X93838Y90706D01*
X93860Y90712D01*
X93894Y90728D01*
X93938Y90740D01*
X93988Y90756D01*
X94049Y90778D01*
X94110Y90795D01*
X94188Y90812D01*
X94266Y90834D01*
X94349Y90851D01*
X94443Y90862D01*
X94637Y90884D01*
X94854Y90895D01*
X94937D01*
X94981Y90889D01*
X95031Y90884D01*
X95154Y90873D01*
X95298Y90851D01*
X95453Y90823D01*
X95614Y90778D01*
X95781Y90723D01*
X95786D01*
X95803Y90717D01*
X95825Y90706D01*
X95853Y90690D01*
X95892Y90673D01*
X95936Y90651D01*
X96036Y90590D01*
X96147Y90512D01*
X96264Y90418D01*
X96380Y90307D01*
X96491Y90174D01*
X96497Y90168D01*
X96502Y90157D01*
X96519Y90135D01*
X96535Y90107D01*
X96558Y90068D01*
X96580Y90024D01*
X96602Y89974D01*
X96630Y89918D01*
X96658Y89852D01*
X96680Y89779D01*
X96702Y89702D01*
X96724Y89618D01*
X96758Y89430D01*
X96763Y89330D01*
X96769Y89224D01*
Y89163D01*
X96763Y89119D01*
X96758Y89064D01*
X96746Y89002D01*
X96735Y88925D01*
X96719Y88847D01*
X96702Y88758D01*
X96674Y88658D01*
X96641Y88558D01*
X96608Y88453D01*
X96558Y88348D01*
X96508Y88231D01*
X96447Y88120D01*
X96380Y88003D01*
X96375Y87998D01*
X96364Y87976D01*
X96341Y87942D01*
X96314Y87898D01*
X96275Y87848D01*
X96230Y87787D01*
X96180Y87715D01*
X96125Y87637D01*
X96064Y87554D01*
X95997Y87465D01*
X95847Y87282D01*
X95681Y87088D01*
X95498Y86899D01*
X95448Y86849D01*
X95409Y86816D01*
X95303Y86710D01*
X95237Y86649D01*
X95159Y86577D01*
X95076Y86499D01*
X94981Y86416D01*
X94882Y86327D01*
X94776Y86233D01*
X94660Y86133D01*
X94538Y86028D01*
X94415Y85917D01*
X94282Y85806D01*
X94127Y85678D01*
X96746D01*
Y84718D01*
X92823D01*
D02*
G37*
G36*
X97513Y76579D02*
Y82679D01*
X99033D01*
X99095Y82673D01*
X99178Y82667D01*
X99272Y82662D01*
X99378Y82656D01*
X99489Y82640D01*
X99611Y82629D01*
X99738Y82606D01*
X99994Y82556D01*
X100127Y82523D01*
X100254Y82484D01*
X100377Y82434D01*
X100493Y82385D01*
X100499Y82379D01*
X100521Y82373D01*
X100549Y82351D01*
X100593Y82329D01*
X100643Y82296D01*
X100698Y82257D01*
X100765Y82212D01*
X100832Y82157D01*
X100904Y82096D01*
X100982Y82024D01*
X101059Y81946D01*
X101131Y81863D01*
X101204Y81768D01*
X101276Y81669D01*
X101342Y81558D01*
X101403Y81435D01*
X101409Y81430D01*
X101415Y81408D01*
X101431Y81369D01*
X101453Y81313D01*
X101476Y81247D01*
X101498Y81169D01*
X101525Y81075D01*
X101559Y80969D01*
X101586Y80847D01*
X101614Y80714D01*
X101637Y80570D01*
X101659Y80409D01*
X101681Y80242D01*
X101698Y80059D01*
X101703Y79870D01*
X101709Y79665D01*
Y79559D01*
X101703Y79482D01*
X101698Y79387D01*
X101692Y79276D01*
X101686Y79154D01*
X101675Y79021D01*
X101659Y78882D01*
X101642Y78738D01*
X101592Y78438D01*
X101559Y78289D01*
X101520Y78144D01*
X101476Y78005D01*
X101426Y77872D01*
X101420Y77867D01*
X101415Y77845D01*
X101398Y77806D01*
X101370Y77761D01*
X101342Y77706D01*
X101304Y77645D01*
X101259Y77573D01*
X101209Y77500D01*
X101148Y77417D01*
X101082Y77340D01*
X100926Y77173D01*
X100837Y77095D01*
X100737Y77023D01*
X100632Y76951D01*
X100521Y76890D01*
X100515Y76884D01*
X100493Y76879D01*
X100460Y76862D01*
X100410Y76840D01*
X100349Y76818D01*
X100271Y76790D01*
X100182Y76762D01*
X100083Y76735D01*
X99971Y76707D01*
X99849Y76679D01*
X99711Y76651D01*
X99566Y76629D01*
X99411Y76607D01*
X99239Y76590D01*
X99061Y76585D01*
X98873Y76579D01*
X97513D01*
D02*
G37*
%LPC*%
G36*
X98795Y77661D02*
X99056D01*
X99095Y77667D01*
X99139Y77672D01*
X99195Y77678D01*
X99261Y77689D01*
X99333Y77706D01*
X99411Y77728D01*
X99489Y77756D01*
X99572Y77795D01*
X99655Y77839D01*
X99738Y77889D01*
X99816Y77950D01*
X99894Y78022D01*
X99960Y78105D01*
X100021Y78200D01*
X100027Y78205D01*
X100032Y78228D01*
X100049Y78255D01*
X100071Y78300D01*
X100094Y78355D01*
X100116Y78422D01*
X100144Y78500D01*
X100177Y78588D01*
X100205Y78688D01*
X100232Y78794D01*
X100254Y78916D01*
X100277Y79043D01*
X100299Y79182D01*
X100316Y79332D01*
X100321Y79493D01*
X100327Y79659D01*
Y79743D01*
X100321Y79787D01*
Y79837D01*
X100310Y79959D01*
X100299Y80031D01*
X100288Y80109D01*
X100260Y80270D01*
X100221Y80442D01*
X100171Y80625D01*
X100110Y80803D01*
X100027Y80975D01*
X99927Y81141D01*
X99872Y81213D01*
X99805Y81286D01*
X99738Y81347D01*
X99666Y81408D01*
X99589Y81458D01*
X99500Y81502D01*
X99411Y81535D01*
X99311Y81563D01*
X99206Y81580D01*
X99095Y81585D01*
X98795D01*
Y77661D01*
D02*
G37*
%LPD*%
G36*
X97645Y85944D02*
Y87160D01*
X99871Y90828D01*
X101170D01*
Y86893D01*
X102036D01*
Y85944D01*
X101170D01*
Y84729D01*
X100076D01*
Y85944D01*
X97645D01*
D02*
G37*
%LPC*%
G36*
X98700Y86893D02*
X100093D01*
Y89335D01*
X98700Y86893D01*
D02*
G37*
%LPD*%
G36*
X100542Y332694D02*
X100537Y332821D01*
Y332882D01*
X100542Y332923D01*
X100548Y332974D01*
X100553Y333035D01*
X100558Y333106D01*
X100588Y333259D01*
X100603Y333345D01*
X100654Y333523D01*
X100685Y333615D01*
X100721Y333707D01*
X100761Y333793D01*
X100812Y333880D01*
X100817Y333885D01*
X100822Y333900D01*
X100843Y333926D01*
X100863Y333956D01*
X100889Y333992D01*
X100924Y334037D01*
X100960Y334088D01*
X101006Y334139D01*
X101051Y334195D01*
X101107Y334256D01*
X101230Y334373D01*
X101367Y334490D01*
X101525Y334592D01*
X102100Y333854D01*
X102095Y333849D01*
X102080Y333839D01*
X102054Y333819D01*
X101983Y333758D01*
X101937Y333712D01*
X101891Y333661D01*
X101846Y333605D01*
X101800Y333544D01*
X101754Y333472D01*
X101708Y333396D01*
X101637Y333223D01*
X101611Y333126D01*
X101596Y333025D01*
X101591Y332918D01*
Y332892D01*
X101596Y332862D01*
Y332821D01*
X101606Y332775D01*
X101616Y332719D01*
X101632Y332658D01*
X101652Y332597D01*
X101678Y332531D01*
X101713Y332460D01*
X101749Y332393D01*
X101800Y332327D01*
X101856Y332266D01*
X101922Y332205D01*
X101998Y332154D01*
X102085Y332108D01*
X102090D01*
X102105Y332098D01*
X102136Y332088D01*
X102176Y332073D01*
X102283Y332037D01*
X102354Y332022D01*
X102436Y332001D01*
X102527Y331981D01*
X102624Y331961D01*
X102731Y331940D01*
X102975Y331910D01*
X103113Y331900D01*
X103255Y331895D01*
X103408Y331890D01*
X103495D01*
X103556Y331895D01*
X103632D01*
X103719Y331900D01*
X103815Y331905D01*
X103917Y331915D01*
X104029Y331925D01*
X104141Y331940D01*
X104380Y331976D01*
X104609Y332027D01*
X104716Y332063D01*
X104818Y332098D01*
X104823Y332103D01*
X104838Y332108D01*
X104864Y332124D01*
X104900Y332139D01*
X104935Y332164D01*
X104981Y332195D01*
X105027Y332231D01*
X105072Y332271D01*
X105123Y332317D01*
X105169Y332373D01*
X105215Y332434D01*
X105251Y332500D01*
X105286Y332572D01*
X105312Y332653D01*
X105327Y332740D01*
X105332Y332836D01*
Y332882D01*
X105322Y332938D01*
X105312Y333004D01*
X105297Y333075D01*
X105271Y333157D01*
X105235Y333238D01*
X105184Y333320D01*
X105179Y333330D01*
X105159Y333355D01*
X105078Y333437D01*
X105017Y333488D01*
X104940Y333539D01*
X104854Y333590D01*
X104757Y333635D01*
X104752D01*
X104742Y333641D01*
X104726Y333646D01*
X104706Y333651D01*
X104681Y333661D01*
X104645Y333671D01*
X104563Y333691D01*
X104467Y333712D01*
X104355Y333732D01*
X104223Y333742D01*
X104085Y333747D01*
Y332760D01*
X103194D01*
Y334684D01*
X106213D01*
Y333798D01*
X105795D01*
Y333758D01*
X105800D01*
X105806Y333752D01*
X105836Y333737D01*
X105882Y333712D01*
X105933Y333671D01*
X105994Y333620D01*
X106055Y333554D01*
X106116Y333467D01*
X106172Y333366D01*
Y333361D01*
X106177Y333350D01*
X106182Y333335D01*
X106192Y333315D01*
X106213Y333254D01*
X106258Y333070D01*
X106279Y332958D01*
X106294Y332831D01*
X106299Y332694D01*
Y332633D01*
X106294Y332587D01*
X106289Y332531D01*
X106279Y332470D01*
X106269Y332399D01*
X106253Y332322D01*
X106238Y332236D01*
X106213Y332149D01*
X106187Y332057D01*
X106152Y331966D01*
X106111Y331874D01*
X106065Y331783D01*
X106014Y331696D01*
X105953Y331610D01*
X105948Y331605D01*
X105938Y331589D01*
X105887Y331538D01*
X105851Y331498D01*
X105760Y331406D01*
X105699Y331355D01*
X105632Y331304D01*
X105561Y331248D01*
X105480Y331192D01*
X105297Y331080D01*
X105083Y330978D01*
X104966Y330933D01*
X104955D01*
X104935Y330922D01*
X104900Y330912D01*
X104849Y330897D01*
X104788Y330882D01*
X104716Y330861D01*
X104630Y330841D01*
X104528Y330821D01*
X104421Y330800D01*
X104304Y330780D01*
X104177Y330760D01*
X104044Y330744D01*
X103897Y330729D01*
X103749Y330719D01*
X103423Y330709D01*
X103337D01*
X103276Y330714D01*
X103199D01*
X103113Y330724D01*
X103011Y330729D01*
X102904Y330739D01*
X102787Y330749D01*
X102665Y330770D01*
X102410Y330810D01*
X102151Y330872D01*
X102024Y330907D01*
X101901Y330948D01*
X101896Y330953D01*
X101871Y330958D01*
X101840Y330973D01*
X101795Y330994D01*
X101739Y331019D01*
X101606Y331085D01*
X101453Y331177D01*
X101367Y331233D01*
X101286Y331289D01*
X101199Y331355D01*
X101118Y331421D01*
X101041Y331498D01*
X100965Y331579D01*
X100894Y331666D01*
X100889Y331671D01*
X100878Y331686D01*
X100863Y331711D01*
X100838Y331752D01*
X100812Y331798D01*
X100782Y331854D01*
X100746Y331915D01*
X100715Y331986D01*
X100680Y332068D01*
X100649Y332154D01*
X100619Y332251D01*
X100593Y332353D01*
X100568Y332460D01*
X100553Y332577D01*
X100542Y332694D01*
D02*
G37*
G36*
X100619Y335453D02*
Y336867D01*
X103545Y337845D01*
X104116Y338008D01*
X100619D01*
Y339168D01*
X106213D01*
Y337819D01*
X102838Y336613D01*
X106213D01*
Y335453D01*
X100619D01*
D02*
G37*
G36*
Y340049D02*
Y341443D01*
X100624Y341499D01*
X100629Y341576D01*
X100634Y341662D01*
X100639Y341759D01*
X100654Y341861D01*
X100665Y341973D01*
X100685Y342090D01*
X100731Y342324D01*
X100761Y342446D01*
X100797Y342563D01*
X100843Y342675D01*
X100889Y342782D01*
X100894Y342787D01*
X100899Y342808D01*
X100919Y342833D01*
X100939Y342874D01*
X100970Y342920D01*
X101006Y342970D01*
X101046Y343032D01*
X101097Y343093D01*
X101153Y343159D01*
X101219Y343230D01*
X101291Y343301D01*
X101367Y343368D01*
X101453Y343434D01*
X101545Y343500D01*
X101647Y343561D01*
X101759Y343617D01*
X101764Y343622D01*
X101784Y343627D01*
X101820Y343642D01*
X101871Y343663D01*
X101932Y343683D01*
X102003Y343703D01*
X102090Y343729D01*
X102187Y343759D01*
X102298Y343785D01*
X102421Y343810D01*
X102553Y343831D01*
X102701Y343851D01*
X102853Y343871D01*
X103021Y343887D01*
X103194Y343892D01*
X103383Y343897D01*
X103479D01*
X103551Y343892D01*
X103637Y343887D01*
X103739Y343882D01*
X103851Y343877D01*
X103973Y343866D01*
X104100Y343851D01*
X104233Y343836D01*
X104508Y343790D01*
X104645Y343759D01*
X104777Y343724D01*
X104904Y343683D01*
X105027Y343637D01*
X105032Y343632D01*
X105052Y343627D01*
X105088Y343612D01*
X105129Y343586D01*
X105179Y343561D01*
X105235Y343525D01*
X105302Y343484D01*
X105368Y343439D01*
X105444Y343383D01*
X105515Y343322D01*
X105668Y343179D01*
X105739Y343098D01*
X105806Y343006D01*
X105872Y342909D01*
X105928Y342808D01*
X105933Y342803D01*
X105938Y342782D01*
X105953Y342752D01*
X105973Y342706D01*
X105994Y342650D01*
X106019Y342579D01*
X106045Y342497D01*
X106070Y342406D01*
X106096Y342304D01*
X106121Y342192D01*
X106147Y342064D01*
X106167Y341932D01*
X106187Y341790D01*
X106202Y341632D01*
X106208Y341469D01*
X106213Y341296D01*
Y340049D01*
X100619D01*
D02*
G37*
%LPC*%
G36*
X101621Y341225D02*
X105220D01*
Y341464D01*
X105215Y341499D01*
X105210Y341540D01*
X105205Y341591D01*
X105195Y341652D01*
X105179Y341718D01*
X105159Y341790D01*
X105134Y341861D01*
X105098Y341937D01*
X105057Y342014D01*
X105011Y342090D01*
X104955Y342161D01*
X104889Y342232D01*
X104813Y342294D01*
X104726Y342350D01*
X104721Y342355D01*
X104701Y342360D01*
X104675Y342375D01*
X104635Y342395D01*
X104584Y342416D01*
X104523Y342436D01*
X104452Y342461D01*
X104370Y342492D01*
X104279Y342517D01*
X104182Y342543D01*
X104070Y342563D01*
X103953Y342584D01*
X103825Y342604D01*
X103688Y342619D01*
X103540Y342624D01*
X103388Y342629D01*
X103311D01*
X103271Y342624D01*
X103225D01*
X103113Y342614D01*
X103047Y342604D01*
X102975Y342594D01*
X102828Y342568D01*
X102670Y342533D01*
X102502Y342487D01*
X102339Y342431D01*
X102181Y342355D01*
X102029Y342263D01*
X101962Y342212D01*
X101896Y342151D01*
X101840Y342090D01*
X101784Y342024D01*
X101739Y341952D01*
X101698Y341871D01*
X101667Y341790D01*
X101642Y341698D01*
X101627Y341601D01*
X101621Y341499D01*
Y341225D01*
D02*
G37*
%LPD*%
G36*
X100891Y93080D02*
Y104267D01*
X108159D01*
Y102262D01*
X103242D01*
Y99829D01*
X107895D01*
Y97813D01*
X103242D01*
Y95065D01*
X108383D01*
Y93080D01*
X100891D01*
D02*
G37*
G36*
X104256Y84729D02*
X102724Y90828D01*
X104061D01*
X104905Y86638D01*
X105748Y90828D01*
X107069D01*
X105532Y84729D01*
X104256D01*
D02*
G37*
G36*
X107458Y80348D02*
Y81202D01*
X109207D01*
X109368Y80425D01*
Y80431D01*
X109379Y80448D01*
X109390Y80475D01*
X109406Y80509D01*
X109423Y80553D01*
X109451Y80603D01*
X109512Y80708D01*
X109595Y80825D01*
X109695Y80941D01*
X109806Y81041D01*
X109873Y81086D01*
X109939Y81119D01*
X109945D01*
X109978Y81136D01*
X110006Y81147D01*
X110039Y81158D01*
X110078Y81174D01*
X110178Y81208D01*
X110300Y81236D01*
X110433Y81263D01*
X110577Y81286D01*
X110727Y81291D01*
X110783D01*
X110811Y81286D01*
X110844D01*
X110927Y81269D01*
X111027Y81252D01*
X111138Y81225D01*
X111255Y81186D01*
X111377Y81130D01*
X111382D01*
X111393Y81125D01*
X111410Y81113D01*
X111432Y81102D01*
X111493Y81069D01*
X111571Y81025D01*
X111665Y80969D01*
X111760Y80903D01*
X111854Y80830D01*
X111948Y80747D01*
X111255Y79942D01*
X111243Y79953D01*
X111221Y79965D01*
X111199Y79987D01*
X111171Y80003D01*
X111133Y80026D01*
X111094Y80053D01*
X111044Y80076D01*
X110994Y80103D01*
X110933Y80126D01*
X110800Y80170D01*
X110644Y80198D01*
X110561Y80203D01*
X110472Y80209D01*
X110428D01*
X110378Y80203D01*
X110317Y80192D01*
X110245Y80170D01*
X110161Y80142D01*
X110078Y80103D01*
X109995Y80053D01*
X109984Y80048D01*
X109961Y80026D01*
X109917Y79992D01*
X109867Y79942D01*
X109812Y79876D01*
X109756Y79798D01*
X109695Y79704D01*
X109640Y79598D01*
Y79593D01*
X109634Y79587D01*
X109628Y79565D01*
X109617Y79543D01*
X109606Y79515D01*
X109595Y79482D01*
X109573Y79393D01*
X109551Y79287D01*
X109529Y79160D01*
X109512Y79021D01*
X109506Y78866D01*
Y76579D01*
X108274D01*
X108285Y79371D01*
Y79476D01*
X108280Y79543D01*
Y79615D01*
X108274Y79698D01*
X108269Y79776D01*
X108258Y79848D01*
Y79859D01*
X108252Y79881D01*
X108247Y79920D01*
X108241Y79981D01*
X108230Y80053D01*
X108213Y80137D01*
X108202Y80237D01*
X108180Y80348D01*
X107458D01*
D02*
G37*
G36*
X110093Y93080D02*
Y104267D01*
X112883D01*
X112995Y104257D01*
X113147Y104247D01*
X113321Y104237D01*
X113514Y104227D01*
X113717Y104196D01*
X113942Y104176D01*
X114176Y104135D01*
X114644Y104043D01*
X114888Y103982D01*
X115122Y103911D01*
X115346Y103820D01*
X115560Y103728D01*
X115570Y103718D01*
X115611Y103708D01*
X115662Y103667D01*
X115743Y103626D01*
X115835Y103565D01*
X115937Y103494D01*
X116059Y103412D01*
X116181Y103311D01*
X116313Y103199D01*
X116456Y103066D01*
X116598Y102924D01*
X116731Y102771D01*
X116863Y102598D01*
X116996Y102415D01*
X117118Y102211D01*
X117230Y101987D01*
X117240Y101977D01*
X117250Y101936D01*
X117280Y101865D01*
X117321Y101763D01*
X117362Y101641D01*
X117403Y101498D01*
X117454Y101325D01*
X117515Y101132D01*
X117566Y100908D01*
X117616Y100664D01*
X117657Y100399D01*
X117698Y100104D01*
X117739Y99798D01*
X117769Y99462D01*
X117779Y99116D01*
X117789Y98740D01*
Y98546D01*
X117779Y98404D01*
X117769Y98231D01*
X117759Y98027D01*
X117749Y97803D01*
X117728Y97559D01*
X117698Y97304D01*
X117667Y97040D01*
X117576Y96490D01*
X117515Y96215D01*
X117443Y95950D01*
X117362Y95696D01*
X117270Y95451D01*
X117260Y95441D01*
X117250Y95401D01*
X117219Y95329D01*
X117169Y95248D01*
X117118Y95146D01*
X117046Y95034D01*
X116965Y94902D01*
X116873Y94770D01*
X116761Y94617D01*
X116639Y94474D01*
X116354Y94169D01*
X116191Y94026D01*
X116008Y93894D01*
X115815Y93762D01*
X115611Y93650D01*
X115601Y93639D01*
X115560Y93629D01*
X115499Y93599D01*
X115407Y93558D01*
X115295Y93517D01*
X115153Y93466D01*
X114990Y93415D01*
X114807Y93365D01*
X114603Y93314D01*
X114379Y93263D01*
X114125Y93212D01*
X113860Y93171D01*
X113575Y93130D01*
X113259Y93100D01*
X112934Y93090D01*
X112588Y93080D01*
X110093D01*
D02*
G37*
%LPC*%
G36*
X112445Y95065D02*
X112924D01*
X112995Y95075D01*
X113076Y95085D01*
X113178Y95095D01*
X113300Y95116D01*
X113433Y95146D01*
X113575Y95187D01*
X113717Y95238D01*
X113870Y95309D01*
X114023Y95390D01*
X114176Y95482D01*
X114318Y95594D01*
X114461Y95726D01*
X114583Y95879D01*
X114695Y96052D01*
X114705Y96062D01*
X114715Y96103D01*
X114746Y96154D01*
X114786Y96235D01*
X114827Y96337D01*
X114868Y96459D01*
X114919Y96602D01*
X114980Y96765D01*
X115031Y96948D01*
X115082Y97141D01*
X115122Y97365D01*
X115163Y97600D01*
X115204Y97854D01*
X115234Y98129D01*
X115244Y98424D01*
X115255Y98729D01*
Y98882D01*
X115244Y98964D01*
Y99055D01*
X115224Y99279D01*
X115204Y99411D01*
X115183Y99554D01*
X115132Y99849D01*
X115061Y100165D01*
X114970Y100501D01*
X114858Y100827D01*
X114705Y101142D01*
X114522Y101448D01*
X114420Y101580D01*
X114298Y101712D01*
X114176Y101824D01*
X114043Y101936D01*
X113901Y102028D01*
X113738Y102109D01*
X113575Y102170D01*
X113392Y102221D01*
X113198Y102252D01*
X112995Y102262D01*
X112445D01*
Y95065D01*
D02*
G37*
%LPD*%
G36*
X112670Y77784D02*
X112664Y77933D01*
Y77967D01*
X112670Y78011D01*
X112675Y78066D01*
X112681Y78133D01*
X112698Y78211D01*
X112714Y78294D01*
X112742Y78389D01*
X112775Y78483D01*
X112814Y78577D01*
X112864Y78677D01*
X112920Y78771D01*
X112992Y78866D01*
X113075Y78954D01*
X113169Y79032D01*
X113275Y79104D01*
X113280Y79110D01*
X113336Y79138D01*
X113386Y79160D01*
X113447Y79188D01*
X113519Y79215D01*
X113608Y79249D01*
X113702Y79282D01*
X113813Y79315D01*
X113930Y79349D01*
X114063Y79376D01*
X114202Y79404D01*
X114351Y79426D01*
X114507Y79443D01*
X114673Y79454D01*
X114851Y79460D01*
X115378D01*
Y79648D01*
X115373Y79687D01*
X115367Y79732D01*
X115356Y79782D01*
X115345Y79837D01*
X115323Y79898D01*
X115295Y79959D01*
X115289Y79965D01*
X115278Y79987D01*
X115262Y80015D01*
X115234Y80053D01*
X115151Y80137D01*
X115095Y80176D01*
X115034Y80214D01*
X115029Y80220D01*
X115001Y80231D01*
X114962Y80248D01*
X114912Y80264D01*
X114851Y80281D01*
X114773Y80298D01*
X114690Y80309D01*
X114596Y80314D01*
X114551D01*
X114496Y80309D01*
X114424Y80298D01*
X114340Y80287D01*
X114252Y80264D01*
X114152Y80237D01*
X114046Y80198D01*
X114041D01*
X114035Y80192D01*
X114018Y80187D01*
X114002Y80176D01*
X113946Y80153D01*
X113880Y80115D01*
X113796Y80070D01*
X113713Y80009D01*
X113619Y79942D01*
X113530Y79865D01*
X112920Y80592D01*
X112936Y80608D01*
X112959Y80625D01*
X112992Y80647D01*
X113031Y80675D01*
X113075Y80708D01*
X113125Y80747D01*
X113180Y80786D01*
X113308Y80864D01*
X113452Y80953D01*
X113608Y81030D01*
X113774Y81097D01*
X113780D01*
X113796Y81102D01*
X113819Y81113D01*
X113852Y81125D01*
X113896Y81136D01*
X113946Y81152D01*
X114002Y81164D01*
X114068Y81180D01*
X114213Y81213D01*
X114385Y81236D01*
X114568Y81258D01*
X114768Y81263D01*
X114857D01*
X114918Y81258D01*
X114990Y81252D01*
X115079Y81241D01*
X115173Y81225D01*
X115278Y81208D01*
X115384Y81186D01*
X115500Y81158D01*
X115611Y81119D01*
X115728Y81080D01*
X115839Y81030D01*
X115944Y80969D01*
X116044Y80903D01*
X116139Y80825D01*
X116183Y80781D01*
X116211Y80742D01*
X116250Y80697D01*
X116288Y80642D01*
X116333Y80581D01*
X116377Y80503D01*
X116422Y80420D01*
X116466Y80325D01*
X116505Y80220D01*
X116544Y80103D01*
X116571Y79981D01*
X116594Y79848D01*
X116610Y79704D01*
X116616Y79548D01*
Y77723D01*
X116621Y77623D01*
Y77517D01*
X116627Y77406D01*
X116633Y77289D01*
Y77256D01*
X116638Y77234D01*
Y77206D01*
X116644Y77173D01*
X116649Y77084D01*
X116660Y76984D01*
X116671Y76862D01*
X116683Y76723D01*
X116699Y76579D01*
X115428D01*
Y76590D01*
X115423Y76607D01*
Y76629D01*
X115417Y76679D01*
X115406Y76751D01*
X115401Y76834D01*
X115395Y76929D01*
X115384Y77140D01*
Y77134D01*
X115378Y77123D01*
X115367Y77106D01*
X115350Y77090D01*
X115312Y77029D01*
X115262Y76957D01*
X115195Y76879D01*
X115117Y76801D01*
X115029Y76723D01*
X114923Y76657D01*
X114918D01*
X114912Y76651D01*
X114895Y76640D01*
X114873Y76635D01*
X114840Y76618D01*
X114807Y76607D01*
X114768Y76590D01*
X114723Y76579D01*
X114612Y76546D01*
X114485Y76524D01*
X114335Y76501D01*
X114168Y76496D01*
X114118D01*
X114085Y76501D01*
X114041D01*
X113991Y76507D01*
X113935Y76512D01*
X113874Y76518D01*
X113747Y76540D01*
X113602Y76574D01*
X113463Y76624D01*
X113330Y76685D01*
X113325D01*
X113314Y76696D01*
X113297Y76707D01*
X113275Y76718D01*
X113214Y76762D01*
X113142Y76818D01*
X113058Y76895D01*
X112975Y76984D01*
X112897Y77084D01*
X112825Y77201D01*
Y77206D01*
X112820Y77217D01*
X112809Y77234D01*
X112803Y77256D01*
X112786Y77289D01*
X112775Y77328D01*
X112748Y77417D01*
X112714Y77523D01*
X112692Y77650D01*
X112670Y77784D01*
D02*
G37*
%LPC*%
G36*
X113769Y77939D02*
X113774Y77917D01*
X113780Y77861D01*
X113791Y77795D01*
X113819Y77717D01*
X113852Y77639D01*
X113896Y77567D01*
X113963Y77506D01*
X113974Y77500D01*
X114002Y77484D01*
X114041Y77456D01*
X114102Y77434D01*
X114174Y77406D01*
X114257Y77378D01*
X114357Y77362D01*
X114462Y77356D01*
X114507D01*
X114535Y77362D01*
X114574Y77367D01*
X114618Y77373D01*
X114712Y77395D01*
X114823Y77434D01*
X114879Y77462D01*
X114990Y77528D01*
X115045Y77573D01*
X115095Y77623D01*
X115140Y77678D01*
X115145Y77684D01*
X115151Y77695D01*
X115162Y77711D01*
X115179Y77739D01*
X115195Y77772D01*
X115212Y77811D01*
X115234Y77861D01*
X115256Y77917D01*
X115301Y78050D01*
X115317Y78128D01*
X115350Y78305D01*
X115362Y78405D01*
X115373Y78511D01*
Y78627D01*
X115345D01*
X115312Y78633D01*
X115217D01*
X115156Y78638D01*
X114918D01*
X114862Y78633D01*
X114801Y78627D01*
X114734D01*
X114668Y78616D01*
X114513Y78599D01*
X114357Y78566D01*
X114207Y78527D01*
X114141Y78500D01*
X114080Y78472D01*
X114074D01*
X114068Y78466D01*
X114030Y78444D01*
X113980Y78405D01*
X113924Y78350D01*
X113869Y78277D01*
X113819Y78189D01*
X113780Y78089D01*
X113769Y77967D01*
Y77939D01*
D02*
G37*
%LPD*%
G36*
X117676Y80209D02*
Y81202D01*
X118991D01*
Y82745D01*
X120223D01*
Y81202D01*
X121566D01*
Y80209D01*
X120223D01*
Y78466D01*
X120229Y78399D01*
Y78322D01*
X120240Y78233D01*
X120251Y78139D01*
X120262Y78050D01*
X120284Y77967D01*
X120290Y77956D01*
X120296Y77933D01*
X120334Y77856D01*
X120362Y77811D01*
X120401Y77761D01*
X120440Y77717D01*
X120490Y77678D01*
X120495Y77672D01*
X120518Y77667D01*
X120545Y77650D01*
X120590Y77639D01*
X120640Y77623D01*
X120701Y77606D01*
X120773Y77600D01*
X120851Y77595D01*
X120923D01*
X120978Y77600D01*
X121045D01*
X121123Y77606D01*
X121206Y77612D01*
X121295Y77623D01*
X121306D01*
X121339Y77628D01*
X121383Y77634D01*
X121444Y77645D01*
X121517Y77661D01*
X121594Y77672D01*
X121672Y77689D01*
X121744Y77711D01*
Y76662D01*
X121739D01*
X121722Y76657D01*
X121700Y76651D01*
X121666Y76646D01*
X121622Y76635D01*
X121566Y76629D01*
X121500Y76618D01*
X121428Y76607D01*
X121344Y76596D01*
X121250Y76585D01*
X121145Y76579D01*
X121028Y76568D01*
X120906Y76562D01*
X120773Y76557D01*
X120629Y76551D01*
X120401D01*
X120345Y76557D01*
X120284Y76562D01*
X120129Y76585D01*
X120040Y76601D01*
X119951Y76624D01*
X119857Y76646D01*
X119763Y76679D01*
X119668Y76718D01*
X119580Y76762D01*
X119491Y76818D01*
X119413Y76879D01*
X119341Y76946D01*
X119324Y76962D01*
X119308Y76984D01*
X119286Y77018D01*
X119258Y77056D01*
X119230Y77106D01*
X119197Y77162D01*
X119169Y77228D01*
X119136Y77301D01*
X119102Y77378D01*
X119075Y77462D01*
X119047Y77556D01*
X119025Y77656D01*
X119008Y77761D01*
X118997Y77878D01*
X118991Y77994D01*
Y80209D01*
X117676D01*
D02*
G37*
G36*
X123021Y76579D02*
Y77439D01*
X124303D01*
Y80281D01*
X123109D01*
Y81202D01*
X125529D01*
Y77439D01*
X126656D01*
Y76579D01*
X123021D01*
D02*
G37*
G36*
X124086Y82429D02*
X124081Y82568D01*
Y82606D01*
X124086Y82634D01*
Y82667D01*
X124092Y82701D01*
X124103Y82790D01*
X124119Y82878D01*
X124153Y82973D01*
X124192Y83056D01*
X124219Y83095D01*
X124247Y83128D01*
X124253Y83134D01*
X124281Y83156D01*
X124319Y83184D01*
X124380Y83211D01*
X124458Y83245D01*
X124552Y83267D01*
X124669Y83289D01*
X124808Y83295D01*
X124874D01*
X124941Y83284D01*
X125030Y83272D01*
X125119Y83256D01*
X125213Y83223D01*
X125296Y83184D01*
X125335Y83156D01*
X125368Y83128D01*
X125374Y83123D01*
X125396Y83095D01*
X125424Y83056D01*
X125452Y83000D01*
X125485Y82923D01*
X125507Y82823D01*
X125529Y82706D01*
X125535Y82640D01*
Y82501D01*
X125529Y82473D01*
X125524Y82434D01*
X125513Y82351D01*
X125496Y82257D01*
X125463Y82162D01*
X125424Y82079D01*
X125368Y82007D01*
X125363Y82002D01*
X125335Y81979D01*
X125296Y81957D01*
X125241Y81924D01*
X125163Y81896D01*
X125063Y81868D01*
X124946Y81846D01*
X124880Y81840D01*
X124769D01*
X124741Y81846D01*
X124713D01*
X124674Y81852D01*
X124591Y81863D01*
X124497Y81879D01*
X124403Y81913D01*
X124319Y81951D01*
X124247Y82007D01*
X124242Y82013D01*
X124219Y82040D01*
X124197Y82079D01*
X124164Y82140D01*
X124136Y82218D01*
X124108Y82312D01*
X124086Y82429D01*
D02*
G37*
G36*
X127916Y81091D02*
X127905Y81202D01*
X129109D01*
X129176Y80625D01*
X129181Y80631D01*
X129187Y80642D01*
X129198Y80658D01*
X129214Y80681D01*
X129264Y80742D01*
X129325Y80819D01*
X129403Y80903D01*
X129492Y80986D01*
X129592Y81063D01*
X129697Y81130D01*
X129703D01*
X129708Y81136D01*
X129725Y81147D01*
X129747Y81152D01*
X129780Y81169D01*
X129897Y81208D01*
X129997Y81236D01*
X130119Y81263D01*
X130252Y81280D01*
X130402Y81286D01*
X130447D01*
X130480Y81280D01*
X130519D01*
X130563Y81274D01*
X130668Y81263D01*
X130791Y81236D01*
X130918Y81202D01*
X131046Y81152D01*
X131174Y81086D01*
X131179D01*
X131190Y81075D01*
X131207Y81063D01*
X131229Y81047D01*
X131285Y81002D01*
X131357Y80936D01*
X131440Y80858D01*
X131523Y80758D01*
X131601Y80636D01*
X131673Y80503D01*
Y80497D01*
X131690Y80464D01*
X131701Y80436D01*
X131712Y80398D01*
X131729Y80353D01*
X131745Y80303D01*
X131762Y80242D01*
X131773Y80181D01*
X131806Y80037D01*
X131817Y79953D01*
X131840Y79776D01*
X131845Y79582D01*
Y76579D01*
X130607D01*
Y79226D01*
X130602Y79271D01*
Y79326D01*
X130596Y79387D01*
X130591Y79454D01*
X130569Y79593D01*
X130546Y79743D01*
X130508Y79887D01*
X130458Y80020D01*
Y80026D01*
X130452Y80037D01*
X130430Y80070D01*
X130391Y80126D01*
X130335Y80187D01*
X130263Y80248D01*
X130175Y80303D01*
X130064Y80336D01*
X129997Y80348D01*
X129930Y80353D01*
X129892D01*
X129864Y80348D01*
X129831Y80342D01*
X129797Y80331D01*
X129708Y80309D01*
X129614Y80259D01*
X129570Y80231D01*
X129520Y80192D01*
X129475Y80153D01*
X129431Y80098D01*
X129392Y80042D01*
X129359Y79976D01*
Y79970D01*
X129342Y79937D01*
X129331Y79909D01*
X129320Y79870D01*
X129309Y79826D01*
X129292Y79770D01*
X129276Y79709D01*
X129259Y79643D01*
X129248Y79565D01*
X129231Y79482D01*
X129220Y79393D01*
X129209Y79299D01*
X129198Y79199D01*
X129192Y79093D01*
Y76579D01*
X127971D01*
Y80353D01*
X127966Y80425D01*
Y80503D01*
X127955Y80669D01*
Y80681D01*
X127949Y80708D01*
Y80753D01*
X127944Y80819D01*
X127938Y80897D01*
X127927Y80986D01*
X127916Y81091D01*
D02*
G37*
G36*
X132655Y75996D02*
X132644Y76130D01*
Y76185D01*
X132655Y76246D01*
X132667Y76329D01*
X132683Y76418D01*
X132711Y76512D01*
X132750Y76613D01*
X132805Y76707D01*
Y76712D01*
X132811Y76718D01*
X132833Y76751D01*
X132872Y76796D01*
X132922Y76857D01*
X132988Y76929D01*
X133072Y77007D01*
X133166Y77090D01*
X133272Y77167D01*
Y77173D01*
X133260Y77179D01*
X133249Y77195D01*
X133233Y77212D01*
X133194Y77267D01*
X133155Y77340D01*
X133110Y77428D01*
X133072Y77528D01*
X133044Y77639D01*
X133033Y77761D01*
Y77800D01*
X133038Y77839D01*
X133044Y77889D01*
X133055Y77944D01*
X133072Y78000D01*
X133094Y78061D01*
X133127Y78117D01*
X133133Y78122D01*
X133144Y78144D01*
X133166Y78172D01*
X133199Y78211D01*
X133233Y78255D01*
X133338Y78361D01*
X133399Y78416D01*
X133394D01*
X133388Y78427D01*
X133371Y78438D01*
X133349Y78449D01*
X133299Y78494D01*
X133233Y78549D01*
X133155Y78616D01*
X133072Y78699D01*
X132988Y78788D01*
X132911Y78894D01*
Y78899D01*
X132900Y78905D01*
X132894Y78921D01*
X132877Y78949D01*
X132866Y78977D01*
X132827Y79054D01*
X132811Y79099D01*
X132794Y79154D01*
X132772Y79215D01*
X132744Y79343D01*
X132722Y79498D01*
X132711Y79671D01*
Y79720D01*
X132717Y79759D01*
Y79804D01*
X132722Y79854D01*
X132744Y79976D01*
X132772Y80115D01*
X132816Y80264D01*
X132877Y80414D01*
X132916Y80486D01*
X132961Y80553D01*
X132966Y80559D01*
X132972Y80570D01*
X132988Y80586D01*
X133005Y80614D01*
X133066Y80675D01*
X133144Y80758D01*
X133244Y80841D01*
X133360Y80930D01*
X133499Y81019D01*
X133654Y81091D01*
X133660D01*
X133677Y81097D01*
X133699Y81108D01*
X133732Y81119D01*
X133771Y81136D01*
X133821Y81147D01*
X133882Y81164D01*
X133943Y81186D01*
X134087Y81219D01*
X134171Y81230D01*
X134259Y81247D01*
X134448Y81269D01*
X134648Y81274D01*
X134742D01*
X134781Y81269D01*
X134870D01*
X134975Y81258D01*
X135092Y81247D01*
X135214Y81230D01*
X135336Y81208D01*
X137217D01*
Y80264D01*
X136424D01*
Y80259D01*
X136429Y80253D01*
X136435Y80237D01*
X136446Y80220D01*
X136463Y80164D01*
X136490Y80092D01*
X136513Y79998D01*
X136529Y79892D01*
X136546Y79776D01*
X136551Y79648D01*
Y79604D01*
X136546Y79576D01*
Y79537D01*
X136535Y79437D01*
X136524Y79382D01*
X136496Y79254D01*
X136457Y79121D01*
X136402Y78977D01*
X136329Y78832D01*
Y78827D01*
X136318Y78816D01*
X136307Y78794D01*
X136291Y78771D01*
X136268Y78738D01*
X136241Y78699D01*
X136174Y78616D01*
X136085Y78522D01*
X135985Y78416D01*
X135863Y78316D01*
X135725Y78228D01*
X135719D01*
X135708Y78216D01*
X135686Y78205D01*
X135658Y78194D01*
X135619Y78177D01*
X135575Y78155D01*
X135525Y78139D01*
X135469Y78117D01*
X135408Y78094D01*
X135342Y78078D01*
X135197Y78039D01*
X135031Y78017D01*
X134859Y78005D01*
X134764D01*
X134731Y78011D01*
X134642D01*
X134542Y78022D01*
X134437Y78033D01*
X134326Y78044D01*
X134221Y78066D01*
X134215D01*
X134209Y78061D01*
X134176Y78039D01*
X134137Y78011D01*
X134104Y77972D01*
X134098Y77961D01*
X134087Y77933D01*
X134076Y77889D01*
X134071Y77828D01*
Y77811D01*
X134076Y77789D01*
X134098Y77734D01*
X134121Y77700D01*
X134148Y77667D01*
X134187Y77639D01*
X134193Y77634D01*
X134209Y77628D01*
X134237Y77617D01*
X134276Y77606D01*
X134326Y77589D01*
X134381Y77578D01*
X134454Y77573D01*
X134531Y77567D01*
X135003Y77573D01*
X135275Y77578D01*
X135414D01*
X135508Y77573D01*
X135614Y77567D01*
X135725Y77556D01*
X135830Y77545D01*
X135935Y77528D01*
X135947D01*
X135980Y77517D01*
X136030Y77506D01*
X136091Y77495D01*
X136163Y77473D01*
X136235Y77445D01*
X136313Y77412D01*
X136402Y77367D01*
X136429Y77345D01*
X136468Y77317D01*
X136524Y77273D01*
X136585Y77217D01*
X136646Y77151D01*
X136707Y77073D01*
X136768Y76990D01*
X136774Y76979D01*
X136790Y76951D01*
X136818Y76901D01*
X136846Y76834D01*
X136873Y76757D01*
X136901Y76668D01*
X136918Y76574D01*
X136923Y76468D01*
Y76435D01*
X136918Y76413D01*
Y76379D01*
X136912Y76346D01*
X136901Y76257D01*
X136873Y76157D01*
X136840Y76046D01*
X136796Y75924D01*
X136729Y75797D01*
Y75791D01*
X136718Y75780D01*
X136707Y75763D01*
X136696Y75741D01*
X136651Y75674D01*
X136590Y75597D01*
X136518Y75508D01*
X136429Y75408D01*
X136329Y75314D01*
X136213Y75225D01*
X136207D01*
X136202Y75214D01*
X136185Y75208D01*
X136163Y75192D01*
X136135Y75175D01*
X136102Y75158D01*
X136019Y75114D01*
X135913Y75064D01*
X135797Y75014D01*
X135663Y74964D01*
X135514Y74920D01*
X135508D01*
X135497Y74914D01*
X135475Y74909D01*
X135442Y74903D01*
X135403Y74892D01*
X135358Y74881D01*
X135308Y74870D01*
X135253Y74864D01*
X135120Y74842D01*
X134975Y74820D01*
X134814Y74809D01*
X134648Y74803D01*
X134559D01*
X134520Y74809D01*
X134431Y74814D01*
X134332Y74820D01*
X134221Y74831D01*
X134109Y74848D01*
X133993Y74870D01*
X133987D01*
X133982Y74875D01*
X133965D01*
X133943Y74881D01*
X133882Y74897D01*
X133810Y74920D01*
X133721Y74948D01*
X133621Y74981D01*
X133516Y75020D01*
X133410Y75070D01*
X133405D01*
X133394Y75075D01*
X133377Y75086D01*
X133355Y75097D01*
X133294Y75136D01*
X133216Y75186D01*
X133127Y75247D01*
X133033Y75319D01*
X132944Y75402D01*
X132855Y75497D01*
Y75502D01*
X132844Y75508D01*
X132839Y75525D01*
X132822Y75541D01*
X132789Y75597D01*
X132750Y75674D01*
X132711Y75769D01*
X132678Y75874D01*
X132655Y75996D01*
D02*
G37*
%LPC*%
G36*
X133815Y76307D02*
X133821Y76279D01*
X133832Y76246D01*
X133843Y76202D01*
X133860Y76157D01*
X133888Y76107D01*
X133926Y76063D01*
X133971Y76019D01*
X134010Y75991D01*
X134048Y75958D01*
X134104Y75924D01*
X134165Y75891D01*
X134237Y75863D01*
X134248Y75858D01*
X134315Y75841D01*
X134370Y75824D01*
X134437Y75808D01*
X134509Y75797D01*
X134687Y75785D01*
X134731D01*
X134781Y75791D01*
X134848D01*
X134920Y75802D01*
X135086Y75824D01*
X135175Y75847D01*
X135186D01*
X135214Y75858D01*
X135258Y75869D01*
X135308Y75885D01*
X135369Y75913D01*
X135436Y75935D01*
X135503Y75969D01*
X135569Y76007D01*
X135575Y76013D01*
X135591Y76024D01*
X135608Y76041D01*
X135636Y76063D01*
X135691Y76113D01*
X135719Y76146D01*
X135741Y76179D01*
Y76185D01*
X135752Y76196D01*
X135758Y76213D01*
X135769Y76241D01*
X135786Y76302D01*
X135797Y76379D01*
Y76390D01*
X135791Y76418D01*
X135780Y76457D01*
X135758Y76507D01*
X135719Y76551D01*
X135691Y76574D01*
X135658Y76590D01*
X135619Y76607D01*
X135580Y76618D01*
X135525Y76629D01*
X135414D01*
X135380Y76624D01*
X135347D01*
X135258Y76613D01*
X135247D01*
X135231Y76607D01*
X135208D01*
X135147Y76601D01*
X135070Y76596D01*
X134970Y76590D01*
X134864Y76585D01*
X134742Y76579D01*
X134554D01*
X134520Y76585D01*
X134487D01*
X134398Y76596D01*
X134304Y76613D01*
X134198Y76635D01*
X134087Y76668D01*
X133982Y76712D01*
X133976Y76707D01*
X133971Y76696D01*
X133938Y76651D01*
X133899Y76590D01*
X133860Y76518D01*
Y76512D01*
X133854Y76501D01*
X133849Y76485D01*
X133838Y76457D01*
X133821Y76402D01*
X133815Y76335D01*
Y76307D01*
D02*
G37*
G36*
Y79621D02*
X133821Y79593D01*
X133826Y79532D01*
X133843Y79454D01*
X133871Y79360D01*
X133910Y79271D01*
X133965Y79182D01*
X134037Y79099D01*
X134048Y79093D01*
X134076Y79071D01*
X134126Y79038D01*
X134193Y79005D01*
X134276Y78966D01*
X134370Y78938D01*
X134481Y78916D01*
X134604Y78905D01*
X134642D01*
X134687Y78910D01*
X134742Y78916D01*
X134803Y78927D01*
X134875Y78943D01*
X134942Y78966D01*
X135014Y78993D01*
X135047Y79010D01*
X135081Y79032D01*
X135120Y79060D01*
X135170Y79093D01*
X135220Y79138D01*
X135264Y79188D01*
X135308Y79249D01*
X135314Y79254D01*
X135325Y79276D01*
X135342Y79315D01*
X135364Y79360D01*
X135386Y79421D01*
X135403Y79487D01*
X135414Y79571D01*
X135419Y79654D01*
Y79693D01*
X135414Y79743D01*
X135408Y79798D01*
X135392Y79865D01*
X135375Y79937D01*
X135347Y80009D01*
X135314Y80076D01*
X135308Y80081D01*
X135297Y80103D01*
X135269Y80137D01*
X135236Y80176D01*
X135197Y80220D01*
X135147Y80264D01*
X135092Y80303D01*
X135025Y80342D01*
X135020Y80348D01*
X134992Y80359D01*
X134953Y80370D01*
X134903Y80392D01*
X134842Y80409D01*
X134775Y80420D01*
X134698Y80431D01*
X134615Y80436D01*
X134576D01*
X134537Y80431D01*
X134481Y80425D01*
X134420Y80414D01*
X134348Y80398D01*
X134282Y80375D01*
X134209Y80342D01*
X134204Y80336D01*
X134182Y80325D01*
X134148Y80303D01*
X134104Y80275D01*
X134060Y80237D01*
X134010Y80192D01*
X133965Y80137D01*
X133921Y80076D01*
X133915Y80070D01*
X133904Y80042D01*
X133888Y80009D01*
X133849Y79892D01*
X133832Y79820D01*
X133821Y79743D01*
X133815Y79654D01*
Y79621D01*
D02*
G37*
%LPD*%
G36*
X157792Y326772D02*
Y327998D01*
X161635Y328772D01*
X157792Y329546D01*
Y330757D01*
X163386Y329347D01*
Y328176D01*
X157792Y326772D01*
D02*
G37*
G36*
Y331627D02*
Y332808D01*
X162322D01*
Y335328D01*
X163386D01*
Y331627D01*
X157792D01*
D02*
G37*
G36*
Y336168D02*
Y339802D01*
X158795D01*
Y337344D01*
X160011D01*
Y339670D01*
X161019D01*
Y337344D01*
X162393D01*
Y339914D01*
X163386D01*
Y336168D01*
X157792D01*
D02*
G37*
G36*
Y340769D02*
Y342164D01*
X157797Y342220D01*
X157802Y342296D01*
X157807Y342383D01*
X157812Y342479D01*
X157827Y342581D01*
X157838Y342693D01*
X157858Y342810D01*
X157904Y343044D01*
X157934Y343167D01*
X157970Y343284D01*
X158016Y343396D01*
X158062Y343502D01*
X158067Y343508D01*
X158072Y343528D01*
X158092Y343553D01*
X158113Y343594D01*
X158143Y343640D01*
X158179Y343691D01*
X158220Y343752D01*
X158270Y343813D01*
X158326Y343879D01*
X158393Y343950D01*
X158464Y344022D01*
X158540Y344088D01*
X158627Y344154D01*
X158718Y344220D01*
X158820Y344281D01*
X158932Y344337D01*
X158937Y344342D01*
X158958Y344347D01*
X158993Y344363D01*
X159044Y344383D01*
X159105Y344403D01*
X159176Y344424D01*
X159263Y344449D01*
X159360Y344480D01*
X159472Y344505D01*
X159594Y344531D01*
X159726Y344551D01*
X159874Y344571D01*
X160026Y344592D01*
X160194Y344607D01*
X160367Y344612D01*
X160556Y344617D01*
X160652D01*
X160724Y344612D01*
X160810Y344607D01*
X160912Y344602D01*
X161024Y344597D01*
X161146Y344587D01*
X161274Y344571D01*
X161406Y344556D01*
X161681Y344510D01*
X161818Y344480D01*
X161950Y344444D01*
X162078Y344403D01*
X162200Y344358D01*
X162205Y344353D01*
X162225Y344347D01*
X162261Y344332D01*
X162302Y344307D01*
X162353Y344281D01*
X162408Y344246D01*
X162475Y344205D01*
X162541Y344159D01*
X162617Y344103D01*
X162689Y344042D01*
X162841Y343899D01*
X162912Y343818D01*
X162979Y343726D01*
X163045Y343630D01*
X163101Y343528D01*
X163106Y343523D01*
X163111Y343502D01*
X163126Y343472D01*
X163147Y343426D01*
X163167Y343370D01*
X163192Y343299D01*
X163218Y343217D01*
X163243Y343126D01*
X163269Y343024D01*
X163294Y342912D01*
X163320Y342785D01*
X163340Y342653D01*
X163360Y342510D01*
X163376Y342352D01*
X163381Y342189D01*
X163386Y342016D01*
Y340769D01*
X157792D01*
D02*
G37*
%LPC*%
G36*
X158795Y341945D02*
X162393D01*
Y342184D01*
X162388Y342220D01*
X162383Y342261D01*
X162378Y342311D01*
X162368Y342372D01*
X162353Y342439D01*
X162332Y342510D01*
X162307Y342581D01*
X162271Y342657D01*
X162230Y342734D01*
X162185Y342810D01*
X162129Y342881D01*
X162062Y342953D01*
X161986Y343014D01*
X161899Y343070D01*
X161894Y343075D01*
X161874Y343080D01*
X161849Y343095D01*
X161808Y343116D01*
X161757Y343136D01*
X161696Y343156D01*
X161625Y343182D01*
X161543Y343212D01*
X161452Y343238D01*
X161355Y343263D01*
X161243Y343284D01*
X161126Y343304D01*
X160999Y343324D01*
X160861Y343340D01*
X160714Y343345D01*
X160561Y343350D01*
X160485D01*
X160444Y343345D01*
X160398D01*
X160286Y343335D01*
X160220Y343324D01*
X160149Y343314D01*
X160001Y343289D01*
X159843Y343253D01*
X159675Y343207D01*
X159512Y343151D01*
X159354Y343075D01*
X159202Y342983D01*
X159136Y342932D01*
X159070Y342871D01*
X159013Y342810D01*
X158958Y342744D01*
X158912Y342673D01*
X158871Y342591D01*
X158840Y342510D01*
X158815Y342418D01*
X158800Y342322D01*
X158795Y342220D01*
Y341945D01*
D02*
G37*
%LPD*%
G36*
X171409Y332694D02*
X171404Y332821D01*
Y332882D01*
X171409Y332923D01*
X171414Y332974D01*
X171419Y333035D01*
X171424Y333106D01*
X171454Y333259D01*
X171470Y333345D01*
X171520Y333523D01*
X171551Y333615D01*
X171587Y333707D01*
X171627Y333793D01*
X171678Y333880D01*
X171683Y333885D01*
X171688Y333900D01*
X171709Y333926D01*
X171729Y333956D01*
X171755Y333992D01*
X171790Y334037D01*
X171826Y334088D01*
X171872Y334139D01*
X171918Y334195D01*
X171974Y334256D01*
X172096Y334373D01*
X172233Y334490D01*
X172391Y334592D01*
X172966Y333854D01*
X172961Y333849D01*
X172946Y333839D01*
X172920Y333819D01*
X172849Y333758D01*
X172803Y333712D01*
X172757Y333661D01*
X172712Y333605D01*
X172666Y333544D01*
X172620Y333472D01*
X172574Y333396D01*
X172503Y333223D01*
X172477Y333126D01*
X172462Y333025D01*
X172457Y332918D01*
Y332892D01*
X172462Y332862D01*
Y332821D01*
X172472Y332775D01*
X172483Y332719D01*
X172498Y332658D01*
X172518Y332597D01*
X172544Y332531D01*
X172579Y332460D01*
X172615Y332393D01*
X172666Y332327D01*
X172722Y332266D01*
X172788Y332205D01*
X172864Y332154D01*
X172951Y332108D01*
X172956D01*
X172971Y332098D01*
X173002Y332088D01*
X173043Y332073D01*
X173149Y332037D01*
X173221Y332022D01*
X173302Y332001D01*
X173394Y331981D01*
X173490Y331961D01*
X173597Y331940D01*
X173842Y331910D01*
X173979Y331900D01*
X174121Y331895D01*
X174274Y331890D01*
X174361D01*
X174422Y331895D01*
X174498D01*
X174585Y331900D01*
X174681Y331905D01*
X174783Y331915D01*
X174895Y331925D01*
X175007Y331940D01*
X175246Y331976D01*
X175476Y332027D01*
X175582Y332063D01*
X175684Y332098D01*
X175689Y332103D01*
X175705Y332108D01*
X175730Y332124D01*
X175766Y332139D01*
X175801Y332164D01*
X175847Y332195D01*
X175893Y332231D01*
X175939Y332271D01*
X175990Y332317D01*
X176035Y332373D01*
X176081Y332434D01*
X176117Y332500D01*
X176152Y332572D01*
X176178Y332653D01*
X176193Y332740D01*
X176198Y332836D01*
Y332882D01*
X176188Y332938D01*
X176178Y333004D01*
X176163Y333075D01*
X176137Y333157D01*
X176102Y333238D01*
X176051Y333320D01*
X176046Y333330D01*
X176025Y333355D01*
X175944Y333437D01*
X175883Y333488D01*
X175806Y333539D01*
X175720Y333590D01*
X175623Y333635D01*
X175618D01*
X175608Y333641D01*
X175593Y333646D01*
X175572Y333651D01*
X175547Y333661D01*
X175511Y333671D01*
X175430Y333691D01*
X175333Y333712D01*
X175221Y333732D01*
X175089Y333742D01*
X174951Y333747D01*
Y332760D01*
X174060D01*
Y334684D01*
X177079D01*
Y333798D01*
X176661D01*
Y333758D01*
X176666D01*
X176672Y333752D01*
X176702Y333737D01*
X176748Y333712D01*
X176799Y333671D01*
X176860Y333620D01*
X176921Y333554D01*
X176982Y333467D01*
X177038Y333366D01*
Y333361D01*
X177043Y333350D01*
X177048Y333335D01*
X177058Y333315D01*
X177079Y333254D01*
X177125Y333070D01*
X177145Y332958D01*
X177160Y332831D01*
X177165Y332694D01*
Y332633D01*
X177160Y332587D01*
X177155Y332531D01*
X177145Y332470D01*
X177135Y332399D01*
X177120Y332322D01*
X177104Y332236D01*
X177079Y332149D01*
X177053Y332057D01*
X177018Y331966D01*
X176977Y331874D01*
X176931Y331783D01*
X176880Y331696D01*
X176819Y331610D01*
X176814Y331605D01*
X176804Y331589D01*
X176753Y331538D01*
X176717Y331498D01*
X176626Y331406D01*
X176565Y331355D01*
X176499Y331304D01*
X176427Y331248D01*
X176346Y331192D01*
X176163Y331080D01*
X175949Y330978D01*
X175832Y330933D01*
X175822D01*
X175801Y330922D01*
X175766Y330912D01*
X175715Y330897D01*
X175654Y330882D01*
X175582Y330861D01*
X175496Y330841D01*
X175394Y330821D01*
X175287Y330800D01*
X175170Y330780D01*
X175043Y330760D01*
X174910Y330744D01*
X174763Y330729D01*
X174615Y330719D01*
X174290Y330709D01*
X174203D01*
X174142Y330714D01*
X174065D01*
X173979Y330724D01*
X173877Y330729D01*
X173770Y330739D01*
X173653Y330749D01*
X173531Y330770D01*
X173277Y330810D01*
X173017Y330872D01*
X172890Y330907D01*
X172768Y330948D01*
X172763Y330953D01*
X172737Y330958D01*
X172706Y330973D01*
X172661Y330994D01*
X172605Y331019D01*
X172472Y331085D01*
X172320Y331177D01*
X172233Y331233D01*
X172152Y331289D01*
X172065Y331355D01*
X171984Y331421D01*
X171907Y331498D01*
X171831Y331579D01*
X171760Y331666D01*
X171755Y331671D01*
X171745Y331686D01*
X171729Y331711D01*
X171704Y331752D01*
X171678Y331798D01*
X171648Y331854D01*
X171612Y331915D01*
X171582Y331986D01*
X171546Y332068D01*
X171516Y332154D01*
X171485Y332251D01*
X171459Y332353D01*
X171434Y332460D01*
X171419Y332577D01*
X171409Y332694D01*
D02*
G37*
G36*
X171485Y335453D02*
Y336867D01*
X174412Y337845D01*
X174982Y338008D01*
X171485D01*
Y339168D01*
X177079D01*
Y337819D01*
X173704Y336613D01*
X177079D01*
Y335453D01*
X171485D01*
D02*
G37*
G36*
Y340049D02*
Y341443D01*
X171490Y341499D01*
X171495Y341576D01*
X171500Y341662D01*
X171505Y341759D01*
X171520Y341861D01*
X171531Y341973D01*
X171551Y342090D01*
X171597Y342324D01*
X171627Y342446D01*
X171663Y342563D01*
X171709Y342675D01*
X171755Y342782D01*
X171760Y342787D01*
X171765Y342808D01*
X171785Y342833D01*
X171806Y342874D01*
X171836Y342920D01*
X171872Y342970D01*
X171913Y343032D01*
X171963Y343093D01*
X172019Y343159D01*
X172085Y343230D01*
X172157Y343301D01*
X172233Y343368D01*
X172320Y343434D01*
X172411Y343500D01*
X172513Y343561D01*
X172625Y343617D01*
X172630Y343622D01*
X172651Y343627D01*
X172686Y343642D01*
X172737Y343663D01*
X172798Y343683D01*
X172869Y343703D01*
X172956Y343729D01*
X173053Y343759D01*
X173165Y343785D01*
X173287Y343810D01*
X173419Y343831D01*
X173567Y343851D01*
X173719Y343871D01*
X173887Y343887D01*
X174060Y343892D01*
X174249Y343897D01*
X174346D01*
X174417Y343892D01*
X174503Y343887D01*
X174605Y343882D01*
X174717Y343877D01*
X174839Y343866D01*
X174967Y343851D01*
X175099Y343836D01*
X175374Y343790D01*
X175511Y343759D01*
X175643Y343724D01*
X175771Y343683D01*
X175893Y343637D01*
X175898Y343632D01*
X175918Y343627D01*
X175954Y343612D01*
X175995Y343586D01*
X176046Y343561D01*
X176102Y343525D01*
X176168Y343484D01*
X176234Y343439D01*
X176310Y343383D01*
X176382Y343322D01*
X176534Y343179D01*
X176605Y343098D01*
X176672Y343006D01*
X176738Y342909D01*
X176794Y342808D01*
X176799Y342803D01*
X176804Y342782D01*
X176819Y342752D01*
X176840Y342706D01*
X176860Y342650D01*
X176885Y342579D01*
X176911Y342497D01*
X176936Y342406D01*
X176962Y342304D01*
X176987Y342192D01*
X177013Y342064D01*
X177033Y341932D01*
X177053Y341790D01*
X177069Y341632D01*
X177074Y341469D01*
X177079Y341296D01*
Y340049D01*
X171485D01*
D02*
G37*
%LPC*%
G36*
X172488Y341225D02*
X176086D01*
Y341464D01*
X176081Y341499D01*
X176076Y341540D01*
X176071Y341591D01*
X176061Y341652D01*
X176046Y341718D01*
X176025Y341790D01*
X176000Y341861D01*
X175964Y341937D01*
X175923Y342014D01*
X175878Y342090D01*
X175822Y342161D01*
X175755Y342232D01*
X175679Y342294D01*
X175593Y342350D01*
X175587Y342355D01*
X175567Y342360D01*
X175542Y342375D01*
X175501Y342395D01*
X175450Y342416D01*
X175389Y342436D01*
X175318Y342461D01*
X175236Y342492D01*
X175145Y342517D01*
X175048Y342543D01*
X174936Y342563D01*
X174819Y342584D01*
X174692Y342604D01*
X174554Y342619D01*
X174407Y342624D01*
X174254Y342629D01*
X174178D01*
X174137Y342624D01*
X174091D01*
X173979Y342614D01*
X173913Y342604D01*
X173842Y342594D01*
X173694Y342568D01*
X173536Y342533D01*
X173368Y342487D01*
X173205Y342431D01*
X173047Y342355D01*
X172895Y342263D01*
X172829Y342212D01*
X172763Y342151D01*
X172706Y342090D01*
X172651Y342024D01*
X172605Y341952D01*
X172564Y341871D01*
X172533Y341790D01*
X172508Y341698D01*
X172493Y341601D01*
X172488Y341499D01*
Y341225D01*
D02*
G37*
%LPD*%
G36*
X224430Y93683D02*
X224410Y94334D01*
Y94507D01*
X224420Y94630D01*
Y94782D01*
X224440Y94955D01*
X224450Y95159D01*
X224470Y95373D01*
X224491Y95607D01*
X224532Y95851D01*
X224613Y96360D01*
X224735Y96879D01*
X224806Y97134D01*
X224888Y97378D01*
X224898Y97388D01*
X224908Y97439D01*
X224939Y97500D01*
X224979Y97592D01*
X225030Y97704D01*
X225163Y97969D01*
X225346Y98274D01*
X225458Y98447D01*
X225570Y98610D01*
X225702Y98783D01*
X225835Y98946D01*
X225987Y99099D01*
X226150Y99251D01*
X226323Y99394D01*
X226333Y99404D01*
X226364Y99424D01*
X226415Y99455D01*
X226496Y99506D01*
X226588Y99557D01*
X226700Y99618D01*
X226822Y99689D01*
X226965Y99750D01*
X227128Y99821D01*
X227301Y99883D01*
X227494Y99944D01*
X227698Y99994D01*
X227911Y100045D01*
X228146Y100076D01*
X228380Y100096D01*
X228634Y100106D01*
X228756D01*
X228838Y100096D01*
X228940Y100086D01*
X229062Y100076D01*
X229204Y100066D01*
X229510Y100005D01*
X229683Y99974D01*
X230039Y99872D01*
X230222Y99811D01*
X230405Y99740D01*
X230578Y99659D01*
X230752Y99557D01*
X230762Y99546D01*
X230792Y99536D01*
X230843Y99496D01*
X230904Y99455D01*
X230976Y99404D01*
X231067Y99333D01*
X231169Y99261D01*
X231271Y99170D01*
X231383Y99078D01*
X231505Y98966D01*
X231739Y98722D01*
X231973Y98447D01*
X232177Y98132D01*
X230701Y96981D01*
X230691Y96991D01*
X230670Y97022D01*
X230629Y97073D01*
X230507Y97215D01*
X230416Y97307D01*
X230314Y97399D01*
X230202Y97490D01*
X230080Y97582D01*
X229937Y97673D01*
X229784Y97765D01*
X229438Y97908D01*
X229245Y97958D01*
X229041Y97989D01*
X228828Y97999D01*
X228777D01*
X228716Y97989D01*
X228634D01*
X228542Y97969D01*
X228431Y97948D01*
X228308Y97918D01*
X228186Y97877D01*
X228054Y97826D01*
X227911Y97755D01*
X227779Y97684D01*
X227647Y97582D01*
X227524Y97470D01*
X227402Y97338D01*
X227301Y97185D01*
X227209Y97012D01*
Y97001D01*
X227189Y96971D01*
X227168Y96910D01*
X227138Y96829D01*
X227066Y96615D01*
X227036Y96472D01*
X226995Y96309D01*
X226954Y96126D01*
X226914Y95933D01*
X226873Y95719D01*
X226812Y95230D01*
X226792Y94955D01*
X226781Y94670D01*
X226771Y94365D01*
Y94192D01*
X226781Y94070D01*
Y93917D01*
X226792Y93744D01*
X226802Y93550D01*
X226822Y93347D01*
X226842Y93123D01*
X226873Y92899D01*
X226944Y92421D01*
X227046Y91962D01*
X227117Y91749D01*
X227189Y91545D01*
X227199Y91535D01*
X227209Y91504D01*
X227239Y91453D01*
X227270Y91382D01*
X227321Y91311D01*
X227382Y91219D01*
X227453Y91128D01*
X227535Y91036D01*
X227626Y90934D01*
X227738Y90843D01*
X227860Y90751D01*
X227993Y90680D01*
X228135Y90609D01*
X228298Y90558D01*
X228471Y90527D01*
X228665Y90517D01*
X228756D01*
X228868Y90537D01*
X229001Y90558D01*
X229143Y90588D01*
X229306Y90639D01*
X229469Y90710D01*
X229632Y90812D01*
X229652Y90822D01*
X229703Y90863D01*
X229866Y91026D01*
X229968Y91148D01*
X230069Y91301D01*
X230171Y91474D01*
X230263Y91667D01*
Y91677D01*
X230273Y91698D01*
X230283Y91728D01*
X230293Y91769D01*
X230314Y91820D01*
X230334Y91891D01*
X230375Y92054D01*
X230416Y92247D01*
X230456Y92471D01*
X230477Y92736D01*
X230487Y93011D01*
X228512D01*
Y94792D01*
X232360D01*
Y88756D01*
X230589D01*
Y89591D01*
X230507D01*
Y89580D01*
X230497Y89570D01*
X230467Y89509D01*
X230416Y89417D01*
X230334Y89316D01*
X230232Y89193D01*
X230100Y89071D01*
X229927Y88949D01*
X229723Y88837D01*
X229713D01*
X229693Y88827D01*
X229662Y88817D01*
X229622Y88797D01*
X229499Y88756D01*
X229133Y88664D01*
X228909Y88623D01*
X228655Y88593D01*
X228380Y88583D01*
X228257D01*
X228166Y88593D01*
X228054Y88603D01*
X227932Y88623D01*
X227789Y88644D01*
X227637Y88674D01*
X227464Y88705D01*
X227290Y88756D01*
X227107Y88807D01*
X226924Y88878D01*
X226741Y88959D01*
X226557Y89051D01*
X226384Y89153D01*
X226211Y89275D01*
X226201Y89285D01*
X226171Y89306D01*
X226069Y89407D01*
X225987Y89478D01*
X225804Y89662D01*
X225702Y89784D01*
X225601Y89916D01*
X225488Y90059D01*
X225377Y90222D01*
X225153Y90588D01*
X224949Y91016D01*
X224857Y91250D01*
Y91270D01*
X224837Y91311D01*
X224817Y91382D01*
X224786Y91484D01*
X224756Y91606D01*
X224715Y91749D01*
X224674Y91922D01*
X224633Y92125D01*
X224593Y92339D01*
X224552Y92573D01*
X224511Y92828D01*
X224481Y93092D01*
X224450Y93388D01*
X224430Y93683D01*
D02*
G37*
G36*
X228658Y326772D02*
Y327998D01*
X232501Y328772D01*
X228658Y329546D01*
Y330757D01*
X234252Y329347D01*
Y328176D01*
X228658Y326772D01*
D02*
G37*
G36*
Y331627D02*
Y332808D01*
X233188D01*
Y335328D01*
X234252D01*
Y331627D01*
X228658D01*
D02*
G37*
G36*
Y336168D02*
Y339802D01*
X229661D01*
Y337344D01*
X230877D01*
Y339670D01*
X231885D01*
Y337344D01*
X233259D01*
Y339914D01*
X234252D01*
Y336168D01*
X228658D01*
D02*
G37*
G36*
Y340769D02*
Y342164D01*
X228663Y342220D01*
X228668Y342296D01*
X228673Y342383D01*
X228678Y342479D01*
X228694Y342581D01*
X228704Y342693D01*
X228724Y342810D01*
X228770Y343044D01*
X228801Y343166D01*
X228836Y343284D01*
X228882Y343396D01*
X228928Y343502D01*
X228933Y343508D01*
X228938Y343528D01*
X228958Y343553D01*
X228979Y343594D01*
X229009Y343640D01*
X229045Y343691D01*
X229086Y343752D01*
X229136Y343813D01*
X229192Y343879D01*
X229259Y343950D01*
X229330Y344022D01*
X229406Y344088D01*
X229493Y344154D01*
X229584Y344220D01*
X229686Y344281D01*
X229798Y344337D01*
X229803Y344342D01*
X229824Y344347D01*
X229859Y344363D01*
X229910Y344383D01*
X229971Y344403D01*
X230043Y344424D01*
X230129Y344449D01*
X230226Y344480D01*
X230338Y344505D01*
X230460Y344531D01*
X230592Y344551D01*
X230740Y344571D01*
X230893Y344592D01*
X231061Y344607D01*
X231234Y344612D01*
X231422Y344617D01*
X231519D01*
X231590Y344612D01*
X231676Y344607D01*
X231778Y344602D01*
X231890Y344597D01*
X232012Y344587D01*
X232140Y344571D01*
X232272Y344556D01*
X232547Y344510D01*
X232684Y344480D01*
X232817Y344444D01*
X232944Y344403D01*
X233066Y344358D01*
X233071Y344353D01*
X233091Y344347D01*
X233127Y344332D01*
X233168Y344307D01*
X233219Y344281D01*
X233275Y344246D01*
X233341Y344205D01*
X233407Y344159D01*
X233483Y344103D01*
X233555Y344042D01*
X233707Y343899D01*
X233779Y343818D01*
X233845Y343726D01*
X233911Y343630D01*
X233967Y343528D01*
X233972Y343523D01*
X233977Y343502D01*
X233992Y343472D01*
X234013Y343426D01*
X234033Y343370D01*
X234059Y343299D01*
X234084Y343217D01*
X234109Y343126D01*
X234135Y343024D01*
X234160Y342912D01*
X234186Y342785D01*
X234206Y342652D01*
X234226Y342510D01*
X234242Y342352D01*
X234247Y342189D01*
X234252Y342016D01*
Y340769D01*
X228658D01*
D02*
G37*
%LPC*%
G36*
X229661Y341945D02*
X233259D01*
Y342184D01*
X233254Y342220D01*
X233249Y342261D01*
X233244Y342311D01*
X233234Y342372D01*
X233219Y342439D01*
X233198Y342510D01*
X233173Y342581D01*
X233137Y342657D01*
X233097Y342734D01*
X233051Y342810D01*
X232995Y342881D01*
X232929Y342953D01*
X232852Y343014D01*
X232766Y343070D01*
X232761Y343075D01*
X232740Y343080D01*
X232715Y343095D01*
X232674Y343116D01*
X232623Y343136D01*
X232562Y343156D01*
X232491Y343182D01*
X232409Y343212D01*
X232318Y343238D01*
X232221Y343263D01*
X232109Y343284D01*
X231992Y343304D01*
X231865Y343324D01*
X231727Y343340D01*
X231580Y343345D01*
X231427Y343350D01*
X231351D01*
X231310Y343345D01*
X231264D01*
X231152Y343335D01*
X231086Y343324D01*
X231015Y343314D01*
X230867Y343289D01*
X230709Y343253D01*
X230541Y343207D01*
X230379Y343151D01*
X230221Y343075D01*
X230068Y342983D01*
X230002Y342932D01*
X229936Y342871D01*
X229880Y342810D01*
X229824Y342744D01*
X229778Y342673D01*
X229737Y342591D01*
X229707Y342510D01*
X229681Y342418D01*
X229666Y342322D01*
X229661Y342220D01*
Y341945D01*
D02*
G37*
%LPD*%
G36*
X233897Y88756D02*
Y99944D01*
X236727D01*
X238682Y94090D01*
X239008Y92950D01*
Y99944D01*
X241329D01*
Y88756D01*
X238631D01*
X236218Y95505D01*
Y88756D01*
X233897D01*
D02*
G37*
G36*
X242275Y332694D02*
X242270Y332821D01*
Y332882D01*
X242275Y332923D01*
X242280Y332974D01*
X242285Y333035D01*
X242290Y333106D01*
X242320Y333259D01*
X242336Y333345D01*
X242387Y333523D01*
X242417Y333615D01*
X242453Y333707D01*
X242494Y333793D01*
X242545Y333880D01*
X242550Y333885D01*
X242555Y333900D01*
X242575Y333926D01*
X242595Y333956D01*
X242621Y333992D01*
X242656Y334037D01*
X242692Y334088D01*
X242738Y334139D01*
X242784Y334195D01*
X242840Y334256D01*
X242962Y334373D01*
X243099Y334490D01*
X243257Y334592D01*
X243832Y333854D01*
X243827Y333849D01*
X243812Y333839D01*
X243786Y333819D01*
X243715Y333758D01*
X243669Y333712D01*
X243623Y333661D01*
X243578Y333605D01*
X243532Y333544D01*
X243486Y333472D01*
X243440Y333396D01*
X243369Y333223D01*
X243344Y333126D01*
X243328Y333025D01*
X243323Y332918D01*
Y332892D01*
X243328Y332862D01*
Y332821D01*
X243338Y332775D01*
X243349Y332719D01*
X243364Y332658D01*
X243384Y332597D01*
X243410Y332531D01*
X243445Y332460D01*
X243481Y332393D01*
X243532Y332327D01*
X243588Y332266D01*
X243654Y332205D01*
X243730Y332154D01*
X243817Y332108D01*
X243822D01*
X243837Y332098D01*
X243868Y332088D01*
X243909Y332073D01*
X244016Y332037D01*
X244087Y332022D01*
X244168Y332001D01*
X244260Y331981D01*
X244356Y331961D01*
X244463Y331940D01*
X244708Y331910D01*
X244845Y331900D01*
X244988Y331895D01*
X245140Y331890D01*
X245227D01*
X245288Y331895D01*
X245364D01*
X245451Y331900D01*
X245548Y331905D01*
X245649Y331915D01*
X245761Y331925D01*
X245873Y331940D01*
X246113Y331976D01*
X246342Y332027D01*
X246448Y332063D01*
X246550Y332098D01*
X246555Y332103D01*
X246571Y332108D01*
X246596Y332124D01*
X246632Y332139D01*
X246667Y332164D01*
X246713Y332195D01*
X246759Y332231D01*
X246805Y332271D01*
X246856Y332317D01*
X246901Y332373D01*
X246947Y332434D01*
X246983Y332500D01*
X247019Y332572D01*
X247044Y332653D01*
X247059Y332740D01*
X247064Y332836D01*
Y332882D01*
X247054Y332938D01*
X247044Y333004D01*
X247029Y333075D01*
X247003Y333157D01*
X246968Y333238D01*
X246917Y333320D01*
X246912Y333330D01*
X246891Y333355D01*
X246810Y333437D01*
X246749Y333488D01*
X246673Y333539D01*
X246586Y333590D01*
X246489Y333635D01*
X246484D01*
X246474Y333641D01*
X246459Y333646D01*
X246438Y333651D01*
X246413Y333661D01*
X246377Y333671D01*
X246296Y333691D01*
X246199Y333712D01*
X246087Y333732D01*
X245955Y333742D01*
X245817Y333747D01*
Y332760D01*
X244927D01*
Y334684D01*
X247945D01*
Y333798D01*
X247528D01*
Y333758D01*
X247533D01*
X247538Y333752D01*
X247568Y333737D01*
X247614Y333712D01*
X247665Y333671D01*
X247726Y333620D01*
X247787Y333554D01*
X247848Y333467D01*
X247904Y333366D01*
Y333361D01*
X247909Y333350D01*
X247914Y333335D01*
X247925Y333315D01*
X247945Y333254D01*
X247991Y333070D01*
X248011Y332958D01*
X248026Y332831D01*
X248031Y332694D01*
Y332633D01*
X248026Y332587D01*
X248021Y332531D01*
X248011Y332470D01*
X248001Y332399D01*
X247986Y332322D01*
X247970Y332236D01*
X247945Y332149D01*
X247920Y332057D01*
X247884Y331966D01*
X247843Y331874D01*
X247797Y331783D01*
X247746Y331696D01*
X247685Y331610D01*
X247680Y331605D01*
X247670Y331589D01*
X247619Y331538D01*
X247584Y331498D01*
X247492Y331406D01*
X247431Y331355D01*
X247365Y331304D01*
X247293Y331248D01*
X247212Y331192D01*
X247029Y331080D01*
X246815Y330978D01*
X246698Y330933D01*
X246688D01*
X246667Y330922D01*
X246632Y330912D01*
X246581Y330897D01*
X246520Y330882D01*
X246448Y330861D01*
X246362Y330841D01*
X246260Y330821D01*
X246153Y330800D01*
X246036Y330780D01*
X245909Y330760D01*
X245777Y330744D01*
X245629Y330729D01*
X245481Y330719D01*
X245156Y330709D01*
X245069D01*
X245008Y330714D01*
X244932D01*
X244845Y330724D01*
X244743Y330729D01*
X244637Y330739D01*
X244519Y330749D01*
X244397Y330770D01*
X244143Y330810D01*
X243883Y330872D01*
X243756Y330907D01*
X243634Y330948D01*
X243629Y330953D01*
X243603Y330958D01*
X243573Y330973D01*
X243527Y330994D01*
X243471Y331019D01*
X243338Y331085D01*
X243186Y331177D01*
X243099Y331233D01*
X243018Y331289D01*
X242931Y331355D01*
X242850Y331421D01*
X242774Y331498D01*
X242697Y331579D01*
X242626Y331666D01*
X242621Y331671D01*
X242611Y331686D01*
X242595Y331711D01*
X242570Y331752D01*
X242545Y331798D01*
X242514Y331854D01*
X242478Y331915D01*
X242448Y331986D01*
X242412Y332068D01*
X242382Y332154D01*
X242351Y332251D01*
X242326Y332353D01*
X242300Y332460D01*
X242285Y332577D01*
X242275Y332694D01*
D02*
G37*
G36*
X242351Y335453D02*
Y336867D01*
X245278Y337845D01*
X245848Y338008D01*
X242351D01*
Y339168D01*
X247945D01*
Y337819D01*
X244570Y336613D01*
X247945D01*
Y335453D01*
X242351D01*
D02*
G37*
G36*
Y340049D02*
Y341443D01*
X242356Y341499D01*
X242361Y341576D01*
X242366Y341662D01*
X242371Y341759D01*
X242387Y341861D01*
X242397Y341973D01*
X242417Y342090D01*
X242463Y342324D01*
X242494Y342446D01*
X242529Y342563D01*
X242575Y342675D01*
X242621Y342782D01*
X242626Y342787D01*
X242631Y342808D01*
X242651Y342833D01*
X242672Y342874D01*
X242702Y342920D01*
X242738Y342970D01*
X242779Y343032D01*
X242829Y343093D01*
X242885Y343159D01*
X242952Y343230D01*
X243023Y343301D01*
X243099Y343368D01*
X243186Y343434D01*
X243277Y343500D01*
X243379Y343561D01*
X243491Y343617D01*
X243496Y343622D01*
X243517Y343627D01*
X243552Y343642D01*
X243603Y343663D01*
X243664Y343683D01*
X243736Y343703D01*
X243822Y343729D01*
X243919Y343759D01*
X244031Y343785D01*
X244153Y343810D01*
X244285Y343831D01*
X244433Y343851D01*
X244586Y343871D01*
X244754Y343887D01*
X244927Y343892D01*
X245115Y343897D01*
X245212D01*
X245283Y343892D01*
X245369Y343887D01*
X245471Y343882D01*
X245583Y343877D01*
X245705Y343866D01*
X245833Y343851D01*
X245965Y343836D01*
X246240Y343790D01*
X246377Y343759D01*
X246510Y343724D01*
X246637Y343683D01*
X246759Y343637D01*
X246764Y343632D01*
X246784Y343627D01*
X246820Y343612D01*
X246861Y343586D01*
X246912Y343561D01*
X246968Y343525D01*
X247034Y343484D01*
X247100Y343439D01*
X247176Y343383D01*
X247248Y343322D01*
X247400Y343179D01*
X247472Y343098D01*
X247538Y343006D01*
X247604Y342909D01*
X247660Y342808D01*
X247665Y342803D01*
X247670Y342782D01*
X247685Y342752D01*
X247706Y342706D01*
X247726Y342650D01*
X247751Y342579D01*
X247777Y342497D01*
X247802Y342406D01*
X247828Y342304D01*
X247853Y342192D01*
X247879Y342064D01*
X247899Y341932D01*
X247920Y341790D01*
X247935Y341632D01*
X247940Y341469D01*
X247945Y341296D01*
Y340049D01*
X242351D01*
D02*
G37*
%LPC*%
G36*
X243354Y341225D02*
X246952D01*
Y341464D01*
X246947Y341499D01*
X246942Y341540D01*
X246937Y341591D01*
X246927Y341652D01*
X246912Y341718D01*
X246891Y341790D01*
X246866Y341861D01*
X246830Y341937D01*
X246790Y342014D01*
X246744Y342090D01*
X246688Y342161D01*
X246622Y342232D01*
X246545Y342294D01*
X246459Y342350D01*
X246454Y342355D01*
X246433Y342360D01*
X246408Y342375D01*
X246367Y342395D01*
X246316Y342416D01*
X246255Y342436D01*
X246184Y342461D01*
X246102Y342492D01*
X246011Y342517D01*
X245914Y342543D01*
X245802Y342563D01*
X245685Y342584D01*
X245558Y342604D01*
X245420Y342619D01*
X245273Y342624D01*
X245120Y342629D01*
X245044D01*
X245003Y342624D01*
X244957D01*
X244845Y342614D01*
X244779Y342604D01*
X244708Y342594D01*
X244560Y342568D01*
X244402Y342533D01*
X244234Y342487D01*
X244072Y342431D01*
X243914Y342355D01*
X243761Y342263D01*
X243695Y342212D01*
X243629Y342151D01*
X243573Y342090D01*
X243517Y342024D01*
X243471Y341952D01*
X243430Y341871D01*
X243400Y341790D01*
X243374Y341698D01*
X243359Y341601D01*
X243354Y341499D01*
Y341225D01*
D02*
G37*
%LPD*%
G36*
X243090Y88756D02*
Y99944D01*
X245879D01*
X245991Y99933D01*
X246144Y99923D01*
X246317Y99913D01*
X246510Y99903D01*
X246714Y99872D01*
X246938Y99852D01*
X247172Y99811D01*
X247640Y99720D01*
X247884Y99659D01*
X248119Y99587D01*
X248343Y99496D01*
X248556Y99404D01*
X248567Y99394D01*
X248607Y99384D01*
X248658Y99343D01*
X248740Y99302D01*
X248831Y99241D01*
X248933Y99170D01*
X249055Y99088D01*
X249177Y98987D01*
X249310Y98875D01*
X249452Y98742D01*
X249595Y98600D01*
X249727Y98447D01*
X249859Y98274D01*
X249992Y98091D01*
X250114Y97887D01*
X250226Y97663D01*
X250236Y97653D01*
X250246Y97612D01*
X250277Y97541D01*
X250318Y97439D01*
X250358Y97317D01*
X250399Y97175D01*
X250450Y97001D01*
X250511Y96808D01*
X250562Y96584D01*
X250613Y96340D01*
X250654Y96075D01*
X250694Y95780D01*
X250735Y95474D01*
X250765Y95139D01*
X250776Y94792D01*
X250786Y94416D01*
Y94222D01*
X250776Y94080D01*
X250765Y93907D01*
X250755Y93703D01*
X250745Y93479D01*
X250725Y93235D01*
X250694Y92980D01*
X250664Y92716D01*
X250572Y92166D01*
X250511Y91891D01*
X250440Y91627D01*
X250358Y91372D01*
X250267Y91128D01*
X250256Y91118D01*
X250246Y91077D01*
X250216Y91005D01*
X250165Y90924D01*
X250114Y90822D01*
X250043Y90710D01*
X249961Y90578D01*
X249870Y90446D01*
X249758Y90293D01*
X249636Y90150D01*
X249351Y89845D01*
X249188Y89702D01*
X249004Y89570D01*
X248811Y89438D01*
X248607Y89326D01*
X248597Y89316D01*
X248556Y89306D01*
X248495Y89275D01*
X248404Y89234D01*
X248292Y89193D01*
X248149Y89143D01*
X247986Y89092D01*
X247803Y89041D01*
X247600Y88990D01*
X247375Y88939D01*
X247121Y88888D01*
X246856Y88847D01*
X246571Y88807D01*
X246256Y88776D01*
X245930Y88766D01*
X245584Y88756D01*
X243090D01*
D02*
G37*
%LPC*%
G36*
X245441Y90741D02*
X245920D01*
X245991Y90751D01*
X246073Y90761D01*
X246174Y90771D01*
X246297Y90792D01*
X246429Y90822D01*
X246571Y90863D01*
X246714Y90914D01*
X246866Y90985D01*
X247019Y91067D01*
X247172Y91158D01*
X247314Y91270D01*
X247457Y91403D01*
X247579Y91555D01*
X247691Y91728D01*
X247701Y91738D01*
X247711Y91779D01*
X247742Y91830D01*
X247783Y91912D01*
X247824Y92013D01*
X247864Y92136D01*
X247915Y92278D01*
X247976Y92441D01*
X248027Y92624D01*
X248078Y92818D01*
X248119Y93041D01*
X248159Y93276D01*
X248200Y93530D01*
X248231Y93805D01*
X248241Y94100D01*
X248251Y94406D01*
Y94558D01*
X248241Y94640D01*
Y94731D01*
X248220Y94955D01*
X248200Y95088D01*
X248180Y95230D01*
X248129Y95525D01*
X248058Y95841D01*
X247966Y96177D01*
X247854Y96503D01*
X247701Y96818D01*
X247518Y97124D01*
X247416Y97256D01*
X247294Y97388D01*
X247172Y97500D01*
X247040Y97612D01*
X246897Y97704D01*
X246734Y97785D01*
X246571Y97847D01*
X246388Y97897D01*
X246195Y97928D01*
X245991Y97938D01*
X245441D01*
Y90741D01*
D02*
G37*
%LPD*%
G36*
X299524Y326772D02*
Y327998D01*
X303367Y328772D01*
X299524Y329546D01*
Y330757D01*
X305118Y329347D01*
Y328176D01*
X299524Y326772D01*
D02*
G37*
G36*
Y331627D02*
Y332808D01*
X304054D01*
Y335328D01*
X305118D01*
Y331627D01*
X299524D01*
D02*
G37*
G36*
Y336168D02*
Y339802D01*
X300527D01*
Y337344D01*
X301743D01*
Y339670D01*
X302751D01*
Y337344D01*
X304126D01*
Y339914D01*
X305118D01*
Y336168D01*
X299524D01*
D02*
G37*
G36*
Y340769D02*
Y342164D01*
X299529Y342220D01*
X299534Y342296D01*
X299539Y342383D01*
X299545Y342479D01*
X299560Y342581D01*
X299570Y342693D01*
X299590Y342810D01*
X299636Y343044D01*
X299667Y343166D01*
X299702Y343284D01*
X299748Y343396D01*
X299794Y343502D01*
X299799Y343508D01*
X299804Y343528D01*
X299825Y343553D01*
X299845Y343594D01*
X299875Y343640D01*
X299911Y343691D01*
X299952Y343752D01*
X300003Y343813D01*
X300059Y343879D01*
X300125Y343950D01*
X300196Y344022D01*
X300272Y344088D01*
X300359Y344154D01*
X300451Y344220D01*
X300552Y344281D01*
X300664Y344337D01*
X300670Y344342D01*
X300690Y344347D01*
X300725Y344363D01*
X300776Y344383D01*
X300837Y344403D01*
X300909Y344424D01*
X300995Y344449D01*
X301092Y344480D01*
X301204Y344505D01*
X301326Y344531D01*
X301458Y344551D01*
X301606Y344571D01*
X301759Y344592D01*
X301927Y344607D01*
X302100Y344612D01*
X302288Y344617D01*
X302385D01*
X302456Y344612D01*
X302543Y344607D01*
X302644Y344602D01*
X302756Y344597D01*
X302878Y344587D01*
X303006Y344571D01*
X303138Y344556D01*
X303413Y344510D01*
X303550Y344480D01*
X303683Y344444D01*
X303810Y344403D01*
X303932Y344358D01*
X303937Y344353D01*
X303958Y344347D01*
X303993Y344332D01*
X304034Y344307D01*
X304085Y344281D01*
X304141Y344246D01*
X304207Y344205D01*
X304273Y344159D01*
X304349Y344103D01*
X304421Y344042D01*
X304573Y343899D01*
X304645Y343818D01*
X304711Y343726D01*
X304777Y343630D01*
X304833Y343528D01*
X304838Y343523D01*
X304843Y343502D01*
X304858Y343472D01*
X304879Y343426D01*
X304899Y343370D01*
X304925Y343299D01*
X304950Y343217D01*
X304976Y343126D01*
X305001Y343024D01*
X305027Y342912D01*
X305052Y342785D01*
X305072Y342652D01*
X305093Y342510D01*
X305108Y342352D01*
X305113Y342189D01*
X305118Y342016D01*
Y340769D01*
X299524D01*
D02*
G37*
%LPC*%
G36*
X300527Y341945D02*
X304126D01*
Y342184D01*
X304120Y342220D01*
X304115Y342261D01*
X304110Y342311D01*
X304100Y342372D01*
X304085Y342439D01*
X304064Y342510D01*
X304039Y342581D01*
X304003Y342657D01*
X303963Y342734D01*
X303917Y342810D01*
X303861Y342881D01*
X303795Y342953D01*
X303718Y343014D01*
X303632Y343070D01*
X303627Y343075D01*
X303606Y343080D01*
X303581Y343095D01*
X303540Y343116D01*
X303489Y343136D01*
X303428Y343156D01*
X303357Y343182D01*
X303275Y343212D01*
X303184Y343238D01*
X303087Y343263D01*
X302975Y343284D01*
X302858Y343304D01*
X302731Y343324D01*
X302593Y343340D01*
X302446Y343345D01*
X302293Y343350D01*
X302217D01*
X302176Y343345D01*
X302130D01*
X302018Y343335D01*
X301952Y343324D01*
X301881Y343314D01*
X301733Y343289D01*
X301575Y343253D01*
X301408Y343207D01*
X301245Y343151D01*
X301087Y343075D01*
X300934Y342983D01*
X300868Y342932D01*
X300802Y342871D01*
X300746Y342810D01*
X300690Y342744D01*
X300644Y342673D01*
X300603Y342591D01*
X300573Y342510D01*
X300547Y342418D01*
X300532Y342322D01*
X300527Y342220D01*
Y341945D01*
D02*
G37*
%LPD*%
G36*
X312508Y146059D02*
X312501Y146226D01*
Y146670D01*
X312508Y146781D01*
Y147003D01*
X312515Y147225D01*
X312522Y147329D01*
X312529Y147426D01*
X312536Y147510D01*
X312543Y147579D01*
X313757D01*
X313750Y147357D01*
Y147315D01*
X313743Y147280D01*
Y147204D01*
X313736Y147100D01*
Y146989D01*
X313729Y146871D01*
Y146566D01*
X313736Y146524D01*
Y146475D01*
X313750Y146371D01*
X313771Y146253D01*
X313806Y146128D01*
X313847Y146010D01*
X313910Y145906D01*
X313917Y145893D01*
X313945Y145865D01*
X313986Y145830D01*
X314049Y145781D01*
X314132Y145733D01*
X314236Y145698D01*
X314361Y145670D01*
X314514Y145657D01*
X315131D01*
Y147204D01*
X316304D01*
Y145698D01*
X320843D01*
Y144144D01*
X316304D01*
Y142714D01*
X315131D01*
Y144157D01*
X314097D01*
X314055Y144164D01*
X313993D01*
X313924Y144178D01*
X313847Y144185D01*
X313667Y144227D01*
X313570Y144262D01*
X313466Y144296D01*
X313362Y144345D01*
X313264Y144400D01*
X313160Y144463D01*
X313070Y144539D01*
X312980Y144629D01*
X312903Y144727D01*
X312897Y144734D01*
X312883Y144754D01*
X312869Y144789D01*
X312841Y144831D01*
X312737Y145039D01*
X312702Y145129D01*
X312667Y145233D01*
X312626Y145344D01*
X312591Y145469D01*
X312563Y145601D01*
X312536Y145747D01*
X312515Y145899D01*
X312508Y146059D01*
D02*
G37*
G36*
X313119Y75472D02*
X313112Y75681D01*
Y75792D01*
X313119Y75868D01*
X313126Y75965D01*
X313133Y76076D01*
X313146Y76194D01*
X313167Y76326D01*
X313216Y76604D01*
X313250Y76749D01*
X313292Y76888D01*
X313341Y77027D01*
X313396Y77166D01*
X313459Y77290D01*
X313535Y77402D01*
X313542Y77408D01*
X313556Y77429D01*
X313577Y77457D01*
X313611Y77499D01*
X313660Y77540D01*
X313709Y77596D01*
X313778Y77651D01*
X313847Y77714D01*
X313931Y77783D01*
X314021Y77846D01*
X314125Y77908D01*
X314236Y77971D01*
X314354Y78033D01*
X314486Y78089D01*
X314625Y78130D01*
X314770Y78172D01*
X314777D01*
X314805Y78179D01*
X314854Y78193D01*
X314916Y78200D01*
X314999Y78214D01*
X315104Y78234D01*
X315222Y78248D01*
X315353Y78269D01*
X315506Y78283D01*
X315673Y78297D01*
X315860Y78318D01*
X316061Y78332D01*
X316276Y78345D01*
X316505Y78352D01*
X316748Y78359D01*
X317234D01*
X317352Y78352D01*
X317484D01*
X317630Y78345D01*
X317789Y78338D01*
X317963Y78325D01*
X318143Y78311D01*
X318504Y78276D01*
X318865Y78227D01*
X319039Y78200D01*
X319198Y78165D01*
X319205D01*
X319233Y78158D01*
X319274Y78144D01*
X319337Y78130D01*
X319406Y78102D01*
X319483Y78075D01*
X319573Y78040D01*
X319670Y77998D01*
X319878Y77894D01*
X319982Y77832D01*
X320093Y77763D01*
X320302Y77596D01*
X320399Y77499D01*
X320489Y77395D01*
X320496Y77388D01*
X320510Y77367D01*
X320531Y77332D01*
X320558Y77284D01*
X320600Y77228D01*
X320635Y77152D01*
X320676Y77061D01*
X320718Y76964D01*
X320766Y76846D01*
X320808Y76722D01*
X320843Y76583D01*
X320878Y76423D01*
X320912Y76257D01*
X320933Y76076D01*
X320947Y75889D01*
X320954Y75681D01*
Y75569D01*
X320947Y75493D01*
X320940Y75403D01*
X320926Y75292D01*
X320912Y75174D01*
X320898Y75042D01*
X320843Y74764D01*
X320801Y74626D01*
X320760Y74480D01*
X320704Y74341D01*
X320642Y74209D01*
X320572Y74084D01*
X320489Y73966D01*
X320482Y73959D01*
X320468Y73939D01*
X320440Y73911D01*
X320406Y73869D01*
X320357Y73827D01*
X320232Y73716D01*
X320156Y73654D01*
X320066Y73585D01*
X319968Y73522D01*
X319864Y73453D01*
X319746Y73390D01*
X319621Y73335D01*
X319490Y73279D01*
X319351Y73231D01*
X319198Y73189D01*
X319191D01*
X319156Y73182D01*
X319115Y73168D01*
X319045Y73161D01*
X318962Y73147D01*
X318865Y73127D01*
X318747Y73113D01*
X318615Y73092D01*
X318462Y73071D01*
X318296Y73057D01*
X318115Y73043D01*
X317921Y73023D01*
X317713Y73015D01*
X317491Y73002D01*
X317262Y72995D01*
X316776D01*
X316658Y73002D01*
X316519D01*
X316360Y73009D01*
X316193Y73015D01*
X316020Y73029D01*
X315839Y73043D01*
X315464Y73071D01*
X315277Y73099D01*
X315096Y73120D01*
X314930Y73147D01*
X314770Y73182D01*
X314763D01*
X314736Y73189D01*
X314694Y73203D01*
X314638Y73224D01*
X314569Y73245D01*
X314493Y73272D01*
X314403Y73307D01*
X314312Y73349D01*
X314215Y73397D01*
X314111Y73453D01*
X314007Y73515D01*
X313910Y73585D01*
X313806Y73661D01*
X313709Y73744D01*
X313618Y73841D01*
X313535Y73945D01*
X313528Y73952D01*
X313514Y73973D01*
X313493Y74008D01*
X313466Y74057D01*
X313438Y74119D01*
X313403Y74188D01*
X313362Y74279D01*
X313320Y74383D01*
X313285Y74494D01*
X313244Y74626D01*
X313209Y74764D01*
X313174Y74924D01*
X313153Y75091D01*
X313133Y75278D01*
X313119Y75472D01*
D02*
G37*
%LPC*%
G36*
X314326Y75625D02*
X314333Y75590D01*
Y75542D01*
X314340Y75486D01*
X314361Y75361D01*
X314396Y75222D01*
X314451Y75084D01*
X314528Y74952D01*
X314569Y74889D01*
X314638Y74820D01*
X314680Y74792D01*
X314750Y74744D01*
X314840Y74688D01*
X314965Y74626D01*
X315110Y74570D01*
X315284Y74515D01*
X315478Y74473D01*
X315506D01*
X315534Y74466D01*
X315582Y74459D01*
X315638Y74452D01*
X315707Y74445D01*
X315784Y74438D01*
X315881Y74431D01*
X315985Y74424D01*
X316096Y74417D01*
X316221Y74410D01*
X316360Y74404D01*
X316505Y74397D01*
X316665D01*
X316832Y74390D01*
X317290D01*
X317401Y74397D01*
X317519D01*
X317651Y74404D01*
X317921Y74410D01*
X318206Y74424D01*
X318337Y74431D01*
X318469Y74445D01*
X318594Y74459D01*
X318705Y74473D01*
X318712D01*
X318733Y74480D01*
X318761D01*
X318796Y74494D01*
X318844Y74501D01*
X318893Y74515D01*
X319018Y74549D01*
X319149Y74598D01*
X319281Y74660D01*
X319413Y74744D01*
X319469Y74785D01*
X319517Y74834D01*
X319524Y74848D01*
X319552Y74882D01*
X319594Y74952D01*
X319635Y75042D01*
X319684Y75160D01*
X319705Y75229D01*
X319719Y75306D01*
X319739Y75389D01*
X319746Y75479D01*
X319760Y75576D01*
Y75736D01*
X319753Y75778D01*
Y75826D01*
X319746Y75882D01*
X319732Y76014D01*
X319698Y76152D01*
X319656Y76298D01*
X319601Y76430D01*
X319559Y76492D01*
X319517Y76548D01*
X319503Y76562D01*
X319469Y76590D01*
X319406Y76638D01*
X319323Y76694D01*
X319212Y76749D01*
X319073Y76812D01*
X318914Y76860D01*
X318816Y76881D01*
X318719Y76895D01*
X318712D01*
X318691Y76902D01*
X318664D01*
X318615Y76909D01*
X318560Y76916D01*
X318483Y76923D01*
X318400Y76930D01*
X318303Y76937D01*
X318185Y76944D01*
X318060Y76951D01*
X317921Y76957D01*
X317768Y76964D01*
X317602Y76971D01*
X317414Y76978D01*
X316769D01*
X316672Y76971D01*
X316568D01*
X316457Y76964D01*
X316214Y76957D01*
X315957Y76944D01*
X315707Y76916D01*
X315485Y76888D01*
X315478D01*
X315457Y76881D01*
X315430D01*
X315395Y76874D01*
X315346Y76860D01*
X315291Y76846D01*
X315166Y76812D01*
X315027Y76763D01*
X314881Y76701D01*
X314750Y76617D01*
X314625Y76520D01*
X314618D01*
X314611Y76506D01*
X314576Y76472D01*
X314528Y76402D01*
X314472Y76312D01*
X314423Y76194D01*
X314375Y76048D01*
X314340Y75875D01*
X314326Y75785D01*
Y75625D01*
D02*
G37*
%LPD*%
G36*
X313431Y68810D02*
X313216Y68976D01*
Y70177D01*
X319642D01*
Y71794D01*
X320843D01*
Y67068D01*
X319642D01*
Y68831D01*
X315083D01*
X315131Y68782D01*
X315159Y68740D01*
X315201Y68699D01*
X315249Y68643D01*
X315353Y68518D01*
X315478Y68373D01*
X315728Y68053D01*
X315839Y67894D01*
Y67887D01*
X315853Y67873D01*
X315867Y67852D01*
X315881Y67824D01*
X315909Y67783D01*
X315936Y67734D01*
X315964Y67679D01*
X315999Y67623D01*
X316068Y67477D01*
X316138Y67318D01*
X316214Y67130D01*
X316283Y66929D01*
X314965D01*
Y66936D01*
X314951Y66957D01*
X314937Y66992D01*
X314916Y67033D01*
X314895Y67082D01*
X314861Y67144D01*
X314826Y67221D01*
X314784Y67297D01*
X314687Y67463D01*
X314569Y67651D01*
X314423Y67845D01*
X314264Y68040D01*
X314180Y68123D01*
X314139Y68171D01*
X314028Y68282D01*
X313958Y68345D01*
X313806Y68491D01*
X313625Y68650D01*
X313431Y68810D01*
D02*
G37*
G36*
X320843Y79241D02*
X313216Y80858D01*
Y83155D01*
X320843Y84744D01*
Y83259D01*
X319226Y82898D01*
Y80997D01*
X320843Y80663D01*
Y79241D01*
D02*
G37*
%LPC*%
G36*
X314708Y81857D02*
X317942Y81267D01*
Y82683D01*
X314708Y82072D01*
Y81857D01*
D02*
G37*
%LPD*%
G36*
X314958Y133636D02*
X314951Y133824D01*
Y133893D01*
X314958Y133928D01*
Y133969D01*
X314979Y134074D01*
X314999Y134199D01*
X315034Y134337D01*
X315083Y134483D01*
X315152Y134636D01*
Y134643D01*
X315159Y134657D01*
X315173Y134677D01*
X315187Y134705D01*
X315228Y134782D01*
X315284Y134879D01*
X315353Y134997D01*
X315437Y135115D01*
X315527Y135233D01*
X315631Y135351D01*
X316637Y134483D01*
X316623Y134469D01*
X316610Y134441D01*
X316582Y134414D01*
X316561Y134379D01*
X316533Y134330D01*
X316498Y134282D01*
X316471Y134219D01*
X316436Y134157D01*
X316408Y134081D01*
X316353Y133914D01*
X316318Y133720D01*
X316311Y133616D01*
X316304Y133504D01*
Y133449D01*
X316311Y133387D01*
X316325Y133310D01*
X316353Y133220D01*
X316387Y133116D01*
X316436Y133012D01*
X316498Y132908D01*
X316505Y132894D01*
X316533Y132866D01*
X316575Y132810D01*
X316637Y132748D01*
X316721Y132679D01*
X316818Y132609D01*
X316936Y132533D01*
X317068Y132464D01*
X317074D01*
X317081Y132457D01*
X317109Y132450D01*
X317137Y132436D01*
X317172Y132422D01*
X317213Y132408D01*
X317324Y132380D01*
X317456Y132352D01*
X317616Y132325D01*
X317789Y132304D01*
X317984Y132297D01*
X320843D01*
Y130756D01*
X317352Y130770D01*
X317220D01*
X317137Y130763D01*
X317047D01*
X316943Y130756D01*
X316845Y130749D01*
X316755Y130736D01*
X316741D01*
X316714Y130728D01*
X316665Y130722D01*
X316589Y130715D01*
X316498Y130701D01*
X316394Y130680D01*
X316269Y130666D01*
X316131Y130638D01*
Y129736D01*
X315062D01*
Y131922D01*
X316033Y132123D01*
X316026D01*
X316006Y132137D01*
X315971Y132151D01*
X315929Y132172D01*
X315874Y132193D01*
X315811Y132228D01*
X315680Y132304D01*
X315534Y132408D01*
X315388Y132533D01*
X315263Y132672D01*
X315208Y132755D01*
X315166Y132838D01*
Y132845D01*
X315145Y132887D01*
X315131Y132922D01*
X315117Y132963D01*
X315096Y133012D01*
X315055Y133137D01*
X315020Y133289D01*
X314985Y133456D01*
X314958Y133636D01*
D02*
G37*
G36*
X314965Y94064D02*
X314958Y94182D01*
Y94238D01*
X314965Y94301D01*
X314979Y94377D01*
X314999Y94467D01*
X315034Y94557D01*
X315076Y94654D01*
X315138Y94752D01*
X315145Y94766D01*
X315173Y94793D01*
X315208Y94835D01*
X315270Y94884D01*
X315339Y94946D01*
X315430Y95001D01*
X315534Y95057D01*
X315652Y95099D01*
X315645D01*
X315638Y95105D01*
X315596Y95133D01*
X315534Y95168D01*
X315457Y95223D01*
X315374Y95293D01*
X315284Y95376D01*
X315201Y95466D01*
X315131Y95577D01*
Y95584D01*
X315124Y95591D01*
X315104Y95633D01*
X315076Y95695D01*
X315041Y95779D01*
X315013Y95883D01*
X314985Y96008D01*
X314965Y96140D01*
X314958Y96285D01*
Y96341D01*
X314965Y96382D01*
X314979Y96494D01*
X315006Y96625D01*
X315062Y96771D01*
X315090Y96847D01*
X315131Y96924D01*
X315180Y97000D01*
X315235Y97070D01*
X315298Y97139D01*
X315374Y97201D01*
X315381Y97208D01*
X315395Y97215D01*
X315416Y97229D01*
X315451Y97250D01*
X315499Y97271D01*
X315548Y97299D01*
X315617Y97326D01*
X315693Y97361D01*
X315777Y97389D01*
X315874Y97417D01*
X315978Y97444D01*
X316096Y97465D01*
X316228Y97486D01*
X316367Y97500D01*
X316519Y97514D01*
X320843D01*
Y96098D01*
X316693D01*
X316644Y96091D01*
X316575Y96084D01*
X316505Y96070D01*
X316429Y96049D01*
X316360Y96022D01*
X316297Y95980D01*
X316290Y95973D01*
X316269Y95959D01*
X316249Y95931D01*
X316214Y95897D01*
X316186Y95855D01*
X316165Y95799D01*
X316144Y95737D01*
X316138Y95661D01*
Y95633D01*
X316144Y95598D01*
X316172Y95501D01*
X316200Y95452D01*
X316242Y95397D01*
X316297Y95341D01*
X316318Y95328D01*
X316353Y95307D01*
X316394Y95286D01*
X316457Y95265D01*
X316526Y95244D01*
X316610Y95230D01*
X316707Y95223D01*
X320843D01*
Y94106D01*
X316686D01*
X316637Y94099D01*
X316575Y94092D01*
X316505Y94078D01*
X316436Y94058D01*
X316360Y94030D01*
X316297Y93988D01*
X316290Y93981D01*
X316269Y93967D01*
X316249Y93940D01*
X316214Y93912D01*
X316186Y93863D01*
X316165Y93815D01*
X316144Y93752D01*
X316138Y93683D01*
Y93648D01*
X316144Y93613D01*
X316172Y93516D01*
X316200Y93461D01*
X316242Y93405D01*
X316290Y93350D01*
X316297Y93343D01*
X316318Y93329D01*
X316353Y93308D01*
X316401Y93287D01*
X316457Y93266D01*
X316533Y93246D01*
X316623Y93232D01*
X316721Y93225D01*
X320843D01*
Y91816D01*
X316013D01*
X315943Y91809D01*
X315867D01*
X315784Y91802D01*
X315610Y91795D01*
X315423Y91781D01*
X315235Y91754D01*
X315062Y91726D01*
Y93135D01*
X315631Y93197D01*
X315624D01*
X315617Y93204D01*
X315582Y93225D01*
X315527Y93260D01*
X315457Y93301D01*
X315381Y93357D01*
X315298Y93426D01*
X315214Y93502D01*
X315145Y93593D01*
X315138Y93607D01*
X315117Y93641D01*
X315083Y93690D01*
X315048Y93766D01*
X314985Y93954D01*
X314965Y94064D01*
D02*
G37*
G36*
Y120048D02*
X314958Y120221D01*
Y120298D01*
X314965Y120353D01*
X314972Y120423D01*
X314979Y120499D01*
X314992Y120589D01*
X315013Y120679D01*
X315069Y120888D01*
X315104Y120999D01*
X315145Y121103D01*
X315201Y121214D01*
X315263Y121325D01*
X315333Y121429D01*
X315409Y121526D01*
X315589Y121706D01*
X315652Y121755D01*
X315721Y121818D01*
X315797Y121880D01*
X315978Y122005D01*
X316082Y122067D01*
X316304Y122185D01*
X316554Y122283D01*
X316561D01*
X316582Y122297D01*
X316623Y122303D01*
X316672Y122324D01*
X316734Y122338D01*
X316811Y122359D01*
X316894Y122380D01*
X316991Y122407D01*
X317095Y122428D01*
X317206Y122449D01*
X317442Y122491D01*
X317706Y122519D01*
X317977Y122526D01*
X318046D01*
X318095Y122519D01*
X318157D01*
X318233Y122512D01*
X318317Y122505D01*
X318407Y122498D01*
X318511Y122484D01*
X318615Y122463D01*
X318844Y122421D01*
X319094Y122366D01*
X319344Y122283D01*
X319351D01*
X319372Y122269D01*
X319406Y122255D01*
X319455Y122234D01*
X319510Y122213D01*
X319580Y122178D01*
X319732Y122095D01*
X319913Y121984D01*
X320100Y121852D01*
X320288Y121693D01*
X320461Y121505D01*
X320482Y121484D01*
X320503Y121450D01*
X320531Y121408D01*
X320565Y121360D01*
X320600Y121297D01*
X320642Y121221D01*
X320683Y121137D01*
X320725Y121047D01*
X320766Y120943D01*
X320801Y120832D01*
X320836Y120714D01*
X320864Y120589D01*
X320884Y120450D01*
X320898Y120312D01*
X320905Y120159D01*
Y120083D01*
X320898Y120048D01*
Y120006D01*
X320884Y119902D01*
X320864Y119784D01*
X320836Y119652D01*
X320794Y119527D01*
X320739Y119403D01*
X320732Y119389D01*
X320704Y119347D01*
X320662Y119291D01*
X320607Y119215D01*
X320531Y119132D01*
X320440Y119035D01*
X320329Y118944D01*
X320197Y118854D01*
X322835D01*
Y117314D01*
X316075D01*
X316013Y117307D01*
X315867D01*
X315693Y117300D01*
X315506Y117286D01*
X315298Y117272D01*
X315062Y117258D01*
Y118709D01*
X315825Y118771D01*
X315818D01*
X315804Y118785D01*
X315784Y118799D01*
X315749Y118819D01*
X315562Y118944D01*
X315457Y119035D01*
X315346Y119146D01*
X315242Y119264D01*
X315159Y119389D01*
Y119395D01*
X315152Y119403D01*
X315138Y119423D01*
X315124Y119451D01*
X315110Y119486D01*
X315096Y119527D01*
X315055Y119624D01*
X315020Y119749D01*
X314985Y119888D01*
X314965Y120048D01*
D02*
G37*
%LPC*%
G36*
X316026Y119888D02*
X316033Y119847D01*
X316040Y119777D01*
X316061Y119694D01*
X316096Y119604D01*
X316151Y119500D01*
X316228Y119395D01*
X316269Y119340D01*
X316325Y119291D01*
X316339Y119278D01*
X316381Y119250D01*
X316443Y119201D01*
X316533Y119146D01*
X316637Y119076D01*
X316769Y119014D01*
X316915Y118944D01*
X317081Y118889D01*
X317088D01*
X317102Y118882D01*
X317123Y118875D01*
X317158Y118868D01*
X317199Y118854D01*
X317248Y118847D01*
X317359Y118819D01*
X317498Y118792D01*
X317651Y118771D01*
X317810Y118757D01*
X317977Y118750D01*
X318053D01*
X318088Y118757D01*
X318136D01*
X318247Y118764D01*
X318372Y118778D01*
X318664Y118833D01*
X318816Y118875D01*
X318823D01*
X318837Y118882D01*
X318858Y118889D01*
X318886Y118903D01*
X318955Y118930D01*
X319052Y118972D01*
X319156Y119028D01*
X319268Y119097D01*
X319372Y119174D01*
X319476Y119264D01*
X319490Y119278D01*
X319517Y119312D01*
X319552Y119368D01*
X319601Y119437D01*
X319649Y119527D01*
X319684Y119638D01*
X319712Y119756D01*
X319725Y119881D01*
Y119916D01*
X319719Y119944D01*
X319712Y120006D01*
X319691Y120089D01*
X319663Y120187D01*
X319615Y120284D01*
X319552Y120388D01*
X319469Y120485D01*
X319455Y120499D01*
X319420Y120527D01*
X319365Y120575D01*
X319288Y120631D01*
X319198Y120693D01*
X319080Y120756D01*
X318955Y120818D01*
X318810Y120867D01*
X318802D01*
X318789Y120874D01*
X318768Y120881D01*
X318740Y120888D01*
X318698Y120895D01*
X318657Y120908D01*
X318546Y120929D01*
X318421Y120950D01*
X318275Y120971D01*
X318122Y120985D01*
X317956Y120992D01*
X317880D01*
X317838Y120985D01*
X317796D01*
X317678Y120978D01*
X317546Y120964D01*
X317401Y120936D01*
X317241Y120908D01*
X317074Y120867D01*
X317068D01*
X317054Y120860D01*
X317033Y120853D01*
X316998Y120846D01*
X316963Y120832D01*
X316915Y120818D01*
X316818Y120777D01*
X316700Y120728D01*
X316575Y120666D01*
X316450Y120589D01*
X316332Y120499D01*
X316325D01*
X316318Y120485D01*
X316283Y120457D01*
X316235Y120402D01*
X316179Y120332D01*
X316124Y120249D01*
X316075Y120145D01*
X316040Y120027D01*
X316026Y119965D01*
Y119888D01*
D02*
G37*
%LPD*%
G36*
X314985Y126190D02*
X314979Y126349D01*
Y126440D01*
X314985Y126509D01*
X314992Y126585D01*
X314999Y126682D01*
X315013Y126787D01*
X315034Y126898D01*
X315083Y127134D01*
X315117Y127259D01*
X315159Y127383D01*
X315208Y127508D01*
X315263Y127626D01*
X315326Y127744D01*
X315402Y127848D01*
X315423Y127869D01*
X315444Y127897D01*
X315478Y127939D01*
X315520Y127980D01*
X315575Y128029D01*
X315638Y128084D01*
X315707Y128147D01*
X315784Y128209D01*
X315964Y128334D01*
X316068Y128397D01*
X316179Y128452D01*
X316297Y128508D01*
X316429Y128556D01*
X316561Y128598D01*
X316568D01*
X316596Y128605D01*
X316637Y128619D01*
X316693Y128633D01*
X316762Y128647D01*
X316845Y128667D01*
X316943Y128681D01*
X317179Y128723D01*
X317317Y128744D01*
X317463Y128758D01*
X317623Y128771D01*
X317789Y128785D01*
X317970Y128799D01*
X318157Y128806D01*
X318351D01*
Y125114D01*
X318379D01*
X318462Y125128D01*
X318525Y125135D01*
X318587Y125149D01*
X318664Y125163D01*
X318740Y125183D01*
X318914Y125239D01*
X319080Y125315D01*
X319170Y125364D01*
X319323Y125475D01*
X319399Y125551D01*
X319406Y125565D01*
X319427Y125586D01*
X319448Y125614D01*
X319476Y125648D01*
X319503Y125697D01*
X319531Y125753D01*
X319601Y125877D01*
X319628Y125954D01*
X319684Y126127D01*
X319725Y126322D01*
X319732Y126426D01*
X319739Y126537D01*
Y126592D01*
X319732Y126648D01*
Y126731D01*
X319725Y126821D01*
X319712Y126932D01*
X319691Y127043D01*
X319670Y127168D01*
Y127182D01*
X319656Y127224D01*
X319642Y127286D01*
X319621Y127370D01*
X319594Y127460D01*
X319566Y127564D01*
X319496Y127772D01*
X319476Y127814D01*
X319455Y127862D01*
X319427Y127925D01*
X319358Y128057D01*
X319323Y128119D01*
X319281Y128175D01*
X320302Y128674D01*
X320308Y128667D01*
X320329Y128640D01*
X320364Y128591D01*
X320406Y128529D01*
X320454Y128445D01*
X320503Y128348D01*
X320565Y128230D01*
X320621Y128098D01*
Y128091D01*
X320628Y128084D01*
X320635Y128064D01*
X320642Y128036D01*
X320655Y128001D01*
X320704Y127855D01*
X320739Y127737D01*
X320780Y127599D01*
X320822Y127446D01*
X320857Y127279D01*
Y127272D01*
X320864Y127259D01*
Y127238D01*
X320871Y127203D01*
X320878Y127161D01*
X320884Y127113D01*
X320898Y127002D01*
X320919Y126863D01*
X320933Y126717D01*
X320940Y126558D01*
X320947Y126391D01*
Y126329D01*
X320940Y126280D01*
Y126218D01*
X320933Y126148D01*
X320919Y126072D01*
X320905Y125988D01*
X320891Y125891D01*
X320871Y125794D01*
X320815Y125572D01*
X320739Y125343D01*
X320690Y125225D01*
X320635Y125107D01*
X320628Y125100D01*
X320621Y125079D01*
X320600Y125045D01*
X320572Y125003D01*
X320537Y124948D01*
X320496Y124885D01*
X320447Y124816D01*
X320392Y124739D01*
X320253Y124573D01*
X320079Y124399D01*
X319982Y124309D01*
X319878Y124226D01*
X319767Y124143D01*
X319642Y124059D01*
X319635Y124052D01*
X319615Y124038D01*
X319573Y124024D01*
X319524Y123997D01*
X319455Y123962D01*
X319378Y123927D01*
X319281Y123893D01*
X319177Y123858D01*
X319066Y123816D01*
X318941Y123782D01*
X318802Y123747D01*
X318650Y123712D01*
X318497Y123684D01*
X318331Y123671D01*
X318150Y123657D01*
X317970Y123650D01*
X317880D01*
X317817Y123657D01*
X317741D01*
X317643Y123664D01*
X317546Y123678D01*
X317310Y123705D01*
X317185Y123726D01*
X316922Y123782D01*
X316651Y123858D01*
X316519Y123907D01*
X316387Y123962D01*
X316381Y123969D01*
X316360Y123976D01*
X316325Y123997D01*
X316276Y124024D01*
X316221Y124052D01*
X316151Y124094D01*
X316082Y124143D01*
X316006Y124198D01*
X315922Y124260D01*
X315839Y124330D01*
X315749Y124406D01*
X315666Y124489D01*
X315499Y124670D01*
X315416Y124774D01*
X315346Y124885D01*
X315339Y124892D01*
X315333Y124913D01*
X315312Y124948D01*
X315291Y124996D01*
X315228Y125121D01*
X315194Y125204D01*
X315159Y125294D01*
X315131Y125399D01*
X315096Y125510D01*
X315062Y125635D01*
X315034Y125759D01*
X315013Y125898D01*
X314992Y126044D01*
X314985Y126190D01*
D02*
G37*
%LPC*%
G36*
X316096Y126308D02*
X316103Y126245D01*
X316117Y126169D01*
X316131Y126079D01*
X316158Y125975D01*
X316193Y125871D01*
X316242Y125767D01*
X316249Y125753D01*
X316269Y125725D01*
X316304Y125669D01*
X316346Y125614D01*
X316408Y125544D01*
X316484Y125468D01*
X316568Y125399D01*
X316665Y125336D01*
X316679Y125329D01*
X316714Y125315D01*
X316769Y125288D01*
X316845Y125260D01*
X316936Y125232D01*
X317047Y125204D01*
X317165Y125190D01*
X317297Y125183D01*
Y127446D01*
X317241D01*
X317172Y127439D01*
X317088Y127432D01*
X316991Y127411D01*
X316887Y127390D01*
X316783Y127356D01*
X316679Y127307D01*
X316665Y127300D01*
X316630Y127286D01*
X316582Y127252D01*
X316519Y127210D01*
X316450Y127154D01*
X316381Y127092D01*
X316311Y127016D01*
X316249Y126925D01*
X316200Y126828D01*
X316172Y126759D01*
X316144Y126676D01*
X316117Y126585D01*
X316103Y126474D01*
X316096Y126363D01*
Y126308D01*
D02*
G37*
%LPD*%
G36*
X314985Y157642D02*
X314979Y157899D01*
Y157961D01*
X314985Y158030D01*
X314992Y158128D01*
X315006Y158239D01*
X315020Y158371D01*
X315048Y158523D01*
X315083Y158683D01*
X315124Y158856D01*
X315180Y159030D01*
X315242Y159217D01*
X315319Y159398D01*
X315416Y159578D01*
X315520Y159759D01*
X315645Y159932D01*
X315791Y160092D01*
X316665Y159245D01*
X316658Y159231D01*
X316630Y159196D01*
X316589Y159134D01*
X316533Y159058D01*
X316478Y158967D01*
X316422Y158856D01*
X316360Y158738D01*
X316311Y158614D01*
Y158607D01*
X316304Y158600D01*
X316290Y158558D01*
X316269Y158489D01*
X316242Y158398D01*
X316221Y158301D01*
X316200Y158183D01*
X316186Y158058D01*
X316179Y157933D01*
Y157864D01*
X316186Y157788D01*
X316193Y157691D01*
X316214Y157586D01*
X316235Y157475D01*
X316269Y157364D01*
X316318Y157267D01*
X316325Y157260D01*
X316346Y157232D01*
X316373Y157191D01*
X316464Y157100D01*
X316526Y157066D01*
X316602Y157038D01*
X316679Y157024D01*
X316714D01*
X316748Y157038D01*
X316797Y157052D01*
X316845Y157073D01*
X316908Y157107D01*
X316970Y157156D01*
X317026Y157226D01*
X317033Y157232D01*
X317047Y157260D01*
X317074Y157309D01*
X317109Y157364D01*
X317151Y157441D01*
X317192Y157524D01*
X317227Y157621D01*
X317269Y157725D01*
X317276Y157739D01*
X317283Y157781D01*
X317331Y157926D01*
X317366Y158037D01*
X317401Y158162D01*
X317442Y158308D01*
X317491Y158468D01*
Y158475D01*
X317498Y158482D01*
X317505Y158530D01*
X317526Y158593D01*
X317546Y158669D01*
X317574Y158752D01*
X317595Y158835D01*
X317616Y158905D01*
X317637Y158967D01*
Y158974D01*
X317643Y158995D01*
X317657Y159023D01*
X317671Y159058D01*
X317692Y159106D01*
X317782Y159287D01*
X317859Y159425D01*
X317963Y159571D01*
X318081Y159717D01*
X318219Y159849D01*
X318227Y159856D01*
X318240Y159863D01*
X318261Y159877D01*
X318289Y159897D01*
X318331Y159925D01*
X318428Y159981D01*
X318490Y160015D01*
X318560Y160043D01*
X318636Y160071D01*
X318810Y160126D01*
X319004Y160161D01*
X319108Y160175D01*
X319254D01*
X319295Y160168D01*
X319351D01*
X319420Y160154D01*
X319496Y160140D01*
X319587Y160126D01*
X319677Y160099D01*
X319781Y160071D01*
X319885Y160029D01*
X319989Y159981D01*
X320093Y159918D01*
X320191Y159849D01*
X320295Y159773D01*
X320385Y159675D01*
X320475Y159571D01*
X320482Y159564D01*
X320496Y159543D01*
X320517Y159509D01*
X320545Y159460D01*
X320579Y159398D01*
X320614Y159321D01*
X320655Y159231D01*
X320697Y159127D01*
X320739Y159009D01*
X320780Y158884D01*
X320815Y158738D01*
X320850Y158579D01*
X320878Y158412D01*
X320898Y158232D01*
X320912Y158037D01*
X320919Y157829D01*
Y157753D01*
X320912Y157697D01*
Y157628D01*
X320905Y157545D01*
X320898Y157455D01*
X320884Y157357D01*
X320857Y157135D01*
X320808Y156899D01*
X320746Y156663D01*
X320655Y156427D01*
Y156420D01*
X320642Y156400D01*
X320579Y156275D01*
X320545Y156212D01*
X320503Y156143D01*
X320454Y156067D01*
X320336Y155900D01*
X320197Y155719D01*
X320031Y155532D01*
X319837Y155345D01*
X318920Y156171D01*
X318983Y156233D01*
X319052Y156309D01*
X319136Y156406D01*
X319233Y156525D01*
X319337Y156656D01*
X319434Y156802D01*
X319524Y156948D01*
Y156955D01*
X319531Y156969D01*
X319545Y156990D01*
X319559Y157017D01*
X319573Y157059D01*
X319594Y157100D01*
X319628Y157212D01*
X319670Y157343D01*
X319705Y157496D01*
X319732Y157670D01*
X319739Y157850D01*
Y157913D01*
X319732Y157982D01*
X319719Y158072D01*
X319705Y158169D01*
X319677Y158280D01*
X319635Y158391D01*
X319587Y158495D01*
X319580Y158509D01*
X319559Y158537D01*
X319524Y158586D01*
X319476Y158634D01*
X319413Y158683D01*
X319344Y158731D01*
X319261Y158759D01*
X319170Y158773D01*
X319143D01*
X319108Y158766D01*
X319066Y158759D01*
X318969Y158718D01*
X318920Y158683D01*
X318872Y158641D01*
X318851Y158620D01*
X318830Y158593D01*
X318802Y158551D01*
X318768Y158502D01*
X318740Y158454D01*
X318712Y158391D01*
X318685Y158322D01*
Y158315D01*
X318671Y158287D01*
X318636Y158183D01*
X318615Y158114D01*
X318587Y158024D01*
X318553Y157913D01*
X318518Y157795D01*
Y157788D01*
X318511Y157760D01*
X318497Y157718D01*
X318483Y157663D01*
X318462Y157593D01*
X318442Y157517D01*
X318386Y157336D01*
X318317Y157128D01*
X318240Y156920D01*
X318157Y156712D01*
X318109Y156615D01*
X318067Y156525D01*
Y156518D01*
X318053Y156504D01*
X318039Y156483D01*
X318025Y156448D01*
X317970Y156365D01*
X317900Y156268D01*
X317817Y156157D01*
X317720Y156046D01*
X317609Y155942D01*
X317491Y155851D01*
X317484D01*
X317477Y155844D01*
X317456Y155831D01*
X317428Y155817D01*
X317359Y155789D01*
X317262Y155747D01*
X317137Y155713D01*
X316998Y155678D01*
X316839Y155650D01*
X316658Y155643D01*
X316616D01*
X316582Y155650D01*
X316540D01*
X316498Y155657D01*
X316387Y155678D01*
X316263Y155706D01*
X316124Y155754D01*
X315978Y155817D01*
X315832Y155900D01*
X315825D01*
X315818Y155914D01*
X315797Y155928D01*
X315770Y155948D01*
X315700Y156011D01*
X315610Y156094D01*
X315513Y156198D01*
X315409Y156330D01*
X315312Y156483D01*
X315214Y156663D01*
Y156670D01*
X315208Y156684D01*
X315180Y156754D01*
X315159Y156802D01*
X315138Y156865D01*
X315117Y156934D01*
X315096Y157010D01*
X315076Y157094D01*
X315055Y157191D01*
X315013Y157399D01*
X314985Y157642D01*
D02*
G37*
G36*
Y164082D02*
X314979Y164242D01*
Y164332D01*
X314985Y164401D01*
X314992Y164478D01*
X314999Y164575D01*
X315013Y164679D01*
X315034Y164790D01*
X315083Y165026D01*
X315117Y165151D01*
X315159Y165276D01*
X315208Y165401D01*
X315263Y165519D01*
X315326Y165637D01*
X315402Y165741D01*
X315423Y165762D01*
X315444Y165789D01*
X315478Y165831D01*
X315520Y165873D01*
X315575Y165921D01*
X315638Y165977D01*
X315707Y166039D01*
X315784Y166102D01*
X315964Y166227D01*
X316068Y166289D01*
X316179Y166345D01*
X316297Y166400D01*
X316429Y166449D01*
X316561Y166490D01*
X316568D01*
X316596Y166497D01*
X316637Y166511D01*
X316693Y166525D01*
X316762Y166539D01*
X316845Y166560D01*
X316943Y166574D01*
X317179Y166615D01*
X317317Y166636D01*
X317463Y166650D01*
X317623Y166664D01*
X317789Y166678D01*
X317970Y166692D01*
X318157Y166699D01*
X318351D01*
Y163006D01*
X318379D01*
X318462Y163020D01*
X318525Y163027D01*
X318587Y163041D01*
X318664Y163055D01*
X318740Y163076D01*
X318914Y163131D01*
X319080Y163208D01*
X319170Y163256D01*
X319323Y163367D01*
X319399Y163444D01*
X319406Y163458D01*
X319427Y163478D01*
X319448Y163506D01*
X319476Y163541D01*
X319503Y163590D01*
X319531Y163645D01*
X319601Y163770D01*
X319628Y163846D01*
X319684Y164020D01*
X319725Y164214D01*
X319732Y164318D01*
X319739Y164429D01*
Y164485D01*
X319732Y164540D01*
Y164623D01*
X319725Y164714D01*
X319712Y164825D01*
X319691Y164936D01*
X319670Y165061D01*
Y165075D01*
X319656Y165116D01*
X319642Y165179D01*
X319621Y165262D01*
X319594Y165352D01*
X319566Y165456D01*
X319496Y165665D01*
X319476Y165706D01*
X319455Y165755D01*
X319427Y165817D01*
X319358Y165949D01*
X319323Y166012D01*
X319281Y166067D01*
X320302Y166567D01*
X320308Y166560D01*
X320329Y166532D01*
X320364Y166483D01*
X320406Y166421D01*
X320454Y166338D01*
X320503Y166241D01*
X320565Y166123D01*
X320621Y165991D01*
Y165984D01*
X320628Y165977D01*
X320635Y165956D01*
X320642Y165928D01*
X320655Y165893D01*
X320704Y165748D01*
X320739Y165630D01*
X320780Y165491D01*
X320822Y165338D01*
X320857Y165172D01*
Y165165D01*
X320864Y165151D01*
Y165130D01*
X320871Y165095D01*
X320878Y165054D01*
X320884Y165005D01*
X320898Y164894D01*
X320919Y164755D01*
X320933Y164610D01*
X320940Y164450D01*
X320947Y164283D01*
Y164221D01*
X320940Y164172D01*
Y164110D01*
X320933Y164041D01*
X320919Y163964D01*
X320905Y163881D01*
X320891Y163784D01*
X320871Y163687D01*
X320815Y163464D01*
X320739Y163235D01*
X320690Y163118D01*
X320635Y162999D01*
X320628Y162993D01*
X320621Y162972D01*
X320600Y162937D01*
X320572Y162896D01*
X320537Y162840D01*
X320496Y162777D01*
X320447Y162708D01*
X320392Y162632D01*
X320253Y162465D01*
X320079Y162292D01*
X319982Y162201D01*
X319878Y162118D01*
X319767Y162035D01*
X319642Y161952D01*
X319635Y161945D01*
X319615Y161931D01*
X319573Y161917D01*
X319524Y161889D01*
X319455Y161854D01*
X319378Y161820D01*
X319281Y161785D01*
X319177Y161750D01*
X319066Y161709D01*
X318941Y161674D01*
X318802Y161639D01*
X318650Y161605D01*
X318497Y161577D01*
X318331Y161563D01*
X318150Y161549D01*
X317970Y161542D01*
X317880D01*
X317817Y161549D01*
X317741D01*
X317643Y161556D01*
X317546Y161570D01*
X317310Y161598D01*
X317185Y161618D01*
X316922Y161674D01*
X316651Y161750D01*
X316519Y161799D01*
X316387Y161854D01*
X316381Y161861D01*
X316360Y161868D01*
X316325Y161889D01*
X316276Y161917D01*
X316221Y161945D01*
X316151Y161986D01*
X316082Y162035D01*
X316006Y162090D01*
X315922Y162153D01*
X315839Y162222D01*
X315749Y162299D01*
X315666Y162382D01*
X315499Y162562D01*
X315416Y162666D01*
X315346Y162777D01*
X315339Y162784D01*
X315333Y162805D01*
X315312Y162840D01*
X315291Y162889D01*
X315228Y163013D01*
X315194Y163097D01*
X315159Y163187D01*
X315131Y163291D01*
X315096Y163402D01*
X315062Y163527D01*
X315034Y163652D01*
X315013Y163791D01*
X314992Y163936D01*
X314985Y164082D01*
D02*
G37*
%LPC*%
G36*
X316096Y164200D02*
X316103Y164138D01*
X316117Y164061D01*
X316131Y163971D01*
X316158Y163867D01*
X316193Y163763D01*
X316242Y163659D01*
X316249Y163645D01*
X316269Y163617D01*
X316304Y163562D01*
X316346Y163506D01*
X316408Y163437D01*
X316484Y163360D01*
X316568Y163291D01*
X316665Y163229D01*
X316679Y163222D01*
X316714Y163208D01*
X316769Y163180D01*
X316845Y163152D01*
X316936Y163125D01*
X317047Y163097D01*
X317165Y163083D01*
X317297Y163076D01*
Y165338D01*
X317241D01*
X317172Y165331D01*
X317088Y165324D01*
X316991Y165304D01*
X316887Y165283D01*
X316783Y165248D01*
X316679Y165199D01*
X316665Y165193D01*
X316630Y165179D01*
X316582Y165144D01*
X316519Y165102D01*
X316450Y165047D01*
X316381Y164984D01*
X316311Y164908D01*
X316249Y164818D01*
X316200Y164721D01*
X316172Y164651D01*
X316144Y164568D01*
X316117Y164478D01*
X316103Y164367D01*
X316096Y164256D01*
Y164200D01*
D02*
G37*
%LPD*%
G36*
X314992Y100734D02*
X314985Y100984D01*
Y101095D01*
X314992Y101171D01*
X314999Y101261D01*
X315013Y101372D01*
X315034Y101490D01*
X315055Y101622D01*
X315083Y101754D01*
X315117Y101900D01*
X315166Y102039D01*
X315214Y102184D01*
X315277Y102323D01*
X315353Y102455D01*
X315437Y102580D01*
X315534Y102698D01*
X315589Y102753D01*
X315638Y102788D01*
X315693Y102837D01*
X315763Y102885D01*
X315839Y102941D01*
X315936Y102996D01*
X316040Y103052D01*
X316158Y103107D01*
X316290Y103156D01*
X316436Y103205D01*
X316589Y103239D01*
X316755Y103267D01*
X316936Y103288D01*
X317130Y103295D01*
X319413D01*
X319538Y103302D01*
X319670D01*
X319809Y103309D01*
X319955Y103316D01*
X319996D01*
X320024Y103323D01*
X320059D01*
X320100Y103329D01*
X320211Y103336D01*
X320336Y103350D01*
X320489Y103364D01*
X320662Y103378D01*
X320843Y103399D01*
Y101810D01*
X320829D01*
X320808Y101803D01*
X320780D01*
X320718Y101796D01*
X320628Y101782D01*
X320524Y101775D01*
X320406Y101768D01*
X320142Y101754D01*
X320149D01*
X320163Y101747D01*
X320184Y101733D01*
X320204Y101712D01*
X320281Y101664D01*
X320371Y101601D01*
X320468Y101518D01*
X320565Y101421D01*
X320662Y101310D01*
X320746Y101178D01*
Y101171D01*
X320753Y101164D01*
X320766Y101143D01*
X320774Y101116D01*
X320794Y101074D01*
X320808Y101032D01*
X320829Y100984D01*
X320843Y100928D01*
X320884Y100789D01*
X320912Y100630D01*
X320940Y100442D01*
X320947Y100234D01*
Y100172D01*
X320940Y100130D01*
Y100075D01*
X320933Y100012D01*
X320926Y99943D01*
X320919Y99866D01*
X320891Y99707D01*
X320850Y99526D01*
X320787Y99353D01*
X320711Y99186D01*
Y99179D01*
X320697Y99165D01*
X320683Y99145D01*
X320669Y99117D01*
X320614Y99041D01*
X320545Y98950D01*
X320447Y98846D01*
X320336Y98742D01*
X320211Y98645D01*
X320066Y98555D01*
X320059D01*
X320045Y98548D01*
X320024Y98534D01*
X319996Y98527D01*
X319955Y98506D01*
X319906Y98492D01*
X319795Y98458D01*
X319663Y98416D01*
X319503Y98388D01*
X319337Y98360D01*
X319149Y98353D01*
X319108D01*
X319052Y98360D01*
X318983Y98367D01*
X318900Y98374D01*
X318802Y98395D01*
X318698Y98416D01*
X318580Y98451D01*
X318462Y98492D01*
X318344Y98541D01*
X318219Y98603D01*
X318102Y98673D01*
X317984Y98763D01*
X317873Y98867D01*
X317775Y98985D01*
X317685Y99117D01*
X317678Y99124D01*
X317643Y99193D01*
X317616Y99256D01*
X317581Y99332D01*
X317546Y99422D01*
X317505Y99533D01*
X317463Y99651D01*
X317422Y99790D01*
X317380Y99936D01*
X317345Y100102D01*
X317310Y100276D01*
X317283Y100463D01*
X317262Y100657D01*
X317248Y100866D01*
X317241Y101088D01*
Y101747D01*
X317005D01*
X316956Y101740D01*
X316901Y101733D01*
X316839Y101719D01*
X316769Y101706D01*
X316693Y101678D01*
X316616Y101643D01*
X316610Y101636D01*
X316582Y101622D01*
X316547Y101601D01*
X316498Y101567D01*
X316394Y101463D01*
X316346Y101393D01*
X316297Y101317D01*
X316290Y101310D01*
X316276Y101275D01*
X316255Y101227D01*
X316235Y101164D01*
X316214Y101088D01*
X316193Y100991D01*
X316179Y100886D01*
X316172Y100769D01*
Y100713D01*
X316179Y100644D01*
X316193Y100553D01*
X316207Y100449D01*
X316235Y100338D01*
X316269Y100213D01*
X316318Y100082D01*
Y100075D01*
X316325Y100068D01*
X316332Y100047D01*
X316346Y100026D01*
X316373Y99957D01*
X316422Y99873D01*
X316478Y99769D01*
X316554Y99665D01*
X316637Y99547D01*
X316734Y99436D01*
X315825Y98673D01*
X315804Y98694D01*
X315784Y98721D01*
X315756Y98763D01*
X315721Y98812D01*
X315680Y98867D01*
X315631Y98930D01*
X315582Y98999D01*
X315485Y99159D01*
X315374Y99339D01*
X315277Y99533D01*
X315194Y99741D01*
Y99748D01*
X315187Y99769D01*
X315173Y99797D01*
X315159Y99839D01*
X315145Y99894D01*
X315124Y99957D01*
X315110Y100026D01*
X315090Y100109D01*
X315048Y100290D01*
X315020Y100505D01*
X314992Y100734D01*
D02*
G37*
%LPC*%
G36*
X318268Y101171D02*
X318275Y101102D01*
X318282Y101025D01*
Y100942D01*
X318296Y100859D01*
X318317Y100664D01*
X318358Y100470D01*
X318407Y100283D01*
X318442Y100199D01*
X318476Y100123D01*
Y100116D01*
X318483Y100109D01*
X318511Y100061D01*
X318560Y99998D01*
X318629Y99929D01*
X318719Y99859D01*
X318830Y99797D01*
X318955Y99748D01*
X319108Y99734D01*
X319143D01*
X319170Y99741D01*
X319240Y99748D01*
X319323Y99762D01*
X319420Y99797D01*
X319517Y99839D01*
X319607Y99894D01*
X319684Y99977D01*
X319691Y99991D01*
X319712Y100026D01*
X319746Y100075D01*
X319774Y100151D01*
X319809Y100241D01*
X319844Y100345D01*
X319864Y100470D01*
X319871Y100602D01*
Y100657D01*
X319864Y100692D01*
X319857Y100741D01*
X319850Y100796D01*
X319823Y100914D01*
X319774Y101053D01*
X319739Y101122D01*
X319656Y101261D01*
X319601Y101331D01*
X319538Y101393D01*
X319469Y101449D01*
X319462Y101456D01*
X319448Y101463D01*
X319427Y101476D01*
X319392Y101497D01*
X319351Y101518D01*
X319302Y101539D01*
X319240Y101567D01*
X319170Y101594D01*
X319004Y101650D01*
X318907Y101671D01*
X318685Y101712D01*
X318560Y101726D01*
X318428Y101740D01*
X318282D01*
Y101706D01*
X318275Y101664D01*
Y101546D01*
X318268Y101470D01*
Y101171D01*
D02*
G37*
%LPD*%
G36*
X315048Y104815D02*
Y106494D01*
X316804Y107250D01*
X315048Y108070D01*
Y109666D01*
X317893Y108104D01*
X320843Y109798D01*
Y108070D01*
X318844Y107250D01*
X320843Y106362D01*
Y104703D01*
X317914Y106265D01*
X315048Y104815D01*
D02*
G37*
G36*
X315062Y149064D02*
Y150598D01*
X318802D01*
X318851Y150605D01*
X318900D01*
X319011Y150619D01*
X319143Y150639D01*
X319268Y150674D01*
X319392Y150716D01*
X319517Y150778D01*
X319587Y150848D01*
X319635Y150910D01*
X319684Y150993D01*
X319725Y151098D01*
X319753Y151222D01*
X319767Y151375D01*
Y151417D01*
X319760Y151451D01*
X319753Y151528D01*
X319732Y151632D01*
X319691Y151743D01*
X319642Y151854D01*
X319566Y151958D01*
X319524Y152007D01*
X319469Y152055D01*
X319462D01*
X319455Y152062D01*
X319413Y152090D01*
X319344Y152125D01*
X319254Y152173D01*
X319136Y152215D01*
X318990Y152250D01*
X318823Y152277D01*
X318629Y152284D01*
X315062D01*
Y153811D01*
X319691D01*
X319767Y153818D01*
X319941D01*
X320010Y153825D01*
X320086D01*
X320177Y153832D01*
X320267D01*
X320371Y153839D01*
X320440D01*
X320496Y153846D01*
X320565D01*
X320649Y153853D01*
X320739D01*
X320843Y153860D01*
Y152305D01*
X320322Y152263D01*
X320336Y152256D01*
X320364Y152229D01*
X320413Y152187D01*
X320468Y152138D01*
X320537Y152076D01*
X320600Y152014D01*
X320662Y151944D01*
X320718Y151868D01*
X320725Y151861D01*
X320739Y151833D01*
X320760Y151798D01*
X320787Y151743D01*
X320815Y151680D01*
X320843Y151604D01*
X320864Y151521D01*
X320884Y151431D01*
Y151417D01*
X320891Y151389D01*
X320898Y151333D01*
X320905Y151257D01*
X320919Y151160D01*
X320926Y151042D01*
X320933Y150910D01*
Y150716D01*
X320926Y150681D01*
Y150639D01*
X320919Y150591D01*
X320898Y150480D01*
X320871Y150355D01*
X320822Y150209D01*
X320760Y150063D01*
X320676Y149911D01*
Y149904D01*
X320662Y149897D01*
X320649Y149876D01*
X320628Y149848D01*
X320565Y149779D01*
X320482Y149689D01*
X320378Y149592D01*
X320246Y149487D01*
X320093Y149383D01*
X319920Y149293D01*
X319913D01*
X319871Y149272D01*
X319830Y149258D01*
X319781Y149238D01*
X319725Y149224D01*
X319663Y149203D01*
X319587Y149182D01*
X319503Y149154D01*
X319413Y149133D01*
X319212Y149099D01*
X318990Y149071D01*
X318747Y149064D01*
X315062D01*
D02*
G37*
G36*
X317012Y74931D02*
X316144Y75681D01*
X317012Y76430D01*
X317803Y75681D01*
X317012Y74931D01*
D02*
G37*
D10*
X287555Y41339D02*
G03*
X287555Y41339I-1500J0D01*
G01*
X147791D02*
G03*
X147791Y41339I-1500J0D01*
G01*
D11*
X100394Y198819D02*
G03*
X100394Y198819I-19685J0D01*
G01*
X289370Y235236D02*
G03*
X289370Y235236I-19685J0D01*
G01*
X312992Y198819D02*
G03*
X312992Y198819I-19685J0D01*
G01*
X219488Y236221D02*
G03*
X219488Y236221I-19685J0D01*
G01*
X242126Y198819D02*
G03*
X242126Y198819I-19685J0D01*
G01*
X148622Y235236D02*
G03*
X148622Y235236I-19685J0D01*
G01*
X171260Y198819D02*
G03*
X171260Y198819I-19685J0D01*
G01*
X77756Y236221D02*
G03*
X77756Y236221I-19685J0D01*
G01*
X89370Y109055D02*
X93933D01*
X74933D02*
X81496D01*
X74933Y166850D02*
X81496D01*
X89370D02*
X93933D01*
X74933Y109055D02*
Y166850D01*
X93933Y109055D02*
Y166850D01*
X266535Y109055D02*
X271098D01*
X252098D02*
X258661D01*
X252098Y166850D02*
X258661D01*
X266535D02*
X271098D01*
X252098Y109055D02*
Y166850D01*
X271098Y109055D02*
Y166850D01*
X301969Y109055D02*
X306532D01*
X287531D02*
X294094D01*
X287531Y166850D02*
X294094D01*
X301969D02*
X306532D01*
X287531Y109055D02*
Y166850D01*
X306532Y109055D02*
Y166850D01*
X195669Y109055D02*
X200232D01*
X181232D02*
X187795D01*
X181232Y166850D02*
X187795D01*
X195669D02*
X200232D01*
X181232Y109055D02*
Y166850D01*
X200232Y109055D02*
Y166850D01*
X231102Y109055D02*
X235665D01*
X216665D02*
X223228D01*
X216665Y166850D02*
X223228D01*
X231102D02*
X235665D01*
X216665Y109055D02*
Y166850D01*
X235665Y109055D02*
Y166850D01*
X124803Y109055D02*
X129366D01*
X110366D02*
X116929D01*
X110366Y166850D02*
X116929D01*
X124803D02*
X129366D01*
X110366Y109055D02*
Y166850D01*
X129366Y109055D02*
Y166850D01*
X160236Y109055D02*
X164799D01*
X145799D02*
X152362D01*
X145799Y166850D02*
X152362D01*
X160236D02*
X164799D01*
X145799Y109055D02*
Y166850D01*
X164799Y109055D02*
Y166850D01*
X53937Y109055D02*
X58500D01*
X39500D02*
X46063D01*
X39500Y166850D02*
X46063D01*
X53937D02*
X58500D01*
X39500Y109055D02*
Y166850D01*
X58500Y109055D02*
Y166850D01*
D12*
X99661Y186819D02*
G03*
X99661Y186819I-394J0D01*
G01*
X251520Y247236D02*
G03*
X251520Y247236I-394J0D01*
G01*
X312260Y186819D02*
G03*
X312260Y186819I-394J0D01*
G01*
X181638Y248220D02*
G03*
X181638Y248220I-394J0D01*
G01*
X241394Y186819D02*
G03*
X241394Y186819I-394J0D01*
G01*
X110772Y247236D02*
G03*
X110772Y247236I-394J0D01*
G01*
X170528Y186819D02*
G03*
X170528Y186819I-394J0D01*
G01*
X39906Y248220D02*
G03*
X39906Y248220I-394J0D01*
G01*
X163583Y54134D02*
X167126D01*
X163583Y60039D02*
X167126D01*
X40630Y267717D02*
X94961D01*
X37087Y354331D02*
X84961D01*
X94961Y267717D02*
Y314961D01*
X84961D02*
Y354331D01*
Y314961D02*
X94961D01*
X37087Y307087D02*
Y354331D01*
X40630Y267717D02*
Y307087D01*
X37087D02*
X40630D01*
X253228Y267717D02*
X307559D01*
X249685Y354331D02*
X297559D01*
X307559Y267717D02*
Y314961D01*
X297559D02*
Y354331D01*
Y314961D02*
X307559D01*
X249685Y307087D02*
Y354331D01*
X253228Y267717D02*
Y307087D01*
X249685D02*
X253228D01*
X182362Y267717D02*
X236693D01*
X178819Y354331D02*
X226693D01*
X236693Y267717D02*
Y314961D01*
X226693D02*
Y354331D01*
Y314961D02*
X236693D01*
X178819Y307087D02*
Y354331D01*
X182362Y267717D02*
Y307087D01*
X178819D02*
X182362D01*
X111496Y267717D02*
X165827D01*
X107953Y354331D02*
X155827D01*
X165827Y267717D02*
Y314961D01*
X155827D02*
Y354331D01*
Y314961D02*
X165827D01*
X107953Y307087D02*
Y354331D01*
X111496Y267717D02*
Y307087D01*
X107953D02*
X111496D01*
D13*
X19685Y62992D02*
G03*
X37402Y45276I17717J0D01*
G01*
X31496Y74803D02*
G03*
X19685Y62992I0J-11811D01*
G01*
X25591Y68898D02*
G03*
X31496Y74803I5906J0D01*
G01*
D02*
G03*
X13780Y92520I-17717J0D01*
G01*
X19685Y62992D02*
G03*
X31496Y74803I0J11811D01*
G01*
X25591Y68898D02*
G03*
X19685Y62992I-5906J0D01*
G01*
D14*
X183823Y39106D02*
Y44246D01*
X150823Y18746D02*
Y23886D01*
Y39106D02*
Y44246D01*
X183823D01*
Y18746D02*
Y23886D01*
X150823Y18746D02*
X183823D01*
X146823Y28996D02*
Y33996D01*
X143823Y31496D02*
X146823Y30996D01*
X143823Y31496D02*
X146823Y30496D01*
X143823Y31496D02*
X146823Y29996D01*
X143823Y31496D02*
X146823Y29496D01*
X143823Y31496D02*
X146823Y28996D01*
X143823Y31496D02*
X146823Y31996D01*
X143823Y31496D02*
X146823Y32496D01*
X143823Y31496D02*
X146823Y32996D01*
X143823Y31496D02*
X146823Y33496D01*
X143823Y31496D02*
X146823Y33996D01*
X143823Y28996D02*
Y33996D01*
X142823Y31496D02*
X147823D01*
X195355Y73539D02*
X279055D01*
X195355Y9139D02*
Y73539D01*
Y9139D02*
X279055D01*
Y73539D01*
X55591D02*
X139291D01*
X55591Y9139D02*
Y73539D01*
Y9139D02*
X139291D01*
Y73539D01*
D15*
X99709Y182819D02*
X95710D01*
X97709Y180820D02*
Y184819D01*
X250685Y251236D02*
X254684D01*
X252684Y253235D02*
Y249236D01*
X312307Y182819D02*
X308308D01*
X310308Y180820D02*
Y184819D01*
X180803Y252220D02*
X184802D01*
X182802Y254219D02*
Y250220D01*
X241441Y182819D02*
X237442D01*
X239441Y180820D02*
Y184819D01*
X109937Y251236D02*
X113936D01*
X111936Y253235D02*
Y249236D01*
X170575Y182819D02*
X166576D01*
X168575Y180820D02*
Y184819D01*
X39071Y252220D02*
X43070D01*
X41070Y254219D02*
Y250220D01*
M02*
