G04*
G04 #@! TF.GenerationSoftware,Altium Limited,Altium Designer,25.8.1 (18)*
G04*
G04 Layer_Color=128*
%FSLAX25Y25*%
%MOIN*%
G70*
G04*
G04 #@! TF.SameCoordinates,F384F0F7-549D-428C-8488-93E715E2066E*
G04*
G04*
G04 #@! TF.FilePolarity,Positive*
G04*
G01*
G75*
%ADD21R,0.02362X0.03937*%
%ADD47R,0.03543X0.03347*%
%ADD171R,0.04016X0.12480*%
%ADD173R,0.02461X0.03937*%
G36*
X143504Y469488D02*
X140654D01*
X138686Y471457D01*
Y471457D01*
X140654Y473425D01*
X140654Y473425D01*
X142126D01*
X143504Y473425D01*
Y469488D01*
D02*
G37*
G36*
X129724D02*
X126875D01*
X124906Y471457D01*
Y471457D01*
X126875Y473425D01*
X126875Y473425D01*
X128346D01*
X129724Y473425D01*
Y469488D01*
D02*
G37*
G36*
X115945D02*
X113095D01*
X111127Y471457D01*
Y471457D01*
X113095Y473425D01*
X113095Y473425D01*
X114567D01*
X115945Y473425D01*
Y469488D01*
D02*
G37*
G36*
X137298Y471457D02*
Y471457D01*
X139267Y469488D01*
X136687D01*
Y467913D01*
X139267D01*
X137298Y465945D01*
Y465945D01*
X139267Y463976D01*
X134055D01*
Y467913D01*
X135438D01*
Y469488D01*
X134055D01*
Y473425D01*
X139267D01*
X137298Y471457D01*
D02*
G37*
G36*
X123519D02*
Y471457D01*
X125487Y469488D01*
X122907D01*
Y467913D01*
X125487D01*
X123519Y465945D01*
Y465945D01*
X125487Y463976D01*
X120276D01*
Y467913D01*
X121659D01*
Y469488D01*
X120276D01*
Y473425D01*
X125487D01*
X123519Y471457D01*
D02*
G37*
G36*
X109739D02*
Y471457D01*
X111708Y469488D01*
X109128D01*
Y467913D01*
X111708D01*
X109739Y465945D01*
Y465945D01*
X111708Y463976D01*
X106496D01*
Y467913D01*
X107879D01*
Y469488D01*
X106496D01*
Y473425D01*
X111708D01*
X109739Y471457D01*
D02*
G37*
G36*
X150394Y451772D02*
X147544D01*
X145576Y453740D01*
Y453740D01*
X147544Y455709D01*
X147544Y455709D01*
X149016D01*
X150394Y455709D01*
Y451772D01*
D02*
G37*
G36*
X136614D02*
X133765D01*
X131796Y453740D01*
Y453740D01*
X133765Y455709D01*
X133765Y455709D01*
X135236D01*
X136614Y455709D01*
Y451772D01*
D02*
G37*
G36*
X122835D02*
X119985D01*
X118017Y453740D01*
Y453740D01*
X119985Y455709D01*
X119985Y455709D01*
X121457D01*
X122835Y455709D01*
Y451772D01*
D02*
G37*
G36*
X144188Y453740D02*
Y453740D01*
X146157Y451772D01*
X143577D01*
Y450197D01*
X146157D01*
X144188Y448228D01*
Y448228D01*
X146157Y446260D01*
X140945D01*
Y450197D01*
X142328D01*
Y451772D01*
X140945D01*
Y455709D01*
X146157D01*
X144188Y453740D01*
D02*
G37*
G36*
X130409D02*
Y453740D01*
X132377Y451772D01*
X129797D01*
Y450197D01*
X132377D01*
X130409Y448228D01*
Y448228D01*
X132377Y446260D01*
X127165D01*
Y450197D01*
X128549D01*
Y451772D01*
X127165D01*
Y455709D01*
X132377D01*
X130409Y453740D01*
D02*
G37*
G36*
X116629D02*
Y453740D01*
X118598Y451772D01*
X116017D01*
Y450197D01*
X118598D01*
X116629Y448228D01*
Y448228D01*
X118598Y446260D01*
X113386D01*
Y450197D01*
X114769D01*
Y451772D01*
X113386D01*
Y455709D01*
X118598D01*
X116629Y453740D01*
D02*
G37*
G36*
X161221Y333661D02*
X158371D01*
X156402Y335630D01*
Y335630D01*
X158371Y337598D01*
X158371Y337598D01*
X159843D01*
X161221Y337598D01*
Y333661D01*
D02*
G37*
G36*
X155015Y335630D02*
Y335630D01*
X156983Y333661D01*
X151772D01*
Y337598D01*
X156983D01*
X155015Y335630D01*
D02*
G37*
G36*
X161221Y326772D02*
X158371D01*
X156402Y328740D01*
Y328740D01*
X158371Y330709D01*
X158371Y330709D01*
X159843D01*
X161221Y330709D01*
Y326772D01*
D02*
G37*
G36*
X155015Y328740D02*
Y328740D01*
X156983Y326772D01*
X151772D01*
Y330709D01*
X156983D01*
X155015Y328740D01*
D02*
G37*
G36*
X161221Y303150D02*
X158371D01*
X156402Y305118D01*
Y305118D01*
X158371Y307087D01*
X158371Y307087D01*
X159843D01*
X161221Y307087D01*
Y303150D01*
D02*
G37*
G36*
X155015Y305118D02*
Y305118D01*
X156983Y303150D01*
X151772D01*
Y307087D01*
X156983D01*
X155015Y305118D01*
D02*
G37*
G36*
X161221Y296260D02*
X158371D01*
X156402Y298228D01*
Y298228D01*
X158371Y300197D01*
X158371Y300197D01*
X159843D01*
X161221Y300197D01*
Y296260D01*
D02*
G37*
G36*
X155015Y298228D02*
Y298228D01*
X156983Y296260D01*
X151772D01*
Y300197D01*
X156983D01*
X155015Y298228D01*
D02*
G37*
G36*
X161221Y285433D02*
X158371D01*
X156402Y287402D01*
Y287402D01*
X158371Y289370D01*
X158371Y289370D01*
X159843D01*
X161221Y289370D01*
Y285433D01*
D02*
G37*
G36*
X155015Y287402D02*
Y287402D01*
X156983Y285433D01*
X151772D01*
Y289370D01*
X156983D01*
X155015Y287402D01*
D02*
G37*
G36*
X161221Y278543D02*
X158371D01*
X156402Y280512D01*
Y280512D01*
X158371Y282480D01*
X158371Y282480D01*
X159843D01*
X161221Y282480D01*
Y278543D01*
D02*
G37*
G36*
X155015Y280512D02*
Y280512D01*
X156983Y278543D01*
X151772D01*
Y282480D01*
X156983D01*
X155015Y280512D01*
D02*
G37*
G36*
X161221Y271654D02*
X158371D01*
X156402Y273622D01*
Y273622D01*
X158371Y275590D01*
X158371Y275590D01*
X159843D01*
X161221Y275590D01*
Y271654D01*
D02*
G37*
G36*
X155015Y273622D02*
Y273622D01*
X156983Y271654D01*
X151772D01*
Y275590D01*
X156983D01*
X155015Y273622D01*
D02*
G37*
D21*
X148819Y453740D02*
D03*
X159645Y305118D02*
D03*
Y298228D02*
D03*
X159645Y335630D02*
D03*
Y328740D02*
D03*
Y287402D02*
D03*
Y280512D02*
D03*
Y273622D02*
D03*
X114370Y471457D02*
D03*
X121260Y453740D02*
D03*
X128149Y471457D02*
D03*
X135039Y453740D02*
D03*
X141929Y471457D02*
D03*
X153348Y358268D02*
D03*
D47*
X93504Y454823D02*
D03*
Y448721D02*
D03*
X87598Y454823D02*
D03*
Y448721D02*
D03*
X100394Y471555D02*
D03*
Y465453D02*
D03*
X94488Y471555D02*
D03*
X80709D02*
D03*
X86614D02*
D03*
X101378Y454823D02*
D03*
X107283D02*
D03*
Y448721D02*
D03*
X86614Y465453D02*
D03*
X94488D02*
D03*
X80709D02*
D03*
X101378Y448721D02*
D03*
D171*
X157559Y52618D02*
D03*
X147559D02*
D03*
D173*
X153494Y305118D02*
D03*
Y298228D02*
D03*
X153494Y335630D02*
D03*
Y328740D02*
D03*
Y287402D02*
D03*
Y280512D02*
D03*
Y273622D02*
D03*
X159497Y358267D02*
D03*
M02*
