M48
;Layer_Color=9474304
;FILE_FORMAT=2:5
INCH
;TYPE=NON_PLATED
T15F00S00C0.04000
T16F00S00C0.04016
T17F00S00C0.07087
T18F00S00C0.11811
T19F00S00C0.12000
T20F00S00C0.13400
%
T15
X0603268Y0234370
X0676102Y0645748
X0321772Y0802283
T16
X0321772Y0747165
X0620984Y0645748
T17
X0345236Y0202087
X0375236Y0182087
X0435787Y0202323
X0465787Y0182323
T18
X0812205Y0289961
X0812205Y0308465
T19
X0812205Y0482283
Y0527559
Y0572835
Y0618110
X0462598Y0939174
X0433071
X0403543
X0374016
X0344488
X0314961
X0492126
X0521654
T20
X0801181Y0192913
X0748032Y0442913
Y0655512
X0524606Y0875000
X0312008
M30
