M48
;Layer_Color=9474304
;FILE_FORMAT=2:5
INCH
;TYPE=PLATED
T01F00S00C0.00800
T02F00S00C0.01200
T03F00S00C0.01600
T04F00S00C0.03071
T05F00S00C0.03346
T06F00S00C0.03937
T07F00S00C0.04000
T08F00S00C0.04016
T09F00S00C0.04134
T10F00S00C0.04213
T11F00S00C0.04331
T12F00S00C0.04528
T13F00S00C0.04724
T14F00S00C0.06299
%
T01
X0635827Y0195866
Y0199803
X0633858Y0210630
Y0214567
Y0218504
Y0222441
X0630905Y0220473
Y0216535
Y0212598
X0627953Y0214567
Y0210630
X0625000Y0212598
Y0216535
Y0220473
X0627953Y0218504
Y0222441
X0638201Y0214598
Y0210598
X0643701
Y0214598
X0649201
Y0210598
X0652559Y0208662
Y0212598
Y0216535
Y0220473
X0655512Y0218504
Y0214567
Y0210630
X0658464Y0208662
Y0212598
Y0216535
Y0220473
X0657480Y0225394
Y0229331
X0660433Y0231299
Y0237205
X0679134
X0683071
X0687008
X0690945
X0688976Y0234252
X0685039
X0681102
X0679680Y0228334
X0675743
X0683617
X0687554
X0692278
X0695669Y0219291
Y0215354
X0699606
Y0219291
X0703740Y0216535
X0711614
X0713510Y0221581
X0713460Y0226444
X0712598Y0234252
Y0238189
X0718504Y0238189
X0722441
X0726378
X0730315
X0734252
X0738189
X0742126
X0746063
X0750000
X0753937
X0757874
X0753937Y0247047
Y0250984
Y0254921
Y0258858
X0750984Y0256890
Y0252953
Y0249016
X0748032Y0250984
Y0254921
Y0258858
Y0247047
X0747047Y0220473
X0754921
X0739173
X0731299
X0723425
X0719488Y0216535
X0699803Y0206693
X0695866
X0691929
X0687992
X0684055
X0680118
Y0202756
Y0198819
Y0194882
Y0187008
X0709933Y0187902
X0748032Y0187992
Y0191929
Y0195866
Y0199803
X0750984Y0197835
Y0193898
Y0189961
X0753937Y0191929
Y0195866
Y0199803
Y0187992
X0754921Y0279528
X0747047
X0739173
X0731299
X0723425
X0719488Y0275591
X0711614
X0713428Y0280605
X0713307Y0285055
X0712598Y0293307
Y0297244
X0718504Y0297244
X0722441
X0726378
X0730315
X0734252
X0738189
X0742126
X0746063
X0750000
X0753937
X0757874
X0753935Y0306103
Y0310040
X0750983Y0312008
Y0308071
X0748030Y0310040
Y0306103
X0710431Y0305512
X0690945Y0296260
X0687008
X0683071
X0679134
X0681102Y0293307
X0685039
X0688976
X0687334Y0287216
X0683397
X0679460
X0675523
X0692058
X0695669Y0278847
X0699213Y0278740
Y0274803
X0695669Y0274909
X0703740Y0275591
X0699803Y0265748
X0695866
X0691929
X0687992
X0684055
X0680118
Y0261811
Y0257874
Y0253937
Y0246063
X0709933Y0246957
X0658464Y0267717
Y0271654
Y0275591
Y0279528
X0655512Y0277559
Y0273622
Y0269685
X0652559Y0267717
Y0271654
Y0275591
Y0279528
X0649201Y0273654
Y0269654
X0643701
Y0273654
X0638201
Y0269654
X0633858Y0269685
Y0273622
Y0277559
Y0281496
X0630905Y0279528
Y0275591
Y0271654
X0627953Y0273622
Y0269685
X0625000Y0271654
Y0275591
Y0279528
X0627953Y0277559
Y0281496
X0635827Y0258858
Y0254921
X0657480Y0284449
Y0288386
X0660433Y0290354
Y0296260
X0680117Y0305119
X0620077Y0306103
Y0302166
X0620079Y0247047
Y0243110
X0611221Y0241142
X0607283
X0603346
X0591535
X0587598
X0583661
X0556102Y0242126
Y0257874
Y0273622
Y0289370
Y0305118
X0526575Y0306102
X0513779Y0311024
X0475419Y0309643
X0475572Y0292951
X0485236Y0281496
X0497047Y0269685
X0508858Y0257874
Y0242126
Y0226378
Y0210630
Y0194882
Y0179134
X0516732Y0163386
X0532480
X0548228
X0556102Y0210630
Y0226378
X0488189
Y0213583
Y0242126
X0483268Y0256890
X0471457Y0269685
X0475394Y0177165
X0620079Y0184055
Y0187992
X0445866Y0177165
X0426181
X0406496
X0386811
X0357283
X0337598
X0317913
X0318898Y0198050
Y0217735
Y0237421
Y0257105
X0327756Y0255906
X0347441
X0362184Y0257051
X0366122Y0257051
X0369309
X0373011Y0257051
X0386811Y0255906
X0396654
X0399606Y0269685
Y0273622
X0395669
X0393701Y0278543
X0385728Y0277953
X0376575Y0268898
X0353346Y0274606
X0346457Y0274606
X0340846Y0280512
X0341535Y0288386
Y0295276
X0340551Y0306102
X0341535Y0310039
X0346457Y0308071
X0352362Y0300197
X0367126Y0308071
X0379921Y0296260
X0391732Y0301181
X0398622Y0296260
X0406496Y0291339
X0413386
X0421260Y0290354
X0426181
Y0284449
X0421260
X0430118Y0278543
X0456693Y0286417
X0460630Y0268701
X0456693Y0310039
X0413386Y0309055
X0411614Y0237894
X0407253Y0237967
X0403666
X0399114Y0237894
X0341535Y0267717
X0323819Y0281496
X0327756Y0293307
X0312008Y0269685
X0304134Y0257874
Y0242126
Y0226378
Y0210630
Y0194882
Y0179134
X0300197Y0163386
X0284449
X0268701
X0276575Y0206693
X0252953Y0210630
Y0226378
Y0242126
Y0257874
Y0273622
Y0289370
X0270669Y0299213
X0274606Y0315945
X0301181Y0320866
X0303150Y0326772
X0298228Y0332677
X0299379Y0341612
X0303150Y0356299
X0301181Y0361221
X0304134Y0370079
Y0416339
X0304379Y0434712
X0298228Y0431102
X0304134Y0456693
X0252953Y0442913
X0272679Y0420112
X0274606Y0405512
X0270669Y0396654
X0252953Y0383858
Y0375984
X0316392Y0396455
X0329724Y0391732
X0334350Y0385335
X0340179Y0397512
X0343898Y0403839
X0347441Y0408661
X0351870Y0416142
X0349606Y0424213
X0343701Y0419390
X0332179Y0416912
X0332479Y0441012
X0332079Y0456312
X0335531Y0466634
X0354331Y0465551
X0393799Y0453740
X0390748Y0447835
X0393515Y0442697
X0388189Y0432283
X0388287Y0414764
X0409179Y0413012
X0409279Y0401312
X0426870Y0403543
Y0393701
X0428346Y0373524
X0433071Y0360236
X0421260
X0418307Y0364173
X0403879Y0363912
X0404528Y0355315
X0401575Y0344488
X0410433Y0336614
X0422244
X0426181Y0316929
X0454724Y0333661
X0459722Y0333585
X0464567Y0333661
X0466459Y0337675
X0461614Y0337598
X0456693
X0454724Y0380906
X0459722Y0380829
X0464567Y0380906
X0466459Y0384919
X0461614Y0384842
X0456693
X0463579Y0404112
X0463479Y0413012
X0463679Y0430212
X0463479Y0453412
X0463379Y0464712
X0429035Y0460532
X0425886Y0443209
Y0436024
X0433366Y0428248
X0419488Y0426181
X0409449Y0432579
X0409154Y0439468
X0412795Y0446457
X0406004Y0422441
X0393701Y0396358
X0393307Y0387205
X0395177Y0383661
X0388878Y0380709
X0385138Y0387303
X0385039Y0373031
X0378937Y0372835
X0369390Y0371063
X0371063Y0361221
X0382874Y0356299
X0386811Y0349409
X0380906Y0343504
X0386379Y0333912
X0365879Y0333512
X0360236Y0343504
X0344488
X0332677Y0338583
X0328740Y0346457
X0328740Y0355315
Y0361221
Y0367126
X0346579Y0369812
X0346654Y0378740
X0348779Y0389512
X0354331Y0392717
X0350779Y0361412
X0391732Y0360925
X0342520Y0313976
X0475692Y0327065
X0469488Y0333661
X0471457Y0337598
X0469488Y0380906
X0471457Y0384842
X0474409Y0391732
X0479331
X0507874Y0408465
X0508858Y0413386
X0512279Y0434312
X0538386Y0436024
X0539279Y0425912
X0537992Y0416535
X0554134Y0397638
X0559679Y0391112
X0548479Y0390712
X0515748Y0367126
X0507874Y0325787
X0541339Y0315945
X0556102Y0320866
Y0336614
X0620079Y0361221
Y0365158
X0616142Y0448036
X0610236
X0604331
X0598425
X0588583Y0446850
X0560039Y0454724
X0539567Y0452165
X0539279Y0466612
X0477405Y0467520
X0481299Y0445866
X0631890Y0435039
X0633858Y0457677
X0645669
X0659449
X0673228
X0688976
X0687008Y0435039
Y0414370
X0683071
X0679134
X0681102Y0411417
X0685039
X0688976
X0690945Y0414370
X0692130Y0405317
X0687405
X0683468
X0679531
X0675594
X0660433Y0408465
X0657480Y0406496
X0658464Y0397638
Y0393701
Y0389764
Y0385827
X0655512Y0387795
Y0391732
Y0395669
X0652559Y0397638
Y0393701
Y0389764
Y0385827
X0649201Y0387764
Y0391764
X0643701
Y0387764
X0638201
Y0391764
X0633858Y0391732
Y0387795
X0630905Y0389764
Y0393701
Y0397638
X0633858Y0395669
Y0399606
X0627953Y0399606
Y0395669
Y0391732
Y0387795
X0625000Y0389764
Y0393701
Y0397638
X0635827Y0376969
Y0373031
X0633857Y0340552
Y0336615
Y0332678
Y0328741
X0638199Y0328709
Y0332709
X0643699
Y0328709
X0649199
Y0332709
X0652557Y0334646
Y0330709
Y0326772
X0655510Y0328741
Y0332678
Y0336615
X0652559Y0338583
X0658463Y0338583
Y0334646
Y0330709
Y0326772
X0657479Y0343505
Y0347442
X0660431Y0349410
Y0355315
X0679132
X0683069
X0687006
X0690943
X0688975Y0352363
X0685038
X0681101
X0679570Y0346346
X0683507
X0687444
X0692168
X0695668Y0337902
Y0333965
X0699606Y0334252
X0699605Y0337902
X0703738Y0334646
X0711613
X0713705Y0339392
X0713681Y0344375
X0712597Y0352363
Y0356300
X0718502Y0356300
X0722439
X0726376
X0730313
X0734250
X0738187
X0742124
X0746061
X0749998
X0753935
X0757872
X0753937Y0365158
Y0369094
Y0373031
Y0376969
X0750984Y0375000
Y0371063
Y0367126
X0748032Y0369094
Y0365158
Y0373031
Y0376969
X0747047Y0397638
X0754921
X0739173
X0731299
X0723425
X0719488Y0393701
X0711614
X0713675Y0399941
X0713559Y0404009
X0712598Y0411417
Y0415354
X0718504Y0415354
X0722441
X0726378
X0730315
X0734252
X0738189
X0742126
X0746063
X0750000
X0753937
X0757874
X0769685Y0435039
X0710630
X0699606Y0396957
X0699606Y0393307
X0695619Y0393322
X0695669Y0396957
X0695866Y0383858
X0699803
X0691929
X0687992
X0684055
X0680118
Y0379921
Y0375984
Y0372047
Y0364173
X0675633Y0346346
X0680117Y0324804
Y0320867
Y0316930
Y0312993
X0684054Y0324804
X0687991
X0691927
X0695864
X0699801
X0719487Y0334646
X0723424Y0338583
X0731298
X0739172
X0747046
X0754920
X0753935Y0317914
Y0313977
X0750983Y0315945
X0748030Y0313977
Y0317914
X0710433Y0364567
X0660433Y0414370
X0659449Y0435039
X0630904Y0338583
Y0334646
Y0330709
X0627953Y0332677
Y0336614
Y0340551
X0625000Y0338583
Y0334646
Y0330709
X0627953Y0328740
X0635825Y0317914
Y0313977
X0793307Y0435039
X0812992Y0442913
Y0505905
Y0549213
Y0596457
X0695866Y0591536
X0702756Y0579724
X0698819Y0553150
Y0545276
X0688484Y0545079
X0683071Y0545276
Y0553150
X0688484Y0552165
X0675689
X0675197Y0545276
X0667323
Y0553150
X0665354Y0567913
X0669291
X0660097Y0568012
X0654528Y0575451
X0645669Y0577420
X0638131Y0569882
X0641732Y0557087
X0647638
X0659449Y0581693
X0656496Y0592520
X0669291Y0588583
X0666339Y0605315
X0709646Y0554134
Y0541339
X0705709Y0504921
X0700787Y0490158
X0666339Y0469488
X0647638Y0494095
X0643701Y0509842
X0606299Y0515950
X0600394
X0588583Y0517717
X0594488Y0503155
X0588583Y0494095
Y0470472
X0620079Y0473425
X0539567Y0481102
X0542717Y0489370
X0512795Y0499016
X0508858Y0482283
X0496579Y0470712
X0474409Y0472441
X0510879Y0519812
X0511579Y0545312
X0511079Y0561412
X0541535Y0562205
Y0555905
Y0550000
Y0544488
X0556496
Y0550394
Y0555905
Y0561811
X0556102Y0568898
Y0584646
Y0600394
Y0616142
X0542323Y0614173
Y0606299
X0538386Y0602362
Y0610236
Y0618110
X0534449Y0614173
Y0606299
X0528543Y0588583
X0500984Y0585630
X0504921Y0603346
X0485236Y0614173
X0473425Y0622047
X0469488Y0618110
X0484252Y0593504
X0620079Y0599409
Y0581693
X0463179Y0562612
X0462779Y0541212
X0463379Y0483912
X0421949Y0468799
X0402379Y0468812
X0400886Y0478051
X0385728Y0484350
X0385531Y0496654
X0380512Y0502756
X0382972Y0513878
X0381693Y0528346
X0382776Y0538484
X0379232Y0548819
Y0568307
X0357283Y0568898
Y0548130
X0337779Y0546812
X0337598Y0554134
X0335630Y0540354
X0331693Y0535433
X0327756Y0541339
X0323819Y0576772
X0323819Y0582677
X0335138Y0576673
X0332874Y0598425
X0338386
X0346654
X0352165
X0360433
X0365945
X0374213
X0379724
X0387992
X0393504
X0402756
X0403051Y0584744
X0393996Y0588386
X0390748Y0591339
X0384055Y0594095
X0376969Y0592618
X0363681Y0590354
X0367323Y0615158
X0372835
X0381102
X0386614
X0359055
X0353543
X0345276
X0339764
X0331496
X0325984
X0327461Y0608661
X0315945Y0624016
X0339079Y0512812
X0357283Y0508563
X0359646Y0518209
X0357776Y0488583
X0356496Y0473327
X0338779Y0489312
X0403779Y0503612
X0403179Y0523012
X0403346Y0529232
X0394783Y0533465
X0394882Y0543405
X0395079Y0553642
X0403051Y0561811
X0418799Y0518799
X0461614Y0618110
X0457677Y0622047
X0465551
X0310039Y0624016
X0304134
X0298228
X0292323
X0286417
X0289370Y0620079
X0283465
X0280512Y0616142
X0286417
X0292323
X0295276Y0620079
X0299213Y0602362
X0252953Y0600394
Y0584646
Y0568898
Y0553150
Y0537402
Y0521654
Y0490158
Y0474409
X0297244Y0476378
X0252953Y0616142
Y0631890
Y0647638
X0286417Y0631890
X0292323
X0298228
X0304134
X0310039
X0307087Y0627953
X0301181
X0295276
X0289370
X0312992
X0318898
X0315945Y0631890
X0363189Y0632874
X0376969
X0390748
X0394685Y0683071
X0410433
X0422244
X0432087
X0439961
X0446850Y0685039
Y0678150
Y0670276
X0451772Y0675197
Y0682087
X0456693Y0685039
Y0671260
X0465551Y0710630
X0466535Y0717520
X0464567Y0738189
X0465186Y0760427
X0445866Y0758858
X0444882Y0762795
X0457677Y0776575
X0417421Y0767815
X0385827Y0761811
X0379921
X0374016
X0368110
X0362205
X0365158Y0757874
X0371063
X0376969
X0382874
X0385827Y0753937
X0379921
X0374016
X0368110
X0362205
X0363189Y0683071
X0347441
X0378937
X0445866Y0710630
X0461614Y0625984
X0469488
X0485236Y0628937
X0491142
X0499016
X0503937
X0522559Y0626968
X0530512Y0635827
X0536417
X0541339
X0556102Y0631890
Y0647638
X0518701Y0651575
X0510827
X0502953
X0506890Y0655512
X0514764
Y0647638
X0506890
X0500984Y0683071
X0485236
X0477165Y0685039
X0473228Y0687008
Y0682087
Y0677165
Y0672244
X0477165Y0674213
Y0679134
X0477362Y0713583
X0485236Y0710630
X0500984
X0518217Y0710728
X0524122
X0530215Y0723337
X0532480Y0738189
Y0753937
Y0769685
X0526090Y0778642
X0520185
X0514280
X0508374
X0502953Y0753937
X0484871Y0755505
X0476997
X0469123
X0473060Y0760427
X0480934
X0488808
X0487205Y0747047
X0479921Y0738189
X0474803
X0469685
X0472244Y0732253
X0508858Y0726378
X0513779
X0516732Y0683071
X0620079Y0625984
X0632874
X0646654
X0660433
X0712402Y0640748
X0719291
Y0656496
X0712402
X0777559Y0659449
X0801181
X0812992Y0647638
X0532480Y0785433
Y0801181
Y0816929
Y0832677
Y0848425
X0492126Y0804134
X0487205Y0800197
X0483268Y0804134
X0474409
X0478346Y0800197
X0469488
X0461614
X0465551Y0804134
X0445866Y0812992
X0430118
X0423228Y0807087
X0414370
X0385827Y0809055
X0379921
X0374016
X0368110
X0362205
X0365158Y0805118
X0371063
X0376969
X0382874
X0385827Y0801181
X0379921
X0374016
X0368110
X0362205
X0325787Y0839567
Y0845472
X0308071
Y0839567
X0304134Y0832677
Y0816929
X0304134Y0856299
T02
X0657480Y0183071
Y0187008
Y0234252
Y0242126
Y0246063
X0641732Y0228346
Y0287402
X0657480Y0293307
X0657479Y0301182
X0657480Y0305118
X0716534Y0303150
X0716535Y0244094
Y0185039
X0611221Y0278543
X0604331
X0611221Y0286417
Y0295276
X0258858Y0383465
Y0446850
X0419488Y0451181
X0546260Y0456693
X0608268Y0366142
Y0356299
X0641731Y0346457
X0657479Y0352363
X0657480Y0360236
Y0364173
Y0411417
X0641732Y0405512
X0716535Y0362205
X0816929Y0361221
X0806102Y0338583
X0794472Y0338238
X0791339Y0392717
X0807087Y0390748
X0812992
X0802165Y0403543
X0796260Y0406496
X0655512Y0475591
Y0481102
Y0489370
Y0494882
Y0503150
Y0508661
Y0516929
Y0522441
X0616142Y0501968
X0612205Y0505905
X0321850Y0543307
Y0547244
X0300197
Y0542323
X0405512Y0743110
T03
X0687008Y0465551
X0691929Y0471457
X0687008Y0477362
Y0486221
X0695866Y0514764
X0695755Y0523365
X0699803Y0528543
X0705709Y0518701
X0704947Y0560475
X0700787Y0568898
X0694882Y0572835
X0689961Y0567913
X0686024Y0598425
X0682087Y0606299
X0678150Y0610236
X0674213Y0602362
T04
X0438976Y0286614
Y0296614
Y0306614
Y0336614
Y0346614
T05
X0748032Y0476378
Y0496063
Y0518701
Y0538386
Y0561024
Y0580709
Y0603346
Y0623032
X0491142Y0831693
X0471457
Y0875000
X0491142
X0448819
X0429134
X0406496
X0386811
X0364173
X0344488
Y0831693
X0364173
X0386811
X0406496
X0429134
X0448819
T06
X0521480Y0221157
X0531480
Y0231157
Y0241157
Y0251157
X0521480
Y0261157
Y0271157
X0531480
Y0261157
Y0281157
Y0291157
Y0301157
Y0311157
X0521480
Y0301157
Y0291157
Y0281157
Y0241157
Y0231157
X0501480Y0301255
X0491480
Y0311255
X0501480
X0321480
Y0301255
X0311480
Y0311255
X0291480
X0281480
Y0301255
X0291480
Y0291255
Y0281255
X0281480
Y0291255
Y0271255
X0291480
Y0261255
X0281480
Y0251255
X0291480
Y0241255
X0281480
Y0231255
Y0221255
X0291480
Y0231255
Y0321255
Y0331255
X0281480
Y0341255
Y0351255
Y0361255
Y0371255
Y0381255
Y0391255
Y0401255
Y0411255
Y0421255
Y0431255
Y0441255
Y0451255
Y0461255
X0291480
Y0451255
Y0441255
Y0431255
Y0421255
Y0411255
Y0401255
Y0391255
Y0381255
Y0371255
Y0361255
Y0351255
Y0341255
X0311480
Y0331255
Y0321255
X0281480
X0311480Y0351255
Y0361255
Y0371255
Y0381255
Y0391255
Y0401255
Y0411255
Y0421255
Y0431255
Y0441255
Y0461255
X0321480
Y0441255
Y0431255
Y0421255
Y0411255
Y0401255
Y0391255
Y0381255
Y0371255
Y0361255
Y0351255
Y0341255
Y0331255
Y0321255
X0491480
Y0331255
Y0341255
Y0351255
Y0361255
X0501480
Y0371255
X0491480
Y0381255
X0501480
Y0391255
X0491480
Y0401255
Y0411255
Y0421255
Y0431255
Y0441255
Y0451255
Y0461255
X0501480
Y0451255
Y0441255
Y0431255
Y0421255
Y0411255
Y0401255
X0521480Y0401157
Y0411157
X0531480
Y0421157
Y0431157
Y0441157
X0521480
Y0451157
X0531480
Y0461157
X0521480
Y0431157
Y0421157
X0531480Y0401157
Y0391157
Y0381157
X0521480
Y0371157
Y0361157
Y0351157
Y0341157
Y0331157
X0531480
Y0341157
Y0351157
Y0361157
Y0371157
X0521480Y0391157
X0501480Y0351255
Y0341255
Y0331255
Y0321255
X0521480Y0321157
X0531480
Y0471157
Y0481157
Y0491157
X0521480
Y0501157
X0531480
Y0511157
X0521480
Y0521157
Y0531157
X0531480
Y0521157
Y0541157
Y0551157
Y0561157
Y0571157
X0521480
Y0561157
Y0551157
Y0541157
X0501480Y0537255
X0491480
Y0547255
Y0557255
Y0567255
X0501480
Y0557255
Y0547255
Y0527255
X0491480
Y0517255
Y0507255
Y0497255
Y0487255
Y0477255
X0501480
Y0487255
Y0497255
Y0507255
Y0517255
X0521480Y0481157
Y0471157
X0321480Y0471255
Y0481255
Y0491255
Y0501255
Y0511255
Y0521255
Y0531255
X0311480
Y0521255
Y0511255
Y0501255
Y0491255
Y0481255
Y0471255
X0291480
Y0481255
X0281480
Y0491255
Y0501255
X0291480
Y0511255
Y0521255
Y0531255
Y0541255
Y0551255
Y0561255
Y0571255
X0281480
Y0561255
Y0551255
Y0541255
Y0531255
Y0521255
Y0511255
X0291480Y0491255
X0281480Y0471255
X0281201Y0671299
Y0681299
X0531102Y0681201
Y0671201
T07
X0783465Y0281496
Y0293307
Y0305118
X0795276
Y0293307
Y0281496
Y0316929
X0783465
X0783465Y0470472
Y0482283
Y0494095
X0795276
Y0482283
Y0470472
Y0515748
Y0527559
Y0539370
X0783465
Y0527559
Y0515748
Y0561024
Y0572835
Y0584646
X0795276
Y0572835
Y0561024
Y0606299
Y0618110
X0783465
Y0606299
Y0629921
X0795276
X0527559Y0910433
X0515748
Y0922244
X0527559
X0498032
X0486221
Y0910433
X0498032
X0468504
X0456693
Y0922244
X0468504
X0438976
X0427165
Y0910433
X0438976
X0409449
X0397638
Y0922244
X0409449
X0379921
X0368110
Y0910433
X0379921
X0350394
X0338583
Y0922244
X0350394
X0320866
Y0910433
X0309055
Y0922244
T08
X0253780Y0460630
X0263779
X0361221Y0363268
Y0353268
X0559252Y0417165
Y0427165
Y0437165
X0526575Y0610236
X0516575
X0462598Y0608347
Y0598347
X0287402Y0594410
Y0604410
X0263779Y0511811
X0253780
X0407323Y0754921
X0417323
X0427323
T09
X0371496Y0393189
Y0403189
Y0413189
Y0423189
Y0433189
Y0443189
Y0453189
Y0463189
X0441496
Y0453189
Y0443189
Y0433189
Y0423189
Y0413189
Y0403189
Y0393189
Y0473189
Y0483189
Y0493189
Y0503189
Y0513189
Y0523189
Y0533189
Y0543189
Y0553189
Y0563189
Y0573189
Y0583189
X0371496
Y0573189
Y0563189
Y0553189
Y0543189
Y0533189
Y0523189
Y0513189
Y0503189
Y0493189
Y0483189
Y0473189
T10
X0492795Y0668898
X0502795
X0512795
T11
X0584648Y0281260
X0594648
Y0291260
X0584648
Y0301260
X0594648
Y0311260
X0584648
X0263779Y0311024
X0253780
Y0321024
X0263779
Y0331024
Y0341024
Y0351024
Y0361024
X0253780
Y0351024
Y0341024
Y0331024
Y0391732
X0263779
Y0401732
X0253780
Y0411732
X0263779
Y0421732
Y0431732
X0253780
Y0421732
X0549252Y0381157
Y0371158
Y0361157
X0559252
Y0351157
X0549252
X0559252Y0371158
Y0381157
X0584648Y0381260
X0594648
Y0391260
Y0401260
X0584648
Y0391260
Y0411260
X0594648
Y0366260
X0584648
Y0356260
Y0346260
X0594648
Y0356260
Y0336260
Y0326260
X0584648
Y0336260
X0559252Y0471157
Y0481157
Y0491157
Y0501157
Y0511157
Y0521157
X0549252
Y0511157
Y0501157
Y0491157
Y0481157
Y0471157
X0584648Y0531260
X0594648
Y0541260
X0584648
Y0551260
X0594648
Y0561260
X0584648
Y0576260
Y0586260
X0594648
Y0596260
Y0606260
X0584648
Y0616260
X0594648
X0584648Y0596260
X0594648Y0576260
X0474567Y0522795
Y0512795
Y0502795
X0464567
Y0512795
Y0522795
X0306260Y0644724
Y0654724
Y0711811
Y0721811
X0316260
Y0711811
X0326260
X0336260
Y0721811
X0326260
X0351260
X0361260
Y0711811
X0351260
X0371260
X0381260
Y0721811
X0371260
X0391260
Y0711811
X0406260
Y0721811
X0416260
X0426260
X0436260
Y0711811
X0426260
X0416260
Y0654724
X0406260
Y0644724
X0416260
X0426260
Y0654724
X0436260
Y0644724
X0391260
Y0654724
X0381260
X0371260
X0361260
X0351260
Y0644724
X0361260
X0371260
X0381260
X0336260
Y0654724
X0326260
X0316260
Y0644724
X0326260
X0584648Y0641260
Y0631260
X0594648
Y0641260
Y0651260
X0584648
Y0661260
X0594648
T12
X0587598Y0193898
Y0205709
Y0217520
Y0229331
X0599409
Y0217520
Y0205709
Y0193898
X0306102Y0742126
Y0761811
Y0773622
X0317913
Y0761811
Y0742126
X0615945Y0661417
Y0649606
X0635630
Y0661417
X0647441
X0659252
X0671063
Y0649606
X0659252
X0647441
X0317913Y0785433
Y0797244
X0306102
Y0785433
T13
X0634842Y0533465
X0644685Y0543307
X0625000
T14
X0483268Y0194803
X0465787Y0217323
Y0234842
X0450787
X0435787
Y0217323
X0423307Y0219843
X0450787
X0375236Y0217087
X0360236
X0345236
Y0237087
X0332756
X0360236
X0375236
X0387717
M30
