G04*
G04 #@! TF.GenerationSoftware,Altium Limited,Altium Designer,26.9.1 (10)*
G04*
G04 Layer_Color=8388736*
G04 Board_Origin=24507875|15551181*
%FSLAX25Y25*%
%MOIN*%
G70*
G04*
G04 #@! TF.SameCoordinates,84E719DE-5BC6-4521-84A3-B34C6F0F9747*
G04*
G04*
G04 #@! TF.FilePolarity,Positive*
G04*
G01*
G75*
%ADD10C,0.01000*%
%ADD22C,0.00591*%
%ADD147C,0.00100*%
G36*
X323366Y4063D02*
Y6028D01*
X323587D01*
X323601Y6026D01*
X323617D01*
X323638Y6023D01*
X323663Y6019D01*
X323689Y6015D01*
X323719Y6010D01*
X323750Y6002D01*
X323781Y5992D01*
X323814Y5979D01*
X323845Y5965D01*
X323876Y5947D01*
X323907Y5928D01*
X323935Y5905D01*
X323968Y5872D01*
X323975Y5864D01*
X323983Y5851D01*
X323993Y5836D01*
X324004Y5818D01*
X324016Y5796D01*
X324029Y5773D01*
X324042Y5746D01*
X324053Y5716D01*
X324065Y5683D01*
X324075Y5649D01*
X324083Y5611D01*
X324091Y5570D01*
X324094Y5528D01*
X324096Y5483D01*
Y5472D01*
X324094Y5457D01*
X324093Y5437D01*
X324089Y5414D01*
X324084Y5387D01*
X324079Y5357D01*
X324070Y5326D01*
X324060Y5291D01*
X324047Y5257D01*
X324029Y5223D01*
X324009Y5186D01*
X323986Y5154D01*
X323958Y5121D01*
X323927Y5090D01*
X323891Y5062D01*
X323893Y5060D01*
X323898Y5057D01*
X323917Y5037D01*
X323930Y5021D01*
X323947Y5001D01*
X323965Y4976D01*
X323983Y4945D01*
X324004Y4909D01*
X324025Y4868D01*
X324048Y4819D01*
X324058Y4793D01*
X324081Y4734D01*
X324093Y4701D01*
X324104Y4667D01*
X324116Y4630D01*
X324127Y4593D01*
X324137Y4553D01*
X324148Y4511D01*
X324158Y4466D01*
X324250Y4063D01*
X323986D01*
X323909Y4401D01*
Y4403D01*
X323907Y4404D01*
Y4409D01*
X323906Y4416D01*
X323901Y4434D01*
X323896Y4458D01*
X323889Y4486D01*
X323881Y4519D01*
X323871Y4553D01*
X323861Y4591D01*
X323840Y4668D01*
X323827Y4706D01*
X323815Y4742D01*
X323804Y4776D01*
X323791Y4806D01*
X323779Y4832D01*
X323768Y4854D01*
Y4855D01*
X323765Y4858D01*
X323761Y4863D01*
X323757Y4868D01*
X323743Y4885D01*
X323727Y4901D01*
X323706Y4919D01*
X323679Y4932D01*
X323665Y4937D01*
X323650Y4940D01*
X323635Y4942D01*
X323619D01*
Y4063D01*
X323366D01*
D02*
G37*
%LPC*%
G36*
X323619Y5178D02*
X323640D01*
X323650Y5180D01*
X323663Y5183D01*
X323679Y5188D01*
X323697Y5195D01*
X323717Y5203D01*
X323737Y5216D01*
X323757Y5231D01*
X323776Y5250D01*
X323794Y5275D01*
X323811Y5303D01*
X323824Y5337D01*
X323833Y5377D01*
X323842Y5421D01*
X323843Y5447D01*
Y5486D01*
X323842Y5503D01*
X323840Y5523D01*
X323837Y5547D01*
X323832Y5573D01*
X323825Y5603D01*
X323815Y5632D01*
X323804Y5662D01*
X323789Y5690D01*
X323771Y5718D01*
X323748Y5741D01*
X323724Y5762D01*
X323692Y5777D01*
X323658Y5788D01*
X323619Y5792D01*
Y5178D01*
D02*
G37*
%LPD*%
G36*
X324196Y3481D02*
X324168Y3712D01*
X324171D01*
X324180Y3710D01*
X324193D01*
X324209Y3709D01*
X324227Y3707D01*
X324245D01*
X324263Y3706D01*
X324289D01*
X324298Y3707D01*
X324316Y3709D01*
X324337Y3712D01*
X324362Y3719D01*
X324385Y3727D01*
X324404Y3740D01*
X324412Y3748D01*
X324419Y3756D01*
X324424Y3766D01*
X324429Y3781D01*
X324432Y3789D01*
X324435Y3801D01*
X324442Y3827D01*
X324444Y3843D01*
X324447Y3863D01*
X324448Y3883D01*
X324450Y3906D01*
X324452Y3930D01*
Y6028D01*
X324704D01*
Y3973D01*
X324703Y3961D01*
X324701Y3947D01*
Y3932D01*
X324698Y3914D01*
X324693Y3874D01*
X324683Y3828D01*
X324672Y3781D01*
X324655Y3733D01*
X324636Y3684D01*
X324609Y3637D01*
X324578Y3591D01*
X324560Y3571D01*
X324540Y3551D01*
X324519Y3533D01*
X324470Y3504D01*
X324444Y3492D01*
X324414Y3482D01*
X324383Y3476D01*
X324350Y3471D01*
X324314Y3469D01*
X324294D01*
X324280Y3471D01*
X324262Y3473D01*
X324242Y3474D01*
X324196Y3481D01*
D02*
G37*
G36*
X324957Y4603D02*
Y4827D01*
X325490Y6049D01*
X325726D01*
Y4780D01*
X325834D01*
Y4603D01*
X325726D01*
Y4063D01*
X325473D01*
Y4603D01*
X324957D01*
D02*
G37*
%LPC*%
G36*
X325129Y4780D02*
X325473D01*
Y5567D01*
X325467Y5572D01*
X325129Y4780D01*
D02*
G37*
%LPD*%
G36*
X326151Y4061D02*
X326105Y4079D01*
Y4319D01*
X326107D01*
X326110Y4317D01*
X326116Y4316D01*
X326125Y4312D01*
X326134Y4309D01*
X326146Y4304D01*
X326174Y4298D01*
X326205Y4289D01*
X326238Y4281D01*
X326271Y4276D01*
X326302Y4275D01*
X326315D01*
X326325Y4276D01*
X326336Y4278D01*
X326351Y4279D01*
X326382Y4288D01*
X326416Y4299D01*
X326435Y4307D01*
X326453Y4317D01*
X326471Y4329D01*
X326489Y4342D01*
X326505Y4357D01*
X326521Y4375D01*
X326523Y4376D01*
X326525Y4380D01*
X326530Y4384D01*
X326535Y4393D01*
X326541Y4403D01*
X326548Y4416D01*
X326554Y4430D01*
X326562Y4447D01*
X326571Y4465D01*
X326584Y4507D01*
X326590Y4532D01*
X326595Y4558D01*
X326600Y4586D01*
X326604Y4648D01*
Y4665D01*
X326602Y4676D01*
X326600Y4690D01*
X326599Y4706D01*
X326597Y4724D01*
X326592Y4744D01*
X326582Y4786D01*
X326567Y4831D01*
X326558Y4852D01*
X326546Y4873D01*
X326531Y4893D01*
X326517Y4911D01*
X326515Y4913D01*
X326513Y4916D01*
X326508Y4919D01*
X326492Y4932D01*
X326481Y4940D01*
X326469Y4950D01*
X326454Y4958D01*
X326438Y4967D01*
X326420Y4976D01*
X326400Y4985D01*
X326380Y4991D01*
X326358Y4998D01*
X326333Y5003D01*
X326307Y5004D01*
X326279Y5006D01*
X326256D01*
X326241Y5004D01*
X326208Y5001D01*
X326192Y4998D01*
X326177Y4995D01*
Y6028D01*
X326800D01*
Y5798D01*
X326425D01*
Y5216D01*
X326430D01*
X326436Y5214D01*
X326444Y5213D01*
X326454Y5209D01*
X326466Y5208D01*
X326494Y5198D01*
X326526Y5186D01*
X326564Y5170D01*
X326604Y5149D01*
X326644Y5122D01*
X326684Y5091D01*
X326705Y5072D01*
X326725Y5052D01*
X326743Y5031D01*
X326779Y4981D01*
X326794Y4953D01*
X326809Y4924D01*
X326822Y4893D01*
X326835Y4860D01*
X326845Y4824D01*
X326858Y4745D01*
X326861Y4703D01*
X326863Y4657D01*
Y4645D01*
X326861Y4630D01*
Y4612D01*
X326858Y4588D01*
X326854Y4562D01*
X326850Y4532D01*
X326845Y4499D01*
X326836Y4465D01*
X326827Y4427D01*
X326815Y4391D01*
X326800Y4352D01*
X326784Y4314D01*
X326764Y4276D01*
X326741Y4240D01*
X326715Y4206D01*
X326713Y4204D01*
X326709Y4197D01*
X326689Y4178D01*
X326674Y4165D01*
X326658Y4150D01*
X326636Y4134D01*
X326613Y4117D01*
X326589Y4099D01*
X326561Y4084D01*
X326531Y4068D01*
X326499Y4055D01*
X326464Y4043D01*
X326428Y4035D01*
X326389Y4029D01*
X326349Y4027D01*
X326338D01*
X326328Y4029D01*
X326316D01*
X326303Y4030D01*
X326289Y4032D01*
X326272Y4033D01*
X326236Y4040D01*
X326195Y4050D01*
X326151Y4061D01*
D02*
G37*
G36*
X328107Y4655D02*
X328106Y4716D01*
Y4747D01*
X328107Y4770D01*
X328109Y4796D01*
X328111Y4827D01*
X328114Y4863D01*
X328117Y4901D01*
X328122Y4940D01*
X328129Y4981D01*
X328137Y5024D01*
X328147Y5067D01*
X328157Y5108D01*
X328170Y5147D01*
X328185Y5185D01*
X328201Y5221D01*
X328203Y5223D01*
X328206Y5229D01*
X328211Y5237D01*
X328219Y5249D01*
X328229Y5263D01*
X328240Y5278D01*
X328253Y5295D01*
X328270Y5313D01*
X328288Y5329D01*
X328308Y5345D01*
X328329Y5360D01*
X328353Y5375D01*
X328378Y5387D01*
X328406Y5395D01*
X328435Y5401D01*
X328467Y5403D01*
X328475D01*
X328481Y5401D01*
X328499Y5398D01*
X328522Y5391D01*
X328549Y5380D01*
X328580Y5364D01*
X328594Y5354D01*
X328627Y5327D01*
X328645Y5311D01*
X328678Y5272D01*
X328693Y5249D01*
X328709Y5223D01*
X328724Y5195D01*
X328753Y5129D01*
X328765Y5091D01*
X328777Y5050D01*
X328788Y5006D01*
X328796Y4958D01*
X328804Y4908D01*
X328811Y4852D01*
X328814Y4793D01*
X328818Y4730D01*
Y4663D01*
X328335D01*
Y4645D01*
X328337Y4635D01*
Y4624D01*
X328339Y4598D01*
X328342Y4565D01*
X328347Y4529D01*
X328355Y4491D01*
X328365Y4452D01*
X328376Y4412D01*
X328391Y4375D01*
X328411Y4338D01*
X328434Y4306D01*
X328460Y4279D01*
X328475Y4268D01*
X328489Y4258D01*
X328507Y4250D01*
X328526Y4245D01*
X328545Y4242D01*
X328567Y4240D01*
X328572D01*
X328580Y4242D01*
X328588D01*
X328599Y4243D01*
X328612Y4247D01*
X328642Y4256D01*
X328658Y4263D01*
X328677Y4271D01*
X328696Y4281D01*
X328714Y4294D01*
X328734Y4309D01*
X328753Y4325D01*
X328773Y4345D01*
X328791Y4368D01*
Y4140D01*
X328786Y4135D01*
X328780Y4130D01*
X328770Y4122D01*
X328759Y4114D01*
X328745Y4104D01*
X328729Y4094D01*
X328711Y4084D01*
X328693Y4073D01*
X328672Y4063D01*
X328626Y4045D01*
X328601Y4037D01*
X328576Y4032D01*
X328550Y4029D01*
X328522Y4027D01*
X328514D01*
X328503Y4029D01*
X328489Y4030D01*
X328473Y4032D01*
X328453Y4037D01*
X328432Y4042D01*
X328409Y4050D01*
X328384Y4058D01*
X328360Y4070D01*
X328334Y4084D01*
X328309Y4102D01*
X328283Y4122D01*
X328258Y4145D01*
X328235Y4173D01*
X328214Y4204D01*
X328212Y4206D01*
X328204Y4222D01*
X328198Y4237D01*
X328189Y4256D01*
X328180Y4278D01*
X328170Y4304D01*
X328160Y4335D01*
X328150Y4370D01*
X328140Y4407D01*
X328130Y4450D01*
X328122Y4496D01*
X328116Y4545D01*
X328111Y4598D01*
X328107Y4655D01*
D02*
G37*
%LPC*%
G36*
X328332Y4835D02*
X328588D01*
Y4852D01*
X328586Y4870D01*
Y4893D01*
X328585Y4921D01*
X328581Y4952D01*
X328576Y4985D01*
X328572Y5019D01*
X328565Y5052D01*
X328555Y5085D01*
X328545Y5116D01*
X328532Y5144D01*
X328517Y5167D01*
X328499Y5185D01*
X328489Y5193D01*
X328478Y5198D01*
X328455Y5201D01*
X328450D01*
X328444Y5200D01*
X328435Y5196D01*
X328427Y5190D01*
X328416Y5181D01*
X328406Y5170D01*
X328394Y5155D01*
X328383Y5136D01*
X328371Y5113D01*
X328360Y5083D01*
X328352Y5047D01*
X328347Y5027D01*
X328340Y4981D01*
X328337Y4957D01*
X328335Y4929D01*
X328334Y4899D01*
X328332Y4868D01*
Y4835D01*
D02*
G37*
%LPD*%
G36*
X329072Y4063D02*
Y5367D01*
X329301D01*
Y5224D01*
X329306D01*
X329308Y5226D01*
X329311Y5231D01*
X329316Y5239D01*
X329332Y5262D01*
X329344Y5277D01*
X329357Y5291D01*
X329390Y5321D01*
X329408Y5336D01*
X329428Y5350D01*
X329449Y5362D01*
X329472Y5373D01*
X329495Y5382D01*
X329521Y5387D01*
X329547Y5388D01*
X329560D01*
X329569Y5387D01*
X329580Y5385D01*
X329593Y5383D01*
X329623Y5375D01*
X329656Y5364D01*
X329672Y5355D01*
X329690Y5344D01*
X329706Y5332D01*
X329724Y5319D01*
X329741Y5303D01*
X329756Y5285D01*
X329757Y5283D01*
X329759Y5280D01*
X329762Y5275D01*
X329769Y5267D01*
X329774Y5255D01*
X329780Y5244D01*
X329788Y5229D01*
X329795Y5211D01*
X329803Y5191D01*
X329810Y5172D01*
X329823Y5122D01*
X329828Y5095D01*
X329831Y5065D01*
X329833Y5034D01*
X329834Y5001D01*
Y4063D01*
X329605D01*
Y5014D01*
X329603Y5026D01*
X329601Y5040D01*
X329598Y5055D01*
X329590Y5091D01*
X329583Y5108D01*
X329573Y5126D01*
X329564Y5141D01*
X329552Y5155D01*
X329538Y5167D01*
X329521Y5177D01*
X329501Y5183D01*
X329480Y5185D01*
X329477D01*
X329469Y5183D01*
X329455Y5181D01*
X329439Y5177D01*
X329419Y5167D01*
X329398Y5154D01*
X329377Y5137D01*
X329365Y5126D01*
X329355Y5113D01*
X329354Y5109D01*
X329347Y5101D01*
X329339Y5090D01*
X329329Y5077D01*
X329318Y5062D01*
X329310Y5047D01*
X329303Y5037D01*
X329301Y5029D01*
Y4063D01*
X329072D01*
D02*
G37*
G36*
X330065Y4655D02*
X330064Y4711D01*
Y4740D01*
X330065Y4762D01*
X330067Y4788D01*
X330069Y4819D01*
X330072Y4852D01*
X330082Y4927D01*
X330098Y5009D01*
X330108Y5052D01*
X330120Y5093D01*
X330134Y5134D01*
X330151Y5173D01*
X330169Y5211D01*
X330170Y5213D01*
X330174Y5219D01*
X330180Y5229D01*
X330188Y5240D01*
X330198Y5255D01*
X330211Y5272D01*
X330226Y5290D01*
X330243Y5308D01*
X330262Y5324D01*
X330282Y5342D01*
X330305Y5359D01*
X330330Y5373D01*
X330356Y5385D01*
X330384Y5395D01*
X330412Y5401D01*
X330443Y5403D01*
X330454D01*
X330462Y5401D01*
X330472Y5400D01*
X330484Y5398D01*
X330512Y5390D01*
X330544Y5377D01*
X330561Y5368D01*
X330577Y5359D01*
X330595Y5345D01*
X330612Y5331D01*
X330630Y5314D01*
X330646Y5296D01*
Y6028D01*
X330876D01*
Y4063D01*
X330646D01*
Y4163D01*
X330640D01*
X330638Y4161D01*
X330636Y4158D01*
X330631Y4152D01*
X330625Y4145D01*
X330617Y4135D01*
X330607Y4125D01*
X330582Y4104D01*
X330553Y4081D01*
X330517Y4061D01*
X330477Y4048D01*
X330454Y4045D01*
X330431Y4043D01*
X330425D01*
X330416Y4045D01*
X330405Y4047D01*
X330392Y4048D01*
X330377Y4053D01*
X330359Y4058D01*
X330341Y4066D01*
X330321Y4076D01*
X330300Y4088D01*
X330279Y4102D01*
X330256Y4119D01*
X330235Y4140D01*
X330213Y4165D01*
X330192Y4193D01*
X330170Y4224D01*
X330169Y4225D01*
X330161Y4242D01*
X330154Y4256D01*
X330146Y4275D01*
X330136Y4298D01*
X330106Y4386D01*
X330098Y4422D01*
X330088Y4462D01*
X330080Y4506D01*
X330074Y4552D01*
X330069Y4603D01*
X330065Y4655D01*
D02*
G37*
%LPC*%
G36*
X330300Y4676D02*
X330302Y4665D01*
X330303Y4637D01*
X330305Y4604D01*
X330310Y4568D01*
X330315Y4529D01*
X330323Y4489D01*
X330333Y4448D01*
X330344Y4409D01*
X330359Y4373D01*
X330377Y4340D01*
X330399Y4312D01*
X330410Y4301D01*
X330423Y4291D01*
X330436Y4284D01*
X330451Y4278D01*
X330467Y4275D01*
X330484Y4273D01*
X330487D01*
X330495Y4275D01*
X330508Y4276D01*
X330525Y4279D01*
X330543Y4286D01*
X330561Y4296D01*
X330580Y4309D01*
X330607Y4335D01*
X330613Y4345D01*
X330623Y4357D01*
X330640Y4380D01*
X330644Y4389D01*
X330646Y4396D01*
Y5057D01*
X330641Y5067D01*
X330638Y5075D01*
X330626Y5096D01*
X330610Y5121D01*
X330590Y5144D01*
X330564Y5165D01*
X330549Y5173D01*
X330533Y5180D01*
X330515Y5183D01*
X330497Y5185D01*
X330489D01*
X330482Y5183D01*
X330466Y5178D01*
X330444Y5168D01*
X330433Y5162D01*
X330421Y5154D01*
X330410Y5144D01*
X330397Y5132D01*
X330385Y5117D01*
X330362Y5081D01*
X330352Y5059D01*
Y5057D01*
X330351Y5052D01*
X330348Y5045D01*
X330344Y5035D01*
X330341Y5022D01*
X330336Y5006D01*
X330331Y4988D01*
X330326Y4967D01*
X330321Y4944D01*
X330311Y4888D01*
X330305Y4822D01*
X330302Y4785D01*
X330300Y4745D01*
Y4676D01*
D02*
G37*
%LPD*%
G36*
X332074Y4598D02*
Y4845D01*
X332608D01*
Y4598D01*
X332074D01*
D02*
G37*
G36*
X333660Y3361D02*
Y3581D01*
X333664D01*
X333674Y3584D01*
X333687Y3587D01*
X333723Y3604D01*
X333741Y3617D01*
X333757Y3633D01*
X333772Y3653D01*
X333774Y3656D01*
X333777Y3664D01*
X333780Y3671D01*
X333782Y3681D01*
X333785Y3691D01*
X333788Y3702D01*
X333792Y3717D01*
X333795Y3733D01*
X333797Y3751D01*
X333800Y3771D01*
X333802Y3792D01*
X333803Y3817D01*
X333805Y3843D01*
Y5367D01*
X334034D01*
Y3912D01*
X334033Y3891D01*
Y3868D01*
X334031Y3842D01*
X334028Y3788D01*
X334023Y3732D01*
X334020Y3706D01*
X334016Y3681D01*
X334013Y3658D01*
X334008Y3638D01*
Y3637D01*
X334007Y3633D01*
X334005Y3628D01*
X334003Y3622D01*
X334000Y3612D01*
X333995Y3602D01*
X333983Y3578D01*
X333969Y3550D01*
X333949Y3519D01*
X333925Y3487D01*
X333885Y3448D01*
X333877Y3443D01*
X333869Y3436D01*
X333859Y3430D01*
X333846Y3422D01*
X333816Y3405D01*
X333798Y3397D01*
X333759Y3382D01*
X333713Y3369D01*
X333660Y3361D01*
D02*
G37*
G36*
X333780Y5901D02*
X333779Y5921D01*
Y5931D01*
X333780Y5941D01*
X333783Y5954D01*
X333788Y5969D01*
X333795Y5983D01*
X333803Y6000D01*
X333816Y6015D01*
X333823Y6021D01*
X333831Y6028D01*
X333842Y6034D01*
X333856Y6041D01*
X333872Y6047D01*
X333890Y6052D01*
X333910Y6054D01*
X333920D01*
X333929Y6052D01*
X333943Y6049D01*
X333956Y6044D01*
X333972Y6038D01*
X333988Y6028D01*
X334003Y6015D01*
X334010Y6008D01*
X334016Y6000D01*
X334023Y5988D01*
X334029Y5975D01*
X334036Y5959D01*
X334041Y5941D01*
X334043Y5921D01*
Y5913D01*
X334041Y5901D01*
X334038Y5890D01*
X334033Y5875D01*
X334026Y5859D01*
X334016Y5842D01*
X334003Y5828D01*
X333997Y5821D01*
X333988Y5816D01*
X333977Y5810D01*
X333964Y5801D01*
X333947Y5796D01*
X333929Y5792D01*
X333910Y5790D01*
X333902D01*
X333890Y5792D01*
X333878Y5795D01*
X333864Y5800D01*
X333847Y5806D01*
X333831Y5815D01*
X333816Y5828D01*
X333810Y5834D01*
X333805Y5842D01*
X333798Y5854D01*
X333790Y5867D01*
X333785Y5883D01*
X333780Y5901D01*
D02*
G37*
G36*
X334264Y4332D02*
X334262Y4357D01*
Y4371D01*
X334264Y4383D01*
X334266Y4396D01*
X334267Y4411D01*
X334271Y4429D01*
X334275Y4447D01*
X334289Y4488D01*
X334297Y4509D01*
X334307Y4532D01*
X334320Y4553D01*
X334334Y4576D01*
X334351Y4598D01*
X334369Y4617D01*
X334380Y4629D01*
X334390Y4637D01*
X334402Y4647D01*
X334418Y4660D01*
X334436Y4675D01*
X334457Y4693D01*
X334482Y4711D01*
X334510Y4732D01*
X334543Y4753D01*
X334577Y4778D01*
X334616Y4804D01*
X334659Y4831D01*
X334707Y4860D01*
X334758Y4890D01*
Y5022D01*
X334756Y5031D01*
Y5040D01*
X334753Y5054D01*
X334751Y5068D01*
X334741Y5099D01*
X334733Y5116D01*
X334725Y5131D01*
X334713Y5145D01*
X334700Y5159D01*
X334685Y5168D01*
X334666Y5178D01*
X334646Y5183D01*
X334622Y5185D01*
X334615D01*
X334607Y5183D01*
X334597Y5181D01*
X334584Y5178D01*
X334567Y5173D01*
X334549Y5167D01*
X334528Y5159D01*
X334505Y5147D01*
X334480Y5132D01*
X334453Y5114D01*
X334425Y5095D01*
X334394Y5070D01*
X334362Y5040D01*
X334328Y5008D01*
X334294Y4970D01*
Y5234D01*
X334295Y5236D01*
X334302Y5240D01*
X334312Y5250D01*
X334323Y5260D01*
X334339Y5273D01*
X334357Y5288D01*
X334379Y5303D01*
X334402Y5319D01*
X334454Y5349D01*
X334484Y5364D01*
X334513Y5377D01*
X334544Y5388D01*
X334576Y5396D01*
X334607Y5401D01*
X334640Y5403D01*
X334654D01*
X334664Y5401D01*
X334676Y5400D01*
X334690Y5398D01*
X334707Y5395D01*
X334725Y5391D01*
X334763Y5380D01*
X334784Y5372D01*
X334804Y5364D01*
X334825Y5352D01*
X334846Y5339D01*
X334866Y5324D01*
X334886Y5308D01*
X334895Y5298D01*
X334909Y5282D01*
X334918Y5268D01*
X334927Y5255D01*
X334936Y5240D01*
X334946Y5223D01*
X334954Y5203D01*
X334964Y5181D01*
X334971Y5159D01*
X334977Y5134D01*
X334982Y5108D01*
X334985Y5080D01*
X334987Y5050D01*
Y4302D01*
X334989Y4289D01*
X334995Y4263D01*
X335002Y4250D01*
X335010Y4242D01*
X335015Y4240D01*
X335022Y4239D01*
X335023D01*
X335027Y4240D01*
X335033Y4242D01*
X335041Y4247D01*
X335054Y4255D01*
X335071Y4265D01*
X335090Y4281D01*
X335114Y4302D01*
Y4129D01*
X335112Y4127D01*
X335108Y4125D01*
X335104Y4120D01*
X335095Y4114D01*
X335086Y4107D01*
X335076Y4099D01*
X335051Y4081D01*
X335022Y4063D01*
X334992Y4048D01*
X334977Y4042D01*
X334948Y4035D01*
X334935Y4033D01*
X334930D01*
X334923Y4035D01*
X334904Y4038D01*
X334892Y4042D01*
X334879Y4047D01*
X334866Y4055D01*
X334851Y4063D01*
X334836Y4073D01*
X334823Y4088D01*
X334808Y4102D01*
X334795Y4122D01*
X334784Y4143D01*
X334774Y4168D01*
X334766Y4197D01*
X334764Y4196D01*
X334761Y4191D01*
X334745Y4171D01*
X334733Y4158D01*
X334720Y4143D01*
X334703Y4129D01*
X334687Y4112D01*
X334649Y4081D01*
X334630Y4066D01*
X334607Y4053D01*
X334585Y4043D01*
X334562Y4035D01*
X334540Y4029D01*
X334517Y4027D01*
X334507D01*
X334500Y4029D01*
X334480Y4032D01*
X334456Y4040D01*
X334428Y4051D01*
X334398Y4068D01*
X334384Y4079D01*
X334367Y4092D01*
X334352Y4107D01*
X334338Y4125D01*
Y4127D01*
X334334Y4130D01*
X334331Y4135D01*
X334326Y4143D01*
X334320Y4152D01*
X334313Y4163D01*
X334307Y4176D01*
X334300Y4191D01*
X334287Y4225D01*
X334274Y4265D01*
X334266Y4309D01*
X334264Y4332D01*
D02*
G37*
%LPC*%
G36*
X334489Y4381D02*
X334490Y4368D01*
X334492Y4353D01*
X334502Y4321D01*
X334510Y4302D01*
X334520Y4286D01*
X334521Y4284D01*
X334525Y4279D01*
X334541Y4266D01*
X334553Y4258D01*
X334566Y4252D01*
X334582Y4247D01*
X334598Y4245D01*
X334602D01*
X334608Y4247D01*
X334620Y4248D01*
X334635Y4253D01*
X334653Y4261D01*
X334671Y4271D01*
X334690Y4288D01*
X334708Y4309D01*
X334710Y4312D01*
X334717Y4319D01*
X334725Y4330D01*
X334733Y4345D01*
X334743Y4358D01*
X334749Y4373D01*
X334756Y4384D01*
X334758Y4394D01*
Y4732D01*
X334754Y4730D01*
X334746Y4724D01*
X334733Y4716D01*
X334715Y4704D01*
X334695Y4688D01*
X334672Y4670D01*
X334648Y4650D01*
X334623Y4627D01*
X334598Y4603D01*
X334574Y4576D01*
X334551Y4548D01*
X334531Y4519D01*
X334513Y4488D01*
X334500Y4457D01*
X334492Y4424D01*
X334489Y4391D01*
Y4381D01*
D02*
G37*
%LPD*%
G36*
X335251Y4648D02*
X335250Y4703D01*
Y4716D01*
X335251Y4732D01*
Y4753D01*
X335253Y4780D01*
X335256Y4811D01*
X335261Y4844D01*
X335266Y4881D01*
X335273Y4921D01*
X335292Y5003D01*
X335305Y5045D01*
X335320Y5088D01*
X335338Y5129D01*
X335358Y5168D01*
X335381Y5206D01*
X335382Y5208D01*
X335387Y5214D01*
X335394Y5224D01*
X335405Y5237D01*
X335419Y5252D01*
X335433Y5268D01*
X335451Y5286D01*
X335473Y5305D01*
X335496Y5322D01*
X335520Y5341D01*
X335548Y5357D01*
X335578Y5372D01*
X335610Y5385D01*
X335643Y5395D01*
X335678Y5401D01*
X335715Y5403D01*
X335732D01*
X335742Y5401D01*
X335751D01*
X335778Y5396D01*
X335809Y5391D01*
X335845Y5383D01*
X335883Y5372D01*
X335924Y5355D01*
Y5119D01*
X335922D01*
X335919Y5122D01*
X335914Y5126D01*
X335906Y5129D01*
X335888Y5141D01*
X335863Y5152D01*
X335807Y5175D01*
X335778Y5181D01*
X335751Y5185D01*
X335740D01*
X335732Y5183D01*
X335722Y5181D01*
X335709Y5178D01*
X335683Y5168D01*
X335666Y5162D01*
X335651Y5154D01*
X335635Y5144D01*
X335619Y5131D01*
X335602Y5116D01*
X335587Y5099D01*
X335573Y5080D01*
X335558Y5057D01*
Y5055D01*
X335555Y5050D01*
X335546Y5034D01*
X335542Y5021D01*
X335535Y5004D01*
X335528Y4986D01*
X335522Y4965D01*
X335515Y4942D01*
X335509Y4916D01*
X335502Y4888D01*
X335497Y4857D01*
X335492Y4824D01*
X335489Y4788D01*
X335487Y4750D01*
X335486Y4711D01*
Y4690D01*
X335487Y4675D01*
Y4657D01*
X335491Y4637D01*
X335492Y4612D01*
X335496Y4588D01*
X335505Y4534D01*
X335519Y4476D01*
X335538Y4420D01*
X335551Y4394D01*
X335564Y4370D01*
X335566Y4368D01*
X335568Y4365D01*
X335573Y4358D01*
X335579Y4350D01*
X335596Y4330D01*
X335620Y4307D01*
X335650Y4284D01*
X335686Y4265D01*
X335707Y4256D01*
X335729Y4250D01*
X335750Y4247D01*
X335774Y4245D01*
X335778D01*
X335788Y4247D01*
X335804Y4248D01*
X335825Y4255D01*
X335850Y4263D01*
X335878Y4276D01*
X335911Y4294D01*
X335927Y4306D01*
X335943Y4319D01*
Y4097D01*
X335942D01*
X335938Y4094D01*
X335932Y4091D01*
X335924Y4086D01*
X335914Y4081D01*
X335902Y4075D01*
X335888Y4070D01*
X335873Y4063D01*
X335838Y4050D01*
X335801Y4038D01*
X335758Y4030D01*
X335715Y4027D01*
X335707D01*
X335696Y4029D01*
X335683Y4030D01*
X335665Y4033D01*
X335645Y4037D01*
X335624Y4043D01*
X335599Y4051D01*
X335573Y4061D01*
X335546Y4073D01*
X335519Y4089D01*
X335491Y4107D01*
X335463Y4129D01*
X335435Y4155D01*
X335409Y4184D01*
X335382Y4217D01*
X335381Y4219D01*
X335378Y4225D01*
X335371Y4237D01*
X335361Y4252D01*
X335351Y4271D01*
X335340Y4293D01*
X335328Y4321D01*
X335317Y4350D01*
X335304Y4383D01*
X335292Y4420D01*
X335281Y4460D01*
X335271Y4502D01*
X335263Y4548D01*
X335256Y4598D01*
X335251Y4648D01*
D02*
G37*
G36*
X336114Y4063D02*
Y6028D01*
X336344D01*
Y4063D01*
X336114D01*
D02*
G37*
G36*
X336722D02*
X336366Y4734D01*
X336694Y5367D01*
X336935D01*
X336586Y4749D01*
X336978Y4063D01*
X336722D01*
D02*
G37*
G36*
X338097Y5901D02*
X338095Y5921D01*
Y5931D01*
X338097Y5941D01*
X338100Y5954D01*
X338105Y5969D01*
X338111Y5983D01*
X338120Y6000D01*
X338133Y6015D01*
X338139Y6021D01*
X338147Y6028D01*
X338159Y6034D01*
X338172Y6041D01*
X338189Y6047D01*
X338207Y6052D01*
X338226Y6054D01*
X338236D01*
X338246Y6052D01*
X338259Y6049D01*
X338272Y6044D01*
X338288Y6038D01*
X338305Y6028D01*
X338320Y6015D01*
X338326Y6008D01*
X338333Y6000D01*
X338339Y5988D01*
X338346Y5975D01*
X338352Y5959D01*
X338357Y5941D01*
X338359Y5921D01*
Y5913D01*
X338357Y5901D01*
X338354Y5890D01*
X338349Y5875D01*
X338343Y5859D01*
X338333Y5842D01*
X338320Y5828D01*
X338313Y5821D01*
X338305Y5816D01*
X338293Y5810D01*
X338280Y5801D01*
X338264Y5796D01*
X338246Y5792D01*
X338226Y5790D01*
X338218D01*
X338207Y5792D01*
X338195Y5795D01*
X338180Y5800D01*
X338164Y5806D01*
X338147Y5815D01*
X338133Y5828D01*
X338126Y5834D01*
X338121Y5842D01*
X338115Y5854D01*
X338106Y5867D01*
X338102Y5883D01*
X338097Y5901D01*
D02*
G37*
G36*
X338111Y4063D02*
Y5367D01*
X338341D01*
Y4063D01*
X338111D01*
D02*
G37*
G36*
X338592Y4114D02*
X338567Y4132D01*
Y4386D01*
X338600Y4353D01*
X338613Y4342D01*
X338644Y4316D01*
X338679Y4289D01*
X338697Y4278D01*
X338717Y4266D01*
X338736Y4258D01*
X338756Y4252D01*
X338776Y4247D01*
X338794Y4245D01*
X338802D01*
X338812Y4247D01*
X338823Y4248D01*
X338835Y4253D01*
X338849Y4258D01*
X338862Y4266D01*
X338876Y4276D01*
X338880Y4281D01*
X338894Y4298D01*
X338899Y4309D01*
X338905Y4324D01*
X338908Y4338D01*
X338910Y4357D01*
Y4366D01*
X338908Y4373D01*
X338907Y4383D01*
X338903Y4396D01*
X338899Y4409D01*
X338894Y4425D01*
X338887Y4445D01*
X338879Y4465D01*
X338867Y4489D01*
X338854Y4514D01*
X338840Y4542D01*
X338822Y4573D01*
X338802Y4606D01*
X338779Y4640D01*
X338777Y4642D01*
X338774Y4648D01*
X338767Y4658D01*
X338757Y4671D01*
X338748Y4688D01*
X338736Y4706D01*
X338710Y4749D01*
X338682Y4794D01*
X338656Y4842D01*
X338633Y4886D01*
X338623Y4908D01*
X338616Y4926D01*
Y4927D01*
X338615Y4931D01*
X338613Y4936D01*
X338612Y4942D01*
X338607Y4960D01*
X338600Y4981D01*
X338594Y5008D01*
X338589Y5037D01*
X338585Y5067D01*
X338584Y5096D01*
Y5109D01*
X338585Y5117D01*
Y5129D01*
X338589Y5142D01*
X338594Y5173D01*
X338603Y5208D01*
X338616Y5244D01*
X338636Y5280D01*
X338649Y5298D01*
X338662Y5314D01*
X338671Y5322D01*
X338677Y5327D01*
X338685Y5336D01*
X338694Y5342D01*
X338718Y5359D01*
X338748Y5375D01*
X338782Y5390D01*
X338822Y5400D01*
X338841Y5401D01*
X338864Y5403D01*
X338876D01*
X338884Y5401D01*
X338894Y5400D01*
X338905Y5398D01*
X338933Y5393D01*
X338967Y5383D01*
X339003Y5368D01*
X339023Y5359D01*
X339043Y5347D01*
X339064Y5334D01*
X339084Y5319D01*
Y5103D01*
X339082Y5104D01*
X339079Y5106D01*
X339072Y5111D01*
X339064Y5117D01*
X339054Y5124D01*
X339044Y5132D01*
X339017Y5149D01*
X338985Y5165D01*
X338953Y5180D01*
X338920Y5191D01*
X338887Y5195D01*
X338884D01*
X338872Y5193D01*
X338858Y5190D01*
X338841Y5183D01*
X338817Y5163D01*
X338810Y5154D01*
X338804Y5142D01*
X338798Y5129D01*
X338797Y5114D01*
X338795Y5096D01*
Y5093D01*
X338797Y5088D01*
Y5080D01*
X338800Y5072D01*
X338802Y5060D01*
X338807Y5047D01*
X338812Y5032D01*
X338818Y5014D01*
X338828Y4995D01*
X338838Y4972D01*
X338851Y4947D01*
X338866Y4921D01*
X338884Y4891D01*
X338905Y4860D01*
X338928Y4826D01*
X338930Y4824D01*
X338935Y4817D01*
X338941Y4808D01*
X338949Y4794D01*
X338961Y4780D01*
X338972Y4762D01*
X338985Y4742D01*
X339000Y4721D01*
X339028Y4675D01*
X339058Y4627D01*
X339090Y4562D01*
X339099Y4542D01*
Y4540D01*
X339100Y4537D01*
X339102Y4532D01*
X339105Y4526D01*
X339110Y4507D01*
X339118Y4483D01*
X339125Y4455D01*
X339130Y4425D01*
X339135Y4394D01*
X339136Y4363D01*
Y4348D01*
X339135Y4338D01*
X339133Y4327D01*
X339131Y4312D01*
X339128Y4296D01*
X339125Y4278D01*
X339115Y4240D01*
X339099Y4199D01*
X339089Y4179D01*
X339063Y4140D01*
X339046Y4122D01*
X339038Y4114D01*
X339022Y4101D01*
X339012Y4092D01*
X338999Y4083D01*
X338985Y4075D01*
X338953Y4056D01*
X338915Y4042D01*
X338894Y4035D01*
X338848Y4029D01*
X338823Y4027D01*
X338810D01*
X338802Y4029D01*
X338790Y4030D01*
X338777Y4032D01*
X338761Y4035D01*
X338744Y4040D01*
X338705Y4053D01*
X338684Y4061D01*
X338662Y4071D01*
X338639Y4083D01*
X338615Y4097D01*
X338592Y4114D01*
D02*
G37*
G36*
X340330Y4063D02*
Y6028D01*
X340560D01*
Y4063D01*
X340330D01*
D02*
G37*
G36*
X340793Y4655D02*
X340791Y4714D01*
Y4745D01*
X340793Y4767D01*
X340794Y4794D01*
X340798Y4826D01*
X340801Y4860D01*
X340804Y4898D01*
X340811Y4937D01*
X340817Y4978D01*
X340826Y5019D01*
X340837Y5062D01*
X340848Y5103D01*
X340863Y5144D01*
X340880Y5181D01*
X340899Y5218D01*
X340901Y5219D01*
X340904Y5226D01*
X340911Y5234D01*
X340919Y5247D01*
X340931Y5260D01*
X340944Y5277D01*
X340978Y5311D01*
X340998Y5327D01*
X341021Y5344D01*
X341045Y5360D01*
X341072Y5373D01*
X341101Y5387D01*
X341131Y5395D01*
X341163Y5401D01*
X341198Y5403D01*
X341206D01*
X341216Y5401D01*
X341229Y5400D01*
X341245Y5398D01*
X341264Y5393D01*
X341283Y5388D01*
X341306Y5380D01*
X341329Y5370D01*
X341354Y5357D01*
X341378Y5342D01*
X341403Y5324D01*
X341427Y5303D01*
X341452Y5278D01*
X341475Y5250D01*
X341496Y5218D01*
X341498Y5216D01*
X341501Y5209D01*
X341506Y5198D01*
X341514Y5183D01*
X341523Y5165D01*
X341532Y5142D01*
X341542Y5116D01*
X341552Y5086D01*
X341562Y5052D01*
X341573Y5014D01*
X341582Y4973D01*
X341590Y4927D01*
X341598Y4880D01*
X341603Y4827D01*
X341606Y4773D01*
X341608Y4714D01*
Y4683D01*
X341606Y4662D01*
X341605Y4634D01*
X341601Y4603D01*
X341598Y4568D01*
X341595Y4530D01*
X341588Y4491D01*
X341580Y4450D01*
X341572Y4407D01*
X341560Y4365D01*
X341549Y4324D01*
X341532Y4283D01*
X341516Y4245D01*
X341496Y4209D01*
X341495Y4207D01*
X341491Y4201D01*
X341485Y4193D01*
X341477Y4181D01*
X341465Y4166D01*
X341452Y4152D01*
X341436Y4135D01*
X341418Y4119D01*
X341398Y4101D01*
X341375Y4084D01*
X341350Y4070D01*
X341324Y4055D01*
X341296Y4043D01*
X341265Y4035D01*
X341232Y4029D01*
X341198Y4027D01*
X341190D01*
X341180Y4029D01*
X341167Y4030D01*
X341150Y4032D01*
X341132Y4037D01*
X341113Y4042D01*
X341090Y4050D01*
X341067Y4060D01*
X341042Y4071D01*
X341018Y4086D01*
X340993Y4104D01*
X340968Y4125D01*
X340944Y4148D01*
X340921Y4176D01*
X340899Y4209D01*
X340898Y4211D01*
X340895Y4217D01*
X340890Y4229D01*
X340883Y4243D01*
X340875Y4261D01*
X340865Y4284D01*
X340855Y4311D01*
X340845Y4342D01*
X340835Y4375D01*
X340826Y4412D01*
X340816Y4455D01*
X340808Y4499D01*
X340801Y4548D01*
X340796Y4601D01*
X340793Y4655D01*
D02*
G37*
%LPC*%
G36*
X341027Y4683D02*
X341029Y4671D01*
Y4657D01*
X341031Y4640D01*
X341032Y4606D01*
X341037Y4566D01*
X341042Y4524D01*
X341049Y4480D01*
X341058Y4435D01*
X341070Y4394D01*
X341083Y4353D01*
X341101Y4319D01*
X341111Y4302D01*
X341121Y4288D01*
X341144Y4265D01*
X341157Y4256D01*
X341170Y4250D01*
X341185Y4247D01*
X341201Y4245D01*
X341203D01*
X341209Y4247D01*
X341217Y4248D01*
X341241Y4260D01*
X341255Y4270D01*
X341270Y4284D01*
X341286Y4304D01*
X341303Y4329D01*
X341309Y4343D01*
X341318Y4360D01*
X341326Y4378D01*
X341332Y4398D01*
X341339Y4419D01*
X341346Y4443D01*
X341350Y4468D01*
X341355Y4496D01*
X341360Y4527D01*
X341365Y4560D01*
X341367Y4594D01*
X341370Y4632D01*
X341372Y4671D01*
Y4745D01*
X341370Y4758D01*
Y4772D01*
X341368Y4788D01*
X341367Y4824D01*
X341362Y4863D01*
X341357Y4906D01*
X341350Y4950D01*
X341340Y4993D01*
X341329Y5035D01*
X341314Y5075D01*
X341298Y5111D01*
X341288Y5127D01*
X341278Y5142D01*
X341267Y5154D01*
X341254Y5165D01*
X341241Y5173D01*
X341227Y5180D01*
X341213Y5183D01*
X341196Y5185D01*
X341195D01*
X341190Y5183D01*
X341181Y5181D01*
X341170Y5178D01*
X341157Y5170D01*
X341142Y5160D01*
X341127Y5145D01*
X341113Y5126D01*
X341096Y5101D01*
X341088Y5086D01*
X341081Y5070D01*
X341073Y5052D01*
X341067Y5032D01*
X341054Y4986D01*
X341049Y4960D01*
X341044Y4932D01*
X341039Y4903D01*
X341034Y4870D01*
X341032Y4834D01*
X341029Y4798D01*
X341027Y4757D01*
Y4683D01*
D02*
G37*
%LPD*%
G36*
X342077Y4033D02*
X341724Y5367D01*
X341955D01*
X342121Y4665D01*
X342126D01*
X342321Y5367D01*
X342408D01*
X342605Y4665D01*
X342610D01*
X342774Y5367D01*
X343007D01*
X342653Y4033D01*
X342589D01*
X342369Y4816D01*
X342362D01*
X342141Y4033D01*
X342077D01*
D02*
G37*
G36*
X343110Y4598D02*
Y4845D01*
X343643D01*
Y4598D01*
X343110D01*
D02*
G37*
G36*
X343876Y3361D02*
Y5367D01*
X344106D01*
Y5272D01*
X344110D01*
X344112Y5273D01*
X344114Y5277D01*
X344124Y5290D01*
X344140Y5308D01*
X344163Y5331D01*
X344193Y5352D01*
X344225Y5370D01*
X344243Y5377D01*
X344265Y5383D01*
X344284Y5387D01*
X344307Y5388D01*
X344314D01*
X344322Y5387D01*
X344334Y5385D01*
X344347Y5382D01*
X344363Y5378D01*
X344381Y5372D01*
X344399Y5364D01*
X344421Y5352D01*
X344442Y5339D01*
X344463Y5324D01*
X344486Y5305D01*
X344509Y5282D01*
X344530Y5255D01*
X344552Y5224D01*
X344573Y5190D01*
X344575Y5188D01*
X344578Y5181D01*
X344583Y5170D01*
X344591Y5154D01*
X344599Y5136D01*
X344607Y5111D01*
X344617Y5085D01*
X344629Y5054D01*
X344639Y5019D01*
X344648Y4983D01*
X344657Y4942D01*
X344667Y4898D01*
X344673Y4850D01*
X344678Y4801D01*
X344681Y4749D01*
X344683Y4694D01*
Y4667D01*
X344681Y4645D01*
X344680Y4621D01*
X344678Y4591D01*
X344675Y4558D01*
X344670Y4524D01*
X344663Y4486D01*
X344657Y4447D01*
X344648Y4407D01*
X344639Y4366D01*
X344625Y4325D01*
X344611Y4286D01*
X344594Y4248D01*
X344576Y4212D01*
X344575Y4211D01*
X344571Y4204D01*
X344565Y4196D01*
X344557Y4183D01*
X344547Y4170D01*
X344535Y4153D01*
X344520Y4137D01*
X344504Y4120D01*
X344484Y4102D01*
X344465Y4086D01*
X344442Y4070D01*
X344419Y4056D01*
X344393Y4043D01*
X344366Y4035D01*
X344337Y4029D01*
X344307Y4027D01*
X344296D01*
X344289Y4029D01*
X344279Y4030D01*
X344268Y4033D01*
X344242Y4042D01*
X344225Y4047D01*
X344211Y4055D01*
X344194Y4065D01*
X344178Y4076D01*
X344160Y4089D01*
X344143Y4104D01*
X344127Y4122D01*
X344110Y4142D01*
X344106D01*
Y3361D01*
X343876D01*
D02*
G37*
%LPC*%
G36*
X344106Y4361D02*
X344107Y4360D01*
X344109Y4357D01*
X344119Y4343D01*
X344135Y4325D01*
X344155Y4304D01*
X344179Y4281D01*
X344206Y4263D01*
X344235Y4250D01*
X344250Y4247D01*
X344265Y4245D01*
X344266D01*
X344273Y4247D01*
X344281Y4248D01*
X344292Y4252D01*
X344307Y4258D01*
X344322Y4270D01*
X344338Y4283D01*
X344356Y4302D01*
X344373Y4325D01*
X344389Y4355D01*
X344397Y4373D01*
X344404Y4393D01*
X344412Y4414D01*
X344419Y4435D01*
X344424Y4462D01*
X344430Y4488D01*
X344435Y4517D01*
X344439Y4548D01*
X344442Y4581D01*
X344445Y4617D01*
X344447Y4657D01*
Y4729D01*
X344445Y4742D01*
Y4755D01*
X344443Y4772D01*
X344440Y4808D01*
X344435Y4847D01*
X344430Y4890D01*
X344411Y4978D01*
X344397Y5021D01*
X344379Y5060D01*
X344360Y5096D01*
X344348Y5113D01*
X344337Y5126D01*
X344324Y5139D01*
X344309Y5150D01*
X344294Y5159D01*
X344278Y5165D01*
X344260Y5168D01*
X344242Y5170D01*
X344232D01*
X344222Y5167D01*
X344209Y5163D01*
X344193Y5157D01*
X344176Y5149D01*
X344160Y5136D01*
X344145Y5119D01*
X344143Y5117D01*
X344138Y5111D01*
X344132Y5103D01*
X344125Y5093D01*
X344119Y5081D01*
X344112Y5072D01*
X344107Y5062D01*
X344106Y5054D01*
Y4361D01*
D02*
G37*
%LPD*%
G36*
X344922Y4063D02*
Y5367D01*
X345152D01*
Y5014D01*
X345157D01*
X345159Y5017D01*
X345160Y5024D01*
X345163Y5035D01*
X345168Y5052D01*
X345175Y5070D01*
X345181Y5091D01*
X345188Y5114D01*
X345196Y5139D01*
X345214Y5191D01*
X345234Y5240D01*
X345244Y5263D01*
X345252Y5285D01*
X345262Y5303D01*
X345270Y5318D01*
Y5319D01*
X345272Y5321D01*
X345278Y5329D01*
X345303Y5354D01*
X345322Y5365D01*
X345344Y5377D01*
X345370Y5385D01*
X345385Y5388D01*
X345411D01*
X345423Y5387D01*
X345437Y5383D01*
X345455Y5378D01*
X345475Y5372D01*
X345496Y5362D01*
X345518Y5349D01*
X345500Y5114D01*
X345498Y5116D01*
X345481Y5124D01*
X345470Y5131D01*
X345454Y5137D01*
X345437Y5142D01*
X345419Y5145D01*
X345399Y5147D01*
X345395D01*
X345390Y5145D01*
X345381Y5144D01*
X345362Y5137D01*
X345350Y5131D01*
X345337Y5122D01*
X345322Y5113D01*
X345308Y5099D01*
X345293Y5083D01*
X345278Y5065D01*
X345263Y5042D01*
X345249Y5016D01*
X345234Y4986D01*
X345221Y4952D01*
Y4950D01*
X345217Y4944D01*
X345214Y4932D01*
X345209Y4919D01*
X345204Y4901D01*
X345199Y4881D01*
X345193Y4858D01*
X345180Y4806D01*
X345173Y4776D01*
X345163Y4712D01*
X345155Y4647D01*
X345152Y4580D01*
Y4063D01*
X344922D01*
D02*
G37*
G36*
X345609Y4655D02*
X345608Y4714D01*
Y4745D01*
X345609Y4767D01*
X345611Y4794D01*
X345614Y4826D01*
X345618Y4860D01*
X345621Y4898D01*
X345627Y4937D01*
X345634Y4978D01*
X345642Y5019D01*
X345654Y5062D01*
X345665Y5103D01*
X345680Y5144D01*
X345696Y5181D01*
X345716Y5218D01*
X345718Y5219D01*
X345721Y5226D01*
X345727Y5234D01*
X345736Y5247D01*
X345747Y5260D01*
X345760Y5277D01*
X345795Y5311D01*
X345814Y5327D01*
X345837Y5344D01*
X345862Y5360D01*
X345888Y5373D01*
X345918Y5387D01*
X345947Y5395D01*
X345980Y5401D01*
X346014Y5403D01*
X346023D01*
X346033Y5401D01*
X346046Y5400D01*
X346062Y5398D01*
X346080Y5393D01*
X346100Y5388D01*
X346123Y5380D01*
X346146Y5370D01*
X346170Y5357D01*
X346195Y5342D01*
X346219Y5324D01*
X346244Y5303D01*
X346269Y5278D01*
X346292Y5250D01*
X346313Y5218D01*
X346315Y5216D01*
X346318Y5209D01*
X346323Y5198D01*
X346331Y5183D01*
X346339Y5165D01*
X346349Y5142D01*
X346359Y5116D01*
X346369Y5086D01*
X346379Y5052D01*
X346390Y5014D01*
X346398Y4973D01*
X346407Y4927D01*
X346415Y4880D01*
X346420Y4827D01*
X346423Y4773D01*
X346425Y4714D01*
Y4683D01*
X346423Y4662D01*
X346421Y4634D01*
X346418Y4603D01*
X346415Y4568D01*
X346411Y4530D01*
X346405Y4491D01*
X346397Y4450D01*
X346389Y4407D01*
X346377Y4365D01*
X346365Y4324D01*
X346349Y4283D01*
X346333Y4245D01*
X346313Y4209D01*
X346311Y4207D01*
X346308Y4201D01*
X346302Y4193D01*
X346293Y4181D01*
X346282Y4166D01*
X346269Y4152D01*
X346252Y4135D01*
X346234Y4119D01*
X346215Y4101D01*
X346192Y4084D01*
X346167Y4070D01*
X346141Y4055D01*
X346113Y4043D01*
X346082Y4035D01*
X346049Y4029D01*
X346014Y4027D01*
X346006D01*
X345996Y4029D01*
X345983Y4030D01*
X345967Y4032D01*
X345949Y4037D01*
X345929Y4042D01*
X345906Y4050D01*
X345883Y4060D01*
X345859Y4071D01*
X345834Y4086D01*
X345810Y4104D01*
X345785Y4125D01*
X345760Y4148D01*
X345737Y4176D01*
X345716Y4209D01*
X345714Y4211D01*
X345711Y4217D01*
X345706Y4229D01*
X345700Y4243D01*
X345691Y4261D01*
X345682Y4284D01*
X345672Y4311D01*
X345662Y4342D01*
X345652Y4375D01*
X345642Y4412D01*
X345632Y4455D01*
X345624Y4499D01*
X345618Y4548D01*
X345613Y4601D01*
X345609Y4655D01*
D02*
G37*
%LPC*%
G36*
X345844Y4683D02*
X345846Y4671D01*
Y4657D01*
X345847Y4640D01*
X345849Y4606D01*
X345854Y4566D01*
X345859Y4524D01*
X345865Y4480D01*
X345875Y4435D01*
X345887Y4394D01*
X345900Y4353D01*
X345918Y4319D01*
X345928Y4302D01*
X345937Y4288D01*
X345960Y4265D01*
X345973Y4256D01*
X345987Y4250D01*
X346001Y4247D01*
X346018Y4245D01*
X346020D01*
X346026Y4247D01*
X346034Y4248D01*
X346057Y4260D01*
X346072Y4270D01*
X346087Y4284D01*
X346103Y4304D01*
X346119Y4329D01*
X346126Y4343D01*
X346134Y4360D01*
X346143Y4378D01*
X346149Y4398D01*
X346156Y4419D01*
X346162Y4443D01*
X346167Y4468D01*
X346172Y4496D01*
X346177Y4527D01*
X346182Y4560D01*
X346183Y4594D01*
X346187Y4632D01*
X346188Y4671D01*
Y4745D01*
X346187Y4758D01*
Y4772D01*
X346185Y4788D01*
X346183Y4824D01*
X346179Y4863D01*
X346174Y4906D01*
X346167Y4950D01*
X346157Y4993D01*
X346146Y5035D01*
X346131Y5075D01*
X346115Y5111D01*
X346105Y5127D01*
X346095Y5142D01*
X346083Y5154D01*
X346070Y5165D01*
X346057Y5173D01*
X346044Y5180D01*
X346029Y5183D01*
X346013Y5185D01*
X346011D01*
X346006Y5183D01*
X345998Y5181D01*
X345987Y5178D01*
X345973Y5170D01*
X345959Y5160D01*
X345944Y5145D01*
X345929Y5126D01*
X345913Y5101D01*
X345905Y5086D01*
X345898Y5070D01*
X345890Y5052D01*
X345883Y5032D01*
X345870Y4986D01*
X345865Y4960D01*
X345860Y4932D01*
X345855Y4903D01*
X345850Y4870D01*
X345849Y4834D01*
X345846Y4798D01*
X345844Y4757D01*
Y4683D01*
D02*
G37*
%LPD*%
G36*
X346585Y5165D02*
Y5367D01*
X346690D01*
Y5583D01*
X346692Y5593D01*
Y5603D01*
X346693Y5616D01*
X346695Y5631D01*
X346697Y5647D01*
X346705Y5683D01*
X346715Y5724D01*
X346728Y5769D01*
X346748Y5813D01*
X346772Y5857D01*
X346785Y5880D01*
X346802Y5901D01*
X346820Y5923D01*
X346839Y5942D01*
X346861Y5960D01*
X346884Y5979D01*
X346908Y5995D01*
X346936Y6010D01*
X346966Y6023D01*
X346997Y6033D01*
X347031Y6042D01*
X347067Y6049D01*
X347107Y6052D01*
X347148Y6054D01*
Y5862D01*
X347136D01*
X347128Y5860D01*
X347118D01*
X347107Y5859D01*
X347080Y5854D01*
X347053Y5844D01*
X347025Y5831D01*
X346997Y5815D01*
X346985Y5803D01*
X346974Y5790D01*
X346972Y5787D01*
X346966Y5777D01*
X346961Y5769D01*
X346957Y5759D01*
X346953Y5747D01*
X346948Y5734D01*
X346941Y5719D01*
X346936Y5701D01*
X346933Y5683D01*
X346928Y5662D01*
X346925Y5639D01*
X346921Y5614D01*
X346920Y5588D01*
Y5367D01*
X347048D01*
Y5165D01*
X346920D01*
Y4063D01*
X346690D01*
Y5165D01*
X346585D01*
D02*
G37*
G36*
X347207Y5901D02*
X347205Y5921D01*
Y5931D01*
X347207Y5941D01*
X347210Y5954D01*
X347215Y5969D01*
X347222Y5983D01*
X347230Y6000D01*
X347243Y6015D01*
X347250Y6021D01*
X347258Y6028D01*
X347269Y6034D01*
X347282Y6041D01*
X347299Y6047D01*
X347317Y6052D01*
X347336Y6054D01*
X347346D01*
X347356Y6052D01*
X347369Y6049D01*
X347382Y6044D01*
X347399Y6038D01*
X347415Y6028D01*
X347430Y6015D01*
X347436Y6008D01*
X347443Y6000D01*
X347449Y5988D01*
X347456Y5975D01*
X347463Y5959D01*
X347468Y5941D01*
X347469Y5921D01*
Y5913D01*
X347468Y5901D01*
X347464Y5890D01*
X347459Y5875D01*
X347453Y5859D01*
X347443Y5842D01*
X347430Y5828D01*
X347423Y5821D01*
X347415Y5816D01*
X347404Y5810D01*
X347391Y5801D01*
X347374Y5796D01*
X347356Y5792D01*
X347336Y5790D01*
X347328D01*
X347317Y5792D01*
X347305Y5795D01*
X347290Y5800D01*
X347274Y5806D01*
X347258Y5815D01*
X347243Y5828D01*
X347236Y5834D01*
X347231Y5842D01*
X347225Y5854D01*
X347217Y5867D01*
X347212Y5883D01*
X347207Y5901D01*
D02*
G37*
G36*
X347222Y4063D02*
Y5367D01*
X347451D01*
Y4063D01*
X347222D01*
D02*
G37*
G36*
X347725D02*
Y6028D01*
X347955D01*
Y4063D01*
X347725D01*
D02*
G37*
G36*
X348189Y4655D02*
X348187Y4716D01*
Y4747D01*
X348189Y4770D01*
X348191Y4796D01*
X348193Y4827D01*
X348196Y4863D01*
X348199Y4901D01*
X348204Y4940D01*
X348211Y4981D01*
X348219Y5024D01*
X348229Y5067D01*
X348238Y5108D01*
X348252Y5147D01*
X348266Y5185D01*
X348283Y5221D01*
X348284Y5223D01*
X348288Y5229D01*
X348292Y5237D01*
X348301Y5249D01*
X348310Y5263D01*
X348322Y5278D01*
X348335Y5295D01*
X348352Y5313D01*
X348370Y5329D01*
X348389Y5345D01*
X348411Y5360D01*
X348435Y5375D01*
X348460Y5387D01*
X348488Y5395D01*
X348517Y5401D01*
X348548Y5403D01*
X348556D01*
X348563Y5401D01*
X348581Y5398D01*
X348604Y5391D01*
X348630Y5380D01*
X348661Y5364D01*
X348676Y5354D01*
X348709Y5327D01*
X348727Y5311D01*
X348760Y5272D01*
X348775Y5249D01*
X348791Y5223D01*
X348806Y5195D01*
X348835Y5129D01*
X348847Y5091D01*
X348858Y5050D01*
X348870Y5006D01*
X348878Y4958D01*
X348886Y4908D01*
X348893Y4852D01*
X348896Y4793D01*
X348899Y4730D01*
Y4663D01*
X348417D01*
Y4645D01*
X348419Y4635D01*
Y4624D01*
X348420Y4598D01*
X348424Y4565D01*
X348429Y4529D01*
X348437Y4491D01*
X348447Y4452D01*
X348458Y4412D01*
X348473Y4375D01*
X348493Y4338D01*
X348516Y4306D01*
X348542Y4279D01*
X348556Y4268D01*
X348571Y4258D01*
X348589Y4250D01*
X348607Y4245D01*
X348627Y4242D01*
X348648Y4240D01*
X348653D01*
X348661Y4242D01*
X348670D01*
X348681Y4243D01*
X348694Y4247D01*
X348724Y4256D01*
X348740Y4263D01*
X348758Y4271D01*
X348778Y4281D01*
X348796Y4294D01*
X348816Y4309D01*
X348835Y4325D01*
X348855Y4345D01*
X348873Y4368D01*
Y4140D01*
X348868Y4135D01*
X348862Y4130D01*
X348852Y4122D01*
X348840Y4114D01*
X348827Y4104D01*
X348811Y4094D01*
X348793Y4084D01*
X348775Y4073D01*
X348753Y4063D01*
X348707Y4045D01*
X348683Y4037D01*
X348658Y4032D01*
X348632Y4029D01*
X348604Y4027D01*
X348596D01*
X348584Y4029D01*
X348571Y4030D01*
X348555Y4032D01*
X348535Y4037D01*
X348514Y4042D01*
X348491Y4050D01*
X348466Y4058D01*
X348442Y4070D01*
X348415Y4084D01*
X348391Y4102D01*
X348365Y4122D01*
X348340Y4145D01*
X348317Y4173D01*
X348296Y4204D01*
X348294Y4206D01*
X348286Y4222D01*
X348279Y4237D01*
X348271Y4256D01*
X348261Y4278D01*
X348252Y4304D01*
X348242Y4335D01*
X348232Y4370D01*
X348222Y4407D01*
X348212Y4450D01*
X348204Y4496D01*
X348197Y4545D01*
X348193Y4598D01*
X348189Y4655D01*
D02*
G37*
%LPC*%
G36*
X348414Y4835D02*
X348670D01*
Y4852D01*
X348668Y4870D01*
Y4893D01*
X348666Y4921D01*
X348663Y4952D01*
X348658Y4985D01*
X348653Y5019D01*
X348647Y5052D01*
X348637Y5085D01*
X348627Y5116D01*
X348614Y5144D01*
X348599Y5167D01*
X348581Y5185D01*
X348571Y5193D01*
X348560Y5198D01*
X348537Y5201D01*
X348532D01*
X348525Y5200D01*
X348517Y5196D01*
X348509Y5190D01*
X348498Y5181D01*
X348488Y5170D01*
X348476Y5155D01*
X348465Y5136D01*
X348453Y5113D01*
X348442Y5083D01*
X348433Y5047D01*
X348429Y5027D01*
X348422Y4981D01*
X348419Y4957D01*
X348417Y4929D01*
X348415Y4899D01*
X348414Y4868D01*
Y4835D01*
D02*
G37*
%LPD*%
G36*
X349075Y4171D02*
X349073Y4194D01*
Y4206D01*
X349076Y4219D01*
X349080Y4237D01*
X349085Y4255D01*
X349093Y4275D01*
X349104Y4296D01*
X349119Y4314D01*
X349127Y4322D01*
X349137Y4330D01*
X349150Y4338D01*
X349167Y4348D01*
X349186Y4355D01*
X349208Y4361D01*
X349232Y4363D01*
X349236D01*
X349247Y4361D01*
X349262Y4360D01*
X349281Y4353D01*
X349303Y4345D01*
X349326Y4332D01*
X349347Y4314D01*
X349359Y4302D01*
X349368Y4289D01*
X349370Y4286D01*
X349377Y4276D01*
X349385Y4260D01*
X349395Y4239D01*
X349404Y4212D01*
X349413Y4179D01*
X349419Y4142D01*
X349421Y4101D01*
Y4088D01*
X349419Y4073D01*
X349416Y4053D01*
X349411Y4030D01*
X349404Y4002D01*
X349395Y3971D01*
X349383Y3940D01*
X349367Y3906D01*
X349347Y3871D01*
X349322Y3835D01*
X349293Y3801D01*
X349257Y3768D01*
X349216Y3737D01*
X349195Y3722D01*
X349170Y3707D01*
X349144Y3694D01*
X349116Y3681D01*
X349114Y3707D01*
X349116Y3709D01*
X349119Y3714D01*
X349122Y3722D01*
X349129Y3733D01*
X349144Y3763D01*
X349152Y3783D01*
X349160Y3804D01*
X349168Y3827D01*
X349177Y3853D01*
X349183Y3879D01*
X349190Y3909D01*
X349195Y3940D01*
X349198Y4006D01*
X349196Y4040D01*
X349195D01*
X349191Y4042D01*
X349185Y4043D01*
X349177Y4047D01*
X349157Y4056D01*
X349135Y4071D01*
X349124Y4079D01*
X349113Y4091D01*
X349101Y4104D01*
X349093Y4117D01*
X349085Y4134D01*
X349078Y4152D01*
X349075Y4171D01*
D02*
G37*
G36*
X350368Y316506D02*
X350366Y316547D01*
Y318028D01*
X350619D01*
Y316540D01*
X350620Y316526D01*
X350622Y316507D01*
X350624Y316488D01*
X350634Y316439D01*
X350642Y316412D01*
X350652Y316386D01*
X350665Y316361D01*
X350679Y316337D01*
X350697Y316317D01*
X350719Y316299D01*
X350743Y316284D01*
X350771Y316276D01*
X350804Y316273D01*
X350807D01*
X350817Y316275D01*
X350834Y316276D01*
X350852Y316281D01*
X350873Y316289D01*
X350896Y316302D01*
X350917Y316319D01*
X350939Y316342D01*
Y316343D01*
X350940Y316345D01*
X350947Y316355D01*
X350955Y316371D01*
X350965Y316393D01*
X350975Y316421D01*
X350983Y316455D01*
X350989Y316494D01*
X350991Y316540D01*
Y318028D01*
X351243D01*
Y316544D01*
X351242Y316526D01*
X351240Y316504D01*
X351237Y316480D01*
X351232Y316452D01*
X351227Y316422D01*
X351221Y316391D01*
X351212Y316358D01*
X351201Y316325D01*
X351188Y316293D01*
X351173Y316260D01*
X351155Y316229D01*
X351135Y316199D01*
X351112Y316173D01*
X351099Y316160D01*
X351089Y316152D01*
X351076Y316142D01*
X351062Y316130D01*
X351044Y316117D01*
X351025Y316106D01*
X350979Y316079D01*
X350953Y316068D01*
X350927Y316058D01*
X350898Y316050D01*
X350868Y316043D01*
X350837Y316038D01*
X350804Y316037D01*
X350796D01*
X350786Y316038D01*
X350773D01*
X350757Y316042D01*
X350738Y316045D01*
X350717Y316048D01*
X350694Y316055D01*
X350670Y316061D01*
X350645Y316071D01*
X350619Y316083D01*
X350592Y316096D01*
X350566Y316112D01*
X350540Y316132D01*
X350515Y316153D01*
X350489Y316179D01*
X350486Y316184D01*
X350479Y316193D01*
X350471Y316204D01*
X350461Y316217D01*
X350451Y316235D01*
X350440Y316255D01*
X350429Y316278D01*
X350417Y316302D01*
X350406Y316330D01*
X350396Y316361D01*
X350386Y316394D01*
X350378Y316429D01*
X350371Y316466D01*
X350368Y316506D01*
D02*
G37*
G36*
X350639Y5901D02*
X350638Y5921D01*
Y5931D01*
X350639Y5941D01*
X350643Y5954D01*
X350647Y5969D01*
X350654Y5983D01*
X350662Y6000D01*
X350675Y6015D01*
X350682Y6021D01*
X350690Y6028D01*
X350702Y6034D01*
X350715Y6041D01*
X350731Y6047D01*
X350749Y6052D01*
X350769Y6054D01*
X350779D01*
X350789Y6052D01*
X350802Y6049D01*
X350815Y6044D01*
X350831Y6038D01*
X350848Y6028D01*
X350862Y6015D01*
X350869Y6008D01*
X350875Y6000D01*
X350882Y5988D01*
X350889Y5975D01*
X350895Y5959D01*
X350900Y5941D01*
X350902Y5921D01*
Y5913D01*
X350900Y5901D01*
X350897Y5890D01*
X350892Y5875D01*
X350885Y5859D01*
X350875Y5842D01*
X350862Y5828D01*
X350856Y5821D01*
X350848Y5816D01*
X350836Y5810D01*
X350823Y5801D01*
X350807Y5796D01*
X350789Y5792D01*
X350769Y5790D01*
X350761D01*
X350749Y5792D01*
X350738Y5795D01*
X350723Y5800D01*
X350707Y5806D01*
X350690Y5815D01*
X350675Y5828D01*
X350669Y5834D01*
X350664Y5842D01*
X350657Y5854D01*
X350649Y5867D01*
X350644Y5883D01*
X350639Y5901D01*
D02*
G37*
G36*
X350654Y4063D02*
Y5367D01*
X350884D01*
Y4063D01*
X350654D01*
D02*
G37*
G36*
X351172D02*
Y5367D01*
X351402D01*
Y5224D01*
X351407D01*
X351409Y5226D01*
X351412Y5231D01*
X351417Y5239D01*
X351433Y5262D01*
X351445Y5277D01*
X351458Y5291D01*
X351490Y5321D01*
X351508Y5336D01*
X351528Y5350D01*
X351550Y5362D01*
X351572Y5373D01*
X351595Y5382D01*
X351622Y5387D01*
X351648Y5388D01*
X351661D01*
X351669Y5387D01*
X351681Y5385D01*
X351694Y5383D01*
X351723Y5375D01*
X351756Y5364D01*
X351773Y5355D01*
X351791Y5344D01*
X351807Y5332D01*
X351825Y5319D01*
X351841Y5303D01*
X351856Y5285D01*
X351858Y5283D01*
X351859Y5280D01*
X351863Y5275D01*
X351869Y5267D01*
X351874Y5255D01*
X351881Y5244D01*
X351889Y5229D01*
X351896Y5211D01*
X351904Y5191D01*
X351910Y5172D01*
X351923Y5122D01*
X351928Y5095D01*
X351932Y5065D01*
X351933Y5034D01*
X351935Y5001D01*
Y4063D01*
X351705D01*
Y5014D01*
X351704Y5026D01*
X351702Y5040D01*
X351699Y5055D01*
X351691Y5091D01*
X351684Y5108D01*
X351674Y5126D01*
X351664Y5141D01*
X351653Y5155D01*
X351638Y5167D01*
X351622Y5177D01*
X351602Y5183D01*
X351581Y5185D01*
X351577D01*
X351569Y5183D01*
X351556Y5181D01*
X351540Y5177D01*
X351520Y5167D01*
X351499Y5154D01*
X351477Y5137D01*
X351466Y5126D01*
X351456Y5113D01*
X351454Y5109D01*
X351448Y5101D01*
X351440Y5090D01*
X351430Y5077D01*
X351418Y5062D01*
X351410Y5047D01*
X351404Y5037D01*
X351402Y5029D01*
Y4063D01*
X351172D01*
D02*
G37*
G36*
X351485Y317564D02*
X351483Y317603D01*
Y317623D01*
X351485Y317636D01*
X351486Y317652D01*
X351489Y317672D01*
X351493Y317695D01*
X351498Y317718D01*
X351511Y317770D01*
X351519Y317796D01*
X351531Y317824D01*
X351544Y317851D01*
X351558Y317877D01*
X351575Y317903D01*
X351594Y317928D01*
X351614Y317947D01*
X351626Y317957D01*
X351640Y317967D01*
X351655Y317979D01*
X351673Y317992D01*
X351693Y318003D01*
X351714Y318015D01*
X351763Y318034D01*
X351791Y318042D01*
X351821Y318049D01*
X351850Y318052D01*
X351883Y318054D01*
X351900D01*
X351909Y318052D01*
X351921Y318051D01*
X351947Y318047D01*
X351978Y318041D01*
X352014Y318033D01*
X352054Y318020D01*
X352095Y318002D01*
Y317764D01*
X352093D01*
X352090Y317767D01*
X352085Y317769D01*
X352068Y317778D01*
X352059Y317783D01*
X352034Y317795D01*
X352006Y317805D01*
X351977Y317814D01*
X351947Y317821D01*
X351918Y317824D01*
X351909D01*
X351900Y317823D01*
X351888Y317821D01*
X351873Y317819D01*
X351857Y317814D01*
X351840Y317808D01*
X351822Y317801D01*
X351804Y317792D01*
X351788Y317778D01*
X351772Y317764D01*
X351757Y317746D01*
X351745Y317723D01*
X351735Y317698D01*
X351729Y317669D01*
X351727Y317636D01*
Y317624D01*
X351729Y317610D01*
X351731Y317590D01*
X351735Y317565D01*
X351741Y317537D01*
X351749Y317505D01*
X351759Y317470D01*
Y317469D01*
X351760Y317465D01*
X351765Y317450D01*
X351770Y317441D01*
X351777Y317426D01*
X351783Y317409D01*
X351793Y317390D01*
X351803Y317367D01*
X351814Y317341D01*
X351829Y317313D01*
X351844Y317280D01*
X351882Y317204D01*
X351905Y317162D01*
X351929Y317116D01*
X351931Y317113D01*
X351936Y317104D01*
X351942Y317091D01*
X351952Y317073D01*
X351963Y317052D01*
X351975Y317027D01*
X351990Y317001D01*
X352005Y316972D01*
X352063Y316844D01*
X352078Y316811D01*
X352101Y316752D01*
X352110Y316726D01*
Y316724D01*
X352111Y316719D01*
X352113Y316712D01*
X352116Y316703D01*
X352119Y316691D01*
X352123Y316678D01*
X352126Y316663D01*
X352131Y316647D01*
X352137Y316609D01*
X352144Y316570D01*
X352149Y316529D01*
X352151Y316488D01*
Y316468D01*
X352149Y316455D01*
X352147Y316437D01*
X352144Y316417D01*
X352141Y316396D01*
X352131Y316347D01*
X352123Y316320D01*
X352114Y316293D01*
X352103Y316266D01*
X352090Y316238D01*
X352075Y316212D01*
X352057Y316186D01*
X352037Y316161D01*
X352018Y316142D01*
X352006Y316132D01*
X351991Y316122D01*
X351977Y316111D01*
X351959Y316099D01*
X351939Y316088D01*
X351916Y316076D01*
X351893Y316066D01*
X351867Y316056D01*
X351839Y316048D01*
X351809Y316042D01*
X351778Y316038D01*
X351745Y316037D01*
X351732D01*
X351724Y316038D01*
X351711D01*
X351698Y316040D01*
X351683Y316043D01*
X351665Y316047D01*
X351627Y316055D01*
X351586Y316068D01*
X351542Y316088D01*
X351519Y316099D01*
X351496Y316112D01*
Y316375D01*
X351501Y316370D01*
X351508Y316365D01*
X351516Y316358D01*
X351526Y316350D01*
X351537Y316340D01*
X351567Y316320D01*
X351599Y316301D01*
X351636Y316283D01*
X351655Y316276D01*
X351675Y316271D01*
X351694Y316268D01*
X351714Y316266D01*
X351717D01*
X351727Y316268D01*
X351742Y316270D01*
X351760Y316273D01*
X351782Y316280D01*
X351804Y316289D01*
X351827Y316302D01*
X351849Y316320D01*
X351858Y316330D01*
X351867Y316342D01*
X351878Y316358D01*
X351888Y316378D01*
X351898Y316401D01*
X351905Y316427D01*
X351906Y316455D01*
Y316466D01*
X351905Y316481D01*
X351903Y316501D01*
X351898Y316524D01*
X351893Y316553D01*
X351885Y316584D01*
X351873Y316619D01*
Y316621D01*
X351872Y316624D01*
X351870Y316630D01*
X351867Y316639D01*
X351862Y316650D01*
X351857Y316663D01*
X351849Y316680D01*
X351840Y316699D01*
X351831Y316722D01*
X351817Y316748D01*
X351804Y316778D01*
X351788Y316809D01*
X351750Y316885D01*
X351727Y316929D01*
X351703Y316975D01*
X351701Y316978D01*
X351696Y316986D01*
X351690Y316999D01*
X351681Y317018D01*
X351670Y317039D01*
X351657Y317063D01*
X351644Y317091D01*
X351629Y317121D01*
X351599Y317185D01*
X351570Y317250D01*
X351555Y317282D01*
X351544Y317313D01*
X351532Y317341D01*
X351524Y317367D01*
Y317368D01*
X351522Y317373D01*
X351521Y317380D01*
X351517Y317390D01*
X351514Y317401D01*
X351511Y317414D01*
X351504Y317447D01*
X351496Y317483D01*
X351489Y317523D01*
X351485Y317564D01*
D02*
G37*
G36*
X352176Y4114D02*
X352151Y4132D01*
Y4386D01*
X352184Y4353D01*
X352197Y4342D01*
X352228Y4316D01*
X352263Y4289D01*
X352281Y4278D01*
X352301Y4266D01*
X352320Y4258D01*
X352340Y4252D01*
X352360Y4247D01*
X352378Y4245D01*
X352386D01*
X352396Y4247D01*
X352407Y4248D01*
X352419Y4253D01*
X352433Y4258D01*
X352447Y4266D01*
X352460Y4276D01*
X352465Y4281D01*
X352478Y4298D01*
X352483Y4309D01*
X352489Y4324D01*
X352492Y4338D01*
X352494Y4357D01*
Y4366D01*
X352492Y4373D01*
X352491Y4383D01*
X352488Y4396D01*
X352483Y4409D01*
X352478Y4425D01*
X352471Y4445D01*
X352463Y4465D01*
X352451Y4489D01*
X352438Y4514D01*
X352424Y4542D01*
X352406Y4573D01*
X352386Y4606D01*
X352363Y4640D01*
X352361Y4642D01*
X352358Y4648D01*
X352351Y4658D01*
X352342Y4671D01*
X352332Y4688D01*
X352320Y4706D01*
X352294Y4749D01*
X352266Y4794D01*
X352240Y4842D01*
X352217Y4886D01*
X352207Y4908D01*
X352201Y4926D01*
Y4927D01*
X352199Y4931D01*
X352197Y4936D01*
X352196Y4942D01*
X352191Y4960D01*
X352184Y4981D01*
X352178Y5008D01*
X352173Y5037D01*
X352169Y5067D01*
X352168Y5096D01*
Y5109D01*
X352169Y5117D01*
Y5129D01*
X352173Y5142D01*
X352178Y5173D01*
X352187Y5208D01*
X352201Y5244D01*
X352220Y5280D01*
X352233Y5298D01*
X352246Y5314D01*
X352255Y5322D01*
X352261Y5327D01*
X352270Y5336D01*
X352278Y5342D01*
X352302Y5359D01*
X352332Y5375D01*
X352366Y5390D01*
X352406Y5400D01*
X352425Y5401D01*
X352448Y5403D01*
X352460D01*
X352468Y5401D01*
X352478Y5400D01*
X352489Y5398D01*
X352517Y5393D01*
X352552Y5383D01*
X352588Y5368D01*
X352607Y5359D01*
X352627Y5347D01*
X352648Y5334D01*
X352668Y5319D01*
Y5103D01*
X352666Y5104D01*
X352663Y5106D01*
X352657Y5111D01*
X352648Y5117D01*
X352639Y5124D01*
X352629Y5132D01*
X352601Y5149D01*
X352570Y5165D01*
X352537Y5180D01*
X352504Y5191D01*
X352471Y5195D01*
X352468D01*
X352456Y5193D01*
X352442Y5190D01*
X352425Y5183D01*
X352401Y5163D01*
X352394Y5154D01*
X352388Y5142D01*
X352383Y5129D01*
X352381Y5114D01*
X352379Y5096D01*
Y5093D01*
X352381Y5088D01*
Y5080D01*
X352384Y5072D01*
X352386Y5060D01*
X352391Y5047D01*
X352396Y5032D01*
X352402Y5014D01*
X352412Y4995D01*
X352422Y4972D01*
X352435Y4947D01*
X352450Y4921D01*
X352468Y4891D01*
X352489Y4860D01*
X352512Y4826D01*
X352514Y4824D01*
X352519Y4817D01*
X352525Y4808D01*
X352534Y4794D01*
X352545Y4780D01*
X352556Y4762D01*
X352570Y4742D01*
X352584Y4721D01*
X352612Y4675D01*
X352642Y4627D01*
X352675Y4562D01*
X352683Y4542D01*
Y4540D01*
X352684Y4537D01*
X352686Y4532D01*
X352689Y4526D01*
X352694Y4507D01*
X352702Y4483D01*
X352709Y4455D01*
X352714Y4425D01*
X352719Y4394D01*
X352720Y4363D01*
Y4348D01*
X352719Y4338D01*
X352717Y4327D01*
X352716Y4312D01*
X352712Y4296D01*
X352709Y4278D01*
X352699Y4240D01*
X352683Y4199D01*
X352673Y4179D01*
X352647Y4140D01*
X352630Y4122D01*
X352622Y4114D01*
X352606Y4101D01*
X352596Y4092D01*
X352583Y4083D01*
X352570Y4075D01*
X352537Y4056D01*
X352499Y4042D01*
X352478Y4035D01*
X352432Y4029D01*
X352407Y4027D01*
X352394D01*
X352386Y4029D01*
X352375Y4030D01*
X352361Y4032D01*
X352345Y4035D01*
X352328Y4040D01*
X352289Y4053D01*
X352268Y4061D01*
X352246Y4071D01*
X352224Y4083D01*
X352199Y4097D01*
X352176Y4114D01*
D02*
G37*
G36*
X352401Y316063D02*
Y318028D01*
X352710D01*
X352721Y318026D01*
X352738D01*
X352756Y318023D01*
X352779Y318020D01*
X352803Y318016D01*
X352829Y318010D01*
X352888Y317993D01*
X352951Y317967D01*
X352982Y317951D01*
X353011Y317931D01*
X353043Y317910D01*
X353070Y317883D01*
X353077Y317877D01*
X353084Y317869D01*
X353094Y317857D01*
X353105Y317844D01*
X353118Y317828D01*
X353131Y317808D01*
X353144Y317787D01*
X353157Y317762D01*
X353172Y317736D01*
X353184Y317708D01*
X353195Y317678D01*
X353205Y317646D01*
X353211Y317613D01*
X353217Y317577D01*
X353218Y317541D01*
Y317529D01*
X353217Y317514D01*
X353215Y317496D01*
X353210Y317475D01*
X353205Y317449D01*
X353197Y317419D01*
X353187Y317388D01*
X353172Y317355D01*
X353156Y317321D01*
X353134Y317285D01*
X353110Y317250D01*
X353080Y317214D01*
X353047Y317181D01*
X353007Y317149D01*
X352962Y317118D01*
X352964D01*
X352965Y317116D01*
X352975Y317111D01*
X352990Y317103D01*
X353010Y317090D01*
X353031Y317075D01*
X353057Y317055D01*
X353084Y317031D01*
X353113Y317004D01*
X353141Y316972D01*
X353167Y316935D01*
X353193Y316896D01*
X353215Y316852D01*
X353235Y316803D01*
X353249Y316750D01*
X353259Y316691D01*
X353262Y316662D01*
Y316617D01*
X353261Y316604D01*
X353259Y316588D01*
X353257Y316566D01*
X353254Y316542D01*
X353249Y316514D01*
X353243Y316484D01*
X353223Y316419D01*
X353210Y316384D01*
X353193Y316350D01*
X353175Y316317D01*
X353154Y316283D01*
X353128Y316252D01*
X353100Y316220D01*
X353098Y316219D01*
X353092Y316214D01*
X353084Y316206D01*
X353070Y316196D01*
X353054Y316184D01*
X353033Y316171D01*
X353010Y316157D01*
X352982Y316142D01*
X352951Y316127D01*
X352916Y316112D01*
X352879Y316099D01*
X352838Y316088D01*
X352793Y316078D01*
X352744Y316070D01*
X352693Y316065D01*
X352639Y316063D01*
X352401D01*
D02*
G37*
%LPC*%
G36*
X352654Y316299D02*
X352713D01*
X352723Y316301D01*
X352734Y316302D01*
X352749Y316304D01*
X352782Y316309D01*
X352818Y316319D01*
X352856Y316335D01*
X352875Y316343D01*
X352893Y316355D01*
X352910Y316368D01*
X352926Y316383D01*
X352934Y316391D01*
X352939Y316399D01*
X352946Y316407D01*
X352952Y316417D01*
X352961Y316430D01*
X352969Y316445D01*
X352975Y316460D01*
X352984Y316478D01*
X352990Y316498D01*
X352997Y316519D01*
X353002Y316542D01*
X353007Y316566D01*
X353008Y316593D01*
X353010Y316621D01*
Y316635D01*
X353008Y316645D01*
Y316658D01*
X353005Y316673D01*
X353003Y316689D01*
X353000Y316707D01*
X352990Y316745D01*
X352975Y316786D01*
X352956Y316826D01*
X352943Y316845D01*
X352928Y316863D01*
X352926Y316865D01*
X352924Y316868D01*
X352920Y316872D01*
X352913Y316878D01*
X352905Y316885D01*
X352895Y316893D01*
X352882Y316903D01*
X352869Y316911D01*
X352854Y316919D01*
X352836Y316929D01*
X352818Y316937D01*
X352775Y316950D01*
X352751Y316955D01*
X352726Y316957D01*
X352698Y316958D01*
X352654D01*
Y316299D01*
D02*
G37*
G36*
Y317195D02*
X352690D01*
X352698Y317196D01*
X352710Y317198D01*
X352723Y317199D01*
X352752Y317204D01*
X352785Y317214D01*
X352821Y317229D01*
X352838Y317239D01*
X352856Y317250D01*
X352872Y317262D01*
X352890Y317280D01*
X352893Y317285D01*
X352900Y317291D01*
X352905Y317300D01*
X352911Y317311D01*
X352920Y317322D01*
X352926Y317336D01*
X352941Y317368D01*
X352954Y317406D01*
X352962Y317450D01*
X352964Y317473D01*
X352965Y317500D01*
Y317513D01*
X352964Y317523D01*
Y317534D01*
X352962Y317547D01*
X352956Y317578D01*
X352947Y317613D01*
X352934Y317649D01*
X352915Y317683D01*
X352903Y317700D01*
X352890Y317715D01*
X352887Y317718D01*
X352882Y317721D01*
X352877Y317726D01*
X352869Y317733D01*
X352859Y317739D01*
X352848Y317746D01*
X352836Y317754D01*
X352805Y317767D01*
X352769Y317780D01*
X352726Y317788D01*
X352701Y317792D01*
X352654D01*
Y317195D01*
D02*
G37*
%LPD*%
G36*
X352937Y5901D02*
X352935Y5921D01*
Y5931D01*
X352937Y5941D01*
X352940Y5954D01*
X352945Y5969D01*
X352952Y5983D01*
X352960Y6000D01*
X352973Y6015D01*
X352980Y6021D01*
X352988Y6028D01*
X352999Y6034D01*
X353012Y6041D01*
X353029Y6047D01*
X353047Y6052D01*
X353066Y6054D01*
X353076D01*
X353086Y6052D01*
X353099Y6049D01*
X353113Y6044D01*
X353129Y6038D01*
X353145Y6028D01*
X353160Y6015D01*
X353167Y6008D01*
X353173Y6000D01*
X353180Y5988D01*
X353186Y5975D01*
X353193Y5959D01*
X353198Y5941D01*
X353199Y5921D01*
Y5913D01*
X353198Y5901D01*
X353194Y5890D01*
X353189Y5875D01*
X353183Y5859D01*
X353173Y5842D01*
X353160Y5828D01*
X353153Y5821D01*
X353145Y5816D01*
X353134Y5810D01*
X353121Y5801D01*
X353104Y5796D01*
X353086Y5792D01*
X353066Y5790D01*
X353058D01*
X353047Y5792D01*
X353035Y5795D01*
X353021Y5800D01*
X353004Y5806D01*
X352988Y5815D01*
X352973Y5828D01*
X352966Y5834D01*
X352962Y5842D01*
X352955Y5854D01*
X352947Y5867D01*
X352942Y5883D01*
X352937Y5901D01*
D02*
G37*
G36*
X352952Y4063D02*
Y5367D01*
X353181D01*
Y4063D01*
X352952D01*
D02*
G37*
G36*
X353422Y4655D02*
X353421Y4711D01*
Y4740D01*
X353422Y4762D01*
X353424Y4788D01*
X353426Y4819D01*
X353429Y4852D01*
X353439Y4927D01*
X353455Y5009D01*
X353465Y5052D01*
X353477Y5093D01*
X353491Y5134D01*
X353508Y5173D01*
X353526Y5211D01*
X353527Y5213D01*
X353531Y5219D01*
X353537Y5229D01*
X353545Y5240D01*
X353555Y5255D01*
X353568Y5272D01*
X353583Y5290D01*
X353600Y5308D01*
X353619Y5324D01*
X353639Y5342D01*
X353662Y5359D01*
X353686Y5373D01*
X353713Y5385D01*
X353741Y5395D01*
X353768Y5401D01*
X353800Y5403D01*
X353811D01*
X353819Y5401D01*
X353829Y5400D01*
X353841Y5398D01*
X353869Y5390D01*
X353901Y5377D01*
X353918Y5368D01*
X353934Y5359D01*
X353952Y5345D01*
X353969Y5331D01*
X353987Y5314D01*
X354003Y5296D01*
Y6028D01*
X354233D01*
Y4063D01*
X354003D01*
Y4163D01*
X353996D01*
X353995Y4161D01*
X353993Y4158D01*
X353988Y4152D01*
X353982Y4145D01*
X353974Y4135D01*
X353964Y4125D01*
X353939Y4104D01*
X353909Y4081D01*
X353873Y4061D01*
X353834Y4048D01*
X353811Y4045D01*
X353788Y4043D01*
X353782D01*
X353773Y4045D01*
X353762Y4047D01*
X353749Y4048D01*
X353734Y4053D01*
X353716Y4058D01*
X353698Y4066D01*
X353678Y4076D01*
X353657Y4088D01*
X353636Y4102D01*
X353613Y4119D01*
X353591Y4140D01*
X353570Y4165D01*
X353549Y4193D01*
X353527Y4224D01*
X353526Y4225D01*
X353518Y4242D01*
X353511Y4256D01*
X353503Y4275D01*
X353493Y4298D01*
X353463Y4386D01*
X353455Y4422D01*
X353445Y4462D01*
X353437Y4506D01*
X353431Y4552D01*
X353426Y4603D01*
X353422Y4655D01*
D02*
G37*
%LPC*%
G36*
X353657Y4676D02*
X353659Y4665D01*
X353660Y4637D01*
X353662Y4604D01*
X353667Y4568D01*
X353672Y4529D01*
X353680Y4489D01*
X353690Y4448D01*
X353701Y4409D01*
X353716Y4373D01*
X353734Y4340D01*
X353755Y4312D01*
X353767Y4301D01*
X353780Y4291D01*
X353793Y4284D01*
X353808Y4278D01*
X353824Y4275D01*
X353841Y4273D01*
X353844D01*
X353852Y4275D01*
X353865Y4276D01*
X353882Y4279D01*
X353900Y4286D01*
X353918Y4296D01*
X353937Y4309D01*
X353964Y4335D01*
X353970Y4345D01*
X353980Y4357D01*
X353996Y4380D01*
X354001Y4389D01*
X354003Y4396D01*
Y5057D01*
X353998Y5067D01*
X353995Y5075D01*
X353983Y5096D01*
X353967Y5121D01*
X353947Y5144D01*
X353921Y5165D01*
X353906Y5173D01*
X353890Y5180D01*
X353872Y5183D01*
X353854Y5185D01*
X353846D01*
X353839Y5183D01*
X353823Y5178D01*
X353801Y5168D01*
X353790Y5162D01*
X353778Y5154D01*
X353767Y5144D01*
X353754Y5132D01*
X353742Y5117D01*
X353719Y5081D01*
X353709Y5059D01*
Y5057D01*
X353708Y5052D01*
X353705Y5045D01*
X353701Y5035D01*
X353698Y5022D01*
X353693Y5006D01*
X353688Y4988D01*
X353683Y4967D01*
X353678Y4944D01*
X353668Y4888D01*
X353662Y4822D01*
X353659Y4785D01*
X353657Y4745D01*
Y4676D01*
D02*
G37*
%LPD*%
G36*
X354440Y316655D02*
X354438Y316716D01*
Y316747D01*
X354440Y316770D01*
X354441Y316796D01*
X354443Y316827D01*
X354447Y316863D01*
X354450Y316901D01*
X354455Y316940D01*
X354461Y316981D01*
X354469Y317024D01*
X354479Y317067D01*
X354489Y317108D01*
X354502Y317147D01*
X354517Y317185D01*
X354533Y317221D01*
X354535Y317222D01*
X354538Y317229D01*
X354543Y317237D01*
X354551Y317249D01*
X354561Y317264D01*
X354573Y317278D01*
X354586Y317295D01*
X354602Y317313D01*
X354620Y317329D01*
X354640Y317345D01*
X354661Y317360D01*
X354686Y317375D01*
X354711Y317387D01*
X354738Y317395D01*
X354768Y317401D01*
X354799Y317403D01*
X354807D01*
X354814Y317401D01*
X354832Y317398D01*
X354855Y317391D01*
X354881Y317380D01*
X354912Y317364D01*
X354927Y317354D01*
X354960Y317327D01*
X354978Y317311D01*
X355011Y317272D01*
X355025Y317249D01*
X355042Y317222D01*
X355057Y317195D01*
X355086Y317129D01*
X355098Y317091D01*
X355109Y317050D01*
X355120Y317006D01*
X355129Y316958D01*
X355137Y316908D01*
X355143Y316852D01*
X355147Y316793D01*
X355150Y316730D01*
Y316663D01*
X354668D01*
Y316645D01*
X354669Y316635D01*
Y316624D01*
X354671Y316598D01*
X354674Y316565D01*
X354679Y316529D01*
X354688Y316491D01*
X354697Y316452D01*
X354709Y316412D01*
X354724Y316375D01*
X354743Y316338D01*
X354766Y316306D01*
X354792Y316280D01*
X354807Y316268D01*
X354822Y316258D01*
X354840Y316250D01*
X354858Y316245D01*
X354878Y316242D01*
X354899Y316240D01*
X354904D01*
X354912Y316242D01*
X354920D01*
X354932Y316243D01*
X354945Y316247D01*
X354975Y316256D01*
X354991Y316263D01*
X355009Y316271D01*
X355029Y316281D01*
X355047Y316294D01*
X355066Y316309D01*
X355086Y316325D01*
X355106Y316345D01*
X355124Y316368D01*
Y316140D01*
X355119Y316135D01*
X355112Y316130D01*
X355102Y316122D01*
X355091Y316114D01*
X355078Y316104D01*
X355062Y316094D01*
X355043Y316084D01*
X355025Y316073D01*
X355004Y316063D01*
X354958Y316045D01*
X354934Y316037D01*
X354909Y316032D01*
X354883Y316029D01*
X354855Y316027D01*
X354847D01*
X354835Y316029D01*
X354822Y316030D01*
X354806Y316032D01*
X354786Y316037D01*
X354765Y316042D01*
X354742Y316050D01*
X354717Y316058D01*
X354693Y316070D01*
X354666Y316084D01*
X354642Y316102D01*
X354615Y316122D01*
X354591Y316145D01*
X354568Y316173D01*
X354546Y316204D01*
X354545Y316206D01*
X354537Y316222D01*
X354530Y316237D01*
X354522Y316256D01*
X354512Y316278D01*
X354502Y316304D01*
X354492Y316335D01*
X354483Y316370D01*
X354473Y316407D01*
X354463Y316450D01*
X354455Y316496D01*
X354448Y316545D01*
X354443Y316598D01*
X354440Y316655D01*
D02*
G37*
%LPC*%
G36*
X354665Y316835D02*
X354920D01*
Y316852D01*
X354919Y316870D01*
Y316893D01*
X354917Y316921D01*
X354914Y316952D01*
X354909Y316985D01*
X354904Y317019D01*
X354897Y317052D01*
X354888Y317085D01*
X354878Y317116D01*
X354865Y317144D01*
X354850Y317167D01*
X354832Y317185D01*
X354822Y317193D01*
X354811Y317198D01*
X354788Y317201D01*
X354783D01*
X354776Y317199D01*
X354768Y317196D01*
X354760Y317190D01*
X354748Y317181D01*
X354738Y317170D01*
X354727Y317155D01*
X354715Y317136D01*
X354704Y317113D01*
X354693Y317083D01*
X354684Y317047D01*
X354679Y317027D01*
X354673Y316981D01*
X354669Y316957D01*
X354668Y316929D01*
X354666Y316899D01*
X354665Y316868D01*
Y316835D01*
D02*
G37*
%LPD*%
G36*
X354469Y4655D02*
X354467Y4716D01*
Y4747D01*
X354469Y4770D01*
X354470Y4796D01*
X354472Y4827D01*
X354475Y4863D01*
X354479Y4901D01*
X354484Y4940D01*
X354490Y4981D01*
X354498Y5024D01*
X354508Y5067D01*
X354518Y5108D01*
X354531Y5147D01*
X354546Y5185D01*
X354562Y5221D01*
X354564Y5223D01*
X354567Y5229D01*
X354572Y5237D01*
X354580Y5249D01*
X354590Y5263D01*
X354602Y5278D01*
X354615Y5295D01*
X354631Y5313D01*
X354649Y5329D01*
X354669Y5345D01*
X354690Y5360D01*
X354715Y5375D01*
X354739Y5387D01*
X354767Y5395D01*
X354797Y5401D01*
X354828Y5403D01*
X354836D01*
X354843Y5401D01*
X354861Y5398D01*
X354884Y5391D01*
X354910Y5380D01*
X354941Y5364D01*
X354956Y5354D01*
X354989Y5327D01*
X355007Y5311D01*
X355040Y5272D01*
X355054Y5249D01*
X355071Y5223D01*
X355085Y5195D01*
X355115Y5129D01*
X355126Y5091D01*
X355138Y5050D01*
X355149Y5006D01*
X355157Y4958D01*
X355166Y4908D01*
X355172Y4852D01*
X355176Y4793D01*
X355179Y4730D01*
Y4663D01*
X354697D01*
Y4645D01*
X354698Y4635D01*
Y4624D01*
X354700Y4598D01*
X354703Y4565D01*
X354708Y4529D01*
X354716Y4491D01*
X354726Y4452D01*
X354738Y4412D01*
X354752Y4375D01*
X354772Y4338D01*
X354795Y4306D01*
X354821Y4279D01*
X354836Y4268D01*
X354851Y4258D01*
X354869Y4250D01*
X354887Y4245D01*
X354907Y4242D01*
X354928Y4240D01*
X354933D01*
X354941Y4242D01*
X354949D01*
X354961Y4243D01*
X354974Y4247D01*
X355003Y4256D01*
X355020Y4263D01*
X355038Y4271D01*
X355058Y4281D01*
X355076Y4294D01*
X355095Y4309D01*
X355115Y4325D01*
X355135Y4345D01*
X355153Y4368D01*
Y4140D01*
X355148Y4135D01*
X355141Y4130D01*
X355131Y4122D01*
X355120Y4114D01*
X355107Y4104D01*
X355090Y4094D01*
X355072Y4084D01*
X355054Y4073D01*
X355033Y4063D01*
X354987Y4045D01*
X354962Y4037D01*
X354938Y4032D01*
X354911Y4029D01*
X354884Y4027D01*
X354875D01*
X354864Y4029D01*
X354851Y4030D01*
X354835Y4032D01*
X354815Y4037D01*
X354794Y4042D01*
X354770Y4050D01*
X354746Y4058D01*
X354721Y4070D01*
X354695Y4084D01*
X354671Y4102D01*
X354644Y4122D01*
X354620Y4145D01*
X354597Y4173D01*
X354575Y4204D01*
X354574Y4206D01*
X354566Y4222D01*
X354559Y4237D01*
X354551Y4256D01*
X354541Y4278D01*
X354531Y4304D01*
X354521Y4335D01*
X354511Y4370D01*
X354502Y4407D01*
X354492Y4450D01*
X354484Y4496D01*
X354477Y4545D01*
X354472Y4598D01*
X354469Y4655D01*
D02*
G37*
%LPC*%
G36*
X354693Y4835D02*
X354949D01*
Y4852D01*
X354948Y4870D01*
Y4893D01*
X354946Y4921D01*
X354943Y4952D01*
X354938Y4985D01*
X354933Y5019D01*
X354926Y5052D01*
X354917Y5085D01*
X354907Y5116D01*
X354893Y5144D01*
X354879Y5167D01*
X354861Y5185D01*
X354851Y5193D01*
X354839Y5198D01*
X354816Y5201D01*
X354812D01*
X354805Y5200D01*
X354797Y5196D01*
X354788Y5190D01*
X354777Y5181D01*
X354767Y5170D01*
X354756Y5155D01*
X354744Y5136D01*
X354733Y5113D01*
X354721Y5083D01*
X354713Y5047D01*
X354708Y5027D01*
X354702Y4981D01*
X354698Y4957D01*
X354697Y4929D01*
X354695Y4899D01*
X354693Y4868D01*
Y4835D01*
D02*
G37*
%LPD*%
G36*
X355404Y316063D02*
Y317367D01*
X355634D01*
Y317224D01*
X355639D01*
X355640Y317226D01*
X355644Y317231D01*
X355649Y317239D01*
X355665Y317262D01*
X355677Y317277D01*
X355690Y317291D01*
X355722Y317321D01*
X355740Y317336D01*
X355760Y317350D01*
X355781Y317362D01*
X355804Y317373D01*
X355827Y317382D01*
X355854Y317387D01*
X355880Y317388D01*
X355893D01*
X355901Y317387D01*
X355913Y317385D01*
X355926Y317383D01*
X355955Y317375D01*
X355988Y317364D01*
X356005Y317355D01*
X356023Y317344D01*
X356039Y317332D01*
X356057Y317319D01*
X356073Y317303D01*
X356088Y317285D01*
X356090Y317283D01*
X356091Y317280D01*
X356095Y317275D01*
X356101Y317267D01*
X356106Y317255D01*
X356113Y317244D01*
X356121Y317229D01*
X356128Y317211D01*
X356136Y317191D01*
X356142Y317172D01*
X356155Y317122D01*
X356160Y317095D01*
X356164Y317065D01*
X356165Y317034D01*
X356167Y317001D01*
Y316063D01*
X355937D01*
Y317014D01*
X355936Y317026D01*
X355934Y317040D01*
X355931Y317055D01*
X355923Y317091D01*
X355916Y317108D01*
X355906Y317126D01*
X355896Y317141D01*
X355885Y317155D01*
X355870Y317167D01*
X355854Y317177D01*
X355834Y317183D01*
X355813Y317185D01*
X355809D01*
X355801Y317183D01*
X355788Y317181D01*
X355772Y317177D01*
X355752Y317167D01*
X355731Y317154D01*
X355709Y317137D01*
X355698Y317126D01*
X355688Y317113D01*
X355686Y317109D01*
X355680Y317101D01*
X355672Y317090D01*
X355662Y317076D01*
X355650Y317062D01*
X355642Y317047D01*
X355635Y317037D01*
X355634Y317029D01*
Y316063D01*
X355404D01*
D02*
G37*
G36*
X356315Y5165D02*
Y5185D01*
X356317Y5186D01*
X356324Y5195D01*
X356332Y5206D01*
X356343Y5221D01*
X356360Y5240D01*
X356378Y5265D01*
X356397Y5293D01*
X356420Y5324D01*
X356447Y5360D01*
X356474Y5400D01*
X356504Y5442D01*
X356535Y5488D01*
X356568Y5537D01*
X356601Y5590D01*
X356637Y5646D01*
X356673Y5703D01*
X356694D01*
Y5367D01*
X356909D01*
Y5165D01*
X356694D01*
Y4404D01*
X356696Y4386D01*
Y4365D01*
X356702Y4319D01*
X356706Y4298D01*
X356712Y4281D01*
X356714Y4279D01*
X356715Y4276D01*
X356729Y4263D01*
X356738Y4256D01*
X356752Y4250D01*
X356766Y4247D01*
X356784Y4245D01*
X356793D01*
X356804Y4247D01*
X356817Y4250D01*
X356835Y4253D01*
X356857Y4260D01*
X356881Y4270D01*
X356909Y4281D01*
Y4076D01*
X356907D01*
X356898Y4071D01*
X356889Y4068D01*
X356879Y4065D01*
X356868Y4061D01*
X356840Y4051D01*
X356807Y4043D01*
X356773Y4035D01*
X356738Y4029D01*
X356706Y4027D01*
X356696D01*
X356683Y4029D01*
X356668Y4032D01*
X356650Y4035D01*
X356630Y4042D01*
X356607Y4051D01*
X356586Y4063D01*
X356563Y4079D01*
X356542Y4097D01*
X356520Y4122D01*
X356502Y4150D01*
X356488Y4183D01*
X356474Y4222D01*
X356468Y4266D01*
X356465Y4291D01*
Y5165D01*
X356315D01*
D02*
G37*
G36*
X356398Y316655D02*
X356396Y316711D01*
Y316740D01*
X356398Y316762D01*
X356400Y316788D01*
X356401Y316819D01*
X356405Y316852D01*
X356415Y316927D01*
X356431Y317009D01*
X356441Y317052D01*
X356452Y317093D01*
X356467Y317134D01*
X356483Y317173D01*
X356501Y317211D01*
X356503Y317213D01*
X356506Y317219D01*
X356513Y317229D01*
X356521Y317241D01*
X356531Y317255D01*
X356544Y317272D01*
X356559Y317290D01*
X356575Y317308D01*
X356595Y317324D01*
X356614Y317342D01*
X356638Y317359D01*
X356662Y317373D01*
X356688Y317385D01*
X356716Y317395D01*
X356744Y317401D01*
X356775Y317403D01*
X356787D01*
X356795Y317401D01*
X356805Y317400D01*
X356816Y317398D01*
X356844Y317390D01*
X356877Y317377D01*
X356893Y317368D01*
X356910Y317359D01*
X356928Y317345D01*
X356944Y317331D01*
X356962Y317314D01*
X356979Y317296D01*
Y318028D01*
X357208D01*
Y316063D01*
X356979D01*
Y316163D01*
X356972D01*
X356970Y316161D01*
X356969Y316158D01*
X356964Y316152D01*
X356957Y316145D01*
X356949Y316135D01*
X356939Y316125D01*
X356915Y316104D01*
X356885Y316081D01*
X356849Y316061D01*
X356810Y316048D01*
X356787Y316045D01*
X356764Y316043D01*
X356757D01*
X356749Y316045D01*
X356737Y316047D01*
X356724Y316048D01*
X356710Y316053D01*
X356692Y316058D01*
X356674Y316066D01*
X356654Y316076D01*
X356633Y316088D01*
X356611Y316102D01*
X356588Y316119D01*
X356567Y316140D01*
X356546Y316165D01*
X356524Y316193D01*
X356503Y316224D01*
X356501Y316225D01*
X356493Y316242D01*
X356487Y316256D01*
X356478Y316275D01*
X356469Y316298D01*
X356439Y316386D01*
X356431Y316422D01*
X356421Y316461D01*
X356413Y316506D01*
X356406Y316552D01*
X356401Y316603D01*
X356398Y316655D01*
D02*
G37*
%LPC*%
G36*
X356633Y316676D02*
X356634Y316665D01*
X356636Y316637D01*
X356638Y316604D01*
X356642Y316568D01*
X356647Y316529D01*
X356656Y316489D01*
X356665Y316448D01*
X356677Y316409D01*
X356692Y316373D01*
X356710Y316340D01*
X356731Y316312D01*
X356743Y316301D01*
X356756Y316291D01*
X356769Y316284D01*
X356784Y316278D01*
X356800Y316275D01*
X356816Y316273D01*
X356820D01*
X356828Y316275D01*
X356841Y316276D01*
X356857Y316280D01*
X356875Y316286D01*
X356893Y316296D01*
X356913Y316309D01*
X356939Y316335D01*
X356946Y316345D01*
X356956Y316357D01*
X356972Y316379D01*
X356977Y316389D01*
X356979Y316396D01*
Y317057D01*
X356974Y317067D01*
X356970Y317075D01*
X356959Y317096D01*
X356943Y317121D01*
X356923Y317144D01*
X356897Y317165D01*
X356882Y317173D01*
X356866Y317180D01*
X356847Y317183D01*
X356829Y317185D01*
X356821D01*
X356815Y317183D01*
X356798Y317178D01*
X356777Y317168D01*
X356765Y317162D01*
X356754Y317154D01*
X356743Y317144D01*
X356729Y317132D01*
X356718Y317118D01*
X356695Y317081D01*
X356685Y317058D01*
Y317057D01*
X356683Y317052D01*
X356680Y317045D01*
X356677Y317036D01*
X356674Y317022D01*
X356669Y317006D01*
X356664Y316988D01*
X356659Y316967D01*
X356654Y316944D01*
X356644Y316888D01*
X356638Y316822D01*
X356634Y316785D01*
X356633Y316745D01*
Y316676D01*
D02*
G37*
%LPD*%
G36*
X357091Y4063D02*
Y6028D01*
X357321D01*
Y5237D01*
X357326D01*
X357327Y5239D01*
X357330Y5244D01*
X357335Y5252D01*
X357342Y5263D01*
X357352Y5275D01*
X357363Y5290D01*
X357377Y5305D01*
X357391Y5321D01*
X357408Y5336D01*
X357426Y5350D01*
X357445Y5365D01*
X357467Y5377D01*
X357490Y5388D01*
X357514Y5396D01*
X357540Y5401D01*
X357567Y5403D01*
X357578D01*
X357586Y5401D01*
X357609Y5398D01*
X357637Y5391D01*
X357670Y5380D01*
X357686Y5372D01*
X357704Y5362D01*
X357737Y5339D01*
X357772Y5305D01*
X357773Y5301D01*
X357778Y5296D01*
X357783Y5288D01*
X357790Y5278D01*
X357796Y5267D01*
X357804Y5252D01*
X357813Y5236D01*
X357819Y5218D01*
X357827Y5198D01*
X357834Y5175D01*
X357841Y5150D01*
X357845Y5124D01*
X357850Y5096D01*
X357852Y5067D01*
X357854Y5034D01*
Y4063D01*
X357624D01*
Y5024D01*
X357623Y5035D01*
X357621Y5050D01*
X357617Y5065D01*
X357609Y5101D01*
X357603Y5117D01*
X357595Y5136D01*
X357585Y5150D01*
X357573Y5165D01*
X357558Y5177D01*
X357542Y5186D01*
X357524Y5193D01*
X357503Y5195D01*
X357500D01*
X357491Y5193D01*
X357478Y5191D01*
X357462Y5186D01*
X357442Y5178D01*
X357421Y5165D01*
X357398Y5147D01*
X357388Y5137D01*
X357377Y5124D01*
X357375Y5121D01*
X357368Y5113D01*
X357358Y5101D01*
X357349Y5088D01*
X357339Y5073D01*
X357329Y5060D01*
X357322Y5049D01*
X357321Y5042D01*
Y4063D01*
X357091D01*
D02*
G37*
G36*
X358085Y4655D02*
X358083Y4716D01*
Y4747D01*
X358085Y4770D01*
X358087Y4796D01*
X358088Y4827D01*
X358091Y4863D01*
X358095Y4901D01*
X358100Y4940D01*
X358106Y4981D01*
X358115Y5024D01*
X358124Y5067D01*
X358134Y5108D01*
X358147Y5147D01*
X358162Y5185D01*
X358178Y5221D01*
X358180Y5223D01*
X358183Y5229D01*
X358188Y5237D01*
X358196Y5249D01*
X358206Y5263D01*
X358218Y5278D01*
X358231Y5295D01*
X358247Y5313D01*
X358265Y5329D01*
X358285Y5345D01*
X358306Y5360D01*
X358331Y5375D01*
X358355Y5387D01*
X358383Y5395D01*
X358413Y5401D01*
X358444Y5403D01*
X358452D01*
X358459Y5401D01*
X358477Y5398D01*
X358500Y5391D01*
X358526Y5380D01*
X358557Y5364D01*
X358572Y5354D01*
X358605Y5327D01*
X358623Y5311D01*
X358656Y5272D01*
X358670Y5249D01*
X358687Y5223D01*
X358702Y5195D01*
X358731Y5129D01*
X358743Y5091D01*
X358754Y5050D01*
X358766Y5006D01*
X358774Y4958D01*
X358782Y4908D01*
X358788Y4852D01*
X358792Y4793D01*
X358795Y4730D01*
Y4663D01*
X358313D01*
Y4645D01*
X358314Y4635D01*
Y4624D01*
X358316Y4598D01*
X358319Y4565D01*
X358324Y4529D01*
X358333Y4491D01*
X358342Y4452D01*
X358354Y4412D01*
X358369Y4375D01*
X358388Y4338D01*
X358411Y4306D01*
X358437Y4279D01*
X358452Y4268D01*
X358467Y4258D01*
X358485Y4250D01*
X358503Y4245D01*
X358523Y4242D01*
X358544Y4240D01*
X358549D01*
X358557Y4242D01*
X358565D01*
X358577Y4243D01*
X358590Y4247D01*
X358620Y4256D01*
X358636Y4263D01*
X358654Y4271D01*
X358674Y4281D01*
X358692Y4294D01*
X358711Y4309D01*
X358731Y4325D01*
X358751Y4345D01*
X358769Y4368D01*
Y4140D01*
X358764Y4135D01*
X358757Y4130D01*
X358748Y4122D01*
X358736Y4114D01*
X358723Y4104D01*
X358706Y4094D01*
X358688Y4084D01*
X358670Y4073D01*
X358649Y4063D01*
X358603Y4045D01*
X358579Y4037D01*
X358554Y4032D01*
X358528Y4029D01*
X358500Y4027D01*
X358492D01*
X358480Y4029D01*
X358467Y4030D01*
X358451Y4032D01*
X358431Y4037D01*
X358410Y4042D01*
X358387Y4050D01*
X358362Y4058D01*
X358337Y4070D01*
X358311Y4084D01*
X358287Y4102D01*
X358260Y4122D01*
X358236Y4145D01*
X358213Y4173D01*
X358191Y4204D01*
X358190Y4206D01*
X358182Y4222D01*
X358175Y4237D01*
X358167Y4256D01*
X358157Y4278D01*
X358147Y4304D01*
X358137Y4335D01*
X358128Y4370D01*
X358118Y4407D01*
X358108Y4450D01*
X358100Y4496D01*
X358093Y4545D01*
X358088Y4598D01*
X358085Y4655D01*
D02*
G37*
%LPC*%
G36*
X358310Y4835D02*
X358565D01*
Y4852D01*
X358564Y4870D01*
Y4893D01*
X358562Y4921D01*
X358559Y4952D01*
X358554Y4985D01*
X358549Y5019D01*
X358542Y5052D01*
X358533Y5085D01*
X358523Y5116D01*
X358510Y5144D01*
X358495Y5167D01*
X358477Y5185D01*
X358467Y5193D01*
X358456Y5198D01*
X358433Y5201D01*
X358428D01*
X358421Y5200D01*
X358413Y5196D01*
X358405Y5190D01*
X358393Y5181D01*
X358383Y5170D01*
X358372Y5155D01*
X358361Y5136D01*
X358349Y5113D01*
X358337Y5083D01*
X358329Y5047D01*
X358324Y5027D01*
X358318Y4981D01*
X358314Y4957D01*
X358313Y4929D01*
X358311Y4899D01*
X358310Y4868D01*
Y4835D01*
D02*
G37*
%LPD*%
G36*
X359984Y4063D02*
Y4101D01*
X359986Y4104D01*
X359991Y4111D01*
X359997Y4122D01*
X360007Y4138D01*
X360018Y4158D01*
X360032Y4183D01*
X360048Y4211D01*
X360064Y4242D01*
X360084Y4276D01*
X360104Y4314D01*
X360125Y4355D01*
X360148Y4398D01*
X360171Y4443D01*
X360194Y4491D01*
X360219Y4540D01*
X360243Y4591D01*
X360291Y4696D01*
X360337Y4808D01*
X360381Y4919D01*
X360420Y5032D01*
X360453Y5144D01*
X360466Y5198D01*
X360478Y5252D01*
X360488Y5305D01*
X360494Y5355D01*
X360499Y5404D01*
X360501Y5452D01*
Y5467D01*
X360499Y5477D01*
Y5490D01*
X360497Y5505D01*
X360494Y5521D01*
X360492Y5537D01*
X360484Y5577D01*
X360471Y5616D01*
X360453Y5655D01*
X360443Y5674D01*
X360430Y5692D01*
Y5693D01*
X360427Y5695D01*
X360417Y5706D01*
X360402Y5719D01*
X360381Y5737D01*
X360355Y5754D01*
X360324Y5767D01*
X360286Y5778D01*
X360266Y5780D01*
X360245Y5782D01*
X360237D01*
X360230Y5780D01*
X360222D01*
X360212Y5778D01*
X360201Y5777D01*
X360187Y5773D01*
X360155Y5767D01*
X360117Y5756D01*
X360074Y5739D01*
X360025Y5718D01*
Y5979D01*
X360027Y5980D01*
X360032Y5982D01*
X360040Y5985D01*
X360051Y5990D01*
X360064Y5995D01*
X360079Y6002D01*
X360097Y6008D01*
X360117Y6015D01*
X360161Y6026D01*
X360209Y6038D01*
X360260Y6046D01*
X360286Y6049D01*
X360320D01*
X360330Y6047D01*
X360345D01*
X360363Y6044D01*
X360383Y6041D01*
X360405Y6036D01*
X360430Y6031D01*
X360455Y6023D01*
X360483Y6013D01*
X360509Y6002D01*
X360537Y5987D01*
X360563Y5970D01*
X360589Y5951D01*
X360615Y5928D01*
X360638Y5901D01*
X360640Y5900D01*
X360643Y5895D01*
X360650Y5887D01*
X360658Y5875D01*
X360666Y5859D01*
X360676Y5841D01*
X360688Y5819D01*
X360699Y5796D01*
X360711Y5769D01*
X360722Y5737D01*
X360732Y5705D01*
X360740Y5669D01*
X360748Y5631D01*
X360755Y5588D01*
X360758Y5546D01*
X360760Y5498D01*
Y5477D01*
X360758Y5459D01*
X360756Y5439D01*
X360755Y5414D01*
X360752Y5387D01*
X360748Y5355D01*
X360743Y5321D01*
X360737Y5283D01*
X360729Y5244D01*
X360720Y5201D01*
X360709Y5157D01*
X360696Y5111D01*
X360681Y5065D01*
X360665Y5016D01*
X360663Y5013D01*
X360660Y5004D01*
X360655Y4990D01*
X360647Y4968D01*
X360635Y4942D01*
X360622Y4909D01*
X360607Y4873D01*
X360589Y4831D01*
X360568Y4783D01*
X360543Y4729D01*
X360517Y4671D01*
X360488Y4609D01*
X360455Y4542D01*
X360420Y4470D01*
X360381Y4393D01*
X360340Y4312D01*
X360801D01*
Y4063D01*
X359984D01*
D02*
G37*
G36*
X361368D02*
Y6028D01*
X361621D01*
Y4063D01*
X361368D01*
D02*
G37*
G36*
X362077D02*
X362375Y4727D01*
X362077Y5367D01*
X362318D01*
X362496Y4950D01*
X362667Y5367D01*
X362903D01*
X362619Y4727D01*
X362936Y4063D01*
X362693D01*
X362496Y4511D01*
X362318Y4063D01*
X362077D01*
D02*
G37*
G36*
X363182Y4061D02*
X363136Y4079D01*
Y4319D01*
X363138D01*
X363141Y4317D01*
X363148Y4316D01*
X363156Y4312D01*
X363166Y4309D01*
X363177Y4304D01*
X363205Y4298D01*
X363236Y4289D01*
X363269Y4281D01*
X363302Y4276D01*
X363333Y4275D01*
X363346D01*
X363356Y4276D01*
X363367Y4278D01*
X363382Y4279D01*
X363413Y4288D01*
X363448Y4299D01*
X363466Y4307D01*
X363484Y4317D01*
X363502Y4329D01*
X363520Y4342D01*
X363536Y4357D01*
X363553Y4375D01*
X363554Y4376D01*
X363556Y4380D01*
X363561Y4384D01*
X363566Y4393D01*
X363572Y4403D01*
X363579Y4416D01*
X363585Y4430D01*
X363594Y4447D01*
X363602Y4465D01*
X363615Y4507D01*
X363622Y4532D01*
X363627Y4558D01*
X363631Y4586D01*
X363635Y4648D01*
Y4665D01*
X363633Y4676D01*
X363631Y4690D01*
X363630Y4706D01*
X363628Y4724D01*
X363623Y4744D01*
X363613Y4786D01*
X363599Y4831D01*
X363589Y4852D01*
X363577Y4873D01*
X363562Y4893D01*
X363548Y4911D01*
X363546Y4913D01*
X363545Y4916D01*
X363540Y4919D01*
X363523Y4932D01*
X363512Y4940D01*
X363500Y4950D01*
X363486Y4958D01*
X363469Y4967D01*
X363451Y4976D01*
X363431Y4985D01*
X363412Y4991D01*
X363389Y4998D01*
X363364Y5003D01*
X363338Y5004D01*
X363310Y5006D01*
X363287D01*
X363272Y5004D01*
X363240Y5001D01*
X363223Y4998D01*
X363208Y4995D01*
Y6028D01*
X363831D01*
Y5798D01*
X363456D01*
Y5216D01*
X363461D01*
X363467Y5214D01*
X363476Y5213D01*
X363486Y5209D01*
X363497Y5208D01*
X363525Y5198D01*
X363558Y5186D01*
X363595Y5170D01*
X363635Y5149D01*
X363676Y5122D01*
X363715Y5091D01*
X363736Y5072D01*
X363756Y5052D01*
X363774Y5031D01*
X363810Y4981D01*
X363825Y4953D01*
X363840Y4924D01*
X363853Y4893D01*
X363866Y4860D01*
X363876Y4824D01*
X363889Y4745D01*
X363892Y4703D01*
X363894Y4657D01*
Y4645D01*
X363892Y4630D01*
Y4612D01*
X363889Y4588D01*
X363886Y4562D01*
X363881Y4532D01*
X363876Y4499D01*
X363868Y4465D01*
X363858Y4427D01*
X363846Y4391D01*
X363831Y4352D01*
X363815Y4314D01*
X363795Y4276D01*
X363773Y4240D01*
X363746Y4206D01*
X363745Y4204D01*
X363740Y4197D01*
X363720Y4178D01*
X363705Y4165D01*
X363689Y4150D01*
X363667Y4134D01*
X363645Y4117D01*
X363620Y4099D01*
X363592Y4084D01*
X363562Y4068D01*
X363530Y4055D01*
X363495Y4043D01*
X363459Y4035D01*
X363420Y4029D01*
X363381Y4027D01*
X363369D01*
X363359Y4029D01*
X363348D01*
X363335Y4030D01*
X363320Y4032D01*
X363303Y4033D01*
X363267Y4040D01*
X363226Y4050D01*
X363182Y4061D01*
D02*
G37*
G36*
X364468Y4063D02*
Y6028D01*
X364720D01*
Y4063D01*
X364468D01*
D02*
G37*
G36*
X366211Y4655D02*
X366210Y4714D01*
Y4745D01*
X366211Y4767D01*
X366213Y4794D01*
X366216Y4826D01*
X366219Y4860D01*
X366223Y4898D01*
X366229Y4937D01*
X366236Y4978D01*
X366244Y5019D01*
X366255Y5062D01*
X366267Y5103D01*
X366282Y5144D01*
X366298Y5181D01*
X366318Y5218D01*
X366319Y5219D01*
X366323Y5226D01*
X366329Y5234D01*
X366337Y5247D01*
X366349Y5260D01*
X366362Y5277D01*
X366396Y5311D01*
X366416Y5327D01*
X366439Y5344D01*
X366464Y5360D01*
X366490Y5373D01*
X366519Y5387D01*
X366549Y5395D01*
X366582Y5401D01*
X366616Y5403D01*
X366624D01*
X366634Y5401D01*
X366647Y5400D01*
X366664Y5398D01*
X366682Y5393D01*
X366702Y5388D01*
X366724Y5380D01*
X366747Y5370D01*
X366772Y5357D01*
X366797Y5342D01*
X366821Y5324D01*
X366846Y5303D01*
X366870Y5278D01*
X366893Y5250D01*
X366915Y5218D01*
X366916Y5216D01*
X366920Y5209D01*
X366925Y5198D01*
X366933Y5183D01*
X366941Y5165D01*
X366951Y5142D01*
X366961Y5116D01*
X366970Y5086D01*
X366980Y5052D01*
X366992Y5014D01*
X367000Y4973D01*
X367008Y4927D01*
X367016Y4880D01*
X367021Y4827D01*
X367025Y4773D01*
X367026Y4714D01*
Y4683D01*
X367025Y4662D01*
X367023Y4634D01*
X367020Y4603D01*
X367016Y4568D01*
X367013Y4530D01*
X367006Y4491D01*
X366998Y4450D01*
X366990Y4407D01*
X366979Y4365D01*
X366967Y4324D01*
X366951Y4283D01*
X366934Y4245D01*
X366915Y4209D01*
X366913Y4207D01*
X366910Y4201D01*
X366903Y4193D01*
X366895Y4181D01*
X366883Y4166D01*
X366870Y4152D01*
X366854Y4135D01*
X366836Y4119D01*
X366816Y4101D01*
X366793Y4084D01*
X366769Y4070D01*
X366742Y4055D01*
X366715Y4043D01*
X366684Y4035D01*
X366651Y4029D01*
X366616Y4027D01*
X366608D01*
X366598Y4029D01*
X366585Y4030D01*
X366569Y4032D01*
X366551Y4037D01*
X366531Y4042D01*
X366508Y4050D01*
X366485Y4060D01*
X366460Y4071D01*
X366436Y4086D01*
X366411Y4104D01*
X366387Y4125D01*
X366362Y4148D01*
X366339Y4176D01*
X366318Y4209D01*
X366316Y4211D01*
X366313Y4217D01*
X366308Y4229D01*
X366301Y4243D01*
X366293Y4261D01*
X366283Y4284D01*
X366273Y4311D01*
X366264Y4342D01*
X366254Y4375D01*
X366244Y4412D01*
X366234Y4455D01*
X366226Y4499D01*
X366219Y4548D01*
X366214Y4601D01*
X366211Y4655D01*
D02*
G37*
%LPC*%
G36*
X366446Y4683D02*
X366447Y4671D01*
Y4657D01*
X366449Y4640D01*
X366451Y4606D01*
X366456Y4566D01*
X366460Y4524D01*
X366467Y4480D01*
X366477Y4435D01*
X366488Y4394D01*
X366501Y4353D01*
X366519Y4319D01*
X366529Y4302D01*
X366539Y4288D01*
X366562Y4265D01*
X366575Y4256D01*
X366588Y4250D01*
X366603Y4247D01*
X366619Y4245D01*
X366621D01*
X366628Y4247D01*
X366636Y4248D01*
X366659Y4260D01*
X366674Y4270D01*
X366688Y4284D01*
X366705Y4304D01*
X366721Y4329D01*
X366728Y4343D01*
X366736Y4360D01*
X366744Y4378D01*
X366751Y4398D01*
X366757Y4419D01*
X366764Y4443D01*
X366769Y4468D01*
X366774Y4496D01*
X366779Y4527D01*
X366783Y4560D01*
X366785Y4594D01*
X366788Y4632D01*
X366790Y4671D01*
Y4745D01*
X366788Y4758D01*
Y4772D01*
X366787Y4788D01*
X366785Y4824D01*
X366780Y4863D01*
X366775Y4906D01*
X366769Y4950D01*
X366759Y4993D01*
X366747Y5035D01*
X366733Y5075D01*
X366716Y5111D01*
X366706Y5127D01*
X366697Y5142D01*
X366685Y5154D01*
X366672Y5165D01*
X366659Y5173D01*
X366646Y5180D01*
X366631Y5183D01*
X366615Y5185D01*
X366613D01*
X366608Y5183D01*
X366600Y5181D01*
X366588Y5178D01*
X366575Y5170D01*
X366561Y5160D01*
X366546Y5145D01*
X366531Y5126D01*
X366514Y5101D01*
X366506Y5086D01*
X366500Y5070D01*
X366492Y5052D01*
X366485Y5032D01*
X366472Y4986D01*
X366467Y4960D01*
X366462Y4932D01*
X366457Y4903D01*
X366452Y4870D01*
X366451Y4834D01*
X366447Y4798D01*
X366446Y4757D01*
Y4683D01*
D02*
G37*
%LPD*%
G36*
X367254Y4353D02*
X367251Y4416D01*
Y5367D01*
X367480D01*
Y4425D01*
X367482Y4417D01*
Y4404D01*
X367484Y4391D01*
X367487Y4375D01*
X367495Y4342D01*
X367502Y4324D01*
X367510Y4307D01*
X367520Y4291D01*
X367546Y4265D01*
X367563Y4256D01*
X367582Y4250D01*
X367603Y4248D01*
X367607D01*
X367615Y4250D01*
X367628Y4252D01*
X367646Y4256D01*
X367664Y4265D01*
X367686Y4275D01*
X367707Y4291D01*
X367728Y4312D01*
X367730Y4316D01*
X367736Y4324D01*
X367744Y4334D01*
X367756Y4348D01*
X367766Y4363D01*
X367774Y4378D01*
X367781Y4391D01*
X367782Y4401D01*
Y5367D01*
X368012D01*
Y4063D01*
X367782D01*
Y4204D01*
X367776D01*
X367774Y4202D01*
X367771Y4197D01*
X367766Y4189D01*
X367759Y4179D01*
X367740Y4153D01*
X367726Y4138D01*
X367712Y4124D01*
X367679Y4094D01*
X367640Y4068D01*
X367618Y4058D01*
X367594Y4050D01*
X367571Y4045D01*
X367545Y4043D01*
X367531D01*
X367523Y4045D01*
X367512Y4047D01*
X367498Y4048D01*
X367469Y4056D01*
X367435Y4068D01*
X367399Y4084D01*
X367382Y4096D01*
X367364Y4109D01*
X367348Y4124D01*
X367331Y4142D01*
X367330Y4143D01*
X367328Y4147D01*
X367325Y4152D01*
X367318Y4160D01*
X367307Y4183D01*
X367299Y4196D01*
X367292Y4212D01*
X367284Y4232D01*
X367277Y4252D01*
X367269Y4275D01*
X367264Y4299D01*
X367259Y4325D01*
X367254Y4353D01*
D02*
G37*
G36*
X368214Y5165D02*
Y5185D01*
X368215Y5186D01*
X368222Y5195D01*
X368230Y5206D01*
X368242Y5221D01*
X368258Y5240D01*
X368276Y5265D01*
X368296Y5293D01*
X368319Y5324D01*
X368345Y5360D01*
X368373Y5400D01*
X368402Y5442D01*
X368433Y5488D01*
X368466Y5537D01*
X368499Y5590D01*
X368535Y5646D01*
X368571Y5703D01*
X368592D01*
Y5367D01*
X368807D01*
Y5165D01*
X368592D01*
Y4404D01*
X368594Y4386D01*
Y4365D01*
X368601Y4319D01*
X368604Y4298D01*
X368611Y4281D01*
X368612Y4279D01*
X368614Y4276D01*
X368627Y4263D01*
X368637Y4256D01*
X368650Y4250D01*
X368665Y4247D01*
X368683Y4245D01*
X368691D01*
X368702Y4247D01*
X368715Y4250D01*
X368734Y4253D01*
X368755Y4260D01*
X368779Y4270D01*
X368807Y4281D01*
Y4076D01*
X368806D01*
X368796Y4071D01*
X368788Y4068D01*
X368778Y4065D01*
X368766Y4061D01*
X368738Y4051D01*
X368706Y4043D01*
X368671Y4035D01*
X368637Y4029D01*
X368604Y4027D01*
X368594D01*
X368581Y4029D01*
X368566Y4032D01*
X368548Y4035D01*
X368529Y4042D01*
X368506Y4051D01*
X368484Y4063D01*
X368461Y4079D01*
X368440Y4097D01*
X368419Y4122D01*
X368401Y4150D01*
X368386Y4183D01*
X368373Y4222D01*
X368366Y4266D01*
X368363Y4291D01*
Y5165D01*
X368214D01*
D02*
G37*
G36*
X368970Y4063D02*
Y6028D01*
X369199D01*
Y4063D01*
X368970D01*
D02*
G37*
G36*
X369463Y5901D02*
X369462Y5921D01*
Y5931D01*
X369463Y5941D01*
X369466Y5954D01*
X369472Y5969D01*
X369478Y5983D01*
X369486Y6000D01*
X369499Y6015D01*
X369506Y6021D01*
X369514Y6028D01*
X369526Y6034D01*
X369539Y6041D01*
X369555Y6047D01*
X369573Y6052D01*
X369593Y6054D01*
X369603D01*
X369613Y6052D01*
X369626Y6049D01*
X369639Y6044D01*
X369655Y6038D01*
X369672Y6028D01*
X369686Y6015D01*
X369693Y6008D01*
X369699Y6000D01*
X369706Y5988D01*
X369712Y5975D01*
X369719Y5959D01*
X369724Y5941D01*
X369726Y5921D01*
Y5913D01*
X369724Y5901D01*
X369721Y5890D01*
X369716Y5875D01*
X369709Y5859D01*
X369699Y5842D01*
X369686Y5828D01*
X369680Y5821D01*
X369672Y5816D01*
X369660Y5810D01*
X369647Y5801D01*
X369631Y5796D01*
X369613Y5792D01*
X369593Y5790D01*
X369585D01*
X369573Y5792D01*
X369562Y5795D01*
X369547Y5800D01*
X369531Y5806D01*
X369514Y5815D01*
X369499Y5828D01*
X369493Y5834D01*
X369488Y5842D01*
X369481Y5854D01*
X369473Y5867D01*
X369468Y5883D01*
X369463Y5901D01*
D02*
G37*
G36*
X369478Y4063D02*
Y5367D01*
X369708D01*
Y4063D01*
X369478D01*
D02*
G37*
G36*
X369996D02*
Y5367D01*
X370226D01*
Y5224D01*
X370231D01*
X370232Y5226D01*
X370236Y5231D01*
X370241Y5239D01*
X370257Y5262D01*
X370269Y5277D01*
X370282Y5291D01*
X370314Y5321D01*
X370333Y5336D01*
X370352Y5350D01*
X370374Y5362D01*
X370396Y5373D01*
X370419Y5382D01*
X370446Y5387D01*
X370472Y5388D01*
X370485D01*
X370493Y5387D01*
X370505Y5385D01*
X370518Y5383D01*
X370547Y5375D01*
X370580Y5364D01*
X370597Y5355D01*
X370615Y5344D01*
X370631Y5332D01*
X370649Y5319D01*
X370665Y5303D01*
X370680Y5285D01*
X370682Y5283D01*
X370683Y5280D01*
X370687Y5275D01*
X370693Y5267D01*
X370698Y5255D01*
X370705Y5244D01*
X370713Y5229D01*
X370720Y5211D01*
X370728Y5191D01*
X370734Y5172D01*
X370747Y5122D01*
X370752Y5095D01*
X370756Y5065D01*
X370757Y5034D01*
X370759Y5001D01*
Y4063D01*
X370529D01*
Y5014D01*
X370528Y5026D01*
X370526Y5040D01*
X370523Y5055D01*
X370514Y5091D01*
X370508Y5108D01*
X370498Y5126D01*
X370488Y5141D01*
X370477Y5155D01*
X370462Y5167D01*
X370446Y5177D01*
X370426Y5183D01*
X370405Y5185D01*
X370401D01*
X370393Y5183D01*
X370380Y5181D01*
X370364Y5177D01*
X370344Y5167D01*
X370323Y5154D01*
X370301Y5137D01*
X370290Y5126D01*
X370280Y5113D01*
X370278Y5109D01*
X370272Y5101D01*
X370264Y5090D01*
X370254Y5077D01*
X370242Y5062D01*
X370234Y5047D01*
X370228Y5037D01*
X370226Y5029D01*
Y4063D01*
X369996D01*
D02*
G37*
G36*
X370995Y4655D02*
X370993Y4716D01*
Y4747D01*
X370995Y4770D01*
X370997Y4796D01*
X370998Y4827D01*
X371002Y4863D01*
X371005Y4901D01*
X371010Y4940D01*
X371016Y4981D01*
X371024Y5024D01*
X371034Y5067D01*
X371044Y5108D01*
X371057Y5147D01*
X371072Y5185D01*
X371089Y5221D01*
X371090Y5223D01*
X371093Y5229D01*
X371098Y5237D01*
X371107Y5249D01*
X371116Y5263D01*
X371128Y5278D01*
X371141Y5295D01*
X371157Y5313D01*
X371175Y5329D01*
X371195Y5345D01*
X371216Y5360D01*
X371241Y5375D01*
X371266Y5387D01*
X371293Y5395D01*
X371323Y5401D01*
X371354Y5403D01*
X371362D01*
X371369Y5401D01*
X371387Y5398D01*
X371410Y5391D01*
X371436Y5380D01*
X371467Y5364D01*
X371482Y5354D01*
X371515Y5327D01*
X371533Y5311D01*
X371566Y5272D01*
X371581Y5249D01*
X371597Y5223D01*
X371612Y5195D01*
X371641Y5129D01*
X371653Y5091D01*
X371664Y5050D01*
X371676Y5006D01*
X371684Y4958D01*
X371692Y4908D01*
X371699Y4852D01*
X371702Y4793D01*
X371705Y4730D01*
Y4663D01*
X371223D01*
Y4645D01*
X371225Y4635D01*
Y4624D01*
X371226Y4598D01*
X371230Y4565D01*
X371234Y4529D01*
X371243Y4491D01*
X371252Y4452D01*
X371264Y4412D01*
X371279Y4375D01*
X371298Y4338D01*
X371321Y4306D01*
X371348Y4279D01*
X371362Y4268D01*
X371377Y4258D01*
X371395Y4250D01*
X371413Y4245D01*
X371433Y4242D01*
X371454Y4240D01*
X371459D01*
X371467Y4242D01*
X371476D01*
X371487Y4243D01*
X371500Y4247D01*
X371530Y4256D01*
X371546Y4263D01*
X371564Y4271D01*
X371584Y4281D01*
X371602Y4294D01*
X371621Y4309D01*
X371641Y4325D01*
X371661Y4345D01*
X371679Y4368D01*
Y4140D01*
X371674Y4135D01*
X371667Y4130D01*
X371658Y4122D01*
X371646Y4114D01*
X371633Y4104D01*
X371617Y4094D01*
X371599Y4084D01*
X371581Y4073D01*
X371559Y4063D01*
X371513Y4045D01*
X371489Y4037D01*
X371464Y4032D01*
X371438Y4029D01*
X371410Y4027D01*
X371402D01*
X371390Y4029D01*
X371377Y4030D01*
X371361Y4032D01*
X371341Y4037D01*
X371320Y4042D01*
X371297Y4050D01*
X371272Y4058D01*
X371248Y4070D01*
X371221Y4084D01*
X371197Y4102D01*
X371170Y4122D01*
X371146Y4145D01*
X371123Y4173D01*
X371102Y4204D01*
X371100Y4206D01*
X371092Y4222D01*
X371085Y4237D01*
X371077Y4256D01*
X371067Y4278D01*
X371057Y4304D01*
X371047Y4335D01*
X371038Y4370D01*
X371028Y4407D01*
X371018Y4450D01*
X371010Y4496D01*
X371003Y4545D01*
X370998Y4598D01*
X370995Y4655D01*
D02*
G37*
%LPC*%
G36*
X371220Y4835D02*
X371476D01*
Y4852D01*
X371474Y4870D01*
Y4893D01*
X371472Y4921D01*
X371469Y4952D01*
X371464Y4985D01*
X371459Y5019D01*
X371453Y5052D01*
X371443Y5085D01*
X371433Y5116D01*
X371420Y5144D01*
X371405Y5167D01*
X371387Y5185D01*
X371377Y5193D01*
X371366Y5198D01*
X371343Y5201D01*
X371338D01*
X371331Y5200D01*
X371323Y5196D01*
X371315Y5190D01*
X371303Y5181D01*
X371293Y5170D01*
X371282Y5155D01*
X371270Y5136D01*
X371259Y5113D01*
X371248Y5083D01*
X371239Y5047D01*
X371234Y5027D01*
X371228Y4981D01*
X371225Y4957D01*
X371223Y4929D01*
X371221Y4899D01*
X371220Y4868D01*
Y4835D01*
D02*
G37*
%LPD*%
G36*
X372917Y4614D02*
X372916Y4691D01*
Y4732D01*
X372917Y4745D01*
Y4778D01*
X372919Y4798D01*
X372920Y4839D01*
X372924Y4886D01*
X372927Y4937D01*
X372932Y4991D01*
X372938Y5049D01*
X372945Y5109D01*
X372965Y5231D01*
X372978Y5291D01*
X372991Y5350D01*
X373007Y5408D01*
Y5409D01*
X373009Y5411D01*
X373012Y5421D01*
X373017Y5437D01*
X373025Y5460D01*
X373035Y5488D01*
X373048Y5521D01*
X373063Y5559D01*
X373079Y5600D01*
X373099Y5646D01*
X373122Y5695D01*
X373147Y5749D01*
X373175Y5803D01*
X373204Y5862D01*
X373237Y5921D01*
X373273Y5983D01*
X373311Y6046D01*
X373445D01*
X373444Y6042D01*
X373439Y6034D01*
X373430Y6021D01*
X373421Y6002D01*
X373408Y5979D01*
X373393Y5951D01*
X373378Y5920D01*
X373360Y5883D01*
X373343Y5844D01*
X373324Y5801D01*
X373306Y5756D01*
X373288Y5708D01*
X373271Y5657D01*
X373255Y5605D01*
X373238Y5551D01*
X373225Y5495D01*
Y5491D01*
X373222Y5482D01*
X373220Y5473D01*
X373219Y5464D01*
X373216Y5441D01*
X373211Y5409D01*
X373204Y5373D01*
X373199Y5331D01*
X373193Y5282D01*
X373186Y5227D01*
X373181Y5167D01*
X373175Y5101D01*
X373170Y5029D01*
X373166Y4952D01*
X373163Y4870D01*
X373160Y4783D01*
Y4625D01*
X373162Y4608D01*
Y4565D01*
X373163Y4542D01*
Y4516D01*
X373165Y4462D01*
X373168Y4403D01*
X373171Y4340D01*
X373176Y4275D01*
X373188Y4140D01*
X373194Y4075D01*
X373204Y4009D01*
X373214Y3948D01*
X373225Y3889D01*
X373227Y3886D01*
X373229Y3876D01*
X373232Y3860D01*
X373238Y3838D01*
X373245Y3812D01*
X373255Y3781D01*
X373265Y3746D01*
X373278Y3707D01*
X373293Y3666D01*
X373309Y3624D01*
X373327Y3578D01*
X373347Y3530D01*
X373368Y3482D01*
X373393Y3433D01*
X373417Y3386D01*
X373445Y3338D01*
X373311D01*
Y3340D01*
X373309Y3341D01*
X373306Y3346D01*
X373301Y3353D01*
X373296Y3361D01*
X373291Y3371D01*
X373276Y3396D01*
X373258Y3425D01*
X373238Y3461D01*
X373217Y3500D01*
X373194Y3545D01*
X373170Y3592D01*
X373143Y3643D01*
X373119Y3696D01*
X373094Y3750D01*
X373070Y3805D01*
X373047Y3863D01*
X373025Y3920D01*
X373007Y3976D01*
Y3978D01*
X373006Y3979D01*
Y3984D01*
X373004Y3989D01*
X372999Y4007D01*
X372992Y4030D01*
X372986Y4058D01*
X372978Y4092D01*
X372970Y4134D01*
X372961Y4178D01*
X372953Y4229D01*
X372945Y4283D01*
X372937Y4342D01*
X372930Y4404D01*
X372924Y4471D01*
X372919Y4542D01*
X372917Y4614D01*
D02*
G37*
G36*
X373918Y4037D02*
X373498Y6028D01*
X373763D01*
X373995Y4709D01*
X374001D01*
X374265Y6028D01*
X374447D01*
X374696Y4678D01*
X374701D01*
X374949Y6028D01*
X375216D01*
X374795Y4037D01*
X374621D01*
X374355Y5350D01*
X374351D01*
X374091Y4037D01*
X373918D01*
D02*
G37*
G36*
X375412Y4063D02*
Y6028D01*
X375664D01*
Y4063D01*
X375412D01*
D02*
G37*
G36*
X375877D02*
X376328Y5792D01*
X375930D01*
Y6028D01*
X376642D01*
X376189Y4299D01*
X376642D01*
Y4063D01*
X375877D01*
D02*
G37*
G36*
X376833D02*
Y5367D01*
X377063D01*
Y5224D01*
X377068D01*
X377070Y5226D01*
X377073Y5231D01*
X377078Y5239D01*
X377094Y5262D01*
X377106Y5277D01*
X377119Y5291D01*
X377152Y5321D01*
X377170Y5336D01*
X377189Y5350D01*
X377211Y5362D01*
X377234Y5373D01*
X377256Y5382D01*
X377283Y5387D01*
X377309Y5388D01*
X377322D01*
X377330Y5387D01*
X377342Y5385D01*
X377355Y5383D01*
X377384Y5375D01*
X377417Y5364D01*
X377434Y5355D01*
X377452Y5344D01*
X377468Y5332D01*
X377486Y5319D01*
X377502Y5303D01*
X377517Y5285D01*
X377519Y5283D01*
X377521Y5280D01*
X377524Y5275D01*
X377530Y5267D01*
X377535Y5255D01*
X377542Y5244D01*
X377550Y5229D01*
X377557Y5211D01*
X377565Y5191D01*
X377571Y5172D01*
X377585Y5122D01*
X377590Y5095D01*
X377593Y5065D01*
X377594Y5034D01*
X377596Y5001D01*
Y4063D01*
X377366D01*
Y5014D01*
X377365Y5026D01*
X377363Y5040D01*
X377360Y5055D01*
X377352Y5091D01*
X377345Y5108D01*
X377335Y5126D01*
X377325Y5141D01*
X377314Y5155D01*
X377299Y5167D01*
X377283Y5177D01*
X377263Y5183D01*
X377242Y5185D01*
X377238D01*
X377230Y5183D01*
X377217Y5181D01*
X377201Y5177D01*
X377181Y5167D01*
X377160Y5154D01*
X377138Y5137D01*
X377127Y5126D01*
X377117Y5113D01*
X377116Y5109D01*
X377109Y5101D01*
X377101Y5090D01*
X377091Y5077D01*
X377079Y5062D01*
X377071Y5047D01*
X377065Y5037D01*
X377063Y5029D01*
Y4063D01*
X376833D01*
D02*
G37*
G36*
X377832Y4655D02*
X377831Y4716D01*
Y4747D01*
X377832Y4770D01*
X377834Y4796D01*
X377835Y4827D01*
X377839Y4863D01*
X377842Y4901D01*
X377847Y4940D01*
X377853Y4981D01*
X377862Y5024D01*
X377871Y5067D01*
X377881Y5108D01*
X377894Y5147D01*
X377909Y5185D01*
X377926Y5221D01*
X377927Y5223D01*
X377931Y5229D01*
X377936Y5237D01*
X377944Y5249D01*
X377954Y5263D01*
X377965Y5278D01*
X377978Y5295D01*
X377994Y5313D01*
X378013Y5329D01*
X378032Y5345D01*
X378054Y5360D01*
X378078Y5375D01*
X378103Y5387D01*
X378131Y5395D01*
X378160Y5401D01*
X378191Y5403D01*
X378200D01*
X378206Y5401D01*
X378224Y5398D01*
X378247Y5391D01*
X378273Y5380D01*
X378305Y5364D01*
X378319Y5354D01*
X378352Y5327D01*
X378370Y5311D01*
X378403Y5272D01*
X378418Y5249D01*
X378434Y5223D01*
X378449Y5195D01*
X378478Y5129D01*
X378490Y5091D01*
X378501Y5050D01*
X378513Y5006D01*
X378521Y4958D01*
X378529Y4908D01*
X378536Y4852D01*
X378539Y4793D01*
X378542Y4730D01*
Y4663D01*
X378060D01*
Y4645D01*
X378062Y4635D01*
Y4624D01*
X378063Y4598D01*
X378067Y4565D01*
X378072Y4529D01*
X378080Y4491D01*
X378090Y4452D01*
X378101Y4412D01*
X378116Y4375D01*
X378136Y4338D01*
X378158Y4306D01*
X378185Y4279D01*
X378200Y4268D01*
X378214Y4258D01*
X378232Y4250D01*
X378250Y4245D01*
X378270Y4242D01*
X378291Y4240D01*
X378296D01*
X378305Y4242D01*
X378313D01*
X378324Y4243D01*
X378337Y4247D01*
X378367Y4256D01*
X378383Y4263D01*
X378401Y4271D01*
X378421Y4281D01*
X378439Y4294D01*
X378459Y4309D01*
X378478Y4325D01*
X378498Y4345D01*
X378516Y4368D01*
Y4140D01*
X378511Y4135D01*
X378505Y4130D01*
X378495Y4122D01*
X378483Y4114D01*
X378470Y4104D01*
X378454Y4094D01*
X378436Y4084D01*
X378418Y4073D01*
X378396Y4063D01*
X378350Y4045D01*
X378326Y4037D01*
X378301Y4032D01*
X378275Y4029D01*
X378247Y4027D01*
X378239D01*
X378227Y4029D01*
X378214Y4030D01*
X378198Y4032D01*
X378178Y4037D01*
X378157Y4042D01*
X378134Y4050D01*
X378109Y4058D01*
X378085Y4070D01*
X378059Y4084D01*
X378034Y4102D01*
X378008Y4122D01*
X377983Y4145D01*
X377960Y4173D01*
X377939Y4204D01*
X377937Y4206D01*
X377929Y4222D01*
X377922Y4237D01*
X377914Y4256D01*
X377904Y4278D01*
X377894Y4304D01*
X377885Y4335D01*
X377875Y4370D01*
X377865Y4407D01*
X377855Y4450D01*
X377847Y4496D01*
X377840Y4545D01*
X377835Y4598D01*
X377832Y4655D01*
D02*
G37*
%LPC*%
G36*
X378057Y4835D02*
X378313D01*
Y4852D01*
X378311Y4870D01*
Y4893D01*
X378309Y4921D01*
X378306Y4952D01*
X378301Y4985D01*
X378296Y5019D01*
X378290Y5052D01*
X378280Y5085D01*
X378270Y5116D01*
X378257Y5144D01*
X378242Y5167D01*
X378224Y5185D01*
X378214Y5193D01*
X378203Y5198D01*
X378180Y5201D01*
X378175D01*
X378168Y5200D01*
X378160Y5196D01*
X378152Y5190D01*
X378140Y5181D01*
X378131Y5170D01*
X378119Y5155D01*
X378108Y5136D01*
X378096Y5113D01*
X378085Y5083D01*
X378077Y5047D01*
X378072Y5027D01*
X378065Y4981D01*
X378062Y4957D01*
X378060Y4929D01*
X378059Y4899D01*
X378057Y4868D01*
Y4835D01*
D02*
G37*
%LPD*%
G36*
X378700Y5165D02*
Y5185D01*
X378701Y5186D01*
X378708Y5195D01*
X378716Y5206D01*
X378728Y5221D01*
X378744Y5240D01*
X378762Y5265D01*
X378782Y5293D01*
X378805Y5324D01*
X378831Y5360D01*
X378859Y5400D01*
X378888Y5442D01*
X378920Y5488D01*
X378952Y5537D01*
X378985Y5590D01*
X379021Y5646D01*
X379057Y5703D01*
X379079D01*
Y5367D01*
X379293D01*
Y5165D01*
X379079D01*
Y4404D01*
X379080Y4386D01*
Y4365D01*
X379087Y4319D01*
X379090Y4298D01*
X379097Y4281D01*
X379098Y4279D01*
X379100Y4276D01*
X379113Y4263D01*
X379123Y4256D01*
X379136Y4250D01*
X379151Y4247D01*
X379169Y4245D01*
X379177D01*
X379188Y4247D01*
X379202Y4250D01*
X379220Y4253D01*
X379241Y4260D01*
X379265Y4270D01*
X379293Y4281D01*
Y4076D01*
X379292D01*
X379282Y4071D01*
X379274Y4068D01*
X379264Y4065D01*
X379252Y4061D01*
X379224Y4051D01*
X379192Y4043D01*
X379157Y4035D01*
X379123Y4029D01*
X379090Y4027D01*
X379080D01*
X379067Y4029D01*
X379052Y4032D01*
X379034Y4035D01*
X379015Y4042D01*
X378992Y4051D01*
X378970Y4063D01*
X378947Y4079D01*
X378926Y4097D01*
X378905Y4122D01*
X378887Y4150D01*
X378872Y4183D01*
X378859Y4222D01*
X378852Y4266D01*
X378849Y4291D01*
Y5165D01*
X378700D01*
D02*
G37*
G36*
X380402Y4655D02*
X380400Y4711D01*
Y4740D01*
X380402Y4762D01*
X380404Y4788D01*
X380405Y4819D01*
X380409Y4852D01*
X380418Y4927D01*
X380435Y5009D01*
X380445Y5052D01*
X380456Y5093D01*
X380471Y5134D01*
X380487Y5173D01*
X380505Y5211D01*
X380507Y5213D01*
X380510Y5219D01*
X380517Y5229D01*
X380525Y5240D01*
X380535Y5255D01*
X380548Y5272D01*
X380563Y5290D01*
X380579Y5308D01*
X380599Y5324D01*
X380619Y5342D01*
X380642Y5359D01*
X380666Y5373D01*
X380692Y5385D01*
X380720Y5395D01*
X380748Y5401D01*
X380779Y5403D01*
X380791D01*
X380799Y5401D01*
X380809Y5400D01*
X380820Y5398D01*
X380848Y5390D01*
X380881Y5377D01*
X380897Y5368D01*
X380914Y5359D01*
X380932Y5345D01*
X380948Y5331D01*
X380966Y5314D01*
X380983Y5296D01*
Y6028D01*
X381212D01*
Y4063D01*
X380983D01*
Y4163D01*
X380976D01*
X380974Y4161D01*
X380973Y4158D01*
X380968Y4152D01*
X380961Y4145D01*
X380953Y4135D01*
X380943Y4125D01*
X380919Y4104D01*
X380889Y4081D01*
X380853Y4061D01*
X380814Y4048D01*
X380791Y4045D01*
X380768Y4043D01*
X380761D01*
X380753Y4045D01*
X380742Y4047D01*
X380728Y4048D01*
X380714Y4053D01*
X380696Y4058D01*
X380678Y4066D01*
X380658Y4076D01*
X380637Y4088D01*
X380615Y4102D01*
X380592Y4119D01*
X380571Y4140D01*
X380550Y4165D01*
X380528Y4193D01*
X380507Y4224D01*
X380505Y4225D01*
X380497Y4242D01*
X380491Y4256D01*
X380482Y4275D01*
X380473Y4298D01*
X380443Y4386D01*
X380435Y4422D01*
X380425Y4462D01*
X380417Y4506D01*
X380410Y4552D01*
X380405Y4603D01*
X380402Y4655D01*
D02*
G37*
%LPC*%
G36*
X380637Y4676D02*
X380638Y4665D01*
X380640Y4637D01*
X380642Y4604D01*
X380646Y4568D01*
X380651Y4529D01*
X380660Y4489D01*
X380669Y4448D01*
X380681Y4409D01*
X380696Y4373D01*
X380714Y4340D01*
X380735Y4312D01*
X380747Y4301D01*
X380760Y4291D01*
X380773Y4284D01*
X380787Y4278D01*
X380804Y4275D01*
X380820Y4273D01*
X380823D01*
X380832Y4275D01*
X380845Y4276D01*
X380861Y4279D01*
X380879Y4286D01*
X380897Y4296D01*
X380917Y4309D01*
X380943Y4335D01*
X380950Y4345D01*
X380960Y4357D01*
X380976Y4380D01*
X380981Y4389D01*
X380983Y4396D01*
Y5057D01*
X380978Y5067D01*
X380974Y5075D01*
X380963Y5096D01*
X380946Y5121D01*
X380927Y5144D01*
X380901Y5165D01*
X380886Y5173D01*
X380870Y5180D01*
X380851Y5183D01*
X380833Y5185D01*
X380825D01*
X380819Y5183D01*
X380802Y5178D01*
X380781Y5168D01*
X380769Y5162D01*
X380758Y5154D01*
X380747Y5144D01*
X380733Y5132D01*
X380722Y5117D01*
X380699Y5081D01*
X380689Y5059D01*
Y5057D01*
X380687Y5052D01*
X380684Y5045D01*
X380681Y5035D01*
X380678Y5022D01*
X380673Y5006D01*
X380668Y4988D01*
X380663Y4967D01*
X380658Y4944D01*
X380648Y4888D01*
X380642Y4822D01*
X380638Y4785D01*
X380637Y4745D01*
Y4676D01*
D02*
G37*
%LPD*%
G36*
X381447Y4655D02*
X381445Y4714D01*
Y4745D01*
X381447Y4767D01*
X381448Y4794D01*
X381452Y4826D01*
X381455Y4860D01*
X381458Y4898D01*
X381465Y4937D01*
X381471Y4978D01*
X381480Y5019D01*
X381491Y5062D01*
X381503Y5103D01*
X381517Y5144D01*
X381534Y5181D01*
X381553Y5218D01*
X381555Y5219D01*
X381558Y5226D01*
X381565Y5234D01*
X381573Y5247D01*
X381585Y5260D01*
X381598Y5277D01*
X381632Y5311D01*
X381652Y5327D01*
X381675Y5344D01*
X381699Y5360D01*
X381726Y5373D01*
X381755Y5387D01*
X381785Y5395D01*
X381817Y5401D01*
X381852Y5403D01*
X381860D01*
X381870Y5401D01*
X381883Y5400D01*
X381899Y5398D01*
X381917Y5393D01*
X381937Y5388D01*
X381960Y5380D01*
X381983Y5370D01*
X382008Y5357D01*
X382032Y5342D01*
X382057Y5324D01*
X382081Y5303D01*
X382106Y5278D01*
X382129Y5250D01*
X382150Y5218D01*
X382152Y5216D01*
X382155Y5209D01*
X382160Y5198D01*
X382168Y5183D01*
X382176Y5165D01*
X382186Y5142D01*
X382196Y5116D01*
X382206Y5086D01*
X382216Y5052D01*
X382227Y5014D01*
X382236Y4973D01*
X382244Y4927D01*
X382252Y4880D01*
X382257Y4827D01*
X382260Y4773D01*
X382262Y4714D01*
Y4683D01*
X382260Y4662D01*
X382259Y4634D01*
X382255Y4603D01*
X382252Y4568D01*
X382249Y4530D01*
X382242Y4491D01*
X382234Y4450D01*
X382226Y4407D01*
X382214Y4365D01*
X382203Y4324D01*
X382186Y4283D01*
X382170Y4245D01*
X382150Y4209D01*
X382149Y4207D01*
X382145Y4201D01*
X382139Y4193D01*
X382131Y4181D01*
X382119Y4166D01*
X382106Y4152D01*
X382090Y4135D01*
X382072Y4119D01*
X382052Y4101D01*
X382029Y4084D01*
X382004Y4070D01*
X381978Y4055D01*
X381950Y4043D01*
X381919Y4035D01*
X381886Y4029D01*
X381852Y4027D01*
X381844D01*
X381834Y4029D01*
X381821Y4030D01*
X381804Y4032D01*
X381786Y4037D01*
X381767Y4042D01*
X381744Y4050D01*
X381721Y4060D01*
X381696Y4071D01*
X381671Y4086D01*
X381647Y4104D01*
X381622Y4125D01*
X381598Y4148D01*
X381575Y4176D01*
X381553Y4209D01*
X381552Y4211D01*
X381548Y4217D01*
X381543Y4229D01*
X381537Y4243D01*
X381529Y4261D01*
X381519Y4284D01*
X381509Y4311D01*
X381499Y4342D01*
X381489Y4375D01*
X381480Y4412D01*
X381470Y4455D01*
X381462Y4499D01*
X381455Y4548D01*
X381450Y4601D01*
X381447Y4655D01*
D02*
G37*
%LPC*%
G36*
X381681Y4683D02*
X381683Y4671D01*
Y4657D01*
X381684Y4640D01*
X381686Y4606D01*
X381691Y4566D01*
X381696Y4524D01*
X381703Y4480D01*
X381712Y4435D01*
X381724Y4394D01*
X381737Y4353D01*
X381755Y4319D01*
X381765Y4302D01*
X381775Y4288D01*
X381798Y4265D01*
X381811Y4256D01*
X381824Y4250D01*
X381839Y4247D01*
X381855Y4245D01*
X381857D01*
X381863Y4247D01*
X381872Y4248D01*
X381894Y4260D01*
X381909Y4270D01*
X381924Y4284D01*
X381940Y4304D01*
X381957Y4329D01*
X381963Y4343D01*
X381972Y4360D01*
X381980Y4378D01*
X381986Y4398D01*
X381993Y4419D01*
X381999Y4443D01*
X382004Y4468D01*
X382009Y4496D01*
X382014Y4527D01*
X382019Y4560D01*
X382021Y4594D01*
X382024Y4632D01*
X382026Y4671D01*
Y4745D01*
X382024Y4758D01*
Y4772D01*
X382022Y4788D01*
X382021Y4824D01*
X382016Y4863D01*
X382011Y4906D01*
X382004Y4950D01*
X381995Y4993D01*
X381983Y5035D01*
X381968Y5075D01*
X381952Y5111D01*
X381942Y5127D01*
X381932Y5142D01*
X381921Y5154D01*
X381908Y5165D01*
X381894Y5173D01*
X381881Y5180D01*
X381867Y5183D01*
X381850Y5185D01*
X381849D01*
X381844Y5183D01*
X381835Y5181D01*
X381824Y5178D01*
X381811Y5170D01*
X381796Y5160D01*
X381781Y5145D01*
X381767Y5126D01*
X381750Y5101D01*
X381742Y5086D01*
X381735Y5070D01*
X381727Y5052D01*
X381721Y5032D01*
X381708Y4986D01*
X381703Y4960D01*
X381698Y4932D01*
X381693Y4903D01*
X381688Y4870D01*
X381686Y4834D01*
X381683Y4798D01*
X381681Y4757D01*
Y4683D01*
D02*
G37*
%LPD*%
G36*
X382465Y4648D02*
X382464Y4703D01*
Y4716D01*
X382465Y4732D01*
Y4753D01*
X382467Y4780D01*
X382470Y4811D01*
X382475Y4844D01*
X382480Y4881D01*
X382487Y4921D01*
X382506Y5003D01*
X382519Y5045D01*
X382534Y5088D01*
X382552Y5129D01*
X382572Y5168D01*
X382595Y5206D01*
X382596Y5208D01*
X382601Y5214D01*
X382608Y5224D01*
X382619Y5237D01*
X382632Y5252D01*
X382647Y5268D01*
X382665Y5286D01*
X382687Y5305D01*
X382710Y5322D01*
X382734Y5341D01*
X382762Y5357D01*
X382791Y5372D01*
X382824Y5385D01*
X382857Y5395D01*
X382892Y5401D01*
X382929Y5403D01*
X382946D01*
X382956Y5401D01*
X382965D01*
X382992Y5396D01*
X383023Y5391D01*
X383059Y5383D01*
X383097Y5372D01*
X383138Y5355D01*
Y5119D01*
X383136D01*
X383133Y5122D01*
X383128Y5126D01*
X383120Y5129D01*
X383102Y5141D01*
X383077Y5152D01*
X383021Y5175D01*
X382992Y5181D01*
X382965Y5185D01*
X382954D01*
X382946Y5183D01*
X382936Y5181D01*
X382923Y5178D01*
X382896Y5168D01*
X382880Y5162D01*
X382865Y5154D01*
X382849Y5144D01*
X382833Y5131D01*
X382816Y5116D01*
X382801Y5099D01*
X382787Y5080D01*
X382772Y5057D01*
Y5055D01*
X382769Y5050D01*
X382760Y5034D01*
X382755Y5021D01*
X382749Y5004D01*
X382742Y4986D01*
X382736Y4965D01*
X382729Y4942D01*
X382723Y4916D01*
X382716Y4888D01*
X382711Y4857D01*
X382706Y4824D01*
X382703Y4788D01*
X382701Y4750D01*
X382700Y4711D01*
Y4690D01*
X382701Y4675D01*
Y4657D01*
X382705Y4637D01*
X382706Y4612D01*
X382710Y4588D01*
X382719Y4534D01*
X382733Y4476D01*
X382752Y4420D01*
X382765Y4394D01*
X382778Y4370D01*
X382780Y4368D01*
X382782Y4365D01*
X382787Y4358D01*
X382793Y4350D01*
X382810Y4330D01*
X382834Y4307D01*
X382864Y4284D01*
X382900Y4265D01*
X382921Y4256D01*
X382942Y4250D01*
X382964Y4247D01*
X382988Y4245D01*
X382992D01*
X383001Y4247D01*
X383018Y4248D01*
X383039Y4255D01*
X383064Y4263D01*
X383092Y4276D01*
X383124Y4294D01*
X383141Y4306D01*
X383157Y4319D01*
Y4097D01*
X383156D01*
X383152Y4094D01*
X383146Y4091D01*
X383138Y4086D01*
X383128Y4081D01*
X383116Y4075D01*
X383102Y4070D01*
X383087Y4063D01*
X383052Y4050D01*
X383015Y4038D01*
X382972Y4030D01*
X382929Y4027D01*
X382921D01*
X382910Y4029D01*
X382896Y4030D01*
X382878Y4033D01*
X382859Y4037D01*
X382838Y4043D01*
X382813Y4051D01*
X382787Y4061D01*
X382760Y4073D01*
X382733Y4089D01*
X382705Y4107D01*
X382677Y4129D01*
X382649Y4155D01*
X382623Y4184D01*
X382596Y4217D01*
X382595Y4219D01*
X382592Y4225D01*
X382585Y4237D01*
X382575Y4252D01*
X382565Y4271D01*
X382554Y4293D01*
X382542Y4321D01*
X382531Y4350D01*
X382518Y4383D01*
X382506Y4420D01*
X382495Y4460D01*
X382485Y4502D01*
X382477Y4548D01*
X382470Y4598D01*
X382465Y4648D01*
D02*
G37*
G36*
X383293Y4114D02*
X383269Y4132D01*
Y4386D01*
X383302Y4353D01*
X383315Y4342D01*
X383346Y4316D01*
X383380Y4289D01*
X383398Y4278D01*
X383418Y4266D01*
X383438Y4258D01*
X383457Y4252D01*
X383477Y4247D01*
X383495Y4245D01*
X383503D01*
X383513Y4247D01*
X383525Y4248D01*
X383536Y4253D01*
X383551Y4258D01*
X383564Y4266D01*
X383577Y4276D01*
X383582Y4281D01*
X383595Y4298D01*
X383600Y4309D01*
X383607Y4324D01*
X383610Y4338D01*
X383611Y4357D01*
Y4366D01*
X383610Y4373D01*
X383608Y4383D01*
X383605Y4396D01*
X383600Y4409D01*
X383595Y4425D01*
X383589Y4445D01*
X383580Y4465D01*
X383569Y4489D01*
X383556Y4514D01*
X383541Y4542D01*
X383523Y4573D01*
X383503Y4606D01*
X383480Y4640D01*
X383479Y4642D01*
X383475Y4648D01*
X383469Y4658D01*
X383459Y4671D01*
X383449Y4688D01*
X383438Y4706D01*
X383412Y4749D01*
X383384Y4794D01*
X383357Y4842D01*
X383334Y4886D01*
X383325Y4908D01*
X383318Y4926D01*
Y4927D01*
X383316Y4931D01*
X383315Y4936D01*
X383313Y4942D01*
X383308Y4960D01*
X383302Y4981D01*
X383295Y5008D01*
X383290Y5037D01*
X383287Y5067D01*
X383285Y5096D01*
Y5109D01*
X383287Y5117D01*
Y5129D01*
X383290Y5142D01*
X383295Y5173D01*
X383305Y5208D01*
X383318Y5244D01*
X383338Y5280D01*
X383351Y5298D01*
X383364Y5314D01*
X383372Y5322D01*
X383379Y5327D01*
X383387Y5336D01*
X383395Y5342D01*
X383420Y5359D01*
X383449Y5375D01*
X383484Y5390D01*
X383523Y5400D01*
X383543Y5401D01*
X383566Y5403D01*
X383577D01*
X383585Y5401D01*
X383595Y5400D01*
X383607Y5398D01*
X383634Y5393D01*
X383669Y5383D01*
X383705Y5368D01*
X383725Y5359D01*
X383744Y5347D01*
X383766Y5334D01*
X383785Y5319D01*
Y5103D01*
X383784Y5104D01*
X383781Y5106D01*
X383774Y5111D01*
X383766Y5117D01*
X383756Y5124D01*
X383746Y5132D01*
X383718Y5149D01*
X383687Y5165D01*
X383654Y5180D01*
X383621Y5191D01*
X383589Y5195D01*
X383585D01*
X383574Y5193D01*
X383559Y5190D01*
X383543Y5183D01*
X383518Y5163D01*
X383511Y5154D01*
X383505Y5142D01*
X383500Y5129D01*
X383498Y5114D01*
X383497Y5096D01*
Y5093D01*
X383498Y5088D01*
Y5080D01*
X383502Y5072D01*
X383503Y5060D01*
X383508Y5047D01*
X383513Y5032D01*
X383520Y5014D01*
X383529Y4995D01*
X383539Y4972D01*
X383553Y4947D01*
X383567Y4921D01*
X383585Y4891D01*
X383607Y4860D01*
X383630Y4826D01*
X383631Y4824D01*
X383636Y4817D01*
X383643Y4808D01*
X383651Y4794D01*
X383662Y4780D01*
X383674Y4762D01*
X383687Y4742D01*
X383702Y4721D01*
X383730Y4675D01*
X383759Y4627D01*
X383792Y4562D01*
X383800Y4542D01*
Y4540D01*
X383802Y4537D01*
X383803Y4532D01*
X383807Y4526D01*
X383812Y4507D01*
X383820Y4483D01*
X383826Y4455D01*
X383831Y4425D01*
X383836Y4394D01*
X383838Y4363D01*
Y4348D01*
X383836Y4338D01*
X383835Y4327D01*
X383833Y4312D01*
X383830Y4296D01*
X383826Y4278D01*
X383817Y4240D01*
X383800Y4199D01*
X383790Y4179D01*
X383764Y4140D01*
X383748Y4122D01*
X383739Y4114D01*
X383723Y4101D01*
X383713Y4092D01*
X383700Y4083D01*
X383687Y4075D01*
X383654Y4056D01*
X383616Y4042D01*
X383595Y4035D01*
X383549Y4029D01*
X383525Y4027D01*
X383511D01*
X383503Y4029D01*
X383492Y4030D01*
X383479Y4032D01*
X383462Y4035D01*
X383446Y4040D01*
X383406Y4053D01*
X383385Y4061D01*
X383364Y4071D01*
X383341Y4083D01*
X383316Y4097D01*
X383293Y4114D01*
D02*
G37*
G36*
X383946Y3338D02*
X383948Y3341D01*
X383953Y3350D01*
X383961Y3363D01*
X383971Y3382D01*
X383984Y3405D01*
X383997Y3433D01*
X384013Y3466D01*
X384030Y3500D01*
X384048Y3540D01*
X384066Y3582D01*
X384084Y3628D01*
X384102Y3676D01*
X384120Y3727D01*
X384136Y3779D01*
X384151Y3833D01*
X384164Y3889D01*
Y3892D01*
X384168Y3902D01*
X384169Y3911D01*
X384171Y3920D01*
X384174Y3943D01*
X384181Y3974D01*
X384186Y4011D01*
X384192Y4053D01*
X384199Y4101D01*
X384204Y4157D01*
X384210Y4216D01*
X384217Y4283D01*
X384222Y4353D01*
X384225Y4430D01*
X384228Y4512D01*
X384231Y4599D01*
Y4757D01*
X384230Y4775D01*
Y4817D01*
X384228Y4840D01*
Y4867D01*
X384226Y4921D01*
X384223Y4980D01*
X384220Y5044D01*
X384215Y5109D01*
X384204Y5242D01*
X384195Y5309D01*
X384187Y5373D01*
X384176Y5436D01*
X384164Y5495D01*
Y5498D01*
X384161Y5508D01*
X384158Y5524D01*
X384151Y5546D01*
X384144Y5572D01*
X384135Y5603D01*
X384125Y5639D01*
X384112Y5677D01*
X384097Y5718D01*
X384082Y5762D01*
X384064Y5808D01*
X384045Y5854D01*
X384021Y5903D01*
X383999Y5951D01*
X383974Y5998D01*
X383946Y6046D01*
X384079D01*
Y6044D01*
X384081Y6042D01*
X384084Y6038D01*
X384089Y6031D01*
X384094Y6023D01*
X384099Y6013D01*
X384113Y5988D01*
X384131Y5959D01*
X384151Y5923D01*
X384172Y5883D01*
X384197Y5839D01*
X384222Y5792D01*
X384246Y5742D01*
X384271Y5688D01*
X384297Y5634D01*
X384320Y5578D01*
X384343Y5521D01*
X384364Y5465D01*
X384382Y5408D01*
Y5406D01*
X384384Y5404D01*
Y5400D01*
X384386Y5395D01*
X384390Y5377D01*
X384397Y5354D01*
X384404Y5326D01*
X384412Y5291D01*
X384420Y5250D01*
X384430Y5206D01*
X384438Y5155D01*
X384446Y5101D01*
X384454Y5042D01*
X384461Y4978D01*
X384468Y4913D01*
X384472Y4842D01*
X384474Y4768D01*
X384476Y4691D01*
Y4650D01*
X384474Y4637D01*
Y4604D01*
X384472Y4586D01*
X384471Y4544D01*
X384468Y4498D01*
X384464Y4447D01*
X384459Y4391D01*
X384453Y4334D01*
X384446Y4275D01*
X384436Y4214D01*
X384414Y4092D01*
X384399Y4033D01*
X384382Y3976D01*
X384381Y3973D01*
Y3968D01*
X384377Y3963D01*
X384372Y3947D01*
X384364Y3924D01*
X384354Y3896D01*
X384343Y3863D01*
X384327Y3825D01*
X384310Y3784D01*
X384291Y3738D01*
X384267Y3689D01*
X384243Y3637D01*
X384186Y3522D01*
X384153Y3463D01*
X384117Y3400D01*
X384079Y3338D01*
X383946D01*
D02*
G37*
D10*
X314528Y8563D02*
Y323063D01*
Y8563D02*
X397205D01*
Y323063D01*
X314528D02*
X397205D01*
X316830Y8563D02*
Y73063D01*
X394366Y8563D02*
Y73063D01*
X316830D02*
X394366D01*
X316830Y8563D02*
X394366D01*
X334366Y290063D02*
Y323063D01*
X376366Y290063D02*
Y323063D01*
X334366D02*
X376366D01*
X334366Y290063D02*
X376366D01*
D22*
X316929Y58031D02*
X332087Y73189D01*
X338386Y8622D02*
X394488Y64724D01*
X350000Y8425D02*
X393898Y52323D01*
X362205Y8819D02*
X394291Y40905D01*
X374016Y8819D02*
X394291Y29094D01*
X385827Y8819D02*
X394488Y17480D01*
X334646Y315905D02*
X341732Y322992D01*
X334646Y304095D02*
X353150Y322598D01*
X334842Y292480D02*
X364961Y322598D01*
X344488Y290315D02*
X376181Y322008D01*
X356299Y290315D02*
X375787Y309803D01*
X368110Y290315D02*
X375984Y298189D01*
X316929Y10787D02*
X378937Y72795D01*
X326772Y8819D02*
X390551Y72598D01*
X316929Y22598D02*
X367126Y72795D01*
X316929Y34409D02*
X355118Y72598D01*
X316929Y46220D02*
X343898Y73189D01*
D147*
X26658Y185143D02*
X59158D01*
Y134543D02*
Y185143D01*
X26658Y134543D02*
X59158D01*
X26658D02*
Y185143D01*
M02*
