G04*
G04 #@! TF.GenerationSoftware,Altium Limited,Altium Designer,26.9.1 (10)*
G04*
G04 Layer_Color=8388736*
G04 Board_Origin=24507875|15551181*
%FSLAX25Y25*%
%MOIN*%
G70*
G04*
G04 #@! TF.SameCoordinates,E31FBE90-4C1D-45C5-8F2B-B1877BC71EBF*
G04*
G04*
G04 #@! TF.FilePolarity,Positive*
G04*
G01*
G75*
%ADD12C,0.01000*%
%ADD148C,0.00039*%
G36*
X347986Y41649D02*
Y42298D01*
X348622D01*
Y43242D01*
X349363D01*
Y42298D01*
X351260D01*
Y41611D01*
X349504Y38637D01*
X348622D01*
Y41649D01*
X347986D01*
D02*
G37*
%LPC*%
G36*
X349359Y39507D02*
X350515Y41649D01*
X349359D01*
Y39507D01*
D02*
G37*
%LPD*%
G36*
X348206Y51003D02*
X348202Y51136D01*
Y51178D01*
X348206Y51211D01*
X348211Y51248D01*
X348215Y51290D01*
X348223Y51340D01*
X348231Y51394D01*
X348256Y51510D01*
X348298Y51639D01*
X348323Y51702D01*
X348389Y51827D01*
X348431Y51889D01*
X348443Y51901D01*
X348456Y51918D01*
X348473Y51939D01*
X348493Y51968D01*
X348589Y52064D01*
X348631Y52101D01*
X348676Y52143D01*
X348776Y52218D01*
X348893Y52293D01*
X349022Y52359D01*
X349026D01*
X349038Y52367D01*
X349059Y52372D01*
X349084Y52384D01*
X349117Y52397D01*
X349155Y52409D01*
X349201Y52421D01*
X349251Y52438D01*
X349305Y52455D01*
X349359Y52467D01*
X349488Y52492D01*
X349625Y52509D01*
X349766Y52517D01*
X349804D01*
X349833Y52513D01*
X349866D01*
X349908Y52509D01*
X349954Y52505D01*
X350003Y52500D01*
X350116Y52480D01*
X350236Y52455D01*
X350365Y52421D01*
X350494Y52372D01*
X350499D01*
X350511Y52363D01*
X350528Y52355D01*
X350548Y52342D01*
X350577Y52326D01*
X350611Y52309D01*
X350690Y52259D01*
X350777Y52193D01*
X350869Y52114D01*
X350960Y52018D01*
X351048Y51910D01*
X351052Y51906D01*
X351056Y51893D01*
X351068Y51876D01*
X351081Y51851D01*
X351097Y51822D01*
X351114Y51785D01*
X351135Y51739D01*
X351152Y51689D01*
X351172Y51631D01*
X351193Y51569D01*
X351226Y51427D01*
X351251Y51261D01*
X351256Y51169D01*
X351260Y51074D01*
X350494D01*
Y51123D01*
X350490Y51148D01*
Y51178D01*
X350482Y51244D01*
X350469Y51323D01*
X350449Y51398D01*
X350424Y51477D01*
X350386Y51544D01*
X350382Y51552D01*
X350365Y51573D01*
X350345Y51602D01*
X350311Y51639D01*
X350270Y51677D01*
X350224Y51723D01*
X350170Y51760D01*
X350112Y51797D01*
X350103Y51802D01*
X350082Y51810D01*
X350049Y51822D01*
X350003Y51839D01*
X349949Y51856D01*
X349891Y51868D01*
X349829Y51876D01*
X349762Y51881D01*
X349729D01*
X349691Y51876D01*
X349641Y51868D01*
X349583Y51860D01*
X349517Y51843D01*
X349450Y51822D01*
X349384Y51793D01*
X349379D01*
X349375Y51789D01*
X349355Y51777D01*
X349321Y51756D01*
X349280Y51727D01*
X349234Y51693D01*
X349184Y51648D01*
X349138Y51598D01*
X349092Y51539D01*
X349088Y51531D01*
X349076Y51510D01*
X349055Y51473D01*
X349034Y51423D01*
X349018Y51365D01*
X348997Y51298D01*
X348984Y51219D01*
X348980Y51136D01*
Y51107D01*
X348984Y51086D01*
Y51061D01*
X348988Y51032D01*
X349001Y50961D01*
X349018Y50878D01*
X349047Y50795D01*
X349084Y50708D01*
X349134Y50620D01*
Y50616D01*
X349142Y50612D01*
X349151Y50599D01*
X349163Y50583D01*
X349196Y50541D01*
X349246Y50491D01*
X349313Y50437D01*
X349392Y50379D01*
X349483Y50321D01*
X349587Y50271D01*
X349592D01*
X349617Y50258D01*
X349641Y50250D01*
X349671Y50242D01*
X349704Y50229D01*
X349745Y50221D01*
X349845Y50196D01*
X349904Y50183D01*
X349966Y50175D01*
X350107Y50158D01*
X350186Y50150D01*
X350266Y50146D01*
X350353D01*
Y49559D01*
X349117Y48499D01*
X351118D01*
Y47850D01*
X348269D01*
Y48586D01*
X349446Y49655D01*
X349442D01*
X349429Y49659D01*
X349409Y49663D01*
X349379Y49668D01*
X349346Y49676D01*
X349309Y49684D01*
X349263Y49697D01*
X349217Y49713D01*
X349109Y49747D01*
X348997Y49797D01*
X348880Y49859D01*
X348768Y49934D01*
X348764Y49938D01*
X348755Y49942D01*
X348739Y49955D01*
X348722Y49971D01*
X348697Y49992D01*
X348668Y50017D01*
X348606Y50079D01*
X348535Y50158D01*
X348464Y50250D01*
X348398Y50354D01*
X348339Y50466D01*
Y50470D01*
X348327Y50495D01*
X348319Y50520D01*
X348306Y50550D01*
X348298Y50583D01*
X348285Y50624D01*
X348269Y50666D01*
X348244Y50766D01*
X348223Y50882D01*
X348206Y51003D01*
D02*
G37*
G36*
X351997Y41469D02*
X351988Y41631D01*
Y41677D01*
X351993Y41710D01*
Y41752D01*
X351997Y41798D01*
X352005Y41852D01*
X352013Y41910D01*
X352022Y41973D01*
X352034Y42039D01*
X352067Y42180D01*
X352117Y42326D01*
X352147Y42397D01*
X352180Y42468D01*
Y42472D01*
X352188Y42484D01*
X352201Y42501D01*
X352213Y42526D01*
X352255Y42592D01*
X352317Y42676D01*
X352392Y42767D01*
X352479Y42863D01*
X352583Y42954D01*
X352704Y43038D01*
X352708Y43042D01*
X352720Y43046D01*
X352737Y43054D01*
X352762Y43071D01*
X352795Y43083D01*
X352833Y43100D01*
X352879Y43121D01*
X352924Y43137D01*
X352983Y43158D01*
X353041Y43175D01*
X353103Y43196D01*
X353170Y43208D01*
X353315Y43233D01*
X353473Y43241D01*
X353511D01*
X353540Y43237D01*
X353577D01*
X353619Y43233D01*
X353665Y43229D01*
X353715Y43225D01*
X353827Y43208D01*
X353948Y43183D01*
X354077Y43154D01*
X354202Y43108D01*
X354206D01*
X354214Y43100D01*
X354231Y43096D01*
X354256Y43083D01*
X354314Y43050D01*
X354389Y43004D01*
X354472Y42946D01*
X354559Y42875D01*
X354647Y42792D01*
X354726Y42692D01*
Y42688D01*
X354734Y42680D01*
X354742Y42663D01*
X354755Y42642D01*
X354771Y42613D01*
X354805Y42538D01*
X354821Y42492D01*
X354842Y42438D01*
X354859Y42380D01*
X354875Y42318D01*
X354892Y42251D01*
X354905Y42180D01*
X354913Y42101D01*
X354917Y42018D01*
X354921Y41931D01*
X354172D01*
Y41948D01*
X354168Y41964D01*
Y41989D01*
X354164Y42018D01*
X354160Y42052D01*
X354143Y42126D01*
X354118Y42214D01*
X354085Y42297D01*
X354039Y42372D01*
X354010Y42409D01*
X353977Y42438D01*
X353973D01*
X353969Y42443D01*
X353944Y42459D01*
X353902Y42484D01*
X353848Y42509D01*
X353781Y42538D01*
X353702Y42559D01*
X353611Y42576D01*
X353511Y42584D01*
X353473D01*
X353428Y42576D01*
X353374Y42567D01*
X353315Y42555D01*
X353249Y42534D01*
X353182Y42505D01*
X353116Y42463D01*
X353107Y42459D01*
X353087Y42443D01*
X353020Y42376D01*
X352978Y42326D01*
X352937Y42268D01*
X352895Y42201D01*
X352858Y42122D01*
Y42118D01*
X352854Y42114D01*
X352850Y42101D01*
X352841Y42085D01*
X352837Y42064D01*
X352808Y41977D01*
X352791Y41902D01*
X352779Y41819D01*
X352766Y41723D01*
X352762Y41619D01*
Y41577D01*
X352766Y41552D01*
Y41527D01*
X352770Y41465D01*
X352783Y41394D01*
X352795Y41315D01*
X352816Y41236D01*
X352845Y41157D01*
Y41153D01*
X352850Y41149D01*
X352862Y41124D01*
X352879Y41086D01*
X352908Y41041D01*
X352941Y40987D01*
X352983Y40933D01*
X353032Y40883D01*
X353087Y40837D01*
X353095Y40833D01*
X353116Y40820D01*
X353145Y40799D01*
X353191Y40779D01*
X353245Y40762D01*
X353307Y40741D01*
X353378Y40729D01*
X353457Y40725D01*
X353482D01*
X353499Y40729D01*
X353544Y40733D01*
X353598Y40741D01*
X353665Y40762D01*
X353736Y40787D01*
X353811Y40820D01*
X353881Y40870D01*
X353944Y40933D01*
X353981Y40978D01*
X354023Y41041D01*
X354064Y41120D01*
X354102Y41211D01*
X354135Y41315D01*
X354875D01*
X354547Y38578D01*
X352134D01*
Y39248D01*
X353881D01*
X354072Y40491D01*
X354068Y40487D01*
X354060Y40462D01*
X354039Y40425D01*
X354014Y40379D01*
X353977Y40325D01*
X353927Y40271D01*
X353865Y40221D01*
X353794Y40171D01*
X353790D01*
X353785Y40167D01*
X353773Y40159D01*
X353756Y40150D01*
X353711Y40134D01*
X353652Y40109D01*
X353582Y40088D01*
X353503Y40067D01*
X353411Y40055D01*
X353315Y40051D01*
X353274D01*
X353245Y40055D01*
X353211Y40059D01*
X353170Y40063D01*
X353124Y40067D01*
X353070Y40076D01*
X352962Y40100D01*
X352841Y40138D01*
X352779Y40163D01*
X352720Y40192D01*
X352662Y40225D01*
X352604Y40263D01*
X352600Y40267D01*
X352592Y40271D01*
X352575Y40284D01*
X352554Y40300D01*
X352529Y40321D01*
X352500Y40346D01*
X352396Y40450D01*
X352359Y40492D01*
X352284Y40591D01*
X352209Y40704D01*
X352147Y40833D01*
Y40837D01*
X352138Y40849D01*
X352130Y40870D01*
X352121Y40895D01*
X352109Y40928D01*
X352097Y40970D01*
X352084Y41016D01*
X352067Y41066D01*
X352051Y41124D01*
X352026Y41249D01*
X352013Y41319D01*
X351997Y41469D01*
D02*
G37*
G36*
Y51811D02*
Y52456D01*
X354921D01*
Y51711D01*
X354651Y51466D01*
X354643Y51462D01*
X354626Y51445D01*
X354597Y51420D01*
X354559Y51387D01*
X354514Y51345D01*
X354459Y51295D01*
X354401Y51241D01*
X354268Y51116D01*
X354193Y51050D01*
X354043Y50904D01*
X353889Y50759D01*
X353744Y50617D01*
X353707Y50580D01*
X353681Y50551D01*
X353648Y50517D01*
X353611Y50476D01*
X353569Y50430D01*
X353523Y50380D01*
X353478Y50322D01*
X353424Y50264D01*
X353315Y50130D01*
X353207Y49985D01*
X353103Y49835D01*
X353099Y49831D01*
X353091Y49818D01*
X353078Y49793D01*
X353062Y49764D01*
X353041Y49731D01*
X353016Y49685D01*
X352995Y49639D01*
X352966Y49585D01*
X352920Y49469D01*
X352874Y49344D01*
X352858Y49278D01*
X352845Y49211D01*
X352837Y49149D01*
X352833Y49082D01*
Y49049D01*
X352837Y49016D01*
X352841Y48970D01*
X352854Y48916D01*
X352866Y48858D01*
X352887Y48799D01*
X352912Y48745D01*
X352924Y48720D01*
X352945Y48695D01*
X352970Y48662D01*
X352999Y48625D01*
X353037Y48587D01*
X353082Y48550D01*
X353132Y48516D01*
X353136Y48512D01*
X353157Y48504D01*
X353186Y48491D01*
X353224Y48475D01*
X353270Y48462D01*
X353324Y48450D01*
X353382Y48441D01*
X353444Y48437D01*
X353478D01*
X353515Y48441D01*
X353561Y48450D01*
X353615Y48458D01*
X353673Y48475D01*
X353731Y48500D01*
X353794Y48529D01*
X353802Y48533D01*
X353819Y48545D01*
X353848Y48566D01*
X353881Y48595D01*
X353960Y48674D01*
X353998Y48728D01*
X354035Y48787D01*
X354039Y48795D01*
X354048Y48816D01*
X354064Y48853D01*
X354093Y48970D01*
X354110Y49045D01*
X354118Y49132D01*
X354122Y49232D01*
X354880D01*
Y49207D01*
X354875Y49182D01*
Y49145D01*
X354871Y49103D01*
X354867Y49053D01*
X354859Y48995D01*
X354851Y48932D01*
X354825Y48803D01*
X354792Y48662D01*
X354742Y48525D01*
X354713Y48462D01*
X354680Y48400D01*
X354676Y48396D01*
X354672Y48387D01*
X354659Y48371D01*
X354626Y48321D01*
X354601Y48292D01*
X354543Y48221D01*
X354468Y48146D01*
X354376Y48067D01*
X354272Y47992D01*
X354156Y47926D01*
X354152D01*
X354139Y47917D01*
X354122Y47909D01*
X354098Y47901D01*
X354068Y47888D01*
X354031Y47876D01*
X353989Y47863D01*
X353889Y47830D01*
X353831Y47818D01*
X353707Y47793D01*
X353569Y47776D01*
X353419Y47767D01*
X353357D01*
X353324Y47772D01*
X353286Y47776D01*
X353245Y47780D01*
X353199Y47784D01*
X353095Y47801D01*
X352978Y47826D01*
X352862Y47863D01*
X352741Y47909D01*
X352737D01*
X352729Y47917D01*
X352712Y47921D01*
X352687Y47934D01*
X352662Y47951D01*
X352629Y47967D01*
X352558Y48013D01*
X352479Y48075D01*
X352392Y48146D01*
X352309Y48233D01*
X352234Y48338D01*
X352230Y48342D01*
X352217Y48367D01*
X352205Y48387D01*
X352188Y48417D01*
X352171Y48450D01*
X352155Y48487D01*
X352138Y48533D01*
X352121Y48583D01*
X352105Y48637D01*
X352088Y48695D01*
X352072Y48758D01*
X352051Y48895D01*
X352043Y48966D01*
Y49086D01*
X352047Y49119D01*
X352051Y49157D01*
X352067Y49257D01*
X352076Y49319D01*
X352092Y49382D01*
X352113Y49452D01*
X352134Y49527D01*
X352192Y49685D01*
X352234Y49768D01*
X352275Y49856D01*
X352325Y49943D01*
X352329Y49947D01*
X352338Y49964D01*
X352355Y49989D01*
X352375Y50022D01*
X352400Y50064D01*
X352433Y50114D01*
X352471Y50168D01*
X352513Y50226D01*
X352558Y50293D01*
X352604Y50363D01*
X352716Y50509D01*
X352841Y50659D01*
X352974Y50813D01*
X352991Y50829D01*
X353012Y50854D01*
X353041Y50883D01*
X353074Y50921D01*
X353170Y51016D01*
X353224Y51075D01*
X353590Y51441D01*
X353773Y51616D01*
X353869Y51707D01*
X354068Y51811D01*
X351997D01*
D02*
G37*
G36*
X355304Y46159D02*
X355295Y46280D01*
Y49125D01*
X356069D01*
Y46343D01*
X356073Y46301D01*
Y46251D01*
X356078Y46197D01*
Y46139D01*
X356086Y46010D01*
X356119Y45752D01*
X356132Y45693D01*
X356144Y45640D01*
Y45635D01*
X356148Y45627D01*
X356153Y45614D01*
X356161Y45594D01*
X356177Y45548D01*
X356240Y45423D01*
X356281Y45361D01*
X356331Y45303D01*
X356390Y45253D01*
X356423Y45236D01*
X356460Y45215D01*
X356514Y45199D01*
X356581Y45178D01*
X356664Y45157D01*
X356764Y45144D01*
X356872Y45140D01*
X356922D01*
X356947Y45144D01*
X356976D01*
X357039Y45153D01*
X357188Y45186D01*
X357263Y45215D01*
X357330Y45253D01*
X357338Y45257D01*
X357384Y45303D01*
X357421Y45344D01*
X357459Y45398D01*
X357500Y45469D01*
X357534Y45548D01*
X357567Y45644D01*
Y45648D01*
X357571Y45656D01*
X357575Y45673D01*
X357579Y45693D01*
X357583Y45723D01*
X357600Y45798D01*
X357609Y45847D01*
X357613Y45897D01*
X357621Y45956D01*
X357629Y46022D01*
X357633Y46093D01*
X357638Y46168D01*
X357642Y46247D01*
X357646Y46334D01*
Y48334D01*
X357583Y48271D01*
X357491Y48175D01*
X357391Y48067D01*
X357291Y47951D01*
X357191Y47830D01*
X356568D01*
Y51782D01*
X355573D01*
Y52435D01*
X358373D01*
Y51782D01*
X357291D01*
Y48845D01*
X357300Y48853D01*
X357308Y48866D01*
X357320Y48882D01*
X357362Y48932D01*
X357416Y48995D01*
X357483Y49065D01*
X357570Y49145D01*
X357670Y49228D01*
X357782Y49311D01*
X357786Y49315D01*
X357795Y49319D01*
X357816Y49332D01*
X357836Y49348D01*
X357866Y49365D01*
X357903Y49386D01*
X357944Y49407D01*
X357986Y49431D01*
X358036Y49457D01*
X358090Y49481D01*
X358207Y49536D01*
X358331Y49581D01*
X358465Y49619D01*
Y48916D01*
X358460D01*
X358448Y48907D01*
X358428Y48897D01*
Y46288D01*
X358424Y46230D01*
X358420Y46164D01*
X358416Y46085D01*
X358411Y46001D01*
X358395Y45827D01*
X358370Y45640D01*
X358336Y45456D01*
X358316Y45369D01*
X358291Y45286D01*
Y45282D01*
X358282Y45269D01*
X358278Y45244D01*
X358266Y45215D01*
X358249Y45182D01*
X358232Y45140D01*
X358208Y45099D01*
X358183Y45049D01*
X358116Y44949D01*
X358079Y44899D01*
X358033Y44845D01*
X357987Y44795D01*
X357879Y44704D01*
X357817Y44662D01*
X357812Y44658D01*
X357800Y44654D01*
X357779Y44645D01*
X357754Y44629D01*
X357717Y44616D01*
X357675Y44600D01*
X357625Y44579D01*
X357571Y44562D01*
X357505Y44541D01*
X357434Y44525D01*
X357355Y44504D01*
X357267Y44491D01*
X357176Y44479D01*
X357076Y44466D01*
X356972Y44462D01*
X356860Y44458D01*
X356806D01*
X356764Y44462D01*
X356718Y44466D01*
X356664Y44471D01*
X356602Y44475D01*
X356535Y44483D01*
X356390Y44508D01*
X356236Y44545D01*
X356161Y44566D01*
X356086Y44595D01*
X356015Y44624D01*
X355949Y44662D01*
X355944Y44666D01*
X355932Y44670D01*
X355915Y44683D01*
X355890Y44699D01*
X355865Y44724D01*
X355832Y44749D01*
X355795Y44783D01*
X355716Y44862D01*
X355674Y44907D01*
X355591Y45015D01*
X355553Y45078D01*
X355516Y45144D01*
X355479Y45219D01*
X355449Y45294D01*
Y45298D01*
X355441Y45315D01*
X355437Y45340D01*
X355424Y45373D01*
X355412Y45415D01*
X355399Y45465D01*
X355387Y45523D01*
X355375Y45594D01*
X355358Y45669D01*
X355345Y45752D01*
X355333Y45843D01*
X355321Y45943D01*
X355308Y46047D01*
X355304Y46159D01*
D02*
G37*
G36*
X355637Y41565D02*
X355629Y41719D01*
Y41760D01*
X355633Y41794D01*
Y41831D01*
X355637Y41877D01*
X355645Y41927D01*
X355649Y41985D01*
X355675Y42106D01*
X355708Y42239D01*
X355749Y42376D01*
X355779Y42447D01*
X355812Y42513D01*
Y42518D01*
X355820Y42530D01*
X355833Y42547D01*
X355845Y42572D01*
X355866Y42601D01*
X355887Y42634D01*
X355945Y42713D01*
X356020Y42800D01*
X356107Y42892D01*
X356211Y42979D01*
X356328Y43058D01*
X356332D01*
X356344Y43067D01*
X356419Y43104D01*
X356456Y43121D01*
X356498Y43137D01*
X356548Y43154D01*
X356602Y43175D01*
X356660Y43191D01*
X356723Y43208D01*
X356789Y43225D01*
X356935Y43246D01*
X357093Y43254D01*
X357131D01*
X357176Y43250D01*
X357235Y43246D01*
X357305Y43233D01*
X357384Y43220D01*
X357476Y43200D01*
X357571Y43175D01*
X357667Y43141D01*
X357771Y43100D01*
X357871Y43050D01*
X357971Y42988D01*
X358067Y42913D01*
X358158Y42829D01*
X358241Y42734D01*
X358312Y42621D01*
X358316Y42613D01*
X358329Y42592D01*
X358345Y42555D01*
X358366Y42505D01*
X358395Y42443D01*
X358424Y42368D01*
X358457Y42276D01*
X358487Y42176D01*
X358520Y42060D01*
X358553Y41935D01*
X358582Y41798D01*
X358611Y41648D01*
X358632Y41490D01*
X358649Y41319D01*
X358661Y41140D01*
X358665Y40949D01*
Y40887D01*
X358661Y40837D01*
Y40779D01*
X358657Y40712D01*
X358653Y40637D01*
X358645Y40554D01*
X358641Y40462D01*
X358628Y40367D01*
X358603Y40163D01*
X358566Y39955D01*
X358516Y39747D01*
Y39739D01*
X358507Y39722D01*
X358499Y39693D01*
X358487Y39655D01*
X358470Y39610D01*
X358449Y39556D01*
X358424Y39497D01*
X358395Y39431D01*
X358324Y39289D01*
X358283Y39219D01*
X358237Y39144D01*
X358187Y39069D01*
X358133Y38998D01*
X358075Y38927D01*
X357992Y38844D01*
X357971Y38828D01*
X357942Y38807D01*
X357908Y38782D01*
X357863Y38753D01*
X357813Y38719D01*
X357754Y38686D01*
X357692Y38657D01*
X357621Y38624D01*
X357542Y38595D01*
X357459Y38570D01*
X357372Y38549D01*
X357276Y38532D01*
X357176Y38520D01*
X357068Y38516D01*
X357006D01*
X356977Y38520D01*
X356939Y38524D01*
X356897Y38528D01*
X356852Y38532D01*
X356752Y38549D01*
X356644Y38570D01*
X356531Y38603D01*
X356423Y38649D01*
X356419D01*
X356394Y38661D01*
X356352Y38686D01*
X356323Y38703D01*
X356253Y38744D01*
X356178Y38803D01*
X356095Y38869D01*
X356016Y38948D01*
X355937Y39040D01*
X356411Y39452D01*
X356415Y39447D01*
X356436Y39431D01*
X356461Y39406D01*
X356498Y39373D01*
X356544Y39339D01*
X356594Y39306D01*
X356648Y39273D01*
X356715Y39239D01*
X356735Y39231D01*
X356768Y39223D01*
X356810Y39206D01*
X356864Y39194D01*
X356927Y39185D01*
X356997Y39177D01*
X357072Y39173D01*
X357093D01*
X357118Y39177D01*
X357151Y39181D01*
X357189Y39189D01*
X357235Y39198D01*
X357284Y39214D01*
X357334Y39235D01*
X357388Y39260D01*
X357447Y39294D01*
X357501Y39335D01*
X357555Y39381D01*
X357605Y39439D01*
X357650Y39506D01*
X357692Y39581D01*
X357730Y39668D01*
Y39672D01*
X357738Y39689D01*
X357746Y39718D01*
X357759Y39755D01*
X357771Y39805D01*
X357784Y39859D01*
X357800Y39926D01*
X357817Y40001D01*
X357834Y40080D01*
X357850Y40171D01*
X357867Y40267D01*
X357879Y40371D01*
X357892Y40479D01*
X357904Y40591D01*
X357908Y40712D01*
X357912Y40832D01*
X357908Y40828D01*
X357900Y40808D01*
X357888Y40770D01*
X357867Y40725D01*
X357838Y40670D01*
X357804Y40612D01*
X357763Y40546D01*
X357713Y40479D01*
X357655Y40417D01*
X357588Y40350D01*
X357513Y40292D01*
X357430Y40238D01*
X357334Y40192D01*
X357226Y40155D01*
X357110Y40134D01*
X357051Y40126D01*
X356947D01*
X356918Y40130D01*
X356885Y40134D01*
X356843Y40138D01*
X356798Y40142D01*
X356748Y40155D01*
X356640Y40180D01*
X356519Y40217D01*
X356461Y40242D01*
X356398Y40271D01*
X356336Y40308D01*
X356278Y40346D01*
X356274Y40350D01*
X356265Y40354D01*
X356248Y40367D01*
X356228Y40388D01*
X356199Y40408D01*
X356170Y40433D01*
X356136Y40467D01*
X356099Y40500D01*
X356061Y40541D01*
X356024Y40587D01*
X355945Y40687D01*
X355866Y40804D01*
X355799Y40933D01*
Y40937D01*
X355791Y40949D01*
X355783Y40970D01*
X355774Y40995D01*
X355758Y41028D01*
X355745Y41070D01*
X355729Y41116D01*
X355712Y41166D01*
X355699Y41224D01*
X355683Y41282D01*
X355654Y41415D01*
X355637Y41565D01*
D02*
G37*
%LPC*%
G36*
X356386Y41698D02*
X356390Y41677D01*
Y41652D01*
X356394Y41590D01*
X356407Y41515D01*
X356419Y41436D01*
X356440Y41353D01*
X356465Y41274D01*
Y41269D01*
X356469Y41265D01*
X356477Y41240D01*
X356498Y41199D01*
X356523Y41153D01*
X356552Y41099D01*
X356594Y41045D01*
X356640Y40991D01*
X356694Y40941D01*
X356702Y40937D01*
X356723Y40920D01*
X356756Y40903D01*
X356798Y40878D01*
X356856Y40858D01*
X356918Y40837D01*
X356993Y40824D01*
X357076Y40820D01*
X357114D01*
X357155Y40828D01*
X357209Y40837D01*
X357272Y40849D01*
X357339Y40874D01*
X357409Y40903D01*
X357476Y40945D01*
X357484Y40949D01*
X357505Y40966D01*
X357534Y40995D01*
X357576Y41032D01*
X357617Y41082D01*
X357663Y41140D01*
X357704Y41207D01*
X357742Y41282D01*
Y41286D01*
X357746Y41290D01*
X357750Y41303D01*
X357754Y41319D01*
X357771Y41361D01*
X357788Y41419D01*
X357804Y41490D01*
X357821Y41569D01*
X357829Y41656D01*
X357834Y41752D01*
Y41794D01*
X357829Y41844D01*
X357821Y41902D01*
X357813Y41973D01*
X357796Y42047D01*
X357775Y42122D01*
X357746Y42197D01*
X357730Y42230D01*
X357709Y42264D01*
X357680Y42305D01*
X357642Y42355D01*
X357600Y42401D01*
X357551Y42451D01*
X357492Y42492D01*
X357484Y42497D01*
X357463Y42509D01*
X357426Y42526D01*
X357380Y42542D01*
X357322Y42563D01*
X357255Y42580D01*
X357180Y42592D01*
X357097Y42597D01*
X357064D01*
X357039Y42592D01*
X357010Y42588D01*
X356977Y42584D01*
X356902Y42567D01*
X356814Y42542D01*
X356727Y42501D01*
X356644Y42443D01*
X356602Y42409D01*
X356569Y42368D01*
X356565Y42364D01*
X356560Y42355D01*
X356552Y42343D01*
X356540Y42326D01*
X356527Y42301D01*
X356511Y42272D01*
X356494Y42239D01*
X356477Y42201D01*
X356461Y42160D01*
X356444Y42114D01*
X356427Y42060D01*
X356415Y42006D01*
X356394Y41881D01*
X356386Y41814D01*
Y41698D01*
D02*
G37*
%LPD*%
G36*
X359127Y45681D02*
X359123Y45768D01*
X359872D01*
Y45752D01*
X359876Y45735D01*
Y45710D01*
X359880Y45681D01*
X359884Y45648D01*
X359901Y45573D01*
X359926Y45486D01*
X359959Y45402D01*
X360005Y45327D01*
X360034Y45290D01*
X360067Y45261D01*
X360071D01*
X360075Y45257D01*
X360100Y45240D01*
X360142Y45215D01*
X360196Y45190D01*
X360263Y45161D01*
X360342Y45140D01*
X360433Y45124D01*
X360533Y45115D01*
X360570D01*
X360616Y45124D01*
X360670Y45132D01*
X360729Y45144D01*
X360795Y45165D01*
X360862Y45194D01*
X360928Y45236D01*
X360936Y45240D01*
X360957Y45257D01*
X361024Y45323D01*
X361065Y45373D01*
X361107Y45432D01*
X361149Y45498D01*
X361186Y45577D01*
Y45581D01*
X361190Y45585D01*
X361194Y45598D01*
X361203Y45614D01*
X361207Y45635D01*
X361236Y45723D01*
X361253Y45798D01*
X361265Y45881D01*
X361278Y45976D01*
X361282Y46080D01*
Y46122D01*
X361278Y46147D01*
Y46172D01*
X361273Y46234D01*
X361261Y46305D01*
X361248Y46384D01*
X361228Y46463D01*
X361199Y46542D01*
Y46546D01*
X361194Y46551D01*
X361182Y46575D01*
X361165Y46613D01*
X361136Y46659D01*
X361103Y46713D01*
X361061Y46767D01*
X361011Y46817D01*
X360957Y46863D01*
X360949Y46867D01*
X360928Y46879D01*
X360899Y46900D01*
X360853Y46921D01*
X360799Y46937D01*
X360737Y46958D01*
X360666Y46971D01*
X360587Y46975D01*
X360562D01*
X360545Y46971D01*
X360500Y46966D01*
X360446Y46958D01*
X360379Y46937D01*
X360308Y46912D01*
X360233Y46879D01*
X360163Y46829D01*
X360100Y46767D01*
X360063Y46721D01*
X360021Y46659D01*
X359980Y46580D01*
X359942Y46488D01*
X359909Y46384D01*
X359169D01*
X359497Y49121D01*
X361910D01*
Y48452D01*
X360163D01*
X359972Y47209D01*
X359976Y47212D01*
X359984Y47237D01*
X360005Y47274D01*
X360030Y47320D01*
X360067Y47374D01*
X360117Y47428D01*
X360179Y47478D01*
X360250Y47528D01*
X360254D01*
X360258Y47532D01*
X360271Y47541D01*
X360287Y47549D01*
X360333Y47566D01*
X360391Y47591D01*
X360462Y47611D01*
X360541Y47632D01*
X360633Y47645D01*
X360729Y47649D01*
X360770D01*
X360799Y47645D01*
X360833Y47640D01*
X360874Y47636D01*
X360920Y47632D01*
X360974Y47624D01*
X361082Y47599D01*
X361203Y47561D01*
X361265Y47536D01*
X361323Y47507D01*
X361382Y47474D01*
X361440Y47437D01*
X361444Y47432D01*
X361452Y47428D01*
X361469Y47416D01*
X361490Y47399D01*
X361515Y47378D01*
X361544Y47353D01*
X361648Y47249D01*
X361685Y47208D01*
X361760Y47108D01*
X361835Y46996D01*
X361897Y46867D01*
Y46863D01*
X361906Y46850D01*
X361914Y46829D01*
X361922Y46804D01*
X361935Y46771D01*
X361947Y46729D01*
X361960Y46684D01*
X361977Y46634D01*
X361993Y46575D01*
X362018Y46451D01*
X362031Y46380D01*
X362047Y46230D01*
X362055Y46068D01*
Y46022D01*
X362051Y45989D01*
Y45947D01*
X362047Y45902D01*
X362039Y45847D01*
X362031Y45789D01*
X362022Y45727D01*
X362010Y45660D01*
X361977Y45519D01*
X361927Y45373D01*
X361897Y45303D01*
X361864Y45232D01*
Y45228D01*
X361856Y45215D01*
X361843Y45199D01*
X361831Y45174D01*
X361789Y45107D01*
X361727Y45024D01*
X361652Y44932D01*
X361565Y44837D01*
X361461Y44745D01*
X361340Y44662D01*
X361336Y44658D01*
X361323Y44654D01*
X361307Y44645D01*
X361282Y44629D01*
X361248Y44616D01*
X361211Y44600D01*
X361165Y44579D01*
X361120Y44562D01*
X361061Y44541D01*
X361003Y44525D01*
X360941Y44504D01*
X360874Y44491D01*
X360729Y44466D01*
X360570Y44458D01*
X360533D01*
X360504Y44462D01*
X360466D01*
X360425Y44466D01*
X360379Y44471D01*
X360329Y44475D01*
X360217Y44491D01*
X360096Y44516D01*
X359967Y44545D01*
X359842Y44591D01*
X359838D01*
X359830Y44600D01*
X359813Y44604D01*
X359788Y44616D01*
X359730Y44649D01*
X359655Y44695D01*
X359572Y44753D01*
X359485Y44824D01*
X359397Y44907D01*
X359318Y45007D01*
Y45011D01*
X359310Y45020D01*
X359302Y45036D01*
X359289Y45057D01*
X359273Y45086D01*
X359239Y45161D01*
X359223Y45207D01*
X359202Y45261D01*
X359185Y45319D01*
X359169Y45382D01*
X359152Y45448D01*
X359139Y45519D01*
X359131Y45598D01*
X359127Y45681D01*
D02*
G37*
D12*
X29248Y200787D02*
G03*
X29248Y200787I-13500J0D01*
G01*
X430823Y303150D02*
G03*
X430823Y303150I-13500J0D01*
G01*
Y15748D02*
G03*
X430823Y15748I-13500J0D01*
G01*
X29248D02*
G03*
X29248Y15748I-13500J0D01*
G01*
D148*
X360132Y49187D02*
G03*
X360132Y49187I-880J0D01*
G01*
X349606Y50270D02*
Y52730D01*
X351575D01*
Y50270D02*
Y52730D01*
X353346Y50270D02*
Y52730D01*
X355315D01*
Y50270D02*
Y52730D01*
X357086Y50270D02*
Y52730D01*
X359055D01*
Y50270D02*
Y52730D01*
X351575Y40919D02*
Y43380D01*
X349606Y40919D02*
X351575D01*
X349606D02*
Y43380D01*
X355315Y40919D02*
Y43380D01*
X353346Y40919D02*
X355315D01*
X353346D02*
Y43380D01*
X357086Y40919D02*
Y43380D01*
Y40919D02*
X359055D01*
Y43380D01*
X360335D02*
Y50270D01*
X348327D02*
X360335D01*
X348327Y43380D02*
Y50270D01*
Y43380D02*
X360335D01*
M02*
