G04*
G04 #@! TF.GenerationSoftware,Altium Limited,Altium Designer,26.9.1 (10)*
G04*
G04 Layer_Color=8421504*
G04 Board_Origin=24507875|15551181*
%FSLAX25Y25*%
%MOIN*%
G70*
G04*
G04 #@! TF.SameCoordinates,84E719DE-5BC6-4521-84A3-B34C6F0F9747*
G04*
G04*
G04 #@! TF.FilePolarity,Positive*
G04*
G01*
G75*
%ADD23R,0.02362X0.03937*%
%ADD24R,0.03937X0.02362*%
G04:AMPARAMS|DCode=25|XSize=23.62mil|YSize=43.31mil|CornerRadius=5.91mil|HoleSize=0mil|Usage=FLASHONLY|Rotation=270.000|XOffset=0mil|YOffset=0mil|HoleType=Round|Shape=RoundedRectangle|*
%AMROUNDEDRECTD25*
21,1,0.02362,0.03150,0,0,270.0*
21,1,0.01181,0.04331,0,0,270.0*
1,1,0.01181,-0.01575,-0.00591*
1,1,0.01181,-0.01575,0.00591*
1,1,0.01181,0.01575,0.00591*
1,1,0.01181,0.01575,-0.00591*
%
%ADD25ROUNDEDRECTD25*%
%ADD26R,0.02559X0.06496*%
%ADD27O,0.02362X0.05709*%
%ADD28R,0.12992X0.09449*%
%ADD29R,0.05512X0.08661*%
G04:AMPARAMS|DCode=30|XSize=92.52mil|YSize=218.5mil|CornerRadius=11.57mil|HoleSize=0mil|Usage=FLASHONLY|Rotation=270.000|XOffset=0mil|YOffset=0mil|HoleType=Round|Shape=RoundedRectangle|*
%AMROUNDEDRECTD30*
21,1,0.09252,0.19537,0,0,270.0*
21,1,0.06939,0.21850,0,0,270.0*
1,1,0.02313,-0.09769,-0.03470*
1,1,0.02313,-0.09769,0.03470*
1,1,0.02313,0.09769,0.03470*
1,1,0.02313,0.09769,-0.03470*
%
%ADD30ROUNDEDRECTD30*%
%ADD31R,0.04331X0.06693*%
%ADD32R,0.03347X0.03543*%
G04:AMPARAMS|DCode=33|XSize=17.72mil|YSize=62.99mil|CornerRadius=1.95mil|HoleSize=0mil|Usage=FLASHONLY|Rotation=270.000|XOffset=0mil|YOffset=0mil|HoleType=Round|Shape=RoundedRectangle|*
%AMROUNDEDRECTD33*
21,1,0.01772,0.05909,0,0,270.0*
21,1,0.01382,0.06299,0,0,270.0*
1,1,0.00390,-0.02955,-0.00691*
1,1,0.00390,-0.02955,0.00691*
1,1,0.00390,0.02955,0.00691*
1,1,0.00390,0.02955,-0.00691*
%
%ADD33ROUNDEDRECTD33*%
G04:AMPARAMS|DCode=34|XSize=15.75mil|YSize=47.24mil|CornerRadius=1.97mil|HoleSize=0mil|Usage=FLASHONLY|Rotation=270.000|XOffset=0mil|YOffset=0mil|HoleType=Round|Shape=RoundedRectangle|*
%AMROUNDEDRECTD34*
21,1,0.01575,0.04331,0,0,270.0*
21,1,0.01181,0.04724,0,0,270.0*
1,1,0.00394,-0.02165,-0.00591*
1,1,0.00394,-0.02165,0.00591*
1,1,0.00394,0.02165,0.00591*
1,1,0.00394,0.02165,-0.00591*
%
%ADD34ROUNDEDRECTD34*%
%ADD35R,0.01968X0.03740*%
%ADD36O,0.07874X0.01772*%
%ADD37R,0.08559X0.02174*%
G04:AMPARAMS|DCode=38|XSize=85.59mil|YSize=21.74mil|CornerRadius=10.87mil|HoleSize=0mil|Usage=FLASHONLY|Rotation=0.000|XOffset=0mil|YOffset=0mil|HoleType=Round|Shape=RoundedRectangle|*
%AMROUNDEDRECTD38*
21,1,0.08559,0.00000,0,0,0.0*
21,1,0.06386,0.02174,0,0,0.0*
1,1,0.02174,0.03193,0.00000*
1,1,0.02174,-0.03193,0.00000*
1,1,0.02174,-0.03193,0.00000*
1,1,0.02174,0.03193,0.00000*
%
%ADD38ROUNDEDRECTD38*%
%ADD39R,0.07008X0.13780*%
%ADD40R,0.09449X0.11024*%
%ADD41R,0.09843X0.06693*%
%ADD42R,0.03150X0.04724*%
%ADD43R,0.01575X0.07874*%
G04:AMPARAMS|DCode=44|XSize=78.74mil|YSize=15.75mil|CornerRadius=7.87mil|HoleSize=0mil|Usage=FLASHONLY|Rotation=270.000|XOffset=0mil|YOffset=0mil|HoleType=Round|Shape=RoundedRectangle|*
%AMROUNDEDRECTD44*
21,1,0.07874,0.00000,0,0,270.0*
21,1,0.06299,0.01575,0,0,270.0*
1,1,0.01575,0.00000,-0.03150*
1,1,0.01575,0.00000,0.03150*
1,1,0.01575,0.00000,0.03150*
1,1,0.01575,0.00000,-0.03150*
%
%ADD44ROUNDEDRECTD44*%
%ADD45R,0.03937X0.07087*%
%ADD46R,0.02362X0.04724*%
G04:AMPARAMS|DCode=47|XSize=23.62mil|YSize=39.37mil|CornerRadius=2.01mil|HoleSize=0mil|Usage=FLASHONLY|Rotation=180.000|XOffset=0mil|YOffset=0mil|HoleType=Round|Shape=RoundedRectangle|*
%AMROUNDEDRECTD47*
21,1,0.02362,0.03535,0,0,180.0*
21,1,0.01961,0.03937,0,0,180.0*
1,1,0.00402,-0.00980,0.01768*
1,1,0.00402,0.00980,0.01768*
1,1,0.00402,0.00980,-0.01768*
1,1,0.00402,-0.00980,-0.01768*
%
%ADD47ROUNDEDRECTD47*%
%ADD48R,0.06496X0.11811*%
%ADD49R,0.05709X0.04921*%
%ADD50R,0.03740X0.03937*%
%ADD51R,0.03937X0.03740*%
%ADD52R,0.03543X0.03347*%
%ADD53R,0.04921X0.05709*%
G36*
X200201Y165469D02*
X200197Y165551D01*
Y191142D01*
X200201Y191224D01*
X200205Y191307D01*
X200217Y191390D01*
X200232Y191469D01*
X200252Y191551D01*
X200275Y191630D01*
X200303Y191705D01*
X200335Y191783D01*
X200370Y191858D01*
X200409Y191929D01*
X200453Y192000D01*
X200496Y192067D01*
X200547Y192134D01*
X200602Y192197D01*
X200657Y192256D01*
X200716Y192311D01*
X200780Y192366D01*
X200846Y192417D01*
X200913Y192461D01*
X200984Y192504D01*
X201055Y192543D01*
X201130Y192579D01*
X201209Y192610D01*
X201283Y192638D01*
X201362Y192661D01*
X201445Y192681D01*
X201524Y192697D01*
X201606Y192709D01*
X201689Y192713D01*
X201772Y192717D01*
X210433D01*
Y188142D01*
X210020Y187957D01*
X209649Y187776D01*
X209287Y187579D01*
X208933Y187366D01*
X208587Y187142D01*
X208248Y186902D01*
X207921Y186650D01*
X207602Y186386D01*
X207295Y186110D01*
X207000Y185819D01*
X206716Y185520D01*
X206441Y185209D01*
X206181Y184890D01*
X205933Y184559D01*
X205697Y184216D01*
X205476Y183870D01*
X205272Y183512D01*
X205075Y183146D01*
X204898Y182776D01*
X204732Y182394D01*
X204583Y182008D01*
X204449Y181618D01*
X204331Y181224D01*
X204224Y180823D01*
X204138Y180417D01*
X204067Y180012D01*
X204008Y179602D01*
X203968Y179189D01*
X203945Y178779D01*
X203937Y178347D01*
X203945Y177913D01*
X203968Y177504D01*
X204008Y177091D01*
X204067Y176681D01*
X204138Y176276D01*
X204224Y175870D01*
X204331Y175469D01*
X204449Y175075D01*
X204583Y174685D01*
X204732Y174299D01*
X204898Y173917D01*
X205075Y173547D01*
X205272Y173181D01*
X205476Y172823D01*
X205697Y172476D01*
X205933Y172134D01*
X206181Y171803D01*
X206441Y171484D01*
X206716Y171173D01*
X207000Y170874D01*
X207295Y170583D01*
X207602Y170307D01*
X207921Y170043D01*
X208248Y169791D01*
X208587Y169551D01*
X208933Y169327D01*
X209287Y169114D01*
X209649Y168917D01*
X210020Y168736D01*
X210433Y168551D01*
Y163976D01*
X201772D01*
X201689Y163980D01*
X201606Y163984D01*
X201524Y163996D01*
X201445Y164012D01*
X201362Y164032D01*
X201283Y164055D01*
X201209Y164083D01*
X201130Y164114D01*
X201055Y164150D01*
X200984Y164189D01*
X200913Y164232D01*
X200846Y164276D01*
X200780Y164327D01*
X200716Y164382D01*
X200657Y164437D01*
X200602Y164496D01*
X200547Y164559D01*
X200496Y164626D01*
X200453Y164693D01*
X200409Y164764D01*
X200370Y164835D01*
X200335Y164909D01*
X200303Y164988D01*
X200275Y165063D01*
X200252Y165142D01*
X200232Y165224D01*
X200217Y165303D01*
X200205Y165386D01*
X200201Y165469D01*
D02*
G37*
G36*
X218701Y163976D02*
Y168551D01*
X219114Y168736D01*
X219484Y168917D01*
X219846Y169114D01*
X220201Y169327D01*
X220547Y169551D01*
X220886Y169791D01*
X221213Y170043D01*
X221531Y170307D01*
X221838Y170583D01*
X222134Y170874D01*
X222417Y171173D01*
X222693Y171484D01*
X222953Y171803D01*
X223201Y172134D01*
X223437Y172476D01*
X223657Y172823D01*
X223862Y173181D01*
X224059Y173547D01*
X224236Y173917D01*
X224401Y174299D01*
X224551Y174685D01*
X224685Y175075D01*
X224803Y175469D01*
X224909Y175870D01*
X224996Y176276D01*
X225067Y176681D01*
X225126Y177091D01*
X225165Y177504D01*
X225189Y177913D01*
X225197Y178347D01*
X225189Y178779D01*
X225165Y179189D01*
X225126Y179602D01*
X225067Y180012D01*
X224996Y180417D01*
X224909Y180823D01*
X224803Y181224D01*
X224685Y181618D01*
X224551Y182008D01*
X224401Y182394D01*
X224236Y182776D01*
X224059Y183146D01*
X223862Y183512D01*
X223657Y183870D01*
X223437Y184216D01*
X223201Y184559D01*
X222953Y184890D01*
X222693Y185209D01*
X222417Y185520D01*
X222134Y185819D01*
X221838Y186110D01*
X221531Y186386D01*
X221213Y186650D01*
X220886Y186902D01*
X220547Y187142D01*
X220201Y187366D01*
X219846Y187579D01*
X219484Y187776D01*
X219114Y187957D01*
X218701Y188142D01*
Y192717D01*
X227362D01*
X227445Y192713D01*
X227527Y192709D01*
X227610Y192697D01*
X227689Y192681D01*
X227772Y192661D01*
X227850Y192638D01*
X227925Y192610D01*
X228004Y192579D01*
X228079Y192543D01*
X228150Y192504D01*
X228220Y192461D01*
X228287Y192417D01*
X228354Y192366D01*
X228417Y192311D01*
X228476Y192256D01*
X228531Y192197D01*
X228587Y192134D01*
X228638Y192067D01*
X228681Y192000D01*
X228724Y191929D01*
X228764Y191858D01*
X228799Y191783D01*
X228831Y191705D01*
X228858Y191630D01*
X228882Y191551D01*
X228902Y191469D01*
X228917Y191390D01*
X228929Y191307D01*
X228933Y191224D01*
X228937Y191142D01*
Y165551D01*
X228933Y165469D01*
X228929Y165386D01*
X228917Y165303D01*
X228902Y165224D01*
X228882Y165142D01*
X228858Y165063D01*
X228831Y164988D01*
X228799Y164909D01*
X228764Y164835D01*
X228724Y164764D01*
X228681Y164693D01*
X228638Y164626D01*
X228587Y164559D01*
X228531Y164496D01*
X228476Y164437D01*
X228417Y164382D01*
X228354Y164327D01*
X228287Y164276D01*
X228220Y164232D01*
X228150Y164189D01*
X228079Y164150D01*
X228004Y164114D01*
X227925Y164083D01*
X227850Y164055D01*
X227772Y164032D01*
X227689Y164012D01*
X227610Y163996D01*
X227527Y163984D01*
X227445Y163980D01*
X227362Y163976D01*
X218701D01*
D02*
G37*
G36*
X342618Y25269D02*
Y30387D01*
X343799D01*
X344980Y30388D01*
Y25270D01*
X343799D01*
X342618Y25269D01*
D02*
G37*
G36*
X345768Y25269D02*
Y30387D01*
X346949D01*
X348130Y30387D01*
Y25269D01*
X346949D01*
X345768Y25269D01*
D02*
G37*
G36*
X348917Y25270D02*
Y30388D01*
X350098D01*
Y25270D01*
X348917D01*
D02*
G37*
G36*
X350886D02*
Y30388D01*
X352067D01*
Y25270D01*
X350886D01*
D02*
G37*
G36*
X352854Y25270D02*
Y30388D01*
X354035D01*
Y25270D01*
X352854D01*
D02*
G37*
G36*
X354823Y25270D02*
Y30388D01*
X356004D01*
Y25270D01*
X354823D01*
D02*
G37*
G36*
X356791Y25270D02*
Y30388D01*
X357972D01*
Y25270D01*
X356791D01*
D02*
G37*
G36*
X358760Y25270D02*
Y30388D01*
X359941D01*
Y25270D01*
X358760D01*
D02*
G37*
G36*
X360727D02*
Y30388D01*
X361908D01*
Y25270D01*
X360727D01*
D02*
G37*
G36*
X362697D02*
Y30388D01*
X363878D01*
Y25270D01*
X362697D01*
D02*
G37*
G36*
X364666Y25270D02*
Y30388D01*
X367028D01*
Y25270D01*
X364666D01*
D02*
G37*
G36*
X367815Y25269D02*
Y30387D01*
X370177D01*
Y25269D01*
X367815D01*
D02*
G37*
G36*
X247539Y162598D02*
Y166535D01*
X248923D01*
Y168110D01*
X247539D01*
Y172047D01*
X252751D01*
X250783Y170079D01*
X252751Y168110D01*
X250171D01*
Y166535D01*
X252751D01*
X250783Y164567D01*
X252751Y162598D01*
X247539D01*
D02*
G37*
G36*
X254139Y162598D02*
X252170Y164567D01*
X254138Y166535D01*
X256988D01*
Y162598D01*
X255610Y162598D01*
X254139D01*
D02*
G37*
G36*
X335367Y155256D02*
Y159193D01*
X336745Y159193D01*
X338216D01*
X340185Y157224D01*
X338216Y155256D01*
X335367D01*
D02*
G37*
G36*
X335531Y83465D02*
Y87402D01*
X336910Y87402D01*
X338381D01*
X340350Y85433D01*
X338381Y83465D01*
X335531D01*
D02*
G37*
G36*
X336221Y100000D02*
Y103937D01*
X337598Y103937D01*
X339070D01*
X341039Y101969D01*
X339070Y100000D01*
X336221D01*
D02*
G37*
G36*
X338583Y201181D02*
X338583Y202559D01*
Y204031D01*
X340551Y205999D01*
X342520Y204031D01*
Y201181D01*
X338583D01*
D02*
G37*
G36*
Y205418D02*
Y210630D01*
X342520D01*
Y209247D01*
X344094D01*
Y210630D01*
X348031D01*
Y205418D01*
X346063Y207387D01*
X344094Y205418D01*
Y207998D01*
X342520D01*
Y205418D01*
X340551Y207387D01*
X338583Y205418D01*
D02*
G37*
G36*
X339604Y149744D02*
X341572Y151713D01*
X339604Y153681D01*
X342184D01*
Y155256D01*
X339604D01*
X341572Y157224D01*
X339604Y159193D01*
X344815D01*
Y155256D01*
X343432D01*
Y153681D01*
X344815D01*
Y149744D01*
X339604D01*
D02*
G37*
G36*
X339769Y77953D02*
X341737Y79921D01*
X339769Y81890D01*
X342349D01*
Y83465D01*
X339769D01*
X341737Y85433D01*
X339769Y87402D01*
X344980D01*
Y83465D01*
X343597D01*
Y81890D01*
X344980D01*
Y77953D01*
X339769D01*
D02*
G37*
G36*
X340458Y94488D02*
X342426Y96457D01*
X340458Y98425D01*
X343038D01*
Y100000D01*
X340458D01*
X342426Y101969D01*
X340458Y103937D01*
X345669D01*
Y100000D01*
X344286D01*
Y98425D01*
X345669D01*
Y94488D01*
X340458D01*
D02*
G37*
G36*
X342618Y25269D02*
Y30387D01*
X343799D01*
X344980Y30388D01*
Y25270D01*
X343799D01*
X342618Y25269D01*
D02*
G37*
G36*
X345768Y25269D02*
Y30387D01*
X346949D01*
X348130Y30387D01*
Y25269D01*
X346949D01*
X345768Y25269D01*
D02*
G37*
G36*
X364666Y25270D02*
Y30388D01*
X367028D01*
Y25270D01*
X364666D01*
D02*
G37*
G36*
X367815D02*
Y30388D01*
X370177D01*
Y25270D01*
X367815D01*
D02*
G37*
D23*
X337105Y85432D02*
D03*
X255414Y164568D02*
D03*
X336942Y157223D02*
D03*
X337794Y101967D02*
D03*
D24*
X340552Y202757D02*
D03*
D25*
X241339Y142126D02*
D03*
X251575D02*
D03*
Y134646D02*
D03*
X241339D02*
D03*
X251575Y138386D02*
D03*
D26*
X99213Y144783D02*
D03*
Y170177D02*
D03*
X104134Y144783D02*
D03*
X109055D02*
D03*
Y170177D02*
D03*
X145472D02*
D03*
X150394Y144783D02*
D03*
X140551D02*
D03*
Y170177D02*
D03*
X150394D02*
D03*
X119882Y144783D02*
D03*
X124803D02*
D03*
X129724D02*
D03*
Y170177D02*
D03*
X119882D02*
D03*
D27*
X108937Y108366D02*
D03*
X113937D02*
D03*
X118937D02*
D03*
X123937Y129823D02*
D03*
X113937D02*
D03*
X118937D02*
D03*
X108937D02*
D03*
X123937Y108366D02*
D03*
D28*
X35433Y109449D02*
D03*
Y83465D02*
D03*
D29*
X365354Y205906D02*
D03*
D30*
X277559Y80216D02*
D03*
Y53642D02*
D03*
D31*
X77165Y205709D02*
D03*
X88189D02*
D03*
D32*
X304232Y78740D02*
D03*
X298130D02*
D03*
X134547Y123031D02*
D03*
X140650D02*
D03*
X113779Y96457D02*
D03*
X107677D02*
D03*
X336910Y292913D02*
D03*
X343012D02*
D03*
X101279Y113189D02*
D03*
X95177D02*
D03*
X117028Y202756D02*
D03*
X123130D02*
D03*
X125394Y96457D02*
D03*
X119291D02*
D03*
X101279Y121063D02*
D03*
X95177D02*
D03*
X246949Y149409D02*
D03*
X253051D02*
D03*
X336910Y263386D02*
D03*
X343012D02*
D03*
X336910Y275197D02*
D03*
X343012D02*
D03*
X336910Y287008D02*
D03*
X343012D02*
D03*
X336910Y298819D02*
D03*
X343012D02*
D03*
X373917Y302165D02*
D03*
X367815D02*
D03*
X336910Y269291D02*
D03*
X343012D02*
D03*
X83760Y92520D02*
D03*
X77658D02*
D03*
X336910Y281102D02*
D03*
X343012D02*
D03*
X123130Y196850D02*
D03*
X117028D02*
D03*
X336910Y304724D02*
D03*
X343012D02*
D03*
X343438Y144626D02*
D03*
X337335D02*
D03*
X343438Y138721D02*
D03*
X337335D02*
D03*
X367441Y128902D02*
D03*
X361338D02*
D03*
X253051Y156299D02*
D03*
X246949D02*
D03*
X300098Y17717D02*
D03*
X306201D02*
D03*
X311910Y84646D02*
D03*
X318012D02*
D03*
Y78740D02*
D03*
X311910D02*
D03*
X304232Y84646D02*
D03*
X298130D02*
D03*
D33*
X365158Y219980D02*
D03*
Y217421D02*
D03*
Y243012D02*
D03*
X341142Y235335D02*
D03*
Y232776D02*
D03*
Y222539D02*
D03*
Y219980D02*
D03*
Y230217D02*
D03*
X365158Y235335D02*
D03*
Y225098D02*
D03*
Y222539D02*
D03*
Y227658D02*
D03*
Y230217D02*
D03*
Y232776D02*
D03*
Y237894D02*
D03*
Y240453D02*
D03*
X341142Y225098D02*
D03*
Y227658D02*
D03*
Y237894D02*
D03*
Y240453D02*
D03*
Y243012D02*
D03*
Y245571D02*
D03*
Y217421D02*
D03*
X365158Y245571D02*
D03*
D34*
X354724Y293898D02*
D03*
Y291339D02*
D03*
Y288779D02*
D03*
Y286221D02*
D03*
Y281102D02*
D03*
Y275984D02*
D03*
X377165Y270866D02*
D03*
X354724Y283661D02*
D03*
Y278543D02*
D03*
Y270866D02*
D03*
X377165Y281102D02*
D03*
Y283661D02*
D03*
Y278543D02*
D03*
Y286221D02*
D03*
Y291339D02*
D03*
Y288779D02*
D03*
Y275984D02*
D03*
Y273425D02*
D03*
X354724D02*
D03*
X377165Y293898D02*
D03*
D35*
X120079Y180610D02*
D03*
X122638Y189469D02*
D03*
X117520D02*
D03*
D36*
X344094Y188091D02*
D03*
Y185531D02*
D03*
Y182973D02*
D03*
Y180413D02*
D03*
X361417D02*
D03*
Y182973D02*
D03*
Y185531D02*
D03*
Y188091D02*
D03*
D37*
X355334Y151201D02*
D03*
D38*
Y146201D02*
D03*
Y141201D02*
D03*
X373965Y146201D02*
D03*
Y136201D02*
D03*
Y141201D02*
D03*
Y151201D02*
D03*
X355334Y136201D02*
D03*
D39*
X305571Y112205D02*
D03*
X284980D02*
D03*
X246516Y210630D02*
D03*
X225925D02*
D03*
D40*
X303937Y149606D02*
D03*
X278740D02*
D03*
D41*
X285433Y131890D02*
D03*
X301181D02*
D03*
X282677Y199213D02*
D03*
X298425D02*
D03*
X286614Y214173D02*
D03*
X302362D02*
D03*
D42*
X361417Y262992D02*
D03*
X354331D02*
D03*
X262205Y197244D02*
D03*
X269291D02*
D03*
D43*
X386409Y96659D02*
D03*
D44*
X383850D02*
D03*
X381291D02*
D03*
X376172D02*
D03*
X373613D02*
D03*
X368495D02*
D03*
X365936D02*
D03*
X363377D02*
D03*
X360818D02*
D03*
X358259D02*
D03*
X355700D02*
D03*
X353141D02*
D03*
Y69100D02*
D03*
X355700D02*
D03*
X358259D02*
D03*
X363377D02*
D03*
X371054D02*
D03*
X373613D02*
D03*
X376172D02*
D03*
X383850D02*
D03*
X386409D02*
D03*
X365936D02*
D03*
X378731Y96659D02*
D03*
X360818Y69100D02*
D03*
X368495D02*
D03*
X371054Y96659D02*
D03*
X378731Y69100D02*
D03*
X381291D02*
D03*
D45*
X275590Y214173D02*
D03*
X264567D02*
D03*
D46*
X358071Y42297D02*
D03*
X354331D02*
D03*
X350590D02*
D03*
Y51352D02*
D03*
X358071D02*
D03*
X354331D02*
D03*
D47*
X288779Y28051D02*
D03*
X292520Y38878D02*
D03*
X296260D02*
D03*
Y28051D02*
D03*
X288779Y38878D02*
D03*
X292520Y28051D02*
D03*
D48*
X150886Y115157D02*
D03*
X161713D02*
D03*
D49*
X385827Y52559D02*
D03*
Y45866D02*
D03*
X239370Y166142D02*
D03*
Y159449D02*
D03*
X162205Y184252D02*
D03*
Y190945D02*
D03*
X234252Y144291D02*
D03*
Y150984D02*
D03*
D50*
X286319Y17717D02*
D03*
X292421D02*
D03*
X154232Y103346D02*
D03*
X160335D02*
D03*
X140650Y128937D02*
D03*
X134547D02*
D03*
X95177Y127953D02*
D03*
X101279D02*
D03*
X140650Y116142D02*
D03*
X134547D02*
D03*
X360925Y302165D02*
D03*
X354823D02*
D03*
X211713Y204724D02*
D03*
X205610D02*
D03*
X260433Y137055D02*
D03*
X266535D02*
D03*
X340033Y70478D02*
D03*
X333930D02*
D03*
X377067Y107087D02*
D03*
X370965D02*
D03*
D51*
X155315Y135925D02*
D03*
Y129823D02*
D03*
X162205Y135925D02*
D03*
Y129823D02*
D03*
X140551Y181988D02*
D03*
Y188091D02*
D03*
X402559Y286516D02*
D03*
Y280413D02*
D03*
X378740Y208563D02*
D03*
Y202461D02*
D03*
X378812Y53056D02*
D03*
Y46954D02*
D03*
X33465Y50984D02*
D03*
Y57087D02*
D03*
X350394Y173130D02*
D03*
Y167028D02*
D03*
X333465Y208957D02*
D03*
Y202854D02*
D03*
X375590Y161909D02*
D03*
Y168012D02*
D03*
D52*
X148819Y181988D02*
D03*
Y188091D02*
D03*
X99213Y188091D02*
D03*
Y181988D02*
D03*
X129921Y181988D02*
D03*
Y188091D02*
D03*
X358268Y208957D02*
D03*
Y202854D02*
D03*
X41339Y50984D02*
D03*
Y57087D02*
D03*
X378740Y217028D02*
D03*
Y223130D02*
D03*
Y229626D02*
D03*
Y235728D02*
D03*
X372907Y53056D02*
D03*
Y46954D02*
D03*
X367001D02*
D03*
Y53056D02*
D03*
X324410Y22539D02*
D03*
Y28642D02*
D03*
X389700Y22149D02*
D03*
Y28251D02*
D03*
X352756Y208957D02*
D03*
Y202854D02*
D03*
X306299Y48130D02*
D03*
Y54232D02*
D03*
X299213Y48130D02*
D03*
Y54232D02*
D03*
D53*
X260138Y120323D02*
D03*
X266831D02*
D03*
X367520Y262992D02*
D03*
X374213D02*
D03*
X260138Y129181D02*
D03*
X266831D02*
D03*
X243504Y196850D02*
D03*
X236811D02*
D03*
M02*
