G04*
G04 #@! TF.GenerationSoftware,Altium Limited,Altium Designer,26.9.1 (10)*
G04*
G04 Layer_Color=32768*
G04 Board_Origin=24507875|15551181*
%FSLAX25Y25*%
%MOIN*%
G70*
G04*
G04 #@! TF.SameCoordinates,E31FBE90-4C1D-45C5-8F2B-B1877BC71EBF*
G04*
G04*
G04 #@! TF.FilePolarity,Positive*
G04*
G01*
G75*
%ADD10C,0.00500*%
D10*
X43138Y222008D02*
Y242165D01*
X72094D01*
Y222008D02*
Y242165D01*
X43138Y222008D02*
X72094D01*
X196287Y222205D02*
X225244D01*
Y242362D01*
X196287D02*
X225244D01*
X196287Y222205D02*
Y242362D01*
X163620Y225679D02*
Y254636D01*
Y225679D02*
X183778D01*
Y254636D01*
X163620D02*
X183778D01*
X86200Y225679D02*
Y254636D01*
Y225679D02*
X106358D01*
Y254636D01*
X86200D02*
X106358D01*
X238937Y225679D02*
Y254636D01*
Y225679D02*
X259095D01*
Y254636D01*
X238937D02*
X259095D01*
X9606Y228041D02*
Y256998D01*
Y228041D02*
X29764D01*
Y256998D01*
X9606D02*
X29764D01*
X269920Y221393D02*
X298876D01*
Y241550D01*
X269920D02*
X298876D01*
X269920Y221393D02*
Y241550D01*
X119036Y222205D02*
X147993D01*
Y242362D01*
X119036D02*
X147993D01*
X119036Y222205D02*
Y242362D01*
M02*
