G04*
G04 #@! TF.GenerationSoftware,Altium Limited,Altium Designer,26.9.1 (10)*
G04*
G04 Layer_Color=65535*
G04 Board_Origin=24507875|15551181*
%FSLAX25Y25*%
%MOIN*%
G70*
G04*
G04 #@! TF.SameCoordinates,84E719DE-5BC6-4521-84A3-B34C6F0F9747*
G04*
G04*
G04 #@! TF.FilePolarity,Positive*
G04*
G01*
G75*
G36*
X239630Y135553D02*
X239626Y135669D01*
Y135869D01*
X239630Y135902D01*
Y135986D01*
X239634Y136031D01*
X239638Y136081D01*
X239643Y136198D01*
X239655Y136327D01*
X239672Y136464D01*
X239688Y136609D01*
X239713Y136763D01*
X239742Y136917D01*
X239776Y137075D01*
X239817Y137233D01*
X239863Y137383D01*
X239917Y137533D01*
X239980Y137670D01*
X239984Y137679D01*
X239996Y137699D01*
X240017Y137737D01*
X240050Y137783D01*
X240088Y137832D01*
X240138Y137895D01*
X240200Y137957D01*
X240271Y138024D01*
X240350Y138091D01*
X240445Y138153D01*
X240549Y138215D01*
X240662Y138265D01*
X240791Y138311D01*
X240932Y138348D01*
X241086Y138369D01*
X241252Y138377D01*
X241307D01*
X241344Y138373D01*
X241390Y138369D01*
X241444Y138365D01*
X241506Y138357D01*
X241573Y138348D01*
X241644Y138336D01*
X241714Y138319D01*
X241793Y138298D01*
X241868Y138274D01*
X241947Y138249D01*
X242022Y138215D01*
X242097Y138178D01*
X242168Y138136D01*
X242172Y138132D01*
X242184Y138124D01*
X242201Y138111D01*
X242226Y138091D01*
X242255Y138066D01*
X242326Y137995D01*
X242363Y137953D01*
X242405Y137903D01*
X242446Y137849D01*
X242484Y137787D01*
X242521Y137720D01*
X242559Y137650D01*
X242588Y137571D01*
X242617Y137487D01*
X242638Y137400D01*
X242018Y137159D01*
Y137163D01*
X242005Y137188D01*
X241997Y137213D01*
X241935Y137338D01*
X241889Y137417D01*
X241839Y137491D01*
X241781Y137558D01*
X241748Y137591D01*
X241714Y137616D01*
X241710D01*
X241706Y137620D01*
X241681Y137637D01*
X241639Y137654D01*
X241585Y137679D01*
X241519Y137699D01*
X241440Y137720D01*
X241348Y137737D01*
X241244Y137741D01*
X241207D01*
X241182Y137737D01*
X241153Y137733D01*
X241115Y137729D01*
X241036Y137708D01*
X240945Y137674D01*
X240899Y137654D01*
X240853Y137629D01*
X240807Y137600D01*
X240766Y137562D01*
X240724Y137521D01*
X240687Y137475D01*
X240683Y137471D01*
X240670Y137446D01*
X240658Y137425D01*
X240641Y137400D01*
X240624Y137371D01*
X240604Y137333D01*
X240583Y137292D01*
X240541Y137200D01*
X240504Y137088D01*
X240466Y136963D01*
X240441Y136830D01*
Y136826D01*
X240437Y136813D01*
Y136793D01*
X240433Y136763D01*
X240429Y136730D01*
X240425Y136689D01*
X240416Y136643D01*
X240412Y136589D01*
X240408Y136530D01*
X240400Y136468D01*
X240391Y136335D01*
X240383Y136185D01*
X240375Y136032D01*
X240379Y136040D01*
Y136052D01*
X240387Y136073D01*
X240404Y136123D01*
X240433Y136185D01*
X240475Y136256D01*
X240533Y136331D01*
X240566Y136364D01*
X240608Y136401D01*
X240653Y136435D01*
X240703Y136464D01*
X240708D01*
X240716Y136472D01*
X240733Y136476D01*
X240753Y136489D01*
X240778Y136501D01*
X240812Y136514D01*
X240849Y136526D01*
X240886Y136543D01*
X240932Y136560D01*
X240982Y136572D01*
X241094Y136597D01*
X241215Y136614D01*
X241348Y136622D01*
X241386D01*
X241415Y136618D01*
X241452D01*
X241494Y136614D01*
X241540Y136605D01*
X241589Y136597D01*
X241702Y136576D01*
X241818Y136543D01*
X241943Y136493D01*
X242005Y136464D01*
X242064Y136431D01*
X242068Y136426D01*
X242076Y136422D01*
X242093Y136410D01*
X242114Y136397D01*
X242143Y136377D01*
X242172Y136352D01*
X242243Y136293D01*
X242318Y136219D01*
X242401Y136127D01*
X242480Y136023D01*
X242550Y135902D01*
Y135898D01*
X242559Y135886D01*
X242567Y135869D01*
X242575Y135844D01*
X242588Y135811D01*
X242604Y135773D01*
X242621Y135732D01*
X242634Y135682D01*
X242650Y135628D01*
X242667Y135570D01*
X242679Y135507D01*
X242696Y135441D01*
X242713Y135299D01*
X242721Y135145D01*
Y135104D01*
X242717Y135074D01*
X242713Y135037D01*
X242708Y134991D01*
X242704Y134941D01*
X242696Y134887D01*
X242671Y134771D01*
X242634Y134642D01*
X242613Y134575D01*
X242555Y134442D01*
X242517Y134380D01*
X242513Y134376D01*
X242509Y134363D01*
X242496Y134346D01*
X242480Y134321D01*
X242459Y134297D01*
X242434Y134263D01*
X242405Y134226D01*
X242372Y134184D01*
X242292Y134101D01*
X242201Y134014D01*
X242093Y133926D01*
X241972Y133851D01*
X241968Y133847D01*
X241956Y133843D01*
X241939Y133835D01*
X241910Y133822D01*
X241881Y133806D01*
X241797Y133772D01*
X241748Y133756D01*
X241693Y133739D01*
X241635Y133722D01*
X241506Y133689D01*
X241365Y133668D01*
X241290Y133660D01*
X241157D01*
X241115Y133664D01*
X241065Y133668D01*
X241007Y133673D01*
X240940Y133681D01*
X240870Y133693D01*
X240716Y133727D01*
X240637Y133747D01*
X240479Y133806D01*
X240400Y133843D01*
X240329Y133885D01*
X240258Y133935D01*
X240254Y133939D01*
X240242Y133947D01*
X240225Y133964D01*
X240200Y133984D01*
X240171Y134010D01*
X240138Y134043D01*
X240104Y134084D01*
X240063Y134126D01*
X240025Y134176D01*
X239942Y134292D01*
X239900Y134359D01*
X239863Y134430D01*
X239830Y134504D01*
X239796Y134588D01*
X239767Y134671D01*
Y134675D01*
X239763Y134692D01*
X239755Y134717D01*
X239747Y134754D01*
X239734Y134800D01*
X239722Y134854D01*
X239709Y134916D01*
X239697Y134987D01*
X239684Y135062D01*
X239672Y135149D01*
X239659Y135241D01*
X239647Y135341D01*
X239638Y135445D01*
X239630Y135553D01*
D02*
G37*
%LPC*%
G36*
X240454Y135099D02*
X240458Y135054D01*
X240466Y134995D01*
X240475Y134925D01*
X240491Y134854D01*
X240516Y134779D01*
X240545Y134704D01*
Y134700D01*
X240549Y134696D01*
X240562Y134671D01*
X240583Y134638D01*
X240612Y134592D01*
X240649Y134546D01*
X240695Y134496D01*
X240745Y134446D01*
X240807Y134405D01*
X240816Y134400D01*
X240837Y134388D01*
X240870Y134371D01*
X240920Y134351D01*
X240974Y134330D01*
X241040Y134313D01*
X241115Y134301D01*
X241194Y134297D01*
X241232D01*
X241278Y134301D01*
X241332Y134309D01*
X241394Y134321D01*
X241460Y134342D01*
X241527Y134367D01*
X241594Y134405D01*
X241602Y134409D01*
X241623Y134425D01*
X241652Y134446D01*
X241689Y134480D01*
X241731Y134521D01*
X241773Y134571D01*
X241818Y134634D01*
X241856Y134700D01*
Y134704D01*
X241860Y134708D01*
X241872Y134733D01*
X241885Y134775D01*
X241901Y134829D01*
X241922Y134896D01*
X241935Y134970D01*
X241947Y135058D01*
X241951Y135149D01*
Y135191D01*
X241947Y135237D01*
X241939Y135295D01*
X241931Y135366D01*
X241914Y135441D01*
X241893Y135515D01*
X241864Y135590D01*
Y135594D01*
X241860Y135599D01*
X241847Y135624D01*
X241827Y135657D01*
X241802Y135703D01*
X241764Y135748D01*
X241723Y135802D01*
X241673Y135848D01*
X241619Y135894D01*
X241610Y135898D01*
X241589Y135911D01*
X241556Y135927D01*
X241510Y135948D01*
X241452Y135969D01*
X241386Y135986D01*
X241311Y135998D01*
X241228Y136002D01*
X241186D01*
X241140Y135998D01*
X241082Y135990D01*
X241015Y135977D01*
X240945Y135956D01*
X240874Y135931D01*
X240807Y135894D01*
X240799Y135890D01*
X240778Y135873D01*
X240749Y135848D01*
X240708Y135815D01*
X240666Y135773D01*
X240624Y135719D01*
X240583Y135661D01*
X240545Y135590D01*
Y135586D01*
X240541Y135582D01*
X240533Y135557D01*
X240516Y135515D01*
X240500Y135461D01*
X240483Y135395D01*
X240466Y135320D01*
X240458Y135232D01*
X240454Y135141D01*
Y135099D01*
D02*
G37*
%LPD*%
G36*
X243324Y133722D02*
Y136555D01*
X243328Y136614D01*
X243333Y136680D01*
X243337Y136759D01*
X243341Y136843D01*
X243357Y137017D01*
X243383Y137204D01*
X243416Y137387D01*
X243437Y137475D01*
X243461Y137558D01*
Y137562D01*
X243470Y137575D01*
X243474Y137600D01*
X243486Y137629D01*
X243503Y137662D01*
X243520Y137704D01*
X243545Y137745D01*
X243570Y137795D01*
X243636Y137895D01*
X243674Y137945D01*
X243719Y137999D01*
X243765Y138049D01*
X243873Y138140D01*
X243936Y138182D01*
X243940Y138186D01*
X243952Y138190D01*
X243973Y138199D01*
X243998Y138215D01*
X244036Y138228D01*
X244077Y138244D01*
X244127Y138265D01*
X244181Y138282D01*
X244248Y138303D01*
X244318Y138319D01*
X244397Y138340D01*
X244485Y138353D01*
X244576Y138365D01*
X244676Y138377D01*
X244780Y138382D01*
X244893Y138386D01*
X244947D01*
X244988Y138382D01*
X245034Y138377D01*
X245088Y138373D01*
X245150Y138369D01*
X245217Y138361D01*
X245363Y138336D01*
X245516Y138298D01*
X245591Y138278D01*
X245666Y138249D01*
X245737Y138219D01*
X245804Y138182D01*
X245808Y138178D01*
X245820Y138174D01*
X245837Y138161D01*
X245862Y138145D01*
X245887Y138120D01*
X245920Y138095D01*
X245957Y138061D01*
X246037Y137982D01*
X246078Y137937D01*
X246161Y137828D01*
X246199Y137766D01*
X246236Y137699D01*
X246274Y137625D01*
X246303Y137550D01*
Y137546D01*
X246311Y137529D01*
X246315Y137504D01*
X246328Y137471D01*
X246340Y137429D01*
X246353Y137379D01*
X246365Y137321D01*
X246378Y137250D01*
X246394Y137175D01*
X246407Y137092D01*
X246419Y137001D01*
X246432Y136901D01*
X246444Y136797D01*
X246448Y136684D01*
X246457Y136564D01*
Y133718D01*
X245683D01*
Y136501D01*
X245679Y136543D01*
Y136593D01*
X245675Y136647D01*
Y136705D01*
X245666Y136834D01*
X245633Y137092D01*
X245620Y137150D01*
X245608Y137204D01*
Y137208D01*
X245604Y137217D01*
X245600Y137229D01*
X245591Y137250D01*
X245575Y137296D01*
X245512Y137421D01*
X245471Y137483D01*
X245421Y137541D01*
X245363Y137591D01*
X245329Y137608D01*
X245292Y137629D01*
X245238Y137645D01*
X245171Y137666D01*
X245088Y137687D01*
X244988Y137699D01*
X244880Y137704D01*
X244830D01*
X244805Y137699D01*
X244776D01*
X244714Y137691D01*
X244564Y137658D01*
X244489Y137629D01*
X244422Y137591D01*
X244414Y137587D01*
X244368Y137541D01*
X244331Y137500D01*
X244293Y137446D01*
X244252Y137375D01*
X244219Y137296D01*
X244185Y137200D01*
Y137196D01*
X244181Y137188D01*
X244177Y137171D01*
X244173Y137150D01*
X244169Y137121D01*
X244152Y137046D01*
X244144Y136996D01*
X244140Y136946D01*
X244131Y136888D01*
X244123Y136822D01*
X244119Y136751D01*
X244115Y136676D01*
X244110Y136597D01*
X244106Y136510D01*
Y133722D01*
X243324D01*
D02*
G37*
G36*
X277559Y63298D02*
Y64962D01*
X277588D01*
X277599Y64960D01*
X277628Y64958D01*
X277659Y64954D01*
X277696Y64949D01*
X277734Y64940D01*
X277772Y64927D01*
X277774D01*
X277779Y64924D01*
X277788Y64920D01*
X277801Y64914D01*
X277818Y64909D01*
X277836Y64900D01*
X277856Y64889D01*
X277903Y64865D01*
X277928Y64849D01*
X277985Y64814D01*
X278045Y64772D01*
X278107Y64723D01*
X278114Y64716D01*
X278123Y64709D01*
X278136Y64698D01*
X278152Y64683D01*
X278171Y64665D01*
X278192Y64645D01*
X278216Y64619D01*
X278273Y64563D01*
X278304Y64530D01*
X278338Y64494D01*
X278373Y64454D01*
X278409Y64412D01*
X278447Y64367D01*
X278487Y64319D01*
X278489Y64317D01*
X278491Y64314D01*
X278496Y64308D01*
X278502Y64301D01*
X278511Y64292D01*
X278520Y64281D01*
X278544Y64254D01*
X278571Y64219D01*
X278606Y64183D01*
X278642Y64141D01*
X278682Y64097D01*
X278724Y64050D01*
X278767Y64004D01*
X278811Y63957D01*
X278857Y63913D01*
X278900Y63870D01*
X278942Y63832D01*
X278984Y63795D01*
X279022Y63766D01*
X279024Y63764D01*
X279031Y63761D01*
X279042Y63753D01*
X279055Y63742D01*
X279073Y63731D01*
X279093Y63721D01*
X279117Y63706D01*
X279142Y63693D01*
X279170Y63680D01*
X279199Y63666D01*
X279263Y63642D01*
X279295Y63633D01*
X279328Y63626D01*
X279361Y63622D01*
X279394Y63620D01*
X279412D01*
X279425Y63622D01*
X279441Y63624D01*
X279459Y63628D01*
X279479Y63631D01*
X279501Y63637D01*
X279525Y63644D01*
X279550Y63653D01*
X279576Y63664D01*
X279601Y63677D01*
X279628Y63691D01*
X279654Y63709D01*
X279679Y63730D01*
X279709Y63759D01*
X279714Y63766D01*
X279723Y63777D01*
X279732Y63790D01*
X279743Y63806D01*
X279756Y63824D01*
X279767Y63844D01*
X279780Y63868D01*
X279790Y63893D01*
X279801Y63923D01*
X279810Y63952D01*
X279819Y63984D01*
X279825Y64019D01*
X279829Y64055D01*
X279830Y64094D01*
Y64115D01*
X279829Y64130D01*
X279827Y64150D01*
X279823Y64172D01*
X279819Y64196D01*
X279814Y64223D01*
X279807Y64250D01*
X279798Y64279D01*
X279787Y64308D01*
X279774Y64339D01*
X279758Y64368D01*
X279739Y64398D01*
X279719Y64427D01*
X279696Y64452D01*
X279690Y64458D01*
X279672Y64472D01*
X279658Y64483D01*
X279641Y64494D01*
X279621Y64507D01*
X279599Y64518D01*
X279576Y64530D01*
X279546Y64543D01*
X279517Y64554D01*
X279485Y64565D01*
X279448Y64572D01*
X279410Y64579D01*
X279370Y64583D01*
X279326Y64585D01*
X279359Y64903D01*
X279363D01*
X279368Y64902D01*
X279375D01*
X279394Y64900D01*
X279417Y64894D01*
X279446Y64889D01*
X279481Y64882D01*
X279519Y64872D01*
X279559Y64862D01*
X279603Y64847D01*
X279647Y64831D01*
X279692Y64811D01*
X279738Y64787D01*
X279781Y64762D01*
X279823Y64731D01*
X279863Y64698D01*
X279900Y64660D01*
X279901Y64658D01*
X279907Y64650D01*
X279918Y64638D01*
X279943Y64600D01*
X279960Y64574D01*
X279976Y64543D01*
X279994Y64508D01*
X280011Y64468D01*
X280027Y64427D01*
X280043Y64379D01*
X280058Y64328D01*
X280071Y64274D01*
X280080Y64215D01*
X280085Y64154D01*
X280087Y64088D01*
Y64072D01*
X280085Y64053D01*
X280083Y64028D01*
X280082Y63997D01*
X280076Y63963D01*
X280071Y63923D01*
X280062Y63881D01*
X280051Y63835D01*
X280038Y63790D01*
X280022Y63740D01*
X280001Y63693D01*
X279978Y63646D01*
X279952Y63600D01*
X279921Y63557D01*
X279885Y63515D01*
X279865Y63495D01*
X279849Y63482D01*
X279830Y63466D01*
X279807Y63447D01*
X279780Y63427D01*
X279749Y63407D01*
X279714Y63389D01*
X279676Y63369D01*
X279634Y63351D01*
X279590Y63335D01*
X279543Y63322D01*
X279494Y63311D01*
X279441Y63304D01*
X279386Y63302D01*
X279361D01*
X279332Y63305D01*
X279313Y63307D01*
X279293Y63309D01*
X279248Y63316D01*
X279197Y63327D01*
X279144Y63344D01*
X279090Y63364D01*
X279088D01*
X279082Y63367D01*
X279064Y63376D01*
X279051Y63382D01*
X279035Y63391D01*
X279017Y63400D01*
X278997Y63413D01*
X278975Y63426D01*
X278951Y63440D01*
X278899Y63477D01*
X278871Y63497D01*
X278842Y63518D01*
X278813Y63544D01*
X278782Y63569D01*
X278775Y63577D01*
X278766Y63584D01*
X278717Y63633D01*
X278693Y63655D01*
X278666Y63682D01*
X278637Y63713D01*
X278604Y63750D01*
X278567Y63788D01*
X278527Y63832D01*
X278485Y63879D01*
X278440Y63930D01*
X278391Y63986D01*
X278340Y64046D01*
X278338Y64050D01*
X278329Y64059D01*
X278318Y64072D01*
X278302Y64090D01*
X278283Y64114D01*
X278262Y64137D01*
X278238Y64165D01*
X278212Y64194D01*
X278160Y64255D01*
X278132Y64285D01*
X278107Y64314D01*
X278081Y64341D01*
X278060Y64365D01*
X278040Y64387D01*
X278021Y64403D01*
X278018Y64407D01*
X278007Y64416D01*
X277990Y64430D01*
X277970Y64448D01*
X277945Y64468D01*
X277918Y64490D01*
X277887Y64512D01*
X277856Y64532D01*
Y63298D01*
X277559D01*
D02*
G37*
G36*
Y66596D02*
Y66929D01*
X280078D01*
Y65231D01*
X279781D01*
Y66596D01*
X279000D01*
Y65415D01*
X278704D01*
Y66596D01*
X277559D01*
D02*
G37*
M02*
