G04*
G04 #@! TF.GenerationSoftware,Altium Limited,Altium Designer,26.9.1 (10)*
G04*
G04 Layer_Color=255*
G04 Board_Origin=24507875|15551181*
%FSLAX25Y25*%
%MOIN*%
G70*
G04*
G04 #@! TF.SameCoordinates,E31FBE90-4C1D-45C5-8F2B-B1877BC71EBF*
G04*
G04*
G04 #@! TF.FilePolarity,Positive*
G04*
G01*
G75*
%ADD75C,0.06181*%
%ADD76R,0.06181X0.06181*%
%ADD90O,0.11024X0.13386*%
%ADD91O,0.11024X0.13780*%
%ADD92C,0.04000*%
%ADD125O,0.04331X0.08661*%
%ADD126O,0.04331X0.07480*%
%ADD127C,0.07087*%
%ADD128O,0.07087X0.09055*%
%ADD129C,0.05071*%
%ADD130C,0.06496*%
%ADD132R,0.07087X0.09055*%
%ADD133R,0.07087X0.07087*%
G04:AMPARAMS|DCode=134|XSize=70.87mil|YSize=70.87mil|CornerRadius=17.72mil|HoleSize=0mil|Usage=FLASHONLY|Rotation=180.000|XOffset=0mil|YOffset=0mil|HoleType=Round|Shape=RoundedRectangle|*
%AMROUNDEDRECTD134*
21,1,0.07087,0.03543,0,0,180.0*
21,1,0.03543,0.07087,0,0,180.0*
1,1,0.03543,-0.01772,0.01772*
1,1,0.03543,0.01772,0.01772*
1,1,0.03543,0.01772,-0.01772*
1,1,0.03543,-0.01772,-0.01772*
%
%ADD134ROUNDEDRECTD134*%
%ADD135C,0.25600*%
%ADD136R,0.05071X0.05071*%
%ADD138C,0.06693*%
%ADD139R,0.09055X0.22047*%
%ADD140R,0.22047X0.09055*%
G04:AMPARAMS|DCode=141|XSize=66.93mil|YSize=66.93mil|CornerRadius=16.73mil|HoleSize=0mil|Usage=FLASHONLY|Rotation=180.000|XOffset=0mil|YOffset=0mil|HoleType=Round|Shape=RoundedRectangle|*
%AMROUNDEDRECTD141*
21,1,0.06693,0.03347,0,0,180.0*
21,1,0.03347,0.06693,0,0,180.0*
1,1,0.03347,-0.01673,0.01673*
1,1,0.03347,0.01673,0.01673*
1,1,0.03347,0.01673,-0.01673*
1,1,0.03347,-0.01673,-0.01673*
%
%ADD141ROUNDEDRECTD141*%
D75*
X423228Y281496D02*
D03*
Y216535D02*
D03*
Y161417D02*
D03*
Y109370D02*
D03*
Y49370D02*
D03*
X407480D02*
D03*
X423228Y206535D02*
D03*
Y271496D02*
D03*
Y196535D02*
D03*
Y261496D02*
D03*
Y251496D02*
D03*
Y186535D02*
D03*
Y79370D02*
D03*
Y241496D02*
D03*
Y99370D02*
D03*
X407480Y196850D02*
D03*
X423228Y89370D02*
D03*
Y69370D02*
D03*
Y59370D02*
D03*
Y141417D02*
D03*
Y131417D02*
D03*
Y151417D02*
D03*
D76*
X407480Y186850D02*
D03*
X423228Y121417D02*
D03*
Y39370D02*
D03*
X407480D02*
D03*
X423228Y231496D02*
D03*
Y176535D02*
D03*
D90*
X81575Y69764D02*
D03*
X94055D02*
D03*
X109055D02*
D03*
X124055D02*
D03*
X94055Y49764D02*
D03*
X109055D02*
D03*
X124055D02*
D03*
X136535Y69764D02*
D03*
X192480Y67520D02*
D03*
X180000Y52520D02*
D03*
X239961Y27480D02*
D03*
X192480Y50000D02*
D03*
X207480Y52520D02*
D03*
X222480Y50000D02*
D03*
Y67520D02*
D03*
D91*
X207480D02*
D03*
D92*
X49921Y182598D02*
D03*
D125*
X373425Y24803D02*
D03*
X339370D02*
D03*
D126*
X373425Y8347D02*
D03*
X339370D02*
D03*
D127*
X281496Y302756D02*
D03*
X242913D02*
D03*
X242126Y269685D02*
D03*
X204331Y302756D02*
D03*
X204724Y251969D02*
D03*
X281496D02*
D03*
X165748Y302756D02*
D03*
X165354Y269685D02*
D03*
X127953Y251969D02*
D03*
X127165Y302756D02*
D03*
X88583D02*
D03*
X50000D02*
D03*
X88583Y269685D02*
D03*
X11417Y302756D02*
D03*
X11811Y269685D02*
D03*
X50787Y251575D02*
D03*
X21260Y302756D02*
D03*
X214173D02*
D03*
X98425D02*
D03*
X59842D02*
D03*
X175591D02*
D03*
X252756D02*
D03*
X137008D02*
D03*
X291339D02*
D03*
D128*
X284646Y172047D02*
D03*
X294882D02*
D03*
D129*
X187795Y169291D02*
D03*
Y129291D02*
D03*
Y119291D02*
D03*
Y139291D02*
D03*
D130*
X34252Y177559D02*
D03*
Y153937D02*
D03*
Y165748D02*
D03*
Y142126D02*
D03*
X46063D02*
D03*
Y153937D02*
D03*
Y165748D02*
D03*
Y177559D02*
D03*
D132*
X274803Y172047D02*
D03*
D133*
X108268Y269685D02*
D03*
X147638Y251969D02*
D03*
X185039Y269685D02*
D03*
X261811D02*
D03*
X301181Y251969D02*
D03*
X70472Y251575D02*
D03*
X31496Y269685D02*
D03*
X224410Y251969D02*
D03*
D134*
X31102Y302756D02*
D03*
X224016D02*
D03*
X108268D02*
D03*
X69685D02*
D03*
X146850D02*
D03*
X185433D02*
D03*
X301181D02*
D03*
X262598D02*
D03*
D135*
X15748Y15748D02*
D03*
D136*
X187795Y179291D02*
D03*
D138*
X390866Y286063D02*
D03*
Y236063D02*
D03*
Y136063D02*
D03*
Y186063D02*
D03*
X320866Y286063D02*
D03*
Y236063D02*
D03*
Y186063D02*
D03*
Y136063D02*
D03*
X390866Y306063D02*
D03*
Y296063D02*
D03*
Y276063D02*
D03*
Y266063D02*
D03*
Y256063D02*
D03*
Y246063D02*
D03*
Y206063D02*
D03*
Y196063D02*
D03*
Y176063D02*
D03*
Y166063D02*
D03*
Y156063D02*
D03*
Y146063D02*
D03*
Y126063D02*
D03*
Y116063D02*
D03*
X320866D02*
D03*
Y126063D02*
D03*
Y146063D02*
D03*
Y156063D02*
D03*
Y166063D02*
D03*
Y176063D02*
D03*
Y196063D02*
D03*
Y206063D02*
D03*
Y216063D02*
D03*
Y226063D02*
D03*
Y246063D02*
D03*
Y256063D02*
D03*
Y266063D02*
D03*
Y276063D02*
D03*
Y296063D02*
D03*
X390866Y216063D02*
D03*
Y226063D02*
D03*
D139*
X118947Y232283D02*
D03*
X269831Y231471D02*
D03*
X196199Y232283D02*
D03*
X43049Y232087D02*
D03*
X72183D02*
D03*
X225332Y232283D02*
D03*
X298965Y231471D02*
D03*
X148081Y232283D02*
D03*
D140*
X19685Y227953D02*
D03*
X249016Y225590D02*
D03*
X96279Y225590D02*
D03*
X173699D02*
D03*
Y254724D02*
D03*
X96279D02*
D03*
X249016Y254724D02*
D03*
X19685Y257087D02*
D03*
D141*
X320866Y306063D02*
D03*
M02*
