G04*
G04 #@! TF.GenerationSoftware,Altium Limited,Altium Designer,26.9.1 (10)*
G04*
G04 Layer_Color=2752767*
G04 Board_Origin=24507875|15551181*
%FSLAX25Y25*%
%MOIN*%
G70*
G04*
G04 #@! TF.SameCoordinates,E31FBE90-4C1D-45C5-8F2B-B1877BC71EBF*
G04*
G04*
G04 #@! TF.FilePolarity,Positive*
G04*
G01*
G75*
%ADD10C,0.00500*%
%ADD152C,0.00667*%
%ADD153C,0.00400*%
D10*
X394198Y291061D02*
X390866D01*
Y286063D01*
X394198D01*
X390866Y288562D02*
X392532D01*
X426561Y286494D02*
X423228D01*
Y281496D01*
X426561D01*
X423228Y283995D02*
X424895D01*
X426561Y221534D02*
X423228D01*
Y216535D01*
X426561D01*
X423228Y219035D02*
X424895D01*
X394198Y241061D02*
X390866D01*
Y236063D01*
X394198D01*
X390866Y238562D02*
X392532D01*
X426561Y166416D02*
X423228D01*
Y161417D01*
X426561D01*
X423228Y163917D02*
X424895D01*
X410813Y191849D02*
X407480D01*
Y186850D01*
X410813D01*
X407480Y189350D02*
X409146D01*
X394198Y141061D02*
X390866D01*
Y136063D01*
X394198D01*
X390866Y138562D02*
X392532D01*
X394198Y191061D02*
X390866D01*
Y186063D01*
X394198D01*
X390866Y188562D02*
X392532D01*
X324198Y291061D02*
X320866D01*
Y286063D01*
X324198D01*
X320866Y288562D02*
X322532D01*
X324198Y241061D02*
X320866D01*
Y236063D01*
X324198D01*
X320866Y238562D02*
X322532D01*
X426561Y126416D02*
X423228D01*
Y121417D01*
X426561D01*
X423228Y123916D02*
X424895D01*
X426561Y44368D02*
X423228D01*
Y39370D01*
X426561D01*
X423228Y41869D02*
X424895D01*
X410813Y44368D02*
X407480D01*
Y39370D01*
X410813D01*
X407480Y41869D02*
X409146D01*
X373425Y22803D02*
X374425Y23803D01*
X375425D01*
X374425Y24803D01*
X375425Y25803D01*
X374425D01*
X373425Y26803D01*
X372425Y25803D01*
X371425D01*
X372425Y24803D01*
X371425Y23803D01*
X372425D01*
X373425Y22803D01*
Y23603D02*
X374025Y24203D01*
X374625D01*
X374025Y24803D01*
X374625Y25403D01*
X374025D01*
X373425Y26003D01*
X372825Y25403D01*
X372225D01*
X372825Y24803D01*
X372225Y24203D01*
X372825D01*
X373425Y23603D01*
X339370Y22803D02*
X340370Y23803D01*
X341370D01*
X340370Y24803D01*
X341370Y25803D01*
X340370D01*
X339370Y26803D01*
X338370Y25803D01*
X337370D01*
X338370Y24803D01*
X337370Y23803D01*
X338370D01*
X339370Y22803D01*
Y23603D02*
X339970Y24203D01*
X340570D01*
X339970Y24803D01*
X340570Y25403D01*
X339970D01*
X339370Y26003D01*
X338770Y25403D01*
X338170D01*
X338770Y24803D01*
X338170Y24203D01*
X338770D01*
X339370Y23603D01*
X281496Y300756D02*
X279496Y304756D01*
X283496D01*
X281496Y300756D01*
X242913D02*
X240913Y304756D01*
X244913D01*
X242913Y300756D01*
X241126Y268685D02*
Y267685D01*
X243126D01*
Y268685D01*
X244126D01*
Y270685D01*
X243126D01*
Y271685D01*
X241126D01*
Y270685D01*
X240126D01*
Y268685D01*
X241126D01*
X204331Y300756D02*
X202331Y304756D01*
X206331D01*
X204331Y300756D01*
X203724Y250969D02*
Y249969D01*
X205724D01*
Y250969D01*
X206724D01*
Y252969D01*
X205724D01*
Y253969D01*
X203724D01*
Y252969D01*
X202724D01*
Y250969D01*
X203724D01*
X280496D02*
Y249969D01*
X282496D01*
Y250969D01*
X283496D01*
Y252969D01*
X282496D01*
Y253969D01*
X280496D01*
Y252969D01*
X279496D01*
Y250969D01*
X280496D01*
X165748Y300756D02*
X163748Y304756D01*
X167748D01*
X165748Y300756D01*
X164354Y268685D02*
Y267685D01*
X166354D01*
Y268685D01*
X167354D01*
Y270685D01*
X166354D01*
Y271685D01*
X164354D01*
Y270685D01*
X163354D01*
Y268685D01*
X164354D01*
X324198Y191061D02*
X320866D01*
Y186063D01*
X324198D01*
X320866Y188562D02*
X322532D01*
X284646Y170047D02*
X282646Y174047D01*
X286646D01*
X284646Y170047D01*
X126953Y250969D02*
Y249969D01*
X128953D01*
Y250969D01*
X129953D01*
Y252969D01*
X128953D01*
Y253969D01*
X126953D01*
Y252969D01*
X125953D01*
Y250969D01*
X126953D01*
X127165Y300756D02*
X125165Y304756D01*
X129165D01*
X127165Y300756D01*
X88583D02*
X86583Y304756D01*
X90583D01*
X88583Y300756D01*
X50000D02*
X48000Y304756D01*
X52000D01*
X50000Y300756D01*
X87583Y268685D02*
Y267685D01*
X89583D01*
Y268685D01*
X90583D01*
Y270685D01*
X89583D01*
Y271685D01*
X87583D01*
Y270685D01*
X86583D01*
Y268685D01*
X87583D01*
X11417Y300756D02*
X9417Y304756D01*
X13417D01*
X11417Y300756D01*
X10811Y268685D02*
Y267685D01*
X12811D01*
Y268685D01*
X13811D01*
Y270685D01*
X12811D01*
Y271685D01*
X10811D01*
Y270685D01*
X9811D01*
Y268685D01*
X10811D01*
X49787Y250575D02*
Y249575D01*
X51787D01*
Y250575D01*
X52787D01*
Y252575D01*
X51787D01*
Y253575D01*
X49787D01*
Y252575D01*
X48787D01*
Y250575D01*
X49787D01*
X32252Y177559D02*
X34252Y179559D01*
X36252Y177559D01*
X34252Y175559D01*
X32252Y177559D01*
Y153937D02*
X34252Y155937D01*
X36252Y153937D01*
X34252Y151937D01*
X32252Y153937D01*
Y165748D02*
X34252Y167748D01*
X36252Y165748D01*
X34252Y163748D01*
X32252Y165748D01*
X324198Y141061D02*
X320866D01*
Y136063D01*
X324198D01*
X320866Y138562D02*
X322532D01*
X32252Y142126D02*
X34252Y144126D01*
X36252Y142126D01*
X34252Y140126D01*
X32252Y142126D01*
X426561Y114368D02*
X423228D01*
Y109370D01*
X426561D01*
X423228Y111869D02*
X424895D01*
X426561Y54369D02*
X423228D01*
Y49370D01*
X426561D01*
X423228Y51869D02*
X424895D01*
X410813Y54369D02*
X407480D01*
Y49370D01*
X410813D01*
X407480Y51869D02*
X409146D01*
X44063Y142126D02*
X46063Y144126D01*
X48063Y142126D01*
X46063Y140126D01*
X44063Y142126D01*
Y153937D02*
X46063Y155937D01*
X48063Y153937D01*
X46063Y151937D01*
X44063Y153937D01*
Y165748D02*
X46063Y167748D01*
X48063Y165748D01*
X46063Y163748D01*
X44063Y165748D01*
Y177559D02*
X46063Y179559D01*
X48063Y177559D01*
X46063Y175559D01*
X44063Y177559D01*
X394198Y311061D02*
X390866D01*
Y306063D01*
X394198D01*
X390866Y308562D02*
X392532D01*
X394198Y301061D02*
X390866D01*
Y296063D01*
X394198D01*
X390866Y298562D02*
X392532D01*
X394198Y281061D02*
X390866D01*
Y276063D01*
X394198D01*
X390866Y278562D02*
X392532D01*
X394198Y271061D02*
X390866D01*
Y266063D01*
X394198D01*
X390866Y268562D02*
X392532D01*
X394198Y261061D02*
X390866D01*
Y256063D01*
X394198D01*
X390866Y258562D02*
X392532D01*
X394198Y251061D02*
X390866D01*
Y246063D01*
X394198D01*
X390866Y248562D02*
X392532D01*
X394198Y211061D02*
X390866D01*
Y206063D01*
X394198D01*
X390866Y208562D02*
X392532D01*
X394198Y201061D02*
X390866D01*
Y196063D01*
X394198D01*
X390866Y198562D02*
X392532D01*
X394198Y181061D02*
X390866D01*
Y176063D01*
X394198D01*
X390866Y178562D02*
X392532D01*
X394198Y171061D02*
X390866D01*
Y166063D01*
X394198D01*
X390866Y168562D02*
X392532D01*
X394198Y161061D02*
X390866D01*
Y156063D01*
X394198D01*
X390866Y158562D02*
X392532D01*
X394198Y151061D02*
X390866D01*
Y146063D01*
X394198D01*
X390866Y148562D02*
X392532D01*
X394198Y131061D02*
X390866D01*
Y126063D01*
X394198D01*
X390866Y128562D02*
X392532D01*
X394198Y121061D02*
X390866D01*
Y116063D01*
X394198D01*
X390866Y118562D02*
X392532D01*
X324198Y121061D02*
X320866D01*
Y116063D01*
X324198D01*
X320866Y118562D02*
X322532D01*
X324198Y131061D02*
X320866D01*
Y126063D01*
X324198D01*
X320866Y128562D02*
X322532D01*
X324198Y151061D02*
X320866D01*
Y146063D01*
X324198D01*
X320866Y148562D02*
X322532D01*
X324198Y161061D02*
X320866D01*
Y156063D01*
X324198D01*
X320866Y158562D02*
X322532D01*
X324198Y171061D02*
X320866D01*
Y166063D01*
X324198D01*
X320866Y168562D02*
X322532D01*
X324198Y181061D02*
X320866D01*
Y176063D01*
X324198D01*
X320866Y178562D02*
X322532D01*
X324198Y201061D02*
X320866D01*
Y196063D01*
X324198D01*
X320866Y198562D02*
X322532D01*
X324198Y211061D02*
X320866D01*
Y206063D01*
X324198D01*
X320866Y208562D02*
X322532D01*
X324198Y221061D02*
X320866D01*
Y216063D01*
X324198D01*
X320866Y218562D02*
X322532D01*
X324198Y231061D02*
X320866D01*
Y226063D01*
X324198D01*
X320866Y228562D02*
X322532D01*
X324198Y251061D02*
X320866D01*
Y246063D01*
X324198D01*
X320866Y248562D02*
X322532D01*
X324198Y261061D02*
X320866D01*
Y256063D01*
X324198D01*
X320866Y258562D02*
X322532D01*
X324198Y271061D02*
X320866D01*
Y266063D01*
X324198D01*
X320866Y268562D02*
X322532D01*
X324198Y281061D02*
X320866D01*
Y276063D01*
X324198D01*
X320866Y278562D02*
X322532D01*
X324198Y301061D02*
X320866D01*
Y296063D01*
X324198D01*
X320866Y298562D02*
X322532D01*
X324198Y311061D02*
X320866D01*
Y306063D01*
X324198D01*
X320866Y308562D02*
X322532D01*
X394198Y221061D02*
X390866D01*
Y216063D01*
X394198D01*
X390866Y218562D02*
X392532D01*
X394198Y231061D02*
X390866D01*
Y226063D01*
X394198D01*
X390866Y228562D02*
X392532D01*
X294882Y170047D02*
X292882Y174047D01*
X296882D01*
X294882Y170047D01*
X274803D02*
X272803Y174047D01*
X276803D01*
X274803Y170047D01*
X426561Y211534D02*
X423228D01*
Y206535D01*
X426561D01*
X423228Y209035D02*
X424895D01*
X426561Y276494D02*
X423228D01*
Y271496D01*
X426561D01*
X423228Y273995D02*
X424895D01*
X426561Y201534D02*
X423228D01*
Y196535D01*
X426561D01*
X423228Y199035D02*
X424895D01*
X426561Y266494D02*
X423228D01*
Y261496D01*
X426561D01*
X423228Y263995D02*
X424895D01*
X426561Y256494D02*
X423228D01*
Y251496D01*
X426561D01*
X423228Y253995D02*
X424895D01*
X426561Y191534D02*
X423228D01*
Y186535D01*
X426561D01*
X423228Y189035D02*
X424895D01*
X426561Y84368D02*
X423228D01*
Y79370D01*
X426561D01*
X423228Y81869D02*
X424895D01*
X426561Y246494D02*
X423228D01*
Y241496D01*
X426561D01*
X423228Y243995D02*
X424895D01*
X426561Y236494D02*
X423228D01*
Y231496D01*
X426561D01*
X423228Y233995D02*
X424895D01*
X426561Y104368D02*
X423228D01*
Y99370D01*
X426561D01*
X423228Y101869D02*
X424895D01*
X426561Y181534D02*
X423228D01*
Y176535D01*
X426561D01*
X423228Y179035D02*
X424895D01*
X107268Y268685D02*
Y267685D01*
X109268D01*
Y268685D01*
X110268D01*
Y270685D01*
X109268D01*
Y271685D01*
X107268D01*
Y270685D01*
X106268D01*
Y268685D01*
X107268D01*
X146638Y250969D02*
Y249969D01*
X148638D01*
Y250969D01*
X149638D01*
Y252969D01*
X148638D01*
Y253969D01*
X146638D01*
Y252969D01*
X145638D01*
Y250969D01*
X146638D01*
X184039Y268685D02*
Y267685D01*
X186039D01*
Y268685D01*
X187039D01*
Y270685D01*
X186039D01*
Y271685D01*
X184039D01*
Y270685D01*
X183039D01*
Y268685D01*
X184039D01*
X260811D02*
Y267685D01*
X262811D01*
Y268685D01*
X263811D01*
Y270685D01*
X262811D01*
Y271685D01*
X260811D01*
Y270685D01*
X259811D01*
Y268685D01*
X260811D01*
X300181Y250969D02*
Y249969D01*
X302181D01*
Y250969D01*
X303181D01*
Y252969D01*
X302181D01*
Y253969D01*
X300181D01*
Y252969D01*
X299181D01*
Y250969D01*
X300181D01*
X69472Y250575D02*
Y249575D01*
X71472D01*
Y250575D01*
X72472D01*
Y252575D01*
X71472D01*
Y253575D01*
X69472D01*
Y252575D01*
X68472D01*
Y250575D01*
X69472D01*
X30496Y268685D02*
Y267685D01*
X32496D01*
Y268685D01*
X33496D01*
Y270685D01*
X32496D01*
Y271685D01*
X30496D01*
Y270685D01*
X29496D01*
Y268685D01*
X30496D01*
X223410Y250969D02*
Y249969D01*
X225410D01*
Y250969D01*
X226410D01*
Y252969D01*
X225410D01*
Y253969D01*
X223410D01*
Y252969D01*
X222410D01*
Y250969D01*
X223410D01*
X31102Y300756D02*
X29102Y304756D01*
X33102D01*
X31102Y300756D01*
X21260D02*
X19260Y304756D01*
X23260D01*
X21260Y300756D01*
X342980Y20835D02*
X343980D01*
X344980Y21835D01*
X345980Y20835D01*
X346980D01*
Y21835D01*
X345980Y22835D01*
X346980Y23835D01*
Y24835D01*
X345980D01*
X344980Y23835D01*
X343980Y24835D01*
X342980D01*
Y23835D01*
X343980Y22835D01*
X342980Y21835D01*
Y20835D01*
X343780Y21635D02*
X344380D01*
X344980Y22235D01*
X345580Y21635D01*
X346180D01*
Y22235D01*
X345580Y22835D01*
X346180Y23435D01*
Y24035D01*
X345580D01*
X344980Y23435D01*
X344380Y24035D01*
X343780D01*
Y23435D01*
X344380Y22835D01*
X343780Y22235D01*
Y21635D01*
X365814Y20835D02*
X366814D01*
X367814Y21835D01*
X368814Y20835D01*
X369814D01*
Y21835D01*
X368814Y22835D01*
X369814Y23835D01*
Y24835D01*
X368814D01*
X367814Y23835D01*
X366814Y24835D01*
X365814D01*
Y23835D01*
X366814Y22835D01*
X365814Y21835D01*
Y20835D01*
X366614Y21635D02*
X367214D01*
X367814Y22235D01*
X368414Y21635D01*
X369014D01*
Y22235D01*
X368414Y22835D01*
X369014Y23435D01*
Y24035D01*
X368414D01*
X367814Y23435D01*
X367214Y24035D01*
X366614D01*
Y23435D01*
X367214Y22835D01*
X366614Y22235D01*
Y21635D01*
X13748Y13748D02*
Y17748D01*
X17748D01*
Y13748D01*
X13748D01*
X224016Y300756D02*
X222016Y304756D01*
X226016D01*
X224016Y300756D01*
X214173D02*
X212173Y304756D01*
X216173D01*
X214173Y300756D01*
X108268D02*
X106268Y304756D01*
X110268D01*
X108268Y300756D01*
X98425D02*
X96425Y304756D01*
X100425D01*
X98425Y300756D01*
X69685D02*
X67685Y304756D01*
X71685D01*
X69685Y300756D01*
X84907Y74762D02*
X83241D01*
X84074D01*
Y70597D01*
X83241Y69764D01*
X82408D01*
X81575Y70597D01*
X97387Y74762D02*
X95721D01*
X96554D01*
Y70597D01*
X95721Y69764D01*
X94888D01*
X94055Y70597D01*
X112387Y74762D02*
X110721D01*
X111554D01*
Y70597D01*
X110721Y69764D01*
X109888D01*
X109055Y70597D01*
X127387Y74762D02*
X125721D01*
X126554D01*
Y70597D01*
X125721Y69764D01*
X124888D01*
X124055Y70597D01*
X97387Y54762D02*
X95721D01*
X96554D01*
Y50597D01*
X95721Y49764D01*
X94888D01*
X94055Y50597D01*
X112387Y54762D02*
X110721D01*
X111554D01*
Y50597D01*
X110721Y49764D01*
X109888D01*
X109055Y50597D01*
X127387Y54762D02*
X125721D01*
X126554D01*
Y50597D01*
X125721Y49764D01*
X124888D01*
X124055Y50597D01*
X139868Y74762D02*
X138201D01*
X139035D01*
Y70597D01*
X138201Y69764D01*
X137369D01*
X136535Y70597D01*
X92055Y32764D02*
Y36764D01*
X96055D01*
Y32764D01*
X92055D01*
X92855Y33564D02*
Y35964D01*
X95255D01*
Y33564D01*
X92855D01*
X122055Y12764D02*
Y16764D01*
X126055D01*
Y12764D01*
X122055D01*
X122855Y13564D02*
Y15964D01*
X125255D01*
Y13564D01*
X122855D01*
X190480Y33000D02*
Y37000D01*
X194480D01*
Y33000D01*
X190480D01*
X191280Y33800D02*
Y36200D01*
X193680D01*
Y33800D01*
X191280D01*
X220480Y13000D02*
Y17000D01*
X224480D01*
Y13000D01*
X220480D01*
X221280Y13800D02*
Y16200D01*
X223680D01*
Y13800D01*
X221280D01*
X195813Y72518D02*
X194146D01*
X194980D01*
Y68353D01*
X194146Y67520D01*
X193313D01*
X192480Y68353D01*
X183332Y57518D02*
X181666D01*
X182499D01*
Y53353D01*
X181666Y52520D01*
X180833D01*
X180000Y53353D01*
X243293Y32479D02*
X241627D01*
X242460D01*
Y28313D01*
X241627Y27480D01*
X240794D01*
X239961Y28313D01*
X195813Y54998D02*
X194146D01*
X194980D01*
Y50833D01*
X194146Y50000D01*
X193313D01*
X192480Y50833D01*
X210813Y57518D02*
X209146D01*
X209980D01*
Y53353D01*
X209146Y52520D01*
X208313D01*
X207480Y53353D01*
X210813Y72518D02*
X209146D01*
X209980D01*
Y68353D01*
X209146Y67520D01*
X208313D01*
X207480Y68353D01*
X225813Y54998D02*
X224146D01*
X224979D01*
Y50833D01*
X224146Y50000D01*
X223313D01*
X222480Y50833D01*
X225813Y72518D02*
X224146D01*
X224979D01*
Y68353D01*
X224146Y67520D01*
X223313D01*
X222480Y68353D01*
X47921Y180598D02*
X48921D01*
X49921Y181598D01*
X50921Y180598D01*
X51921D01*
Y181598D01*
X50921Y182598D01*
X51921Y183598D01*
Y184598D01*
X50921D01*
X49921Y183598D01*
X48921Y184598D01*
X47921D01*
Y183598D01*
X48921Y182598D01*
X47921Y181598D01*
Y180598D01*
X410813Y201849D02*
X407480D01*
Y196850D01*
X410813D01*
X407480Y199350D02*
X409146D01*
X426561Y94368D02*
X423228D01*
Y89370D01*
X426561D01*
X423228Y91869D02*
X424895D01*
X426561Y74369D02*
X423228D01*
Y69370D01*
X426561D01*
X423228Y71869D02*
X424895D01*
X426561Y64368D02*
X423228D01*
Y59370D01*
X426561D01*
X423228Y61869D02*
X424895D01*
X59842Y300756D02*
X57842Y304756D01*
X61843D01*
X59842Y300756D01*
X175591D02*
X173591Y304756D01*
X177591D01*
X175591Y300756D01*
X252756D02*
X250756Y304756D01*
X254756D01*
X252756Y300756D01*
X137008D02*
X135008Y304756D01*
X139008D01*
X137008Y300756D01*
X291339D02*
X289339Y304756D01*
X293339D01*
X291339Y300756D01*
X146850D02*
X144850Y304756D01*
X148850D01*
X146850Y300756D01*
X185433D02*
X183433Y304756D01*
X187433D01*
X185433Y300756D01*
X301181D02*
X299181Y304756D01*
X303181D01*
X301181Y300756D01*
X262598D02*
X260598Y304756D01*
X264598D01*
X262598Y300756D01*
X19080Y204953D02*
X18247Y205786D01*
X16581D01*
X15748Y204953D01*
Y201621D01*
X16581Y200787D01*
X18247D01*
X19080Y201621D01*
X426561Y146416D02*
X423228D01*
Y141417D01*
X426561D01*
X423228Y143916D02*
X424895D01*
X426561Y136416D02*
X423228D01*
Y131417D01*
X426561D01*
X423228Y133916D02*
X424895D01*
X426561Y156416D02*
X423228D01*
Y151417D01*
X426561D01*
X423228Y153917D02*
X424895D01*
X420655Y307315D02*
X419822Y308148D01*
X418156D01*
X417323Y307315D01*
Y303983D01*
X418156Y303150D01*
X419822D01*
X420655Y303983D01*
Y19913D02*
X419822Y20746D01*
X418156D01*
X417323Y19913D01*
Y16581D01*
X418156Y15748D01*
X419822D01*
X420655Y16581D01*
X379528Y302724D02*
X380528Y303724D01*
X381528D01*
X380528Y304724D01*
X381528Y305724D01*
X380528D01*
X379528Y306724D01*
X378528Y305724D01*
X377528D01*
X378528Y304724D01*
X377528Y303724D01*
X378528D01*
X379528Y302724D01*
X344882Y164142D02*
X345882Y165142D01*
X346882D01*
X345882Y166142D01*
X346882Y167142D01*
X345882D01*
X344882Y168142D01*
X343882Y167142D01*
X342882D01*
X343882Y166142D01*
X342882Y165142D01*
X343882D01*
X344882Y164142D01*
X372441Y170835D02*
X373441Y171835D01*
X374441D01*
X373441Y172835D01*
X374441Y173835D01*
X373441D01*
X372441Y174835D01*
X371441Y173835D01*
X370441D01*
X371441Y172835D01*
X370441Y171835D01*
X371441D01*
X372441Y170835D01*
X332283Y155087D02*
X333283Y156087D01*
X334283D01*
X333283Y157087D01*
X334283Y158087D01*
X333283D01*
X332283Y159087D01*
X331283Y158087D01*
X330283D01*
X331283Y157087D01*
X330283Y156087D01*
X331283D01*
X332283Y155087D01*
X380906Y260795D02*
X381906Y261795D01*
X382906D01*
X381906Y262795D01*
X382906Y263795D01*
X381906D01*
X380906Y264795D01*
X379906Y263795D01*
X378906D01*
X379906Y262795D01*
X378906Y261795D01*
X379906D01*
X380906Y260795D01*
X360236Y272016D02*
X361236Y273016D01*
X362236D01*
X361236Y274016D01*
X362236Y275016D01*
X361236D01*
X360236Y276016D01*
X359236Y275016D01*
X358236D01*
X359236Y274016D01*
X358236Y273016D01*
X359236D01*
X360236Y272016D01*
X365748Y247606D02*
X366748Y248606D01*
X367748D01*
X366748Y249606D01*
X367748Y250606D01*
X366748D01*
X365748Y251606D01*
X364748Y250606D01*
X363748D01*
X364748Y249606D01*
X363748Y248606D01*
X364748D01*
X365748Y247606D01*
X378740Y195244D02*
X379740Y196244D01*
X380740D01*
X379740Y197244D01*
X380740Y198244D01*
X379740D01*
X378740Y199244D01*
X377740Y198244D01*
X376740D01*
X377740Y197244D01*
X376740Y196244D01*
X377740D01*
X378740Y195244D01*
X358268Y195638D02*
X359268Y196638D01*
X360268D01*
X359268Y197638D01*
X360268Y198638D01*
X359268D01*
X358268Y199638D01*
X357268Y198638D01*
X356268D01*
X357268Y197638D01*
X356268Y196638D01*
X357268D01*
X358268Y195638D01*
X354331Y305087D02*
X355331Y306087D01*
X356331D01*
X355331Y307087D01*
X356331Y308087D01*
X355331D01*
X354331Y309087D01*
X353331Y308087D01*
X352331D01*
X353331Y307087D01*
X352331Y306087D01*
X353331D01*
X354331Y305087D01*
X352756Y195638D02*
X353756Y196638D01*
X354756D01*
X353756Y197638D01*
X354756Y198638D01*
X353756D01*
X352756Y199638D01*
X351756Y198638D01*
X350756D01*
X351756Y197638D01*
X350756Y196638D01*
X351756D01*
X352756Y195638D01*
X333071Y195244D02*
X334071Y196244D01*
X335071D01*
X334071Y197244D01*
X335071Y198244D01*
X334071D01*
X333071Y199244D01*
X332071Y198244D01*
X331071D01*
X332071Y197244D01*
X331071Y196244D01*
X332071D01*
X333071Y195244D01*
X334646Y186976D02*
X335646Y187976D01*
X336646D01*
X335646Y188976D01*
X336646Y189976D01*
X335646D01*
X334646Y190976D01*
X333646Y189976D01*
X332646D01*
X333646Y188976D01*
X332646Y187976D01*
X333646D01*
X334646Y186976D01*
X381496Y59024D02*
X382496Y60024D01*
X383496D01*
X382496Y61024D01*
X383496Y62024D01*
X382496D01*
X381496Y63024D01*
X380496Y62024D01*
X379496D01*
X380496Y61024D01*
X379496Y60024D01*
X380496D01*
X381496Y59024D01*
X378731Y77322D02*
X379731Y78322D01*
X380732D01*
X379731Y79322D01*
X380732Y80322D01*
X379731D01*
X378731Y81322D01*
X377731Y80322D01*
X376731D01*
X377731Y79322D01*
X376731Y78322D01*
X377731D01*
X378731Y77322D01*
X395669Y37370D02*
X396669Y38370D01*
X397669D01*
X396669Y39370D01*
X397669Y40370D01*
X396669D01*
X395669Y41370D01*
X394669Y40370D01*
X393669D01*
X394669Y39370D01*
X393669Y38370D01*
X394669D01*
X395669Y37370D01*
X385791Y38680D02*
X386791Y39680D01*
X387791D01*
X386791Y40681D01*
X387791Y41680D01*
X386791D01*
X385791Y42680D01*
X384791Y41680D01*
X383791D01*
X384791Y40681D01*
X383791Y39680D01*
X384791D01*
X385791Y38680D01*
X389736Y31437D02*
X390736Y32437D01*
X391736D01*
X390736Y33437D01*
X391736Y34437D01*
X390736D01*
X389736Y35437D01*
X388736Y34437D01*
X387736D01*
X388736Y33437D01*
X387736Y32437D01*
X388736D01*
X389736Y31437D01*
X395669Y9811D02*
X396669Y10811D01*
X397669D01*
X396669Y11811D01*
X397669Y12811D01*
X396669D01*
X395669Y13811D01*
X394669Y12811D01*
X393669D01*
X394669Y11811D01*
X393669Y10811D01*
X394669D01*
X395669Y9811D01*
X383858Y3906D02*
X384858Y4905D01*
X385858D01*
X384858Y5906D01*
X385858Y6905D01*
X384858D01*
X383858Y7905D01*
X382858Y6905D01*
X381858D01*
X382858Y5906D01*
X381858Y4905D01*
X382858D01*
X383858Y3906D01*
X378776Y39768D02*
X379776Y40768D01*
X380776D01*
X379776Y41768D01*
X380776Y42768D01*
X379776D01*
X378776Y43768D01*
X377776Y42768D01*
X376776D01*
X377776Y41768D01*
X376776Y40768D01*
X377776D01*
X378776Y39768D01*
X374016Y33433D02*
X375016Y34433D01*
X376016D01*
X375016Y35433D01*
X376016Y36433D01*
X375016D01*
X374016Y37433D01*
X373016Y36433D01*
X372016D01*
X373016Y35433D01*
X372016Y34433D01*
X373016D01*
X374016Y33433D01*
X372835Y39732D02*
X373835Y40732D01*
X374835D01*
X373835Y41732D01*
X374835Y42732D01*
X373835D01*
X372835Y43732D01*
X371835Y42732D01*
X370835D01*
X371835Y41732D01*
X370835Y40732D01*
X371835D01*
X372835Y39732D01*
X365779Y105123D02*
X366779Y106123D01*
X367779D01*
X366779Y107123D01*
X367779Y108123D01*
X366779D01*
X365779Y109123D01*
X364779Y108123D01*
X363779D01*
X364779Y107123D01*
X363779Y106123D01*
X364779D01*
X365779Y105123D01*
X368495Y77322D02*
X369495Y78322D01*
X370495D01*
X369495Y79322D01*
X370495Y80322D01*
X369495D01*
X368495Y81322D01*
X367495Y80322D01*
X366495D01*
X367495Y79322D01*
X366495Y78322D01*
X367495D01*
X368495Y77322D01*
X360818D02*
X361818Y78322D01*
X362818D01*
X361818Y79322D01*
X362818Y80322D01*
X361818D01*
X360818Y81322D01*
X359818Y80322D01*
X358818D01*
X359818Y79322D01*
X358818Y78322D01*
X359818D01*
X360818Y77322D01*
X360236Y55087D02*
X361236Y56087D01*
X362236D01*
X361236Y57087D01*
X362236Y58087D01*
X361236D01*
X360236Y59087D01*
X359236Y58087D01*
X358236D01*
X359236Y57087D01*
X358236Y56087D01*
X359236D01*
X360236Y55087D01*
X355118Y127134D02*
X356118Y128134D01*
X357118D01*
X356118Y129134D01*
X357118Y130134D01*
X356118D01*
X355118Y131134D01*
X354118Y130134D01*
X353118D01*
X354118Y129134D01*
X353118Y128134D01*
X354118D01*
X355118Y127134D01*
X346850Y130677D02*
X347850Y131677D01*
X348850D01*
X347850Y132677D01*
X348850Y133677D01*
X347850D01*
X346850Y134677D01*
X345850Y133677D01*
X344850D01*
X345850Y132677D01*
X344850Y131677D01*
X345850D01*
X346850Y130677D01*
X360236Y59024D02*
X361236Y60024D01*
X362236D01*
X361236Y61024D01*
X362236Y62024D01*
X361236D01*
X360236Y63024D01*
X359236Y62024D01*
X358236D01*
X359236Y61024D01*
X358236Y60024D01*
X359236D01*
X360236Y59024D01*
X348425Y55087D02*
X349425Y56087D01*
X350425D01*
X349425Y57087D01*
X350425Y58087D01*
X349425D01*
X348425Y59087D01*
X347425Y58087D01*
X346425D01*
X347425Y57087D01*
X346425Y56087D01*
X347425D01*
X348425Y55087D01*
X333930Y63655D02*
X334930Y64655D01*
X335930D01*
X334930Y65655D01*
X335930Y66655D01*
X334930D01*
X333930Y67655D01*
X332930Y66655D01*
X331930D01*
X332930Y65655D01*
X331930Y64655D01*
X332930D01*
X333930Y63655D01*
X348425Y59024D02*
X349425Y60024D01*
X350425D01*
X349425Y61024D01*
X350425Y62024D01*
X349425D01*
X348425Y63024D01*
X347425Y62024D01*
X346425D01*
X347425Y61024D01*
X346425Y60024D01*
X347425D01*
X348425Y59024D01*
X354326Y45219D02*
X355326Y46218D01*
X356326D01*
X355326Y47218D01*
X356326Y48219D01*
X355326D01*
X354326Y49218D01*
X353326Y48219D01*
X352326D01*
X353326Y47218D01*
X352326Y46218D01*
X353326D01*
X354326Y45219D01*
X356299Y3906D02*
X357299Y4905D01*
X358299D01*
X357299Y5906D01*
X358299Y6905D01*
X357299D01*
X356299Y7905D01*
X355299Y6905D01*
X354299D01*
X355299Y5906D01*
X354299Y4905D01*
X355299D01*
X356299Y3906D01*
X338583Y33433D02*
X339583Y34433D01*
X340583D01*
X339583Y35433D01*
X340583Y36433D01*
X339583D01*
X338583Y37433D01*
X337583Y36433D01*
X336583D01*
X337583Y35433D01*
X336583Y34433D01*
X337583D01*
X338583Y33433D01*
X324446Y31827D02*
X325446Y32827D01*
X326446D01*
X325446Y33827D01*
X326446Y34827D01*
X325446D01*
X324446Y35827D01*
X323446Y34827D01*
X322446D01*
X323446Y33827D01*
X322446Y32827D01*
X323446D01*
X324446Y31827D01*
X318898Y43276D02*
X319898Y44276D01*
X320898D01*
X319898Y45276D01*
X320898Y46276D01*
X319898D01*
X318898Y47276D01*
X317898Y46276D01*
X316898D01*
X317898Y45276D01*
X316898Y44276D01*
X317898D01*
X318898Y43276D01*
Y9811D02*
X319898Y10811D01*
X320898D01*
X319898Y11811D01*
X320898Y12811D01*
X319898D01*
X318898Y13811D01*
X317898Y12811D01*
X316898D01*
X317898Y11811D01*
X316898Y10811D01*
X317898D01*
X318898Y9811D01*
X326772Y3906D02*
X327772Y4905D01*
X328772D01*
X327772Y5906D01*
X328772Y6905D01*
X327772D01*
X326772Y7905D01*
X325772Y6905D01*
X324772D01*
X325772Y5906D01*
X324772Y4905D01*
X325772D01*
X326772Y3906D01*
X230315Y194850D02*
X231315Y195850D01*
X232315D01*
X231315Y196850D01*
X232315Y197850D01*
X231315D01*
X230315Y198850D01*
X229315Y197850D01*
X228315D01*
X229315Y196850D01*
X228315Y195850D01*
X229315D01*
X230315Y194850D01*
X170079Y204693D02*
X171079Y205693D01*
X172079D01*
X171079Y206693D01*
X172079Y207693D01*
X171079D01*
X170079Y208693D01*
X169079Y207693D01*
X168079D01*
X169079Y206693D01*
X168079Y205693D01*
X169079D01*
X170079Y204693D01*
X184646D02*
X185646Y205693D01*
X186646D01*
X185646Y206693D01*
X186646Y207693D01*
X185646D01*
X184646Y208693D01*
X183646Y207693D01*
X182646D01*
X183646Y206693D01*
X182646Y205693D01*
X183646D01*
X184646Y204693D01*
X155905D02*
X156905Y205693D01*
X157905D01*
X156905Y206693D01*
X157905Y207693D01*
X156905D01*
X155905Y208693D01*
X154905Y207693D01*
X153905D01*
X154905Y206693D01*
X153905Y205693D01*
X154905D01*
X155905Y204693D01*
X200787D02*
X201787Y205693D01*
X202787D01*
X201787Y206693D01*
X202787Y207693D01*
X201787D01*
X200787Y208693D01*
X199787Y207693D01*
X198787D01*
X199787Y206693D01*
X198787Y205693D01*
X199787D01*
X200787Y204693D01*
Y198787D02*
X201787Y199787D01*
X202787D01*
X201787Y200787D01*
X202787Y201787D01*
X201787D01*
X200787Y202787D01*
X199787Y201787D01*
X198787D01*
X199787Y200787D01*
X198787Y199787D01*
X199787D01*
X200787Y198787D01*
X159449Y196819D02*
X160449Y197819D01*
X161449D01*
X160449Y198819D01*
X161449Y199819D01*
X160449D01*
X159449Y200819D01*
X158449Y199819D01*
X157449D01*
X158449Y198819D01*
X157449Y197819D01*
X158449D01*
X159449Y196819D01*
X165354D02*
X166354Y197819D01*
X167354D01*
X166354Y198819D01*
X167354Y199819D01*
X166354D01*
X165354Y200819D01*
X164354Y199819D01*
X163354D01*
X164354Y198819D01*
X163354Y197819D01*
X164354D01*
X165354Y196819D01*
X245276Y158630D02*
X246276Y159630D01*
X247276D01*
X246276Y160630D01*
X247276Y161630D01*
X246276D01*
X245276Y162630D01*
X244276Y161630D01*
X243276D01*
X244276Y160630D01*
X243276Y159630D01*
X244276D01*
X245276Y158630D01*
X269685Y154299D02*
X270685Y155299D01*
X271685D01*
X270685Y156299D01*
X271685Y157299D01*
X270685D01*
X269685Y158299D01*
X268685Y157299D01*
X267685D01*
X268685Y156299D01*
X267685Y155299D01*
X268685D01*
X269685Y154299D01*
Y147606D02*
X270685Y148606D01*
X271685D01*
X270685Y149606D01*
X271685Y150606D01*
X270685D01*
X269685Y151606D01*
X268685Y150606D01*
X267685D01*
X268685Y149606D01*
X267685Y148606D01*
X268685D01*
X269685Y147606D01*
X241339Y149575D02*
X242339Y150575D01*
X243339D01*
X242339Y151575D01*
X243339Y152575D01*
X242339D01*
X241339Y153575D01*
X240339Y152575D01*
X239339D01*
X240339Y151575D01*
X239339Y150575D01*
X240339D01*
X241339Y149575D01*
X223622Y148000D02*
X224622Y149000D01*
X225622D01*
X224622Y150000D01*
X225622Y151000D01*
X224622D01*
X223622Y152000D01*
X222622Y151000D01*
X221622D01*
X222622Y150000D01*
X221622Y149000D01*
X222622D01*
X223622Y148000D01*
X159252Y167291D02*
X160252Y168291D01*
X161252D01*
X160252Y169291D01*
X161252Y170291D01*
X160252D01*
X159252Y171291D01*
X158252Y170291D01*
X157252D01*
X158252Y169291D01*
X157252Y168291D01*
X158252D01*
X159252Y167291D01*
X154331Y174378D02*
X155331Y175378D01*
X156331D01*
X155331Y176378D01*
X156331Y177378D01*
X155331D01*
X154331Y178378D01*
X153331Y177378D01*
X152331D01*
X153331Y176378D01*
X152331Y175378D01*
X153331D01*
X154331Y174378D01*
X223622Y157843D02*
X224622Y158843D01*
X225622D01*
X224622Y159843D01*
X225622Y160843D01*
X224622D01*
X223622Y161843D01*
X222622Y160843D01*
X221622D01*
X222622Y159843D01*
X221622Y158843D01*
X222622D01*
X223622Y157843D01*
X171063Y167291D02*
X172063Y168291D01*
X173063D01*
X172063Y169291D01*
X173063Y170291D01*
X172063D01*
X171063Y171291D01*
X170063Y170291D01*
X169063D01*
X170063Y169291D01*
X169063Y168291D01*
X170063D01*
X171063Y167291D01*
X112205Y194850D02*
X113205Y195850D01*
X114205D01*
X113205Y196850D01*
X114205Y197850D01*
X113205D01*
X112205Y198850D01*
X111205Y197850D01*
X110205D01*
X111205Y196850D01*
X110205Y195850D01*
X111205D01*
X112205Y194850D01*
X94488Y204693D02*
X95488Y205693D01*
X96488D01*
X95488Y206693D01*
X96488Y207693D01*
X95488D01*
X94488Y208693D01*
X93488Y207693D01*
X92488D01*
X93488Y206693D01*
X92488Y205693D01*
X93488D01*
X94488Y204693D01*
X103150D02*
X104150Y205693D01*
X105150D01*
X104150Y206693D01*
X105150Y207693D01*
X104150D01*
X103150Y208693D01*
X102150Y207693D01*
X101150D01*
X102150Y206693D01*
X101150Y205693D01*
X102150D01*
X103150Y204693D01*
X136221Y194850D02*
X137221Y195850D01*
X138221D01*
X137221Y196850D01*
X138221Y197850D01*
X137221D01*
X136221Y198850D01*
X135221Y197850D01*
X134221D01*
X135221Y196850D01*
X134221Y195850D01*
X135221D01*
X136221Y194850D01*
X141732D02*
X142732Y195850D01*
X143732D01*
X142732Y196850D01*
X143732Y197850D01*
X142732D01*
X141732Y198850D01*
X140732Y197850D01*
X139732D01*
X140732Y196850D01*
X139732Y195850D01*
X140732D01*
X141732Y194850D01*
X112205Y190913D02*
X113205Y191913D01*
X114205D01*
X113205Y192913D01*
X114205Y193913D01*
X113205D01*
X112205Y194913D01*
X111205Y193913D01*
X110205D01*
X111205Y192913D01*
X110205Y191913D01*
X111205D01*
X112205Y190913D01*
X90551Y196819D02*
X91551Y197819D01*
X92551D01*
X91551Y198819D01*
X92551Y199819D01*
X91551D01*
X90551Y200819D01*
X89551Y199819D01*
X88551D01*
X89551Y198819D01*
X88551Y197819D01*
X89551D01*
X90551Y196819D01*
X34449Y192882D02*
X35449Y193882D01*
X36449D01*
X35449Y194882D01*
X36449Y195882D01*
X35449D01*
X34449Y196882D01*
X33449Y195882D01*
X32449D01*
X33449Y194882D01*
X32449Y193882D01*
X33449D01*
X34449Y192882D01*
X112205Y185008D02*
X113205Y186008D01*
X114205D01*
X113205Y187008D01*
X114205Y188008D01*
X113205D01*
X112205Y189008D01*
X111205Y188008D01*
X110205D01*
X111205Y187008D01*
X110205Y186008D01*
X111205D01*
X112205Y185008D01*
X114173Y173197D02*
X115173Y174197D01*
X116173D01*
X115173Y175197D01*
X116173Y176197D01*
X115173D01*
X114173Y177197D01*
X113173Y176197D01*
X112173D01*
X113173Y175197D01*
X112173Y174197D01*
X113173D01*
X114173Y173197D01*
X135827Y167291D02*
X136827Y168291D01*
X137827D01*
X136827Y169291D01*
X137827Y170291D01*
X136827D01*
X135827Y171291D01*
X134827Y170291D01*
X133827D01*
X134827Y169291D01*
X133827Y168291D01*
X134827D01*
X135827Y167291D01*
X90551D02*
X91551Y168291D01*
X92551D01*
X91551Y169291D01*
X92551Y170291D01*
X91551D01*
X90551Y171291D01*
X89551Y170291D01*
X88551D01*
X89551Y169291D01*
X88551Y168291D01*
X89551D01*
X90551Y167291D01*
X114173D02*
X115173Y168291D01*
X116173D01*
X115173Y169291D01*
X116173Y170291D01*
X115173D01*
X114173Y171291D01*
X113173Y170291D01*
X112173D01*
X113173Y169291D01*
X112173Y168291D01*
X113173D01*
X114173Y167291D01*
X90551Y181071D02*
X91551Y182071D01*
X92551D01*
X91551Y183071D01*
X92551Y184071D01*
X91551D01*
X90551Y185071D01*
X89551Y184071D01*
X88551D01*
X89551Y183071D01*
X88551Y182071D01*
X89551D01*
X90551Y181071D01*
X75787Y171228D02*
X76787Y172228D01*
X77787D01*
X76787Y173228D01*
X77787Y174228D01*
X76787D01*
X75787Y175228D01*
X74787Y174228D01*
X73787D01*
X74787Y173228D01*
X73787Y172228D01*
X74787D01*
X75787Y171228D01*
X34449Y186976D02*
X35449Y187976D01*
X36449D01*
X35449Y188976D01*
X36449Y189976D01*
X35449D01*
X34449Y190976D01*
X33449Y189976D01*
X32449D01*
X33449Y188976D01*
X32449Y187976D01*
X33449D01*
X34449Y186976D01*
X28543Y169260D02*
X29543Y170260D01*
X30543D01*
X29543Y171260D01*
X30543Y172260D01*
X29543D01*
X28543Y173260D01*
X27543Y172260D01*
X26543D01*
X27543Y171260D01*
X26543Y170260D01*
X27543D01*
X28543Y169260D01*
X75787Y158433D02*
X76787Y159433D01*
X77787D01*
X76787Y160433D01*
X77787Y161433D01*
X76787D01*
X75787Y162433D01*
X74787Y161433D01*
X73787D01*
X74787Y160433D01*
X73787Y159433D01*
X74787D01*
X75787Y158433D01*
X28543Y157449D02*
X29543Y158449D01*
X30543D01*
X29543Y159449D01*
X30543Y160449D01*
X29543D01*
X28543Y161449D01*
X27543Y160449D01*
X26543D01*
X27543Y159449D01*
X26543Y158449D01*
X27543D01*
X28543Y157449D01*
X300787Y70835D02*
X301787Y71835D01*
X302787D01*
X301787Y72835D01*
X302787Y73835D01*
X301787D01*
X300787Y74835D01*
X299787Y73835D01*
X298787D01*
X299787Y72835D01*
X298787Y71835D01*
X299787D01*
X300787Y70835D01*
X311811D02*
X312811Y71835D01*
X313811D01*
X312811Y72835D01*
X313811Y73835D01*
X312811D01*
X311811Y74835D01*
X310811Y73835D01*
X309811D01*
X310811Y72835D01*
X309811Y71835D01*
X310811D01*
X311811Y70835D01*
X269291Y140520D02*
X270291Y141520D01*
X271291D01*
X270291Y142520D01*
X271291Y143520D01*
X270291D01*
X269291Y144520D01*
X268291Y143520D01*
X267291D01*
X268291Y142520D01*
X267291Y141520D01*
X268291D01*
X269291Y140520D01*
X274410Y132252D02*
X275410Y133252D01*
X276410D01*
X275410Y134252D01*
X276410Y135252D01*
X275410D01*
X274410Y136252D01*
X273410Y135252D01*
X272410D01*
X273410Y134252D01*
X272410Y133252D01*
X273410D01*
X274410Y132252D01*
X274803Y113354D02*
X275803Y114354D01*
X276803D01*
X275803Y115354D01*
X276803Y116354D01*
X275803D01*
X274803Y117354D01*
X273803Y116354D01*
X272803D01*
X273803Y115354D01*
X272803Y114354D01*
X273803D01*
X274803Y113354D01*
Y123591D02*
X275803Y124591D01*
X276803D01*
X275803Y125591D01*
X276803Y126591D01*
X275803D01*
X274803Y127591D01*
X273803Y126591D01*
X272803D01*
X273803Y125591D01*
X272803Y124591D01*
X273803D01*
X274803Y123591D01*
X299213Y57055D02*
X300213Y58055D01*
X301213D01*
X300213Y59055D01*
X301213Y60055D01*
X300213D01*
X299213Y61055D01*
X298213Y60055D01*
X297213D01*
X298213Y59055D01*
X297213Y58055D01*
X298213D01*
X299213Y57055D01*
X306201Y20539D02*
X307201Y21539D01*
X308201D01*
X307201Y22539D01*
X308201Y23539D01*
X307201D01*
X306201Y24539D01*
X305201Y23539D01*
X304201D01*
X305201Y22539D01*
X304201Y21539D01*
X305201D01*
X306201Y20539D01*
X259055Y29496D02*
X260055Y30496D01*
X261055D01*
X260055Y31496D01*
X261055Y32496D01*
X260055D01*
X259055Y33496D01*
X258055Y32496D01*
X257055D01*
X258055Y31496D01*
X257055Y30496D01*
X258055D01*
X259055Y29496D01*
X292471Y20884D02*
X293471Y21884D01*
X294471D01*
X293471Y22884D01*
X294471Y23884D01*
X293471D01*
X292471Y24884D01*
X291471Y23884D01*
X290471D01*
X291471Y22884D01*
X290471Y21884D01*
X291471D01*
X292471Y20884D01*
X259055Y60992D02*
X260055Y61992D01*
X261055D01*
X260055Y62992D01*
X261055Y63992D01*
X260055D01*
X259055Y64992D01*
X258055Y63992D01*
X257055D01*
X258055Y62992D01*
X257055Y61992D01*
X258055D01*
X259055Y60992D01*
Y45244D02*
X260055Y46244D01*
X261055D01*
X260055Y47244D01*
X261055Y48244D01*
X260055D01*
X259055Y49244D01*
X258055Y48244D01*
X257055D01*
X258055Y47244D01*
X257055Y46244D01*
X258055D01*
X259055Y45244D01*
X292463Y10699D02*
X293463Y11699D01*
X294463D01*
X293463Y12699D01*
X294463Y13699D01*
X293463D01*
X292463Y14699D01*
X291463Y13699D01*
X290463D01*
X291463Y12699D01*
X290463Y11699D01*
X291463D01*
X292463Y10699D01*
X259055Y13748D02*
X260055Y14748D01*
X261055D01*
X260055Y15748D01*
X261055Y16748D01*
X260055D01*
X259055Y17748D01*
X258055Y16748D01*
X257055D01*
X258055Y15748D01*
X257055Y14748D01*
X258055D01*
X259055Y13748D01*
X246457Y125953D02*
X247457Y126953D01*
X248457D01*
X247457Y127953D01*
X248457Y128953D01*
X247457D01*
X246457Y129953D01*
X245457Y128953D01*
X244457D01*
X245457Y127953D01*
X244457Y126953D01*
X245457D01*
X246457Y125953D01*
X242126Y106268D02*
X243126Y107268D01*
X244126D01*
X243126Y108268D01*
X244126Y109268D01*
X243126D01*
X242126Y110268D01*
X241126Y109268D01*
X240126D01*
X241126Y108268D01*
X240126Y107268D01*
X241126D01*
X242126Y106268D01*
X226378Y122016D02*
X227378Y123016D01*
X228378D01*
X227378Y124016D01*
X228378Y125016D01*
X227378D01*
X226378Y126016D01*
X225378Y125016D01*
X224378D01*
X225378Y124016D01*
X224378Y123016D01*
X225378D01*
X226378Y122016D01*
X234252Y114142D02*
X235252Y115142D01*
X236252D01*
X235252Y116142D01*
X236252Y117142D01*
X235252D01*
X234252Y118142D01*
X233252Y117142D01*
X232252D01*
X233252Y116142D01*
X232252Y115142D01*
X233252D01*
X234252Y114142D01*
X75787Y144653D02*
X76787Y145653D01*
X77787D01*
X76787Y146653D01*
X77787Y147653D01*
X76787D01*
X75787Y148653D01*
X74787Y147653D01*
X73787D01*
X74787Y146653D01*
X73787Y145653D01*
X74787D01*
X75787Y144653D01*
X223228Y137764D02*
X224228Y138764D01*
X225228D01*
X224228Y139764D01*
X225228Y140764D01*
X224228D01*
X223228Y141764D01*
X222228Y140764D01*
X221228D01*
X222228Y139764D01*
X221228Y138764D01*
X222228D01*
X223228Y137764D01*
X28543Y145638D02*
X29543Y146638D01*
X30543D01*
X29543Y147638D01*
X30543Y148638D01*
X29543D01*
X28543Y149638D01*
X27543Y148638D01*
X26543D01*
X27543Y147638D01*
X26543Y146638D01*
X27543D01*
X28543Y145638D01*
Y132843D02*
X29543Y133843D01*
X30543D01*
X29543Y134843D01*
X30543Y135843D01*
X29543D01*
X28543Y136843D01*
X27543Y135843D01*
X26543D01*
X27543Y134843D01*
X26543Y133843D01*
X27543D01*
X28543Y132843D01*
X75787D02*
X76787Y133843D01*
X77787D01*
X76787Y134843D01*
X77787Y135843D01*
X76787D01*
X75787Y136843D01*
X74787Y135843D01*
X73787D01*
X74787Y134843D01*
X73787Y133843D01*
X74787D01*
X75787Y132843D01*
X224016Y128709D02*
X225016Y129709D01*
X226016D01*
X225016Y130709D01*
X226016Y131709D01*
X225016D01*
X224016Y132709D01*
X223016Y131709D01*
X222016D01*
X223016Y130709D01*
X222016Y129709D01*
X223016D01*
X224016Y128709D01*
X26575Y123984D02*
X27575Y124984D01*
X28575D01*
X27575Y125984D01*
X28575Y126984D01*
X27575D01*
X26575Y127984D01*
X25575Y126984D01*
X24575D01*
X25575Y125984D01*
X24575Y124984D01*
X25575D01*
X26575Y123984D01*
Y117095D02*
X27575Y118095D01*
X28575D01*
X27575Y119095D01*
X28575Y120095D01*
X27575D01*
X26575Y121095D01*
X25575Y120095D01*
X24575D01*
X25575Y119095D01*
X24575Y118095D01*
X25575D01*
X26575Y117095D01*
X257874Y90520D02*
X258874Y91520D01*
X259874D01*
X258874Y92520D01*
X259874Y93520D01*
X258874D01*
X257874Y94520D01*
X256874Y93520D01*
X255874D01*
X256874Y92520D01*
X255874Y91520D01*
X256874D01*
X257874Y90520D01*
X250000Y98394D02*
X251000Y99394D01*
X252000D01*
X251000Y100394D01*
X252000Y101394D01*
X251000D01*
X250000Y102394D01*
X249000Y101394D01*
X248000D01*
X249000Y100394D01*
X248000Y99394D01*
X249000D01*
X250000Y98394D01*
X259055Y76740D02*
X260055Y77740D01*
X261055D01*
X260055Y78740D01*
X261055Y79740D01*
X260055D01*
X259055Y80740D01*
X258055Y79740D01*
X257055D01*
X258055Y78740D01*
X257055Y77740D01*
X258055D01*
X259055Y76740D01*
X66929Y106268D02*
X67929Y107268D01*
X68929D01*
X67929Y108268D01*
X68929Y109268D01*
X67929D01*
X66929Y110268D01*
X65929Y109268D01*
X64929D01*
X65929Y108268D01*
X64929Y107268D01*
X65929D01*
X66929Y106268D01*
X55118Y96425D02*
X56118Y97425D01*
X57118D01*
X56118Y98425D01*
X57118Y99425D01*
X56118D01*
X55118Y100425D01*
X54118Y99425D01*
X53118D01*
X54118Y98425D01*
X53118Y97425D01*
X54118D01*
X55118Y96425D01*
X47244Y70835D02*
X48244Y71835D01*
X49244D01*
X48244Y72835D01*
X49244Y73835D01*
X48244D01*
X47244Y74835D01*
X46244Y73835D01*
X45244D01*
X46244Y72835D01*
X45244Y71835D01*
X46244D01*
X47244Y70835D01*
X47244Y61878D02*
X48244Y62878D01*
X49244D01*
X48244Y63878D01*
X49244Y64878D01*
X48244D01*
X47244Y65878D01*
X46244Y64878D01*
X45244D01*
X46244Y63878D01*
X45244Y62878D01*
X46244D01*
X47244Y61878D01*
X41339Y70835D02*
X42339Y71835D01*
X43339D01*
X42339Y72835D01*
X43339Y73835D01*
X42339D01*
X41339Y74835D01*
X40339Y73835D01*
X39339D01*
X40339Y72835D01*
X39339Y71835D01*
X40339D01*
X41339Y70835D01*
Y61878D02*
X42339Y62878D01*
X43339D01*
X42339Y63878D01*
X43339Y64878D01*
X42339D01*
X41339Y65878D01*
X40339Y64878D01*
X39339D01*
X40339Y63878D01*
X39339Y62878D01*
X40339D01*
X41339Y61878D01*
X35433Y70835D02*
X36433Y71835D01*
X37433D01*
X36433Y72835D01*
X37433Y73835D01*
X36433D01*
X35433Y74835D01*
X34433Y73835D01*
X33433D01*
X34433Y72835D01*
X33433Y71835D01*
X34433D01*
X35433Y70835D01*
X23622D02*
X24622Y71835D01*
X25622D01*
X24622Y72835D01*
X25622Y73835D01*
X24622D01*
X23622Y74835D01*
X22622Y73835D01*
X21622D01*
X22622Y72835D01*
X21622Y71835D01*
X22622D01*
X23622Y70835D01*
X29528D02*
X30528Y71835D01*
X31528D01*
X30528Y72835D01*
X31528Y73835D01*
X30528D01*
X29528Y74835D01*
X28528Y73835D01*
X27528D01*
X28528Y72835D01*
X27528Y71835D01*
X28528D01*
X29528Y70835D01*
X35433Y61878D02*
X36433Y62878D01*
X37433D01*
X36433Y63878D01*
X37433Y64878D01*
X36433D01*
X35433Y65878D01*
X34433Y64878D01*
X33433D01*
X34433Y63878D01*
X33433Y62878D01*
X34433D01*
X35433Y61878D01*
X29528D02*
X30528Y62878D01*
X31528D01*
X30528Y63878D01*
X31528Y64878D01*
X30528D01*
X29528Y65878D01*
X28528Y64878D01*
X27528D01*
X28528Y63878D01*
X27528Y62878D01*
X28528D01*
X29528Y61878D01*
X344882Y173591D02*
X345882Y174591D01*
X346882D01*
X345882Y175591D01*
X346882Y176591D01*
X345882D01*
X344882Y177591D01*
X343882Y176591D01*
X342882D01*
X343882Y175591D01*
X342882Y174591D01*
X343882D01*
X344882Y173591D01*
X378740Y240913D02*
X379740Y241913D01*
X380740D01*
X379740Y242913D01*
X380740Y243913D01*
X379740D01*
X378740Y244913D01*
X377740Y243913D01*
X376740D01*
X377740Y242913D01*
X376740Y241913D01*
X377740D01*
X378740Y240913D01*
X383465Y220835D02*
X384465Y221835D01*
X385465D01*
X384465Y222835D01*
X385465Y223835D01*
X384465D01*
X383465Y224835D01*
X382465Y223835D01*
X381465D01*
X382465Y222835D01*
X381465Y221835D01*
X382465D01*
X383465Y220835D01*
X346457Y195244D02*
X347457Y196244D01*
X348457D01*
X347457Y197244D01*
X348457Y198244D01*
X347457D01*
X346457Y199244D01*
X345457Y198244D01*
X344457D01*
X345457Y197244D01*
X344457Y196244D01*
X345457D01*
X346457Y195244D01*
X393307Y50756D02*
X394307Y51756D01*
X395307D01*
X394307Y52756D01*
X395307Y53756D01*
X394307D01*
X393307Y54756D01*
X392307Y53756D01*
X391307D01*
X392307Y52756D01*
X391307Y51756D01*
X392307D01*
X393307Y50756D01*
X376378Y154299D02*
X377378Y155299D01*
X378378D01*
X377378Y156299D01*
X378378Y157299D01*
X377378D01*
X376378Y158299D01*
X375378Y157299D01*
X374378D01*
X375378Y156299D01*
X374378Y155299D01*
X375378D01*
X376378Y154299D01*
X377103Y110272D02*
X378103Y111272D01*
X379103D01*
X378103Y112272D01*
X379103Y113272D01*
X378103D01*
X377103Y114272D01*
X376103Y113272D01*
X375103D01*
X376103Y112272D01*
X375103Y111272D01*
X376103D01*
X377103Y110272D01*
X337008Y211779D02*
X338008Y212779D01*
X339008D01*
X338008Y213779D01*
X339008Y214779D01*
X338008D01*
X337008Y215779D01*
X336008Y214779D01*
X335008D01*
X336008Y213779D01*
X335008Y212779D01*
X336008D01*
X337008Y211779D01*
X241142Y184221D02*
X242142Y185221D01*
X243142D01*
X242142Y186221D01*
X243142Y187221D01*
X242142D01*
X241142Y188221D01*
X240142Y187221D01*
X239142D01*
X240142Y186221D01*
X239142Y185221D01*
X240142D01*
X241142Y184221D01*
X241218Y174454D02*
X242218Y175454D01*
X243218D01*
X242218Y176454D01*
X243218Y177454D01*
X242218D01*
X241218Y178454D01*
X240218Y177454D01*
X239218D01*
X240218Y176454D01*
X239218Y175454D01*
X240218D01*
X241218Y174454D01*
X241142Y179299D02*
X242142Y180299D01*
X243142D01*
X242142Y181299D01*
X243142Y182299D01*
X242142D01*
X241142Y183299D01*
X240142Y182299D01*
X239142D01*
X240142Y181299D01*
X239142Y180299D01*
X240142D01*
X241142Y179299D01*
X237205Y186189D02*
X238205Y187189D01*
X239205D01*
X238205Y188189D01*
X239205Y189189D01*
X238205D01*
X237205Y190189D01*
X236205Y189189D01*
X235205D01*
X236205Y188189D01*
X235205Y187189D01*
X236205D01*
X237205Y186189D01*
Y176347D02*
X238205Y177347D01*
X239205D01*
X238205Y178347D01*
X239205Y179347D01*
X238205D01*
X237205Y180347D01*
X236205Y179347D01*
X235205D01*
X236205Y178347D01*
X235205Y177347D01*
X236205D01*
X237205Y176347D01*
X237128Y181191D02*
X238128Y182191D01*
X239128D01*
X238128Y183191D01*
X239128Y184191D01*
X238128D01*
X237128Y185191D01*
X236128Y184191D01*
X235128D01*
X236128Y183191D01*
X235128Y182191D01*
X236128D01*
X237128Y181191D01*
X154724Y185992D02*
X155724Y186992D01*
X156724D01*
X155724Y187992D01*
X156724Y188992D01*
X155724D01*
X154724Y189992D01*
X153724Y188992D01*
X152724D01*
X153724Y187992D01*
X152724Y186992D01*
X153724D01*
X154724Y185992D01*
X134744Y186091D02*
X135744Y187091D01*
X136744D01*
X135744Y188091D01*
X136744Y189091D01*
X135744D01*
X134744Y190091D01*
X133744Y189091D01*
X132744D01*
X133744Y188091D01*
X132744Y187091D01*
X133744D01*
X134744Y186091D01*
X135630Y180087D02*
X136630Y181087D01*
X137630D01*
X136630Y182087D01*
X137630Y183087D01*
X136630D01*
X135630Y184087D01*
X134630Y183087D01*
X133630D01*
X134630Y182087D01*
X133630Y181087D01*
X134630D01*
X135630Y180087D01*
X109055Y175953D02*
X110055Y176953D01*
X111055D01*
X110055Y177953D01*
X111055Y178953D01*
X110055D01*
X109055Y179953D01*
X108055Y178953D01*
X107055D01*
X108055Y177953D01*
X107055Y176953D01*
X108055D01*
X109055Y175953D01*
X332283Y149575D02*
X333283Y150575D01*
X334283D01*
X333283Y151575D01*
X334283Y152575D01*
X333283D01*
X332283Y153575D01*
X331283Y152575D01*
X330283D01*
X331283Y151575D01*
X330283Y150575D01*
X331283D01*
X332283Y149575D01*
Y142488D02*
X333283Y143488D01*
X334283D01*
X333283Y144488D01*
X334283Y145488D01*
X333283D01*
X332283Y146488D01*
X331283Y145488D01*
X330283D01*
X331283Y144488D01*
X330283Y143488D01*
X331283D01*
X332283Y142488D01*
X332388Y136954D02*
X333388Y137954D01*
X334388D01*
X333388Y138954D01*
X334388Y139954D01*
X333388D01*
X332388Y140954D01*
X331388Y139954D01*
X330388D01*
X331388Y138954D01*
X330388Y137954D01*
X331388D01*
X332388Y136954D01*
X306299Y57055D02*
X307299Y58055D01*
X308299D01*
X307299Y59055D01*
X308299Y60055D01*
X307299D01*
X306299Y61055D01*
X305299Y60055D01*
X304299D01*
X305299Y59055D01*
X304299Y58055D01*
X305299D01*
X306299Y57055D01*
X241142Y169457D02*
X242142Y170457D01*
X243142D01*
X242142Y171457D01*
X243142Y172457D01*
X242142D01*
X241142Y173457D01*
X240142Y172457D01*
X239142D01*
X240142Y171457D01*
X239142Y170457D01*
X240142D01*
X241142Y169457D01*
X237205Y171425D02*
X238205Y172425D01*
X239205D01*
X238205Y173425D01*
X239205Y174425D01*
X238205D01*
X237205Y175425D01*
X236205Y174425D01*
X235205D01*
X236205Y173425D01*
X235205Y172425D01*
X236205D01*
X237205Y171425D01*
X234252Y136976D02*
X235252Y137976D01*
X236252D01*
X235252Y138976D01*
X236252Y139976D01*
X235252D01*
X234252Y140976D01*
X233252Y139976D01*
X232252D01*
X233252Y138976D01*
X232252Y137976D01*
X233252D01*
X234252Y136976D01*
Y129102D02*
X235252Y130102D01*
X236252D01*
X235252Y131102D01*
X236252Y132102D01*
X235252D01*
X234252Y133102D01*
X233252Y132102D01*
X232252D01*
X233252Y131102D01*
X232252Y130102D01*
X233252D01*
X234252Y129102D01*
Y133039D02*
X235252Y134039D01*
X236252D01*
X235252Y135039D01*
X236252Y136039D01*
X235252D01*
X234252Y137039D01*
X233252Y136039D01*
X232252D01*
X233252Y135039D01*
X232252Y134039D01*
X233252D01*
X234252Y133039D01*
X310598Y191701D02*
X311598Y193701D01*
X310598Y195701D01*
X312598Y194701D01*
X314598Y195701D01*
X313598Y193701D01*
X314598Y191701D01*
X312598Y192701D01*
X310598Y191701D01*
Y197213D02*
X311598Y199213D01*
X310598Y201213D01*
X312598Y200213D01*
X314598Y201213D01*
X313598Y199213D01*
X314598Y197213D01*
X312598Y198213D01*
X310598Y197213D01*
X305589D02*
X306589Y199213D01*
X305589Y201213D01*
X307589Y200213D01*
X309589Y201213D01*
X308589Y199213D01*
X309589Y197213D01*
X307589Y198213D01*
X305589Y197213D01*
X307842Y201937D02*
X308842Y203937D01*
X307842Y205937D01*
X309842Y204937D01*
X311842Y205937D01*
X310842Y203937D01*
X311842Y201937D01*
X309842Y202937D01*
X307842Y201937D01*
X285039Y159024D02*
X286039Y160024D01*
X287039D01*
X286039Y161024D01*
X287039Y162024D01*
X286039D01*
X285039Y163024D01*
X284039Y162024D01*
X283039D01*
X284039Y161024D01*
X283039Y160024D01*
X284039D01*
X285039Y159024D01*
X382677Y288945D02*
X383677Y289945D01*
X384677D01*
X383677Y290945D01*
X384677Y291945D01*
X383677D01*
X382677Y292945D01*
X381677Y291945D01*
X380677D01*
X381677Y290945D01*
X380677Y289945D01*
X381677D01*
X382677Y288945D01*
X317323Y93276D02*
X318323Y94276D01*
X319323D01*
X318323Y95276D01*
X319323Y96276D01*
X318323D01*
X317323Y97276D01*
X316323Y96276D01*
X315323D01*
X316323Y95276D01*
X315323Y94276D01*
X316323D01*
X317323Y93276D01*
X305512Y94063D02*
X306512Y95063D01*
X307512D01*
X306512Y96063D01*
X307512Y97063D01*
X306512D01*
X305512Y98063D01*
X304512Y97063D01*
X303512D01*
X304512Y96063D01*
X303512Y95063D01*
X304512D01*
X305512Y94063D01*
X322047Y89732D02*
X323047Y90732D01*
X324047D01*
X323047Y91732D01*
X324047Y92732D01*
X323047D01*
X322047Y93732D01*
X321047Y92732D01*
X320047D01*
X321047Y91732D01*
X320047Y90732D01*
X321047D01*
X322047Y89732D01*
X329921Y88551D02*
X330921Y89551D01*
X331921D01*
X330921Y90551D01*
X331921Y91551D01*
X330921D01*
X329921Y92551D01*
X328921Y91551D01*
X327921D01*
X328921Y90551D01*
X327921Y89551D01*
X328921D01*
X329921Y88551D01*
X332283Y100756D02*
X333283Y101756D01*
X334283D01*
X333283Y102756D01*
X334283Y103756D01*
X333283D01*
X332283Y104756D01*
X331283Y103756D01*
X330283D01*
X331283Y102756D01*
X330283Y101756D01*
X331283D01*
X332283Y100756D01*
X338583Y88551D02*
X339583Y89551D01*
X340583D01*
X339583Y90551D01*
X340583Y91551D01*
X339583D01*
X338583Y92551D01*
X337583Y91551D01*
X336583D01*
X337583Y90551D01*
X336583Y89551D01*
X337583D01*
X338583Y88551D01*
X303150Y98787D02*
X304150Y99787D01*
X305150D01*
X304150Y100787D01*
X305150Y101787D01*
X304150D01*
X303150Y102787D01*
X302150Y101787D01*
X301150D01*
X302150Y100787D01*
X301150Y99787D01*
X302150D01*
X303150Y98787D01*
X343307Y168866D02*
X344307Y169866D01*
X345307D01*
X344307Y170866D01*
X345307Y171866D01*
X344307D01*
X343307Y172866D01*
X342307Y171866D01*
X341307D01*
X342307Y170866D01*
X341307Y169866D01*
X342307D01*
X343307Y168866D01*
X359055Y173591D02*
X360055Y174591D01*
X361055D01*
X360055Y175591D01*
X361055Y176591D01*
X360055D01*
X359055Y177591D01*
X358055Y176591D01*
X357055D01*
X358055Y175591D01*
X357055Y174591D01*
X358055D01*
X359055Y173591D01*
X327165Y179496D02*
X328165Y180496D01*
X329165D01*
X328165Y181496D01*
X329165Y182496D01*
X328165D01*
X327165Y183496D01*
X326165Y182496D01*
X325165D01*
X326165Y181496D01*
X325165Y180496D01*
X326165D01*
X327165Y179496D01*
X331496Y189732D02*
X332496Y190732D01*
X333496D01*
X332496Y191732D01*
X333496Y192732D01*
X332496D01*
X331496Y193732D01*
X330496Y192732D01*
X329496D01*
X330496Y191732D01*
X329496Y190732D01*
X330496D01*
X331496Y189732D01*
X326772Y169260D02*
X327772Y170260D01*
X328772D01*
X327772Y171260D01*
X328772Y172260D01*
X327772D01*
X326772Y173260D01*
X325772Y172260D01*
X324772D01*
X325772Y171260D01*
X324772Y170260D01*
X325772D01*
X326772Y169260D01*
X364173Y35402D02*
X365173Y36402D01*
X366173D01*
X365173Y37402D01*
X366173Y38402D01*
X365173D01*
X364173Y39402D01*
X363173Y38402D01*
X362173D01*
X363173Y37402D01*
X362173Y36402D01*
X363173D01*
X364173Y35402D01*
X344488Y37370D02*
X345488Y38370D01*
X346488D01*
X345488Y39370D01*
X346488Y40370D01*
X345488D01*
X344488Y41370D01*
X343488Y40370D01*
X342488D01*
X343488Y39370D01*
X342488Y38370D01*
X343488D01*
X344488Y37370D01*
X268504Y89339D02*
X269504Y90339D01*
X270504D01*
X269504Y91339D01*
X270504Y92339D01*
X269504D01*
X268504Y93339D01*
X267504Y92339D01*
X266504D01*
X267504Y91339D01*
X266504Y90339D01*
X267504D01*
X268504Y89339D01*
Y96031D02*
X269504Y97031D01*
X270504D01*
X269504Y98032D01*
X270504Y99032D01*
X269504D01*
X268504Y100031D01*
X267504Y99032D01*
X266504D01*
X267504Y98032D01*
X266504Y97031D01*
X267504D01*
X268504Y96031D01*
X273228Y92882D02*
X274228Y93882D01*
X275228D01*
X274228Y94882D01*
X275228Y95882D01*
X274228D01*
X273228Y96882D01*
X272228Y95882D01*
X271228D01*
X272228Y94882D01*
X271228Y93882D01*
X272228D01*
X273228Y92882D01*
X277559Y96031D02*
X278559Y97031D01*
X279559D01*
X278559Y98032D01*
X279559Y99032D01*
X278559D01*
X277559Y100031D01*
X276559Y99032D01*
X275559D01*
X276559Y98032D01*
X275559Y97031D01*
X276559D01*
X277559Y96031D01*
Y89339D02*
X278559Y90339D01*
X279559D01*
X278559Y91339D01*
X279559Y92339D01*
X278559D01*
X277559Y93339D01*
X276559Y92339D01*
X275559D01*
X276559Y91339D01*
X275559Y90339D01*
X276559D01*
X277559Y89339D01*
X53150Y235205D02*
X54150Y236205D01*
X55150D01*
X54150Y237205D01*
X55150Y238205D01*
X54150D01*
X53150Y239205D01*
X52150Y238205D01*
X51150D01*
X52150Y237205D01*
X51150Y236205D01*
X52150D01*
X53150Y235205D01*
Y228315D02*
X54150Y229315D01*
X55150D01*
X54150Y230315D01*
X55150Y231315D01*
X54150D01*
X53150Y232315D01*
X52150Y231315D01*
X51150D01*
X52150Y230315D01*
X51150Y229315D01*
X52150D01*
X53150Y228315D01*
X34449Y236189D02*
X35449Y237189D01*
X36449D01*
X35449Y238189D01*
X36449Y239189D01*
X35449D01*
X34449Y240189D01*
X33449Y239189D01*
X32449D01*
X33449Y238189D01*
X32449Y237189D01*
X33449D01*
X34449Y236189D01*
X26575D02*
X27575Y237189D01*
X28575D01*
X27575Y238189D01*
X28575Y239189D01*
X27575D01*
X26575Y240189D01*
X25575Y239189D01*
X24575D01*
X25575Y238189D01*
X24575Y237189D01*
X25575D01*
X26575Y236189D01*
X18701D02*
X19701Y237189D01*
X20701D01*
X19701Y238189D01*
X20701Y239189D01*
X19701D01*
X18701Y240189D01*
X17701Y239189D01*
X16701D01*
X17701Y238189D01*
X16701Y237189D01*
X17701D01*
X18701Y236189D01*
X9843D02*
X10842Y237189D01*
X11842D01*
X10842Y238189D01*
X11842Y239189D01*
X10842D01*
X9843Y240189D01*
X8843Y239189D01*
X7842D01*
X8843Y238189D01*
X7842Y237189D01*
X8843D01*
X9843Y236189D01*
X53150Y221425D02*
X54150Y222425D01*
X55150D01*
X54150Y223425D01*
X55150Y224425D01*
X54150D01*
X53150Y225425D01*
X52150Y224425D01*
X51150D01*
X52150Y223425D01*
X51150Y222425D01*
X52150D01*
X53150Y221425D01*
X129528Y221425D02*
X130528Y222425D01*
X131528D01*
X130528Y223425D01*
X131528Y224425D01*
X130528D01*
X129528Y225425D01*
X128528Y224425D01*
X127528D01*
X128528Y223425D01*
X127528Y222425D01*
X128528D01*
X129528Y221425D01*
X95079Y234221D02*
X96079Y235221D01*
X97079D01*
X96079Y236221D01*
X97079Y237221D01*
X96079D01*
X95079Y238221D01*
X94079Y237221D01*
X93079D01*
X94079Y236221D01*
X93079Y235221D01*
X94079D01*
X95079Y234221D01*
X102953D02*
X103953Y235221D01*
X104953D01*
X103953Y236221D01*
X104953Y237221D01*
X103953D01*
X102953Y238221D01*
X101953Y237221D01*
X100953D01*
X101953Y236221D01*
X100953Y235221D01*
X101953D01*
X102953Y234221D01*
X110827D02*
X111827Y235221D01*
X112827D01*
X111827Y236221D01*
X112827Y237221D01*
X111827D01*
X110827Y238221D01*
X109827Y237221D01*
X108827D01*
X109827Y236221D01*
X108827Y235221D01*
X109827D01*
X110827Y234221D01*
X129528Y228315D02*
X130528Y229315D01*
X131528D01*
X130528Y230315D01*
X131528Y231315D01*
X130528D01*
X129528Y232315D01*
X128528Y231315D01*
X127528D01*
X128528Y230315D01*
X127528Y229315D01*
X128528D01*
X129528Y228315D01*
Y235205D02*
X130528Y236205D01*
X131528D01*
X130528Y237205D01*
X131528Y238205D01*
X130528D01*
X129528Y239205D01*
X128528Y238205D01*
X127528D01*
X128528Y237205D01*
X127528Y236205D01*
X128528D01*
X129528Y235205D01*
X206299Y221425D02*
X207299Y222425D01*
X208299D01*
X207299Y223425D01*
X208299Y224425D01*
X207299D01*
X206299Y225425D01*
X205299Y224425D01*
X204299D01*
X205299Y223425D01*
X204299Y222425D01*
X205299D01*
X206299Y221425D01*
X171850Y234221D02*
X172850Y235221D01*
X173850D01*
X172850Y236221D01*
X173850Y237221D01*
X172850D01*
X171850Y238221D01*
X170850Y237221D01*
X169850D01*
X170850Y236221D01*
X169850Y235221D01*
X170850D01*
X171850Y234221D01*
X179724D02*
X180724Y235221D01*
X181724D01*
X180724Y236221D01*
X181724Y237221D01*
X180724D01*
X179724Y238221D01*
X178724Y237221D01*
X177724D01*
X178724Y236221D01*
X177724Y235221D01*
X178724D01*
X179724Y234221D01*
X187598D02*
X188598Y235221D01*
X189598D01*
X188598Y236221D01*
X189598Y237221D01*
X188598D01*
X187598Y238221D01*
X186598Y237221D01*
X185598D01*
X186598Y236221D01*
X185598Y235221D01*
X186598D01*
X187598Y234221D01*
X206299Y228315D02*
X207299Y229315D01*
X208299D01*
X207299Y230315D01*
X208299Y231315D01*
X207299D01*
X206299Y232315D01*
X205299Y231315D01*
X204299D01*
X205299Y230315D01*
X204299Y229315D01*
X205299D01*
X206299Y228315D01*
Y235205D02*
X207299Y236205D01*
X208299D01*
X207299Y237205D01*
X208299Y238205D01*
X207299D01*
X206299Y239205D01*
X205299Y238205D01*
X204299D01*
X205299Y237205D01*
X204299Y236205D01*
X205299D01*
X206299Y235205D01*
X283071Y221425D02*
X284071Y222425D01*
X285071D01*
X284071Y223425D01*
X285071Y224425D01*
X284071D01*
X283071Y225425D01*
X282071Y224425D01*
X281071D01*
X282071Y223425D01*
X281071Y222425D01*
X282071D01*
X283071Y221425D01*
X248622Y234221D02*
X249622Y235221D01*
X250622D01*
X249622Y236221D01*
X250622Y237221D01*
X249622D01*
X248622Y238221D01*
X247622Y237221D01*
X246622D01*
X247622Y236221D01*
X246622Y235221D01*
X247622D01*
X248622Y234221D01*
X254921Y234221D02*
X255921Y235221D01*
X256921D01*
X255921Y236221D01*
X256921Y237221D01*
X255921D01*
X254921Y238221D01*
X253921Y237221D01*
X252921D01*
X253921Y236221D01*
X252921Y235221D01*
X253921D01*
X254921Y234221D01*
X283071Y228315D02*
X284071Y229315D01*
X285071D01*
X284071Y230315D01*
X285071Y231315D01*
X284071D01*
X283071Y232315D01*
X282071Y231315D01*
X281071D01*
X282071Y230315D01*
X281071Y229315D01*
X282071D01*
X283071Y228315D01*
Y235205D02*
X284071Y236205D01*
X285071D01*
X284071Y237205D01*
X285071Y238205D01*
X284071D01*
X283071Y239205D01*
X282071Y238205D01*
X281071D01*
X282071Y237205D01*
X281071Y236205D01*
X282071D01*
X283071Y235205D01*
X52165Y212173D02*
X53165Y213173D01*
X54165D01*
X53165Y214173D01*
X54165Y215173D01*
X53165D01*
X52165Y216173D01*
X51165Y215173D01*
X50165D01*
X51165Y214173D01*
X50165Y213173D01*
X51165D01*
X52165Y212173D01*
X45276D02*
X46276Y213173D01*
X47276D01*
X46276Y214173D01*
X47276Y215173D01*
X46276D01*
X45276Y216173D01*
X44276Y215173D01*
X43276D01*
X44276Y214173D01*
X43276Y213173D01*
X44276D01*
X45276Y212173D01*
X73425D02*
X74425Y213173D01*
X75425D01*
X74425Y214173D01*
X75425Y215173D01*
X74425D01*
X73425Y216173D01*
X72425Y215173D01*
X71425D01*
X72425Y214173D01*
X71425Y213173D01*
X72425D01*
X73425Y212173D01*
X66535D02*
X67535Y213173D01*
X68535D01*
X67535Y214173D01*
X68535Y215173D01*
X67535D01*
X66535Y216173D01*
X65535Y215173D01*
X64535D01*
X65535Y214173D01*
X64535Y213173D01*
X65535D01*
X66535Y212173D01*
X48819Y207842D02*
X49819Y208842D01*
X50819D01*
X49819Y209842D01*
X50819Y210842D01*
X49819D01*
X48819Y211842D01*
X47819Y210842D01*
X46819D01*
X47819Y209842D01*
X46819Y208842D01*
X47819D01*
X48819Y207842D01*
X69882Y207646D02*
X70882Y208646D01*
X71882D01*
X70882Y209646D01*
X71882Y210646D01*
X70882D01*
X69882Y211646D01*
X68882Y210646D01*
X67882D01*
X68882Y209646D01*
X67882Y208646D01*
X68882D01*
X69882Y207646D01*
X260827Y234221D02*
X261827Y235221D01*
X262827D01*
X261827Y236221D01*
X262827Y237221D01*
X261827D01*
X260827Y238221D01*
X259827Y237221D01*
X258827D01*
X259827Y236221D01*
X258827Y235221D01*
X259827D01*
X260827Y234221D01*
X357087Y241701D02*
X358087Y242701D01*
X359087D01*
X358087Y243701D01*
X359087Y244701D01*
X358087D01*
X357087Y245701D01*
X356087Y244701D01*
X355087D01*
X356087Y243701D01*
X355087Y242701D01*
X356087D01*
X357087Y241701D01*
X292913Y92488D02*
X293913Y93488D01*
X294913D01*
X293913Y94488D01*
X294913Y95488D01*
X293913D01*
X292913Y96488D01*
X291913Y95488D01*
X290913D01*
X291913Y94488D01*
X290913Y93488D01*
X291913D01*
X292913Y92488D01*
X295669Y70835D02*
X296669Y71835D01*
X297669D01*
X296669Y72835D01*
X297669Y73835D01*
X296669D01*
X295669Y74835D01*
X294669Y73835D01*
X293669D01*
X294669Y72835D01*
X293669Y71835D01*
X294669D01*
X295669Y70835D01*
X267717Y23591D02*
X268717Y24590D01*
X269717D01*
X268717Y25591D01*
X269717Y26591D01*
X268717D01*
X267717Y27591D01*
X266717Y26591D01*
X265717D01*
X266717Y25591D01*
X265717Y24590D01*
X266717D01*
X267717Y23591D01*
Y17685D02*
X268717Y18685D01*
X269717D01*
X268717Y19685D01*
X269717Y20685D01*
X268717D01*
X267717Y21685D01*
X266717Y20685D01*
X265717D01*
X266717Y19685D01*
X265717Y18685D01*
X266717D01*
X267717Y17685D01*
X273622D02*
X274622Y18685D01*
X275622D01*
X274622Y19685D01*
X275622Y20685D01*
X274622D01*
X273622Y21685D01*
X272622Y20685D01*
X271622D01*
X272622Y19685D01*
X271622Y18685D01*
X272622D01*
X273622Y17685D01*
Y23591D02*
X274622Y24590D01*
X275622D01*
X274622Y25591D01*
X275622Y26591D01*
X274622D01*
X273622Y27591D01*
X272622Y26591D01*
X271622D01*
X272622Y25591D01*
X271622Y24590D01*
X272622D01*
X273622Y23591D01*
X279528Y17685D02*
X280528Y18685D01*
X281528D01*
X280528Y19685D01*
X281528Y20685D01*
X280528D01*
X279528Y21685D01*
X278528Y20685D01*
X277528D01*
X278528Y19685D01*
X277528Y18685D01*
X278528D01*
X279528Y17685D01*
Y23591D02*
X280528Y24590D01*
X281528D01*
X280528Y25591D01*
X281528Y26591D01*
X280528D01*
X279528Y27591D01*
X278528Y26591D01*
X277528D01*
X278528Y25591D01*
X277528Y24590D01*
X278528D01*
X279528Y23591D01*
X299213Y94063D02*
X300213Y95063D01*
X301213D01*
X300213Y96063D01*
X301213Y97063D01*
X300213D01*
X299213Y98063D01*
X298213Y97063D01*
X297213D01*
X298213Y96063D01*
X297213Y95063D01*
X298213D01*
X299213Y94063D01*
X296063Y99181D02*
X297063Y100181D01*
X298063D01*
X297063Y101181D01*
X298063Y102181D01*
X297063D01*
X296063Y103181D01*
X295063Y102181D01*
X294063D01*
X295063Y101181D01*
X294063Y100181D01*
X295063D01*
X296063Y99181D01*
X309055Y97606D02*
X310055Y98606D01*
X311055D01*
X310055Y99606D01*
X311055Y100606D01*
X310055D01*
X309055Y101606D01*
X308055Y100606D01*
X307055D01*
X308055Y99606D01*
X307055Y98606D01*
X308055D01*
X309055Y97606D01*
X257874Y153905D02*
X258874Y154905D01*
X259874D01*
X258874Y155905D01*
X259874Y156905D01*
X258874D01*
X257874Y157905D01*
X256874Y156905D01*
X255874D01*
X256874Y155905D01*
X255874Y154905D01*
X256874D01*
X257874Y153905D01*
X261811Y151150D02*
X262811Y152150D01*
X263811D01*
X262811Y153150D01*
X263811Y154150D01*
X262811D01*
X261811Y155150D01*
X260811Y154150D01*
X259811D01*
X260811Y153150D01*
X259811Y152150D01*
X260811D01*
X261811Y151150D01*
X257874Y141701D02*
X258874Y142701D01*
X259874D01*
X258874Y143701D01*
X259874Y144701D01*
X258874D01*
X257874Y145701D01*
X256874Y144701D01*
X255874D01*
X256874Y143701D01*
X255874Y142701D01*
X256874D01*
X257874Y141701D01*
X261811Y144850D02*
X262811Y145850D01*
X263811D01*
X262811Y146850D01*
X263811Y147850D01*
X262811D01*
X261811Y148850D01*
X260811Y147850D01*
X259811D01*
X260811Y146850D01*
X259811Y145850D01*
X260811D01*
X261811Y144850D01*
X257874Y147606D02*
X258874Y148606D01*
X259874D01*
X258874Y149606D01*
X259874Y150606D01*
X258874D01*
X257874Y151606D01*
X256874Y150606D01*
X255874D01*
X256874Y149606D01*
X255874Y148606D01*
X256874D01*
X257874Y147606D01*
X260402Y168226D02*
X261402Y169226D01*
X262402D01*
X261402Y170226D01*
X262402Y171226D01*
X261402D01*
X260402Y172226D01*
X259402Y171226D01*
X258402D01*
X259402Y170226D01*
X258402Y169226D01*
X259402D01*
X260402Y168226D01*
X354724Y245638D02*
X355724Y246638D01*
X356724D01*
X355724Y247638D01*
X356724Y248638D01*
X355724D01*
X354724Y249638D01*
X353724Y248638D01*
X352724D01*
X353724Y247638D01*
X352724Y246638D01*
X353724D01*
X354724Y245638D01*
X351575Y238945D02*
X352575Y239945D01*
X353575D01*
X352575Y240945D01*
X353575Y241945D01*
X352575D01*
X351575Y242945D01*
X350575Y241945D01*
X349575D01*
X350575Y240945D01*
X349575Y239945D01*
X350575D01*
X351575Y238945D01*
Y234614D02*
X352575Y235614D01*
X353575D01*
X352575Y236614D01*
X353575Y237614D01*
X352575D01*
X351575Y238614D01*
X350575Y237614D01*
X349575D01*
X350575Y236614D01*
X349575Y235614D01*
X350575D01*
X351575Y234614D01*
X357087Y231858D02*
X358087Y232858D01*
X359087D01*
X358087Y233858D01*
X359087Y234858D01*
X358087D01*
X357087Y235858D01*
X356087Y234858D01*
X355087D01*
X356087Y233858D01*
X355087Y232858D01*
X356087D01*
X357087Y231858D01*
X351575Y228709D02*
X352575Y229709D01*
X353575D01*
X352575Y230709D01*
X353575Y231709D01*
X352575D01*
X351575Y232709D01*
X350575Y231709D01*
X349575D01*
X350575Y230709D01*
X349575Y229709D01*
X350575D01*
X351575Y228709D01*
Y223984D02*
X352575Y224984D01*
X353575D01*
X352575Y225984D01*
X353575Y226984D01*
X352575D01*
X351575Y227984D01*
X350575Y226984D01*
X349575D01*
X350575Y225984D01*
X349575Y224984D01*
X350575D01*
X351575Y223984D01*
X289764Y221228D02*
X290764Y222228D01*
X291764D01*
X290764Y223228D01*
X291764Y224228D01*
X290764D01*
X289764Y225228D01*
X288764Y224228D01*
X287764D01*
X288764Y223228D01*
X287764Y222228D01*
X288764D01*
X289764Y221228D01*
X405905Y104299D02*
X406906Y105299D01*
X407905D01*
X406906Y106299D01*
X407905Y107299D01*
X406906D01*
X405905Y108299D01*
X404906Y107299D01*
X403905D01*
X404906Y106299D01*
X403905Y105299D01*
X404906D01*
X405905Y104299D01*
X412992Y87370D02*
X413992Y88370D01*
X414992D01*
X413992Y89370D01*
X414992Y90370D01*
X413992D01*
X412992Y91370D01*
X411992Y90370D01*
X410992D01*
X411992Y89370D01*
X410992Y88370D01*
X411992D01*
X412992Y87370D01*
X373622Y241307D02*
X374622Y242307D01*
X375622D01*
X374622Y243307D01*
X375622Y244307D01*
X374622D01*
X373622Y245307D01*
X372622Y244307D01*
X371622D01*
X372622Y243307D01*
X371622Y242307D01*
X372622D01*
X373622Y241307D01*
Y235795D02*
X374622Y236795D01*
X375622D01*
X374622Y237795D01*
X375622Y238795D01*
X374622D01*
X373622Y239795D01*
X372622Y238795D01*
X371622D01*
X372622Y237795D01*
X371622Y236795D01*
X372622D01*
X373622Y235795D01*
Y229496D02*
X374622Y230496D01*
X375622D01*
X374622Y231496D01*
X375622Y232496D01*
X374622D01*
X373622Y233496D01*
X372622Y232496D01*
X371622D01*
X372622Y231496D01*
X371622Y230496D01*
X372622D01*
X373622Y229496D01*
X371654Y223984D02*
X372654Y224984D01*
X373654D01*
X372654Y225984D01*
X373654Y226984D01*
X372654D01*
X371654Y227984D01*
X370654Y226984D01*
X369654D01*
X370654Y225984D01*
X369654Y224984D01*
X370654D01*
X371654Y223984D01*
X410433Y155480D02*
X411433Y156480D01*
X412433D01*
X411433Y157480D01*
X412433Y158480D01*
X411433D01*
X410433Y159480D01*
X409433Y158480D01*
X408433D01*
X409433Y157480D01*
X408433Y156480D01*
X409433D01*
X410433Y155480D01*
X351575Y189732D02*
X352575Y190732D01*
X353575D01*
X352575Y191732D01*
X353575Y192732D01*
X352575D01*
X351575Y193732D01*
X350575Y192732D01*
X349575D01*
X350575Y191732D01*
X349575Y190732D01*
X350575D01*
X351575Y189732D01*
X408465Y160402D02*
X409465Y161402D01*
X410465D01*
X409465Y162402D01*
X410465Y163402D01*
X409465D01*
X408465Y164402D01*
X407465Y163402D01*
X406465D01*
X407465Y162402D01*
X406465Y161402D01*
X407465D01*
X408465Y160402D01*
X357087Y224378D02*
X358087Y225378D01*
X359087D01*
X358087Y226378D01*
X359087Y227378D01*
X358087D01*
X357087Y228378D01*
X356087Y227378D01*
X355087D01*
X356087Y226378D01*
X355087Y225378D01*
X356087D01*
X357087Y224378D01*
X23622Y46228D02*
X24622Y47228D01*
X25622D01*
X24622Y48228D01*
X25622Y49228D01*
X24622D01*
X23622Y50228D01*
X22622Y49228D01*
X21622D01*
X22622Y48228D01*
X21622Y47228D01*
X22622D01*
X23622Y46228D01*
X47244Y43276D02*
X48244Y44276D01*
X49244D01*
X48244Y45276D01*
X49244Y46276D01*
X48244D01*
X47244Y47276D01*
X46244Y46276D01*
X45244D01*
X46244Y45276D01*
X45244Y44276D01*
X46244D01*
X47244Y43276D01*
Y28512D02*
X48244Y29512D01*
X49244D01*
X48244Y30512D01*
X49244Y31512D01*
X48244D01*
X47244Y32512D01*
X46244Y31512D01*
X45244D01*
X46244Y30512D01*
X45244Y29512D01*
X46244D01*
X47244Y28512D01*
Y16701D02*
X48244Y17701D01*
X49244D01*
X48244Y18701D01*
X49244Y19701D01*
X48244D01*
X47244Y20701D01*
X46244Y19701D01*
X45244D01*
X46244Y18701D01*
X45244Y17701D01*
X46244D01*
X47244Y16701D01*
Y6858D02*
X48244Y7858D01*
X49244D01*
X48244Y8858D01*
X49244Y9858D01*
X48244D01*
X47244Y10858D01*
X46244Y9858D01*
X45244D01*
X46244Y8858D01*
X45244Y7858D01*
X46244D01*
X47244Y6858D01*
X35433D02*
X36433Y7858D01*
X37433D01*
X36433Y8858D01*
X37433Y9858D01*
X36433D01*
X35433Y10858D01*
X34433Y9858D01*
X33433D01*
X34433Y8858D01*
X33433Y7858D01*
X34433D01*
X35433Y6858D01*
X10827Y36386D02*
X11827Y37386D01*
X12827D01*
X11827Y38386D01*
X12827Y39386D01*
X11827D01*
X10827Y40386D01*
X9827Y39386D01*
X8827D01*
X9827Y38386D01*
X8827Y37386D01*
X9827D01*
X10827Y36386D01*
Y45244D02*
X11827Y46244D01*
X12827D01*
X11827Y47244D01*
X12827Y48244D01*
X11827D01*
X10827Y49244D01*
X9827Y48244D01*
X8827D01*
X9827Y47244D01*
X8827Y46244D01*
X9827D01*
X10827Y45244D01*
X415354Y164339D02*
X416354Y165339D01*
X417354D01*
X416354Y166339D01*
X417354Y167339D01*
X416354D01*
X415354Y168339D01*
X414354Y167339D01*
X413354D01*
X414354Y166339D01*
X413354Y165339D01*
X414354D01*
X415354Y164339D01*
X356277Y55086D02*
X357277Y56086D01*
X358278D01*
X357277Y57086D01*
X358278Y58086D01*
X357277D01*
X356277Y59086D01*
X355277Y58086D01*
X354277D01*
X355277Y57086D01*
X354277Y56086D01*
X355277D01*
X356277Y55086D01*
X352537Y55095D02*
X353537Y56095D01*
X354537D01*
X353537Y57095D01*
X354537Y58095D01*
X353537D01*
X352537Y59095D01*
X351537Y58095D01*
X350537D01*
X351537Y57095D01*
X350537Y56095D01*
X351537D01*
X352537Y55095D01*
X356299Y59417D02*
X357299Y60417D01*
X358299D01*
X357299Y61417D01*
X358299Y62417D01*
X357299D01*
X356299Y63417D01*
X355299Y62417D01*
X354299D01*
X355299Y61417D01*
X354299Y60417D01*
X355299D01*
X356299Y59417D01*
X352559D02*
X353559Y60417D01*
X354559D01*
X353559Y61417D01*
X354559Y62417D01*
X353559D01*
X352559Y63417D01*
X351559Y62417D01*
X350559D01*
X351559Y61417D01*
X350559Y60417D01*
X351559D01*
X352559Y59417D01*
X118404Y83433D02*
X119404Y84433D01*
X120405D01*
X119404Y85433D01*
X120405Y86433D01*
X119404D01*
X118404Y87433D01*
X117404Y86433D01*
X116404D01*
X117404Y85433D01*
X116404Y84433D01*
X117404D01*
X118404Y83433D01*
X114664D02*
X115664Y84433D01*
X116664D01*
X115664Y85433D01*
X116664Y86433D01*
X115664D01*
X114664Y87433D01*
X113664Y86433D01*
X112664D01*
X113664Y85433D01*
X112664Y84433D01*
X113664D01*
X114664Y83433D01*
X122441D02*
X123441Y84433D01*
X124441D01*
X123441Y85433D01*
X124441Y86433D01*
X123441D01*
X122441Y87433D01*
X121441Y86433D01*
X120441D01*
X121441Y85433D01*
X120441Y84433D01*
X121441D01*
X122441Y83433D01*
X146235Y127114D02*
X147235Y128114D01*
X148235D01*
X147235Y129114D01*
X148235Y130114D01*
X147235D01*
X146235Y131114D01*
X145235Y130114D01*
X144235D01*
X145235Y129114D01*
X144235Y128114D01*
X145235D01*
X146235Y127114D01*
X90551Y90520D02*
X91551Y91520D01*
X92551D01*
X91551Y92520D01*
X92551Y93520D01*
X91551D01*
X90551Y94520D01*
X89551Y93520D01*
X88551D01*
X89551Y92520D01*
X88551Y91520D01*
X89551D01*
X90551Y90520D01*
X144882Y207842D02*
X145882Y208842D01*
X146882D01*
X145882Y209842D01*
X146882Y210842D01*
X145882D01*
X144882Y211842D01*
X143882Y210842D01*
X142882D01*
X143882Y209842D01*
X142882Y208842D01*
X143882D01*
X144882Y207842D01*
X373622Y247213D02*
X374622Y248213D01*
X375622D01*
X374622Y249213D01*
X375622Y250213D01*
X374622D01*
X373622Y251213D01*
X372622Y250213D01*
X371622D01*
X372622Y249213D01*
X371622Y248213D01*
X372622D01*
X373622Y247213D01*
X366929Y39732D02*
X367929Y40732D01*
X368929D01*
X367929Y41732D01*
X368929Y42732D01*
X367929D01*
X366929Y43732D01*
X365929Y42732D01*
X364929D01*
X365929Y41732D01*
X364929Y40732D01*
X365929D01*
X366929Y39732D01*
X326368Y239230D02*
X327368Y240230D01*
X328368D01*
X327368Y241230D01*
X328368Y242230D01*
X327368D01*
X326368Y243230D01*
X325368Y242230D01*
X324368D01*
X325368Y241230D01*
X324368Y240230D01*
X325368D01*
X326368Y239230D01*
X329134Y255480D02*
X330134Y256480D01*
X331134D01*
X330134Y257480D01*
X331134Y258480D01*
X330134D01*
X329134Y259480D01*
X328134Y258480D01*
X327134D01*
X328134Y257480D01*
X327134Y256480D01*
X328134D01*
X329134Y255480D01*
X329528Y264535D02*
X330528Y265535D01*
X331528D01*
X330528Y266535D01*
X331528Y267535D01*
X330528D01*
X329528Y268535D01*
X328528Y267535D01*
X327528D01*
X328528Y266535D01*
X327528Y265535D01*
X328528D01*
X329528Y264535D01*
X329921Y274378D02*
X330921Y275378D01*
X331921D01*
X330921Y276378D01*
X331921Y277378D01*
X330921D01*
X329921Y278378D01*
X328921Y277378D01*
X327921D01*
X328921Y276378D01*
X327921Y275378D01*
X328921D01*
X329921Y274378D01*
X330269Y306313D02*
X331269Y307313D01*
X332269D01*
X331269Y308313D01*
X332269Y309313D01*
X331269D01*
X330269Y310313D01*
X329269Y309313D01*
X328269D01*
X329269Y308313D01*
X328269Y307313D01*
X329269D01*
X330269Y306313D01*
X330289Y285008D02*
X331289Y286008D01*
X332289D01*
X331289Y287008D01*
X332289Y288008D01*
X331289D01*
X330289Y289008D01*
X329289Y288008D01*
X328289D01*
X329289Y287008D01*
X328289Y286008D01*
X329289D01*
X330289Y285008D01*
X330207Y290913D02*
X331207Y291913D01*
X332207D01*
X331207Y292913D01*
X332207Y293913D01*
X331207D01*
X330207Y294913D01*
X329207Y293913D01*
X328207D01*
X329207Y292913D01*
X328207Y291913D01*
X329207D01*
X330207Y290913D01*
X330072Y296819D02*
X331072Y297819D01*
X332072D01*
X331072Y298819D01*
X332072Y299819D01*
X331072D01*
X330072Y300819D01*
X329072Y299819D01*
X328072D01*
X329072Y298819D01*
X328072Y297819D01*
X329072D01*
X330072Y296819D01*
X111024Y200756D02*
X112024Y201756D01*
X113024D01*
X112024Y202756D01*
X113024Y203756D01*
X112024D01*
X111024Y204756D01*
X110024Y203756D01*
X109024D01*
X110024Y202756D01*
X109024Y201756D01*
X110024D01*
X111024Y200756D01*
X99213Y192095D02*
X100213Y193095D01*
X101213D01*
X100213Y194095D01*
X101213Y195095D01*
X100213D01*
X99213Y196095D01*
X98213Y195095D01*
X97213D01*
X98213Y194095D01*
X97213Y193095D01*
X98213D01*
X99213Y192095D01*
X175000Y147606D02*
X176000Y148606D01*
X177000D01*
X176000Y149606D01*
X177000Y150606D01*
X176000D01*
X175000Y151606D01*
X174000Y150606D01*
X173000D01*
X174000Y149606D01*
X173000Y148606D01*
X174000D01*
X175000Y147606D01*
X90158Y149575D02*
X91158Y150575D01*
X92158D01*
X91158Y151575D01*
X92158Y152575D01*
X91158D01*
X90158Y153575D01*
X89157Y152575D01*
X88157D01*
X89157Y151575D01*
X88157Y150575D01*
X89157D01*
X90158Y149575D01*
X89764Y143669D02*
X90764Y144669D01*
X91764D01*
X90764Y145669D01*
X91764Y146669D01*
X90764D01*
X89764Y147669D01*
X88764Y146669D01*
X87764D01*
X88764Y145669D01*
X87764Y144669D01*
X88764D01*
X89764Y143669D01*
X205512Y140717D02*
X206512Y141717D01*
X207512D01*
X206512Y142717D01*
X207512Y143717D01*
X206512D01*
X205512Y144717D01*
X204512Y143717D01*
X203512D01*
X204512Y142717D01*
X203512Y141717D01*
X204512D01*
X205512Y140717D01*
X234252Y7842D02*
X235252Y8843D01*
X236252D01*
X235252Y9843D01*
X236252Y10842D01*
X235252D01*
X234252Y11842D01*
X233252Y10842D01*
X232252D01*
X233252Y9843D01*
X232252Y8843D01*
X233252D01*
X234252Y7842D01*
X145472Y86583D02*
X146472Y87583D01*
X147472D01*
X146472Y88583D01*
X147472Y89583D01*
X146472D01*
X145472Y90583D01*
X144472Y89583D01*
X143472D01*
X144472Y88583D01*
X143472Y87583D01*
X144472D01*
X145472Y86583D01*
X142520Y109220D02*
X143520Y110220D01*
X144520D01*
X143520Y111220D01*
X144520Y112220D01*
X143520D01*
X142520Y113220D01*
X141520Y112220D01*
X140520D01*
X141520Y111220D01*
X140520Y110220D01*
X141520D01*
X142520Y109220D01*
X134547Y108630D02*
X135547Y109630D01*
X136547D01*
X135547Y110630D01*
X136547Y111630D01*
X135547D01*
X134547Y112630D01*
X133547Y111630D01*
X132547D01*
X133547Y110630D01*
X132547Y109630D01*
X133547D01*
X134547Y108630D01*
X140551Y131858D02*
X141551Y132858D01*
X142551D01*
X141551Y133858D01*
X142551Y134858D01*
X141551D01*
X140551Y135858D01*
X139551Y134858D01*
X138551D01*
X139551Y133858D01*
X138551Y132858D01*
X139551D01*
X140551Y131858D01*
X115945Y138748D02*
X116945Y139748D01*
X117945D01*
X116945Y140748D01*
X117945Y141748D01*
X116945D01*
X115945Y142748D01*
X114945Y141748D01*
X113945D01*
X114945Y140748D01*
X113945Y139748D01*
X114945D01*
X115945Y138748D01*
X135630Y86583D02*
X136630Y87583D01*
X137630D01*
X136630Y88583D01*
X137630Y89583D01*
X136630D01*
X135630Y90583D01*
X134630Y89583D01*
X133630D01*
X134630Y88583D01*
X133630Y87583D01*
X134630D01*
X135630Y86583D01*
X144488Y104299D02*
X145488Y105299D01*
X146488D01*
X145488Y106299D01*
X146488Y107299D01*
X145488D01*
X144488Y108299D01*
X143488Y107299D01*
X142488D01*
X143488Y106299D01*
X142488Y105299D01*
X143488D01*
X144488Y104299D01*
X162205Y139732D02*
X163205Y140732D01*
X164205D01*
X163205Y141732D01*
X164205Y142732D01*
X163205D01*
X162205Y143732D01*
X161205Y142732D01*
X160205D01*
X161205Y141732D01*
X160205Y140732D01*
X161205D01*
X162205Y139732D01*
X128740Y126937D02*
X129740Y127937D01*
X130740D01*
X129740Y128937D01*
X130740Y129937D01*
X129740D01*
X128740Y130937D01*
X127740Y129937D01*
X126740D01*
X127740Y128937D01*
X126740Y127937D01*
X127740D01*
X128740Y126937D01*
X175000Y7842D02*
X176000Y8843D01*
X177000D01*
X176000Y9843D01*
X177000Y10842D01*
X176000D01*
X175000Y11842D01*
X174000Y10842D01*
X173000D01*
X174000Y9843D01*
X173000Y8843D01*
X174000D01*
X175000Y7842D01*
X194685D02*
X195685Y8843D01*
X196685D01*
X195685Y9843D01*
X196685Y10842D01*
X195685D01*
X194685Y11842D01*
X193685Y10842D01*
X192685D01*
X193685Y9843D01*
X192685Y8843D01*
X193685D01*
X194685Y7842D01*
X155315D02*
X156315Y8843D01*
X157315D01*
X156315Y9843D01*
X157315Y10842D01*
X156315D01*
X155315Y11842D01*
X154315Y10842D01*
X153315D01*
X154315Y9843D01*
X153315Y8843D01*
X154315D01*
X155315Y7842D01*
X67716Y28727D02*
X68717Y29728D01*
X69717D01*
X68717Y30727D01*
X69717Y31727D01*
X68717D01*
X67716Y32728D01*
X66716Y31727D01*
X65716D01*
X66716Y30727D01*
X65716Y29728D01*
X66716D01*
X67716Y28727D01*
Y87783D02*
X68717Y88783D01*
X69717D01*
X68717Y89783D01*
X69717Y90783D01*
X68717D01*
X67716Y91783D01*
X66716Y90783D01*
X65716D01*
X66716Y89783D01*
X65716Y88783D01*
X66716D01*
X67716Y87783D01*
Y68098D02*
X68717Y69098D01*
X69717D01*
X68717Y70098D01*
X69717Y71098D01*
X68717D01*
X67716Y72098D01*
X66716Y71098D01*
X65716D01*
X66716Y70098D01*
X65716Y69098D01*
X66716D01*
X67716Y68098D01*
X89665Y111189D02*
X90665Y112189D01*
X91665D01*
X90665Y113189D01*
X91665Y114189D01*
X90665D01*
X89665Y115189D01*
X88665Y114189D01*
X87665D01*
X88665Y113189D01*
X87665Y112189D01*
X88665D01*
X89665Y111189D01*
X67716Y48412D02*
X68717Y49413D01*
X69717D01*
X68717Y50412D01*
X69717Y51412D01*
X68717D01*
X67716Y52412D01*
X66716Y51412D01*
X65716D01*
X66716Y50412D01*
X65716Y49413D01*
X66716D01*
X67716Y48412D01*
X66732Y7842D02*
X67732Y8843D01*
X68732D01*
X67732Y9843D01*
X68732Y10842D01*
X67732D01*
X66732Y11842D01*
X65732Y10842D01*
X64732D01*
X65732Y9843D01*
X64732Y8843D01*
X65732D01*
X66732Y7842D01*
X86417D02*
X87417Y8843D01*
X88417D01*
X87417Y9843D01*
X88417Y10842D01*
X87417D01*
X86417Y11842D01*
X85417Y10842D01*
X84417D01*
X85417Y9843D01*
X84417Y8843D01*
X85417D01*
X86417Y7842D01*
X106102D02*
X107102Y8843D01*
X108102D01*
X107102Y9843D01*
X108102Y10842D01*
X107102D01*
X106102Y11842D01*
X105102Y10842D01*
X104102D01*
X105102Y9843D01*
X104102Y8843D01*
X105102D01*
X106102Y7842D01*
X95276Y138748D02*
X96276Y139748D01*
X97276D01*
X96276Y140748D01*
X97276Y141748D01*
X96276D01*
X95276Y142748D01*
X94276Y141748D01*
X93276D01*
X94276Y140748D01*
X93276Y139748D01*
X94276D01*
X95276Y138748D01*
X135630Y7842D02*
X136630Y8843D01*
X137630D01*
X136630Y9843D01*
X137630Y10842D01*
X136630D01*
X135630Y11842D01*
X134630Y10842D01*
X133630D01*
X134630Y9843D01*
X133630Y8843D01*
X134630D01*
X135630Y7842D01*
X89370Y136779D02*
X90370Y137779D01*
X91370D01*
X90370Y138779D01*
X91370Y139779D01*
X90370D01*
X89370Y140779D01*
X88370Y139779D01*
X87370D01*
X88370Y138779D01*
X87370Y137779D01*
X88370D01*
X89370Y136779D01*
X90354Y125953D02*
X91354Y126953D01*
X92354D01*
X91354Y127953D01*
X92354Y128953D01*
X91354D01*
X90354Y129953D01*
X89354Y128953D01*
X88354D01*
X89354Y127953D01*
X88354Y126953D01*
X89354D01*
X90354Y125953D01*
X101181Y130874D02*
X102181Y131874D01*
X103181D01*
X102181Y132874D01*
X103181Y133874D01*
X102181D01*
X101181Y134874D01*
X100181Y133874D01*
X99181D01*
X100181Y132874D01*
X99181Y131874D01*
X100181D01*
X101181Y130874D01*
X110630Y83433D02*
X111630Y84433D01*
X112630D01*
X111630Y85433D01*
X112630Y86433D01*
X111630D01*
X110630Y87433D01*
X109630Y86433D01*
X108630D01*
X109630Y85433D01*
X108630Y84433D01*
X109630D01*
X110630Y83433D01*
X220276Y100362D02*
X221276Y101362D01*
X222276D01*
X221276Y102362D01*
X222276Y103362D01*
X221276D01*
X220276Y104362D01*
X219276Y103362D01*
X218276D01*
X219276Y102362D01*
X218276Y101362D01*
X219276D01*
X220276Y100362D01*
X205512Y117094D02*
X206512Y118094D01*
X207512D01*
X206512Y119094D01*
X207512Y120094D01*
X206512D01*
X205512Y121094D01*
X204512Y120094D01*
X203512D01*
X204512Y119094D01*
X203512Y118094D01*
X204512D01*
X205512Y117094D01*
X232087Y87567D02*
X233087Y88567D01*
X234087D01*
X233087Y89567D01*
X234087Y90567D01*
X233087D01*
X232087Y91567D01*
X231087Y90567D01*
X230087D01*
X231087Y89567D01*
X230087Y88567D01*
X231087D01*
X232087Y87567D01*
X211024Y109024D02*
X212024Y110024D01*
X213024D01*
X212024Y111024D01*
X213024Y112024D01*
X212024D01*
X211024Y113024D01*
X210024Y112024D01*
X209024D01*
X210024Y111024D01*
X209024Y110024D01*
X210024D01*
X211024Y109024D01*
X237008Y44260D02*
X238008Y45260D01*
X239008D01*
X238008Y46260D01*
X239008Y47260D01*
X238008D01*
X237008Y48260D01*
X236008Y47260D01*
X235008D01*
X236008Y46260D01*
X235008Y45260D01*
X236008D01*
X237008Y44260D01*
Y57055D02*
X238008Y58055D01*
X239008D01*
X238008Y59055D01*
X239008Y60055D01*
X238008D01*
X237008Y61055D01*
X236008Y60055D01*
X235008D01*
X236008Y59055D01*
X235008Y58055D01*
X236008D01*
X237008Y57055D01*
Y72803D02*
X238008Y73803D01*
X239008D01*
X238008Y74803D01*
X239008Y75803D01*
X238008D01*
X237008Y76803D01*
X236008Y75803D01*
X235008D01*
X236008Y74803D01*
X235008Y73803D01*
X236008D01*
X237008Y72803D01*
X162205Y122016D02*
X163205Y123016D01*
X164205D01*
X163205Y124016D01*
X164205Y125016D01*
X163205D01*
X162205Y126016D01*
X161205Y125016D01*
X160205D01*
X161205Y124016D01*
X160205Y123016D01*
X161205D01*
X162205Y122016D01*
X175000Y121031D02*
X176000Y122031D01*
X177000D01*
X176000Y123031D01*
X177000Y124031D01*
X176000D01*
X175000Y125031D01*
X174000Y124031D01*
X173000D01*
X174000Y123031D01*
X173000Y122031D01*
X174000D01*
X175000Y121031D01*
X170079D02*
X171079Y122031D01*
X172079D01*
X171079Y123031D01*
X172079Y124031D01*
X171079D01*
X170079Y125031D01*
X169079Y124031D01*
X168079D01*
X169079Y123031D01*
X168079Y122031D01*
X169079D01*
X170079Y121031D01*
Y115126D02*
X171079Y116126D01*
X172079D01*
X171079Y117126D01*
X172079Y118126D01*
X171079D01*
X170079Y119126D01*
X169079Y118126D01*
X168079D01*
X169079Y117126D01*
X168079Y116126D01*
X169079D01*
X170079Y115126D01*
X175000D02*
X176000Y116126D01*
X177000D01*
X176000Y117126D01*
X177000Y118126D01*
X176000D01*
X175000Y119126D01*
X174000Y118126D01*
X173000D01*
X174000Y117126D01*
X173000Y116126D01*
X174000D01*
X175000Y115126D01*
X178937Y109220D02*
X179937Y110220D01*
X180937D01*
X179937Y111220D01*
X180937Y112220D01*
X179937D01*
X178937Y113220D01*
X177937Y112220D01*
X176937D01*
X177937Y111220D01*
X176937Y110220D01*
X177937D01*
X178937Y109220D01*
X148425Y104299D02*
X149425Y105299D01*
X150425D01*
X149425Y106299D01*
X150425Y107299D01*
X149425D01*
X148425Y108299D01*
X147425Y107299D01*
X146425D01*
X147425Y106299D01*
X146425Y105299D01*
X147425D01*
X148425Y104299D01*
X155486Y123007D02*
X156486Y124007D01*
X157486D01*
X156486Y125007D01*
X157486Y126007D01*
X156486D01*
X155486Y127007D01*
X154486Y126007D01*
X153486D01*
X154486Y125007D01*
X153486Y124007D01*
X154486D01*
X155486Y123007D01*
X148425Y100362D02*
X149425Y101362D01*
X150425D01*
X149425Y102362D01*
X150425Y103362D01*
X149425D01*
X148425Y104362D01*
X147425Y103362D01*
X146425D01*
X147425Y102362D01*
X146425Y101362D01*
X147425D01*
X148425Y100362D01*
X90354Y98394D02*
X91354Y99394D01*
X92354D01*
X91354Y100394D01*
X92354Y101394D01*
X91354D01*
X90354Y102394D01*
X89354Y101394D01*
X88354D01*
X89354Y100394D01*
X88354Y99394D01*
X89354D01*
X90354Y98394D01*
X125394Y99575D02*
X126394Y100575D01*
X127394D01*
X126394Y101575D01*
X127394Y102575D01*
X126394D01*
X125394Y103575D01*
X124394Y102575D01*
X123394D01*
X124394Y101575D01*
X123394Y100575D01*
X124394D01*
X125394Y99575D01*
X102165Y105283D02*
X103165Y106283D01*
X104165D01*
X103165Y107283D01*
X104165Y108283D01*
X103165D01*
X102165Y109283D01*
X101165Y108283D01*
X100165D01*
X101165Y107283D01*
X100165Y106283D01*
X101165D01*
X102165Y105283D01*
X96260Y86583D02*
X97260Y87583D01*
X98260D01*
X97260Y88583D01*
X98260Y89583D01*
X97260D01*
X96260Y90583D01*
X95260Y89583D01*
X94260D01*
X95260Y88583D01*
X94260Y87583D01*
X95260D01*
X96260Y86583D01*
X90354Y119063D02*
X91354Y120063D01*
X92354D01*
X91354Y121063D01*
X92354Y122063D01*
X91354D01*
X90354Y123063D01*
X89354Y122063D01*
X88354D01*
X89354Y121063D01*
X88354Y120063D01*
X89354D01*
X90354Y119063D01*
X95276Y105283D02*
X96276Y106283D01*
X97276D01*
X96276Y107283D01*
X97276Y108283D01*
X96276D01*
X95276Y109283D01*
X94276Y108283D01*
X93276D01*
X94276Y107283D01*
X93276Y106283D01*
X94276D01*
X95276Y105283D01*
X382677Y284221D02*
X383677Y285221D01*
X384677D01*
X383677Y286221D01*
X384677Y287221D01*
X383677D01*
X382677Y288221D01*
X381677Y287221D01*
X380677D01*
X381677Y286221D01*
X380677Y285221D01*
X381677D01*
X382677Y284221D01*
X370472Y289732D02*
X371472Y290732D01*
X372472D01*
X371472Y291732D01*
X372472Y292732D01*
X371472D01*
X370472Y293732D01*
X369472Y292732D01*
X368472D01*
X369472Y291732D01*
X368472Y290732D01*
X369472D01*
X370472Y289732D01*
Y283039D02*
X371472Y284039D01*
X372472D01*
X371472Y285039D01*
X372472Y286039D01*
X371472D01*
X370472Y287039D01*
X369472Y286039D01*
X368472D01*
X369472Y285039D01*
X368472Y284039D01*
X369472D01*
X370472Y283039D01*
Y275953D02*
X371472Y276953D01*
X372472D01*
X371472Y277953D01*
X372472Y278953D01*
X371472D01*
X370472Y279953D01*
X369472Y278953D01*
X368472D01*
X369472Y277953D01*
X368472Y276953D01*
X369472D01*
X370472Y275953D01*
Y269654D02*
X371472Y270654D01*
X372472D01*
X371472Y271654D01*
X372472Y272654D01*
X371472D01*
X370472Y273654D01*
X369472Y272654D01*
X368472D01*
X369472Y271654D01*
X368472Y270654D01*
X369472D01*
X370472Y269654D01*
X382677Y273984D02*
X383677Y274984D01*
X384677D01*
X383677Y275984D01*
X384677Y276984D01*
X383677D01*
X382677Y277984D01*
X381677Y276984D01*
X380677D01*
X381677Y275984D01*
X380677Y274984D01*
X381677D01*
X382677Y273984D01*
Y279102D02*
X383677Y280102D01*
X384677D01*
X383677Y281102D01*
X384677Y282102D01*
X383677D01*
X382677Y283102D01*
X381677Y282102D01*
X380677D01*
X381677Y281102D01*
X380677Y280102D01*
X381677D01*
X382677Y279102D01*
X354396Y35461D02*
X355396Y36461D01*
X356396D01*
X355396Y37461D01*
X356396Y38461D01*
X355396D01*
X354396Y39461D01*
X353396Y38461D01*
X352396D01*
X353396Y37461D01*
X352396Y36461D01*
X353396D01*
X354396Y35461D01*
D152*
X375425Y8347D02*
G03*
X375425Y8347I-2000J0D01*
G01*
X341370D02*
G03*
X341370Y8347I-2000J0D01*
G01*
X189795Y169291D02*
G03*
X189795Y169291I-2000J0D01*
G01*
Y179291D02*
G03*
X189795Y179291I-2000J0D01*
G01*
Y129291D02*
G03*
X189795Y129291I-2000J0D01*
G01*
Y119291D02*
G03*
X189795Y119291I-2000J0D01*
G01*
Y139291D02*
G03*
X189795Y139291I-2000J0D01*
G01*
D153*
X374625Y8347D02*
G03*
X374625Y8347I-1200J0D01*
G01*
X340570D02*
G03*
X340570Y8347I-1200J0D01*
G01*
M02*
