G04*
G04 #@! TF.GenerationSoftware,Altium Limited,Altium Designer,26.9.1 (10)*
G04*
G04 Layer_Physical_Order=1*
G04 Layer_Color=6711008*
G04 Board_Origin=24507875|15551181*
%FSLAX25Y25*%
%MOIN*%
G70*
G04*
G04 #@! TF.SameCoordinates,E31FBE90-4C1D-45C5-8F2B-B1877BC71EBF*
G04*
G04*
G04 #@! TF.FilePolarity,Positive*
G04*
G01*
G75*
%ADD17C,0.02000*%
%ADD24O,0.07874X0.01772*%
%ADD25R,0.03937X0.03740*%
G04:AMPARAMS|DCode=26|XSize=15.75mil|YSize=47.24mil|CornerRadius=1.97mil|HoleSize=0mil|Usage=FLASHONLY|Rotation=270.000|XOffset=0mil|YOffset=0mil|HoleType=Round|Shape=RoundedRectangle|*
%AMROUNDEDRECTD26*
21,1,0.01575,0.04331,0,0,270.0*
21,1,0.01181,0.04724,0,0,270.0*
1,1,0.00394,-0.02165,-0.00591*
1,1,0.00394,-0.02165,0.00591*
1,1,0.00394,0.02165,0.00591*
1,1,0.00394,0.02165,-0.00591*
%
%ADD26ROUNDEDRECTD26*%
%ADD27R,0.04921X0.05709*%
G04:AMPARAMS|DCode=28|XSize=17.72mil|YSize=62.99mil|CornerRadius=1.95mil|HoleSize=0mil|Usage=FLASHONLY|Rotation=270.000|XOffset=0mil|YOffset=0mil|HoleType=Round|Shape=RoundedRectangle|*
%AMROUNDEDRECTD28*
21,1,0.01772,0.05909,0,0,270.0*
21,1,0.01382,0.06299,0,0,270.0*
1,1,0.00390,-0.02955,-0.00691*
1,1,0.00390,-0.02955,0.00691*
1,1,0.00390,0.02955,0.00691*
1,1,0.00390,0.02955,-0.00691*
%
%ADD28ROUNDEDRECTD28*%
%ADD29R,0.03543X0.03347*%
%ADD30R,0.03740X0.03937*%
G04:AMPARAMS|DCode=31|XSize=85.59mil|YSize=21.74mil|CornerRadius=10.87mil|HoleSize=0mil|Usage=FLASHONLY|Rotation=0.000|XOffset=0mil|YOffset=0mil|HoleType=Round|Shape=RoundedRectangle|*
%AMROUNDEDRECTD31*
21,1,0.08559,0.00000,0,0,0.0*
21,1,0.06386,0.02174,0,0,0.0*
1,1,0.02174,0.03193,0.00000*
1,1,0.02174,-0.03193,0.00000*
1,1,0.02174,-0.03193,0.00000*
1,1,0.02174,0.03193,0.00000*
%
%ADD31ROUNDEDRECTD31*%
G04:AMPARAMS|DCode=32|XSize=78.74mil|YSize=15.75mil|CornerRadius=7.87mil|HoleSize=0mil|Usage=FLASHONLY|Rotation=270.000|XOffset=0mil|YOffset=0mil|HoleType=Round|Shape=RoundedRectangle|*
%AMROUNDEDRECTD32*
21,1,0.07874,0.00000,0,0,270.0*
21,1,0.06299,0.01575,0,0,270.0*
1,1,0.01575,0.00000,-0.03150*
1,1,0.01575,0.00000,0.03150*
1,1,0.01575,0.00000,0.03150*
1,1,0.01575,0.00000,-0.03150*
%
%ADD32ROUNDEDRECTD32*%
%ADD33R,0.05709X0.04921*%
%ADD34R,0.03347X0.03543*%
%ADD35R,0.02362X0.04724*%
%ADD36R,0.02559X0.06496*%
%ADD37R,0.01968X0.03740*%
%ADD38R,0.04331X0.06693*%
%ADD39R,0.09449X0.11024*%
G04:AMPARAMS|DCode=40|XSize=23.62mil|YSize=39.37mil|CornerRadius=2.01mil|HoleSize=0mil|Usage=FLASHONLY|Rotation=180.000|XOffset=0mil|YOffset=0mil|HoleType=Round|Shape=RoundedRectangle|*
%AMROUNDEDRECTD40*
21,1,0.02362,0.03535,0,0,180.0*
21,1,0.01961,0.03937,0,0,180.0*
1,1,0.00402,-0.00980,0.01768*
1,1,0.00402,0.00980,0.01768*
1,1,0.00402,0.00980,-0.01768*
1,1,0.00402,-0.00980,-0.01768*
%
%ADD40ROUNDEDRECTD40*%
G04:AMPARAMS|DCode=41|XSize=23.62mil|YSize=43.31mil|CornerRadius=5.91mil|HoleSize=0mil|Usage=FLASHONLY|Rotation=270.000|XOffset=0mil|YOffset=0mil|HoleType=Round|Shape=RoundedRectangle|*
%AMROUNDEDRECTD41*
21,1,0.02362,0.03150,0,0,270.0*
21,1,0.01181,0.04331,0,0,270.0*
1,1,0.01181,-0.01575,-0.00591*
1,1,0.01181,-0.01575,0.00591*
1,1,0.01181,0.01575,0.00591*
1,1,0.01181,0.01575,-0.00591*
%
%ADD41ROUNDEDRECTD41*%
%ADD42R,0.12992X0.09449*%
G04:AMPARAMS|DCode=43|XSize=92.52mil|YSize=218.5mil|CornerRadius=11.57mil|HoleSize=0mil|Usage=FLASHONLY|Rotation=270.000|XOffset=0mil|YOffset=0mil|HoleType=Round|Shape=RoundedRectangle|*
%AMROUNDEDRECTD43*
21,1,0.09252,0.19537,0,0,270.0*
21,1,0.06939,0.21850,0,0,270.0*
1,1,0.02313,-0.09769,-0.03470*
1,1,0.02313,-0.09769,0.03470*
1,1,0.02313,0.09769,0.03470*
1,1,0.02313,0.09769,-0.03470*
%
%ADD43ROUNDEDRECTD43*%
%ADD44R,0.03937X0.07087*%
%ADD45R,0.07008X0.13780*%
%ADD46R,0.09843X0.06693*%
%ADD47R,0.03150X0.04724*%
%ADD48R,0.05512X0.08661*%
%ADD49R,0.01575X0.07874*%
%ADD50O,0.02362X0.05709*%
%ADD51R,0.06496X0.11811*%
%ADD52R,0.08559X0.02174*%
%ADD53R,0.05704X0.25591*%
%ADD75C,0.06181*%
%ADD76R,0.06181X0.06181*%
%ADD90O,0.11024X0.13386*%
%ADD91O,0.11024X0.13780*%
%ADD92C,0.04000*%
%AMCUSTOMSHAPE94*
4,1,8,-0.01968,-0.00984,-0.01968,0.00487,-0.01968,0.00487,0.00000,0.02456,0.00000,0.02456,0.01968,0.00487,0.01968,-0.02362,-0.01968,-0.02362,-0.01968,-0.00984,0.0*%
%ADD94CUSTOMSHAPE94*%

%AMCUSTOMSHAPE95*
4,1,8,-0.00984,0.01968,0.00487,0.01968,0.00487,0.01968,0.02456,0.00000,0.02456,0.00000,0.00487,-0.01968,-0.02362,-0.01968,-0.02362,0.01968,-0.00984,0.01968,0.0*%
%ADD95CUSTOMSHAPE95*%

%AMCUSTOMSHAPE96*
4,1,15,-0.01181,0.02559,-0.01181,-0.02559,-0.01181,-0.02559,0.00000,-0.02559,0.00000,-0.02559,0.00000,-0.02559,0.00000,-0.02559,0.01181,-0.02559,0.01181,-0.02559,0.01181,0.02559,0.01181,0.02559,0.00000,0.02559,0.00000,0.02559,0.00000,0.02559,0.00000,0.02559,-0.01181,0.02559,0.0*%
%ADD96CUSTOMSHAPE96*%

%AMCUSTOMSHAPE97*
4,1,15,0.01181,-0.02559,0.01181,0.02559,0.01181,0.02559,0.00000,0.02559,0.00000,0.02559,0.00000,0.02559,0.00000,0.02559,-0.01181,0.02559,-0.01181,0.02559,-0.01181,-0.02559,-0.01181,-0.02559,0.00000,-0.02559,0.00000,-0.02559,0.00000,-0.02559,0.00000,-0.02559,0.01181,-0.02559,0.0*%
%ADD97CUSTOMSHAPE97*%

%AMCUSTOMSHAPE98*
4,1,8,-0.01968,-0.00984,-0.01968,0.00487,-0.01968,0.00487,0.00000,0.02456,0.00000,0.02456,0.01968,0.00487,0.01968,-0.02362,-0.01968,-0.02362,-0.01968,-0.00984,0.0*%
%ADD98CUSTOMSHAPE98*%

%ADD99R,0.01968X0.01968*%
%AMCUSTOMSHAPE100*
4,1,8,-0.00984,0.01968,0.00487,0.01968,0.00487,0.01968,0.02456,0.00000,0.02456,0.00000,0.00487,-0.01968,-0.02362,-0.01968,-0.02362,0.01968,-0.00984,0.01968,0.0*%
%ADD100CUSTOMSHAPE100*%

%AMCUSTOMSHAPE101*
4,1,17,-0.02751,0.04724,-0.00783,0.02756,-0.00783,0.02756,-0.02751,0.00787,-0.00171,0.00787,-0.00171,-0.00787,-0.02751,-0.00787,-0.00783,-0.02756,-0.00783,-0.02756,-0.02751,-0.04724,0.02461,-0.04724,0.02461,-0.00787,0.01077,-0.00787,0.01077,0.00787,0.02461,0.00787,0.02461,0.04724,0.02461,0.04724,-0.02751,0.04724,0.0*%
%ADD101CUSTOMSHAPE101*%

%AMCUSTOMSHAPE102*
4,1,17,-0.04724,-0.02751,-0.02756,-0.00783,-0.02756,-0.00783,-0.00787,-0.02751,-0.00787,-0.00171,0.00787,-0.00171,0.00787,-0.02751,0.02756,-0.00783,0.02756,-0.00783,0.04724,-0.02751,0.04724,0.02461,0.00787,0.02461,0.00787,0.01077,-0.00787,0.01077,-0.00787,0.02461,-0.04724,0.02461,-0.04724,0.02461,-0.04724,-0.02751,0.0*%
%ADD102CUSTOMSHAPE102*%

%AMCUSTOMSHAPE103*
4,1,15,0.01181,-0.02559,0.01181,0.02559,0.01181,0.02559,-0.00000,0.02559,-0.00000,0.02559,-0.00000,0.02559,-0.00000,0.02559,-0.01181,0.02559,-0.01181,0.02559,-0.01181,-0.02559,-0.01181,-0.02559,0.00000,-0.02559,0.00000,-0.02559,0.00000,-0.02559,0.00000,-0.02559,0.01181,-0.02559,0.0*%
%ADD103CUSTOMSHAPE103*%

%AMCUSTOMSHAPE104*
4,1,15,0.01181,-0.02559,0.01181,0.02559,0.01181,0.02559,0.00000,0.02559,0.00000,0.02559,0.00000,0.02559,0.00000,0.02559,-0.01181,0.02559,-0.01181,0.02559,-0.01181,-0.02559,-0.01181,-0.02559,0.00000,-0.02559,0.00000,-0.02559,0.00000,-0.02559,0.00000,-0.02559,0.01181,-0.02559,0.0*%
%ADD104CUSTOMSHAPE104*%

%ADD105R,0.01181X0.05118*%
%AMCUSTOMSHAPE106*
4,1,8,0.00984,-0.01968,-0.00487,-0.01968,-0.00487,-0.01968,-0.02456,0.00000,-0.02456,0.00000,-0.00487,0.01968,0.02362,0.01968,0.02362,-0.01968,0.00984,-0.01968,0.0*%
%ADD106CUSTOMSHAPE106*%

%AMCUSTOMSHAPE107*
4,1,8,0.00984,-0.01968,-0.00487,-0.01968,-0.00487,-0.01968,-0.02456,0.00000,-0.02456,0.00000,-0.00487,0.01968,0.02362,0.01968,0.02362,-0.01968,0.00984,-0.01968,0.0*%
%ADD107CUSTOMSHAPE107*%

%AMCUSTOMSHAPE108*
4,1,17,0.02751,-0.04724,0.00783,-0.02756,0.00783,-0.02756,0.02751,-0.00787,0.00171,-0.00787,0.00171,0.00787,0.02751,0.00787,0.00783,0.02756,0.00783,0.02756,0.02751,0.04724,-0.02461,0.04724,-0.02461,0.00787,-0.01077,0.00787,-0.01077,-0.00787,-0.02461,-0.00787,-0.02461,-0.04724,-0.02461,-0.04724,0.02751,-0.04724,0.0*%
%ADD108CUSTOMSHAPE108*%

%ADD109C,0.00800*%
%ADD110C,0.01500*%
%ADD111C,0.01378*%
%ADD112C,0.02200*%
%ADD113C,0.06000*%
%ADD114C,0.05000*%
%ADD115C,0.08000*%
%ADD116C,0.04000*%
%ADD117C,0.00974*%
%ADD118C,0.00520*%
%ADD119C,0.03000*%
%ADD120C,0.00974*%
%ADD121R,0.05704X0.03685*%
%ADD122R,0.05704X0.03685*%
%ADD123R,0.05704X0.03685*%
%ADD124O,0.06693X0.06693*%
%ADD125O,0.04331X0.08661*%
%ADD126O,0.04331X0.07480*%
%ADD127C,0.07087*%
%ADD128O,0.07087X0.09055*%
%ADD129C,0.05071*%
%ADD130C,0.06496*%
G04:AMPARAMS|DCode=131|XSize=66.93mil|YSize=66.93mil|CornerRadius=16.73mil|HoleSize=0mil|Usage=FLASHONLY|Rotation=180.000|XOffset=0mil|YOffset=0mil|HoleType=Round|Shape=RoundedRectangle|*
%AMROUNDEDRECTD131*
21,1,0.06693,0.03347,0,0,180.0*
21,1,0.03347,0.06693,0,0,180.0*
1,1,0.03346,-0.01673,0.01673*
1,1,0.03346,0.01673,0.01673*
1,1,0.03346,0.01673,-0.01673*
1,1,0.03346,-0.01673,-0.01673*
%
%ADD131ROUNDEDRECTD131*%
%ADD132R,0.07087X0.09055*%
%ADD133R,0.07087X0.07087*%
G04:AMPARAMS|DCode=134|XSize=70.87mil|YSize=70.87mil|CornerRadius=17.72mil|HoleSize=0mil|Usage=FLASHONLY|Rotation=180.000|XOffset=0mil|YOffset=0mil|HoleType=Round|Shape=RoundedRectangle|*
%AMROUNDEDRECTD134*
21,1,0.07087,0.03543,0,0,180.0*
21,1,0.03543,0.07087,0,0,180.0*
1,1,0.03543,-0.01772,0.01772*
1,1,0.03543,0.01772,0.01772*
1,1,0.03543,0.01772,-0.01772*
1,1,0.03543,-0.01772,-0.01772*
%
%ADD134ROUNDEDRECTD134*%
%ADD135C,0.25600*%
%ADD136R,0.05071X0.05071*%
%ADD137C,0.02953*%
G36*
G01X3941Y4876D02*
G02X3937Y4914I192J38D01*
G01Y52856D01*
G02X4134Y53053I197J0D01*
G01X30301D01*
G02X30496Y52858I-2J-197D01*
G01X30496Y51984D01*
G01X36433D01*
G01Y52854D01*
G01X36433Y52858D01*
G02X36630Y53053I197J-1D01*
G01X38387D01*
G02X38581Y52824I0J-197D01*
G03X38567Y52658I987J-166D01*
G01Y51984D01*
G01X44110D01*
G01Y52658D01*
G03X44096Y52825I-1001J-0D01*
G02X44291Y53053I194J31D01*
G01X52789D01*
G02X52986Y52856I0J-197D01*
G01Y4134D01*
G02X52789Y3937I-197J0D01*
G01X4914D01*
G02X4876Y3941I-0J197D01*
G01X4708Y3974D01*
G02X4673Y3985I40J192D01*
G01X4513Y4051D01*
G02X4482Y4068I77J182D01*
G01X4337Y4164D01*
G02X4310Y4186I112J165D01*
G01X4186Y4310D01*
G02X4164Y4337I143J139D01*
G01X4068Y4482D01*
G02X4051Y4513I165J108D01*
G01X3985Y4673D01*
G02X3974Y4708I182J74D01*
G01X3941Y4876D01*
D02*
G37*
%LPC*%
G36*
G01X30496Y49114D02*
G03X31496Y48114I1000J0D01*
G01X32465D01*
G01Y49984D01*
G01X30496D01*
G01Y49114D01*
D02*
G37*
G36*
G01X34465Y48114D02*
G01X35433D01*
G03X36433Y49114I0J1000D01*
G01Y49984D01*
G01X34465D01*
G01Y48114D01*
D02*
G37*
G36*
G01X38567Y49311D02*
G03X39567Y48311I1000J0D01*
G01X40339D01*
G01Y49984D01*
G01X38567D01*
G01Y49311D01*
D02*
G37*
G36*
G01X42339Y48311D02*
G01X43110D01*
G03X44110Y49311I0J1000D01*
G01Y49984D01*
G01X42339D01*
G01Y48311D01*
D02*
G37*
%LPD*%
G36*
G01X7087Y220472D02*
G02X6890Y220669I0J197D01*
G01Y245472D01*
G02X7087Y245669I197J0D01*
G01X286024D01*
G02X286221Y245472I0J-197D01*
G01Y220669D01*
G02X286024Y220472I-197J0D01*
G01X270472D01*
G01Y206528D01*
G02X270276Y206331I-197J0D01*
G01X266057D01*
G03X266036Y206331I-0J-1683D01*
G03X264403Y205579I21J-2197D01*
G02X264254Y205512I-148J129D01*
G01X258465D01*
G02X258268Y205709I0J197D01*
G01Y220472D01*
G01X232860D01*
G01Y199803D01*
G02X232663Y199606I-197J0D01*
G01X210827D01*
G02X210630Y199803I0J197D01*
G01Y201559D01*
G02X210713Y201719I197J0D01*
G01Y207729D01*
G02X210630Y207890I114J160D01*
G01Y220472D01*
G01X78740D01*
G01Y210252D01*
G02X78543Y210055I-197J0D01*
G01X78165D01*
G01Y201362D01*
G01X78543D01*
G02X78740Y201165I0J-197D01*
G01Y178347D01*
G02X78543Y178150I-197J0D01*
G01X72441D01*
G01Y116339D01*
G02X72244Y116142I-197J0D01*
G01X36433D01*
G01Y109449D01*
G01X34433D01*
G01Y116142D01*
G01X31693D01*
G02X31496Y116339I0J197D01*
G01Y133661D01*
G02X31693Y133858I197J0D01*
G01X39764D01*
G01Y220472D01*
G01X7087D01*
D02*
G37*
%LPC*%
G36*
G01X41934Y141126D02*
G03X45063Y137997I4129J1000D01*
G01X45063Y141126D01*
G01X41934D01*
D02*
G37*
G36*
G01X41934Y143126D02*
G01X45063D01*
G01Y146255D01*
G03X41934Y143126I1000J-4129D01*
D02*
G37*
G36*
G01X41934Y152937D02*
G03X45063Y149808I4129J1000D01*
G01X45063Y152937D01*
G01X41934D01*
D02*
G37*
G36*
G01X41934Y154937D02*
G01X45063D01*
G01Y158066D01*
G03X41934Y154937I1000J-4129D01*
D02*
G37*
G36*
G01X41934Y164748D02*
G03X45063Y161619I4129J1000D01*
G01X45063Y164748D01*
G01X41934D01*
D02*
G37*
G36*
G01X41934Y166748D02*
G01X45063D01*
G01Y169877D01*
G03X41934Y166748I1000J-4129D01*
D02*
G37*
G36*
G01X41934Y176559D02*
G03X45063Y173430I4129J1000D01*
G01X45063Y176559D01*
G01X41934D01*
D02*
G37*
G36*
G01Y178559D02*
G01X50192Y178559D01*
G03X49926Y179327I-4129J-1000D01*
G02X50094Y179603I180J80D01*
G03X46985Y181984I-173J2995D01*
G02X46761Y181749I-193J-40D01*
G03X41934Y178559I-698J-4190D01*
D02*
G37*
G36*
G01X47063Y137997D02*
G03X50192Y141126I-1000J4129D01*
G01X47063D01*
G01Y137997D01*
D02*
G37*
G36*
G01Y143126D02*
G01X50192D01*
G03X47063Y146255I-4129J-1000D01*
G01Y143126D01*
D02*
G37*
G36*
G01Y149808D02*
G03X50192Y152937I-1000J4129D01*
G01X47063D01*
G01Y149808D01*
D02*
G37*
G36*
G01Y154937D02*
G01X50192D01*
G03X47063Y158066I-4129J-1000D01*
G01Y154937D01*
D02*
G37*
G36*
G01Y161619D02*
G03X50192Y164748I-1000J4129D01*
G01X47063D01*
G01Y161619D01*
D02*
G37*
G36*
G01Y166748D02*
G01X50192D01*
G03X47063Y169877I-4129J-1000D01*
G01Y166748D01*
D02*
G37*
G36*
G01Y173430D02*
G03X50192Y176559I-1000J4129D01*
G01X47063D01*
G01Y173430D01*
D02*
G37*
G36*
G01X74000Y202362D02*
G03X75000Y201362I1000J0D01*
G01X76165D01*
G01Y204709D01*
G01X74000D01*
G01Y202362D01*
D02*
G37*
G36*
G01Y206709D02*
G01X76165D01*
G01Y210055D01*
G01X75000D01*
G03X74000Y209055I0J-1000D01*
G01Y206709D01*
D02*
G37*
G36*
G01X212713Y201756D02*
G01X213583D01*
G03X214583Y202756I0J1000D01*
G01Y203724D01*
G01X212713D01*
G01Y201756D01*
D02*
G37*
G36*
G01Y205724D02*
G01X214583D01*
G01Y206693D01*
G03X213583Y207693I-1000J0D01*
G01X212713D01*
G01Y205724D01*
D02*
G37*
G36*
G01X221421Y203740D02*
G03X222421Y202740I1000J0D01*
G01X223925D01*
G01Y208630D01*
G01X221421D01*
G01Y203740D01*
D02*
G37*
G36*
G01Y212630D02*
G01X223925D01*
G01Y218520D01*
G01X222421D01*
G03X221421Y217520I0J-1000D01*
G01Y212630D01*
D02*
G37*
G36*
G01X227925Y202740D02*
G01X229429D01*
G03X230429Y203740I0J1000D01*
G01Y208630D01*
G01X227925D01*
G01Y202740D01*
D02*
G37*
G36*
G01Y212630D02*
G01X230429D01*
G01Y217520D01*
G03X229429Y218520I-1000J0D01*
G01X227925D01*
G01Y212630D01*
D02*
G37*
G36*
G01X261598Y210630D02*
G03X262598Y209630I1000J0D01*
G01X263567D01*
G01Y213173D01*
G01X261598D01*
G01Y210630D01*
D02*
G37*
G36*
G01Y215173D02*
G01X263567D01*
G01Y218717D01*
G01X262598D01*
G03X261598Y217717I0J-1000D01*
G01Y215173D01*
D02*
G37*
G36*
G01X265567Y209630D02*
G01X266535D01*
G03X267535Y210630I0J1000D01*
G01Y213173D01*
G01X265567D01*
G01Y209630D01*
D02*
G37*
G36*
G01Y215173D02*
G01X267535D01*
G01Y217717D01*
G03X266535Y218717I-1000J0D01*
G01X265567D01*
G01Y215173D01*
D02*
G37*
%LPD*%
G36*
G01X21850Y55118D02*
G02X21654Y55315I0J197D01*
G01Y80758D01*
G02X22037Y80820I197J0D01*
G03X22215Y80433I1895J636D01*
G03X23933Y79457I1718J1024D01*
G01X27740D01*
G02X27937Y79260I0J-197D01*
G01Y78740D01*
G03X28937Y77740I1000J0D01*
G01X34433D01*
G01Y83465D01*
G01X36433D01*
G01Y77740D01*
G01X41929D01*
G03X42929Y78740I0J1000D01*
G01Y79260D01*
G02X43126Y79457I197J0D01*
G01X46933D01*
G03X48651Y80433I0J2000D01*
G03X48933Y81457I-1718J1024D01*
G01X48933Y111457D01*
G03X46933Y113457I-2000J0D01*
G01X43126D01*
G02X42929Y113654I0J197D01*
G01Y113754D01*
G02X43124Y113951I197J-0D01*
G01X56535Y114059D01*
G01X66929Y114142D01*
G01X70671D01*
G02X70866Y113945I-2J-197D01*
G01X70866Y108296D01*
G02X70810Y108160I-197J1D01*
G01X57017Y94366D01*
G03X56535Y93786I2826J-2831D01*
G03X55843Y91535I3307J-2250D01*
G01Y55315D01*
G02X55646Y55118I-197J0D01*
G01X44303D01*
G02X44107Y55330I-0J197D01*
G03X44110Y55413I-995J84D01*
G01X44110Y56087D01*
G01X38567D01*
G01Y55413D01*
G03X38570Y55331I1004J-0D01*
G02X38374Y55118I-196J-16D01*
G01X36630D01*
G02X36433Y55315I0J197D01*
G01Y56087D01*
G01X30496D01*
G01Y55315D01*
G02X30299Y55118I-197J0D01*
G01X21850D01*
D02*
G37*
%LPC*%
G36*
G01X30496Y58087D02*
G01X32465D01*
G01Y59957D01*
G01X31496D01*
G03X30496Y58957I0J-1000D01*
G01Y58087D01*
D02*
G37*
G36*
G01X34465D02*
G01X36433D01*
G01Y58957D01*
G03X35433Y59957I-1000J0D01*
G01X34465D01*
G01Y58087D01*
D02*
G37*
G36*
G01X38567D02*
G01X40339D01*
G01Y59760D01*
G01X39567D01*
G03X38567Y58760I0J-1000D01*
G01Y58087D01*
D02*
G37*
G36*
G01X42339D02*
G01X44110D01*
G01Y58760D01*
G03X43110Y59760I-1000J0D01*
G01X42339D01*
G01Y58087D01*
D02*
G37*
%LPD*%
G36*
G01X86811Y167323D02*
G02X86614Y167520I-0J197D01*
G01Y201165D01*
G02X86811Y201362I197J0D01*
G01X87189D01*
G01Y210055D01*
G01X86811D01*
G02X86614Y210252I0J197D01*
G01Y218276D01*
G02X86811Y218472I197J0D01*
G01X208433D01*
G02X208630Y218276I0J-197D01*
G01Y207890D01*
G03X208659Y207535I2197J0D01*
G02X208661Y207503I-192J-32D01*
G01X208661Y207374D01*
G02X208303Y207261I-197J0D01*
G03X207480Y207693I-823J-569D01*
G01X206610Y207693D01*
G01Y201756D01*
G01X207480D01*
G03X208303Y202187I-0J1000D01*
G02X208661Y202075I162J-112D01*
G01Y201946D01*
G02X208659Y201915I-195J-0D01*
G03X208630Y201566I2168J-356D01*
G01Y199803D01*
G03X208659Y199448I2197J-0D01*
G02X208661Y199416I-192J-32D01*
G01X208661Y195079D01*
G02X208465Y194882I-197J0D01*
G01X188976D01*
G01Y191135D01*
G02X188974Y191104I-196J-0D01*
G03X188945Y190750I2169J-356D01*
G01X188945Y189205D01*
G02X188748Y189008I-197J0D01*
G01X166256D01*
G02X166059Y189205I0J197D01*
G01Y189945D01*
G01X158350D01*
G01Y189205D01*
G02X158153Y189008I-197J0D01*
G01X157480D01*
G03X157459Y189008I-0J-1683D01*
G03X157149Y188983I21J-2193D01*
G02X156945Y189089I-29J195D01*
G03X152738Y189471I-2220J-1097D01*
G02X152583Y189392I-157J118D01*
G01X151787D01*
G02X151591Y189589I0J197D01*
G01Y189764D01*
G03X150591Y190764I-1000J0D01*
G01X147047D01*
G03X146571Y190643I-0J-1000D01*
G02X146282Y190817I-93J174D01*
G01Y207701D01*
G02X146360Y207856I197J-2D01*
G03X143403I-1478J1987D01*
G02X143482Y207701I-118J-157D01*
G01Y190881D01*
G02X143160Y190729I-197J0D01*
G03X142520Y190961I-640J-768D01*
G01X141551Y190961D01*
G01Y188091D01*
G01X139551D01*
G01Y190961D01*
G01X138583D01*
G03X137583Y189961I0J-1000D01*
G01Y188500D01*
G02X137191Y188469I-197J0D01*
G03X136535Y189800I-2447J-378D01*
G03X133005Y189854I-1791J-1710D01*
G02X132674Y189955I-138J141D01*
G03X131693Y190764I-981J-192D01*
G01X128150D01*
G03X127150Y189764I0J-1000D01*
G01Y186417D01*
G03X128150Y185417I1000J0D01*
G01X131693D01*
G03X132674Y186225I0J1000D01*
G02X133006Y186327I193J-38D01*
G03X136535Y186381I1739J1764D01*
G03X137191Y187711I-1791J1710D01*
G02X137583Y187681I195J-30D01*
G01Y186220D01*
G03X138421Y185234I1000J0D01*
G02Y184845I-32J-194D01*
G03X137601Y184046I162J-987D01*
G02X137278Y183935I-193J37D01*
G03X136535Y184391I-1648J-1848D01*
G03Y179782I-905J-2305D01*
G03X137259Y180222I-906J2305D01*
G02X137583Y180080I128J-150D01*
G03X138583Y179118I999J38D01*
G01X138954D01*
G02X139151Y178921I0J-197D01*
G01Y174579D01*
G02X139008Y174390I-197J0D01*
G03X138272Y173425I264J-965D01*
G01Y167520D01*
G02X138075Y167323I-197J0D01*
G01X132201D01*
G02X132004Y167520I0J197D01*
G01Y173425D01*
G03X131267Y174390I-1000J-0D01*
G02X131124Y174579I54J189D01*
G01Y179118D01*
G02X131321Y179315I197J0D01*
G01X131693D01*
G03X132693Y180315I0J1000D01*
G01Y183661D01*
G03X131693Y184661I-1000J0D01*
G01X128150D01*
G03X127150Y183661I0J-1000D01*
G01Y182207D01*
G02X126953Y182010I-197J0D01*
G01X122260D01*
G02X122063Y182207I0J197D01*
G01Y182480D01*
G03X121063Y183480I-1000J0D01*
G01X119095D01*
G03X118095Y182480I0J-1000D01*
G01Y178740D01*
G03X119095Y177740I1000J0D01*
G01X121063D01*
G03X122063Y178740I0J1000D01*
G01Y179013D01*
G02X122260Y179210I197J0D01*
G01X128128D01*
G02X128324Y179013I0J-197D01*
G01Y174579D01*
G02X128181Y174390I-197J0D01*
G03X127445Y173425I264J-965D01*
G01Y167520D01*
G02X127248Y167323I-197J0D01*
G01X122358D01*
G02X122161Y167520I0J197D01*
G01Y169177D01*
G01X117602D01*
G01Y167520D01*
G02X117405Y167323I-197J0D01*
G01X111531D01*
G02X111335Y167520I0J197D01*
G01Y173425D01*
G03X110599Y174390I-1000J0D01*
G02X110455Y174579I53J190D01*
G01Y175809D01*
G02X110534Y175967I197J-0D01*
G03X107577Y175966I-1479J1986D01*
G02X107655Y175811I-119J-157D01*
G01Y174579D01*
G02X107511Y174390I-197J-0D01*
G03X106776Y173425I264J-965D01*
G01Y167520D01*
G02X106579Y167323I-197J0D01*
G01X101689D01*
G02X101492Y167520I0J197D01*
G01Y173425D01*
G03X100756Y174390I-1000J-0D01*
G02X100613Y174579I54J189D01*
G01Y179118D01*
G02X100809Y179315I197J0D01*
G01X100984D01*
G03X101984Y180315I0J1000D01*
G01Y183661D01*
G03X100984Y184661I-1000J0D01*
G01X97441D01*
G03X96535Y184086I-0J-1000D01*
G03X96441Y183661I905J-424D01*
G01Y180315D01*
G03X96535Y179891I1000J-0D01*
G03X97441Y179315I905J424D01*
G01X97616D01*
G02X97813Y179118I0J-197D01*
G01Y174579D01*
G02X97670Y174390I-197J0D01*
G03X96933Y173425I264J-965D01*
G01Y167520D01*
G02X96736Y167323I-197J0D01*
G01X86811D01*
D02*
G37*
%LPC*%
G36*
G01X89189Y201362D02*
G01X90354D01*
G03X91354Y202362I0J1000D01*
G01Y204709D01*
G01X89189D01*
G01Y201362D01*
D02*
G37*
G36*
G01Y206709D02*
G01X91354D01*
G01Y209055D01*
G03X90354Y210055I-1000J0D01*
G01X89189D01*
G01Y206709D01*
D02*
G37*
G36*
G01X96441Y186417D02*
G03X96535Y185993I1000J-0D01*
G03X97441Y185417I905J424D01*
G01X100984D01*
G03X101984Y186417I0J1000D01*
G01Y189764D01*
G03X100984Y190764I-1000J0D01*
G01X100810D01*
G02X100613Y190961I0J197D01*
G01Y191953D01*
G02X100691Y192108I197J-2D01*
G03X97734I-1478J1987D01*
G02X97813Y191953I-118J-157D01*
G01Y190961D01*
G02X97616Y190764I-197J0D01*
G01X97441D01*
G03X96535Y190188I-0J-1000D01*
G03X96441Y189764I905J-424D01*
G01Y186417D01*
D02*
G37*
G36*
G01X113010Y204235D02*
G03X110165Y200433I-1986J-1479D01*
G03X111882Y200433I858J2323D01*
G03X113010Y201277I-858J2323D01*
G02X113168Y201356I157J-118D01*
G01X114157D01*
G02X114354Y201159I0J-197D01*
G01Y200984D01*
G03X114520Y200433I1000J0D01*
G03X115193Y199997I834J551D01*
G02X115193Y199609I-32J-194D01*
G03X114354Y198622I162J-987D01*
G01Y197850D01*
G01X119701D01*
G01Y198622D01*
G03X118862Y199609I-1000J0D01*
G02Y199997I32J194D01*
G03X119535Y200433I-161J987D01*
G03X119701Y200984I-834J551D01*
G01X119701Y204528D01*
G03X118701Y205528I-1000J0D01*
G01X115354D01*
G03X114354Y204528I0J-1000D01*
G01Y204353D01*
G02X114157Y204156I-197J0D01*
G01X113168D01*
G02X113010Y204235I0J197D01*
D02*
G37*
G36*
G01X114354Y195079D02*
G03X115354Y194079I1000J0D01*
G01X116028D01*
G01Y195850D01*
G01X114354D01*
G01Y195079D01*
D02*
G37*
G36*
G01X115535Y187598D02*
G03X116520Y186599I1000J0D01*
G01X116520Y188469D01*
G01X115535D01*
G01Y187598D01*
D02*
G37*
G36*
G01Y190469D02*
G01X116520D01*
G01Y192338D01*
G03X115535Y191339I16J-1000D01*
G01Y190469D01*
D02*
G37*
G36*
G01X117602Y171177D02*
G01X118882D01*
G01Y174425D01*
G01X118602D01*
G03X117602Y173425I0J-1000D01*
G01Y171177D01*
D02*
G37*
G36*
G01X118028Y194079D02*
G01X118701D01*
G03X119701Y195079I0J1000D01*
G01Y195850D01*
G01X118028D01*
G01Y194079D01*
D02*
G37*
G36*
G01X118520Y186599D02*
G03X119504Y187598I-16J1000D01*
G01Y188469D01*
G01X118520D01*
G01Y186599D01*
D02*
G37*
G36*
G01Y190469D02*
G01X119504D01*
G01Y191339D01*
G03X118520Y192338I-1000J0D01*
G01Y190469D01*
D02*
G37*
G36*
G01X120457Y195079D02*
G03X121109Y194141I1000J0D01*
G02X121238Y193956I-68J-185D01*
G01Y192367D01*
G02X121143Y192198I-197J-0D01*
G03X120653Y191339I510J-860D01*
G01Y187598D01*
G03X121653Y186598I1000J0D01*
G01X123622D01*
G03X124622Y187598I0J1000D01*
G01Y191339D01*
G03X124133Y192198I-1000J-0D01*
G02X124038Y192367I102J168D01*
G01Y193882D01*
G02X124235Y194079I197J0D01*
G01X124803D01*
G03X125803Y195079I0J1000D01*
G01Y198622D01*
G03X124964Y199609I-1000J0D01*
G02Y199997I32J194D01*
G03X125637Y200433I-161J987D01*
G03X125803Y200984I-834J551D01*
G01X125803Y204528D01*
G03X124803Y205528I-1000J0D01*
G01X121457D01*
G03X120457Y204528I0J-1000D01*
G01Y200984D01*
G03X120622Y200433I1000J0D01*
G03X121295Y199997I834J551D01*
G02X121295Y199609I-32J-194D01*
G03X120457Y198622I162J-987D01*
G01Y195079D01*
D02*
G37*
G36*
G01X120882Y171177D02*
G01X122161D01*
G01Y173425D01*
G03X121161Y174425I-1000J0D01*
G01X120882D01*
G01Y171177D01*
D02*
G37*
G36*
G01X158350Y191945D02*
G01X161205D01*
G01Y194405D01*
G01X159350D01*
G03X158350Y193405I0J-1000D01*
G01Y191945D01*
D02*
G37*
G36*
G01X163205D02*
G01X166059D01*
G01Y193405D01*
G03X165059Y194405I-1000J0D01*
G01X163205D01*
G01Y191945D01*
D02*
G37*
G36*
G01X202740Y202756D02*
G03X203740Y201756I1000J0D01*
G01X204610D01*
G01Y203724D01*
G01X202740D01*
G01Y202756D01*
D02*
G37*
G36*
G01Y205724D02*
G01X204610D01*
G01Y207693D01*
G01X203740D01*
G03X202740Y206693I0J-1000D01*
G01Y205724D01*
D02*
G37*
%LPD*%
G36*
G01X138779Y98425D02*
G02X138583Y98622I0J197D01*
G01Y112976D01*
G02X138779Y113173I197J0D01*
G01X139650D01*
G01Y119110D01*
G01X138779D01*
G02X138583Y119307I0J197D01*
G01Y120079D01*
G02X138812Y120273I197J0D01*
G03X138976Y120260I164J988D01*
G01X142323D01*
G03X142885Y120433I0J1000D01*
G03X143268Y120932I-563J827D01*
G02X143453Y121063I185J-66D01*
G01X146441D01*
G02X146638Y120866I0J-197D01*
G01Y117157D01*
G01X150886D01*
G01Y115157D01*
G01X152886D01*
G01Y108252D01*
G01X154134D01*
G03X155134Y109252I0J1000D01*
G01Y116929D01*
G02X155331Y117126I197J0D01*
G01X156102D01*
G02X156299Y116929I0J-197D01*
G01Y106512D01*
G02X156102Y106315I-197J0D01*
G01X155232D01*
G01Y100378D01*
G01X156102D01*
G02X156299Y100181I0J-197D01*
G01Y98622D01*
G02X156102Y98425I-197J0D01*
G01X138779D01*
D02*
G37*
%LPC*%
G36*
G01X141650Y113173D02*
G01X142520D01*
G03X143520Y114173I0J1000D01*
G01Y115142D01*
G01X141650D01*
G01Y113173D01*
D02*
G37*
G36*
G01Y117142D02*
G01X143520D01*
G01Y118110D01*
G03X142520Y119110I-1000J0D01*
G01X141650D01*
G01Y117142D01*
D02*
G37*
G36*
G01X146638Y109252D02*
G03X147638Y108252I1000J0D01*
G01X148886D01*
G01Y113157D01*
G01X146638D01*
G01Y109252D01*
D02*
G37*
G36*
G01X151362Y101378D02*
G03X152362Y100378I1000J0D01*
G01X153232D01*
G01Y102346D01*
G01X151362D01*
G01Y101378D01*
D02*
G37*
G36*
G01Y104346D02*
G01X153232D01*
G01Y106315D01*
G01X152362D01*
G03X151362Y105315I0J-1000D01*
G01Y104346D01*
D02*
G37*
%LPD*%
G36*
G01X142094Y174390D02*
G02X141951Y174579I54J189D01*
G01Y178921D01*
G02X142148Y179118I197J0D01*
G01X142520D01*
G03X143520Y180118I0J1000D01*
G01Y183858D01*
G03X142681Y184845I-1000J0D01*
G02Y185233I32J194D01*
G03X143239Y185525I-161J987D01*
G02X143564Y185453I140J-138D01*
G03X143894Y184933I1318J472D01*
G01X145991Y182837D01*
G02X146047Y182698I-140J-138D01*
G01X146047Y180315D01*
G03X146131Y179915I1000J-0D01*
G02X146147Y179836I-180J-79D01*
G01X146147Y179705D01*
G02X146091Y179567I-197J-0D01*
G01X144485Y177961D01*
G03X144072Y176969I987J-993D01*
G01Y174579D01*
G02X143929Y174390I-197J0D01*
G03X143206Y173586I264J-965D01*
G02X142818I-194J32D01*
G03X142094Y174390I-987J-161D01*
D02*
G37*
G36*
G01X147016D02*
G02X146872Y174579I54J189D01*
G01Y176307D01*
G02X146929Y176445I197J0D01*
G01X148534Y178050D01*
G03X148947Y179043I-987J993D01*
G01X148947Y179118D01*
G02X149144Y179315I197J0D01*
G01X150591D01*
G03X151591Y180315I0J1000D01*
G01Y183661D01*
G03X150591Y184661I-1000J0D01*
G01X148207D01*
G02X148069Y184718I0J197D01*
G01X147705Y185082D01*
G02X147845Y185417I140J138D01*
G01X150591D01*
G03X151590Y186400I0J1000D01*
G02X151787Y186592I197J-5D01*
G01X152583Y186592D01*
G02X152738Y186514I-2J-197D01*
G03X155061Y185539I1987J1478D01*
G02X155283Y185345I26J-195D01*
G01Y171293D01*
G03X155283Y171272I2370J1D01*
G03X155493Y170357I2197J21D01*
G02X155512Y170273I-178J-84D01*
G01Y168310D01*
G02X155493Y168227I-197J-0D01*
G03X155294Y167500I1987J-937D01*
G02X155100Y167323I-196J20D01*
G01X152870Y167323D01*
G02X152673Y167520I0J197D01*
G01Y169177D01*
G01X150394D01*
G01Y170177D01*
G01X149394D01*
G01Y174425D01*
G01X149114D01*
G03X148127Y173586I0J-1000D01*
G02X147739I-194J32D01*
G03X147016Y174390I-987J-161D01*
D02*
G37*
%LPC*%
G36*
G01X151394Y171177D02*
G01X152673D01*
G01Y173425D01*
G03X151673Y174425I-1000J0D01*
G01X151394D01*
G01Y171177D01*
D02*
G37*
%LPD*%
G36*
G01X151575Y122865D02*
G02X151378Y123062I0J197D01*
G01Y131693D01*
G02X151575Y131890I197J0D01*
G01X152150D01*
G02X152346Y131693I0J-197D01*
G01Y130823D01*
G01X158283D01*
G01Y131693D01*
G02X158480Y131890I197J0D01*
G01X159039D01*
G02X159236Y131693I0J-197D01*
G01Y130823D01*
G01X165173D01*
G01Y131693D01*
G02X165370Y131890I197J0D01*
G01X184938D01*
G02X185089Y131566I0J-197D01*
G03X190501Y131567I2706J-2275D01*
G02X190652Y131890I151J126D01*
G01X194488D01*
G02X194685Y131693I0J-197D01*
G01Y98622D01*
G02X194488Y98425I-197J0D01*
G01X159449D01*
G02X159252Y98622I0J197D01*
G01Y100181D01*
G02X159335Y100341I197J0D01*
G01Y106351D01*
G02X159252Y106512I114J160D01*
G01Y108055D01*
G02X159449Y108252I197J0D01*
G01X159713D01*
G01Y122063D01*
G01X159449D01*
G02X159252Y122260I0J197D01*
G01Y122865D01*
G01X151575D01*
D02*
G37*
%LPC*%
G36*
G01X152346Y127953D02*
G03X153346Y126953I1000J0D01*
G01X154315D01*
G01Y128823D01*
G01X152346D01*
G01Y127953D01*
D02*
G37*
G36*
G01X156315Y126953D02*
G01X157283D01*
G03X158283Y127953I0J1000D01*
G01Y128823D01*
G01X156315D01*
G01Y126953D01*
D02*
G37*
G36*
G01X159236Y127953D02*
G03X160236Y126953I1000J0D01*
G01X161205D01*
G01Y128823D01*
G01X159236D01*
G01Y127953D01*
D02*
G37*
G36*
G01X161335Y100378D02*
G01X162205D01*
G03X163205Y101378I0J1000D01*
G01Y102346D01*
G01X161335D01*
G01Y100378D01*
D02*
G37*
G36*
G01Y104346D02*
G01X163205D01*
G01Y105315D01*
G03X162205Y106315I-1000J0D01*
G01X161335D01*
G01Y104346D01*
D02*
G37*
G36*
G01X163205Y126953D02*
G01X164173D01*
G03X165173Y127953I0J1000D01*
G01Y128823D01*
G01X163205D01*
G01Y126953D01*
D02*
G37*
G36*
G01X163713Y108252D02*
G01X164961D01*
G03X165961Y109252I0J1000D01*
G01Y113157D01*
G01X163713D01*
G01Y108252D01*
D02*
G37*
G36*
G01Y117157D02*
G01X165961D01*
G01Y121063D01*
G03X164961Y122063I-1000J0D01*
G01X163713D01*
G01Y117157D01*
D02*
G37*
G36*
G01X176535Y111825D02*
G03Y110616I2402J-604D01*
G03Y111825I2402J604D01*
D02*
G37*
G36*
G01X184404Y118291D02*
G03X186795Y115900I3391J1000D01*
G01Y118291D01*
G01X184404D01*
D02*
G37*
G36*
G01Y120291D02*
G01X186795D01*
G01Y122682D01*
G03X184449Y120433I1000J-3391D01*
G03X184404Y120291I3365J-1148D01*
D02*
G37*
G36*
G01X188795Y115900D02*
G03X191186Y118291I-1000J3391D01*
G01X188795D01*
G01Y115900D01*
D02*
G37*
G36*
G01Y120291D02*
G01X191186D01*
G03X191141Y120433I-3369J-993D01*
G03X188795Y122682I-3346J-1142D01*
G01Y120291D01*
D02*
G37*
%LPD*%
G36*
G01X153543Y138795D02*
G02X153347Y138992I0J197D01*
G01Y151520D01*
G02X153543Y151716I197J0D01*
G01X207628D01*
G02X207824Y151520I0J-197D01*
G01Y135181D01*
G02X207628Y134984I-197J0D01*
G01X165370D01*
G02X165173Y135181I0J197D01*
G01Y137795D01*
G03X164173Y138795I-1000J0D01*
G01X163205D01*
G01Y135925D01*
G01X161205D01*
G01Y138795D01*
G01X160236D01*
G03X159236Y137795I0J-1000D01*
G01Y135181D01*
G02X159039Y134984I-197J0D01*
G01X158480D01*
G02X158283Y135181I0J197D01*
G01Y137795D01*
G03X157283Y138795I-1000J0D01*
G01X156315D01*
G01Y135925D01*
G01X154315D01*
G01Y138795D01*
G01X153543D01*
D02*
G37*
%LPC*%
G36*
G01X184404Y138291D02*
G03X186795Y135900I3391J1000D01*
G01Y138291D01*
G01X184404D01*
D02*
G37*
G36*
G01Y140291D02*
G01X186795D01*
G01Y142682D01*
G03X184404Y140291I1000J-3391D01*
D02*
G37*
G36*
G01X188795Y135900D02*
G03X191186Y138291I-1000J3391D01*
G01X188795D01*
G01Y135900D01*
D02*
G37*
G36*
G01Y140291D02*
G01X191186D01*
G03X188795Y142682I-3391J-1000D01*
G01Y140291D01*
D02*
G37*
%LPD*%
G36*
G01X157480Y164370D02*
G02X157283Y164567I0J197D01*
G01Y167289D01*
G02X157611Y167437I197J0D01*
G03X157610Y171145I1641J1854D01*
G02X157283Y171293I-130J148D01*
G01Y186811D01*
G02X157480Y187008I197J0D01*
G01X158158D01*
G02X158354Y186795I-0J-197D01*
G03X158350Y186713I1001J-82D01*
G01Y185252D01*
G01X166059D01*
G01Y186713D01*
G03X166056Y186796I-994J-0D01*
G02X166252Y187008I196J15D01*
G01X190945Y187008D01*
G01X190945Y190749D01*
G02X191142Y190945I197J-0D01*
G01X200197Y190945D01*
G01Y191142D01*
G01X200201Y191224D01*
G01X200205Y191307D01*
G01X200217Y191390D01*
G01X200232Y191469D01*
G01X200252Y191551D01*
G01X200275Y191630D01*
G01X200303Y191705D01*
G01X200335Y191783D01*
G01X200370Y191858D01*
G01X200409Y191929D01*
G01X200453Y192000D01*
G01X200496Y192067D01*
G01X200547Y192134D01*
G01X200602Y192197D01*
G01X200657Y192256D01*
G01X200716Y192311D01*
G01X200780Y192366D01*
G01X200846Y192417D01*
G01X200913Y192461D01*
G01X200984Y192504D01*
G01X201055Y192543D01*
G01X201130Y192579D01*
G01X201209Y192610D01*
G01X201283Y192638D01*
G01X201362Y192661D01*
G01X201445Y192681D01*
G01X201524Y192697D01*
G01X201606Y192709D01*
G01X201689Y192713D01*
G01X201772Y192717D01*
G01X210433D01*
G01Y188142D01*
G01X210020Y187957D01*
G01X209649Y187776D01*
G01X209287Y187579D01*
G01X208933Y187366D01*
G01X208587Y187142D01*
G01X208248Y186902D01*
G01X207921Y186650D01*
G01X207602Y186386D01*
G01X207295Y186110D01*
G01X207000Y185819D01*
G01X206716Y185520D01*
G01X206441Y185209D01*
G01X206181Y184890D01*
G01X205933Y184559D01*
G01X205697Y184216D01*
G01X205476Y183870D01*
G01X205272Y183512D01*
G01X205075Y183146D01*
G01X204898Y182776D01*
G01X204732Y182394D01*
G01X204583Y182008D01*
G01X204449Y181618D01*
G01X204331Y181224D01*
G01X204224Y180823D01*
G01X204138Y180417D01*
G01X204067Y180012D01*
G01X204008Y179602D01*
G01X203968Y179189D01*
G01X203945Y178779D01*
G01X203937Y178347D01*
G01X203945Y177913D01*
G01X203968Y177504D01*
G01X204008Y177091D01*
G01X204067Y176681D01*
G01X204138Y176276D01*
G01X204224Y175870D01*
G01X204331Y175469D01*
G01X204449Y175075D01*
G01X204583Y174685D01*
G01X204732Y174299D01*
G01X204898Y173917D01*
G01X205075Y173547D01*
G01X205272Y173181D01*
G01X205476Y172823D01*
G01X205697Y172476D01*
G01X205933Y172134D01*
G01X206181Y171803D01*
G01X206441Y171484D01*
G01X206716Y171173D01*
G01X207000Y170874D01*
G01X207295Y170583D01*
G01X207602Y170307D01*
G01X207921Y170043D01*
G01X208248Y169791D01*
G01X208587Y169551D01*
G01X208933Y169327D01*
G01X209287Y169114D01*
G01X209649Y168917D01*
G01X210020Y168736D01*
G01X210433Y168551D01*
G01Y163976D01*
G01X201772D01*
G01X201689Y163980D01*
G01X201606Y163984D01*
G01X201524Y163996D01*
G01X201445Y164012D01*
G01X201362Y164032D01*
G01X201283Y164055D01*
G01X201209Y164083D01*
G01X201130Y164114D01*
G01X201055Y164150D01*
G01X200984Y164189D01*
G01X200913Y164232D01*
G01X200846Y164276D01*
G01X200780Y164327D01*
G01X200730Y164370D01*
G01X157480D01*
D02*
G37*
%LPC*%
G36*
G01X158350Y181791D02*
G03X159350Y180791I1000J0D01*
G01X161205D01*
G01Y183252D01*
G01X158350D01*
G01Y181791D01*
D02*
G37*
G36*
G01X163205Y180791D02*
G01X165059D01*
G03X166059Y181791I0J1000D01*
G01Y183252D01*
G01X163205D01*
G01Y180791D01*
D02*
G37*
G36*
G01X168587Y169291D02*
G03X173539I2476J0D01*
G03X168587I-2476J0D01*
D02*
G37*
G36*
G01X184260D02*
G03X191331I3535J0D01*
G03X184260I-3535J0D01*
D02*
G37*
G36*
G01Y176756D02*
G03X185260Y175756I1000J0D01*
G01X186795D01*
G01Y178291D01*
G01X184260D01*
G01Y176756D01*
D02*
G37*
G36*
G01Y180291D02*
G01X186795D01*
G01Y182827D01*
G01X185260D01*
G03X184260Y181827I0J-1000D01*
G01Y180291D01*
D02*
G37*
G36*
G01X188795Y175756D02*
G01X190331D01*
G03X191331Y176756I0J1000D01*
G01Y178291D01*
G01X188795D01*
G01Y175756D01*
D02*
G37*
G36*
G01Y180291D02*
G01X191331D01*
G01Y181827D01*
G03X190331Y182827I-1000J0D01*
G01X188795D01*
G01Y180291D01*
D02*
G37*
G36*
G01X200083Y177347D02*
G03X200197Y176898I1000J16D01*
G01Y177347D01*
G01X200083D01*
D02*
G37*
G36*
G01X200083Y179347D02*
G01X200197D01*
G01Y179795D01*
G03X200083Y179347I886J-464D01*
D02*
G37*
%LPD*%
G36*
X218701Y163976D02*
Y168551D01*
X219114Y168736D01*
X219484Y168917D01*
X219846Y169114D01*
X220201Y169327D01*
X220547Y169551D01*
X220886Y169791D01*
X221213Y170043D01*
X221531Y170307D01*
X221838Y170583D01*
X222134Y170874D01*
X222417Y171173D01*
X222693Y171484D01*
X222953Y171803D01*
X223201Y172134D01*
X223437Y172476D01*
X223657Y172823D01*
X223862Y173181D01*
X224059Y173547D01*
X224236Y173917D01*
X224401Y174299D01*
X224551Y174685D01*
X224685Y175075D01*
X224803Y175469D01*
X224909Y175870D01*
X224996Y176276D01*
X225067Y176681D01*
X225126Y177091D01*
X225165Y177504D01*
X225189Y177913D01*
X225197Y178347D01*
X225189Y178779D01*
X225165Y179189D01*
X225126Y179602D01*
X225067Y180012D01*
X224996Y180417D01*
X224909Y180823D01*
X224803Y181224D01*
X224685Y181618D01*
X224551Y182008D01*
X224401Y182394D01*
X224236Y182776D01*
X224059Y183146D01*
X223862Y183512D01*
X223657Y183870D01*
X223437Y184216D01*
X223201Y184559D01*
X222953Y184890D01*
X222693Y185209D01*
X222417Y185520D01*
X222134Y185819D01*
X221838Y186110D01*
X221531Y186386D01*
X221213Y186650D01*
X220886Y186902D01*
X220547Y187142D01*
X220201Y187366D01*
X219846Y187579D01*
X219484Y187776D01*
X219114Y187957D01*
X218701Y188142D01*
Y192717D01*
X227362D01*
X227445Y192713D01*
X227527Y192709D01*
X227610Y192697D01*
X227689Y192681D01*
X227772Y192661D01*
X227850Y192638D01*
X227925Y192610D01*
X228004Y192579D01*
X228079Y192543D01*
X228150Y192504D01*
X228220Y192461D01*
X228287Y192417D01*
X228354Y192366D01*
X228417Y192311D01*
X228476Y192256D01*
X228531Y192197D01*
X228587Y192134D01*
X228638Y192067D01*
X228681Y192000D01*
X228724Y191929D01*
X228764Y191858D01*
X228799Y191783D01*
X228831Y191705D01*
X228858Y191630D01*
X228882Y191551D01*
X228902Y191469D01*
X228917Y191390D01*
X228929Y191307D01*
X228933Y191224D01*
X228937Y191142D01*
Y165551D01*
X228933Y165469D01*
X228929Y165386D01*
X228917Y165303D01*
X228902Y165224D01*
X228882Y165142D01*
X228858Y165063D01*
X228831Y164988D01*
X228799Y164909D01*
X228764Y164835D01*
X228724Y164764D01*
X228681Y164693D01*
X228638Y164626D01*
X228587Y164559D01*
X228531Y164496D01*
X228476Y164437D01*
X228417Y164382D01*
X228354Y164327D01*
X228287Y164276D01*
X228220Y164232D01*
X228150Y164189D01*
X228079Y164150D01*
X228004Y164114D01*
X227925Y164083D01*
X227850Y164055D01*
X227772Y164032D01*
X227689Y164012D01*
X227610Y163996D01*
X227527Y163984D01*
X227445Y163980D01*
X227362Y163976D01*
X218701D01*
D02*
G37*
G36*
G01X222047Y161782D02*
G02X222244Y161976I197J-2D01*
G01X227362Y161976D01*
G03X227457Y161979I-0J2008D01*
G01X227540Y161983D01*
G01X227623Y161986D01*
G03X227810Y162004I-96J2003D01*
G01X227893Y162016D01*
G03X228002Y162035I-285J1993D01*
G01X228081Y162051D01*
G03X228152Y162066I-397J1985D01*
G01X228235Y162086D01*
G03X228346Y162116I-462J1941D01*
G01X228425Y162139D01*
G03X228542Y162178I-576J1920D01*
G01X228617Y162206D01*
G03X228668Y162226I-707J1918D01*
G01X228747Y162257D01*
G03X228860Y162307I-743J1857D01*
G01X228935Y162342D01*
G03X229050Y162401I-858J1811D01*
G01X229121Y162441D01*
G03X229192Y162482I-974J1752D01*
G01X229263Y162526D01*
G03X229307Y162553I-1007J1649D01*
G01X229374Y162596D01*
G03X229502Y162687I-1088J1681D01*
G01X229569Y162738D01*
G03X229671Y162822I-1209J1581D01*
G01X229734Y162877D01*
G03X229782Y162920I-1327J1516D01*
G01X229804Y162940D01*
G02X229937Y162992I133J-145D01*
G01X232369D01*
G02X232538Y162893I-2J-197D01*
G03X234442Y161779I1911J1083D01*
G01X235319D01*
G02X235516Y161583I0J-197D01*
G01Y160449D01*
G01X243224D01*
G01Y161583D01*
G02X243421Y161779I197J0D01*
G01X243904D01*
G03X245809Y162893I-7J2197D01*
G02X245980Y162992I171J-97D01*
G01X246342D01*
G02X246539Y162795I0J-197D01*
G01Y162598D01*
G03X247539Y161598I1000J0D01*
G01X248108D01*
G02X248305Y161402I0J-197D01*
G01Y159646D01*
G03X248344Y159314I1401J0D01*
G02X248153Y159071I-191J-47D01*
G01X247949D01*
G01Y153527D01*
G01X248513D01*
G02X248654Y153193I0J-197D01*
G01X247699Y152238D01*
G02X247561Y152181I-138J140D01*
G01X245276D01*
G03X244276Y151181I0J-1000D01*
G01Y147638D01*
G03X245276Y146638I1000J0D01*
G01X248622D01*
G03X249280Y146885I0J1000D01*
G02X249606Y146736I129J-148D01*
G01Y144404D01*
G02X249476Y144218I-197J-0D01*
G03X248409Y142717I524J-1502D01*
G01Y141535D01*
G03X248890Y140396I1591J0D01*
G02X248891Y140116I-138J-140D01*
G03X248463Y139386I1109J-1140D01*
G01X251575D01*
G01Y137386D01*
G01X248282D01*
G02X248226Y137378I-56J189D01*
G01X248031D01*
G01Y111024D01*
G01X265748D01*
G01Y116271D01*
G02X265831Y116432I197J0D01*
G01Y124213D01*
G02X265748Y124374I114J160D01*
G01Y125129D01*
G02X265831Y125290I197J0D01*
G01Y133072D01*
G02X265748Y133232I114J160D01*
G01Y133889D01*
G02X265945Y134086I197J0D01*
G01X268406D01*
G03X269406Y135086I0J1000D01*
G01Y136055D01*
G01X266535D01*
G01Y138055D01*
G01X269406D01*
G01Y139023D01*
G03X268406Y140023I-1000J0D01*
G01X265945D01*
G02X265748Y140220I0J197D01*
G01Y159252D01*
G02X265945Y159449I197J0D01*
G01X283037D01*
G02X283185Y159382I0J-197D01*
G03X283398Y159169I1856J1643D01*
G02X283465Y159022I-131J-147D01*
G01Y156315D01*
G02X283268Y156118I-197J0D01*
G01X280740D01*
G01Y143095D01*
G01X283268D01*
G02X283465Y142898I0J-197D01*
G01Y137992D01*
G02X283268Y137795I-197J0D01*
G01X277559D01*
G01Y103347D01*
G02X277364Y103150I-197J0D01*
G01X260630Y103150D01*
G01Y88779D01*
G02X260630Y88774I-180J-0D01*
G02X260627Y88745I-195J5D01*
G03X260598Y88394I2171J-353D01*
G01Y70235D01*
G03X260628Y69885I2198J7D01*
G02X260630Y69857I-196J-30D01*
G01Y63182D01*
G02X260627Y63151I-196J-0D01*
G03X260598Y62795I2169J-356D01*
G01Y33202D01*
G03X260628Y32852I2198J7D01*
G02X260630Y32824I-196J-30D01*
G01Y4134D01*
G02X260434Y3937I-197J-0D01*
G01X257282Y3937D01*
G02X257087Y4134I1J197D01*
G01Y88583D01*
G01X256890D01*
G02X256750Y88642I0J197D01*
G01X256535Y88861D01*
G01X225683Y120433D01*
G01X222103Y124097D01*
G02X222047Y124234I141J137D01*
G01Y161782D01*
D02*
G37*
%LPC*%
G36*
G01X224772Y136302D02*
G03X225411Y134753I2197J0D01*
G01X235540Y124623D01*
G03X237089Y123984I1549J1558D01*
G01X242568D01*
G03X244764Y126181I0J2197D01*
G01Y132268D01*
G03X244446Y133407I-2197J-0D01*
G02X244427Y133568I169J100D01*
G03X244504Y134055I-1514J488D01*
G01X244504Y135236D01*
G03X244427Y135724I-1591J-0D01*
G02X244446Y135885I188J59D01*
G03X244764Y137024I-1878J1139D01*
G01X244764Y139748D01*
G03X244446Y140888I-2197J-0D01*
G02X244427Y141048I169J100D01*
G03X244504Y141535I-1514J488D01*
G01X244504Y142717D01*
G03X242913Y144307I-1591J0D01*
G01X239764D01*
G03X238463Y143632I-0J-1591D01*
G02X238106Y143747I-160J114D01*
G01Y146752D01*
G03X237777Y147493I-1000J-0D01*
G02X237778Y147783I134J144D01*
G03X238106Y148524I-672J741D01*
G01X238106Y149984D01*
G01X230398D01*
G01Y149047D01*
G02X230201Y148850I-197J0D01*
G01X226969D01*
G03X224772Y146654I-0J-2197D01*
G01Y136302D01*
D02*
G37*
G36*
G01X230398Y151984D02*
G01X233252D01*
G01Y154445D01*
G01X231398D01*
G03X230398Y153445I0J-1000D01*
G01Y151984D01*
D02*
G37*
G36*
G01X235252D02*
G01X238106D01*
G01Y153445D01*
G03X237106Y154445I-1000J0D01*
G01X235252D01*
G01Y151984D01*
D02*
G37*
G36*
G01X235516Y156988D02*
G03X236516Y155988I1000J0D01*
G01X238370D01*
G01Y158449D01*
G01X235516D01*
G01Y156988D01*
D02*
G37*
G36*
G01X240370Y155988D02*
G01X242224D01*
G03X243224Y156988I0J1000D01*
G01Y158449D01*
G01X240370D01*
G01Y155988D01*
D02*
G37*
G36*
G01X244276Y154527D02*
G03X245276Y153527I1000J0D01*
G01X245949D01*
G01Y155299D01*
G01X244276D01*
G01Y154527D01*
D02*
G37*
G36*
G01Y157299D02*
G01X245949D01*
G01Y159071D01*
G01X245276D01*
G03X244276Y158071I0J-1000D01*
G01Y157299D01*
D02*
G37*
G36*
G01X267831Y116468D02*
G01X269291D01*
G03X270291Y117468I0J1000D01*
G01Y119323D01*
G01X267831D01*
G01Y116468D01*
D02*
G37*
G36*
G01Y121323D02*
G01X270291D01*
G01Y123177D01*
G03X269291Y124177I-1000J0D01*
G01X267831D01*
G01Y121323D01*
D02*
G37*
G36*
G01Y125326D02*
G01X269291D01*
G03X270291Y126326I0J1000D01*
G01Y128181D01*
G01X267831D01*
G01Y125326D01*
D02*
G37*
G36*
G01Y130181D02*
G01X270291D01*
G01Y132035D01*
G03X269291Y133035I-1000J0D01*
G01X267831D01*
G01Y130181D01*
D02*
G37*
G36*
G01X273016Y144095D02*
G03X274016Y143095I1000J0D01*
G01X276740D01*
G01Y147606D01*
G01X273016D01*
G01Y144095D01*
D02*
G37*
G36*
G01Y151606D02*
G01X276740D01*
G01Y156118D01*
G01X274016D01*
G03X273016Y155118I0J-1000D01*
G01Y151606D01*
D02*
G37*
%LPD*%
G36*
G01X226828Y136164D02*
G02X226772Y136302I140J138D01*
G01Y146653D01*
G02X226969Y146850I197J0D01*
G01X230201D01*
G02X230398Y146653I0J-197D01*
G01Y145291D01*
G01X234252D01*
G01Y144291D01*
G01X235252D01*
G01Y140831D01*
G01X237106D01*
G03X237883Y141201I0J1000D01*
G02X238226Y141128I153J-124D01*
G03X239764Y139945I1537J408D01*
G01X242568D01*
G02X242764Y139748I0J-197D01*
G01Y137024D01*
G02X242568Y136827I-197J0D01*
G01X242339D01*
G01Y132465D01*
G01X242568D01*
G02X242764Y132268I0J-197D01*
G01Y126181D01*
G02X242568Y125984I-197J0D01*
G01X237089D01*
G02X236951Y126041I0J197D01*
G01X226828Y136164D01*
D02*
G37*
%LPC*%
G36*
G01X230398Y141831D02*
G03X231398Y140831I1000J0D01*
G01X233252D01*
G01Y143291D01*
G01X230398D01*
G01Y141831D01*
D02*
G37*
G36*
G01X238227Y133646D02*
G03X239764Y132465I1537J409D01*
G01X240339D01*
G01Y133646D01*
G01X238227D01*
D02*
G37*
G36*
G01X238227Y135646D02*
G01X240339D01*
G01Y136827D01*
G01X239764D01*
G03X238227Y135646I0J-1591D01*
D02*
G37*
%LPD*%
G36*
G01X234449Y163779D02*
G02X234252Y163976I0J197D01*
G01Y190748D01*
G02X234449Y190945I197J0D01*
G01X243898D01*
G02X244094Y190748I0J-197D01*
G01Y163976D01*
G02X243898Y163779I-197J0D01*
G01X243421D01*
G02X243224Y163976I0J197D01*
G01Y165142D01*
G01X235516D01*
G01Y163976D01*
G02X235319Y163779I-197J0D01*
G01X234449D01*
D02*
G37*
%LPC*%
G36*
G01X235516Y167142D02*
G01X238370D01*
G01Y169602D01*
G01X236516D01*
G03X235516Y168602I0J-1000D01*
G01Y167142D01*
D02*
G37*
G36*
G01X240370D02*
G01X243224D01*
G01Y168602D01*
G03X242224Y169602I-1000J0D01*
G01X240370D01*
G01Y167142D01*
D02*
G37*
%LPD*%
G36*
G01X238386Y200705D02*
G02X238189Y200902I0J197D01*
G01Y216339D01*
G02X238386Y216535I197J0D01*
G01X241815D01*
G02X242012Y216339I0J-197D01*
G01Y212630D01*
G01X251020D01*
G01Y216339D01*
G02X251217Y216535I197J0D01*
G01X255709D01*
G02X255906Y216339I0J-197D01*
G01Y201575D01*
G01X263664D01*
G02X263860Y201378I0J-197D01*
G01Y200803D01*
G02X263664Y200606I-197J0D01*
G01X263205D01*
G01Y193882D01*
G01X263664D01*
G02X263860Y193685I0J-197D01*
G01Y185630D01*
G03X264147Y184544I2197J0D01*
G02X264173Y184447I-171J-97D01*
G01X264173Y183858D01*
G01X264695D01*
G02X264807Y183823I0J-197D01*
G03X266051Y183433I1250J1807D01*
G01X277589D01*
G02X277783Y183236I-2J-197D01*
G01X277727Y177769D01*
G02X277532Y177575I-197J3D01*
G01X275803D01*
G01Y166520D01*
G01X277415D01*
G02X277609Y166322I-2J-197D01*
G01X277571Y162617D01*
G02X277377Y162424I-197J4D01*
G01X260039Y162424D01*
G02X259842Y162620I0J197D01*
G01Y167579D01*
G02X260065Y167772I197J-2D01*
G03X260065Y172679I337J2453D01*
G02X259842Y172874I-26J195D01*
G01Y173228D01*
G01X246291D01*
G02X246094Y173425I0J197D01*
G01Y190748D01*
G03X246065Y191104I-2195J0D01*
G02X246063Y191135I195J31D01*
G01Y192838D01*
G02X246210Y193027I197J-2D01*
G03X246965Y193996I-246J969D01*
G01X246965Y195850D01*
G01X243504D01*
G01Y196850D01*
G01X242504D01*
G01Y200705D01*
G01X241043D01*
G03X240358Y200433I-0J-1000D01*
G03X240303Y200377I686J-729D01*
G02X240013Y200376I-145J133D01*
G03X239957Y200433I-741J-670D01*
G03X239272Y200705I-685J-728D01*
G01X238386D01*
D02*
G37*
%LPC*%
G36*
G01X242012Y203740D02*
G03X243012Y202740I1000J0D01*
G01X244516D01*
G01Y208630D01*
G01X242012D01*
G01Y203740D01*
D02*
G37*
G36*
G01X244504Y197850D02*
G01X246965D01*
G01Y199705D01*
G03X246650Y200433I-1000J0D01*
G03X245965Y200705I-685J-728D01*
G01X244504D01*
G01Y197850D01*
D02*
G37*
G36*
G01X248516Y202740D02*
G01X250020D01*
G03X251020Y203740I0J1000D01*
G01Y208630D01*
G01X248516D01*
G01Y202740D01*
D02*
G37*
G36*
G01X259630Y194882D02*
G03X260630Y193882I1000J0D01*
G01X261205D01*
G01Y196244D01*
G01X259630D01*
G01Y194882D01*
D02*
G37*
G36*
G01Y198244D02*
G01X261205D01*
G01Y200606D01*
G01X260630D01*
G03X260067Y200433I0J-1000D01*
G03X259630Y199606I563J-827D01*
G01Y198244D01*
D02*
G37*
G36*
G01X270260Y167520D02*
G03X271260Y166520I1000J0D01*
G01X273803D01*
G01Y171047D01*
G01X270260D01*
G01Y167520D01*
D02*
G37*
G36*
G01Y173047D02*
G01X273803D01*
G01Y177575D01*
G01X271260D01*
G03X270260Y176575I0J-1000D01*
G01Y173047D01*
D02*
G37*
%LPD*%
G36*
G01X250228Y113024D02*
G02X250031Y113221I-0J197D01*
G01Y132268D01*
G02X250228Y132465I197J0D01*
G01X250575D01*
G01Y134646D01*
G01X252575D01*
G01Y132465D01*
G01X253150D01*
G03X254740Y134055I0J1591D01*
G01Y135236D01*
G03X254701Y135587I-1591J-0D01*
G02X254893Y135827I192J43D01*
G01X255906Y135827D01*
G01Y159252D01*
G02X256102Y159449I197J0D01*
G01X263551D01*
G02X263748Y159252I0J-197D01*
G01Y140214D01*
G03X263777Y139865I2198J7D01*
G02X263779Y139833I-191J-32D01*
G01X263779Y139533D01*
G02X263761Y139450I-197J-0D01*
G03X263678Y139184I905J-427D01*
G02X263290I-194J32D01*
G03X262303Y140023I-987J-161D01*
G01X261433D01*
G01Y134086D01*
G01X262303D01*
G03X263290Y134924I0J1000D01*
G02X263679I194J-32D01*
G03X263761Y134660I987J162D01*
G02X263779Y134576I-178J-84D01*
G01Y134276D01*
G02X263777Y134245I-196J-0D01*
G03X263748Y133889I2168J-356D01*
G01Y133232D01*
G03X263766Y132950I2198J-0D01*
G02X263703Y132780I-195J-25D01*
G03X263629Y132707I668J-746D01*
G02X263340Y132706I-145J133D01*
G03X262598Y133035I-741J-671D01*
G01X261138Y133035D01*
G01Y125326D01*
G01X262598D01*
G03X263339Y125655I0J1000D01*
G02X263630Y125654I145J-133D01*
G03X263703Y125581I743J676D01*
G02X263766Y125411I-132J-146D01*
G03X263748Y125129I2180J-282D01*
G01Y124374D01*
G03X263766Y124092I2198J-0D01*
G02X263703Y123922I-195J-25D01*
G03X263629Y123849I668J-746D01*
G02X263340Y123848I-145J133D01*
G03X262598Y124177I-741J-671D01*
G01X261138Y124177D01*
G01Y116468D01*
G01X262598D01*
G03X263339Y116796I0J1000D01*
G02X263630Y116796I145J-133D01*
G03X263703Y116723I743J676D01*
G02X263766Y116553I-132J-146D01*
G03X263748Y116271I2180J-282D01*
G01Y113221D01*
G02X263551Y113024I-197J0D01*
G01X250228D01*
D02*
G37*
%LPC*%
G36*
G01X256677Y117468D02*
G03X257677Y116468I1000J0D01*
G01X259138D01*
G01Y119323D01*
G01X256677D01*
G01Y117468D01*
D02*
G37*
G36*
G01Y121323D02*
G01X259138D01*
G01Y124177D01*
G01X257677D01*
G03X256677Y123177I0J-1000D01*
G01Y121323D01*
D02*
G37*
G36*
G01Y126326D02*
G03X257677Y125326I1000J0D01*
G01X259138D01*
G01Y128181D01*
G01X256677D01*
G01Y126326D01*
D02*
G37*
G36*
G01Y130181D02*
G01X259138D01*
G01Y133035D01*
G01X257677D01*
G03X256677Y132035I0J-1000D01*
G01Y130181D01*
D02*
G37*
G36*
G01X257563Y135086D02*
G03X258563Y134086I1000J0D01*
G01X259433D01*
G01Y136055D01*
G01X257563D01*
G01Y135086D01*
D02*
G37*
G36*
G01Y138055D02*
G01X259433D01*
G01Y140023D01*
G01X258563D01*
G03X257563Y139023I0J-1000D01*
G01Y138055D01*
D02*
G37*
%LPD*%
G36*
G01X262795Y33012D02*
G02X262598Y33209I0J197D01*
G01Y62795D01*
G02X262795Y62992I197J0D01*
G01X293504D01*
G02X293701Y62795I0J-197D01*
G01Y47326D01*
G02X293644Y47188I-197J0D01*
G01X290146Y43690D01*
G01X290130Y42031D01*
G02X289910Y41837I-197J2D01*
G03X289779Y41846I-150J-1186D01*
G01Y35910D01*
G03X289858Y35913I-20J1209D01*
G02X290071Y35715I16J-196D01*
G01X290047Y33207D01*
G02X289850Y33012I-197J2D01*
G01X262795D01*
D02*
G37*
%LPC*%
G36*
G01X265634Y50172D02*
G03X267790Y48016I2156J0D01*
G01X275059D01*
G01Y51142D01*
G01X265634D01*
G01Y50172D01*
D02*
G37*
G36*
G01Y56142D02*
G01X275059D01*
G01Y59268D01*
G01X267790D01*
G03X265634Y57111I0J-2156D01*
G01Y56142D01*
D02*
G37*
G36*
G01X280059Y48016D02*
G01X287328D01*
G03X289484Y50172I0J2156D01*
G01Y51142D01*
G01X280059D01*
G01Y48016D01*
D02*
G37*
G36*
G01Y56142D02*
G01X289484D01*
G01Y57111D01*
G03X287328Y59268I-2156J0D01*
G01X280059D01*
G01Y56142D01*
D02*
G37*
G36*
G01X286598Y37110D02*
G03X287779Y35910I1201J0D01*
G01Y37878D01*
G01X286598D01*
G01Y37110D01*
D02*
G37*
G36*
G01Y39878D02*
G01X287779D01*
G01Y41846D01*
G03X286598Y40646I20J-1201D01*
G01Y39878D01*
D02*
G37*
%LPD*%
G36*
G01X262795Y70045D02*
G02X262598Y70242I0J197D01*
G01Y88393D01*
G02X262601Y88424I198J-0D01*
G03X262630Y88779I-2167J355D01*
G01X262630Y100955D01*
G02X262825Y101150I197J-2D01*
G01X277369Y101150D01*
G03X278612Y101540I-7J2197D01*
G02X278724Y101575I112J-162D01*
G01X286811D01*
G02X287008Y101378I0J-197D01*
G01Y94882D01*
G01X292068Y89821D01*
G02X292126Y89682I-139J-139D01*
G01X292126Y70242D01*
G02X291929Y70045I-197J0D01*
G01X262795D01*
D02*
G37*
%LPC*%
G36*
G01X265634Y76747D02*
G03X267790Y74590I2156J0D01*
G01X275059D01*
G01Y77716D01*
G01X265634D01*
G01Y76747D01*
D02*
G37*
G36*
G01Y82717D02*
G01X275059D01*
G01Y85843D01*
G01X267790D01*
G03X265634Y83686I0J-2156D01*
G01Y82717D01*
D02*
G37*
G36*
G01X280059Y74590D02*
G01X287328D01*
G03X289484Y76747I0J2156D01*
G01Y77716D01*
G01X280059D01*
G01Y74590D01*
D02*
G37*
G36*
G01Y82717D02*
G01X289484D01*
G01Y83686D01*
G03X287328Y85843I-2156J0D01*
G01X280059D01*
G01Y82717D01*
D02*
G37*
%LPD*%
G36*
G01X263189Y13780D02*
G02X262992Y13976I-0J197D01*
G01Y29331D01*
G02X263189Y29528I197J0D01*
G01X286402D01*
G02X286598Y29331I0J-197D01*
G01Y29051D01*
G01X288779D01*
G01Y28051D01*
G01X289779D01*
G01Y25083D01*
G03X289839Y25085I-20J1203D01*
G02X290047Y24891I12J-197D01*
G01Y23414D01*
G02X290043Y23375I-196J-0D01*
G03X290043Y22393I2427J-491D01*
G02X290047Y22354I-191J-39D01*
G01X290047Y20655D01*
G02X289966Y20496I-197J-0D01*
G03X289564Y19846I586J-811D01*
G02X289176I-194J32D01*
G03X288189Y20685I-987J-161D01*
G01X287319D01*
G01Y14748D01*
G01X288189D01*
G03X289176Y15586I0J1000D01*
G02X289564I194J-32D01*
G03X289966Y14938I987J162D01*
G02X290047Y14778I-115J-160D01*
G01Y13976D01*
G02X289850Y13780I-197J0D01*
G01X263189D01*
D02*
G37*
%LPC*%
G36*
G01X283449Y15748D02*
G03X284449Y14748I1000J0D01*
G01X285319D01*
G01Y16716D01*
G01X283449D01*
G01Y15748D01*
D02*
G37*
G36*
G01Y18717D02*
G01X285319D01*
G01Y20685D01*
G01X284449D01*
G03X283449Y19685I0J-1000D01*
G01Y18717D01*
D02*
G37*
G36*
G01X286598Y26283D02*
G03X287779Y25083I1201J0D01*
G01Y27051D01*
G01X286598D01*
G01Y26283D01*
D02*
G37*
%LPD*%
G36*
G01X266057Y185433D02*
G02X265860Y185630I0J197D01*
G01Y204134D01*
G02X266057Y204331I197J0D01*
G01X281518D01*
G02X281715Y204134I0J-197D01*
G01Y203756D01*
G02X281518Y203559I-197J0D01*
G01X277756D01*
G03X276756Y202559I0J-1000D01*
G01Y201213D01*
G01X288598D01*
G01Y202559D01*
G03X287598Y203559I-1000J0D01*
G01X285411D01*
G02X285215Y203756I0J197D01*
G01Y204129D01*
G02X285271Y204267I197J0D01*
G01X285278Y204274D01*
G02X285416Y204331I138J-140D01*
G01X291535D01*
G02X291732Y204134I0J-197D01*
G01Y194095D01*
G01X307677D01*
G02X307874Y193898I0J-197D01*
G01Y156315D01*
G02X307677Y156118I-197J0D01*
G01X305937D01*
G01Y143095D01*
G01X307677D01*
G02X307874Y142898I0J-197D01*
G01Y124606D01*
G02X307677Y124409I-197J0D01*
G01X289679D01*
G02X289482Y124606I0J197D01*
G01Y127347D01*
G02X289679Y127543I197J0D01*
G01X290354D01*
G03X291354Y128543I0J1000D01*
G01Y135236D01*
G03X290354Y136236I-1000J0D01*
G01X289679D01*
G02X289482Y136433I0J197D01*
G01Y177447D01*
G01X280315Y185433D01*
G01X266057D01*
D02*
G37*
%LPC*%
G36*
G01X266717Y194882D02*
G03X267717Y193882I1000J0D01*
G01X268291D01*
G01Y196244D01*
G01X266717D01*
G01Y194882D01*
D02*
G37*
G36*
G01Y198244D02*
G01X268291D01*
G01Y200606D01*
G01X267717D01*
G03X267154Y200433I0J-1000D01*
G03X266717Y199606I563J-827D01*
G01Y198244D01*
D02*
G37*
G36*
G01X270291Y193882D02*
G01X270866D01*
G03X271866Y194882I0J1000D01*
G01Y196244D01*
G01X270291D01*
G01Y193882D01*
D02*
G37*
G36*
G01Y198244D02*
G01X271866D01*
G01Y199606D01*
G03X270866Y200606I-1000J0D01*
G01X270291D01*
G01Y198244D01*
D02*
G37*
G36*
G01X276756Y195866D02*
G03X277756Y194866I1000J0D01*
G01X280677D01*
G01Y197213D01*
G01X276756D01*
G01Y195866D01*
D02*
G37*
G36*
G01X284677Y194866D02*
G01X287598D01*
G03X288598Y195866I0J1000D01*
G01Y197213D01*
G01X284677D01*
G01Y194866D01*
D02*
G37*
G36*
G01X290339Y171047D02*
G03X293882Y166631I4543J16D01*
G01Y171047D01*
G01X290339D01*
D02*
G37*
G36*
G01Y173047D02*
G01X293882D01*
G01Y177463D01*
G03X290339Y173047I1000J-4432D01*
D02*
G37*
G36*
G01X295260Y128543D02*
G03X296260Y127543I1000J0D01*
G01X299181D01*
G01Y129890D01*
G01X295260D01*
G01Y128543D01*
D02*
G37*
G36*
G01Y133890D02*
G01X299181D01*
G01Y136236D01*
G01X296260D01*
G03X295260Y135236I0J-1000D01*
G01Y133890D01*
D02*
G37*
G36*
G01X295882Y166631D02*
G03X296535Y166831I-1001J4434D01*
G03X299425Y171047I-1654J4232D01*
G01X295882D01*
G01Y166631D01*
D02*
G37*
G36*
G01Y173047D02*
G01X299425D01*
G03X296535Y177263I-4543J-16D01*
G03X295882Y177463I-1653J-4231D01*
G01Y173047D01*
D02*
G37*
G36*
G01X298213Y144095D02*
G03X299213Y143095I1000J0D01*
G01X301937D01*
G01Y147606D01*
G01X298213D01*
G01Y144095D01*
D02*
G37*
G36*
G01Y151606D02*
G01X301937D01*
G01Y156118D01*
G01X299213D01*
G03X298213Y155118I0J-1000D01*
G01Y151606D01*
D02*
G37*
G36*
G01X303181Y127543D02*
G01X306102D01*
G03X307102Y128543I0J1000D01*
G01Y129890D01*
G01X303181D01*
G01Y127543D01*
D02*
G37*
G36*
G01Y133890D02*
G01X307102D01*
G01Y135236D01*
G03X306102Y136236I-1000J0D01*
G01X303181D01*
G01Y133890D01*
D02*
G37*
%LPD*%
G36*
G01X293757Y98369D02*
G02X293701Y98507I140J138D01*
G01Y122213D01*
G02X293898Y122409I197J0D01*
G01X307677D01*
G03X308033Y122438I-0J2198D01*
G02X308064Y122441I31J-193D01*
G01X311940Y122441D01*
G02X312135Y122244I-2J-197D01*
G01X312135Y93903D01*
G02X311941Y93708I-197J2D01*
G01X298529Y93678D01*
G02X298391Y93735I0J197D01*
G01X296535Y95591D01*
G01X293757Y98369D01*
D02*
G37*
%LPC*%
G36*
G01X301067Y105315D02*
G03X302067Y104315I1000J0D01*
G01X303571D01*
G01Y110205D01*
G01X301067D01*
G01Y105315D01*
D02*
G37*
G36*
G01Y114205D02*
G01X303571D01*
G01Y120095D01*
G01X302067D01*
G03X301067Y119095I0J-1000D01*
G01Y114205D01*
D02*
G37*
G36*
G01X307571Y104315D02*
G01X309075D01*
G03X310075Y105315I0J1000D01*
G01Y110205D01*
G01X307571D01*
G01Y104315D01*
D02*
G37*
G36*
G01Y114205D02*
G01X310075D01*
G01Y119095D01*
G03X309075Y120095I-1000J0D01*
G01X307571D01*
G01Y114205D01*
D02*
G37*
%LPD*%
G36*
G01X307563Y196095D02*
G02X307366Y196291I0J197D01*
G01Y204797D01*
G02X307518Y204989I197J0D01*
G03X308359Y205457I-399J1704D01*
G01X309932Y207030D01*
G02X310070Y207087I138J-140D01*
G01X315158D01*
G02X315354Y206890I0J-197D01*
G01Y189567D01*
G02X315158Y189370I-197J0D01*
G01X310071D01*
G02X309874Y189567I0J197D01*
G01Y193898D01*
G03X307677Y196095I-2197J0D01*
G01X307563Y196095D01*
D02*
G37*
G36*
G01X315156Y3937D02*
G02X314961Y4134I1J197D01*
G01Y47047D01*
G02X315158Y47244I197J0D01*
G01X342323D01*
G02X342520Y47047I0J-197D01*
G01Y40938D01*
G02X342483Y40823I-197J-0D01*
G03X342252Y40433I2005J-1453D01*
G03X342482Y37918I2237J-1063D01*
G02X342520Y37802I-159J-115D01*
G01X342520Y31547D01*
G02X342373Y31357I-197J0D01*
G03X341618Y30387I245J-970D01*
G01Y29633D01*
G02X341302Y29476I-197J0D01*
G03X340370Y29972I-1932J-2507D01*
G01Y24803D01*
G01X339370D01*
G01Y23803D01*
G01X336205D01*
G01Y22638D01*
G03X336535Y21229I3165J0D01*
G03X338897Y19508I2834J1409D01*
G02X338868Y19117I-29J-195D01*
G01X329992D01*
G02X329854Y19173I0J197D01*
G01X327238Y21789D01*
G02X327181Y21928I140J138D01*
G01Y24213D01*
G03X326181Y25213I-1000J0D01*
G01X322638D01*
G03X321638Y24213I0J-1000D01*
G01Y20866D01*
G03X322638Y19866I1000J0D01*
G01X325120D01*
G02X325258Y19809I-0J-197D01*
G01X328338Y16729D01*
G03X329331Y16317I993J987D01*
G01X347638D01*
G03X348630Y16729I-0J1400D01*
G01X352464Y20562D01*
G03X352876Y21555I-987J993D01*
G01X352876Y22466D01*
G02X353211Y22606I197J0D01*
G01X353331Y22487D01*
G03X354385Y22049I1053J1049D01*
G01X356318D01*
G03X357371Y22487I-0J1487D01*
G01X358334Y23450D01*
G03X358723Y24125I-1049J1053D01*
G02X358913Y24270I190J-52D01*
G01X359941D01*
G03X360270Y24326I-0J1000D01*
G02X360397I63J-186D01*
G03X360727Y24270I329J944D01*
G01X361690D01*
G02X361887Y24073I0J-197D01*
G01Y20571D01*
G03X362300Y19579I1400J0D01*
G01X364755Y17123D01*
G03X365748Y16710I993J987D01*
G01X385563D01*
G03X386555Y17123I-0J1400D01*
G01X388852Y19419D01*
G02X388990Y19476I138J-140D01*
G01X391472D01*
G03X392472Y20476I0J1000D01*
G01Y23822D01*
G03X391472Y24822I-1000J0D01*
G01X387928D01*
G03X386928Y23822I0J-1000D01*
G01Y21537D01*
G02X386872Y21399I-197J-0D01*
G01X385040Y19567D01*
G02X384902Y19510I-138J140D01*
G01X375072D01*
G02X374975Y19878I0J197D01*
G03X376535Y22052I-1550J2760D01*
G03X376590Y22638I-3110J586D01*
G01X376590Y23803D01*
G01X373425D01*
G01Y24803D01*
G01X372425D01*
G01Y29972D01*
G03X371493Y29476I1000J-3003D01*
G02X371177Y29633I-119J157D01*
G01Y30388D01*
G03X370258Y31385I-1000J-0D01*
G02X370079Y31581I18J196D01*
G01Y44448D01*
G02X370417Y44585I197J0D01*
G03X371135Y44281I718J696D01*
G01X371907D01*
G01Y46954D01*
G01X373907D01*
G01Y44281D01*
G01X374678D01*
G03X375546Y44784I0J1000D01*
G02X375901Y44751I170J-100D01*
G03X376535Y44133I943J333D01*
G03X376844Y44084I308J951D01*
G01X377812D01*
G01Y46954D01*
G01X379812D01*
G01Y44084D01*
G01X380781D01*
G03X381612Y44528I0J1000D01*
G02X381972Y44418I164J-109D01*
G01Y43406D01*
G03X382972Y42406I1000J0D01*
G01X384827D01*
G01Y45866D01*
G01X385827D01*
G01Y46866D01*
G01X389681D01*
G01Y48327D01*
G03X389649Y48579I-1000J-0D01*
G02X389840Y48824I191J49D01*
G01X397441D01*
G02X397638Y48627I0J-197D01*
G01Y4134D01*
G02X397442Y3937I-197J-0D01*
G01X375508D01*
G02X375386Y4288I1J197D01*
G03X376535Y6186I-1962J2484D01*
G03X376590Y6772I-3110J586D01*
G01X376590Y7347D01*
G01X370259D01*
G01Y6772D01*
G03X371463Y4288I3165J0D01*
G02X371341Y3937I-122J-155D01*
G01X341453D01*
G02X341332Y4288I1J197D01*
G03X342535Y6772I-1962J2484D01*
G01X342535Y7347D01*
G01X336205D01*
G01Y6772D01*
G03X336535Y5363I3165J0D01*
G03X337408Y4288I2835J1409D01*
G02X337287Y3937I-122J-155D01*
G01X315156D01*
D02*
G37*
%LPC*%
G36*
G01X321638Y26969D02*
G03X322638Y25969I1000J0D01*
G01X323410D01*
G01Y27642D01*
G01X321638D01*
G01Y26969D01*
D02*
G37*
G36*
G01Y29642D02*
G01X323410D01*
G01Y31315D01*
G01X322638D01*
G03X321638Y30315I0J-1000D01*
G01Y29642D01*
D02*
G37*
G36*
G01X325410Y25969D02*
G01X326181D01*
G03X327181Y26969I0J1000D01*
G01Y27642D01*
G01X325410D01*
G01Y25969D01*
D02*
G37*
G36*
G01Y29642D02*
G01X327181D01*
G01Y30315D01*
G03X326181Y31315I-1000J0D01*
G01X325410D01*
G01Y29642D01*
D02*
G37*
G36*
G01X336205Y9347D02*
G01X338370D01*
G01Y12925D01*
G03X336535Y11331I1000J-3003D01*
G03X336205Y9922I2834J-1409D01*
G01Y9347D01*
D02*
G37*
G36*
G01Y25803D02*
G01X338370D01*
G01Y29972D01*
G03X336535Y28378I1000J-3003D01*
G03X336205Y26969I2834J-1409D01*
G01Y25803D01*
D02*
G37*
G36*
G01X340370Y9347D02*
G01X342535D01*
G01Y9922D01*
G03X340370Y12925I-3165J-0D01*
G01Y9347D01*
D02*
G37*
G36*
G01X370259D02*
G01X372425D01*
G01Y12925D01*
G03X370259Y9922I1000J-3003D01*
G01Y9347D01*
D02*
G37*
G36*
G01X374425D02*
G01X376590D01*
G01Y9922D01*
G03X376535Y10507I-3165J-0D01*
G03X374425Y12925I-3111J-586D01*
G01Y9347D01*
D02*
G37*
G36*
G01Y25803D02*
G01X376590D01*
G01Y26969D01*
G03X376535Y27554I-3165J-0D01*
G03X374425Y29972I-3111J-586D01*
G01Y25803D01*
D02*
G37*
G36*
G01X386827Y42406D02*
G01X388681D01*
G03X389681Y43406I0J1000D01*
G01Y44866D01*
G01X386827D01*
G01Y42406D01*
D02*
G37*
G36*
G01X386928Y26578D02*
G03X387928Y25578I1000J0D01*
G01X388700D01*
G01Y27251D01*
G01X386928D01*
G01Y26578D01*
D02*
G37*
G36*
G01Y29251D02*
G01X388700D01*
G01Y30924D01*
G01X387928D01*
G03X386928Y29924I0J-1000D01*
G01Y29251D01*
D02*
G37*
G36*
G01X390700Y25578D02*
G01X391472D01*
G03X392472Y26578I0J1000D01*
G01Y27251D01*
G01X390700D01*
G01Y25578D01*
D02*
G37*
G36*
G01Y29251D02*
G01X392472D01*
G01Y29924D01*
G03X391472Y30924I-1000J0D01*
G01X390700D01*
G01Y29251D01*
D02*
G37*
%LPD*%
D17*
X333071Y197244D02*
Y202461D01*
X374016Y35175D02*
Y35433D01*
X368996Y30155D02*
X374016Y35175D01*
X333930Y65655D02*
Y70478D01*
X354326Y47218D02*
X354328Y47221D01*
X338583Y35175D02*
Y35433D01*
X368996Y27829D02*
Y30155D01*
X338583Y35175D02*
X343799Y29959D01*
Y27829D02*
Y29959D01*
X230315Y196850D02*
X236811D01*
X299213Y54232D02*
Y59055D01*
X306201Y17717D02*
Y22539D01*
X292463Y12699D02*
Y17522D01*
X386024Y52756D02*
X393307D01*
X379310Y52559D02*
X385827D01*
X306299Y54232D02*
Y59055D01*
X364355Y34550D02*
Y37219D01*
X365847Y27829D02*
Y33058D01*
X364355Y34550D02*
X365847Y33058D01*
X364173Y37402D02*
X364355Y37219D01*
X344671Y35251D02*
X346949Y32973D01*
Y27828D02*
Y32973D01*
X344671Y35251D02*
Y39188D01*
X344488Y39370D02*
X344671Y39188D01*
X282776Y38878D02*
X288779D01*
X251575Y134646D02*
X255512D01*
X289764Y223228D02*
X301969D01*
X76984Y87811D02*
Y91847D01*
X71063Y81890D02*
X76984Y87811D01*
Y91847D02*
X77658Y92520D01*
X83760D02*
X90551D01*
X366965Y41768D02*
Y46918D01*
X367001Y46954D01*
X366929Y41732D02*
X366965Y41768D01*
X71063Y39370D02*
Y81890D01*
D24*
X361417Y188091D02*
D03*
Y185531D02*
D03*
Y182973D02*
D03*
Y180413D02*
D03*
X344094D02*
D03*
Y182973D02*
D03*
Y185531D02*
D03*
Y188091D02*
D03*
D25*
X402559Y280413D02*
D03*
X378740Y202461D02*
D03*
X375590Y168012D02*
D03*
X333465Y202854D02*
D03*
X350394Y167028D02*
D03*
X378812Y46954D02*
D03*
X140551Y188091D02*
D03*
X33465Y57087D02*
D03*
X350394Y173130D02*
D03*
X378812Y53056D02*
D03*
X375590Y161909D02*
D03*
X333465Y208957D02*
D03*
X140551Y181988D02*
D03*
X155315Y129823D02*
D03*
Y135925D02*
D03*
X162205Y129823D02*
D03*
Y135925D02*
D03*
X33465Y50984D02*
D03*
X378740Y208563D02*
D03*
X402559Y286516D02*
D03*
D26*
X377165Y293898D02*
D03*
X354724Y273425D02*
D03*
X377165D02*
D03*
Y275984D02*
D03*
Y288779D02*
D03*
Y291339D02*
D03*
Y286221D02*
D03*
Y278543D02*
D03*
Y283661D02*
D03*
Y281102D02*
D03*
X354724Y270866D02*
D03*
Y278543D02*
D03*
Y283661D02*
D03*
X377165Y270866D02*
D03*
X354724Y275984D02*
D03*
Y281102D02*
D03*
Y286221D02*
D03*
Y288779D02*
D03*
Y291339D02*
D03*
Y293898D02*
D03*
D27*
X374213Y262992D02*
D03*
X236811Y196850D02*
D03*
X266831Y129181D02*
D03*
Y120323D02*
D03*
X243504Y196850D02*
D03*
X260138Y120323D02*
D03*
Y129181D02*
D03*
X367520Y262992D02*
D03*
D28*
X365158Y245571D02*
D03*
X341142Y217421D02*
D03*
Y245571D02*
D03*
Y243012D02*
D03*
Y240453D02*
D03*
Y237894D02*
D03*
Y227658D02*
D03*
Y225098D02*
D03*
X365158Y240453D02*
D03*
Y237894D02*
D03*
Y232776D02*
D03*
Y230217D02*
D03*
Y227658D02*
D03*
Y222539D02*
D03*
Y225098D02*
D03*
Y235335D02*
D03*
X341142Y230217D02*
D03*
Y219980D02*
D03*
Y222539D02*
D03*
Y232776D02*
D03*
Y235335D02*
D03*
X365158Y243012D02*
D03*
Y217421D02*
D03*
Y219980D02*
D03*
D29*
X358268Y202854D02*
D03*
X352756D02*
D03*
X372907Y46954D02*
D03*
X389700Y28251D02*
D03*
X324410Y28642D02*
D03*
X299213Y54232D02*
D03*
X41339Y57087D02*
D03*
X378740Y223130D02*
D03*
Y235728D02*
D03*
X148819Y188091D02*
D03*
X129921D02*
D03*
X306299Y54232D02*
D03*
X352756Y208957D02*
D03*
X358268D02*
D03*
X306299Y48130D02*
D03*
X378740Y229626D02*
D03*
Y217028D02*
D03*
X299213Y48130D02*
D03*
X99213Y181988D02*
D03*
Y188091D02*
D03*
X41339Y50984D02*
D03*
X148819Y181988D02*
D03*
X129921D02*
D03*
X372907Y53056D02*
D03*
X367001D02*
D03*
X324410Y22539D02*
D03*
X389700Y22149D02*
D03*
X367001Y46954D02*
D03*
D30*
X354823Y302165D02*
D03*
X370965Y107087D02*
D03*
X333930Y70478D02*
D03*
X205610Y204724D02*
D03*
X266535Y137055D02*
D03*
X292421Y17717D02*
D03*
X377067Y107087D02*
D03*
X211713Y204724D02*
D03*
X286319Y17717D02*
D03*
X134547Y116142D02*
D03*
X140650D02*
D03*
X160335Y103346D02*
D03*
X154232D02*
D03*
X101279Y127953D02*
D03*
X95177D02*
D03*
X134547Y128937D02*
D03*
X140650D02*
D03*
X260433Y137055D02*
D03*
X360925Y302165D02*
D03*
X340033Y70478D02*
D03*
D31*
X355334Y136201D02*
D03*
X373965Y151201D02*
D03*
Y141201D02*
D03*
Y136201D02*
D03*
Y146201D02*
D03*
X355334Y141201D02*
D03*
Y146201D02*
D03*
D32*
X381291Y69100D02*
D03*
X378731D02*
D03*
X371054Y96659D02*
D03*
X368495Y69100D02*
D03*
X360818D02*
D03*
X378731Y96659D02*
D03*
X365936Y69100D02*
D03*
X386409D02*
D03*
X383850D02*
D03*
X376172D02*
D03*
X373613D02*
D03*
X371054D02*
D03*
X363377D02*
D03*
X358259D02*
D03*
X355700D02*
D03*
X353141D02*
D03*
Y96659D02*
D03*
X355700D02*
D03*
X358259D02*
D03*
X360818D02*
D03*
X363377D02*
D03*
X365936D02*
D03*
X368495D02*
D03*
X373613D02*
D03*
X376172D02*
D03*
X381291D02*
D03*
X383850D02*
D03*
D33*
X385827Y45866D02*
D03*
X239370Y159449D02*
D03*
X162205Y190945D02*
D03*
X234252Y150984D02*
D03*
X385827Y52559D02*
D03*
X239370Y166142D02*
D03*
X234252Y144291D02*
D03*
X162205Y184252D02*
D03*
D34*
X361338Y128902D02*
D03*
X246949Y156299D02*
D03*
X117028Y196850D02*
D03*
X311910Y78740D02*
D03*
X298130D02*
D03*
X306201Y17717D02*
D03*
X337335Y144626D02*
D03*
Y138721D02*
D03*
X298130Y84646D02*
D03*
X304232D02*
D03*
Y78740D02*
D03*
X318012D02*
D03*
X300098Y17717D02*
D03*
X318012Y84646D02*
D03*
X311910D02*
D03*
X77658Y92520D02*
D03*
X83760D02*
D03*
X107677Y96457D02*
D03*
X113779D02*
D03*
X119291D02*
D03*
X125394D02*
D03*
X140650Y123031D02*
D03*
X134547D02*
D03*
X95177Y113189D02*
D03*
X101279D02*
D03*
X95177Y121063D02*
D03*
X101279D02*
D03*
X123130Y202756D02*
D03*
X117028D02*
D03*
X123130Y196850D02*
D03*
X367815Y302165D02*
D03*
X373917D02*
D03*
X343012Y304724D02*
D03*
X336910D02*
D03*
X343012Y292913D02*
D03*
X336910D02*
D03*
X343012Y281102D02*
D03*
X336910D02*
D03*
X343012Y287008D02*
D03*
X336910D02*
D03*
X343012Y269291D02*
D03*
X336910D02*
D03*
X343012Y263386D02*
D03*
X336910D02*
D03*
X343012Y275197D02*
D03*
X336910D02*
D03*
X343012Y298819D02*
D03*
X336910D02*
D03*
X253051Y156299D02*
D03*
X367441Y128902D02*
D03*
X343438Y144626D02*
D03*
Y138721D02*
D03*
X253051Y149409D02*
D03*
X246949D02*
D03*
D35*
X354331Y51352D02*
D03*
X358071D02*
D03*
X350590D02*
D03*
Y42297D02*
D03*
X354331D02*
D03*
X358071D02*
D03*
D36*
X150394Y170177D02*
D03*
X119882D02*
D03*
X140551D02*
D03*
X109055D02*
D03*
X140551Y144783D02*
D03*
X150394D02*
D03*
X145472Y170177D02*
D03*
X129724D02*
D03*
Y144783D02*
D03*
X124803D02*
D03*
X119882D02*
D03*
X109055D02*
D03*
X104134D02*
D03*
X99213Y170177D02*
D03*
Y144783D02*
D03*
D37*
X117520Y189469D02*
D03*
X122638D02*
D03*
X120079Y180610D02*
D03*
D38*
X88189Y205709D02*
D03*
X77165D02*
D03*
D39*
X278740Y149606D02*
D03*
X303937D02*
D03*
D40*
X292520Y28051D02*
D03*
X288779Y38878D02*
D03*
X296260Y28051D02*
D03*
Y38878D02*
D03*
X292520D02*
D03*
X288779Y28051D02*
D03*
D41*
X251575Y138386D02*
D03*
X241339Y134646D02*
D03*
X251575D02*
D03*
Y142126D02*
D03*
X241339D02*
D03*
D42*
X35433Y83465D02*
D03*
Y109449D02*
D03*
D43*
X277559Y53642D02*
D03*
Y80216D02*
D03*
D44*
X264567Y214173D02*
D03*
X275590D02*
D03*
D45*
X225925Y210630D02*
D03*
X246516D02*
D03*
X284980Y112205D02*
D03*
X305571D02*
D03*
D46*
X298425Y199213D02*
D03*
X282677D02*
D03*
X301181Y131890D02*
D03*
X285433D02*
D03*
X302362Y214173D02*
D03*
X286614D02*
D03*
D47*
X354331Y262992D02*
D03*
X269291Y197244D02*
D03*
X262205D02*
D03*
X361417Y262992D02*
D03*
D48*
X365354Y205906D02*
D03*
D49*
X386409Y96659D02*
D03*
D50*
X123937Y108366D02*
D03*
X108937Y129823D02*
D03*
X118937D02*
D03*
X113937D02*
D03*
X123937D02*
D03*
X118937Y108366D02*
D03*
X113937D02*
D03*
X108937D02*
D03*
D51*
X161713Y115157D02*
D03*
X150886D02*
D03*
D52*
X355334Y151201D02*
D03*
D53*
X229432Y178347D02*
D03*
X200686D02*
D03*
D75*
X423228Y281496D02*
D03*
Y216535D02*
D03*
Y161417D02*
D03*
Y109370D02*
D03*
Y49370D02*
D03*
X407480D02*
D03*
X423228Y206535D02*
D03*
Y271496D02*
D03*
Y196535D02*
D03*
Y261496D02*
D03*
Y251496D02*
D03*
Y186535D02*
D03*
Y79370D02*
D03*
Y241496D02*
D03*
Y99370D02*
D03*
X407480Y196850D02*
D03*
X423228Y89370D02*
D03*
Y69370D02*
D03*
Y59370D02*
D03*
Y141417D02*
D03*
Y131417D02*
D03*
Y151417D02*
D03*
D76*
X407480Y186850D02*
D03*
X423228Y121417D02*
D03*
Y39370D02*
D03*
X407480D02*
D03*
X423228Y231496D02*
D03*
Y176535D02*
D03*
D90*
X81575Y69764D02*
D03*
X94055D02*
D03*
X109055D02*
D03*
X124055D02*
D03*
X94055Y49764D02*
D03*
X109055D02*
D03*
X124055D02*
D03*
X136535Y69764D02*
D03*
X192480Y67520D02*
D03*
X180000Y52520D02*
D03*
X239961Y27480D02*
D03*
X192480Y50000D02*
D03*
X207480Y52520D02*
D03*
X222480Y50000D02*
D03*
Y67520D02*
D03*
D91*
X207480D02*
D03*
D92*
X49921Y182598D02*
D03*
D94*
X340551Y203543D02*
D03*
D95*
X337729Y157224D02*
D03*
X338583Y101969D02*
D03*
X337894Y85433D02*
D03*
D96*
X368996Y27829D02*
D03*
D97*
X343799Y27829D02*
D03*
D98*
X346063Y203543D02*
D03*
D99*
X227067Y178347D02*
D03*
X202067D02*
D03*
D100*
X337729Y151713D02*
D03*
X338583Y96457D02*
D03*
X337894Y79921D02*
D03*
D101*
X343209Y99213D02*
D03*
X342520Y82677D02*
D03*
X342355Y154469D02*
D03*
D102*
X343307Y208169D02*
D03*
D103*
X346949Y27828D02*
D03*
D104*
X365847Y27829D02*
D03*
D105*
X349507Y27829D02*
D03*
X351476D02*
D03*
X353444Y27829D02*
D03*
X355413Y27829D02*
D03*
X357381Y27829D02*
D03*
X359350Y27829D02*
D03*
X361317D02*
D03*
X363287D02*
D03*
D106*
X254626Y170079D02*
D03*
D107*
Y164567D02*
D03*
D108*
X250000Y167323D02*
D03*
D109*
X365748Y245957D02*
Y249606D01*
X370965Y107087D02*
X371054Y106997D01*
X354724Y273425D02*
X355012Y273713D01*
X378731Y69100D02*
Y79322D01*
X349508Y166142D02*
X350394Y167028D01*
X336614Y157087D02*
X337008Y157480D01*
X339862Y202854D02*
X340551Y203543D01*
X354331Y302658D02*
Y307087D01*
X365158Y245571D02*
X365362D01*
X358268Y197638D02*
Y202854D01*
X119882Y170177D02*
Y172146D01*
X355012Y273713D02*
X359933D01*
X389736Y28287D02*
Y33437D01*
X372835Y41732D02*
Y46882D01*
X397303Y279626D02*
X401968D01*
X359933Y273713D02*
X360236Y274016D01*
X139764Y188878D02*
X140551Y188091D01*
X333465Y202854D02*
X339862D01*
X381393Y61126D02*
Y68997D01*
X344882Y166142D02*
X349508D01*
X378776Y41768D02*
Y46918D01*
X246940Y156291D02*
X246949Y156299D01*
X354331Y302658D02*
X354823Y302165D01*
X378740Y197244D02*
Y202461D01*
X381291Y69100D02*
X381393Y68997D01*
X365779Y107123D02*
X370929D01*
X385791Y40681D02*
Y45830D01*
X360818Y69100D02*
Y79322D01*
X332283Y157087D02*
X336614D01*
X390866Y286063D02*
X397303Y279626D01*
X324446Y28678D02*
Y33827D01*
X368495Y69100D02*
Y79322D01*
X381393Y61126D02*
X381496Y61024D01*
X365362Y245571D02*
X365748Y245957D01*
X371054Y96659D02*
Y106997D01*
X372835Y46882D02*
X372907Y46954D01*
X352756Y197638D02*
Y202854D01*
X348992Y133051D02*
X352141Y136201D01*
X355334D01*
X346850Y132677D02*
X347225Y133051D01*
X348992D01*
X361106Y129134D02*
X361338Y128902D01*
X355118Y129134D02*
X361106D01*
X154331Y176083D02*
Y176378D01*
X150394Y170177D02*
Y172146D01*
X370374Y180413D02*
X381756Y169032D01*
Y157614D02*
Y169032D01*
X361417Y180413D02*
X370374D01*
X381756Y157614D02*
X388583Y150787D01*
X394488D02*
X399606Y145669D01*
X388583Y150787D02*
X394488D01*
X423228Y109370D02*
Y110236D01*
X399606Y133858D02*
Y145669D01*
Y133858D02*
X423228Y110236D01*
X378812Y53056D02*
X379107Y53352D01*
Y56698D01*
X375590Y162992D02*
X376279Y162303D01*
X338878Y217421D02*
X341142D01*
X375836Y151201D02*
X376378Y151743D01*
X337008Y213779D02*
X337382Y214153D01*
X377103Y106952D02*
Y112272D01*
X336634Y213406D02*
X337008Y213779D01*
X346151Y197550D02*
Y203849D01*
X377103Y106952D02*
X378731Y105324D01*
X334933Y210402D02*
Y211176D01*
X336634Y212877D01*
X337382Y215925D02*
X338878Y217421D01*
X378740Y235728D02*
Y242913D01*
X148819Y188091D02*
X148917Y187992D01*
X378812Y53056D02*
X379310Y52559D01*
X344882Y175591D02*
X345410D01*
X346151Y197550D02*
X346457Y197244D01*
X337197Y144488D02*
X337335Y144626D01*
X349024Y174500D02*
X350394Y173130D01*
X345410Y175591D02*
X346501Y174500D01*
X344094Y180413D02*
X344525D01*
X332388Y138954D02*
X337102D01*
X337382Y214153D02*
Y215925D01*
X344882Y175591D02*
Y180057D01*
X346501Y174500D02*
X349024D01*
X109055Y170177D02*
Y177953D01*
X129921Y188091D02*
X134744D01*
X332283Y151575D02*
X332421Y151713D01*
X333465Y208957D02*
X333563D01*
X344525Y180413D02*
X344882Y180057D01*
X135630Y182087D02*
X140453D01*
X385827Y52559D02*
X386024Y52756D01*
X148917Y187992D02*
X154724D01*
X377139Y58667D02*
X379107Y56698D01*
X109055Y170177D02*
X109055Y170177D01*
X140551Y170177D02*
Y181988D01*
X109055Y177953D02*
X109055Y177953D01*
X369096Y58667D02*
X377139D01*
X365936Y61827D02*
Y69100D01*
X375590Y161909D02*
X375689Y161811D01*
X379035Y222835D02*
X383465D01*
X336634Y212877D02*
Y213406D01*
X337102Y138954D02*
X337335Y138721D01*
X332283Y144488D02*
X337197D01*
X378740Y223130D02*
X379035Y222835D01*
X365936Y61827D02*
X369096Y58667D01*
X376279Y161122D02*
X376378Y161024D01*
X332421Y151713D02*
X337729D01*
X373965Y151201D02*
X375836D01*
X378731Y96659D02*
Y105324D01*
X140453Y182087D02*
X140551Y181988D01*
X133177Y130307D02*
Y135327D01*
Y130307D02*
X134547Y128937D01*
X254626Y164567D02*
X258169Y161024D01*
X285039D01*
X377165Y291339D02*
X377362Y291142D01*
X382480D01*
X382677Y290945D01*
X317323Y85039D02*
X317717Y84646D01*
X317323Y85039D02*
Y95276D01*
X305567Y91087D02*
X311910Y84744D01*
X305567Y91087D02*
Y96008D01*
X305512Y96063D02*
X305567Y96008D01*
X322047Y91732D02*
Y96457D01*
X315354Y103150D02*
Y122047D01*
Y103150D02*
X322047Y96457D01*
X325590Y91732D02*
X330315Y96457D01*
Y100205D02*
X332283Y102173D01*
X330315Y96457D02*
Y100205D01*
X325590Y88189D02*
Y91732D01*
Y88189D02*
X327165Y86614D01*
Y67323D02*
Y86614D01*
X309238Y49396D02*
X327165Y67323D01*
X329921Y66906D02*
Y90551D01*
X332685Y98433D02*
X335039Y100787D01*
X296260Y27264D02*
Y33245D01*
X332685Y84741D02*
X337894Y79533D01*
X332685Y84741D02*
Y98433D01*
X296260Y33245D02*
X329921Y66906D01*
X332283Y102173D02*
Y102756D01*
X338583Y101969D02*
Y110236D01*
Y100787D02*
Y101969D01*
X335039Y100787D02*
X338583D01*
Y110236D02*
X344488Y116142D01*
X337894Y85433D02*
X338583Y86122D01*
Y94917D01*
X338583Y94917D02*
X338583Y94917D01*
X343209Y95813D02*
Y99213D01*
Y95813D02*
X351621Y87402D01*
X372835D01*
X304232Y84646D02*
Y84744D01*
Y78740D02*
Y84646D01*
X311910D02*
Y84744D01*
X342913Y171260D02*
X343307Y170866D01*
X326772Y171260D02*
X342913D01*
X350689Y182973D02*
X355906Y177756D01*
Y171653D02*
X362205Y165354D01*
X355906Y171653D02*
Y177756D01*
X354227Y188873D02*
X357087Y191732D01*
X350689Y182973D02*
X354227Y186511D01*
X359055Y175591D02*
X364173Y170472D01*
Y143701D02*
Y170472D01*
X327165Y181496D02*
X327369Y181700D01*
X331442D01*
X332714Y182973D01*
X344094D01*
X331496Y191732D02*
Y191785D01*
X329535Y193746D02*
X331496Y191785D01*
X329535Y193746D02*
Y217695D01*
X331820Y219980D01*
X341142D01*
X327384Y219117D02*
X330807Y222539D01*
X327384Y190726D02*
X332579Y185531D01*
X327384Y190726D02*
Y219117D01*
X388346Y110079D02*
X407637D01*
X409842Y71653D02*
Y107874D01*
X407637Y110079D02*
X409842Y107874D01*
X366636Y53422D02*
X367001Y53056D01*
X366636Y53422D02*
Y56592D01*
X363377Y59851D02*
X366636Y56592D01*
X363377Y59851D02*
Y69100D01*
X367001Y53056D02*
X372907D01*
X307565Y49396D02*
X309238D01*
X305230Y47061D02*
X307565Y49396D01*
X359409Y239410D02*
X360479Y238340D01*
X357087Y243118D02*
Y243701D01*
Y243118D02*
X359409Y240796D01*
Y239410D02*
Y240796D01*
X296457Y90945D02*
X298031D01*
X292913Y94488D02*
X296457Y90945D01*
X293941Y75006D02*
Y82130D01*
Y75006D02*
X295669Y73278D01*
Y72835D02*
Y73278D01*
X298031Y90945D02*
X304232Y84744D01*
X296957Y83374D02*
X298130Y84547D01*
X295185Y83374D02*
X296957D01*
X293941Y82130D02*
X295185Y83374D01*
X298130Y84547D02*
Y84646D01*
X292520Y38878D02*
X292805Y39163D01*
Y42411D01*
X297569Y47175D01*
X296260Y38878D02*
X296468Y39086D01*
X305230Y44994D02*
Y47061D01*
X299323Y39086D02*
X305230Y44994D01*
X296468Y39086D02*
X299323D01*
X318012Y78740D02*
Y84646D01*
X296260Y27264D02*
X296447Y27077D01*
Y24419D02*
Y27077D01*
Y24419D02*
X299522Y21344D01*
Y18293D02*
X300098Y17717D01*
X299522Y18293D02*
Y21344D01*
X391535Y296063D02*
X401870Y285728D01*
X251575Y142126D02*
X252285D01*
X253051Y142893D01*
Y149409D01*
X249705Y159646D02*
Y166142D01*
X251778Y157671D02*
X253051Y156398D01*
X249705Y159646D02*
X251679Y157671D01*
X251778D01*
X253051Y156299D02*
Y156398D01*
X260255Y170079D02*
X260402Y170226D01*
X254626Y170079D02*
X260255D01*
X313779Y123622D02*
X315354Y122047D01*
X313779Y123622D02*
Y138976D01*
X320866Y146063D01*
X341628Y229731D02*
X347253D01*
X351000Y225984D01*
X350992Y236614D02*
X351575D01*
X341142Y235335D02*
X349713D01*
X350992Y236614D01*
X352016Y245512D02*
X354142Y247638D01*
X345663Y240939D02*
X350237Y245512D01*
X352016D01*
X354142Y247638D02*
X354724D01*
X341628Y240939D02*
X345663D01*
X345073Y243498D02*
X353937Y252362D01*
X341628Y243498D02*
X345073D01*
X353937Y252362D02*
X379921D01*
X348524Y237894D02*
X351575Y240945D01*
X341142Y237894D02*
X348524D01*
X359195Y235384D02*
X365108D01*
X357669Y233858D02*
X359195Y235384D01*
X357087Y233858D02*
X357669D01*
X341191Y232726D02*
X348974D01*
X350992Y230709D01*
X351575D01*
X351000Y225984D02*
X351575D01*
X388583Y106299D02*
X405905D01*
X379134Y119291D02*
X388346Y110079D01*
X409842Y71653D02*
X422126Y59370D01*
X386064Y121023D02*
X404174D01*
X412992Y89370D02*
Y112205D01*
X404174Y121023D02*
X412992Y112205D01*
X385827Y131102D02*
X398425D01*
X416535Y76063D02*
Y112992D01*
X398425Y131102D02*
X416535Y112992D01*
X422126Y59370D02*
X423228D01*
X416535Y76063D02*
X423228Y69370D01*
X364711Y238340D02*
X365158Y237894D01*
X360479Y238340D02*
X364711D01*
X365108Y235384D02*
X365158Y235335D01*
X370768Y240453D02*
X373622Y243307D01*
X365158Y240453D02*
X370768D01*
X373622Y249213D02*
Y249213D01*
X370598Y246189D02*
X373622Y249213D01*
X370598Y245690D02*
Y246189D01*
X368406Y243498D02*
X370598Y245690D01*
X365643Y243498D02*
X368406D01*
X365158Y243012D02*
X365643Y243498D01*
X379921Y252362D02*
X382874Y249410D01*
X353543Y254724D02*
X381496D01*
X385476Y250745D01*
X344876Y246057D02*
X353543Y254724D01*
X369088Y233261D02*
X373622Y237795D01*
X365643Y233261D02*
X369088D01*
X365158Y232776D02*
X365643Y233261D01*
X341142Y240453D02*
X341628Y240939D01*
X365158Y230217D02*
X365207Y230266D01*
X371863D02*
X373093Y231496D01*
X373622D01*
X365207Y230266D02*
X371863D01*
X341142Y225098D02*
X341628Y224613D01*
X345466D01*
X347638Y210630D02*
Y222441D01*
X345669Y208661D02*
X347638Y210630D01*
X345466Y224613D02*
X347638Y222441D01*
X357185Y222539D02*
X365158D01*
X352756Y218110D02*
X357185Y222539D01*
X352756Y208957D02*
Y218110D01*
X369937Y227172D02*
X371124Y225984D01*
X371654D01*
X365643Y227172D02*
X369937D01*
X365158Y227658D02*
X365643Y227172D01*
X393307Y240945D02*
X398819Y235433D01*
Y181890D02*
Y235433D01*
X341142Y245571D02*
X341628Y246057D01*
X344876D01*
X388189Y240945D02*
X393307D01*
X385476Y243658D02*
X388189Y240945D01*
X385476Y243658D02*
Y250745D01*
X410433Y158063D02*
X412402Y160031D01*
X410433Y157480D02*
Y158063D01*
X412402Y160031D02*
Y164370D01*
X411417Y165354D02*
Y169291D01*
Y165354D02*
X412402Y164370D01*
X398819Y181890D02*
X411417Y169291D01*
X359599Y219980D02*
X365158D01*
X358661Y219043D02*
X359599Y219980D01*
X358661Y209350D02*
Y219043D01*
X358268Y208957D02*
X358661Y209350D01*
X378740Y229626D02*
X385763D01*
X389326Y226063D01*
X390866D01*
X378642Y229626D02*
X378740D01*
X373702Y141464D02*
X373965Y141201D01*
X364173Y143701D02*
X366410Y141464D01*
X373702D01*
X374803Y225787D02*
X378642Y229626D01*
X371654Y211811D02*
X374803Y214961D01*
Y225787D01*
X371654Y199213D02*
Y211811D01*
X351575Y191732D02*
X351721Y191586D01*
Y187154D02*
Y191586D01*
X350098Y185531D02*
X351721Y187154D01*
X351748Y191905D02*
X354110D01*
X351575Y191732D02*
X351748Y191905D01*
X355906Y193701D02*
X366142D01*
X371654Y199213D01*
X354110Y191905D02*
X355906Y193701D01*
X344094Y185531D02*
X350098D01*
X332579D02*
X344094D01*
X330807Y222539D02*
X341142D01*
Y232776D02*
X341191Y232726D01*
X378740Y217028D02*
X379705Y216063D01*
X390866D01*
X344094Y182973D02*
X350689D01*
X362205Y139370D02*
X365374Y136201D01*
X373965D01*
X362205Y139370D02*
Y165354D01*
X374016Y211024D02*
X377368Y214376D01*
Y215754D01*
X378642Y217028D01*
X378740D01*
X374016Y198425D02*
Y211024D01*
X367323Y191732D02*
X374016Y198425D01*
X357087Y191732D02*
X367323D01*
X354227Y186511D02*
Y188873D01*
X365158Y206102D02*
Y217421D01*
Y206102D02*
X365354Y205906D01*
X341142Y230217D02*
X341628Y229731D01*
X387795Y231102D02*
X394094D01*
X396850Y228346D01*
Y180709D02*
Y228346D01*
X341142Y243012D02*
X341628Y243498D01*
X408465Y162402D02*
Y169095D01*
X396850Y180709D02*
X408465Y169095D01*
X382874Y236024D02*
Y249410D01*
Y236024D02*
X387795Y231102D01*
X357616Y226378D02*
X358895Y225098D01*
X365158D01*
X357087Y226378D02*
X357616D01*
X395617Y245131D02*
X401575Y239173D01*
Y183071D02*
X415295Y169351D01*
X401575Y183071D02*
Y239173D01*
X390866Y246063D02*
X391798Y245131D01*
X395617D01*
X404528Y154979D02*
X408089Y151417D01*
X398819Y171890D02*
X404528Y166181D01*
Y154979D02*
Y166181D01*
X395276Y170866D02*
X401575Y164567D01*
Y152559D02*
X412717Y141417D01*
X401575Y152559D02*
Y164567D01*
X415295Y166398D02*
X415354Y166339D01*
X415295Y166398D02*
Y169351D01*
X412717Y141417D02*
X423228D01*
X398088Y151125D02*
Y157818D01*
Y151125D02*
X402362Y146850D01*
Y137008D02*
Y146850D01*
X408089Y151417D02*
X423228D01*
X407953Y131417D02*
X423228D01*
X328740Y249477D02*
X332677Y253414D01*
Y259055D02*
X336910Y263287D01*
X332677Y253414D02*
Y259055D01*
X140650Y128937D02*
X140826Y129114D01*
X146235D01*
X149928Y126503D02*
Y144318D01*
X150394Y144783D01*
X146457Y123031D02*
X149928Y126503D01*
X140650Y116142D02*
X142020Y114772D01*
Y112196D02*
X142520Y111696D01*
Y111220D02*
Y111696D01*
X148721Y181988D02*
X148819D01*
X147547Y183161D02*
X148721Y181988D01*
X147547Y183161D02*
Y183260D01*
X144882Y185925D02*
X147547Y183260D01*
X144882Y185925D02*
Y209842D01*
X145472Y170177D02*
Y172146D01*
Y176969D01*
X147547Y179043D01*
Y180815D01*
X148721Y181988D01*
X148819D01*
X145472Y170177D02*
Y172146D01*
X341142Y227658D02*
X341529Y227271D01*
X402362Y137008D02*
X407953Y131417D01*
X379921Y181102D02*
X393701D01*
X398819Y175984D01*
Y171890D02*
Y175984D01*
X329134Y134252D02*
Y157795D01*
X320866Y166063D02*
X329134Y157795D01*
Y134252D02*
X338976Y124409D01*
X379134D01*
X326378Y133071D02*
Y150787D01*
Y133071D02*
X337374Y122075D01*
X321102Y156063D02*
X326378Y150787D01*
X386221Y96471D02*
X386409Y96659D01*
X386221Y87795D02*
Y96471D01*
X382677Y84252D02*
X386221Y87795D01*
X340913Y84252D02*
X382677D01*
X372835Y87402D02*
X376172Y90739D01*
X344488Y116142D02*
X378740D01*
X388583Y106299D01*
X324410Y22539D02*
X324508D01*
X329331Y17717D01*
X347638D01*
X351476Y21555D01*
Y27829D01*
X389602Y22149D02*
X389700D01*
X385563Y18110D02*
X389602Y22149D01*
X365748Y18110D02*
X385563D01*
X363287Y20571D02*
X365748Y18110D01*
X363287Y20571D02*
Y27829D01*
X376172Y90739D02*
Y96659D01*
X385012Y122075D02*
X386064Y121023D01*
X337374Y122075D02*
X385012D01*
X327480Y126063D02*
X334252Y119291D01*
X320866Y126063D02*
X327480D01*
X334252Y119291D02*
X379134D01*
X379134Y124409D02*
X385827Y131102D01*
X367441Y128902D02*
X377721D01*
X381496Y132677D01*
X320866Y156063D02*
X321102D01*
X340033Y70478D02*
Y70576D01*
X341503Y72046D01*
X344093D01*
X349606Y77559D01*
X355906D01*
X358259Y75205D01*
Y69100D02*
Y75205D01*
X381496Y132677D02*
Y143307D01*
X378740Y146063D02*
X381496Y143307D01*
X374102Y146063D02*
X378740D01*
X373965Y146201D02*
X374102Y146063D01*
X388189Y161024D02*
X394882D01*
X383858Y165354D02*
Y170472D01*
X371358Y182973D02*
X383858Y170472D01*
Y165354D02*
X388189Y161024D01*
X361417Y182973D02*
X371358D01*
X343438Y138721D02*
X346988D01*
X349468Y141201D02*
X355334D01*
X346988Y138721D02*
X349468Y141201D01*
X343438Y144626D02*
X347911D01*
X349223Y145938D01*
X355071D01*
X355334Y146201D01*
X342520Y151201D02*
X355334D01*
X361417Y188091D02*
X372933D01*
X379921Y181102D01*
X378740Y208563D02*
X386982D01*
X389482Y206063D01*
X390866D01*
X394882Y161024D02*
X398088Y157818D01*
X387402Y170866D02*
X395276D01*
X372736Y185531D02*
X387402Y170866D01*
X361417Y185531D02*
X372736D01*
X372644Y300892D02*
X373917Y302165D01*
X367323Y270472D02*
Y294094D01*
X372644Y299416D02*
Y300892D01*
X367323Y294094D02*
X372644Y299416D01*
X367323Y270472D02*
X370079Y267717D01*
X372441D01*
X251778Y155026D02*
X253051Y156299D01*
X251778Y154337D02*
Y155026D01*
X246949Y149508D02*
X251778Y154337D01*
X246949Y149409D02*
Y149508D01*
X401870Y285728D02*
X401968D01*
X390866Y296063D02*
X391535D01*
X328740Y243602D02*
Y249477D01*
X326368Y241230D02*
X328740Y243602D01*
X329134Y257480D02*
X329375Y257721D01*
Y261658D01*
X336910Y269193D01*
X329528Y266535D02*
X329921D01*
X332962Y269576D01*
Y271150D01*
X335939Y280033D02*
Y280132D01*
X332658Y276752D02*
X335939Y280033D01*
X330295Y276752D02*
X332658D01*
X329921Y276378D02*
X330295Y276752D01*
X332962Y271150D02*
X336910Y275098D01*
Y275197D01*
Y263287D02*
Y263386D01*
X330269Y308313D02*
Y308313D01*
Y308313D02*
X333373Y305209D01*
X330289Y287008D02*
X336910D01*
X111024Y202756D02*
X117028D01*
X129724Y170177D02*
Y181791D01*
X129921Y181988D01*
X128445Y180610D02*
X129724Y181890D01*
X120079Y180610D02*
X128445D01*
X122638Y196358D02*
X123130Y196850D01*
X122638Y189469D02*
Y196358D01*
X123130Y196850D02*
Y202756D01*
X99213Y188091D02*
Y194095D01*
X99213Y188091D02*
X99213Y188091D01*
X125394Y96457D02*
Y101575D01*
X118902Y141835D02*
X119882Y142815D01*
X108276Y139969D02*
Y144004D01*
X104134Y142815D02*
Y144783D01*
X119882Y142815D02*
Y144783D01*
X124803Y142815D02*
Y144783D01*
X108276Y144004D02*
X109055Y144783D01*
X108308Y107283D02*
X108937Y107913D01*
Y108366D01*
X102165Y107283D02*
X108308D01*
X101181Y118110D02*
Y120965D01*
X101279Y113091D02*
Y113189D01*
X101181D02*
X104134Y116142D01*
X106102D01*
X123937Y108366D02*
Y110354D01*
X129724Y116142D02*
X134646D01*
X123937Y110354D02*
X129724Y116142D01*
X134547Y110630D02*
Y116142D01*
X90354Y127953D02*
X95177D01*
X100197Y117126D02*
X101181Y118110D01*
X87598Y118799D02*
Y132087D01*
X89665Y113189D02*
X95177D01*
X89272Y117126D02*
X100197D01*
X87598Y118799D02*
X89272Y117126D01*
X95177Y121063D02*
X95177Y121063D01*
X90354Y121063D02*
X95177D01*
X87598Y132087D02*
X91575Y136063D01*
X97382D01*
X99213Y170177D02*
Y181988D01*
X95276Y140748D02*
X95763D01*
X96850Y141835D01*
X98233D01*
X99213Y142815D01*
Y144783D01*
X113937Y123976D02*
Y129823D01*
X108937Y123898D02*
Y129823D01*
X106102Y116142D02*
X113937Y123976D01*
X101181Y120965D02*
X101279Y121063D01*
X101181D02*
X106102D01*
X108937Y123898D01*
X101181Y128051D02*
X101279Y127953D01*
X116432Y140748D02*
X117519Y141835D01*
X113937Y129823D02*
X118937D01*
X115945Y140748D02*
X116432D01*
X117519Y141835D02*
X118902D01*
X101181Y128051D02*
Y132874D01*
X118937Y129823D02*
Y136949D01*
X101181Y132874D02*
X108276Y139969D01*
X97382Y136063D02*
X104134Y142815D01*
X118937Y136949D02*
X124803Y142815D01*
X140650Y123031D02*
X146457D01*
X125787D02*
X134646D01*
X123937Y124882D02*
X125787Y123031D01*
X123937Y124882D02*
Y129823D01*
X128740Y128937D02*
X134547D01*
X129724Y138779D02*
Y144783D01*
Y138779D02*
X133177Y135327D01*
X140551Y133858D02*
Y144783D01*
X372441Y267717D02*
X374791Y270066D01*
Y270066D02*
X375590Y270866D01*
X377165D01*
X336910Y269193D02*
Y269291D01*
X335939Y280132D02*
X336910Y281102D01*
X336425Y305209D02*
X336910Y304724D01*
X333373Y305209D02*
X336425D01*
X330072Y298819D02*
X336910D01*
X330207Y292913D02*
X336910D01*
X377165Y286221D02*
X382677D01*
X371002Y291732D02*
X373567Y289167D01*
X376778D01*
X370472Y291732D02*
X371002D01*
X372313Y283661D02*
X377165D01*
X370935Y285039D02*
X372313Y283661D01*
X370472Y285039D02*
X370935D01*
X376870Y278248D02*
X377165Y278543D01*
X370768Y278248D02*
X376870D01*
X370472Y277953D02*
X370768Y278248D01*
X372313Y273425D02*
X377165D01*
X370542Y271654D02*
X372313Y273425D01*
X370472Y271654D02*
X370542D01*
X376778Y289167D02*
X377165Y288780D01*
X377165Y275984D02*
X382677D01*
X377165Y281102D02*
X382677D01*
X343406Y286614D02*
X343799Y286221D01*
X354724D01*
X343012Y281102D02*
X346850D01*
X349410Y283661D01*
X354724D01*
X343012Y275197D02*
Y275288D01*
X344285Y276561D01*
X345852D02*
X350394Y281102D01*
X344285Y276561D02*
X345852D01*
X350394Y281102D02*
X354724D01*
X343012Y269291D02*
X344043Y270323D01*
X347094D01*
X348031Y271260D01*
Y274803D01*
X351575Y278346D01*
X354528D01*
X354724Y278543D01*
X350000Y265354D02*
Y273866D01*
X354724Y275984D02*
X354724Y275984D01*
X350000Y273866D02*
X352118Y275984D01*
X354724D01*
X343012Y263386D02*
X348031D01*
X350000Y265354D01*
X346850Y294882D02*
X350394Y291339D01*
X346850Y294882D02*
Y297638D01*
X345669Y298819D02*
X346850Y297638D01*
X343012Y298819D02*
X345669D01*
X349410Y297638D02*
X353150Y293898D01*
X349410Y297638D02*
Y303346D01*
X343012Y304724D02*
X343012Y304724D01*
X348031D01*
X349410Y303346D01*
X353150Y293898D02*
X354724D01*
X350394Y291339D02*
X354724D01*
X344285Y291542D02*
X347238D01*
X350000Y288779D01*
X343012Y292815D02*
Y292913D01*
Y292815D02*
X344285Y291542D01*
X350000Y288779D02*
X354724D01*
D110*
X377165Y293898D02*
Y297638D01*
X379528Y300000D01*
Y304724D01*
X374372Y169132D02*
X375492Y168012D01*
X374372Y169132D02*
Y170510D01*
X372441Y172441D02*
Y172835D01*
Y172441D02*
X374372Y170510D01*
X375492Y168012D02*
X375590D01*
X374213Y262992D02*
X374410Y262795D01*
X380906D01*
X336114Y188091D02*
X344094D01*
X335228Y188976D02*
X336114Y188091D01*
X334646Y188976D02*
X335228D01*
X162205Y190945D02*
X163386Y192126D01*
X376378Y151743D02*
Y161024D01*
X281831Y198366D02*
X283465Y200000D01*
Y204936D01*
X285222Y206693D01*
X307120D01*
X310630Y210203D01*
Y225000D01*
X316809Y231179D01*
X354331Y262205D02*
Y262992D01*
X353506Y261380D02*
X354331Y262205D01*
X332677Y248031D02*
X338583Y253937D01*
X327636Y231179D02*
X332677Y236221D01*
Y248031D01*
X342126Y253937D02*
X349569Y261380D01*
X338583Y253937D02*
X342126D01*
X349569Y261380D02*
X353506D01*
X316809Y231179D02*
X327636D01*
X356299Y270866D02*
X357799Y269366D01*
X354724Y270866D02*
X356299D01*
X357799Y269366D02*
X359135D01*
X360785Y267717D01*
X363779Y270711D01*
Y295669D01*
X362045Y297404D02*
X363779Y295669D01*
X360785Y267717D02*
X360897Y267604D01*
Y266802D02*
Y267604D01*
Y263513D02*
Y266802D01*
X362045Y297404D02*
Y301045D01*
X360897Y263513D02*
X361417Y262992D01*
X360925Y302165D02*
X362045Y301045D01*
X361417Y262992D02*
X367520D01*
X360925Y302165D02*
X367815D01*
X102165Y96457D02*
X107677D01*
X95524Y103098D02*
X102165Y96457D01*
X95524Y103098D02*
Y107035D01*
X95276Y107283D02*
X95524Y107035D01*
X354331Y42297D02*
X354331Y42297D01*
D111*
X354328Y47221D02*
Y51350D01*
X354331Y42297D02*
X354363Y42265D01*
Y37493D02*
Y42265D01*
Y37493D02*
X354396Y37461D01*
D112*
X311860Y78691D02*
X311910Y78740D01*
X298130D02*
X298703Y78167D01*
Y75123D02*
Y78167D01*
X311860Y72884D02*
Y78691D01*
X298703Y75123D02*
X300787Y73038D01*
Y72835D02*
Y73038D01*
X311811Y72835D02*
X311860Y72884D01*
X292471Y28002D02*
X292520Y28051D01*
X292471Y17766D02*
Y28002D01*
X292421Y17717D02*
X292471Y17766D01*
X251494Y138305D02*
X251575Y138386D01*
X249034Y138305D02*
X251494D01*
X246457Y135727D02*
X249034Y138305D01*
X246457Y127953D02*
Y135727D01*
D113*
X35433Y73819D02*
Y83465D01*
X301181Y251969D02*
Y302756D01*
X262055Y302213D02*
X262598Y302756D01*
X262055Y270339D02*
Y302213D01*
X224016Y302756D02*
X224410Y302362D01*
Y251969D02*
Y302362D01*
X185039D02*
X185433Y302756D01*
X185039Y269685D02*
Y302362D01*
X146850Y302756D02*
X147394Y302213D01*
Y270339D02*
Y302213D01*
X108268Y269685D02*
Y302756D01*
X69685D02*
X70228Y302213D01*
Y270339D02*
Y302213D01*
X31102Y302756D02*
X31496Y302362D01*
Y269685D02*
Y302362D01*
X147394Y270339D02*
X147638Y270094D01*
Y251969D02*
Y270094D01*
X70228Y270339D02*
X70472Y270094D01*
Y251575D02*
Y270094D01*
X261811D02*
X262055Y270339D01*
X261811Y269685D02*
Y270094D01*
X390679Y306063D02*
X390866D01*
D114*
X298425Y199213D02*
X312598D01*
X285207Y131663D02*
X285433Y131890D01*
X285207Y112431D02*
Y131663D01*
X284980Y112205D02*
X285207Y112431D01*
X301969Y223228D02*
Y233664D01*
Y214567D02*
Y223228D01*
Y214567D02*
X302362Y214173D01*
X301969Y233664D02*
X311024Y242719D01*
Y308071D01*
X316881Y313929D02*
X382812D01*
X311024Y308071D02*
X316881Y313929D01*
X382812D02*
X390679Y306063D01*
D115*
X35433Y109449D02*
Y127953D01*
D116*
X275590Y214173D02*
X286614D01*
D117*
X352559Y61111D02*
Y61417D01*
Y61111D02*
X356277Y57393D01*
Y57086D02*
Y57393D01*
X356656Y53948D02*
Y56708D01*
Y53948D02*
X358071Y52534D01*
X356277Y57086D02*
X356656Y56708D01*
X358071Y51352D02*
Y52534D01*
X350590Y51352D02*
X351285Y52047D01*
Y55307D02*
X352537Y56559D01*
Y57095D01*
X351285Y52047D02*
Y55307D01*
X355700Y65788D02*
Y69100D01*
X355921Y61796D02*
Y65567D01*
Y61796D02*
X356299Y61417D01*
X355700Y65788D02*
X355921Y65567D01*
X352938Y61796D02*
Y65584D01*
X353141Y65788D02*
Y69100D01*
X352559Y61417D02*
X352938Y61796D01*
Y65584D02*
X353141Y65788D01*
D118*
X115874Y74980D02*
Y83607D01*
X114664Y84817D02*
X115874Y83607D01*
X114664Y84817D02*
Y85433D01*
X117194Y83607D02*
X118404Y84817D01*
Y85433D01*
Y86049D01*
X117194Y87259D02*
X118404Y86049D01*
X114664Y85433D02*
Y86049D01*
X115874Y87259D01*
Y92864D01*
X117194Y87259D02*
Y92317D01*
X117873Y72955D02*
X120864D01*
X117194Y75527D02*
X117215Y75506D01*
Y73612D02*
Y75506D01*
Y73612D02*
X117873Y72955D01*
X117194Y75527D02*
Y83607D01*
X119291Y96358D02*
Y96457D01*
X117878Y94945D02*
X119291Y96358D01*
X118937Y107002D02*
Y108366D01*
X117878Y97968D02*
X119291Y96555D01*
X117805Y97968D02*
X117878D01*
X119291Y96457D02*
Y96555D01*
X117805Y94945D02*
X117878D01*
X117195Y98578D02*
X117805Y97968D01*
X117195Y94336D02*
X117805Y94945D01*
X117097Y105163D02*
X118937Y107002D01*
X117097Y104301D02*
X117195Y104202D01*
Y98578D02*
Y104202D01*
X117097Y104301D02*
Y105163D01*
X117195Y92318D02*
Y94336D01*
X117194Y92317D02*
X117195Y92318D01*
X115874Y74980D02*
X115895Y74959D01*
Y73612D02*
Y74959D01*
X115237Y72955D02*
X115895Y73612D01*
X112246Y72955D02*
X115237D01*
X109055Y69764D02*
X112246Y72955D01*
X115875Y98578D02*
Y103656D01*
Y92865D02*
Y94336D01*
X115874Y92864D02*
X115875Y92865D01*
X115777Y103754D02*
X115875Y103656D01*
X115777Y103754D02*
Y105163D01*
X113937Y107002D02*
X115777Y105163D01*
X115266Y97968D02*
X115875Y98578D01*
X115193Y94945D02*
X115266D01*
X115193Y97968D02*
X115266D01*
X113937Y107002D02*
Y108366D01*
X113779Y96555D02*
X115193Y97968D01*
X113779Y96358D02*
X115193Y94945D01*
X113779Y96358D02*
Y96457D01*
X115266Y94945D02*
X115875Y94336D01*
X131193Y63240D02*
X136535Y68583D01*
Y69764D01*
X124055Y68583D02*
Y69764D01*
X115315Y59842D02*
X124055Y68583D01*
X94055Y50945D02*
X102953Y59842D01*
X115315D01*
X94055Y49764D02*
Y50945D01*
X124055Y53524D02*
X129398Y58866D01*
X124055Y49764D02*
Y53524D01*
X130259Y58866D02*
X131255Y57870D01*
X129398Y58866D02*
X130259D01*
X131255Y57870D02*
X147926D01*
X158849Y68793D01*
X131193Y59800D02*
Y63240D01*
X131802Y59190D02*
X147379D01*
X131193Y59800D02*
X131802Y59190D01*
X147379D02*
X158303Y70114D01*
X180000Y53701D02*
X185343Y59043D01*
X180000Y52520D02*
Y53701D01*
X176533Y68793D02*
X185343Y59984D01*
Y59043D02*
Y59984D01*
X186276Y60917D02*
X187138D01*
X177080Y70114D02*
X186276Y60917D01*
X192480Y66260D02*
Y67520D01*
X187138Y60917D02*
X192480Y66260D01*
X193740Y51260D02*
X206221D01*
X192480Y50000D02*
X193740Y51260D01*
X206221D02*
X207480Y52520D01*
X158303Y70114D02*
X177080D01*
X158849Y68793D02*
X176533D01*
D119*
X42421Y39370D02*
X71063D01*
X75590D01*
X90258Y24702D01*
X103246D01*
X109055Y30512D01*
Y49764D01*
Y30512D02*
X154331D01*
X165157Y19685D01*
X202480Y27480D02*
X239961D01*
X194685Y19685D02*
X202480Y27480D01*
X165157Y19685D02*
X194685D01*
D120*
X355343Y34075D02*
X357321Y36053D01*
X357377Y41603D02*
X358071Y42297D01*
X357377Y39057D02*
Y41603D01*
X357321Y39001D02*
X357377Y39057D01*
X357321Y36053D02*
Y39001D01*
X355343Y27822D02*
Y34075D01*
X351341Y36138D02*
X353374Y34104D01*
Y27822D02*
Y34104D01*
X355368Y31141D02*
X356335Y32107D01*
X358268D01*
X359279Y31097D01*
Y27823D02*
Y31097D01*
Y27823D02*
X359279Y27822D01*
X351341Y36138D02*
Y41547D01*
X350590Y42297D02*
X351341Y41547D01*
X357151Y27663D02*
X357285Y27529D01*
Y24503D02*
Y27529D01*
X353375Y24546D02*
Y27821D01*
Y24546D02*
X354385Y23536D01*
X356318D01*
X357285Y24503D01*
X353374Y27822D02*
X353533Y27663D01*
D121*
X233369Y187079D02*
D03*
X197734D02*
D03*
D122*
X233369Y178221D02*
D03*
X197734D02*
D03*
D123*
X233369Y169362D02*
D03*
X197734D02*
D03*
D124*
X390866Y286063D02*
D03*
Y236063D02*
D03*
Y136063D02*
D03*
Y186063D02*
D03*
X320866Y286063D02*
D03*
Y236063D02*
D03*
Y186063D02*
D03*
Y136063D02*
D03*
X390866Y306063D02*
D03*
Y296063D02*
D03*
Y276063D02*
D03*
Y266063D02*
D03*
Y256063D02*
D03*
Y246063D02*
D03*
Y206063D02*
D03*
Y196063D02*
D03*
Y176063D02*
D03*
Y166063D02*
D03*
Y156063D02*
D03*
Y146063D02*
D03*
Y126063D02*
D03*
Y116063D02*
D03*
X320866D02*
D03*
Y126063D02*
D03*
Y146063D02*
D03*
Y156063D02*
D03*
Y166063D02*
D03*
Y176063D02*
D03*
Y196063D02*
D03*
Y206063D02*
D03*
Y216063D02*
D03*
Y226063D02*
D03*
Y246063D02*
D03*
Y256063D02*
D03*
Y266063D02*
D03*
Y276063D02*
D03*
Y296063D02*
D03*
X390866Y216063D02*
D03*
Y226063D02*
D03*
D125*
X373425Y24803D02*
D03*
X339370D02*
D03*
D126*
X373425Y8347D02*
D03*
X339370D02*
D03*
D127*
X281496Y302756D02*
D03*
X242913D02*
D03*
X242126Y269685D02*
D03*
X204331Y302756D02*
D03*
X204724Y251969D02*
D03*
X281496D02*
D03*
X165748Y302756D02*
D03*
X165354Y269685D02*
D03*
X127953Y251969D02*
D03*
X127165Y302756D02*
D03*
X88583D02*
D03*
X50000D02*
D03*
X88583Y269685D02*
D03*
X11417Y302756D02*
D03*
X11811Y269685D02*
D03*
X50787Y251575D02*
D03*
X21260Y302756D02*
D03*
X214173D02*
D03*
X98425D02*
D03*
X59842D02*
D03*
X175591D02*
D03*
X252756D02*
D03*
X137008D02*
D03*
X291339D02*
D03*
D128*
X284646Y172047D02*
D03*
X294882D02*
D03*
D129*
X187795Y169291D02*
D03*
Y129291D02*
D03*
Y119291D02*
D03*
Y139291D02*
D03*
D130*
X34252Y177559D02*
D03*
Y153937D02*
D03*
Y165748D02*
D03*
Y142126D02*
D03*
X46063D02*
D03*
Y153937D02*
D03*
Y165748D02*
D03*
Y177559D02*
D03*
D131*
X320866Y306063D02*
D03*
D132*
X274803Y172047D02*
D03*
D133*
X108268Y269685D02*
D03*
X147638Y251969D02*
D03*
X185039Y269685D02*
D03*
X261811D02*
D03*
X301181Y251969D02*
D03*
X70472Y251575D02*
D03*
X31496Y269685D02*
D03*
X224410Y251969D02*
D03*
D134*
X31102Y302756D02*
D03*
X224016D02*
D03*
X108268D02*
D03*
X69685D02*
D03*
X146850D02*
D03*
X185433D02*
D03*
X301181D02*
D03*
X262598D02*
D03*
D135*
X15748Y15748D02*
D03*
D136*
X187795Y179291D02*
D03*
D137*
X379528Y304724D02*
D03*
X344882Y166142D02*
D03*
X372441Y172835D02*
D03*
X332283Y157087D02*
D03*
X380906Y262795D02*
D03*
X360236Y274016D02*
D03*
X365748Y249606D02*
D03*
X378740Y197244D02*
D03*
X358268Y197638D02*
D03*
X354331Y307087D02*
D03*
X352756Y197638D02*
D03*
X333071Y197244D02*
D03*
X334646Y188976D02*
D03*
X381496Y61024D02*
D03*
X378731Y79322D02*
D03*
X395669Y39370D02*
D03*
X385791Y40681D02*
D03*
X389736Y33437D02*
D03*
X395669Y11811D02*
D03*
X383858Y5906D02*
D03*
X378776Y41768D02*
D03*
X374016Y35433D02*
D03*
X372835Y41732D02*
D03*
X365779Y107123D02*
D03*
X368495Y79322D02*
D03*
X360818D02*
D03*
X360236Y57087D02*
D03*
X355118Y129134D02*
D03*
X346850Y132677D02*
D03*
X360236Y61024D02*
D03*
X348425Y57087D02*
D03*
X333930Y65655D02*
D03*
X348425Y61024D02*
D03*
X354326Y47218D02*
D03*
X356299Y5906D02*
D03*
X338583Y35433D02*
D03*
X324446Y33827D02*
D03*
X318898Y45276D02*
D03*
Y11811D02*
D03*
X326772Y5906D02*
D03*
X230315Y196850D02*
D03*
X170079Y206693D02*
D03*
X184646D02*
D03*
X155905D02*
D03*
X200787D02*
D03*
Y200787D02*
D03*
X159449Y198819D02*
D03*
X165354D02*
D03*
X245276Y160630D02*
D03*
X269685Y156299D02*
D03*
Y149606D02*
D03*
X241339Y151575D02*
D03*
X223622Y150000D02*
D03*
X159252Y169291D02*
D03*
X154331Y176378D02*
D03*
X223622Y159843D02*
D03*
X171063Y169291D02*
D03*
X112205Y196850D02*
D03*
X94488Y206693D02*
D03*
X103150D02*
D03*
X136221Y196850D02*
D03*
X141732D02*
D03*
X112205Y192913D02*
D03*
X90551Y198819D02*
D03*
X34449Y194882D02*
D03*
X112205Y187008D02*
D03*
X114173Y175197D02*
D03*
X135827Y169291D02*
D03*
X90551D02*
D03*
X114173D02*
D03*
X90551Y183071D02*
D03*
X75787Y173228D02*
D03*
X34449Y188976D02*
D03*
X28543Y171260D02*
D03*
X75787Y160433D02*
D03*
X28543Y159449D02*
D03*
X300787Y72835D02*
D03*
X311811D02*
D03*
X269291Y142520D02*
D03*
X274410Y134252D02*
D03*
X274803Y115354D02*
D03*
Y125591D02*
D03*
X299213Y59055D02*
D03*
X306201Y22539D02*
D03*
X259055Y31496D02*
D03*
X292471Y22884D02*
D03*
X259055Y62992D02*
D03*
Y47244D02*
D03*
X292463Y12699D02*
D03*
X259055Y15748D02*
D03*
X246457Y127953D02*
D03*
X242126Y108268D02*
D03*
X226378Y124016D02*
D03*
X234252Y116142D02*
D03*
X75787Y146653D02*
D03*
X223228Y139764D02*
D03*
X28543Y147638D02*
D03*
Y134843D02*
D03*
X75787D02*
D03*
X224016Y130709D02*
D03*
X26575Y125984D02*
D03*
Y119095D02*
D03*
X257874Y92520D02*
D03*
X250000Y100394D02*
D03*
X259055Y78740D02*
D03*
X66929Y108268D02*
D03*
X55118Y98425D02*
D03*
X47244Y72835D02*
D03*
X47244Y63878D02*
D03*
X41339Y72835D02*
D03*
Y63878D02*
D03*
X35433Y72835D02*
D03*
X23622D02*
D03*
X29528D02*
D03*
X35433Y63878D02*
D03*
X29528D02*
D03*
X344882Y175591D02*
D03*
X378740Y242913D02*
D03*
X383465Y222835D02*
D03*
X346457Y197244D02*
D03*
X393307Y52756D02*
D03*
X376378Y156299D02*
D03*
X377103Y112272D02*
D03*
X337008Y213779D02*
D03*
X241142Y186221D02*
D03*
X241218Y176454D02*
D03*
X241142Y181299D02*
D03*
X237205Y188189D02*
D03*
Y178347D02*
D03*
X237128Y183191D02*
D03*
X154724Y187992D02*
D03*
X134744Y188091D02*
D03*
X135630Y182087D02*
D03*
X109055Y177953D02*
D03*
X332283Y151575D02*
D03*
Y144488D02*
D03*
X332388Y138954D02*
D03*
X306299Y59055D02*
D03*
X241142Y171457D02*
D03*
X237205Y173425D02*
D03*
X234252Y138976D02*
D03*
Y131102D02*
D03*
Y135039D02*
D03*
X312598Y193701D02*
D03*
Y199213D02*
D03*
X307589D02*
D03*
X309842Y203937D02*
D03*
X285039Y161024D02*
D03*
X382677Y290945D02*
D03*
X317323Y95276D02*
D03*
X305512Y96063D02*
D03*
X322047Y91732D02*
D03*
X329921Y90551D02*
D03*
X332283Y102756D02*
D03*
X338583Y90551D02*
D03*
X303150Y100787D02*
D03*
X343307Y170866D02*
D03*
X359055Y175591D02*
D03*
X327165Y181496D02*
D03*
X331496Y191732D02*
D03*
X326772Y171260D02*
D03*
X364173Y37402D02*
D03*
X344488Y39370D02*
D03*
X268504Y91339D02*
D03*
Y98032D02*
D03*
X273228Y94882D02*
D03*
X277559Y98032D02*
D03*
Y91339D02*
D03*
X53150Y237205D02*
D03*
Y230315D02*
D03*
X34449Y238189D02*
D03*
X26575D02*
D03*
X18701D02*
D03*
X9843D02*
D03*
X53150Y223425D02*
D03*
X129528Y223425D02*
D03*
X95079Y236221D02*
D03*
X102953D02*
D03*
X110827D02*
D03*
X129528Y230315D02*
D03*
Y237205D02*
D03*
X206299Y223425D02*
D03*
X171850Y236221D02*
D03*
X179724D02*
D03*
X187598D02*
D03*
X206299Y230315D02*
D03*
Y237205D02*
D03*
X283071Y223425D02*
D03*
X248622Y236221D02*
D03*
X254921Y236221D02*
D03*
X283071Y230315D02*
D03*
Y237205D02*
D03*
X52165Y214173D02*
D03*
X45276D02*
D03*
X73425D02*
D03*
X66535D02*
D03*
X48819Y209842D02*
D03*
X69882Y209646D02*
D03*
X260827Y236221D02*
D03*
X357087Y243701D02*
D03*
X292913Y94488D02*
D03*
X295669Y72835D02*
D03*
X267717Y25591D02*
D03*
Y19685D02*
D03*
X273622D02*
D03*
Y25591D02*
D03*
X279528Y19685D02*
D03*
Y25591D02*
D03*
X299213Y96063D02*
D03*
X296063Y101181D02*
D03*
X309055Y99606D02*
D03*
X257874Y155905D02*
D03*
X261811Y153150D02*
D03*
X257874Y143701D02*
D03*
X261811Y146850D02*
D03*
X257874Y149606D02*
D03*
X260402Y170226D02*
D03*
X354724Y247638D02*
D03*
X351575Y240945D02*
D03*
Y236614D02*
D03*
X357087Y233858D02*
D03*
X351575Y230709D02*
D03*
Y225984D02*
D03*
X289764Y223228D02*
D03*
X405905Y106299D02*
D03*
X412992Y89370D02*
D03*
X373622Y243307D02*
D03*
Y237795D02*
D03*
Y231496D02*
D03*
X371654Y225984D02*
D03*
X410433Y157480D02*
D03*
X351575Y191732D02*
D03*
X408465Y162402D02*
D03*
X357087Y226378D02*
D03*
X23622Y48228D02*
D03*
X47244Y45276D02*
D03*
Y30512D02*
D03*
Y18701D02*
D03*
Y8858D02*
D03*
X35433D02*
D03*
X10827Y38386D02*
D03*
Y47244D02*
D03*
X415354Y166339D02*
D03*
X356277Y57086D02*
D03*
X352537Y57095D02*
D03*
X356299Y61417D02*
D03*
X352559D02*
D03*
X118404Y85433D02*
D03*
X114664D02*
D03*
X122441D02*
D03*
X146235Y129114D02*
D03*
X90551Y92520D02*
D03*
X144882Y209842D02*
D03*
X373622Y249213D02*
D03*
X366929Y41732D02*
D03*
X326368Y241230D02*
D03*
X329134Y257480D02*
D03*
X329528Y266535D02*
D03*
X329921Y276378D02*
D03*
X330269Y308313D02*
D03*
X330289Y287008D02*
D03*
X330207Y292913D02*
D03*
X330072Y298819D02*
D03*
X111024Y202756D02*
D03*
X99213Y194095D02*
D03*
X175000Y149606D02*
D03*
X90158Y151575D02*
D03*
X89764Y145669D02*
D03*
X205512Y142717D02*
D03*
X234252Y9843D02*
D03*
X145472Y88583D02*
D03*
X142520Y111220D02*
D03*
X134547Y110630D02*
D03*
X140551Y133858D02*
D03*
X115945Y140748D02*
D03*
X135630Y88583D02*
D03*
X144488Y106299D02*
D03*
X162205Y141732D02*
D03*
X128740Y128937D02*
D03*
X175000Y9843D02*
D03*
X194685D02*
D03*
X155315D02*
D03*
X67716Y30727D02*
D03*
Y89783D02*
D03*
Y70098D02*
D03*
X89665Y113189D02*
D03*
X67716Y50412D02*
D03*
X66732Y9843D02*
D03*
X86417D02*
D03*
X106102D02*
D03*
X95276Y140748D02*
D03*
X135630Y9843D02*
D03*
X89370Y138779D02*
D03*
X90354Y127953D02*
D03*
X101181Y132874D02*
D03*
X110630Y85433D02*
D03*
X220276Y102362D02*
D03*
X205512Y119094D02*
D03*
X232087Y89567D02*
D03*
X211024Y111024D02*
D03*
X237008Y46260D02*
D03*
Y59055D02*
D03*
Y74803D02*
D03*
X162205Y124016D02*
D03*
X175000Y123031D02*
D03*
X170079D02*
D03*
Y117126D02*
D03*
X175000D02*
D03*
X178937Y111220D02*
D03*
X148425Y106299D02*
D03*
X155486Y125007D02*
D03*
X148425Y102362D02*
D03*
X90354Y100394D02*
D03*
X125394Y101575D02*
D03*
X102165Y107283D02*
D03*
X96260Y88583D02*
D03*
X90354Y121063D02*
D03*
X95276Y107283D02*
D03*
X382677Y286221D02*
D03*
X370472Y291732D02*
D03*
Y285039D02*
D03*
Y277953D02*
D03*
Y271654D02*
D03*
X382677Y275984D02*
D03*
Y281102D02*
D03*
X354396Y37461D02*
D03*
M02*
