G04*
G04 #@! TF.GenerationSoftware,Altium Limited,Altium Designer,26.9.1 (10)*
G04*
G04 Layer_Color=255*
G04 Board_Origin=24507875|15551181*
%FSLAX25Y25*%
%MOIN*%
G70*
G04*
G04 #@! TF.SameCoordinates,84E719DE-5BC6-4521-84A3-B34C6F0F9747*
G04*
G04*
G04 #@! TF.FilePolarity,Positive*
G04*
G01*
G75*
G04:AMPARAMS|DCode=25|XSize=23.62mil|YSize=43.31mil|CornerRadius=5.91mil|HoleSize=0mil|Usage=FLASHONLY|Rotation=270.000|XOffset=0mil|YOffset=0mil|HoleType=Round|Shape=RoundedRectangle|*
%AMROUNDEDRECTD25*
21,1,0.02362,0.03150,0,0,270.0*
21,1,0.01181,0.04331,0,0,270.0*
1,1,0.01181,-0.01575,-0.00591*
1,1,0.01181,-0.01575,0.00591*
1,1,0.01181,0.01575,0.00591*
1,1,0.01181,0.01575,-0.00591*
%
%ADD25ROUNDEDRECTD25*%
%ADD26R,0.02559X0.06496*%
%ADD27O,0.02362X0.05709*%
%ADD28R,0.12992X0.09449*%
%ADD29R,0.05512X0.08661*%
G04:AMPARAMS|DCode=30|XSize=92.52mil|YSize=218.5mil|CornerRadius=11.57mil|HoleSize=0mil|Usage=FLASHONLY|Rotation=270.000|XOffset=0mil|YOffset=0mil|HoleType=Round|Shape=RoundedRectangle|*
%AMROUNDEDRECTD30*
21,1,0.09252,0.19537,0,0,270.0*
21,1,0.06939,0.21850,0,0,270.0*
1,1,0.02313,-0.09769,-0.03470*
1,1,0.02313,-0.09769,0.03470*
1,1,0.02313,0.09769,0.03470*
1,1,0.02313,0.09769,-0.03470*
%
%ADD30ROUNDEDRECTD30*%
%ADD31R,0.04331X0.06693*%
%ADD32R,0.03347X0.03543*%
G04:AMPARAMS|DCode=33|XSize=17.72mil|YSize=62.99mil|CornerRadius=1.95mil|HoleSize=0mil|Usage=FLASHONLY|Rotation=270.000|XOffset=0mil|YOffset=0mil|HoleType=Round|Shape=RoundedRectangle|*
%AMROUNDEDRECTD33*
21,1,0.01772,0.05909,0,0,270.0*
21,1,0.01382,0.06299,0,0,270.0*
1,1,0.00390,-0.02955,-0.00691*
1,1,0.00390,-0.02955,0.00691*
1,1,0.00390,0.02955,0.00691*
1,1,0.00390,0.02955,-0.00691*
%
%ADD33ROUNDEDRECTD33*%
G04:AMPARAMS|DCode=34|XSize=15.75mil|YSize=47.24mil|CornerRadius=1.97mil|HoleSize=0mil|Usage=FLASHONLY|Rotation=270.000|XOffset=0mil|YOffset=0mil|HoleType=Round|Shape=RoundedRectangle|*
%AMROUNDEDRECTD34*
21,1,0.01575,0.04331,0,0,270.0*
21,1,0.01181,0.04724,0,0,270.0*
1,1,0.00394,-0.02165,-0.00591*
1,1,0.00394,-0.02165,0.00591*
1,1,0.00394,0.02165,0.00591*
1,1,0.00394,0.02165,-0.00591*
%
%ADD34ROUNDEDRECTD34*%
%ADD35R,0.01968X0.03740*%
%ADD36O,0.07874X0.01772*%
%ADD37R,0.08559X0.02174*%
G04:AMPARAMS|DCode=38|XSize=85.59mil|YSize=21.74mil|CornerRadius=10.87mil|HoleSize=0mil|Usage=FLASHONLY|Rotation=0.000|XOffset=0mil|YOffset=0mil|HoleType=Round|Shape=RoundedRectangle|*
%AMROUNDEDRECTD38*
21,1,0.08559,0.00000,0,0,0.0*
21,1,0.06386,0.02174,0,0,0.0*
1,1,0.02174,0.03193,0.00000*
1,1,0.02174,-0.03193,0.00000*
1,1,0.02174,-0.03193,0.00000*
1,1,0.02174,0.03193,0.00000*
%
%ADD38ROUNDEDRECTD38*%
%ADD39R,0.07008X0.13780*%
%ADD40R,0.09449X0.11024*%
%ADD41R,0.09843X0.06693*%
%ADD42R,0.03150X0.04724*%
%ADD43R,0.01575X0.07874*%
G04:AMPARAMS|DCode=44|XSize=78.74mil|YSize=15.75mil|CornerRadius=7.87mil|HoleSize=0mil|Usage=FLASHONLY|Rotation=270.000|XOffset=0mil|YOffset=0mil|HoleType=Round|Shape=RoundedRectangle|*
%AMROUNDEDRECTD44*
21,1,0.07874,0.00000,0,0,270.0*
21,1,0.06299,0.01575,0,0,270.0*
1,1,0.01575,0.00000,-0.03150*
1,1,0.01575,0.00000,0.03150*
1,1,0.01575,0.00000,0.03150*
1,1,0.01575,0.00000,-0.03150*
%
%ADD44ROUNDEDRECTD44*%
%ADD45R,0.03937X0.07087*%
%ADD46R,0.02362X0.04724*%
G04:AMPARAMS|DCode=47|XSize=23.62mil|YSize=39.37mil|CornerRadius=2.01mil|HoleSize=0mil|Usage=FLASHONLY|Rotation=180.000|XOffset=0mil|YOffset=0mil|HoleType=Round|Shape=RoundedRectangle|*
%AMROUNDEDRECTD47*
21,1,0.02362,0.03535,0,0,180.0*
21,1,0.01961,0.03937,0,0,180.0*
1,1,0.00402,-0.00980,0.01768*
1,1,0.00402,0.00980,0.01768*
1,1,0.00402,0.00980,-0.01768*
1,1,0.00402,-0.00980,-0.01768*
%
%ADD47ROUNDEDRECTD47*%
%ADD48R,0.06496X0.11811*%
%ADD49R,0.05709X0.04921*%
%ADD50R,0.03740X0.03937*%
%ADD51R,0.03937X0.03740*%
%ADD52R,0.03543X0.03347*%
%ADD53R,0.04921X0.05709*%
%ADD83O,0.11024X0.13386*%
%ADD84O,0.11024X0.13780*%
%ADD85C,0.06181*%
%ADD86R,0.06181X0.06181*%
%ADD91C,0.04000*%
%ADD95R,0.01181X0.05118*%
%AMCUSTOMSHAPE96*
4,1,15,0.01181,-0.02559,0.01181,0.02559,0.01181,0.02559,0.00000,0.02559,0.00000,0.02559,0.00000,0.02559,0.00000,0.02559,-0.01181,0.02559,-0.01181,0.02559,-0.01181,-0.02559,-0.01181,-0.02559,0.00000,-0.02559,0.00000,-0.02559,0.00000,-0.02559,0.00000,-0.02559,0.01181,-0.02559,0.0*%
%ADD96CUSTOMSHAPE96*%

%AMCUSTOMSHAPE97*
4,1,15,0.01181,-0.02559,0.01181,0.02559,0.01181,0.02559,-0.00000,0.02559,-0.00000,0.02559,-0.00000,0.02559,-0.00000,0.02559,-0.01181,0.02559,-0.01181,0.02559,-0.01181,-0.02559,-0.01181,-0.02559,0.00000,-0.02559,0.00000,-0.02559,0.00000,-0.02559,0.00000,-0.02559,0.01181,-0.02559,0.0*%
%ADD97CUSTOMSHAPE97*%

%AMCUSTOMSHAPE98*
4,1,15,0.01181,-0.02559,0.01181,0.02559,0.01181,0.02559,0.00000,0.02559,0.00000,0.02559,0.00000,0.02559,0.00000,0.02559,-0.01181,0.02559,-0.01181,0.02559,-0.01181,-0.02559,-0.01181,-0.02559,0.00000,-0.02559,0.00000,-0.02559,0.00000,-0.02559,0.00000,-0.02559,0.01181,-0.02559,0.0*%
%ADD98CUSTOMSHAPE98*%

%AMCUSTOMSHAPE99*
4,1,15,-0.01181,0.02559,-0.01181,-0.02559,-0.01181,-0.02559,0.00000,-0.02559,0.00000,-0.02559,0.00000,-0.02559,0.00000,-0.02559,0.01181,-0.02559,0.01181,-0.02559,0.01181,0.02559,0.01181,0.02559,0.00000,0.02559,0.00000,0.02559,0.00000,0.02559,0.00000,0.02559,-0.01181,0.02559,0.0*%
%ADD99CUSTOMSHAPE99*%

%AMCUSTOMSHAPE100*
4,1,17,-0.02751,0.04724,-0.00783,0.02756,-0.00783,0.02756,-0.02751,0.00787,-0.00171,0.00787,-0.00171,-0.00787,-0.02751,-0.00787,-0.00783,-0.02756,-0.00783,-0.02756,-0.02751,-0.04724,0.02461,-0.04724,0.02461,-0.00787,0.01077,-0.00787,0.01077,0.00787,0.02461,0.00787,0.02461,0.04724,0.02461,0.04724,-0.02751,0.04724,0.0*%
%ADD100CUSTOMSHAPE100*%

%AMCUSTOMSHAPE101*
4,1,8,-0.00984,0.01968,0.00487,0.01968,0.00487,0.01968,0.02456,0.00000,0.02456,0.00000,0.00487,-0.01968,-0.02362,-0.01968,-0.02362,0.01968,-0.00984,0.01968,0.0*%
%ADD101CUSTOMSHAPE101*%

%AMCUSTOMSHAPE102*
4,1,8,-0.00984,0.01968,0.00487,0.01968,0.00487,0.01968,0.02456,0.00000,0.02456,0.00000,0.00487,-0.01968,-0.02362,-0.01968,-0.02362,0.01968,-0.00984,0.01968,0.0*%
%ADD102CUSTOMSHAPE102*%

%ADD103R,0.01968X0.01968*%
%AMCUSTOMSHAPE104*
4,1,17,0.02751,-0.04724,0.00783,-0.02756,0.00783,-0.02756,0.02751,-0.00787,0.00171,-0.00787,0.00171,0.00787,0.02751,0.00787,0.00783,0.02756,0.00783,0.02756,0.02751,0.04724,-0.02461,0.04724,-0.02461,0.00787,-0.01077,0.00787,-0.01077,-0.00787,-0.02461,-0.00787,-0.02461,-0.04724,-0.02461,-0.04724,0.02751,-0.04724,0.0*%
%ADD104CUSTOMSHAPE104*%

%AMCUSTOMSHAPE105*
4,1,8,0.00984,-0.01968,-0.00487,-0.01968,-0.00487,-0.01968,-0.02456,0.00000,-0.02456,0.00000,-0.00487,0.01968,0.02362,0.01968,0.02362,-0.01968,0.00984,-0.01968,0.0*%
%ADD105CUSTOMSHAPE105*%

%AMCUSTOMSHAPE106*
4,1,8,0.00984,-0.01968,-0.00487,-0.01968,-0.00487,-0.01968,-0.02456,0.00000,-0.02456,0.00000,-0.00487,0.01968,0.02362,0.01968,0.02362,-0.01968,0.00984,-0.01968,0.0*%
%ADD106CUSTOMSHAPE106*%

%AMCUSTOMSHAPE107*
4,1,17,-0.04724,-0.02751,-0.02756,-0.00783,-0.02756,-0.00783,-0.00787,-0.02751,-0.00787,-0.00171,0.00787,-0.00171,0.00787,-0.02751,0.02756,-0.00783,0.02756,-0.00783,0.04724,-0.02751,0.04724,0.02461,0.00787,0.02461,0.00787,0.01077,-0.00787,0.01077,-0.00787,0.02461,-0.04724,0.02461,-0.04724,0.02461,-0.04724,-0.02751,0.0*%
%ADD107CUSTOMSHAPE107*%

%AMCUSTOMSHAPE108*
4,1,8,-0.01968,-0.00984,-0.01968,0.00487,-0.01968,0.00487,0.00000,0.02456,0.00000,0.02456,0.01968,0.00487,0.01968,-0.02362,-0.01968,-0.02362,-0.01968,-0.00984,0.0*%
%ADD108CUSTOMSHAPE108*%

%AMCUSTOMSHAPE109*
4,1,8,-0.01968,-0.00984,-0.01968,0.00487,-0.01968,0.00487,0.00000,0.02456,0.00000,0.02456,0.01968,0.00487,0.01968,-0.02362,-0.01968,-0.02362,-0.01968,-0.00984,0.0*%
%ADD109CUSTOMSHAPE109*%

%ADD124O,0.06693X0.06693*%
G04:AMPARAMS|DCode=125|XSize=66.93mil|YSize=66.93mil|CornerRadius=16.73mil|HoleSize=0mil|Usage=FLASHONLY|Rotation=180.000|XOffset=0mil|YOffset=0mil|HoleType=Round|Shape=RoundedRectangle|*
%AMROUNDEDRECTD125*
21,1,0.06693,0.03347,0,0,180.0*
21,1,0.03347,0.06693,0,0,180.0*
1,1,0.03346,-0.01673,0.01673*
1,1,0.03346,0.01673,0.01673*
1,1,0.03346,0.01673,-0.01673*
1,1,0.03346,-0.01673,-0.01673*
%
%ADD125ROUNDEDRECTD125*%
%ADD126O,0.04331X0.07480*%
%ADD127O,0.04331X0.08661*%
%ADD128R,0.07087X0.09055*%
%ADD129O,0.07087X0.09055*%
%ADD130C,0.25600*%
%ADD131C,0.05071*%
%ADD132R,0.05071X0.05071*%
%ADD133R,0.07087X0.07087*%
%ADD134C,0.07087*%
%ADD135C,0.06496*%
G04:AMPARAMS|DCode=136|XSize=70.87mil|YSize=70.87mil|CornerRadius=17.72mil|HoleSize=0mil|Usage=FLASHONLY|Rotation=180.000|XOffset=0mil|YOffset=0mil|HoleType=Round|Shape=RoundedRectangle|*
%AMROUNDEDRECTD136*
21,1,0.07087,0.03543,0,0,180.0*
21,1,0.03543,0.07087,0,0,180.0*
1,1,0.03543,-0.01772,0.01772*
1,1,0.03543,0.01772,0.01772*
1,1,0.03543,0.01772,-0.01772*
1,1,0.03543,-0.01772,-0.01772*
%
%ADD136ROUNDEDRECTD136*%
D25*
X241339Y142126D02*
D03*
X251575D02*
D03*
Y134646D02*
D03*
X241339D02*
D03*
X251575Y138386D02*
D03*
D26*
X99213Y144783D02*
D03*
Y170177D02*
D03*
X104134Y144783D02*
D03*
X109055D02*
D03*
Y170177D02*
D03*
X145472D02*
D03*
X150394Y144783D02*
D03*
X140551D02*
D03*
Y170177D02*
D03*
X150394D02*
D03*
X119882Y144783D02*
D03*
X124803D02*
D03*
X129724D02*
D03*
Y170177D02*
D03*
X119882D02*
D03*
D27*
X108937Y108366D02*
D03*
X113937D02*
D03*
X118937D02*
D03*
X123937Y129823D02*
D03*
X113937D02*
D03*
X118937D02*
D03*
X108937D02*
D03*
X123937Y108366D02*
D03*
D28*
X35433Y109449D02*
D03*
Y83465D02*
D03*
D29*
X365354Y205906D02*
D03*
D30*
X277559Y80216D02*
D03*
Y53642D02*
D03*
D31*
X77165Y205709D02*
D03*
X88189D02*
D03*
D32*
X304232Y78740D02*
D03*
X298130D02*
D03*
X134547Y123031D02*
D03*
X140650D02*
D03*
X113779Y96457D02*
D03*
X107677D02*
D03*
X336910Y292913D02*
D03*
X343012D02*
D03*
X101279Y113189D02*
D03*
X95177D02*
D03*
X117028Y202756D02*
D03*
X123130D02*
D03*
X125394Y96457D02*
D03*
X119291D02*
D03*
X101279Y121063D02*
D03*
X95177D02*
D03*
X246949Y149409D02*
D03*
X253051D02*
D03*
X336910Y263386D02*
D03*
X343012D02*
D03*
X336910Y275197D02*
D03*
X343012D02*
D03*
X336910Y287008D02*
D03*
X343012D02*
D03*
X336910Y298819D02*
D03*
X343012D02*
D03*
X373917Y302165D02*
D03*
X367815D02*
D03*
X336910Y269291D02*
D03*
X343012D02*
D03*
X83760Y92520D02*
D03*
X77658D02*
D03*
X336910Y281102D02*
D03*
X343012D02*
D03*
X123130Y196850D02*
D03*
X117028D02*
D03*
X336910Y304724D02*
D03*
X343012D02*
D03*
X343438Y144626D02*
D03*
X337335D02*
D03*
X343438Y138721D02*
D03*
X337335D02*
D03*
X367441Y128902D02*
D03*
X361338D02*
D03*
X253051Y156299D02*
D03*
X246949D02*
D03*
X300098Y17717D02*
D03*
X306201D02*
D03*
X311910Y84646D02*
D03*
X318012D02*
D03*
Y78740D02*
D03*
X311910D02*
D03*
X304232Y84646D02*
D03*
X298130D02*
D03*
D33*
X365158Y219980D02*
D03*
Y217421D02*
D03*
Y243012D02*
D03*
X341142Y235335D02*
D03*
Y232776D02*
D03*
Y222539D02*
D03*
Y219980D02*
D03*
Y230217D02*
D03*
X365158Y235335D02*
D03*
Y225098D02*
D03*
Y222539D02*
D03*
Y227658D02*
D03*
Y230217D02*
D03*
Y232776D02*
D03*
Y237894D02*
D03*
Y240453D02*
D03*
X341142Y225098D02*
D03*
Y227658D02*
D03*
Y237894D02*
D03*
Y240453D02*
D03*
Y243012D02*
D03*
Y245571D02*
D03*
Y217421D02*
D03*
X365158Y245571D02*
D03*
D34*
X354724Y293898D02*
D03*
Y291339D02*
D03*
Y288779D02*
D03*
Y286221D02*
D03*
Y281102D02*
D03*
Y275984D02*
D03*
X377165Y270866D02*
D03*
X354724Y283661D02*
D03*
Y278543D02*
D03*
Y270866D02*
D03*
X377165Y281102D02*
D03*
Y283661D02*
D03*
Y278543D02*
D03*
Y286221D02*
D03*
Y291339D02*
D03*
Y288779D02*
D03*
Y275984D02*
D03*
Y273425D02*
D03*
X354724D02*
D03*
X377165Y293898D02*
D03*
D35*
X120079Y180610D02*
D03*
X122638Y189469D02*
D03*
X117520D02*
D03*
D36*
X344094Y188091D02*
D03*
Y185531D02*
D03*
Y182973D02*
D03*
Y180413D02*
D03*
X361417D02*
D03*
Y182973D02*
D03*
Y185531D02*
D03*
Y188091D02*
D03*
D37*
X355334Y151201D02*
D03*
D38*
Y146201D02*
D03*
Y141201D02*
D03*
X373965Y146201D02*
D03*
Y136201D02*
D03*
Y141201D02*
D03*
Y151201D02*
D03*
X355334Y136201D02*
D03*
D39*
X305571Y112205D02*
D03*
X284980D02*
D03*
X246516Y210630D02*
D03*
X225925D02*
D03*
D40*
X303937Y149606D02*
D03*
X278740D02*
D03*
D41*
X285433Y131890D02*
D03*
X301181D02*
D03*
X282677Y199213D02*
D03*
X298425D02*
D03*
X286614Y214173D02*
D03*
X302362D02*
D03*
D42*
X361417Y262992D02*
D03*
X354331D02*
D03*
X262205Y197244D02*
D03*
X269291D02*
D03*
D43*
X386409Y96659D02*
D03*
D44*
X383850D02*
D03*
X381291D02*
D03*
X376172D02*
D03*
X373613D02*
D03*
X368495D02*
D03*
X365936D02*
D03*
X363377D02*
D03*
X360818D02*
D03*
X358259D02*
D03*
X355700D02*
D03*
X353141D02*
D03*
Y69100D02*
D03*
X355700D02*
D03*
X358259D02*
D03*
X363377D02*
D03*
X371054D02*
D03*
X373613D02*
D03*
X376172D02*
D03*
X383850D02*
D03*
X386409D02*
D03*
X365936D02*
D03*
X378731Y96659D02*
D03*
X360818Y69100D02*
D03*
X368495D02*
D03*
X371054Y96659D02*
D03*
X378731Y69100D02*
D03*
X381291D02*
D03*
D45*
X275590Y214173D02*
D03*
X264567D02*
D03*
D46*
X358071Y42297D02*
D03*
X354331D02*
D03*
X350590D02*
D03*
Y51352D02*
D03*
X358071D02*
D03*
X354331D02*
D03*
D47*
X288779Y28051D02*
D03*
X292520Y38878D02*
D03*
X296260D02*
D03*
Y28051D02*
D03*
X288779Y38878D02*
D03*
X292520Y28051D02*
D03*
D48*
X150886Y115157D02*
D03*
X161713D02*
D03*
D49*
X385827Y52559D02*
D03*
Y45866D02*
D03*
X239370Y166142D02*
D03*
Y159449D02*
D03*
X162205Y184252D02*
D03*
Y190945D02*
D03*
X234252Y144291D02*
D03*
Y150984D02*
D03*
D50*
X286319Y17717D02*
D03*
X292421D02*
D03*
X154232Y103346D02*
D03*
X160335D02*
D03*
X140650Y128937D02*
D03*
X134547D02*
D03*
X95177Y127953D02*
D03*
X101279D02*
D03*
X140650Y116142D02*
D03*
X134547D02*
D03*
X360925Y302165D02*
D03*
X354823D02*
D03*
X211713Y204724D02*
D03*
X205610D02*
D03*
X260433Y137055D02*
D03*
X266535D02*
D03*
X340033Y70478D02*
D03*
X333930D02*
D03*
X377067Y107087D02*
D03*
X370965D02*
D03*
D51*
X155315Y135925D02*
D03*
Y129823D02*
D03*
X162205Y135925D02*
D03*
Y129823D02*
D03*
X140551Y181988D02*
D03*
Y188091D02*
D03*
X402559Y286516D02*
D03*
Y280413D02*
D03*
X378740Y208563D02*
D03*
Y202461D02*
D03*
X378812Y53056D02*
D03*
Y46954D02*
D03*
X33465Y50984D02*
D03*
Y57087D02*
D03*
X350394Y173130D02*
D03*
Y167028D02*
D03*
X333465Y208957D02*
D03*
Y202854D02*
D03*
X375590Y161909D02*
D03*
Y168012D02*
D03*
D52*
X148819Y181988D02*
D03*
Y188091D02*
D03*
X99213Y188091D02*
D03*
Y181988D02*
D03*
X129921Y181988D02*
D03*
Y188091D02*
D03*
X358268Y208957D02*
D03*
Y202854D02*
D03*
X41339Y50984D02*
D03*
Y57087D02*
D03*
X378740Y217028D02*
D03*
Y223130D02*
D03*
Y229626D02*
D03*
Y235728D02*
D03*
X372907Y53056D02*
D03*
Y46954D02*
D03*
X367001D02*
D03*
Y53056D02*
D03*
X324410Y22539D02*
D03*
Y28642D02*
D03*
X389700Y22149D02*
D03*
Y28251D02*
D03*
X352756Y208957D02*
D03*
Y202854D02*
D03*
X306299Y48130D02*
D03*
Y54232D02*
D03*
X299213Y48130D02*
D03*
Y54232D02*
D03*
D53*
X260138Y120323D02*
D03*
X266831D02*
D03*
X367520Y262992D02*
D03*
X374213D02*
D03*
X260138Y129181D02*
D03*
X266831D02*
D03*
X243504Y196850D02*
D03*
X236811D02*
D03*
D83*
X136535Y69764D02*
D03*
X124055Y49764D02*
D03*
X109055D02*
D03*
X94055D02*
D03*
X124055Y69764D02*
D03*
X109055D02*
D03*
X94055D02*
D03*
X81575D02*
D03*
X222480Y67520D02*
D03*
Y50000D02*
D03*
X207480Y52520D02*
D03*
X192480Y50000D02*
D03*
X239961Y27480D02*
D03*
X180000Y52520D02*
D03*
X192480Y67520D02*
D03*
D84*
X207480D02*
D03*
D85*
X423228Y59370D02*
D03*
Y69370D02*
D03*
Y89370D02*
D03*
Y99370D02*
D03*
Y79370D02*
D03*
Y49370D02*
D03*
Y109370D02*
D03*
Y186535D02*
D03*
Y196535D02*
D03*
Y206535D02*
D03*
Y216535D02*
D03*
X407480Y49370D02*
D03*
X423228Y241496D02*
D03*
Y251496D02*
D03*
Y261496D02*
D03*
Y271496D02*
D03*
Y281496D02*
D03*
X407480Y196850D02*
D03*
X423228Y151417D02*
D03*
Y131417D02*
D03*
Y141417D02*
D03*
Y161417D02*
D03*
D86*
Y39370D02*
D03*
Y176535D02*
D03*
X407480Y39370D02*
D03*
X423228Y231496D02*
D03*
X407480Y186850D02*
D03*
X423228Y121417D02*
D03*
D91*
X49921Y182598D02*
D03*
D95*
X363287Y27829D02*
D03*
X361317D02*
D03*
X359350D02*
D03*
X357381Y27829D02*
D03*
X355413Y27829D02*
D03*
X353444Y27829D02*
D03*
X351476Y27829D02*
D03*
X349507D02*
D03*
D96*
X365847Y27829D02*
D03*
D97*
X346949Y27828D02*
D03*
D98*
X343799Y27829D02*
D03*
D99*
X368996Y27829D02*
D03*
D100*
X342520Y82677D02*
D03*
X342355Y154469D02*
D03*
X343209Y99213D02*
D03*
D101*
X337894Y79921D02*
D03*
X337729Y151713D02*
D03*
X338583Y96457D02*
D03*
D102*
X337894Y85433D02*
D03*
X337729Y157224D02*
D03*
X338583Y101969D02*
D03*
D103*
X202067Y178347D02*
D03*
X227067D02*
D03*
D104*
X250000Y167323D02*
D03*
D105*
X254626Y164567D02*
D03*
D106*
Y170079D02*
D03*
D107*
X343307Y208169D02*
D03*
D108*
X346063Y203543D02*
D03*
D109*
X340551D02*
D03*
D124*
X390866Y226063D02*
D03*
Y216063D02*
D03*
X320866Y296063D02*
D03*
Y276063D02*
D03*
Y266063D02*
D03*
Y256063D02*
D03*
Y246063D02*
D03*
Y226063D02*
D03*
Y216063D02*
D03*
Y206063D02*
D03*
Y196063D02*
D03*
Y176063D02*
D03*
Y166063D02*
D03*
Y156063D02*
D03*
Y146063D02*
D03*
Y126063D02*
D03*
Y116063D02*
D03*
X390866D02*
D03*
Y126063D02*
D03*
Y146063D02*
D03*
Y156063D02*
D03*
Y166063D02*
D03*
Y176063D02*
D03*
Y196063D02*
D03*
Y206063D02*
D03*
Y246063D02*
D03*
Y256063D02*
D03*
Y266063D02*
D03*
Y276063D02*
D03*
Y296063D02*
D03*
Y306063D02*
D03*
X320866Y136063D02*
D03*
Y186063D02*
D03*
Y236063D02*
D03*
Y286063D02*
D03*
X390866Y186063D02*
D03*
Y136063D02*
D03*
Y236063D02*
D03*
Y286063D02*
D03*
D125*
X320866Y306063D02*
D03*
D126*
X339370Y8347D02*
D03*
X373425D02*
D03*
D127*
X339370Y24803D02*
D03*
X373425D02*
D03*
D128*
X274803Y172047D02*
D03*
D129*
X294882D02*
D03*
X284646D02*
D03*
D130*
X15748Y15748D02*
D03*
D131*
X187795Y139291D02*
D03*
Y119291D02*
D03*
Y129291D02*
D03*
Y169291D02*
D03*
D132*
Y179291D02*
D03*
D133*
X301181Y251969D02*
D03*
X108268Y269685D02*
D03*
X70472Y251575D02*
D03*
X147638Y251969D02*
D03*
X224410D02*
D03*
X31496Y269685D02*
D03*
X185039D02*
D03*
X261811D02*
D03*
D134*
X281496Y251969D02*
D03*
X137008Y302756D02*
D03*
X127165D02*
D03*
X88583Y269685D02*
D03*
X50787Y251575D02*
D03*
X127953Y251969D02*
D03*
X204724D02*
D03*
X11811Y269685D02*
D03*
X165354D02*
D03*
X242126D02*
D03*
X98425Y302756D02*
D03*
X88583D02*
D03*
X59842D02*
D03*
X50000D02*
D03*
X21260D02*
D03*
X11417D02*
D03*
X291339D02*
D03*
X281496D02*
D03*
X252756D02*
D03*
X242913D02*
D03*
X214173D02*
D03*
X204331D02*
D03*
X175591D02*
D03*
X165748D02*
D03*
D135*
X46063Y177559D02*
D03*
Y165748D02*
D03*
Y153937D02*
D03*
Y142126D02*
D03*
X34252D02*
D03*
Y165748D02*
D03*
Y153937D02*
D03*
Y177559D02*
D03*
D136*
X146850Y302756D02*
D03*
X108268D02*
D03*
X69685D02*
D03*
X31102D02*
D03*
X301181D02*
D03*
X262598D02*
D03*
X224016D02*
D03*
X185433D02*
D03*
M02*
