G04*
G04 #@! TF.GenerationSoftware,Altium Limited,Altium Designer,26.9.1 (10)*
G04*
G04 Layer_Color=16711935*
G04 Board_Origin=24507875|15551181*
%FSLAX25Y25*%
%MOIN*%
G70*
G04*
G04 #@! TF.SameCoordinates,E31FBE90-4C1D-45C5-8F2B-B1877BC71EBF*
G04*
G04*
G04 #@! TF.FilePolarity,Positive*
G04*
G01*
G75*
%ADD20C,0.00591*%
%ADD146C,0.00236*%
D20*
X433071Y315866D02*
G03*
X428071Y320866I-5000J0D01*
G01*
X5000D02*
G03*
X-0Y315866I0J-5000D01*
G01*
X428071Y-0D02*
G03*
X433071Y5000I0J5000D01*
G01*
X-0D02*
G03*
X5000Y-0I5000J0D01*
G01*
Y135827D02*
G03*
X-0Y130827I0J-5000D01*
G01*
Y182165D02*
G03*
X5000Y177165I5000J0D01*
G01*
X19685Y172165D02*
G03*
X14685Y177165I-5000J0D01*
G01*
Y135827D02*
G03*
X19685Y140827I0J5000D01*
G01*
X5000Y320866D02*
X428071D01*
X-0Y315866D02*
Y315866D01*
X428071Y-0D02*
X428071D01*
X5000D02*
X428071D01*
X-0Y5000D02*
Y130827D01*
X433071Y315866D02*
X433071Y5000D01*
X-0Y182165D02*
Y315866D01*
X5000Y135827D02*
X9843D01*
X5000Y177165D02*
X14685D01*
X19685Y140827D02*
Y172165D01*
X9843Y135827D02*
X14685D01*
D146*
X291445Y30965D02*
X292757D01*
X293020Y31227D01*
Y31752D01*
X292757Y32014D01*
X291445D01*
X293020Y32539D02*
Y33064D01*
Y32801D01*
X291445D01*
X291708Y32539D01*
X293020Y34638D02*
X291445D01*
X292232Y33851D01*
Y34900D01*
M02*
