G04*
G04 #@! TF.GenerationSoftware,Altium Limited,Altium Designer,26.9.1 (10)*
G04*
G04 Layer_Color=16711935*
G04 Board_Origin=24507875|15551181*
%FSLAX25Y25*%
%MOIN*%
G70*
G04*
G04 #@! TF.SameCoordinates,84E719DE-5BC6-4521-84A3-B34C6F0F9747*
G04*
G04*
G04 #@! TF.FilePolarity,Negative*
G04*
G01*
G75*
%ADD77C,0.00800*%
%ADD78O,0.05118X0.08268*%
%ADD79O,0.05118X0.09449*%
%ADD80R,0.07887X0.09855*%
%ADD81O,0.07887X0.09855*%
%ADD82C,0.26400*%
%ADD83O,0.11024X0.13386*%
%ADD84O,0.11024X0.13780*%
%ADD85C,0.06181*%
%ADD86R,0.06181X0.06181*%
%ADD87C,0.05871*%
%ADD88R,0.05871X0.05871*%
%ADD89R,0.07887X0.07887*%
%ADD90C,0.07887*%
%ADD91C,0.04000*%
%ADD92C,0.07296*%
G04:AMPARAMS|DCode=93|XSize=78.87mil|YSize=78.87mil|CornerRadius=21.72mil|HoleSize=0mil|Usage=FLASHONLY|Rotation=180.000|XOffset=0mil|YOffset=0mil|HoleType=Round|Shape=RoundedRectangle|*
%AMROUNDEDRECTD93*
21,1,0.07887,0.03543,0,0,180.0*
21,1,0.03543,0.07887,0,0,180.0*
1,1,0.04343,-0.01772,0.01772*
1,1,0.04343,0.01772,0.01772*
1,1,0.04343,0.01772,-0.01772*
1,1,0.04343,-0.01772,-0.01772*
%
%ADD93ROUNDEDRECTD93*%
%ADD94C,0.03753*%
%ADD142R,0.22850X0.09858*%
%ADD143R,0.09858X0.22850*%
%ADD144C,0.07493*%
G04:AMPARAMS|DCode=145|XSize=74.93mil|YSize=74.93mil|CornerRadius=20.73mil|HoleSize=0mil|Usage=FLASHONLY|Rotation=180.000|XOffset=0mil|YOffset=0mil|HoleType=Round|Shape=RoundedRectangle|*
%AMROUNDEDRECTD145*
21,1,0.07493,0.03347,0,0,180.0*
21,1,0.03347,0.07493,0,0,180.0*
1,1,0.04147,-0.01673,0.01673*
1,1,0.04147,0.01673,0.01673*
1,1,0.04147,0.01673,-0.01673*
1,1,0.04147,-0.01673,-0.01673*
%
%ADD145ROUNDEDRECTD145*%
D77*
X367814Y22835D02*
D03*
X344980D02*
D03*
X15748Y200787D02*
D03*
X417323Y303150D02*
D03*
Y15748D02*
D03*
D78*
X339370Y8347D02*
D03*
X373425D02*
D03*
D79*
X339370Y24803D02*
D03*
X373425D02*
D03*
D80*
X274803Y172047D02*
D03*
D81*
X294882D02*
D03*
X284646D02*
D03*
D82*
X15748Y15748D02*
D03*
D83*
X136535Y69764D02*
D03*
X124055Y49764D02*
D03*
X109055D02*
D03*
X94055D02*
D03*
X124055Y69764D02*
D03*
X109055D02*
D03*
X94055D02*
D03*
X81575D02*
D03*
X222480Y67520D02*
D03*
Y50000D02*
D03*
X207480Y52520D02*
D03*
X192480Y50000D02*
D03*
X239961Y27480D02*
D03*
X180000Y52520D02*
D03*
X192480Y67520D02*
D03*
D84*
X207480D02*
D03*
D85*
X423228Y59370D02*
D03*
Y69370D02*
D03*
Y89370D02*
D03*
Y99370D02*
D03*
Y79370D02*
D03*
Y49370D02*
D03*
Y109370D02*
D03*
Y186535D02*
D03*
Y196535D02*
D03*
Y206535D02*
D03*
Y216535D02*
D03*
X407480Y49370D02*
D03*
X423228Y241496D02*
D03*
Y251496D02*
D03*
Y261496D02*
D03*
Y271496D02*
D03*
Y281496D02*
D03*
X407480Y196850D02*
D03*
X423228Y151417D02*
D03*
Y131417D02*
D03*
Y141417D02*
D03*
Y161417D02*
D03*
D86*
Y39370D02*
D03*
Y176535D02*
D03*
X407480Y39370D02*
D03*
X423228Y231496D02*
D03*
X407480Y186850D02*
D03*
X423228Y121417D02*
D03*
D87*
X187795Y139291D02*
D03*
Y119291D02*
D03*
Y129291D02*
D03*
Y169291D02*
D03*
D88*
Y179291D02*
D03*
D89*
X301181Y251969D02*
D03*
X108268Y269685D02*
D03*
X70472Y251575D02*
D03*
X147638Y251969D02*
D03*
X224410D02*
D03*
X31496Y269685D02*
D03*
X185039D02*
D03*
X261811D02*
D03*
D90*
X281496Y251969D02*
D03*
X137008Y302756D02*
D03*
X127165D02*
D03*
X88583Y269685D02*
D03*
X50787Y251575D02*
D03*
X127953Y251969D02*
D03*
X204724D02*
D03*
X11811Y269685D02*
D03*
X165354D02*
D03*
X242126D02*
D03*
X98425Y302756D02*
D03*
X88583D02*
D03*
X59842D02*
D03*
X50000D02*
D03*
X21260D02*
D03*
X11417D02*
D03*
X291339D02*
D03*
X281496D02*
D03*
X252756D02*
D03*
X242913D02*
D03*
X214173D02*
D03*
X204331D02*
D03*
X175591D02*
D03*
X165748D02*
D03*
D91*
X49921Y182598D02*
D03*
D92*
X46063Y177559D02*
D03*
Y165748D02*
D03*
Y153937D02*
D03*
Y142126D02*
D03*
X34252D02*
D03*
Y165748D02*
D03*
Y153937D02*
D03*
Y177559D02*
D03*
D93*
X146850Y302756D02*
D03*
X108268D02*
D03*
X69685D02*
D03*
X31102D02*
D03*
X301181D02*
D03*
X262598D02*
D03*
X224016D02*
D03*
X185433D02*
D03*
D94*
X312598Y193701D02*
D03*
Y199213D02*
D03*
X307589D02*
D03*
X309842Y203937D02*
D03*
D142*
X19685Y257087D02*
D03*
Y227953D02*
D03*
X249016Y254724D02*
D03*
Y225590D02*
D03*
X173699Y254724D02*
D03*
Y225590D02*
D03*
X96279Y254724D02*
D03*
Y225590D02*
D03*
D143*
X298965Y231471D02*
D03*
X269831D02*
D03*
X225332Y232283D02*
D03*
X196199D02*
D03*
X148081D02*
D03*
X118947D02*
D03*
X72183Y232087D02*
D03*
X43049D02*
D03*
D144*
X390866Y226063D02*
D03*
Y216063D02*
D03*
X320866Y296063D02*
D03*
Y276063D02*
D03*
Y266063D02*
D03*
Y256063D02*
D03*
Y246063D02*
D03*
Y226063D02*
D03*
Y216063D02*
D03*
Y206063D02*
D03*
Y196063D02*
D03*
Y176063D02*
D03*
Y166063D02*
D03*
Y156063D02*
D03*
Y146063D02*
D03*
Y126063D02*
D03*
Y116063D02*
D03*
X390866D02*
D03*
Y126063D02*
D03*
Y146063D02*
D03*
Y156063D02*
D03*
Y166063D02*
D03*
Y176063D02*
D03*
Y196063D02*
D03*
Y206063D02*
D03*
Y246063D02*
D03*
Y256063D02*
D03*
Y266063D02*
D03*
Y276063D02*
D03*
Y296063D02*
D03*
Y306063D02*
D03*
X320866Y136063D02*
D03*
Y186063D02*
D03*
Y236063D02*
D03*
Y286063D02*
D03*
X390866Y186063D02*
D03*
Y136063D02*
D03*
Y236063D02*
D03*
Y286063D02*
D03*
D145*
X320866Y306063D02*
D03*
M02*
