M48
;Layer_Color=9474304
;FILE_FORMAT=2:4
INCH,TZ
;TYPE=PLATED
T01F00S00C0.0157
T03F00S00C0.0307
T04F00S00C0.0394
T05F00S00C0.0402
T06F00S00C0.0433
T07F00S00C0.0453
T08F00S00C0.0630
T09F00S00C0.1340
%
T01
X62894Y16142
X64075Y16732
Y19488
X63087Y19619
X63481Y18895
X63839Y20827
X62657Y21654
X65807Y24488
X65098Y26181
X62218Y26778
X61086Y26263
X61357Y23483
X60590
X62381
X60532Y21654
Y21260
X60136Y21260
X59762Y21261
X59350Y21260
Y21654
X59764Y21693
X60138
X59940Y20273
X59947Y19297
X60925Y19291
X61201Y19724
X61791
X62386Y19728
X61909Y19094
X58957Y19488
X58366Y19094
X56952Y18934
X56398Y20079
X55138Y21457
X54429
X54587Y22835
X54075
X55689
X56240Y25079
X56713Y24724
X57500Y24606
X58366
X57736Y25827
X55413Y25512
X54823Y25630
X55059Y25157
X54429
X53799Y25000
X54114Y25669
X52264Y25354
Y24685
X51831Y25039
X51358Y25354
Y24685
X50295Y24803
X50413Y23425
Y21850
Y20276
Y18701
X51280Y18110
Y17520
X51870
Y18110
X52461
Y17520
X53755Y17840
X53754Y16821
X55128Y17805
X56398Y16732
X57185Y16142
X60138
X57901Y22117
X57747Y29447
X57736Y30000
Y30709
X59193Y28819
X60020Y28465
X62146Y31181
X51476
Y30512
X51437Y29803
X50689Y30236
Y30866
X50295Y31142
Y30512
Y29921
X48642Y30709
X47933Y29449
Y29055
Y28661
X46909Y28622
X47146Y27953
X47933Y27165
X48720Y26378
X49508Y25591
X47717Y24508
X48209Y23031
Y21457
Y20177
X47933Y16535
X50413Y17126
X51988Y27087
Y28110
X51949Y28976
X49154Y28346
X46831Y29528
X46870Y30551
X45059Y29823
Y27461
X45610Y26654
X46535Y25787
X42402Y26673
X42008Y27264
X41516
Y27854
X42008
X40728Y27953
X40057Y28052
X39131Y28463
X38563Y28937
X37382Y28445
X37963Y26614
X38760Y26673
X38957Y26181
X39350
Y25787
X39055Y24409
X38071
X36752Y24094
X36348
X35974
X35571
X34134Y24409
X33563Y24803
X33543Y25591
X34035Y26280
X34724Y26280
X33474Y26870
X33543Y27657
Y28346
X33445Y29429
X33484Y30118
X33524Y30709
X34035Y29626
X34626Y28839
X36102Y29626
X32087Y29035
Y30217
X31280Y24529
Y22561
Y20592
Y18624
X33150Y16535
X35118
X38071
X40039
X42008
X43976
X42008Y30512
X40728Y29724
X37047Y25709
X31201Y26378
X30020Y25394
X29232Y22835
X28642
X28051
X27461
X26870
X27461Y21939
X28051
X28642
X29232
X29232Y20079
Y18602
Y17421
Y16437
X28051
X31181Y16535
X26870Y20374
X25591Y20276
Y19390
X27165Y27461
Y28150
X27362Y29035
Y30315
Y31496
Y32677
X27953Y34449
Y35039
X29390Y36535
X29724Y36969
X29035
X29823Y37894
Y38583
Y39272
X27953Y39370
X27165
X26378
X25492
X31161Y36969
X31850
X31496Y36516
X33957Y36220
X34823
X35610Y35827
X35728Y35236
Y34843
Y34252
X35413Y33346
X35925Y33071
Y32480
X38091
X38071Y33760
X37982Y34360
X38130Y35236
X38681
X38996Y36535
X40098Y36220
X40453Y35433
X41043
X41516Y36220
X42972
X44587
Y35630
X45138Y37894
Y38583
Y39272
X43268Y39173
X42480
X41693
X37461Y39272
Y38583
Y37894
X35591Y39173
X34803
X34016
X33563Y35433
X34429Y34961
X33563Y33858
Y32480
X32087Y32874
Y31594
X40433Y32480
X41614
X39941Y33189
X39980Y34350
X46870Y31535
X49035Y31614
X48622Y32697
X48630Y33197
X48622Y33681
Y34173
X48228Y34370
X48221Y33870
X48228Y33386
Y32894
X50548Y32574
X53012Y31654
X57736Y31260
X57185Y32677
X57224Y33701
X57657Y34724
X57972Y34449
X57815Y35276
X59154
X59783Y35315
X60335
X59665Y34724
X58996Y33110
X58839Y32638
X58996Y32165
X60413Y33110
X61752Y32835
X62382Y35276
X61673Y38150
X61870Y38701
Y39331
Y39882
X62382Y39843
X61870Y40472
X61083Y40512
X59980Y40315
X60217Y39921
X59665Y39646
Y39213
Y38622
Y38150
X60217Y38189
Y38937
X57145Y39674
X57421Y41299
X57461Y42205
X57500Y43189
X57537Y44252
X57529Y44843
X57515Y45433
X57535Y46383
X59941Y46260
X62461Y46024
X61555Y44724
Y44055
Y43346
Y42717
X60532Y42953
X58209Y36929
X55492Y35945
X55267Y35472
X55768
Y34921
X53484Y37874
X52815Y37894
Y38583
Y39272
X50591Y39173
X50000
X49370Y39173
X47539Y35236
X62854Y37835
X62598Y41831
X62776Y43150
Y43661
Y44173
Y44646
X65354Y31791
X65551Y31299
X66043Y32185
T03
X43287Y27480
Y28480
Y29480
Y32480
Y33480
T04
X25689Y42520
X27657
X29587Y40709
X31555
X33366Y42520
X35335
X37303Y40748
X39272
X41043Y42520
X43012
X44980Y40748
X46949
X48720Y42520
X50689
X52657Y40748
X54626
T05
X65256Y19488
Y20488
X66831
Y19488
Y21488
Y22488
Y23488
Y24488
Y25488
Y26488
Y27693
Y28693
Y29693
Y30693
X63594Y31157
Y30157
Y29157
Y28157
Y27157
X56594
Y28157
Y29157
Y30157
Y31157
Y32157
Y33157
Y34157
Y35157
Y36157
Y37157
Y38157
Y39157
Y40157
Y41157
Y42157
Y43157
Y44157
Y45157
Y46157
X63594
Y45157
Y44157
Y43157
Y42157
Y41157
Y40157
Y39157
Y38157
Y37157
Y36157
Y35157
Y34157
Y33157
Y32157
X66831Y31693
Y33205
Y34205
Y35205
Y36205
Y37205
Y38701
Y39701
Y40701
Y41701
Y42701
Y43701
X65256Y35236
Y34236
T06
X25650Y45827
X26634
X27618
X29508
X30492
X31476
X33366
X34350
X35335
X37224
X38209
X39193
X41083
X42067
X43051
X44941
X45925
X46909
X48799
X49783
X50768
X52657
X53642
X54626
X53996Y32756
X52972
X51988
T07
X27933Y29764
Y30945
X29114
Y29764
Y32126
X27933
Y33307
X29114
T08
X48504Y18299
X46756Y20551
X45256Y20803
Y22303
X43756
Y20551
X42508Y20803
X46756Y22303
X38161Y22528
X36913
X35413
X33913
X32665
X33913Y20528
X35413
X36913
T09
X26083Y17126
M30
