G04*
G04 #@! TF.GenerationSoftware,Altium Limited,Altium Designer,26.9.1 (10)*
G04*
G04 Layer_Color=128*
G04 Board_Origin=24507875|15551181*
%FSLAX25Y25*%
%MOIN*%
G70*
G04*
G04 #@! TF.SameCoordinates,84E719DE-5BC6-4521-84A3-B34C6F0F9747*
G04*
G04*
G04 #@! TF.FilePolarity,Positive*
G04*
G01*
G75*
%ADD18C,0.00500*%
D18*
X388858Y226063D02*
X392874D01*
X390866Y224055D02*
Y228071D01*
X388858Y216063D02*
X392874D01*
X390866Y214055D02*
Y218071D01*
X318858Y306063D02*
X322874D01*
X320866Y304055D02*
Y308071D01*
X318858Y296063D02*
X322874D01*
X320866Y294055D02*
Y298071D01*
X318858Y276063D02*
X322874D01*
X320866Y274055D02*
Y278071D01*
X318858Y266063D02*
X322874D01*
X320866Y264055D02*
Y268071D01*
X318858Y256063D02*
X322874D01*
X320866Y254055D02*
Y258071D01*
X318858Y246063D02*
X322874D01*
X320866Y244055D02*
Y248071D01*
X318858Y226063D02*
X322874D01*
X320866Y224055D02*
Y228071D01*
X318858Y216063D02*
X322874D01*
X320866Y214055D02*
Y218071D01*
X318858Y206063D02*
X322874D01*
X320866Y204055D02*
Y208071D01*
X318858Y196063D02*
X322874D01*
X320866Y194055D02*
Y198071D01*
X318858Y176063D02*
X322874D01*
X320866Y174055D02*
Y178071D01*
X318858Y166063D02*
X322874D01*
X320866Y164055D02*
Y168071D01*
X318858Y156063D02*
X322874D01*
X320866Y154055D02*
Y158071D01*
X318858Y146063D02*
X322874D01*
X320866Y144055D02*
Y148071D01*
X318858Y126063D02*
X322874D01*
X320866Y124055D02*
Y128071D01*
X318858Y116063D02*
X322874D01*
X320866Y114055D02*
Y118071D01*
X388858Y116063D02*
X392874D01*
X390866Y114055D02*
Y118071D01*
X388858Y126063D02*
X392874D01*
X390866Y124055D02*
Y128071D01*
X388858Y146063D02*
X392874D01*
X390866Y144055D02*
Y148071D01*
X388858Y156063D02*
X392874D01*
X390866Y154055D02*
Y158071D01*
X388858Y166063D02*
X392874D01*
X390866Y164055D02*
Y168071D01*
X388858Y176063D02*
X392874D01*
X390866Y174055D02*
Y178071D01*
X388858Y196063D02*
X392874D01*
X390866Y194055D02*
Y198071D01*
X388858Y206063D02*
X392874D01*
X390866Y204055D02*
Y208071D01*
X388858Y246063D02*
X392874D01*
X390866Y244055D02*
Y248071D01*
X388858Y256063D02*
X392874D01*
X390866Y254055D02*
Y258071D01*
X388858Y266063D02*
X392874D01*
X390866Y264055D02*
Y268071D01*
X388858Y276063D02*
X392874D01*
X390866Y274055D02*
Y278071D01*
X388858Y296063D02*
X392874D01*
X390866Y294055D02*
Y298071D01*
X388858Y306063D02*
X392874D01*
X390866Y304055D02*
Y308071D01*
X318858Y136063D02*
X322874D01*
X320866Y134055D02*
Y138071D01*
X318858Y186063D02*
X322874D01*
X320866Y184055D02*
Y188071D01*
X318858Y236063D02*
X322874D01*
X320866Y234055D02*
Y238071D01*
X318858Y286063D02*
X322874D01*
X320866Y284055D02*
Y288071D01*
X388858Y186063D02*
X392874D01*
X390866Y184055D02*
Y188071D01*
X388858Y136063D02*
X392874D01*
X390866Y134055D02*
Y138071D01*
X388858Y236063D02*
X392874D01*
X390866Y234055D02*
Y238071D01*
X388858Y286063D02*
X392874D01*
X390866Y284055D02*
Y288071D01*
X366535Y22835D02*
X369094D01*
X367814Y21555D02*
Y24114D01*
X343701Y22835D02*
X346260D01*
X344980Y21555D02*
Y24114D01*
X338189Y8347D02*
X340551D01*
X339370Y7166D02*
Y9528D01*
X338189Y24803D02*
X340551D01*
X339370Y23622D02*
Y25984D01*
X372244Y8347D02*
X374606D01*
X373425Y7166D02*
Y9528D01*
X372244Y24803D02*
X374606D01*
X373425Y23622D02*
Y25984D01*
X272638Y172047D02*
X276969D01*
X274803Y169882D02*
Y174213D01*
X292717Y172047D02*
X297047D01*
X294882Y169882D02*
Y174213D01*
X282480Y172047D02*
X286811D01*
X284646Y169882D02*
Y174213D01*
X9048Y200787D02*
X22448D01*
X15748Y194087D02*
Y207487D01*
X9048Y15748D02*
X22448D01*
X15748Y9048D02*
Y22448D01*
X120512Y14764D02*
X127598D01*
X124055Y11220D02*
Y18307D01*
X90512Y34764D02*
X97598D01*
X94055Y31220D02*
Y38307D01*
X133386Y69764D02*
X139685D01*
X136535Y66614D02*
Y72913D01*
X120905Y49764D02*
X127205D01*
X124055Y46614D02*
Y52913D01*
X105905Y49764D02*
X112205D01*
X109055Y46614D02*
Y52913D01*
X90905Y49764D02*
X97205D01*
X94055Y46614D02*
Y52913D01*
X120905Y69764D02*
X127205D01*
X124055Y66614D02*
Y72913D01*
X105905Y69764D02*
X112205D01*
X109055Y66614D02*
Y72913D01*
X90905Y69764D02*
X97205D01*
X94055Y66614D02*
Y72913D01*
X78425Y69764D02*
X84724D01*
X81575Y66614D02*
Y72913D01*
X219331Y67520D02*
X225630D01*
X222480Y64370D02*
Y70669D01*
X219331Y50000D02*
X225630D01*
X222480Y46850D02*
Y53149D01*
X204331Y67520D02*
X210630D01*
X207480Y64370D02*
Y70669D01*
X204331Y52520D02*
X210630D01*
X207480Y49370D02*
Y55669D01*
X189331Y50000D02*
X195630D01*
X192480Y46850D02*
Y53149D01*
X236811Y27480D02*
X243110D01*
X239961Y24331D02*
Y30630D01*
X176850Y52520D02*
X183150D01*
X180000Y49370D02*
Y55669D01*
X189331Y67520D02*
X195630D01*
X192480Y64370D02*
Y70669D01*
X218937Y15000D02*
X226024D01*
X222480Y11457D02*
Y18543D01*
X188937Y35000D02*
X196024D01*
X192480Y31457D02*
Y38543D01*
X421220Y59370D02*
X425236D01*
X423228Y57362D02*
Y61378D01*
X421220Y69370D02*
X425236D01*
X423228Y67362D02*
Y71378D01*
X421220Y89370D02*
X425236D01*
X423228Y87362D02*
Y91378D01*
X421220Y99370D02*
X425236D01*
X423228Y97362D02*
Y101378D01*
X421220Y79370D02*
X425236D01*
X423228Y77362D02*
Y81378D01*
X421220Y49370D02*
X425236D01*
X423228Y47362D02*
Y51378D01*
X421220Y109370D02*
X425236D01*
X423228Y107362D02*
Y111378D01*
X421220Y39370D02*
X425236D01*
X423228Y37362D02*
Y41378D01*
X421220Y176535D02*
X425236D01*
X423228Y174528D02*
Y178543D01*
X421220Y186535D02*
X425236D01*
X423228Y184528D02*
Y188543D01*
X421220Y196535D02*
X425236D01*
X423228Y194528D02*
Y198543D01*
X421220Y206535D02*
X425236D01*
X423228Y204528D02*
Y208543D01*
X421220Y216535D02*
X425236D01*
X423228Y214528D02*
Y218543D01*
X405472Y49370D02*
X409488D01*
X407480Y47362D02*
Y51378D01*
X405472Y39370D02*
X409488D01*
X407480Y37362D02*
Y41378D01*
X421220Y231496D02*
X425236D01*
X423228Y229488D02*
Y233504D01*
X421220Y241496D02*
X425236D01*
X423228Y239488D02*
Y243504D01*
X421220Y251496D02*
X425236D01*
X423228Y249488D02*
Y253504D01*
X421220Y261496D02*
X425236D01*
X423228Y259488D02*
Y263504D01*
X421220Y271496D02*
X425236D01*
X423228Y269488D02*
Y273504D01*
X421220Y281496D02*
X425236D01*
X423228Y279488D02*
Y283504D01*
X186260Y139291D02*
X189331D01*
X187795Y137756D02*
Y140827D01*
X186260Y119291D02*
X189331D01*
X187795Y117756D02*
Y120827D01*
X186260Y129291D02*
X189331D01*
X187795Y127756D02*
Y130827D01*
X186260Y179291D02*
X189331D01*
X187795Y177756D02*
Y180827D01*
X186260Y169291D02*
X189331D01*
X187795Y167756D02*
Y170827D01*
X299213Y251969D02*
X303150D01*
X301181Y250000D02*
Y253937D01*
X279528Y251969D02*
X283465D01*
X281496Y250000D02*
Y253937D01*
X47921Y182598D02*
X51921D01*
X49921Y180598D02*
Y184598D01*
X43799Y177559D02*
X48327D01*
X46063Y175295D02*
Y179823D01*
X43799Y165748D02*
X48327D01*
X46063Y163484D02*
Y168012D01*
X43799Y153937D02*
X48327D01*
X46063Y151673D02*
Y156201D01*
X43799Y142126D02*
X48327D01*
X46063Y139862D02*
Y144390D01*
X31988Y142126D02*
X36516D01*
X34252Y139862D02*
Y144390D01*
X31988Y165748D02*
X36516D01*
X34252Y163484D02*
Y168012D01*
X31988Y153937D02*
X36516D01*
X34252Y151673D02*
Y156201D01*
X31988Y177559D02*
X36516D01*
X34252Y175295D02*
Y179823D01*
X144685Y302756D02*
X149016D01*
X146850Y300591D02*
Y304921D01*
X134843Y302756D02*
X139173D01*
X137008Y300591D02*
Y304921D01*
X125000Y302756D02*
X129331D01*
X127165Y300591D02*
Y304921D01*
X405472Y196850D02*
X409488D01*
X407480Y194843D02*
Y198858D01*
X405472Y186850D02*
X409488D01*
X407480Y184843D02*
Y188858D01*
X106299Y269685D02*
X110236D01*
X108268Y267717D02*
Y271654D01*
X86614Y269685D02*
X90551D01*
X88583Y267717D02*
Y271654D01*
X68504Y251575D02*
X72441D01*
X70472Y249606D02*
Y253543D01*
X48819Y251575D02*
X52756D01*
X50787Y249606D02*
Y253543D01*
X145669Y251969D02*
X149606D01*
X147638Y250000D02*
Y253937D01*
X125984Y251969D02*
X129921D01*
X127953Y250000D02*
Y253937D01*
X222441Y251969D02*
X226378D01*
X224410Y250000D02*
Y253937D01*
X202756Y251969D02*
X206693D01*
X204724Y250000D02*
Y253937D01*
X29528Y269685D02*
X33465D01*
X31496Y267717D02*
Y271654D01*
X9843Y269685D02*
X13780D01*
X11811Y267717D02*
Y271654D01*
X183071Y269685D02*
X187008D01*
X185039Y267717D02*
Y271654D01*
X163386Y269685D02*
X167323D01*
X165354Y267717D02*
Y271654D01*
X410623Y303150D02*
X424023D01*
X417323Y296450D02*
Y309850D01*
X410623Y15748D02*
X424023D01*
X417323Y9048D02*
Y22448D01*
X259842Y269685D02*
X263779D01*
X261811Y267717D02*
Y271654D01*
X240158Y269685D02*
X244094D01*
X242126Y267717D02*
Y271654D01*
X421220Y151417D02*
X425236D01*
X423228Y149409D02*
Y153425D01*
X421220Y131417D02*
X425236D01*
X423228Y129409D02*
Y133425D01*
X421220Y141417D02*
X425236D01*
X423228Y139409D02*
Y143425D01*
X421220Y121417D02*
X425236D01*
X423228Y119409D02*
Y123425D01*
X421220Y161417D02*
X425236D01*
X423228Y159409D02*
Y163425D01*
X96260Y302756D02*
X100591D01*
X98425Y300591D02*
Y304921D01*
X106102Y302756D02*
X110433D01*
X108268Y300591D02*
Y304921D01*
X86417Y302756D02*
X90748D01*
X88583Y300591D02*
Y304921D01*
X57677Y302756D02*
X62008D01*
X59842Y300591D02*
Y304921D01*
X67520Y302756D02*
X71850D01*
X69685Y300591D02*
Y304921D01*
X47835Y302756D02*
X52165D01*
X50000Y300591D02*
Y304921D01*
X19094Y302756D02*
X23425D01*
X21260Y300591D02*
Y304921D01*
X28937Y302756D02*
X33268D01*
X31102Y300591D02*
Y304921D01*
X9252Y302756D02*
X13583D01*
X11417Y300591D02*
Y304921D01*
X299016Y302756D02*
X303346D01*
X301181Y300591D02*
Y304921D01*
X289173Y302756D02*
X293504D01*
X291339Y300591D02*
Y304921D01*
X279331Y302756D02*
X283661D01*
X281496Y300591D02*
Y304921D01*
X260433Y302756D02*
X264764D01*
X262598Y300591D02*
Y304921D01*
X250590Y302756D02*
X254921D01*
X252756Y300591D02*
Y304921D01*
X240748Y302756D02*
X245079D01*
X242913Y300591D02*
Y304921D01*
X212008Y302756D02*
X216339D01*
X214173Y300591D02*
Y304921D01*
X221850Y302756D02*
X226181D01*
X224016Y300591D02*
Y304921D01*
X202165Y302756D02*
X206496D01*
X204331Y300591D02*
Y304921D01*
X183268Y302756D02*
X187598D01*
X185433Y300591D02*
Y304921D01*
X173425Y302756D02*
X177756D01*
X175591Y300591D02*
Y304921D01*
X163583Y302756D02*
X167913D01*
X165748Y300591D02*
Y304921D01*
X260039Y236221D02*
X261614D01*
X260827Y235433D02*
Y237008D01*
X69095Y209646D02*
X70669D01*
X69882Y208858D02*
Y210433D01*
X48031Y209842D02*
X49606D01*
X48819Y209055D02*
Y210630D01*
X65748Y214173D02*
X67323D01*
X66535Y213386D02*
Y214961D01*
X72638Y214173D02*
X74213D01*
X73425Y213386D02*
Y214961D01*
X44488Y214173D02*
X46063D01*
X45276Y213386D02*
Y214961D01*
X51378Y214173D02*
X52953D01*
X52165Y213386D02*
Y214961D01*
X282283Y237205D02*
X283858D01*
X283071Y236417D02*
Y237992D01*
X282283Y230315D02*
X283858D01*
X283071Y229528D02*
Y231102D01*
X254134Y236221D02*
X255709D01*
X254921Y235433D02*
Y237008D01*
X247835Y236221D02*
X249410D01*
X248622Y235433D02*
Y237008D01*
X282283Y223425D02*
X283858D01*
X283071Y222638D02*
Y224213D01*
X205512Y237205D02*
X207087D01*
X206299Y236417D02*
Y237992D01*
X205512Y230315D02*
X207087D01*
X206299Y229528D02*
Y231102D01*
X186811Y236221D02*
X188386D01*
X187598Y235433D02*
Y237008D01*
X178937Y236221D02*
X180512D01*
X179724Y235433D02*
Y237008D01*
X171063Y236221D02*
X172638D01*
X171850Y235433D02*
Y237008D01*
X205512Y223425D02*
X207087D01*
X206299Y222638D02*
Y224213D01*
X128740Y237205D02*
X130315D01*
X129528Y236417D02*
Y237992D01*
X128740Y230315D02*
X130315D01*
X129528Y229528D02*
Y231102D01*
X110039Y236221D02*
X111614D01*
X110827Y235433D02*
Y237008D01*
X102165Y236221D02*
X103740D01*
X102953Y235433D02*
Y237008D01*
X94291Y236221D02*
X95866D01*
X95079Y235433D02*
Y237008D01*
X128740Y223425D02*
X130315D01*
X129528Y222638D02*
Y224213D01*
X52362Y223425D02*
X53937D01*
X53150Y222638D02*
Y224213D01*
X9055Y238189D02*
X10630D01*
X9843Y237402D02*
Y238976D01*
X17913Y238189D02*
X19488D01*
X18701Y237402D02*
Y238976D01*
X25787Y238189D02*
X27362D01*
X26575Y237402D02*
Y238976D01*
X33661Y238189D02*
X35236D01*
X34449Y237402D02*
Y238976D01*
X52362Y230315D02*
X53937D01*
X53150Y229528D02*
Y231102D01*
X52362Y237205D02*
X53937D01*
X53150Y236417D02*
Y237992D01*
X276772Y91339D02*
X278346D01*
X277559Y90551D02*
Y92126D01*
X276772Y98032D02*
X278346D01*
X277559Y97244D02*
Y98819D01*
X272441Y94882D02*
X274016D01*
X273228Y94095D02*
Y95669D01*
X267717Y98032D02*
X269291D01*
X268504Y97244D02*
Y98819D01*
X267717Y91339D02*
X269291D01*
X268504Y90551D02*
Y92126D01*
X378740Y304724D02*
X380315D01*
X379528Y303937D02*
Y305512D01*
X344094Y166142D02*
X345669D01*
X344882Y165354D02*
Y166929D01*
X371654Y172835D02*
X373228D01*
X372441Y172047D02*
Y173622D01*
X331496Y157087D02*
X333071D01*
X332283Y156299D02*
Y157874D01*
X380118Y262795D02*
X381693D01*
X380906Y262008D02*
Y263583D01*
X359449Y274016D02*
X361024D01*
X360236Y273228D02*
Y274803D01*
X364961Y249606D02*
X366535D01*
X365748Y248819D02*
Y250394D01*
X377953Y197244D02*
X379528D01*
X378740Y196457D02*
Y198031D01*
X357480Y197638D02*
X359055D01*
X358268Y196850D02*
Y198425D01*
X353543Y307087D02*
X355118D01*
X354331Y306299D02*
Y307874D01*
X351969Y197638D02*
X353543D01*
X352756Y196850D02*
Y198425D01*
X332283Y197244D02*
X333858D01*
X333071Y196457D02*
Y198031D01*
X333858Y188976D02*
X335433D01*
X334646Y188189D02*
Y189764D01*
X380709Y61024D02*
X382283D01*
X381496Y60236D02*
Y61811D01*
X377944Y79322D02*
X379519D01*
X378731Y78535D02*
Y80110D01*
X394882Y39370D02*
X396457D01*
X395669Y38583D02*
Y40157D01*
X385003Y40681D02*
X386578D01*
X385791Y39893D02*
Y41468D01*
X388949Y33437D02*
X390524D01*
X389736Y32649D02*
Y34224D01*
X394882Y11811D02*
X396457D01*
X395669Y11024D02*
Y12598D01*
X383071Y5906D02*
X384646D01*
X383858Y5118D02*
Y6693D01*
X377989Y41768D02*
X379564D01*
X378776Y40981D02*
Y42556D01*
X373228Y35433D02*
X374803D01*
X374016Y34646D02*
Y36220D01*
X372047Y41732D02*
X373622D01*
X372835Y40945D02*
Y42520D01*
X364991Y107123D02*
X366566D01*
X365779Y106335D02*
Y107910D01*
X367708Y79322D02*
X369283D01*
X368495Y78535D02*
Y80110D01*
X360031Y79322D02*
X361606D01*
X360818Y78535D02*
Y80110D01*
X359449Y57087D02*
X361024D01*
X360236Y56299D02*
Y57874D01*
X354331Y129134D02*
X355906D01*
X355118Y128347D02*
Y129921D01*
X346063Y132677D02*
X347638D01*
X346850Y131890D02*
Y133465D01*
X359449Y61024D02*
X361024D01*
X360236Y60236D02*
Y61811D01*
X347638Y57087D02*
X349213D01*
X348425Y56299D02*
Y57874D01*
X333143Y65655D02*
X334718D01*
X333930Y64867D02*
Y66442D01*
X347638Y61024D02*
X349213D01*
X348425Y60236D02*
Y61811D01*
X353538Y47218D02*
X355113D01*
X354326Y46431D02*
Y48006D01*
X355512Y5906D02*
X357087D01*
X356299Y5118D02*
Y6693D01*
X337795Y35433D02*
X339370D01*
X338583Y34646D02*
Y36220D01*
X323658Y33827D02*
X325233D01*
X324446Y33040D02*
Y34615D01*
X318110Y45276D02*
X319685D01*
X318898Y44488D02*
Y46063D01*
X318110Y11811D02*
X319685D01*
X318898Y11024D02*
Y12598D01*
X325984Y5906D02*
X327559D01*
X326772Y5118D02*
Y6693D01*
X229528Y196850D02*
X231102D01*
X230315Y196063D02*
Y197638D01*
X169291Y206693D02*
X170866D01*
X170079Y205906D02*
Y207480D01*
X183858Y206693D02*
X185433D01*
X184646Y205906D02*
Y207480D01*
X155118Y206693D02*
X156693D01*
X155905Y205906D02*
Y207480D01*
X200000Y206693D02*
X201575D01*
X200787Y205906D02*
Y207480D01*
X200000Y200787D02*
X201575D01*
X200787Y200000D02*
Y201575D01*
X158661Y198819D02*
X160236D01*
X159449Y198031D02*
Y199606D01*
X164567Y198819D02*
X166142D01*
X165354Y198031D02*
Y199606D01*
X244488Y160630D02*
X246063D01*
X245276Y159843D02*
Y161417D01*
X268898Y156299D02*
X270472D01*
X269685Y155512D02*
Y157087D01*
X268898Y149606D02*
X270472D01*
X269685Y148819D02*
Y150394D01*
X240551Y151575D02*
X242126D01*
X241339Y150787D02*
Y152362D01*
X222835Y150000D02*
X224410D01*
X223622Y149213D02*
Y150787D01*
X158465Y169291D02*
X160039D01*
X159252Y168504D02*
Y170079D01*
X153543Y176378D02*
X155118D01*
X154331Y175591D02*
Y177165D01*
X222835Y159843D02*
X224410D01*
X223622Y159055D02*
Y160630D01*
X170276Y169291D02*
X171850D01*
X171063Y168504D02*
Y170079D01*
X111417Y196850D02*
X112992D01*
X112205Y196063D02*
Y197638D01*
X93701Y206693D02*
X95276D01*
X94488Y205906D02*
Y207480D01*
X102362Y206693D02*
X103937D01*
X103150Y205906D02*
Y207480D01*
X135433Y196850D02*
X137008D01*
X136221Y196063D02*
Y197638D01*
X140945Y196850D02*
X142520D01*
X141732Y196063D02*
Y197638D01*
X111417Y192913D02*
X112992D01*
X112205Y192126D02*
Y193701D01*
X89764Y198819D02*
X91339D01*
X90551Y198031D02*
Y199606D01*
X33661Y194882D02*
X35236D01*
X34449Y194095D02*
Y195669D01*
X111417Y187008D02*
X112992D01*
X112205Y186221D02*
Y187795D01*
X113386Y175197D02*
X114961D01*
X114173Y174409D02*
Y175984D01*
X135039Y169291D02*
X136614D01*
X135827Y168504D02*
Y170079D01*
X89764Y169291D02*
X91339D01*
X90551Y168504D02*
Y170079D01*
X113386Y169291D02*
X114961D01*
X114173Y168504D02*
Y170079D01*
X89764Y183071D02*
X91339D01*
X90551Y182283D02*
Y183858D01*
X75000Y173228D02*
X76575D01*
X75787Y172441D02*
Y174016D01*
X33661Y188976D02*
X35236D01*
X34449Y188189D02*
Y189764D01*
X27756Y171260D02*
X29331D01*
X28543Y170472D02*
Y172047D01*
X75000Y160433D02*
X76575D01*
X75787Y159646D02*
Y161221D01*
X27756Y159449D02*
X29331D01*
X28543Y158661D02*
Y160236D01*
X300000Y72835D02*
X301575D01*
X300787Y72047D02*
Y73622D01*
X311024Y72835D02*
X312598D01*
X311811Y72047D02*
Y73622D01*
X268504Y142520D02*
X270079D01*
X269291Y141732D02*
Y143307D01*
X273622Y134252D02*
X275197D01*
X274410Y133465D02*
Y135039D01*
X274016Y115354D02*
X275590D01*
X274803Y114567D02*
Y116142D01*
X274016Y125591D02*
X275590D01*
X274803Y124803D02*
Y126378D01*
X298425Y59055D02*
X300000D01*
X299213Y58268D02*
Y59842D01*
X305413Y22539D02*
X306988D01*
X306201Y21752D02*
Y23327D01*
X258268Y31496D02*
X259842D01*
X259055Y30709D02*
Y32283D01*
X291683Y22884D02*
X293258D01*
X292471Y22096D02*
Y23671D01*
X258268Y62992D02*
X259842D01*
X259055Y62205D02*
Y63779D01*
X258268Y47244D02*
X259842D01*
X259055Y46457D02*
Y48031D01*
X291675Y12699D02*
X293250D01*
X292463Y11912D02*
Y13487D01*
X258268Y15748D02*
X259842D01*
X259055Y14961D02*
Y16535D01*
X245669Y127953D02*
X247244D01*
X246457Y127165D02*
Y128740D01*
X241339Y108268D02*
X242913D01*
X242126Y107480D02*
Y109055D01*
X225590Y124016D02*
X227165D01*
X226378Y123228D02*
Y124803D01*
X233465Y116142D02*
X235039D01*
X234252Y115354D02*
Y116929D01*
X75000Y146653D02*
X76575D01*
X75787Y145866D02*
Y147441D01*
X222441Y139764D02*
X224016D01*
X223228Y138976D02*
Y140551D01*
X27756Y147638D02*
X29331D01*
X28543Y146850D02*
Y148425D01*
X27756Y134843D02*
X29331D01*
X28543Y134055D02*
Y135630D01*
X75000Y134843D02*
X76575D01*
X75787Y134055D02*
Y135630D01*
X223228Y130709D02*
X224803D01*
X224016Y129921D02*
Y131496D01*
X25787Y125984D02*
X27362D01*
X26575Y125197D02*
Y126772D01*
X25787Y119095D02*
X27362D01*
X26575Y118307D02*
Y119882D01*
X257087Y92520D02*
X258661D01*
X257874Y91732D02*
Y93307D01*
X249213Y100394D02*
X250787D01*
X250000Y99606D02*
Y101181D01*
X258268Y78740D02*
X259842D01*
X259055Y77953D02*
Y79528D01*
X66142Y108268D02*
X67716D01*
X66929Y107480D02*
Y109055D01*
X54331Y98425D02*
X55905D01*
X55118Y97638D02*
Y99213D01*
X46457Y72835D02*
X48031D01*
X47244Y72047D02*
Y73622D01*
X46457Y63878D02*
X48031D01*
X47244Y63090D02*
Y64665D01*
X40551Y72835D02*
X42126D01*
X41339Y72047D02*
Y73622D01*
X40551Y63878D02*
X42126D01*
X41339Y63090D02*
Y64665D01*
X34646Y72835D02*
X36220D01*
X35433Y72047D02*
Y73622D01*
X22835Y72835D02*
X24409D01*
X23622Y72047D02*
Y73622D01*
X28740Y72835D02*
X30315D01*
X29528Y72047D02*
Y73622D01*
X34646Y63878D02*
X36220D01*
X35433Y63090D02*
Y64665D01*
X28740Y63878D02*
X30315D01*
X29528Y63090D02*
Y64665D01*
X344094Y175591D02*
X345669D01*
X344882Y174803D02*
Y176378D01*
X377953Y242913D02*
X379528D01*
X378740Y242126D02*
Y243701D01*
X382677Y222835D02*
X384252D01*
X383465Y222047D02*
Y223622D01*
X345669Y197244D02*
X347244D01*
X346457Y196457D02*
Y198031D01*
X392520Y52756D02*
X394094D01*
X393307Y51968D02*
Y53543D01*
X375590Y156299D02*
X377165D01*
X376378Y155512D02*
Y157087D01*
X376316Y112272D02*
X377890D01*
X377103Y111485D02*
Y113060D01*
X336221Y213779D02*
X337795D01*
X337008Y212992D02*
Y214567D01*
X240354Y186221D02*
X241929D01*
X241142Y185433D02*
Y187008D01*
X240431Y176454D02*
X242006D01*
X241218Y175667D02*
Y177242D01*
X240354Y181299D02*
X241929D01*
X241142Y180512D02*
Y182087D01*
X236417Y188189D02*
X237992D01*
X237205Y187402D02*
Y188976D01*
X236417Y178347D02*
X237992D01*
X237205Y177559D02*
Y179134D01*
X236341Y183191D02*
X237915D01*
X237128Y182404D02*
Y183979D01*
X153937Y187992D02*
X155512D01*
X154724Y187205D02*
Y188779D01*
X133957Y188091D02*
X135531D01*
X134744Y187303D02*
Y188878D01*
X134843Y182087D02*
X136417D01*
X135630Y181299D02*
Y182874D01*
X108268Y177953D02*
X109843D01*
X109055Y177165D02*
Y178740D01*
X331496Y151575D02*
X333071D01*
X332283Y150787D02*
Y152362D01*
X331496Y144488D02*
X333071D01*
X332283Y143701D02*
Y145276D01*
X331601Y138954D02*
X333176D01*
X332388Y138166D02*
Y139741D01*
X305512Y59055D02*
X307087D01*
X306299Y58268D02*
Y59842D01*
X240354Y171457D02*
X241929D01*
X241142Y170669D02*
Y172244D01*
X236417Y173425D02*
X237992D01*
X237205Y172638D02*
Y174213D01*
X233465Y138976D02*
X235039D01*
X234252Y138189D02*
Y139764D01*
X233465Y131102D02*
X235039D01*
X234252Y130315D02*
Y131890D01*
X233465Y135039D02*
X235039D01*
X234252Y134252D02*
Y135827D01*
X311811Y193701D02*
X313386D01*
X312598Y192913D02*
Y194488D01*
X311811Y199213D02*
X313386D01*
X312598Y198425D02*
Y200000D01*
X306802Y199213D02*
X308376D01*
X307589Y198425D02*
Y200000D01*
X309055Y203937D02*
X310630D01*
X309842Y203150D02*
Y204724D01*
X284252Y161024D02*
X285827D01*
X285039Y160236D02*
Y161811D01*
X381890Y290945D02*
X383465D01*
X382677Y290158D02*
Y291732D01*
X316535Y95276D02*
X318110D01*
X317323Y94488D02*
Y96063D01*
X304724D02*
X306299D01*
X305512Y95276D02*
Y96850D01*
X321260Y91732D02*
X322835D01*
X322047Y90945D02*
Y92520D01*
X329134Y90551D02*
X330709D01*
X329921Y89764D02*
Y91339D01*
X331496Y102756D02*
X333071D01*
X332283Y101969D02*
Y103543D01*
X337795Y90551D02*
X339370D01*
X338583Y89764D02*
Y91339D01*
X302362Y100787D02*
X303937D01*
X303150Y100000D02*
Y101575D01*
X342520Y170866D02*
X344094D01*
X343307Y170079D02*
Y171653D01*
X358268Y175591D02*
X359842D01*
X359055Y174803D02*
Y176378D01*
X326378Y181496D02*
X327953D01*
X327165Y180709D02*
Y182283D01*
X330709Y191732D02*
X332283D01*
X331496Y190945D02*
Y192520D01*
X325984Y171260D02*
X327559D01*
X326772Y170472D02*
Y172047D01*
X363386Y37402D02*
X364961D01*
X364173Y36614D02*
Y38189D01*
X343701Y39370D02*
X345276D01*
X344488Y38583D02*
Y40157D01*
X356299Y243701D02*
X357874D01*
X357087Y242913D02*
Y244488D01*
X292126Y94488D02*
X293701D01*
X292913Y93701D02*
Y95276D01*
X294882Y72835D02*
X296457D01*
X295669Y72047D02*
Y73622D01*
X266929Y25591D02*
X268504D01*
X267717Y24803D02*
Y26378D01*
X266929Y19685D02*
X268504D01*
X267717Y18898D02*
Y20472D01*
X272835Y19685D02*
X274410D01*
X273622Y18898D02*
Y20472D01*
X272835Y25591D02*
X274410D01*
X273622Y24803D02*
Y26378D01*
X278740Y19685D02*
X280315D01*
X279528Y18898D02*
Y20472D01*
X278740Y25591D02*
X280315D01*
X279528Y24803D02*
Y26378D01*
X298425Y96063D02*
X300000D01*
X299213Y95276D02*
Y96850D01*
X295276Y101181D02*
X296850D01*
X296063Y100394D02*
Y101969D01*
X308268Y99606D02*
X309842D01*
X309055Y98819D02*
Y100394D01*
X257087Y155905D02*
X258661D01*
X257874Y155118D02*
Y156693D01*
X261024Y153150D02*
X262598D01*
X261811Y152362D02*
Y153937D01*
X257087Y143701D02*
X258661D01*
X257874Y142913D02*
Y144488D01*
X261024Y146850D02*
X262598D01*
X261811Y146063D02*
Y147638D01*
X257087Y149606D02*
X258661D01*
X257874Y148819D02*
Y150394D01*
X259614Y170226D02*
X261189D01*
X260402Y169439D02*
Y171013D01*
X353937Y247638D02*
X355512D01*
X354724Y246850D02*
Y248425D01*
X350787Y240945D02*
X352362D01*
X351575Y240158D02*
Y241732D01*
X350787Y236614D02*
X352362D01*
X351575Y235827D02*
Y237402D01*
X356299Y233858D02*
X357874D01*
X357087Y233071D02*
Y234646D01*
X350787Y230709D02*
X352362D01*
X351575Y229921D02*
Y231496D01*
X350787Y225984D02*
X352362D01*
X351575Y225197D02*
Y226772D01*
X288976Y223228D02*
X290551D01*
X289764Y222441D02*
Y224016D01*
X405118Y106299D02*
X406693D01*
X405905Y105512D02*
Y107087D01*
X412205Y89370D02*
X413779D01*
X412992Y88583D02*
Y90158D01*
X372835Y243307D02*
X374410D01*
X373622Y242520D02*
Y244094D01*
X372835Y237795D02*
X374410D01*
X373622Y237008D02*
Y238583D01*
X372835Y231496D02*
X374410D01*
X373622Y230709D02*
Y232283D01*
X370866Y225984D02*
X372441D01*
X371654Y225197D02*
Y226772D01*
X409646Y157480D02*
X411221D01*
X410433Y156693D02*
Y158268D01*
X350787Y191732D02*
X352362D01*
X351575Y190945D02*
Y192520D01*
X407677Y162402D02*
X409252D01*
X408465Y161614D02*
Y163189D01*
X356299Y226378D02*
X357874D01*
X357087Y225590D02*
Y227165D01*
X22835Y48228D02*
X24409D01*
X23622Y47441D02*
Y49016D01*
X46457Y45276D02*
X48031D01*
X47244Y44488D02*
Y46063D01*
X46457Y30512D02*
X48031D01*
X47244Y29724D02*
Y31299D01*
X46457Y18701D02*
X48031D01*
X47244Y17913D02*
Y19488D01*
X46457Y8858D02*
X48031D01*
X47244Y8071D02*
Y9646D01*
X34646Y8858D02*
X36220D01*
X35433Y8071D02*
Y9646D01*
X10039Y38386D02*
X11614D01*
X10827Y37598D02*
Y39173D01*
X10039Y47244D02*
X11614D01*
X10827Y46457D02*
Y48031D01*
X414567Y166339D02*
X416142D01*
X415354Y165551D02*
Y167126D01*
X355490Y57086D02*
X357065D01*
X356277Y56299D02*
Y57874D01*
X351750Y57095D02*
X353325D01*
X352537Y56308D02*
Y57882D01*
X355512Y61417D02*
X357087D01*
X356299Y60630D02*
Y62205D01*
X351772Y61417D02*
X353346D01*
X352559Y60630D02*
Y62205D01*
X117617Y85433D02*
X119192D01*
X118404Y84646D02*
Y86221D01*
X113877Y85433D02*
X115452D01*
X114664Y84646D02*
Y86221D01*
X121653Y85433D02*
X123228D01*
X122441Y84646D02*
Y86221D01*
X145447Y129114D02*
X147022D01*
X146235Y128326D02*
Y129901D01*
X89764Y92520D02*
X91339D01*
X90551Y91732D02*
Y93307D01*
X144095Y209842D02*
X145669D01*
X144882Y209055D02*
Y210630D01*
X372835Y249213D02*
X374410D01*
X373622Y248425D02*
Y250000D01*
X366142Y41732D02*
X367717D01*
X366929Y40945D02*
Y42520D01*
X325581Y241230D02*
X327155D01*
X326368Y240442D02*
Y242017D01*
X328346Y257480D02*
X329921D01*
X329134Y256693D02*
Y258268D01*
X328740Y266535D02*
X330315D01*
X329528Y265748D02*
Y267323D01*
X329134Y276378D02*
X330709D01*
X329921Y275590D02*
Y277165D01*
X329482Y308313D02*
X331057D01*
X330269Y307526D02*
Y309101D01*
X329501Y287008D02*
X331076D01*
X330289Y286221D02*
Y287795D01*
X329420Y292913D02*
X330995D01*
X330207Y292126D02*
Y293701D01*
X329285Y298819D02*
X330859D01*
X330072Y298031D02*
Y299606D01*
X110236Y202756D02*
X111811D01*
X111024Y201969D02*
Y203543D01*
X98425Y194095D02*
X100000D01*
X99213Y193307D02*
Y194882D01*
X174213Y149606D02*
X175787D01*
X175000Y148819D02*
Y150394D01*
X89370Y151575D02*
X90945D01*
X90158Y150787D02*
Y152362D01*
X88976Y145669D02*
X90551D01*
X89764Y144882D02*
Y146457D01*
X204724Y142717D02*
X206299D01*
X205512Y141929D02*
Y143504D01*
X233465Y9843D02*
X235039D01*
X234252Y9055D02*
Y10630D01*
X144685Y88583D02*
X146260D01*
X145472Y87795D02*
Y89370D01*
X141732Y111220D02*
X143307D01*
X142520Y110433D02*
Y112008D01*
X133760Y110630D02*
X135335D01*
X134547Y109843D02*
Y111417D01*
X139764Y133858D02*
X141339D01*
X140551Y133071D02*
Y134646D01*
X115157Y140748D02*
X116732D01*
X115945Y139961D02*
Y141535D01*
X134843Y88583D02*
X136417D01*
X135630Y87795D02*
Y89370D01*
X143701Y106299D02*
X145276D01*
X144488Y105512D02*
Y107087D01*
X161417Y141732D02*
X162992D01*
X162205Y140945D02*
Y142520D01*
X127953Y128937D02*
X129527D01*
X128740Y128150D02*
Y129724D01*
X174213Y9843D02*
X175787D01*
X175000Y9055D02*
Y10630D01*
X193898Y9843D02*
X195472D01*
X194685Y9055D02*
Y10630D01*
X154527Y9843D02*
X156102D01*
X155315Y9055D02*
Y10630D01*
X66929Y30727D02*
X68504D01*
X67716Y29940D02*
Y31515D01*
X66929Y89783D02*
X68504D01*
X67716Y88995D02*
Y90570D01*
X66929Y70098D02*
X68504D01*
X67716Y69310D02*
Y70885D01*
X88878Y113189D02*
X90453D01*
X89665Y112401D02*
Y113976D01*
X66929Y50412D02*
X68504D01*
X67716Y49625D02*
Y51200D01*
X65945Y9843D02*
X67520D01*
X66732Y9055D02*
Y10630D01*
X85630Y9843D02*
X87205D01*
X86417Y9055D02*
Y10630D01*
X105315Y9843D02*
X106890D01*
X106102Y9055D02*
Y10630D01*
X94488Y140748D02*
X96063D01*
X95276Y139961D02*
Y141535D01*
X134843Y9843D02*
X136417D01*
X135630Y9055D02*
Y10630D01*
X88583Y138779D02*
X90158D01*
X89370Y137992D02*
Y139567D01*
X89567Y127953D02*
X91142D01*
X90354Y127165D02*
Y128740D01*
X100394Y132874D02*
X101969D01*
X101181Y132087D02*
Y133661D01*
X109843Y85433D02*
X111417D01*
X110630Y84646D02*
Y86221D01*
X219488Y102362D02*
X221063D01*
X220276Y101575D02*
Y103150D01*
X204724Y119094D02*
X206299D01*
X205512Y118307D02*
Y119882D01*
X231299Y89567D02*
X232874D01*
X232087Y88779D02*
Y90354D01*
X210236Y111024D02*
X211811D01*
X211024Y110236D02*
Y111811D01*
X236220Y46260D02*
X237795D01*
X237008Y45472D02*
Y47047D01*
X236220Y59055D02*
X237795D01*
X237008Y58268D02*
Y59842D01*
X236220Y74803D02*
X237795D01*
X237008Y74016D02*
Y75590D01*
X161417Y124016D02*
X162992D01*
X162205Y123228D02*
Y124803D01*
X174213Y123031D02*
X175787D01*
X175000Y122244D02*
Y123819D01*
X169291Y123031D02*
X170866D01*
X170079Y122244D02*
Y123819D01*
X169291Y117126D02*
X170866D01*
X170079Y116339D02*
Y117913D01*
X174213Y117126D02*
X175787D01*
X175000Y116339D02*
Y117913D01*
X178150Y111220D02*
X179724D01*
X178937Y110433D02*
Y112008D01*
X147638Y106299D02*
X149213D01*
X148425Y105512D02*
Y107087D01*
X154699Y125007D02*
X156274D01*
X155486Y124219D02*
Y125794D01*
X147638Y102362D02*
X149213D01*
X148425Y101575D02*
Y103150D01*
X89567Y100394D02*
X91142D01*
X90354Y99606D02*
Y101181D01*
X124606Y101575D02*
X126181D01*
X125394Y100787D02*
Y102362D01*
X101378Y107283D02*
X102953D01*
X102165Y106496D02*
Y108071D01*
X95472Y88583D02*
X97047D01*
X96260Y87795D02*
Y89370D01*
X89567Y121063D02*
X91142D01*
X90354Y120275D02*
Y121850D01*
X94488Y107283D02*
X96063D01*
X95276Y106496D02*
Y108071D01*
X381890Y286221D02*
X383465D01*
X382677Y285433D02*
Y287008D01*
X369685Y291732D02*
X371260D01*
X370472Y290945D02*
Y292520D01*
X369685Y285039D02*
X371260D01*
X370472Y284252D02*
Y285827D01*
X369685Y277953D02*
X371260D01*
X370472Y277165D02*
Y278740D01*
X369685Y271654D02*
X371260D01*
X370472Y270866D02*
Y272441D01*
X381890Y275984D02*
X383465D01*
X382677Y275197D02*
Y276772D01*
X381890Y281102D02*
X383465D01*
X382677Y280315D02*
Y281890D01*
X353608Y37461D02*
X355183D01*
X354396Y36673D02*
Y38248D01*
M02*
