G04*
G04 #@! TF.GenerationSoftware,Altium Limited,Altium Designer,26.9.1 (10)*
G04*
G04 Layer_Color=8388736*
G04 Board_Origin=24507875|15551181*
%FSLAX25Y25*%
%MOIN*%
G70*
G04*
G04 #@! TF.SameCoordinates,16EEA847-F0ED-46D9-8180-19AD70C0C5E2*
G04*
G04*
G04 #@! TF.FilePolarity,Negative*
G04*
G01*
G75*
G04:AMPARAMS|DCode=31|XSize=85.59mil|YSize=21.74mil|CornerRadius=10.87mil|HoleSize=0mil|Usage=FLASHONLY|Rotation=0.000|XOffset=0mil|YOffset=0mil|HoleType=Round|Shape=RoundedRectangle|*
%AMROUNDEDRECTD31*
21,1,0.08559,0.00000,0,0,0.0*
21,1,0.06386,0.02174,0,0,0.0*
1,1,0.02174,0.03193,0.00000*
1,1,0.02174,-0.03193,0.00000*
1,1,0.02174,-0.03193,0.00000*
1,1,0.02174,0.03193,0.00000*
%
%ADD31ROUNDEDRECTD31*%
G04:AMPARAMS|DCode=32|XSize=78.74mil|YSize=15.75mil|CornerRadius=7.87mil|HoleSize=0mil|Usage=FLASHONLY|Rotation=270.000|XOffset=0mil|YOffset=0mil|HoleType=Round|Shape=RoundedRectangle|*
%AMROUNDEDRECTD32*
21,1,0.07874,0.00000,0,0,270.0*
21,1,0.06299,0.01575,0,0,270.0*
1,1,0.01575,0.00000,-0.03150*
1,1,0.01575,0.00000,0.03150*
1,1,0.01575,0.00000,0.03150*
1,1,0.01575,0.00000,-0.03150*
%
%ADD32ROUNDEDRECTD32*%
%ADD39R,0.09449X0.11024*%
%ADD42R,0.12992X0.09449*%
%ADD44R,0.03937X0.07087*%
%ADD46R,0.09843X0.06693*%
%ADD47R,0.03150X0.04724*%
%ADD48R,0.05512X0.08661*%
%ADD49R,0.01575X0.07874*%
%ADD52R,0.08559X0.02174*%
%ADD53R,0.05704X0.25591*%
%ADD54O,0.08674X0.02572*%
%ADD55R,0.04737X0.04540*%
G04:AMPARAMS|DCode=56|XSize=21.58mil|YSize=53.07mil|CornerRadius=4.88mil|HoleSize=0mil|Usage=FLASHONLY|Rotation=270.000|XOffset=0mil|YOffset=0mil|HoleType=Round|Shape=RoundedRectangle|*
%AMROUNDEDRECTD56*
21,1,0.02158,0.04331,0,0,270.0*
21,1,0.01181,0.05307,0,0,270.0*
1,1,0.00976,-0.02165,-0.00591*
1,1,0.00976,-0.02165,0.00591*
1,1,0.00976,0.02165,0.00591*
1,1,0.00976,0.02165,-0.00591*
%
%ADD56ROUNDEDRECTD56*%
%ADD57R,0.05721X0.06509*%
G04:AMPARAMS|DCode=58|XSize=25.72mil|YSize=70.99mil|CornerRadius=5.95mil|HoleSize=0mil|Usage=FLASHONLY|Rotation=270.000|XOffset=0mil|YOffset=0mil|HoleType=Round|Shape=RoundedRectangle|*
%AMROUNDEDRECTD58*
21,1,0.02572,0.05909,0,0,270.0*
21,1,0.01382,0.07099,0,0,270.0*
1,1,0.01190,-0.02955,-0.00691*
1,1,0.01190,-0.02955,0.00691*
1,1,0.01190,0.02955,0.00691*
1,1,0.01190,0.02955,-0.00691*
%
%ADD58ROUNDEDRECTD58*%
%ADD59R,0.04343X0.04147*%
%ADD60R,0.04540X0.04737*%
%ADD61R,0.06509X0.05721*%
%ADD62R,0.04147X0.04343*%
%ADD63R,0.02756X0.05118*%
%ADD64R,0.03359X0.07296*%
%ADD65R,0.02769X0.04540*%
%ADD66R,0.05131X0.07493*%
G04:AMPARAMS|DCode=67|XSize=31.62mil|YSize=47.37mil|CornerRadius=6.01mil|HoleSize=0mil|Usage=FLASHONLY|Rotation=180.000|XOffset=0mil|YOffset=0mil|HoleType=Round|Shape=RoundedRectangle|*
%AMROUNDEDRECTD67*
21,1,0.03162,0.03535,0,0,180.0*
21,1,0.01961,0.04737,0,0,180.0*
1,1,0.01202,-0.00980,0.01768*
1,1,0.01202,0.00980,0.01768*
1,1,0.01202,0.00980,-0.01768*
1,1,0.01202,-0.00980,-0.01768*
%
%ADD67ROUNDEDRECTD67*%
G04:AMPARAMS|DCode=68|XSize=31.62mil|YSize=51.31mil|CornerRadius=9.91mil|HoleSize=0mil|Usage=FLASHONLY|Rotation=270.000|XOffset=0mil|YOffset=0mil|HoleType=Round|Shape=RoundedRectangle|*
%AMROUNDEDRECTD68*
21,1,0.03162,0.03150,0,0,270.0*
21,1,0.01181,0.05131,0,0,270.0*
1,1,0.01981,-0.01575,-0.00591*
1,1,0.01981,-0.01575,0.00591*
1,1,0.01981,0.01575,0.00591*
1,1,0.01981,0.01575,-0.00591*
%
%ADD68ROUNDEDRECTD68*%
G04:AMPARAMS|DCode=69|XSize=100.52mil|YSize=226.5mil|CornerRadius=15.57mil|HoleSize=0mil|Usage=FLASHONLY|Rotation=270.000|XOffset=0mil|YOffset=0mil|HoleType=Round|Shape=RoundedRectangle|*
%AMROUNDEDRECTD69*
21,1,0.10052,0.19537,0,0,270.0*
21,1,0.06939,0.22650,0,0,270.0*
1,1,0.03113,-0.09769,-0.03470*
1,1,0.03113,-0.09769,0.03470*
1,1,0.03113,0.09769,0.03470*
1,1,0.03113,0.09769,-0.03470*
%
%ADD69ROUNDEDRECTD69*%
%ADD70R,0.07808X0.14580*%
%ADD71R,0.01496X0.05433*%
%ADD72O,0.03162X0.06509*%
%ADD73R,0.07296X0.12611*%
%ADD74O,0.07493X0.07493*%
%ADD75C,0.06181*%
%ADD76R,0.06181X0.06181*%
%ADD77O,0.05118X0.09449*%
%ADD78O,0.05118X0.08268*%
%ADD79C,0.07887*%
%ADD80O,0.07887X0.09855*%
%ADD81C,0.05871*%
%ADD82C,0.07296*%
G04:AMPARAMS|DCode=83|XSize=74.93mil|YSize=74.93mil|CornerRadius=20.73mil|HoleSize=0mil|Usage=FLASHONLY|Rotation=180.000|XOffset=0mil|YOffset=0mil|HoleType=Round|Shape=RoundedRectangle|*
%AMROUNDEDRECTD83*
21,1,0.07493,0.03347,0,0,180.0*
21,1,0.03347,0.07493,0,0,180.0*
1,1,0.04146,-0.01673,0.01673*
1,1,0.04146,0.01673,0.01673*
1,1,0.04146,0.01673,-0.01673*
1,1,0.04146,-0.01673,-0.01673*
%
%ADD83ROUNDEDRECTD83*%
%ADD84R,0.07887X0.09855*%
%ADD85R,0.07887X0.07887*%
G04:AMPARAMS|DCode=86|XSize=78.87mil|YSize=78.87mil|CornerRadius=21.72mil|HoleSize=0mil|Usage=FLASHONLY|Rotation=180.000|XOffset=0mil|YOffset=0mil|HoleType=Round|Shape=RoundedRectangle|*
%AMROUNDEDRECTD86*
21,1,0.07887,0.03543,0,0,180.0*
21,1,0.03543,0.07887,0,0,180.0*
1,1,0.04343,-0.01772,0.01772*
1,1,0.04343,0.01772,0.01772*
1,1,0.04343,0.01772,-0.01772*
1,1,0.04343,-0.01772,-0.01772*
%
%ADD86ROUNDEDRECTD86*%
%ADD87C,0.00800*%
%ADD88C,0.26400*%
%ADD89R,0.05871X0.05871*%
%ADD90O,0.11024X0.13386*%
%ADD91O,0.11024X0.13780*%
%ADD92C,0.04000*%
%ADD93C,0.03753*%
G36*
X199807Y165449D02*
X199803Y165551D01*
Y191142D01*
X199807Y191244D01*
X199815Y191347D01*
X199827Y191449D01*
X199846Y191551D01*
X199870Y191650D01*
X199898Y191752D01*
X199933Y191847D01*
X199972Y191941D01*
X200016Y192035D01*
X200067Y192126D01*
X200122Y192213D01*
X200177Y192299D01*
X200240Y192382D01*
X200307Y192461D01*
X200378Y192535D01*
X200453Y192606D01*
X200531Y192673D01*
X200614Y192736D01*
X200701Y192791D01*
X200787Y192847D01*
X200878Y192898D01*
X200972Y192941D01*
X201067Y192980D01*
X201161Y193016D01*
X201264Y193043D01*
X201362Y193067D01*
X201465Y193087D01*
X201567Y193098D01*
X201669Y193106D01*
X201772Y193110D01*
X210827D01*
Y187878D01*
X210508Y187748D01*
X210134Y187579D01*
X209768Y187394D01*
X209409Y187193D01*
X209059Y186980D01*
X208720Y186752D01*
X208386Y186512D01*
X208063Y186260D01*
X207752Y185992D01*
X207453Y185713D01*
X207161Y185421D01*
X206886Y185118D01*
X206618Y184807D01*
X206366Y184484D01*
X206130Y184150D01*
X205902Y183807D01*
X205693Y183457D01*
X205492Y183095D01*
X205311Y182728D01*
X205142Y182354D01*
X204992Y181972D01*
X204854Y181587D01*
X204732Y181193D01*
X204626Y180799D01*
X204535Y180398D01*
X204461Y179992D01*
X204405Y179587D01*
X204362Y179181D01*
X204339Y178772D01*
X204331Y178347D01*
X204339Y177921D01*
X204362Y177512D01*
X204405Y177106D01*
X204461Y176701D01*
X204535Y176295D01*
X204626Y175894D01*
X204732Y175500D01*
X204854Y175106D01*
X204992Y174721D01*
X205142Y174339D01*
X205311Y173965D01*
X205492Y173598D01*
X205693Y173236D01*
X205902Y172886D01*
X206130Y172543D01*
X206366Y172209D01*
X206618Y171886D01*
X206886Y171575D01*
X207161Y171272D01*
X207453Y170980D01*
X207752Y170701D01*
X208063Y170433D01*
X208386Y170181D01*
X208720Y169941D01*
X209059Y169713D01*
X209409Y169500D01*
X209768Y169299D01*
X210134Y169114D01*
X210508Y168945D01*
X210827Y168815D01*
Y163583D01*
X201772D01*
X201669Y163587D01*
X201567Y163594D01*
X201465Y163606D01*
X201362Y163626D01*
X201264Y163650D01*
X201161Y163677D01*
X201067Y163713D01*
X200972Y163752D01*
X200878Y163795D01*
X200787Y163847D01*
X200701Y163902D01*
X200614Y163957D01*
X200531Y164020D01*
X200453Y164087D01*
X200378Y164157D01*
X200307Y164232D01*
X200240Y164311D01*
X200177Y164394D01*
X200122Y164480D01*
X200067Y164567D01*
X200016Y164657D01*
X199972Y164752D01*
X199933Y164847D01*
X199898Y164941D01*
X199870Y165043D01*
X199846Y165142D01*
X199827Y165244D01*
X199815Y165347D01*
X199807Y165449D01*
D02*
G37*
G36*
X218307Y163583D02*
Y168815D01*
X218626Y168945D01*
X219000Y169114D01*
X219366Y169299D01*
X219724Y169500D01*
X220075Y169713D01*
X220413Y169941D01*
X220748Y170181D01*
X221071Y170433D01*
X221382Y170701D01*
X221681Y170980D01*
X221972Y171272D01*
X222248Y171575D01*
X222516Y171886D01*
X222768Y172209D01*
X223004Y172543D01*
X223232Y172886D01*
X223441Y173236D01*
X223642Y173598D01*
X223823Y173965D01*
X223992Y174339D01*
X224142Y174721D01*
X224279Y175106D01*
X224401Y175500D01*
X224508Y175894D01*
X224598Y176295D01*
X224673Y176701D01*
X224728Y177106D01*
X224772Y177512D01*
X224795Y177921D01*
X224803Y178347D01*
X224795Y178772D01*
X224772Y179181D01*
X224728Y179587D01*
X224673Y179992D01*
X224598Y180398D01*
X224508Y180799D01*
X224401Y181193D01*
X224279Y181587D01*
X224142Y181972D01*
X223992Y182354D01*
X223823Y182728D01*
X223642Y183095D01*
X223441Y183457D01*
X223232Y183807D01*
X223004Y184150D01*
X222768Y184484D01*
X222516Y184807D01*
X222248Y185118D01*
X221972Y185421D01*
X221681Y185713D01*
X221382Y185992D01*
X221071Y186260D01*
X220748Y186512D01*
X220413Y186752D01*
X220075Y186980D01*
X219724Y187193D01*
X219366Y187394D01*
X219000Y187579D01*
X218626Y187748D01*
X218307Y187878D01*
Y193110D01*
X227362D01*
X227465Y193106D01*
X227567Y193098D01*
X227669Y193087D01*
X227772Y193067D01*
X227870Y193043D01*
X227972Y193016D01*
X228067Y192980D01*
X228161Y192941D01*
X228256Y192898D01*
X228346Y192847D01*
X228433Y192791D01*
X228520Y192736D01*
X228602Y192673D01*
X228681Y192606D01*
X228756Y192535D01*
X228827Y192461D01*
X228894Y192382D01*
X228957Y192299D01*
X229012Y192213D01*
X229067Y192126D01*
X229118Y192035D01*
X229161Y191941D01*
X229201Y191847D01*
X229236Y191752D01*
X229264Y191650D01*
X229287Y191551D01*
X229307Y191449D01*
X229319Y191347D01*
X229327Y191244D01*
X229331Y191142D01*
Y165551D01*
X229327Y165449D01*
X229319Y165347D01*
X229307Y165244D01*
X229287Y165142D01*
X229264Y165043D01*
X229236Y164941D01*
X229201Y164847D01*
X229161Y164752D01*
X229118Y164657D01*
X229067Y164567D01*
X229012Y164480D01*
X228957Y164394D01*
X228894Y164311D01*
X228827Y164232D01*
X228756Y164157D01*
X228681Y164087D01*
X228602Y164020D01*
X228520Y163957D01*
X228433Y163902D01*
X228346Y163847D01*
X228256Y163795D01*
X228161Y163752D01*
X228067Y163713D01*
X227972Y163677D01*
X227870Y163650D01*
X227772Y163626D01*
X227669Y163606D01*
X227567Y163594D01*
X227465Y163587D01*
X227362Y163583D01*
X218307D01*
D02*
G37*
G36*
G01X247539Y162441D02*
G02X247382Y162598I0J158D01*
G01Y166535D01*
G02X247539Y166693I158J0D01*
G01X248765D01*
G01Y167953D01*
G01X247539D01*
G02X247382Y168110I0J158D01*
G01Y172047D01*
G02X247539Y172205I158J0D01*
G01X252751D01*
G02X252863Y171936I0J-158D01*
G01X251005Y170079D01*
G01X252863Y168221D01*
G02X252751Y167953I-111J-111D01*
G01X250328D01*
G01Y166693D01*
G01X252751D01*
G02X252863Y166424I0J-158D01*
G01X251005Y164567D01*
G01X252863Y162710D01*
G02X252751Y162441I-111J-111D01*
G01X247539D01*
D02*
G37*
G36*
G01X252059Y164456D02*
G02X252013Y164567I111J111D01*
G02X252059Y164678I158J0D01*
G01X254027Y166647D01*
G02X254138Y166693I111J-112D01*
G01X256988Y166693D01*
G02X257146Y166535I-0J-158D01*
G01X257146Y162598D01*
G02X256988Y162441I-158J0D01*
G01X254140D01*
G02X254027Y162487I-2J158D01*
G01X252059Y164456D01*
D02*
G37*
G36*
G01Y169968D02*
G02X252013Y170079I111J111D01*
G02X252059Y170190I158J0D01*
G01X254027Y172159D01*
G02X254139Y172205I111J-112D01*
G01X256988Y172205D01*
G02X257146Y172047I-0J-158D01*
G01X257146Y168110D01*
G02X256988Y167953I-158J0D01*
G01X254140D01*
G02X254027Y167999I-2J158D01*
G01X252059Y169968D01*
D02*
G37*
G36*
G01X335209Y149744D02*
G01X335209Y153681D01*
G02X335367Y153839I158J-0D01*
G01X338215D01*
G02X338328Y153793I2J-158D01*
G01X340296Y151824D01*
G02X340342Y151713I-112J-111D01*
G02X340296Y151601I-157J-0D01*
G01X338328Y149633D01*
G02X338216Y149587I-111J111D01*
G01X335367D01*
G02X335209Y149744I0J158D01*
D02*
G37*
G36*
G01Y155256D02*
G01X335209Y159193D01*
G02X335367Y159350I158J-0D01*
G01X338215D01*
G02X338328Y159304I2J-158D01*
G01X340296Y157335D01*
G02X340342Y157224I-112J-111D01*
G02X340296Y157113I-157J-0D01*
G01X338328Y155144D01*
G02X338216Y155098I-111J111D01*
G01X335367D01*
G02X335209Y155256I0J158D01*
D02*
G37*
G36*
G01X335374Y77953D02*
G01X335374Y81890D01*
G02X335531Y82047I158J-0D01*
G01X338379D01*
G02X338492Y82001I2J-158D01*
G01X340461Y80032D01*
G02X340507Y79921I-112J-111D01*
G02X340461Y79810I-157J-0D01*
G01X338492Y77841D01*
G02X338381Y77795I-111J111D01*
G01X335531D01*
G02X335374Y77953I0J158D01*
D02*
G37*
G36*
G01Y83465D02*
G01X335374Y87402D01*
G02X335531Y87559I158J-0D01*
G01X338379D01*
G02X338492Y87513I2J-158D01*
G01X340461Y85544D01*
G02X340507Y85433I-112J-111D01*
G02X340461Y85322I-157J-0D01*
G01X338492Y83353D01*
G02X338381Y83307I-111J111D01*
G01X335531D01*
G02X335374Y83465I0J158D01*
D02*
G37*
G36*
G01X336063Y94488D02*
G01X336063Y98425D01*
G02X336221Y98583I158J-0D01*
G01X339068D01*
G02X339181Y98537I2J-158D01*
G01X341150Y96568D01*
G02X341196Y96457I-112J-111D01*
G02X341150Y96346I-157J-0D01*
G01X339181Y94377D01*
G02X339070Y94331I-111J111D01*
G01X336221D01*
G02X336063Y94488I0J158D01*
D02*
G37*
G36*
G01Y100000D02*
G01X336063Y103937D01*
G02X336221Y104095I158J-0D01*
G01X339068D01*
G02X339181Y104049I2J-158D01*
G01X341150Y102080D01*
G02X341196Y101969I-112J-111D01*
G02X341150Y101857I-157J-0D01*
G01X339181Y99888D01*
G02X339070Y99843I-111J111D01*
G01X336221D01*
G02X336063Y100000I0J158D01*
D02*
G37*
G36*
G01X338425Y201181D02*
G01Y204029D01*
G02X338471Y204142I157J2D01*
G01X340440Y206111D01*
G02X340551Y206157I111J-112D01*
G02X340662Y206111I0J-158D01*
G01X342631Y204142D01*
G02X342677Y204031I-112J-111D01*
G01X342677Y201181D01*
G02X342520Y201024I-158J0D01*
G01X338583Y201024D01*
G02X338425Y201181I0J158D01*
D02*
G37*
G36*
G01X338694Y205307D02*
G02X338425Y205418I-111J112D01*
G01Y210630D01*
G02X338583Y210787I158J0D01*
G01X342520D01*
G02X342677Y210630I0J-158D01*
G01Y209404D01*
G01X343937D01*
G01Y210630D01*
G02X344094Y210787I158J0D01*
G01X348031D01*
G02X348189Y210630I0J-158D01*
G01Y205418D01*
G02X347920Y205307I-158J0D01*
G01X346063Y207164D01*
G01X344206Y205307D01*
G02X343937Y205418I-111J112D01*
G01Y207841D01*
G01X342677D01*
G01Y205418D01*
G02X342408Y205307I-158J0D01*
G01X340551Y207164D01*
G01X338694Y205307D01*
D02*
G37*
G36*
G01X339604Y149587D02*
G02X339492Y149855I0J158D01*
G01X341350Y151713D01*
G01X339492Y153570D01*
G02X339604Y153839I112J111D01*
G01X342026D01*
G01Y155098D01*
G01X339604D01*
G02X339492Y155367I0J158D01*
G01X341350Y157224D01*
G01X339492Y159082D01*
G02X339604Y159350I112J111D01*
G01X344815D01*
G02X344973Y159193I0J-158D01*
G01Y155256D01*
G02X344815Y155098I-158J0D01*
G01X343590D01*
G01Y153839D01*
G01X344815D01*
G02X344973Y153681I0J-158D01*
G01Y149744D01*
G02X344815Y149587I-158J0D01*
G01X339604D01*
D02*
G37*
G36*
G01X339769Y77795D02*
G02X339657Y78064I0J158D01*
G01X341514Y79921D01*
G01X339657Y81779D01*
G02X339769Y82047I112J111D01*
G01X342191D01*
G01Y83307D01*
G01X339769D01*
G02X339657Y83576I0J158D01*
G01X341514Y85433D01*
G01X339657Y87290D01*
G02X339769Y87559I112J111D01*
G01X344980D01*
G02X345138Y87402I0J-158D01*
G01Y83465D01*
G02X344980Y83307I-158J0D01*
G01X343755D01*
G01Y82047D01*
G01X344980D01*
G02X345138Y81890I0J-158D01*
G01Y77953D01*
G02X344980Y77795I-158J0D01*
G01X339769D01*
D02*
G37*
G36*
G01X340458Y94331D02*
G02X340346Y94599I0J158D01*
G01X342203Y96457D01*
G01X340346Y98314D01*
G02X340458Y98583I112J111D01*
G01X342880D01*
G01Y99843D01*
G01X340458D01*
G02X340346Y100111I0J158D01*
G01X342203Y101969D01*
G01X340346Y103826D01*
G02X340458Y104095I112J111D01*
G01X345669D01*
G02X345827Y103937I0J-158D01*
G01Y100000D01*
G02X345669Y99843I-158J0D01*
G01X344443D01*
G01Y98583D01*
G01X345669D01*
G02X345827Y98425I0J-158D01*
G01Y94488D01*
G02X345669Y94331I-158J0D01*
G01X340458D01*
D02*
G37*
G36*
G01X342618Y25112D02*
G02X342460Y25269I0J158D01*
G01Y30387D01*
G02X342618Y30545I158J0D01*
G01X343785D01*
G02X343799Y30545I14J-157D01*
G01X344980D01*
G02X345138Y30388I0J-158D01*
G01Y25270D01*
G02X344980Y25112I-158J0D01*
G01X343813D01*
G02X343799Y25112I-14J157D01*
G01X342618D01*
D02*
G37*
G36*
G01X343937Y201181D02*
G01Y204029D01*
G02X343983Y204142I157J2D01*
G01X345952Y206111D01*
G02X346063Y206157I111J-112D01*
G02X346174Y206111I0J-158D01*
G01X348143Y204142D01*
G02X348189Y204031I-112J-111D01*
G01X348189Y201181D01*
G02X348031Y201024I-158J0D01*
G01X344094Y201024D01*
G02X343937Y201181I0J158D01*
D02*
G37*
G36*
G01X345768Y25112D02*
G02X345610Y25269I0J158D01*
G01Y30387D01*
G02X345768Y30545I158J0D01*
G01X346943D01*
G02X346949Y30545I6J-157D01*
G01X348130D01*
G02X348287Y30387I0J-158D01*
G01Y25269D01*
G02X348130Y25112I-158J0D01*
G01X346954D01*
G02X346949Y25112I-6J157D01*
G01X345768D01*
D02*
G37*
G36*
G01X364666Y25113D02*
G02X364508Y25270I0J158D01*
G01Y30388D01*
G02X364666Y30545I158J0D01*
G01X367028D01*
G02X367185Y30388I0J-158D01*
G01Y25270D01*
G02X367028Y25113I-158J0D01*
G01X364666D01*
D02*
G37*
G36*
G01X367815D02*
G02X367657Y25270I0J158D01*
G01Y30388D01*
G02X367815Y30545I158J0D01*
G01X370177D01*
G02X370334Y30388I0J-158D01*
G01Y25270D01*
G02X370177Y25113I-158J0D01*
G01X367815D01*
D02*
G37*
D31*
X355334Y136201D02*
D03*
X373965Y151201D02*
D03*
Y141201D02*
D03*
Y136201D02*
D03*
Y146201D02*
D03*
X355334Y141201D02*
D03*
Y146201D02*
D03*
D32*
X381291Y69100D02*
D03*
X378731D02*
D03*
X371054Y96659D02*
D03*
X368495Y69100D02*
D03*
X360818D02*
D03*
X378731Y96659D02*
D03*
X365936Y69100D02*
D03*
X386409D02*
D03*
X383850D02*
D03*
X376172D02*
D03*
X373613D02*
D03*
X371054D02*
D03*
X363377D02*
D03*
X358259D02*
D03*
X355700D02*
D03*
X353141D02*
D03*
Y96659D02*
D03*
X355700D02*
D03*
X358259D02*
D03*
X360818D02*
D03*
X363377D02*
D03*
X365936D02*
D03*
X368495D02*
D03*
X373613D02*
D03*
X376172D02*
D03*
X381291D02*
D03*
X383850D02*
D03*
D39*
X278740Y149606D02*
D03*
X303937D02*
D03*
D42*
X35433Y83465D02*
D03*
Y109449D02*
D03*
D44*
X264567Y214173D02*
D03*
X275590D02*
D03*
D46*
X298425Y199213D02*
D03*
X282677D02*
D03*
X301181Y131890D02*
D03*
X285433D02*
D03*
X302362Y214173D02*
D03*
X286614D02*
D03*
D47*
X354331Y262992D02*
D03*
X269291Y197244D02*
D03*
X262205D02*
D03*
X361417Y262992D02*
D03*
D48*
X365354Y205906D02*
D03*
D49*
X386409Y96659D02*
D03*
D52*
X355334Y151201D02*
D03*
D53*
X200686Y178347D02*
D03*
X229432Y178347D02*
D03*
D54*
X361417Y188091D02*
D03*
Y185531D02*
D03*
Y182973D02*
D03*
Y180413D02*
D03*
X344094D02*
D03*
Y182973D02*
D03*
Y185531D02*
D03*
Y188091D02*
D03*
D55*
X402559Y280413D02*
D03*
X378740Y202461D02*
D03*
X375590Y168012D02*
D03*
X333465Y202854D02*
D03*
X350394Y167028D02*
D03*
X378812Y46954D02*
D03*
X140551Y188091D02*
D03*
X33465Y57087D02*
D03*
X350394Y173130D02*
D03*
X378812Y53056D02*
D03*
X375590Y161909D02*
D03*
X333465Y208957D02*
D03*
X140551Y181988D02*
D03*
X155315Y129823D02*
D03*
Y135925D02*
D03*
X162205Y129823D02*
D03*
Y135925D02*
D03*
X33465Y50984D02*
D03*
X378740Y208563D02*
D03*
X402559Y286516D02*
D03*
D56*
X377165Y293898D02*
D03*
X354724Y273425D02*
D03*
X377165D02*
D03*
Y275984D02*
D03*
Y288779D02*
D03*
Y291339D02*
D03*
Y286221D02*
D03*
Y278543D02*
D03*
Y283661D02*
D03*
Y281102D02*
D03*
X354724Y270866D02*
D03*
Y278543D02*
D03*
Y283661D02*
D03*
X377165Y270866D02*
D03*
X354724Y275984D02*
D03*
Y281102D02*
D03*
Y286221D02*
D03*
Y288779D02*
D03*
Y291339D02*
D03*
Y293898D02*
D03*
D57*
X374213Y262992D02*
D03*
X236811Y196850D02*
D03*
X266831Y129181D02*
D03*
Y120323D02*
D03*
X243504Y196850D02*
D03*
X260138Y120323D02*
D03*
Y129181D02*
D03*
X367520Y262992D02*
D03*
D58*
X365158Y245571D02*
D03*
X341142Y217421D02*
D03*
Y245571D02*
D03*
Y243012D02*
D03*
Y240453D02*
D03*
Y237894D02*
D03*
Y227658D02*
D03*
Y225098D02*
D03*
X365158Y240453D02*
D03*
Y237894D02*
D03*
Y232776D02*
D03*
Y230217D02*
D03*
Y227658D02*
D03*
Y222539D02*
D03*
Y225098D02*
D03*
Y235335D02*
D03*
X341142Y230217D02*
D03*
Y219980D02*
D03*
Y222539D02*
D03*
Y232776D02*
D03*
Y235335D02*
D03*
X365158Y243012D02*
D03*
Y217421D02*
D03*
Y219980D02*
D03*
D59*
X358268Y202854D02*
D03*
X352756D02*
D03*
X372907Y46954D02*
D03*
X389700Y28251D02*
D03*
X324410Y28642D02*
D03*
X299213Y54232D02*
D03*
X41339Y57087D02*
D03*
X378740Y223130D02*
D03*
Y235728D02*
D03*
X148819Y188091D02*
D03*
X129921D02*
D03*
X306299Y54232D02*
D03*
X352756Y208957D02*
D03*
X358268D02*
D03*
X306299Y48130D02*
D03*
X378740Y229626D02*
D03*
Y217028D02*
D03*
X299213Y48130D02*
D03*
X99213Y181988D02*
D03*
Y188091D02*
D03*
X41339Y50984D02*
D03*
X148819Y181988D02*
D03*
X129921D02*
D03*
X372907Y53056D02*
D03*
X367001D02*
D03*
X324410Y22539D02*
D03*
X389700Y22149D02*
D03*
X367001Y46954D02*
D03*
D60*
X354823Y302165D02*
D03*
X370965Y107087D02*
D03*
X333930Y70478D02*
D03*
X205610Y204724D02*
D03*
X266535Y137055D02*
D03*
X292421Y17717D02*
D03*
X377067Y107087D02*
D03*
X211713Y204724D02*
D03*
X286319Y17717D02*
D03*
X134547Y116142D02*
D03*
X140650D02*
D03*
X160335Y103346D02*
D03*
X154232D02*
D03*
X101279Y127953D02*
D03*
X95177D02*
D03*
X134547Y128937D02*
D03*
X140650D02*
D03*
X260433Y137055D02*
D03*
X360925Y302165D02*
D03*
X340033Y70478D02*
D03*
D61*
X385827Y45866D02*
D03*
X239370Y159449D02*
D03*
X162205Y190945D02*
D03*
X234252Y150984D02*
D03*
X385827Y52559D02*
D03*
X239370Y166142D02*
D03*
X234252Y144291D02*
D03*
X162205Y184252D02*
D03*
D62*
X361338Y128902D02*
D03*
X246949Y156299D02*
D03*
X117028Y196850D02*
D03*
X311910Y78740D02*
D03*
X298130D02*
D03*
X306201Y17717D02*
D03*
X337335Y144626D02*
D03*
Y138721D02*
D03*
X298130Y84646D02*
D03*
X304232D02*
D03*
Y78740D02*
D03*
X318012D02*
D03*
X300098Y17717D02*
D03*
X318012Y84646D02*
D03*
X311910D02*
D03*
X77658Y92520D02*
D03*
X83760D02*
D03*
X107677Y96457D02*
D03*
X113779D02*
D03*
X119291D02*
D03*
X125394D02*
D03*
X140650Y123031D02*
D03*
X134547D02*
D03*
X95177Y113189D02*
D03*
X101279D02*
D03*
X95177Y121063D02*
D03*
X101279D02*
D03*
X123130Y202756D02*
D03*
X117028D02*
D03*
X123130Y196850D02*
D03*
X367815Y302165D02*
D03*
X373917D02*
D03*
X343012Y304724D02*
D03*
X336910D02*
D03*
X343012Y292913D02*
D03*
X336910D02*
D03*
X343012Y281102D02*
D03*
X336910D02*
D03*
X343012Y287008D02*
D03*
X336910D02*
D03*
X343012Y269291D02*
D03*
X336910D02*
D03*
X343012Y263386D02*
D03*
X336910D02*
D03*
X343012Y275197D02*
D03*
X336910D02*
D03*
X343012Y298819D02*
D03*
X336910D02*
D03*
X253051Y156299D02*
D03*
X367441Y128902D02*
D03*
X343438Y144626D02*
D03*
Y138721D02*
D03*
X253051Y149409D02*
D03*
X246949D02*
D03*
D63*
X354331Y51352D02*
D03*
X358071D02*
D03*
X350590D02*
D03*
Y42297D02*
D03*
X354331D02*
D03*
X358071D02*
D03*
D64*
X150394Y170177D02*
D03*
X119882D02*
D03*
X140551D02*
D03*
X109055D02*
D03*
X140551Y144783D02*
D03*
X150394D02*
D03*
X145472Y170177D02*
D03*
X129724D02*
D03*
Y144783D02*
D03*
X124803D02*
D03*
X119882D02*
D03*
X109055D02*
D03*
X104134D02*
D03*
X99213Y170177D02*
D03*
Y144783D02*
D03*
D65*
X117520Y189469D02*
D03*
X122638D02*
D03*
X120079Y180610D02*
D03*
D66*
X88189Y205709D02*
D03*
X77165D02*
D03*
D67*
X292520Y28051D02*
D03*
X288779Y38878D02*
D03*
X296260Y28051D02*
D03*
Y38878D02*
D03*
X292520D02*
D03*
X288779Y28051D02*
D03*
D68*
X251575Y138386D02*
D03*
X241339Y134646D02*
D03*
X251575D02*
D03*
Y142126D02*
D03*
X241339D02*
D03*
D69*
X277559Y53642D02*
D03*
Y80216D02*
D03*
D70*
X225925Y210630D02*
D03*
X246516D02*
D03*
X284980Y112205D02*
D03*
X305571D02*
D03*
D71*
X349507Y27829D02*
D03*
X351476D02*
D03*
X353444Y27829D02*
D03*
X355413Y27829D02*
D03*
X357381Y27829D02*
D03*
X359350Y27829D02*
D03*
X361317D02*
D03*
X363287D02*
D03*
D72*
X123937Y108366D02*
D03*
X108937Y129823D02*
D03*
X118937D02*
D03*
X113937D02*
D03*
X123937D02*
D03*
X118937Y108366D02*
D03*
X113937D02*
D03*
X108937D02*
D03*
D73*
X161713Y115157D02*
D03*
X150886D02*
D03*
D74*
X390866Y286063D02*
D03*
Y236063D02*
D03*
Y136063D02*
D03*
Y186063D02*
D03*
X320866Y286063D02*
D03*
Y236063D02*
D03*
Y186063D02*
D03*
Y136063D02*
D03*
X390866Y306063D02*
D03*
Y296063D02*
D03*
Y276063D02*
D03*
Y266063D02*
D03*
Y256063D02*
D03*
Y246063D02*
D03*
Y206063D02*
D03*
Y196063D02*
D03*
Y176063D02*
D03*
Y166063D02*
D03*
Y156063D02*
D03*
Y146063D02*
D03*
Y126063D02*
D03*
Y116063D02*
D03*
X320866D02*
D03*
Y126063D02*
D03*
Y146063D02*
D03*
Y156063D02*
D03*
Y166063D02*
D03*
Y176063D02*
D03*
Y196063D02*
D03*
Y206063D02*
D03*
Y216063D02*
D03*
Y226063D02*
D03*
Y246063D02*
D03*
Y256063D02*
D03*
Y266063D02*
D03*
Y276063D02*
D03*
Y296063D02*
D03*
X390866Y216063D02*
D03*
Y226063D02*
D03*
D75*
X423228Y281496D02*
D03*
Y216535D02*
D03*
Y161417D02*
D03*
Y109370D02*
D03*
Y49370D02*
D03*
X407480D02*
D03*
X423228Y206535D02*
D03*
Y271496D02*
D03*
Y196535D02*
D03*
Y261496D02*
D03*
Y251496D02*
D03*
Y186535D02*
D03*
Y79370D02*
D03*
Y241496D02*
D03*
Y99370D02*
D03*
X407480Y196850D02*
D03*
X423228Y89370D02*
D03*
Y69370D02*
D03*
Y59370D02*
D03*
Y141417D02*
D03*
Y131417D02*
D03*
Y151417D02*
D03*
D76*
X407480Y186850D02*
D03*
X423228Y121417D02*
D03*
Y39370D02*
D03*
X407480D02*
D03*
X423228Y231496D02*
D03*
Y176535D02*
D03*
D77*
X373425Y24803D02*
D03*
X339370D02*
D03*
D78*
X373425Y8347D02*
D03*
X339370D02*
D03*
D79*
X281496Y302756D02*
D03*
X242913D02*
D03*
X242126Y269685D02*
D03*
X204331Y302756D02*
D03*
X204724Y251969D02*
D03*
X281496D02*
D03*
X165748Y302756D02*
D03*
X165354Y269685D02*
D03*
X127953Y251969D02*
D03*
X127165Y302756D02*
D03*
X88583D02*
D03*
X50000D02*
D03*
X88583Y269685D02*
D03*
X11417Y302756D02*
D03*
X11811Y269685D02*
D03*
X50787Y251575D02*
D03*
X21260Y302756D02*
D03*
X214173D02*
D03*
X98425D02*
D03*
X59842D02*
D03*
X175591D02*
D03*
X252756D02*
D03*
X137008D02*
D03*
X291339D02*
D03*
D80*
X284646Y172047D02*
D03*
X294882D02*
D03*
D81*
X187795Y169291D02*
D03*
Y129291D02*
D03*
Y119291D02*
D03*
Y139291D02*
D03*
D82*
X34252Y177559D02*
D03*
Y153937D02*
D03*
Y165748D02*
D03*
Y142126D02*
D03*
X46063D02*
D03*
Y153937D02*
D03*
Y165748D02*
D03*
Y177559D02*
D03*
D83*
X320866Y306063D02*
D03*
D84*
X274803Y172047D02*
D03*
D85*
X108268Y269685D02*
D03*
X147638Y251969D02*
D03*
X185039Y269685D02*
D03*
X261811D02*
D03*
X301181Y251969D02*
D03*
X70472Y251575D02*
D03*
X31496Y269685D02*
D03*
X224410Y251969D02*
D03*
D86*
X31102Y302756D02*
D03*
X224016D02*
D03*
X108268D02*
D03*
X69685D02*
D03*
X146850D02*
D03*
X185433D02*
D03*
X301181D02*
D03*
X262598D02*
D03*
D87*
X344980Y22835D02*
D03*
X367814D02*
D03*
X15748Y200787D02*
D03*
X417323Y303150D02*
D03*
Y15748D02*
D03*
D88*
X15748D02*
D03*
D89*
X187795Y179291D02*
D03*
D90*
X81575Y69764D02*
D03*
X94055D02*
D03*
X109055D02*
D03*
X124055D02*
D03*
X94055Y49764D02*
D03*
X109055D02*
D03*
X124055D02*
D03*
X136535Y69764D02*
D03*
X192480Y67520D02*
D03*
X180000Y52520D02*
D03*
X239961Y27480D02*
D03*
X192480Y50000D02*
D03*
X207480Y52520D02*
D03*
X222480Y50000D02*
D03*
Y67520D02*
D03*
D91*
X207480D02*
D03*
D92*
X49921Y182598D02*
D03*
D93*
X312598Y193701D02*
D03*
Y199213D02*
D03*
X307589D02*
D03*
X309842Y203937D02*
D03*
M02*
