G04*
G04 #@! TF.GenerationSoftware,Altium Limited,Altium Designer,26.9.1 (10)*
G04*
G04 Layer_Color=16711935*
G04 Board_Origin=24507875|15551181*
%FSLAX25Y25*%
%MOIN*%
G70*
G04*
G04 #@! TF.SameCoordinates,84E719DE-5BC6-4521-84A3-B34C6F0F9747*
G04*
G04*
G04 #@! TF.FilePolarity,Positive*
G04*
G01*
G75*
%ADD150C,0.00197*%
D150*
X7677Y222441D02*
Y262598D01*
Y222441D02*
X31693D01*
Y262598D01*
X7677D02*
X31693D01*
X264319Y219463D02*
X304477D01*
Y243479D01*
X264319D02*
X304477D01*
X264319Y219463D02*
Y243479D01*
X237008Y220079D02*
Y260236D01*
Y220079D02*
X261024D01*
Y260236D01*
X237008D02*
X261024D01*
X190687Y220276D02*
X230844D01*
Y244291D01*
X190687D02*
X230844D01*
X190687Y220276D02*
Y244291D01*
X161691Y220079D02*
Y260236D01*
Y220079D02*
X185707D01*
Y260236D01*
X161691D02*
X185707D01*
X113436Y220276D02*
X153593D01*
Y244291D01*
X113436D02*
X153593D01*
X113436Y220276D02*
Y244291D01*
X84271Y220079D02*
Y260236D01*
Y220079D02*
X108287D01*
Y260236D01*
X84271D02*
X108287D01*
X37537Y220079D02*
Y244094D01*
X77695D01*
Y220079D02*
Y244094D01*
X37537Y220079D02*
X77695D01*
M02*
