G04*
G04 #@! TF.GenerationSoftware,Altium Limited,Altium Designer,26.9.1 (10)*
G04*
G04 Layer_Physical_Order=3*
G04 Layer_Color=16440176*
G04 Board_Origin=24507875|15551181*
%FSLAX25Y25*%
%MOIN*%
G70*
G04*
G04 #@! TF.SameCoordinates,84E719DE-5BC6-4521-84A3-B34C6F0F9747*
G04*
G04*
G04 #@! TF.FilePolarity,Positive*
G04*
G01*
G75*
%ADD19C,0.02000*%
%ADD83O,0.11024X0.13386*%
%ADD84O,0.11024X0.13780*%
%ADD85C,0.06181*%
%ADD86R,0.06181X0.06181*%
%ADD91C,0.04000*%
%ADD111C,0.00800*%
%ADD114C,0.06000*%
%ADD126O,0.04331X0.07480*%
%ADD127O,0.04331X0.08661*%
%ADD128R,0.07087X0.09055*%
%ADD129O,0.07087X0.09055*%
%ADD130C,0.25600*%
%ADD131C,0.05071*%
%ADD133R,0.07087X0.07087*%
%ADD134C,0.07087*%
%ADD135C,0.06496*%
G04:AMPARAMS|DCode=136|XSize=70.87mil|YSize=70.87mil|CornerRadius=17.72mil|HoleSize=0mil|Usage=FLASHONLY|Rotation=180.000|XOffset=0mil|YOffset=0mil|HoleType=Round|Shape=RoundedRectangle|*
%AMROUNDEDRECTD136*
21,1,0.07087,0.03543,0,0,180.0*
21,1,0.03543,0.07087,0,0,180.0*
1,1,0.03543,-0.01772,0.01772*
1,1,0.03543,0.01772,0.01772*
1,1,0.03543,0.01772,-0.01772*
1,1,0.03543,-0.01772,-0.01772*
%
%ADD136ROUNDEDRECTD136*%
%ADD137C,0.02953*%
%ADD138C,0.06693*%
G36*
G01X3941Y4876D02*
G02X3937Y4914I192J38D01*
G01Y52856D01*
G02X4134Y53053I197J0D01*
G01X52789D01*
G02X52986Y52856I0J-197D01*
G01Y4134D01*
G02X52789Y3937I-197J0D01*
G01X4914D01*
G02X4876Y3941I0J197D01*
G01X4708Y3974D01*
G02X4673Y3985I40J192D01*
G01X4513Y4051D01*
G02X4482Y4068I77J182D01*
G01X4337Y4164D01*
G02X4310Y4186I112J165D01*
G01X4186Y4310D01*
G02X4164Y4337I143J139D01*
G01X4068Y4482D01*
G02X4051Y4513I165J108D01*
G01X3985Y4673D01*
G02X3974Y4708I182J74D01*
G01X3941Y4876D01*
D02*
G37*
G36*
G01X7087Y220472D02*
G02X6890Y220669I0J197D01*
G01Y246850D01*
G02X7087Y247047I197J0D01*
G01X50401D01*
G02X50417Y247047I-0J-193D01*
G03X51158Y247047I370J4531D01*
G02X51174Y247047I16J-193D01*
G01X66736Y247047D01*
G02X66767Y247045I-0J-197D01*
G03X66929Y247031I162J987D01*
G01X74016D01*
G03X74178Y247045I-0J1001D01*
G02X74209Y247047I31J-193D01*
G01X290354Y247047D01*
G02X290551Y246850I0J-197D01*
G01Y225835D01*
G02X290312Y225643I-197J0D01*
G03X289048Y220858I-548J-2415D01*
G02X288991Y220472I-57J-188D01*
G01X82677D01*
G01Y177362D01*
G02X82480Y177165I-197J0D01*
G01X72835D01*
G01Y134055D01*
G02X72638Y133858I-197J0D01*
G01X39961D01*
G02X39764Y134055I0J197D01*
G01Y220472D01*
G01X7087D01*
D02*
G37*
%LPC*%
G36*
G01X41934Y141126D02*
G03X45063Y137997I4129J1000D01*
G01X45063Y141126D01*
G01X41934D01*
D02*
G37*
G36*
G01X41934Y143126D02*
G01X45063D01*
G01Y146255D01*
G03X41934Y143126I1000J-4129D01*
D02*
G37*
G36*
G01X41934Y152937D02*
G03X45063Y149808I4129J1000D01*
G01X45063Y152937D01*
G01X41934D01*
D02*
G37*
G36*
G01X41934Y154937D02*
G01X45063D01*
G01Y158066D01*
G03X41934Y154937I1000J-4129D01*
D02*
G37*
G36*
G01X41934Y164748D02*
G03X45063Y161619I4129J1000D01*
G01X45063Y164748D01*
G01X41934D01*
D02*
G37*
G36*
G01X41934Y166748D02*
G01X45063D01*
G01Y169877D01*
G03X41934Y166748I1000J-4129D01*
D02*
G37*
G36*
G01X41934Y176559D02*
G03X45063Y173430I4129J1000D01*
G01X45063Y176559D01*
G01X41934D01*
D02*
G37*
G36*
G01Y178559D02*
G01X50192Y178559D01*
G03X49926Y179327I-4129J-1000D01*
G02X50094Y179603I180J80D01*
G03X46985Y181984I-173J2995D01*
G02X46761Y181749I-193J-40D01*
G03X41934Y178559I-698J-4190D01*
D02*
G37*
G36*
G01X47063Y137997D02*
G03X50192Y141126I-1000J4129D01*
G01X47063D01*
G01Y137997D01*
D02*
G37*
G36*
G01Y143126D02*
G01X50192D01*
G03X47063Y146255I-4129J-1000D01*
G01Y143126D01*
D02*
G37*
G36*
G01Y149808D02*
G03X50192Y152937I-1000J4129D01*
G01X47063D01*
G01Y149808D01*
D02*
G37*
G36*
G01Y154937D02*
G01X50192D01*
G03X47063Y158066I-4129J-1000D01*
G01Y154937D01*
D02*
G37*
G36*
G01Y161619D02*
G03X50192Y164748I-1000J4129D01*
G01X47063D01*
G01Y161619D01*
D02*
G37*
G36*
G01Y166748D02*
G01X50192D01*
G03X47063Y169877I-4129J-1000D01*
G01Y166748D01*
D02*
G37*
G36*
G01Y173430D02*
G03X50192Y176559I-1000J4129D01*
G01X47063D01*
G01Y173430D01*
D02*
G37*
%LPD*%
G36*
G01X64039Y3937D02*
G02X63842Y4134I0J197D01*
G01Y89797D01*
G02X63899Y89935I197J0D01*
G01X86290Y112326D01*
G03X86842Y113015I-2826J2831D01*
G02X87203Y112928I165J-108D01*
G03X92026Y112439I2463J261D01*
G03X87804Y114823I-2360J750D01*
G02X87460Y114961I-148J130D01*
G03X87464Y115157I-3992J197D01*
G01X87464Y154270D01*
G02X87659Y154464I197J-2D01*
G01X213126D01*
G02X213323Y154270I-0J-197D01*
G01Y122047D01*
G03X213663Y120433I4000J0D01*
G03X214497Y119216I3660J1614D01*
G01X216535Y117178D01*
G01X248699Y85014D01*
G02X248756Y84876I-140J-138D01*
G01X248756Y5512D01*
G03X248978Y4198I4000J-0D01*
G02X248794Y3937I-186J-64D01*
G01X64039D01*
D02*
G37*
%LPC*%
G36*
G01X75063Y68583D02*
G03X80575Y62148I6512J0D01*
G01Y68764D01*
G01X75063D01*
G01Y68583D01*
D02*
G37*
G36*
G01Y70764D02*
G01X80575D01*
G01Y77379D01*
G03X75063Y70945I1000J-6435D01*
G01Y70764D01*
D02*
G37*
G36*
G01X82575Y62148D02*
G03X87632Y66193I-1000J6435D01*
G02X87998Y66192I183J-73D01*
G03X93055Y62148I6057J2391D01*
G01X93055Y77379D01*
G03X87998Y73336I1000J-6435D01*
G02X87632Y73334I-183J72D01*
G03X82575Y77379I-6058J-2389D01*
G01Y62148D01*
D02*
G37*
G36*
G01X87543Y48583D02*
G03X96535Y42562I6512J0D01*
G03X100567Y48583I-2480J6021D01*
G01X100567Y50945D01*
G03X87543I-6512J0D01*
G01Y48583D01*
D02*
G37*
G36*
G01X92749Y120433D02*
G03X87959Y121693I-2395J630D01*
G03X92749Y120433I2395J-630D01*
D02*
G37*
G36*
G01X95055Y62148D02*
G03X96535Y62562I-1000J6435D01*
G03X100567Y68583I-2480J6021D01*
G01X100567Y68764D01*
G01X95055D01*
G01Y62148D01*
D02*
G37*
G36*
G01Y70764D02*
G01X100567D01*
G01Y70945D01*
G03X96535Y76966I-6512J0D01*
G03X95055Y77379I-2480J-6020D01*
G01Y70764D01*
D02*
G37*
G36*
G01X96535Y38570D02*
G03X91575Y30957I-2480J-3807D01*
G03X96535Y38570I2480J3807D01*
D02*
G37*
G36*
G01Y109415D02*
G03X94016Y105151I-1260J-2132D01*
G03X96535Y109415I1260J2132D01*
D02*
G37*
G36*
G01X98705Y132874D02*
G03X103657I2476J0D01*
G03X98705I-2476J0D01*
D02*
G37*
G36*
G01X102543Y48583D02*
G03X115567I6512J0D01*
G01Y50945D01*
G03X102543I-6512J0D01*
G01Y48583D01*
D02*
G37*
G36*
G01Y68583D02*
G03X115567I6512J0D01*
G01Y70945D01*
G03X102543I-6512J0D01*
G01Y68583D01*
D02*
G37*
G36*
G01X116398Y87202D02*
G03X116397Y83663I-1733J-1769D01*
G02X116672I138J-141D01*
G03X116671Y87202I1732J1770D01*
G02X116398I-137J141D01*
D02*
G37*
G36*
G01X117543Y48583D02*
G03X130567I6512J0D01*
G01Y50945D01*
G03X117543I-6512J0D01*
G01Y48583D01*
D02*
G37*
G36*
G01Y68583D02*
G03X130113Y66193I6512J0D01*
G02X130478Y66192I183J-73D01*
G03X136535Y62071I6057J2391D01*
G03X143047Y68583I0J6512D01*
G01Y70945D01*
G03X136535Y77457I-6512J0D01*
G03X130478Y73336I0J-6512D01*
G02X130113Y73334I-183J72D01*
G03X117543Y70945I-6058J-2389D01*
G01Y68583D01*
D02*
G37*
G36*
G01X119512Y14764D02*
G03X128598I4543J0D01*
G03X119512I-4543J0D01*
D02*
G37*
G36*
G01X126264Y128937D02*
G03X131217I2476J0D01*
G03X126264I-2476J0D01*
D02*
G37*
G36*
G01X136535Y112106D02*
G03Y109153I-1988J-1476D01*
G03Y112106I-1988J1476D01*
D02*
G37*
G36*
G01X138075Y133858D02*
G03X143027I2476J0D01*
G03X138075I-2476J0D01*
D02*
G37*
G36*
G01X153010Y125007D02*
G03X157963I2476J0D01*
G03X153010I-2476J0D01*
D02*
G37*
G36*
G01X159728Y124016D02*
G03X164681I2476J0D01*
G03X159728I-2476J0D01*
D02*
G37*
G36*
G01X172359Y118093D02*
G03X172358Y116158I-2280J-967D01*
G02X172721I181J-77D01*
G03X176535Y115183I2279J968D01*
G03Y119069I-1535J1943D01*
G03X172720Y118093I-1535J-1943D01*
G02X172359I-181J78D01*
D02*
G37*
G36*
G01Y123998D02*
G03X172358Y122064I-2280J-967D01*
G02X172721I181J-77D01*
G03X176535Y121089I2279J968D01*
G03Y124974I-1535J1943D01*
G03X172720Y123998I-1535J-1943D01*
G02X172359I-181J78D01*
D02*
G37*
G36*
G01X173488Y51338D02*
G03X176535Y45825I6512J0D01*
G03X185652Y48104I3465J5514D01*
G02X186017Y48029I169J-100D01*
G03X198992Y48819I6464J790D01*
G01Y51181D01*
G03X186829Y54417I-6512J0D01*
G02X186464Y54491I-170J99D01*
G03X176535Y59214I-6464J-790D01*
G03X173488Y53701I3465J-5514D01*
G01Y51338D01*
D02*
G37*
G36*
G01X184260Y129291D02*
G03X191331I3535J0D01*
G03X184260I-3535J0D01*
D02*
G37*
G36*
G01X184404Y138291D02*
G03X186795Y135900I3391J1000D01*
G01Y138291D01*
G01X184404D01*
D02*
G37*
G36*
G01Y140291D02*
G01X186795D01*
G01Y142682D01*
G03X184404Y140291I1000J-3391D01*
D02*
G37*
G36*
G01X184449Y120433D02*
G03X191141Y118149I3346J-1142D01*
G03X184449Y120433I-3346J1142D01*
D02*
G37*
G36*
G01X185968Y66338D02*
G03X198992I6512J0D01*
G01Y68701D01*
G03X185968I-6512J0D01*
G01Y66338D01*
D02*
G37*
G36*
G01X187937Y35000D02*
G03X197024I4543J0D01*
G03X187937I-4543J0D01*
D02*
G37*
G36*
G01X188795Y135900D02*
G03X191186Y138291I-1000J3391D01*
G01X188795D01*
G01Y135900D01*
D02*
G37*
G36*
G01Y140291D02*
G01X191186D01*
G03X188795Y142682I-3391J-1000D01*
G01Y140291D01*
D02*
G37*
G36*
G01X200969Y51338D02*
G03X213992I6512J0D01*
G01Y53701D01*
G03X209917Y59739I-6512J-0D01*
G02X209919Y60104I75J182D01*
G03X213992Y66142I-2439J6038D01*
G01X213992Y68898D01*
G03X200969I-6512J0D01*
G01Y66142D01*
G03X205043Y60103I6512J0D01*
G02X205044Y59740I-75J-182D01*
G03X200969Y53701I2437J-6039D01*
G01Y51338D01*
D02*
G37*
G36*
G01X215968Y48819D02*
G03X216535Y46161I6512J0D01*
G03X221480Y42384I5945J2657D01*
G01X221480Y49000D01*
G01X215968D01*
G01Y48819D01*
D02*
G37*
G36*
G01Y51000D02*
G01X221480D01*
G01Y57616D01*
G03X216535Y53838I1000J-6435D01*
G03X215968Y51181I5945J-2657D01*
G01Y51000D01*
D02*
G37*
G36*
G01Y66338D02*
G03X216535Y63681I6512J0D01*
G03X221480Y59904I5945J2657D01*
G01X221480Y66520D01*
G01X215968D01*
G01Y66338D01*
D02*
G37*
G36*
G01Y68520D02*
G01X221480D01*
G01Y75135D01*
G03X216535Y71358I1000J-6435D01*
G03X215968Y68701I5945J-2657D01*
G01Y68520D01*
D02*
G37*
G36*
G01X217937Y15000D02*
G03X227024I4543J0D01*
G03X217937I-4543J0D01*
D02*
G37*
G36*
G01X223480Y42384D02*
G03X228992Y48819I-1000J6435D01*
G01Y49000D01*
G01X223480D01*
G01Y42384D01*
D02*
G37*
G36*
G01Y51000D02*
G01X228992D01*
G01Y51181D01*
G03X223480Y57616I-6512J-0D01*
G01Y51000D01*
D02*
G37*
G36*
G01Y59904D02*
G03X228992Y66338I-1000J6435D01*
G01Y66520D01*
G01X223480D01*
G01Y59904D01*
D02*
G37*
G36*
G01Y68520D02*
G01X228992D01*
G01Y68701D01*
G03X223480Y75135I-6512J-0D01*
G01Y68520D01*
D02*
G37*
G36*
G01X233449Y26299D02*
G03X246472I6512J0D01*
G01Y28661D01*
G03X233449I-6512J0D01*
G01Y26299D01*
D02*
G37*
%LPD*%
G36*
G01X104528Y163386D02*
G02X104331Y163583I-0J197D01*
G01Y192717D01*
G02X104528Y192913I197J0D01*
G01X109541D01*
G02X109735Y192732I-2J-197D01*
G03X114674Y192732I2470J181D01*
G02X114871Y192913I196J-15D01*
G01X301954D01*
G02X302092Y192857I-0J-197D01*
G01X316869Y178081D01*
G02X316909Y177860I-139J-139D01*
G03X319068Y180020I3957J-1797D01*
G02X318850Y180059I-80J180D01*
G01X306331Y192578D01*
G02X306471Y192913I140J138D01*
G01X310113D01*
G02X310296Y192789I-0J-197D01*
G03X314901Y192791I2302J912D01*
G02X315084Y192913I182J-74D01*
G01X317793D01*
G02X317926Y192861I-0J-197D01*
G03X323807Y192862I2940J3201D01*
G02X323939Y192913I132J-146D01*
G01X326772D01*
G01Y218701D01*
G02X326969Y218898I197J0D01*
G01X384065D01*
G02X384260Y218702I-2J-197D01*
G01X384195Y200433D01*
G01X383912Y120433D01*
G01X383858Y105118D01*
G01X408543Y80433D01*
G01X413329Y75647D01*
G02X413386Y75509I-140J-138D01*
G01X413386Y43504D01*
G02X413191Y43307I-197J0D01*
G01X411155D01*
G02X411063Y43331I2J197D01*
G03X410571Y43461I-492J-871D01*
G01X404390Y43461D01*
G03X403899Y43332I-0J-1000D01*
G02X403805Y43307I-96J172D01*
G01X380809Y43307D01*
G02X380661Y43375I-0J197D01*
G03X376893Y43376I-1884J-1607D01*
G02X376743Y43307I-150J128D01*
G01X374836D01*
G02X374690Y43373I0J197D01*
G03X370980Y43374I-1855J-1640D01*
G02X370833Y43307I-147J131D01*
G01X368931D01*
G02X368784Y43373I0J197D01*
G03X365075Y43374I-1855J-1640D01*
G02X364927Y43307I-147J131D01*
G01X320900D01*
G02X320751Y43634I-0J197D01*
G03X317043Y43634I-1854J1642D01*
G02X316896Y43307I-147J-131D01*
G01X262008D01*
G02X261811Y43504I0J197D01*
G01Y92520D01*
G01X233898Y120433D01*
G01X226828Y127502D01*
G02X226772Y127641I140J138D01*
G01Y163386D01*
G01X104528D01*
D02*
G37*
%LPC*%
G36*
G01X109728Y187008D02*
G03X114681I2476J0D01*
G03X109728I-2476J0D01*
D02*
G37*
G36*
G01X111697Y169291D02*
G03X116650I2476J0D01*
G03X111697I-2476J0D01*
D02*
G37*
G36*
G01Y175197D02*
G03X116650I2476J0D01*
G03X111697I-2476J0D01*
D02*
G37*
G36*
G01X136535Y171664D02*
G03Y166919I-709J-2373D01*
G03Y171664I-709J2373D01*
D02*
G37*
G36*
G01X151854Y176378D02*
G03X156807I2476J0D01*
G03X151854I-2476J0D01*
D02*
G37*
G36*
G01X156776Y169291D02*
G03X161728I2476J0D01*
G03X156776I-2476J0D01*
D02*
G37*
G36*
G01X168587D02*
G03X173539I2476J0D01*
G03X168587I-2476J0D01*
D02*
G37*
G36*
G01X184260D02*
G03X191331I3535J0D01*
G03X184260I-3535J0D01*
D02*
G37*
G36*
G01Y179291D02*
G03X191331I3535J0D01*
G03X184260I-3535J0D01*
D02*
G37*
G36*
G01X238862Y151575D02*
G03X243815I2476J0D01*
G03X238862I-2476J0D01*
D02*
G37*
G36*
G01X243980Y127953D02*
G03X248933I2476J0D01*
G03X243980I-2476J0D01*
D02*
G37*
G36*
G01X247744Y160433D02*
G03X242807Y160827I-2468J197D01*
G03X247744Y160433I2469J-197D01*
D02*
G37*
G36*
G01X256535Y145784D02*
G03Y141617I1339J-2083D01*
G03X260211Y144518I1339J2083D01*
G02X260501Y144749I187J63D01*
G03X260609Y149016I1310J2101D01*
G02X260320Y149218I-95J172D01*
G03X259938Y150975I-2446J388D01*
G02X259970Y151228I165J107D01*
G01X259979Y151236D01*
G02X260234Y151241I130J-148D01*
G03X260609Y155315I1577J1909D01*
G02X260320Y155517I-95J172D01*
G03X256535Y153822I-2446J388D01*
G03X259077Y153741I1339J2083D01*
G02X259365Y153538I94J-173D01*
G03X259747Y151781I2446J-389D01*
G02X259715Y151528I-165J-108D01*
G01X259707Y151521D01*
G02X259452Y151515I-131J147D01*
G03X256535Y151690I-1578J-1909D01*
G03Y147523I1339J-2083D01*
G03X259077Y147441I1339J2083D01*
G02X259365Y147239I94J-173D01*
G03X259473Y146034I2446J-388D01*
G02X259185Y145802I-186J-64D01*
G03X256535Y145784I-1311J-2101D01*
D02*
G37*
G36*
G01X257925Y170226D02*
G03X262878I2476J0D01*
G03X257925I-2476J0D01*
D02*
G37*
G36*
G01X266028Y91339D02*
G03X270980I2476J0D01*
G03X266028I-2476J0D01*
D02*
G37*
G36*
G01Y98032D02*
G03X270980I2476J0D01*
G03X266028I-2476J0D01*
D02*
G37*
G36*
G01X266815Y142520D02*
G03X271768I2476J0D01*
G03X266815I-2476J0D01*
D02*
G37*
G36*
G01X267209Y149606D02*
G03X272161I2476J0D01*
G03X267209I-2476J0D01*
D02*
G37*
G36*
G01Y156299D02*
G03X272161I2476J0D01*
G03X267209I-2476J0D01*
D02*
G37*
G36*
G01X270260Y167520D02*
G03X271260Y166520I1000J0D01*
G01X278346D01*
G03X279346Y167520I0J1000D01*
G01Y176575D01*
G03X278346Y177575I-1000J0D01*
G01X271260D01*
G03X270260Y176575I0J-1000D01*
G01Y167520D01*
D02*
G37*
G36*
G01X270752Y94882D02*
G03X275705I2476J0D01*
G03X270752I-2476J0D01*
D02*
G37*
G36*
G01X271933Y134252D02*
G03X276886I2476J0D01*
G03X271933I-2476J0D01*
D02*
G37*
G36*
G01X272327Y115354D02*
G03X277279I2476J0D01*
G03X272327I-2476J0D01*
D02*
G37*
G36*
G01Y125591D02*
G03X277279I2476J0D01*
G03X272327I-2476J0D01*
D02*
G37*
G36*
G01X275083Y91339D02*
G03X280035I2476J0D01*
G03X275083I-2476J0D01*
D02*
G37*
G36*
G01Y98032D02*
G03X280035I2476J0D01*
G03X275083I-2476J0D01*
D02*
G37*
G36*
G01X280102Y171063D02*
G03X289189I4543J0D01*
G01Y173031D01*
G03X280102I-4543J0D01*
G01Y171063D01*
D02*
G37*
G36*
G01X287444Y160433D02*
G03X282634Y161614I-2405J591D01*
G03X287444Y160433I2405J-591D01*
D02*
G37*
G36*
G01X290339Y171063D02*
G03X296535Y166831I4543J0D01*
G03X299425Y171063I-1654J4232D01*
G01Y173031D01*
G03X296535Y177263I-4543J0D01*
G03X290339Y173031I-1654J-4232D01*
G01Y171063D01*
D02*
G37*
G36*
G01X290437Y94488D02*
G03X295390I2476J0D01*
G03X290437I-2476J0D01*
D02*
G37*
G36*
G01X296535Y75155D02*
G03Y70515I-866J-2320D01*
G03X298040Y72120I-866J2320D01*
G02X298417Y72119I188J-58D01*
G03X303264Y72835I2371J716D01*
G03X298417Y73551I-2476J-0D01*
G02X298040Y73549I-189J57D01*
G03X296535Y75155I-2371J-715D01*
D02*
G37*
G36*
G01Y103612D02*
G03X295590Y98750I-472J-2431D01*
G03X296535Y103612I472J2431D01*
D02*
G37*
G36*
G01X296736Y59055D02*
G03X301689I2476J0D01*
G03X296736I-2476J0D01*
D02*
G37*
G36*
G01Y96063D02*
G03X301689I2476J0D01*
G03X296736I-2476J0D01*
D02*
G37*
G36*
G01X304587Y98770D02*
G03X303901Y98428I-1437J2017D01*
G02X304075Y98080I60J-188D01*
G03X307763Y97096I1437J-2017D01*
G02X308024Y97355I180J80D01*
G03X310806Y101357I1032J2251D01*
G03X306804Y98575I-1751J-1751D01*
G02X306545Y98314I-179J-81D01*
G03X304759Y98422I-1033J-2251D01*
G02X304587Y98770I-58J188D01*
D02*
G37*
G36*
G01X309335Y72835D02*
G03X314287I2476J0D01*
G03X309335I-2476J0D01*
D02*
G37*
G36*
G01X314846Y95276D02*
G03X319799I2476J0D01*
G03X314846I-2476J0D01*
D02*
G37*
G36*
G01X316520Y116063D02*
G03X325213I4346J0D01*
G03X316520I-4346J0D01*
D02*
G37*
G36*
G01Y126063D02*
G03X325213I4346J0D01*
G03X316520I-4346J0D01*
D02*
G37*
G36*
G01Y136063D02*
G03X325213I4346J0D01*
G03X316520I-4346J0D01*
D02*
G37*
G36*
G01Y146063D02*
G03X325213I4346J0D01*
G03X316520I-4346J0D01*
D02*
G37*
G36*
G01Y156063D02*
G03X325213I4346J0D01*
G03X316520I-4346J0D01*
D02*
G37*
G36*
G01Y166063D02*
G03X325213I4346J0D01*
G03X316520I-4346J0D01*
D02*
G37*
G36*
G01Y186063D02*
G03X325213I4346J0D01*
G03X316520I-4346J0D01*
D02*
G37*
G36*
G01X319571Y91732D02*
G03X324524I2476J0D01*
G03X319571I-2476J0D01*
D02*
G37*
G36*
G01X324295Y171260D02*
G03X329248I2476J0D01*
G03X324295I-2476J0D01*
D02*
G37*
G36*
G01X324689Y181496D02*
G03X329642I2476J0D01*
G03X324689I-2476J0D01*
D02*
G37*
G36*
G01X327445Y90551D02*
G03X332398I2476J0D01*
G03X327445I-2476J0D01*
D02*
G37*
G36*
G01X329807Y102756D02*
G03X334760I2476J0D01*
G03X329807I-2476J0D01*
D02*
G37*
G36*
G01Y157087D02*
G03X334760I2476J0D01*
G03X329807I-2476J0D01*
D02*
G37*
G36*
G01X330594Y197244D02*
G03X335547I2476J0D01*
G03X330594I-2476J0D01*
D02*
G37*
G36*
G01X331454Y65655D02*
G03X336407I2476J0D01*
G03X331454I-2476J0D01*
D02*
G37*
G36*
G01X333970Y191614D02*
G03X331940Y189296I-2473J118D01*
G02X332172Y189093I35J-194D01*
G03X336535Y187376I2474J-117D01*
G03Y190577I-1890J1600D01*
G03X334202Y191413I-1890J-1600D01*
G02X333970Y191614I-35J194D01*
D02*
G37*
G36*
G01X336535Y91944D02*
G03X340630Y89158I2047J-1393D01*
G03X336535Y91944I-2047J1393D01*
D02*
G37*
G36*
G01X344374Y132677D02*
G03X349327I2476J0D01*
G03X344374I-2476J0D01*
D02*
G37*
G36*
G01X344891Y168963D02*
G03X343182Y168393I-1584J1903D01*
G02X343298Y168045I-10J-197D01*
G03X345666Y163793I1584J-1903D01*
G03X345005Y168615I-784J2349D01*
G02X344891Y168963I12J197D01*
D02*
G37*
G36*
G01X346751Y58911D02*
G03X350334Y55509I1674J-1825D01*
G02X350635Y55509I151J-127D01*
G03X354267Y55322I1902J1586D01*
G02X354541Y55321I136J-142D01*
G03X358111Y55422I1737J1765D01*
G02X358403I146J-132D01*
G03X361911Y58911I1833J1664D01*
G02X361912Y59200I134J144D01*
G03X358578Y62863I-1675J1823D01*
G02X358290Y62891I-131J147D01*
G03X354566Y63186I-1990J-1473D01*
G02X354292I-137J141D01*
G03X350496Y62787I-1733J-1769D01*
G02X350193Y62758I-163J110D01*
G03X346750Y59200I-1767J-1735D01*
G02X346751Y58911I-134J-145D01*
D02*
G37*
G36*
G01X349098Y191732D02*
G03X354051I2476J0D01*
G03X349098I-2476J0D01*
D02*
G37*
G36*
G01X350279Y197638D02*
G03X355232I2476J0D01*
G03X350279I-2476J0D01*
D02*
G37*
G36*
G01X351850Y47218D02*
G03X356802I2476J0D01*
G03X351850I-2476J0D01*
D02*
G37*
G36*
G01X352642Y129134D02*
G03X357594I2476J0D01*
G03X352642I-2476J0D01*
D02*
G37*
G36*
G01X355791Y197638D02*
G03X360744I2476J0D01*
G03X355791I-2476J0D01*
D02*
G37*
G36*
G01X356579Y175591D02*
G03X361531I2476J0D01*
G03X356579I-2476J0D01*
D02*
G37*
G36*
G01X358605Y80433D02*
G03X363031Y78211I2213J-1111D01*
G03X358605Y80433I-2213J1111D01*
D02*
G37*
G36*
G01X363302Y107123D02*
G03X368255I2476J0D01*
G03X363302I-2476J0D01*
D02*
G37*
G36*
G01X366282Y80433D02*
G03X370708Y78211I2213J-1111D01*
G03X366282Y80433I-2213J1111D01*
D02*
G37*
G36*
G01X369965Y172835D02*
G03X374917I2476J0D01*
G03X369965I-2476J0D01*
D02*
G37*
G36*
G01X376518Y80433D02*
G03X376535Y78178I2213J-1111D01*
G03X380945Y80433I2196J1144D01*
G03X376535Y80467I-2213J-1111D01*
G03X376518Y80433I2280J-1188D01*
D02*
G37*
G36*
G01X376535Y198372D02*
G03Y196116I2205J-1128D01*
G03Y198372I2205J1128D01*
D02*
G37*
G36*
G01X379020Y61024D02*
G03X383972I2476J0D01*
G03X379020I-2476J0D01*
D02*
G37*
G36*
G01X403514Y48370D02*
G03X406480Y45404I3966J1000D01*
G01Y48370D01*
G01X403514D01*
D02*
G37*
G36*
G01Y50370D02*
G01X406480D01*
G01Y53337D01*
G03X403514Y50370I1000J-3966D01*
D02*
G37*
G36*
G01X408480Y45404D02*
G03X411447Y48370I-1000J3966D01*
G01X408480D01*
G01Y45404D01*
D02*
G37*
G36*
G01Y50370D02*
G01X411447D01*
G03X408480Y53337I-3966J-1000D01*
G01Y50370D01*
D02*
G37*
%LPD*%
D19*
X380315Y209449D02*
X383465Y212598D01*
Y222835D01*
D83*
X136535Y69764D02*
D03*
X124055Y49764D02*
D03*
X109055D02*
D03*
X94055D02*
D03*
X124055Y69764D02*
D03*
X109055D02*
D03*
X94055D02*
D03*
X81575D02*
D03*
X222480Y67520D02*
D03*
Y50000D02*
D03*
X207480Y52520D02*
D03*
X192480Y50000D02*
D03*
X239961Y27480D02*
D03*
X180000Y52520D02*
D03*
X192480Y67520D02*
D03*
D84*
X207480D02*
D03*
D85*
X423228Y59370D02*
D03*
Y69370D02*
D03*
Y89370D02*
D03*
Y99370D02*
D03*
Y79370D02*
D03*
Y49370D02*
D03*
Y109370D02*
D03*
Y186535D02*
D03*
Y196535D02*
D03*
Y206535D02*
D03*
Y216535D02*
D03*
X407480Y49370D02*
D03*
X423228Y241496D02*
D03*
Y251496D02*
D03*
Y261496D02*
D03*
Y271496D02*
D03*
Y281496D02*
D03*
X407480Y196850D02*
D03*
X423228Y151417D02*
D03*
Y131417D02*
D03*
Y141417D02*
D03*
Y161417D02*
D03*
D86*
Y39370D02*
D03*
Y176535D02*
D03*
X407480Y39370D02*
D03*
X423228Y231496D02*
D03*
X407480Y186850D02*
D03*
X423228Y121417D02*
D03*
D91*
X49921Y182598D02*
D03*
D111*
X378346Y290945D02*
X382677D01*
X371260Y298031D02*
X378346Y290945D01*
X355850Y298031D02*
X371260D01*
X352157Y240945D02*
X353338Y239764D01*
X361811D02*
X370019Y247971D01*
X353338Y239764D02*
X361811D01*
X351575Y240945D02*
X352157D01*
X354724Y248220D02*
X377557Y271053D01*
X422786D01*
X354724Y247638D02*
Y248220D01*
X370019Y250334D02*
X377165Y257480D01*
X381890D02*
X385401Y260991D01*
X377165Y257480D02*
X381890D01*
X370019Y247971D02*
Y250334D01*
X351575Y236614D02*
X361811D01*
X371654Y246457D02*
X376378D01*
X361811Y236614D02*
X371654Y246457D01*
X368095Y230709D02*
X372032Y234646D01*
X351575Y230709D02*
X368095D01*
X372032Y234646D02*
X378740D01*
X373208Y221260D02*
X383444Y231496D01*
X356299Y221260D02*
X373208D01*
X351575Y225984D02*
X356299Y221260D01*
X383444Y231496D02*
X423228D01*
X153862Y209767D02*
X296926D01*
X302498Y204195D01*
Y194431D02*
Y204195D01*
Y194431D02*
X320866Y176063D01*
X306299Y212205D02*
X318110Y200394D01*
Y200359D02*
Y200394D01*
Y200359D02*
X320866Y197603D01*
Y196063D02*
Y197603D01*
X149606Y214567D02*
X312362D01*
X320124Y206805D01*
X320866Y206063D01*
X152362Y212205D02*
X306299D01*
X402756Y158661D02*
X405905Y155512D01*
Y106299D02*
Y155512D01*
X402756Y158661D02*
Y163779D01*
X408661Y85039D02*
Y100000D01*
Y85039D02*
X414331Y79370D01*
X408661Y100000D02*
X410433Y101772D01*
X414331Y79370D02*
X423228D01*
X402756Y163779D02*
X405315Y166339D01*
X412992Y89370D02*
X423228D01*
X376378Y246457D02*
X381028Y251107D01*
X422839D01*
X423228Y251496D01*
X422723Y260991D02*
X423228Y261496D01*
X385401Y260991D02*
X422723D01*
X422776Y241043D02*
X423228Y241496D01*
X385138Y241043D02*
X422776D01*
X422786Y271053D02*
X423228Y271496D01*
X344882Y266535D02*
X364825D01*
X369943Y271654D01*
X410433Y101772D02*
Y157480D01*
X378740Y234646D02*
X385138Y241043D01*
X414370Y108228D02*
X423228Y99370D01*
X411417Y162402D02*
X414370Y159449D01*
X408465Y162402D02*
X411417D01*
X414370Y108228D02*
Y159449D01*
X137008Y302756D02*
X153150Y286614D01*
X303543D02*
X319291Y270866D01*
X153150Y286614D02*
X303543D01*
X175591Y302756D02*
X189370Y288976D01*
X21260Y302756D02*
X44488Y279528D01*
X80709Y281890D02*
X290945D01*
X98425Y302756D02*
X116929Y284252D01*
X252756Y302756D02*
X262598Y292913D01*
X116929Y284252D02*
X293307D01*
X316535Y261024D01*
X189370Y288976D02*
X307480D01*
X305709Y292913D02*
X313583Y300787D01*
X59842Y302756D02*
X80709Y281890D01*
X290945D02*
X314173Y258661D01*
X307480Y288976D02*
X315354Y281102D01*
X262598Y292913D02*
X305709D01*
X214173Y302756D02*
X225984Y290945D01*
X44488Y279528D02*
X287795D01*
X311024Y256299D01*
X225984Y290945D02*
X324803D01*
X326397Y292539D02*
X329833D01*
X324803Y290945D02*
X326397Y292539D01*
X313583Y300787D02*
X324410D01*
X291430Y302847D02*
Y308162D01*
X291339Y302756D02*
X291430Y302847D01*
Y308162D02*
X295079Y311811D01*
X322964D01*
X405315Y166339D02*
X415354D01*
X320866Y246063D02*
X322047D01*
X338189Y259842D02*
X344882Y266535D01*
X330893Y262598D02*
X349397Y281102D01*
X338189Y242520D02*
Y259842D01*
X320866Y256063D02*
X322407D01*
X324573Y258038D02*
X329134Y262598D01*
X335433Y243307D02*
Y260236D01*
X350000Y277953D02*
X370472D01*
X349397Y281102D02*
X382677D01*
X322407Y256063D02*
X324382Y258038D01*
X324573D01*
X333071Y257087D02*
Y261024D01*
X322047Y246063D02*
X333071Y257087D01*
X329134Y262598D02*
X330893D01*
X333071Y261024D02*
X350000Y277953D01*
X344488Y269291D02*
X362992D01*
X335433Y260236D02*
X344488Y269291D01*
X107087Y206299D02*
X146457D01*
X99213Y194095D02*
Y198425D01*
X107087Y206299D01*
X146850Y202756D02*
X153862Y209767D01*
X111024Y202756D02*
X146850D01*
X146457Y206299D02*
X152362Y212205D01*
X144882Y209842D02*
X149606Y214567D01*
X362992Y269291D02*
X368504Y274803D01*
X378346D01*
X369943Y271654D02*
X370472D01*
X318110Y240945D02*
X326083D01*
X326368Y241230D01*
X311024Y248031D02*
X318110Y240945D01*
X329528Y281496D02*
X342520D01*
X349213Y288189D02*
X377559D01*
X342520Y281496D02*
X349213Y288189D01*
X328740Y271260D02*
X335827D01*
X349606Y285039D01*
X370472D01*
X311024Y248031D02*
Y256299D01*
X315354Y281102D02*
X324383D01*
X332283Y232677D02*
Y236614D01*
X338189Y242520D01*
X320866Y216063D02*
X327165Y222362D01*
Y227559D01*
X332283Y232677D01*
X320866Y226063D02*
X329528Y234724D01*
Y237402D01*
X335433Y243307D01*
X328760Y257106D02*
X329134Y257480D01*
X328760Y255925D02*
Y257106D01*
X324016Y251181D02*
X328760Y255925D01*
X324016Y261024D02*
X329528Y266535D01*
X316535Y261024D02*
X324016D01*
X314173Y253937D02*
Y258661D01*
Y253937D02*
X316929Y251181D01*
X324016D01*
X321955Y267152D02*
X324633D01*
X320866Y266063D02*
X321955Y267152D01*
X324633D02*
X328740Y271260D01*
X325184Y277152D02*
X329528Y281496D01*
X321955Y277152D02*
X325184D01*
X320866Y276063D02*
X321955Y277152D01*
X319291Y270866D02*
X324410D01*
X329921Y276378D01*
X324383Y281102D02*
X330289Y287008D01*
X329833Y292539D02*
X330207Y292913D01*
X322964Y311811D02*
X326092Y308683D01*
X329899D01*
X330269Y308313D01*
X324410Y300787D02*
X326004Y299193D01*
X329698D01*
X330072Y298819D01*
X351492Y296063D02*
X352279Y295276D01*
X320866Y296063D02*
X351492D01*
X352279Y295276D02*
X366929D01*
X351519Y302362D02*
X355850Y298031D01*
X326107Y302362D02*
X351519D01*
X322407Y306063D02*
X326107Y302362D01*
X320866Y306063D02*
X322407D01*
X378346Y274803D02*
X379153Y275610D01*
X382303D01*
X382677Y275984D01*
X366929Y295276D02*
X370472Y291732D01*
X320866Y296063D02*
X321654Y295276D01*
X377559Y288189D02*
X379153Y286595D01*
X382303D01*
X382677Y286221D01*
D114*
X407480Y49370D02*
X423228D01*
D126*
X339370Y8347D02*
D03*
X373425D02*
D03*
D127*
X339370Y24803D02*
D03*
X373425D02*
D03*
D128*
X274803Y172047D02*
D03*
D129*
X294882D02*
D03*
X284646D02*
D03*
D130*
X15748Y15748D02*
D03*
D131*
X187795Y139291D02*
D03*
Y119291D02*
D03*
Y129291D02*
D03*
Y179291D02*
D03*
Y169291D02*
D03*
D133*
X301181Y251969D02*
D03*
X108268Y269685D02*
D03*
X70472Y251575D02*
D03*
X147638Y251969D02*
D03*
X224410D02*
D03*
X31496Y269685D02*
D03*
X185039D02*
D03*
X261811D02*
D03*
D134*
X281496Y251969D02*
D03*
X137008Y302756D02*
D03*
X127165D02*
D03*
X88583Y269685D02*
D03*
X50787Y251575D02*
D03*
X127953Y251969D02*
D03*
X204724D02*
D03*
X11811Y269685D02*
D03*
X165354D02*
D03*
X242126D02*
D03*
X98425Y302756D02*
D03*
X88583D02*
D03*
X59842D02*
D03*
X50000D02*
D03*
X21260D02*
D03*
X11417D02*
D03*
X291339D02*
D03*
X281496D02*
D03*
X252756D02*
D03*
X242913D02*
D03*
X214173D02*
D03*
X204331D02*
D03*
X175591D02*
D03*
X165748D02*
D03*
D135*
X46063Y177559D02*
D03*
Y165748D02*
D03*
Y153937D02*
D03*
Y142126D02*
D03*
X34252D02*
D03*
Y165748D02*
D03*
Y153937D02*
D03*
Y177559D02*
D03*
D136*
X146850Y302756D02*
D03*
X108268D02*
D03*
X69685D02*
D03*
X31102D02*
D03*
X301181D02*
D03*
X262598D02*
D03*
X224016D02*
D03*
X185433D02*
D03*
D137*
X260827Y236221D02*
D03*
X69882Y209646D02*
D03*
X48819Y209842D02*
D03*
X66535Y214173D02*
D03*
X73425D02*
D03*
X45276D02*
D03*
X52165D02*
D03*
X283071Y237205D02*
D03*
Y230315D02*
D03*
X254921Y236221D02*
D03*
X248622Y236221D02*
D03*
X283071Y223425D02*
D03*
X206299Y237205D02*
D03*
Y230315D02*
D03*
X187598Y236221D02*
D03*
X179724D02*
D03*
X171850D02*
D03*
X206299Y223425D02*
D03*
X129528Y237205D02*
D03*
Y230315D02*
D03*
X110827Y236221D02*
D03*
X102953D02*
D03*
X95079D02*
D03*
X129528Y223425D02*
D03*
X53150Y223425D02*
D03*
X9843Y238189D02*
D03*
X18701D02*
D03*
X26575D02*
D03*
X34449D02*
D03*
X53150Y230315D02*
D03*
Y237205D02*
D03*
X277559Y91339D02*
D03*
Y98032D02*
D03*
X273228Y94882D02*
D03*
X268504Y98032D02*
D03*
Y91339D02*
D03*
X379528Y304724D02*
D03*
X344882Y166142D02*
D03*
X372441Y172835D02*
D03*
X332283Y157087D02*
D03*
X380906Y262795D02*
D03*
X360236Y274016D02*
D03*
X365748Y249606D02*
D03*
X378740Y197244D02*
D03*
X358268Y197638D02*
D03*
X354331Y307087D02*
D03*
X352756Y197638D02*
D03*
X333071Y197244D02*
D03*
X334646Y188976D02*
D03*
X381496Y61024D02*
D03*
X378731Y79322D02*
D03*
X395669Y39370D02*
D03*
X385791Y40681D02*
D03*
X389736Y33437D02*
D03*
X395669Y11811D02*
D03*
X383858Y5906D02*
D03*
X378776Y41768D02*
D03*
X374016Y35433D02*
D03*
X372835Y41732D02*
D03*
X365779Y107123D02*
D03*
X368495Y79322D02*
D03*
X360818D02*
D03*
X360236Y57087D02*
D03*
X355118Y129134D02*
D03*
X346850Y132677D02*
D03*
X360236Y61024D02*
D03*
X348425Y57087D02*
D03*
X333930Y65655D02*
D03*
X348425Y61024D02*
D03*
X354326Y47218D02*
D03*
X356299Y5906D02*
D03*
X338583Y35433D02*
D03*
X324446Y33827D02*
D03*
X318898Y45276D02*
D03*
Y11811D02*
D03*
X326772Y5906D02*
D03*
X230315Y196850D02*
D03*
X170079Y206693D02*
D03*
X184646D02*
D03*
X155905D02*
D03*
X200787D02*
D03*
Y200787D02*
D03*
X159449Y198819D02*
D03*
X165354D02*
D03*
X245276Y160630D02*
D03*
X269685Y156299D02*
D03*
Y149606D02*
D03*
X241339Y151575D02*
D03*
X223622Y150000D02*
D03*
X159252Y169291D02*
D03*
X154331Y176378D02*
D03*
X223622Y159843D02*
D03*
X171063Y169291D02*
D03*
X112205Y196850D02*
D03*
X94488Y206693D02*
D03*
X103150D02*
D03*
X136221Y196850D02*
D03*
X141732D02*
D03*
X112205Y192913D02*
D03*
X90551Y198819D02*
D03*
X34449Y194882D02*
D03*
X112205Y187008D02*
D03*
X114173Y175197D02*
D03*
X135827Y169291D02*
D03*
X90551D02*
D03*
X114173D02*
D03*
X90551Y183071D02*
D03*
X75787Y173228D02*
D03*
X34449Y188976D02*
D03*
X28543Y171260D02*
D03*
X75787Y160433D02*
D03*
X28543Y159449D02*
D03*
X300787Y72835D02*
D03*
X311811D02*
D03*
X269291Y142520D02*
D03*
X274410Y134252D02*
D03*
X274803Y115354D02*
D03*
Y125591D02*
D03*
X299213Y59055D02*
D03*
X306201Y22539D02*
D03*
X259055Y31496D02*
D03*
X292471Y22884D02*
D03*
X259055Y62992D02*
D03*
Y47244D02*
D03*
X292463Y12699D02*
D03*
X259055Y15748D02*
D03*
X246457Y127953D02*
D03*
X242126Y108268D02*
D03*
X226378Y124016D02*
D03*
X234252Y116142D02*
D03*
X75787Y146653D02*
D03*
X223228Y139764D02*
D03*
X28543Y147638D02*
D03*
Y134843D02*
D03*
X75787D02*
D03*
X224016Y130709D02*
D03*
X26575Y125984D02*
D03*
Y119095D02*
D03*
X257874Y92520D02*
D03*
X250000Y100394D02*
D03*
X259055Y78740D02*
D03*
X66929Y108268D02*
D03*
X55118Y98425D02*
D03*
X47244Y72835D02*
D03*
X47244Y63878D02*
D03*
X41339Y72835D02*
D03*
Y63878D02*
D03*
X35433Y72835D02*
D03*
X23622D02*
D03*
X29528D02*
D03*
X35433Y63878D02*
D03*
X29528D02*
D03*
X344882Y175591D02*
D03*
X378740Y242913D02*
D03*
X383465Y222835D02*
D03*
X346457Y197244D02*
D03*
X393307Y52756D02*
D03*
X376378Y156299D02*
D03*
X377103Y112272D02*
D03*
X337008Y213779D02*
D03*
X241142Y186221D02*
D03*
X241218Y176454D02*
D03*
X241142Y181299D02*
D03*
X237205Y188189D02*
D03*
Y178347D02*
D03*
X237128Y183191D02*
D03*
X154724Y187992D02*
D03*
X134744Y188091D02*
D03*
X135630Y182087D02*
D03*
X109055Y177953D02*
D03*
X332283Y151575D02*
D03*
Y144488D02*
D03*
X332388Y138954D02*
D03*
X306299Y59055D02*
D03*
X241142Y171457D02*
D03*
X237205Y173425D02*
D03*
X234252Y138976D02*
D03*
Y131102D02*
D03*
Y135039D02*
D03*
X312598Y193701D02*
D03*
Y199213D02*
D03*
X307589D02*
D03*
X309842Y203937D02*
D03*
X285039Y161024D02*
D03*
X382677Y290945D02*
D03*
X317323Y95276D02*
D03*
X305512Y96063D02*
D03*
X322047Y91732D02*
D03*
X329921Y90551D02*
D03*
X332283Y102756D02*
D03*
X338583Y90551D02*
D03*
X303150Y100787D02*
D03*
X343307Y170866D02*
D03*
X359055Y175591D02*
D03*
X327165Y181496D02*
D03*
X331496Y191732D02*
D03*
X326772Y171260D02*
D03*
X364173Y37402D02*
D03*
X344488Y39370D02*
D03*
X357087Y243701D02*
D03*
X292913Y94488D02*
D03*
X295669Y72835D02*
D03*
X267717Y25591D02*
D03*
Y19685D02*
D03*
X273622D02*
D03*
Y25591D02*
D03*
X279528Y19685D02*
D03*
Y25591D02*
D03*
X299213Y96063D02*
D03*
X296063Y101181D02*
D03*
X309055Y99606D02*
D03*
X257874Y155905D02*
D03*
X261811Y153150D02*
D03*
X257874Y143701D02*
D03*
X261811Y146850D02*
D03*
X257874Y149606D02*
D03*
X260402Y170226D02*
D03*
X354724Y247638D02*
D03*
X351575Y240945D02*
D03*
Y236614D02*
D03*
X357087Y233858D02*
D03*
X351575Y230709D02*
D03*
Y225984D02*
D03*
X289764Y223228D02*
D03*
X405905Y106299D02*
D03*
X412992Y89370D02*
D03*
X373622Y243307D02*
D03*
Y237795D02*
D03*
Y231496D02*
D03*
X371654Y225984D02*
D03*
X410433Y157480D02*
D03*
X351575Y191732D02*
D03*
X408465Y162402D02*
D03*
X357087Y226378D02*
D03*
X23622Y48228D02*
D03*
X47244Y45276D02*
D03*
Y30512D02*
D03*
Y18701D02*
D03*
Y8858D02*
D03*
X35433D02*
D03*
X10827Y38386D02*
D03*
Y47244D02*
D03*
X415354Y166339D02*
D03*
X356277Y57086D02*
D03*
X352537Y57095D02*
D03*
X356299Y61417D02*
D03*
X352559D02*
D03*
X118404Y85433D02*
D03*
X114664D02*
D03*
X122441D02*
D03*
X146235Y129114D02*
D03*
X90551Y92520D02*
D03*
X144882Y209842D02*
D03*
X373622Y249213D02*
D03*
X366929Y41732D02*
D03*
X326368Y241230D02*
D03*
X329134Y257480D02*
D03*
X329528Y266535D02*
D03*
X329921Y276378D02*
D03*
X330269Y308313D02*
D03*
X330289Y287008D02*
D03*
X330207Y292913D02*
D03*
X330072Y298819D02*
D03*
X111024Y202756D02*
D03*
X99213Y194095D02*
D03*
X175000Y149606D02*
D03*
X90158Y151575D02*
D03*
X89764Y145669D02*
D03*
X205512Y142717D02*
D03*
X234252Y9843D02*
D03*
X145472Y88583D02*
D03*
X142520Y111220D02*
D03*
X134547Y110630D02*
D03*
X140551Y133858D02*
D03*
X115945Y140748D02*
D03*
X135630Y88583D02*
D03*
X144488Y106299D02*
D03*
X162205Y141732D02*
D03*
X128740Y128937D02*
D03*
X175000Y9843D02*
D03*
X194685D02*
D03*
X155315D02*
D03*
X67716Y30727D02*
D03*
Y89783D02*
D03*
Y70098D02*
D03*
X89665Y113189D02*
D03*
X67716Y50412D02*
D03*
X66732Y9843D02*
D03*
X86417D02*
D03*
X106102D02*
D03*
X95276Y140748D02*
D03*
X135630Y9843D02*
D03*
X89370Y138779D02*
D03*
X90354Y127953D02*
D03*
X101181Y132874D02*
D03*
X110630Y85433D02*
D03*
X220276Y102362D02*
D03*
X205512Y119094D02*
D03*
X232087Y89567D02*
D03*
X211024Y111024D02*
D03*
X237008Y46260D02*
D03*
Y59055D02*
D03*
Y74803D02*
D03*
X162205Y124016D02*
D03*
X175000Y123031D02*
D03*
X170079D02*
D03*
Y117126D02*
D03*
X175000D02*
D03*
X178937Y111220D02*
D03*
X148425Y106299D02*
D03*
X155486Y125007D02*
D03*
X148425Y102362D02*
D03*
X90354Y100394D02*
D03*
X125394Y101575D02*
D03*
X102165Y107283D02*
D03*
X96260Y88583D02*
D03*
X90354Y121063D02*
D03*
X95276Y107283D02*
D03*
X382677Y286221D02*
D03*
X370472Y291732D02*
D03*
Y285039D02*
D03*
Y277953D02*
D03*
Y271654D02*
D03*
X382677Y275984D02*
D03*
Y281102D02*
D03*
X354396Y37461D02*
D03*
D138*
X390866Y226063D02*
D03*
Y216063D02*
D03*
X320866Y306063D02*
D03*
Y296063D02*
D03*
Y276063D02*
D03*
Y266063D02*
D03*
Y256063D02*
D03*
Y246063D02*
D03*
Y226063D02*
D03*
Y216063D02*
D03*
Y206063D02*
D03*
Y196063D02*
D03*
Y176063D02*
D03*
Y166063D02*
D03*
Y156063D02*
D03*
Y146063D02*
D03*
Y126063D02*
D03*
Y116063D02*
D03*
X390866D02*
D03*
Y126063D02*
D03*
Y146063D02*
D03*
Y156063D02*
D03*
Y166063D02*
D03*
Y176063D02*
D03*
Y196063D02*
D03*
Y206063D02*
D03*
Y246063D02*
D03*
Y256063D02*
D03*
Y266063D02*
D03*
Y276063D02*
D03*
Y296063D02*
D03*
Y306063D02*
D03*
X320866Y136063D02*
D03*
Y186063D02*
D03*
Y236063D02*
D03*
Y286063D02*
D03*
X390866Y186063D02*
D03*
Y136063D02*
D03*
Y236063D02*
D03*
Y286063D02*
D03*
M02*
